G75*
%MOIN*%
%OFA0B0*%
%FSLAX25Y25*%
%IPPOS*%
%LPD*%
%AMOC8*
5,1,8,0,0,1.08239X$1,22.5*
%
%ADD10C,0.00000*%
D10*
X0001800Y0001200D02*
X0001800Y0188161D01*
X0400501Y0188161D01*
X0400661Y0187701D02*
X0400739Y0001000D01*
X0400501Y0001200D02*
X0001800Y0001200D01*
X0076288Y0142200D02*
X0076290Y0142348D01*
X0076296Y0142496D01*
X0076306Y0142644D01*
X0076320Y0142791D01*
X0076338Y0142938D01*
X0076359Y0143084D01*
X0076385Y0143230D01*
X0076415Y0143375D01*
X0076448Y0143519D01*
X0076486Y0143662D01*
X0076527Y0143804D01*
X0076572Y0143945D01*
X0076620Y0144085D01*
X0076673Y0144224D01*
X0076729Y0144361D01*
X0076789Y0144496D01*
X0076852Y0144630D01*
X0076919Y0144762D01*
X0076990Y0144892D01*
X0077064Y0145020D01*
X0077141Y0145146D01*
X0077222Y0145270D01*
X0077306Y0145392D01*
X0077393Y0145511D01*
X0077484Y0145628D01*
X0077578Y0145743D01*
X0077674Y0145855D01*
X0077774Y0145965D01*
X0077876Y0146071D01*
X0077982Y0146175D01*
X0078090Y0146276D01*
X0078201Y0146374D01*
X0078314Y0146470D01*
X0078430Y0146562D01*
X0078548Y0146651D01*
X0078669Y0146736D01*
X0078792Y0146819D01*
X0078917Y0146898D01*
X0079044Y0146974D01*
X0079173Y0147046D01*
X0079304Y0147115D01*
X0079437Y0147180D01*
X0079572Y0147241D01*
X0079708Y0147299D01*
X0079845Y0147354D01*
X0079984Y0147404D01*
X0080125Y0147451D01*
X0080266Y0147494D01*
X0080409Y0147534D01*
X0080553Y0147569D01*
X0080697Y0147601D01*
X0080843Y0147628D01*
X0080989Y0147652D01*
X0081136Y0147672D01*
X0081283Y0147688D01*
X0081430Y0147700D01*
X0081578Y0147708D01*
X0081726Y0147712D01*
X0081874Y0147712D01*
X0082022Y0147708D01*
X0082170Y0147700D01*
X0082317Y0147688D01*
X0082464Y0147672D01*
X0082611Y0147652D01*
X0082757Y0147628D01*
X0082903Y0147601D01*
X0083047Y0147569D01*
X0083191Y0147534D01*
X0083334Y0147494D01*
X0083475Y0147451D01*
X0083616Y0147404D01*
X0083755Y0147354D01*
X0083892Y0147299D01*
X0084028Y0147241D01*
X0084163Y0147180D01*
X0084296Y0147115D01*
X0084427Y0147046D01*
X0084556Y0146974D01*
X0084683Y0146898D01*
X0084808Y0146819D01*
X0084931Y0146736D01*
X0085052Y0146651D01*
X0085170Y0146562D01*
X0085286Y0146470D01*
X0085399Y0146374D01*
X0085510Y0146276D01*
X0085618Y0146175D01*
X0085724Y0146071D01*
X0085826Y0145965D01*
X0085926Y0145855D01*
X0086022Y0145743D01*
X0086116Y0145628D01*
X0086207Y0145511D01*
X0086294Y0145392D01*
X0086378Y0145270D01*
X0086459Y0145146D01*
X0086536Y0145020D01*
X0086610Y0144892D01*
X0086681Y0144762D01*
X0086748Y0144630D01*
X0086811Y0144496D01*
X0086871Y0144361D01*
X0086927Y0144224D01*
X0086980Y0144085D01*
X0087028Y0143945D01*
X0087073Y0143804D01*
X0087114Y0143662D01*
X0087152Y0143519D01*
X0087185Y0143375D01*
X0087215Y0143230D01*
X0087241Y0143084D01*
X0087262Y0142938D01*
X0087280Y0142791D01*
X0087294Y0142644D01*
X0087304Y0142496D01*
X0087310Y0142348D01*
X0087312Y0142200D01*
X0087310Y0142052D01*
X0087304Y0141904D01*
X0087294Y0141756D01*
X0087280Y0141609D01*
X0087262Y0141462D01*
X0087241Y0141316D01*
X0087215Y0141170D01*
X0087185Y0141025D01*
X0087152Y0140881D01*
X0087114Y0140738D01*
X0087073Y0140596D01*
X0087028Y0140455D01*
X0086980Y0140315D01*
X0086927Y0140176D01*
X0086871Y0140039D01*
X0086811Y0139904D01*
X0086748Y0139770D01*
X0086681Y0139638D01*
X0086610Y0139508D01*
X0086536Y0139380D01*
X0086459Y0139254D01*
X0086378Y0139130D01*
X0086294Y0139008D01*
X0086207Y0138889D01*
X0086116Y0138772D01*
X0086022Y0138657D01*
X0085926Y0138545D01*
X0085826Y0138435D01*
X0085724Y0138329D01*
X0085618Y0138225D01*
X0085510Y0138124D01*
X0085399Y0138026D01*
X0085286Y0137930D01*
X0085170Y0137838D01*
X0085052Y0137749D01*
X0084931Y0137664D01*
X0084808Y0137581D01*
X0084683Y0137502D01*
X0084556Y0137426D01*
X0084427Y0137354D01*
X0084296Y0137285D01*
X0084163Y0137220D01*
X0084028Y0137159D01*
X0083892Y0137101D01*
X0083755Y0137046D01*
X0083616Y0136996D01*
X0083475Y0136949D01*
X0083334Y0136906D01*
X0083191Y0136866D01*
X0083047Y0136831D01*
X0082903Y0136799D01*
X0082757Y0136772D01*
X0082611Y0136748D01*
X0082464Y0136728D01*
X0082317Y0136712D01*
X0082170Y0136700D01*
X0082022Y0136692D01*
X0081874Y0136688D01*
X0081726Y0136688D01*
X0081578Y0136692D01*
X0081430Y0136700D01*
X0081283Y0136712D01*
X0081136Y0136728D01*
X0080989Y0136748D01*
X0080843Y0136772D01*
X0080697Y0136799D01*
X0080553Y0136831D01*
X0080409Y0136866D01*
X0080266Y0136906D01*
X0080125Y0136949D01*
X0079984Y0136996D01*
X0079845Y0137046D01*
X0079708Y0137101D01*
X0079572Y0137159D01*
X0079437Y0137220D01*
X0079304Y0137285D01*
X0079173Y0137354D01*
X0079044Y0137426D01*
X0078917Y0137502D01*
X0078792Y0137581D01*
X0078669Y0137664D01*
X0078548Y0137749D01*
X0078430Y0137838D01*
X0078314Y0137930D01*
X0078201Y0138026D01*
X0078090Y0138124D01*
X0077982Y0138225D01*
X0077876Y0138329D01*
X0077774Y0138435D01*
X0077674Y0138545D01*
X0077578Y0138657D01*
X0077484Y0138772D01*
X0077393Y0138889D01*
X0077306Y0139008D01*
X0077222Y0139130D01*
X0077141Y0139254D01*
X0077064Y0139380D01*
X0076990Y0139508D01*
X0076919Y0139638D01*
X0076852Y0139770D01*
X0076789Y0139904D01*
X0076729Y0140039D01*
X0076673Y0140176D01*
X0076620Y0140315D01*
X0076572Y0140455D01*
X0076527Y0140596D01*
X0076486Y0140738D01*
X0076448Y0140881D01*
X0076415Y0141025D01*
X0076385Y0141170D01*
X0076359Y0141316D01*
X0076338Y0141462D01*
X0076320Y0141609D01*
X0076306Y0141756D01*
X0076296Y0141904D01*
X0076290Y0142052D01*
X0076288Y0142200D01*
X0342288Y0029100D02*
X0342290Y0029248D01*
X0342296Y0029396D01*
X0342306Y0029544D01*
X0342320Y0029691D01*
X0342338Y0029838D01*
X0342359Y0029984D01*
X0342385Y0030130D01*
X0342415Y0030275D01*
X0342448Y0030419D01*
X0342486Y0030562D01*
X0342527Y0030704D01*
X0342572Y0030845D01*
X0342620Y0030985D01*
X0342673Y0031124D01*
X0342729Y0031261D01*
X0342789Y0031396D01*
X0342852Y0031530D01*
X0342919Y0031662D01*
X0342990Y0031792D01*
X0343064Y0031920D01*
X0343141Y0032046D01*
X0343222Y0032170D01*
X0343306Y0032292D01*
X0343393Y0032411D01*
X0343484Y0032528D01*
X0343578Y0032643D01*
X0343674Y0032755D01*
X0343774Y0032865D01*
X0343876Y0032971D01*
X0343982Y0033075D01*
X0344090Y0033176D01*
X0344201Y0033274D01*
X0344314Y0033370D01*
X0344430Y0033462D01*
X0344548Y0033551D01*
X0344669Y0033636D01*
X0344792Y0033719D01*
X0344917Y0033798D01*
X0345044Y0033874D01*
X0345173Y0033946D01*
X0345304Y0034015D01*
X0345437Y0034080D01*
X0345572Y0034141D01*
X0345708Y0034199D01*
X0345845Y0034254D01*
X0345984Y0034304D01*
X0346125Y0034351D01*
X0346266Y0034394D01*
X0346409Y0034434D01*
X0346553Y0034469D01*
X0346697Y0034501D01*
X0346843Y0034528D01*
X0346989Y0034552D01*
X0347136Y0034572D01*
X0347283Y0034588D01*
X0347430Y0034600D01*
X0347578Y0034608D01*
X0347726Y0034612D01*
X0347874Y0034612D01*
X0348022Y0034608D01*
X0348170Y0034600D01*
X0348317Y0034588D01*
X0348464Y0034572D01*
X0348611Y0034552D01*
X0348757Y0034528D01*
X0348903Y0034501D01*
X0349047Y0034469D01*
X0349191Y0034434D01*
X0349334Y0034394D01*
X0349475Y0034351D01*
X0349616Y0034304D01*
X0349755Y0034254D01*
X0349892Y0034199D01*
X0350028Y0034141D01*
X0350163Y0034080D01*
X0350296Y0034015D01*
X0350427Y0033946D01*
X0350556Y0033874D01*
X0350683Y0033798D01*
X0350808Y0033719D01*
X0350931Y0033636D01*
X0351052Y0033551D01*
X0351170Y0033462D01*
X0351286Y0033370D01*
X0351399Y0033274D01*
X0351510Y0033176D01*
X0351618Y0033075D01*
X0351724Y0032971D01*
X0351826Y0032865D01*
X0351926Y0032755D01*
X0352022Y0032643D01*
X0352116Y0032528D01*
X0352207Y0032411D01*
X0352294Y0032292D01*
X0352378Y0032170D01*
X0352459Y0032046D01*
X0352536Y0031920D01*
X0352610Y0031792D01*
X0352681Y0031662D01*
X0352748Y0031530D01*
X0352811Y0031396D01*
X0352871Y0031261D01*
X0352927Y0031124D01*
X0352980Y0030985D01*
X0353028Y0030845D01*
X0353073Y0030704D01*
X0353114Y0030562D01*
X0353152Y0030419D01*
X0353185Y0030275D01*
X0353215Y0030130D01*
X0353241Y0029984D01*
X0353262Y0029838D01*
X0353280Y0029691D01*
X0353294Y0029544D01*
X0353304Y0029396D01*
X0353310Y0029248D01*
X0353312Y0029100D01*
X0353310Y0028952D01*
X0353304Y0028804D01*
X0353294Y0028656D01*
X0353280Y0028509D01*
X0353262Y0028362D01*
X0353241Y0028216D01*
X0353215Y0028070D01*
X0353185Y0027925D01*
X0353152Y0027781D01*
X0353114Y0027638D01*
X0353073Y0027496D01*
X0353028Y0027355D01*
X0352980Y0027215D01*
X0352927Y0027076D01*
X0352871Y0026939D01*
X0352811Y0026804D01*
X0352748Y0026670D01*
X0352681Y0026538D01*
X0352610Y0026408D01*
X0352536Y0026280D01*
X0352459Y0026154D01*
X0352378Y0026030D01*
X0352294Y0025908D01*
X0352207Y0025789D01*
X0352116Y0025672D01*
X0352022Y0025557D01*
X0351926Y0025445D01*
X0351826Y0025335D01*
X0351724Y0025229D01*
X0351618Y0025125D01*
X0351510Y0025024D01*
X0351399Y0024926D01*
X0351286Y0024830D01*
X0351170Y0024738D01*
X0351052Y0024649D01*
X0350931Y0024564D01*
X0350808Y0024481D01*
X0350683Y0024402D01*
X0350556Y0024326D01*
X0350427Y0024254D01*
X0350296Y0024185D01*
X0350163Y0024120D01*
X0350028Y0024059D01*
X0349892Y0024001D01*
X0349755Y0023946D01*
X0349616Y0023896D01*
X0349475Y0023849D01*
X0349334Y0023806D01*
X0349191Y0023766D01*
X0349047Y0023731D01*
X0348903Y0023699D01*
X0348757Y0023672D01*
X0348611Y0023648D01*
X0348464Y0023628D01*
X0348317Y0023612D01*
X0348170Y0023600D01*
X0348022Y0023592D01*
X0347874Y0023588D01*
X0347726Y0023588D01*
X0347578Y0023592D01*
X0347430Y0023600D01*
X0347283Y0023612D01*
X0347136Y0023628D01*
X0346989Y0023648D01*
X0346843Y0023672D01*
X0346697Y0023699D01*
X0346553Y0023731D01*
X0346409Y0023766D01*
X0346266Y0023806D01*
X0346125Y0023849D01*
X0345984Y0023896D01*
X0345845Y0023946D01*
X0345708Y0024001D01*
X0345572Y0024059D01*
X0345437Y0024120D01*
X0345304Y0024185D01*
X0345173Y0024254D01*
X0345044Y0024326D01*
X0344917Y0024402D01*
X0344792Y0024481D01*
X0344669Y0024564D01*
X0344548Y0024649D01*
X0344430Y0024738D01*
X0344314Y0024830D01*
X0344201Y0024926D01*
X0344090Y0025024D01*
X0343982Y0025125D01*
X0343876Y0025229D01*
X0343774Y0025335D01*
X0343674Y0025445D01*
X0343578Y0025557D01*
X0343484Y0025672D01*
X0343393Y0025789D01*
X0343306Y0025908D01*
X0343222Y0026030D01*
X0343141Y0026154D01*
X0343064Y0026280D01*
X0342990Y0026408D01*
X0342919Y0026538D01*
X0342852Y0026670D01*
X0342789Y0026804D01*
X0342729Y0026939D01*
X0342673Y0027076D01*
X0342620Y0027215D01*
X0342572Y0027355D01*
X0342527Y0027496D01*
X0342486Y0027638D01*
X0342448Y0027781D01*
X0342415Y0027925D01*
X0342385Y0028070D01*
X0342359Y0028216D01*
X0342338Y0028362D01*
X0342320Y0028509D01*
X0342306Y0028656D01*
X0342296Y0028804D01*
X0342290Y0028952D01*
X0342288Y0029100D01*
M02*
