%
M48
M72
T01C0.0236
T02C0.0360
T03C0.1102
%
T01
X3980Y2320
X6780Y2520
X7580Y2520
X8080Y1920
X10180Y2620
X10380Y3120
X9380Y3720
X8280Y3820
X7380Y3220
X5480Y4420
X4980Y4420
X3180Y4020
X2680Y5420
X3480Y7820
X2080Y9520
X2180Y11920
X2180Y14320
X11380Y11020
X11980Y10820
X11980Y10320
X12440Y12000
X17280Y14320
X17680Y15420
X20380Y14320
X22780Y13620
X22880Y14320
X21880Y12620
X25280Y11120
X25180Y10520
X25080Y10020
X24680Y9620
X25180Y9220
X24980Y8620
X24480Y8620
X23712Y8688
X22180Y9720
X21680Y9720
X21080Y9720
X20380Y9720
X19380Y8720
X18880Y8720
X17780Y9420
X17280Y9620
X15280Y6820
X17780Y5620
X16080Y5120
X14280Y4120
X15080Y3720
X13080Y4220
X11580Y3320
X10480Y1920
X14780Y2120
X16480Y1920
X16880Y2620
X17880Y3920
X21880Y3820
X22680Y3820
X24480Y3620
X24880Y4120
X25280Y4620
X26080Y4320
X25680Y5120
X28280Y6820
X30680Y7720
X32280Y7020
X33680Y7920
X34180Y7720
X34580Y7420
X35050Y7200
X35540Y6770
X37680Y6120
X37480Y5620
X36980Y5320
X36580Y4820
X38380Y4320
X38680Y6920
X34280Y9020
X33480Y8520
X32080Y9220
X32380Y9720
X32580Y10220
X32880Y10670
X33180Y11120
X33470Y11620
X35560Y11690
X34690Y13460
X33840Y13900
X35160Y14050
X35820Y14290
X31080Y14720
X30380Y14320
X28880Y13920
X27680Y14220
X28480Y15120
X29380Y15720
X30880Y15720
X31280Y17020
X25780Y16820
X30080Y13160
X28180Y12820
X28280Y12320
X27580Y12220
X27580Y11720
X27580Y11220
X28380Y10520
X25580Y12520
X33390Y9420
X35380Y9520
X30880Y5920
X30480Y3720
X31080Y3620
X29980Y3720
X28880Y2920
X28780Y2420
X28580Y1920
X27380Y3220
X24880Y2920
X22180Y5720
X31280Y1920
X32180Y1620
X31880Y2520
X11780Y6020
X10080Y7120
X10580Y7620
X9680Y8020
X9080Y8320
X7880Y7620
T02
X14380Y16940
X27880Y17080
T03
X8180Y14220
X34780Y2910
M30
