G75*
%MOIN*%
%OFA0B0*%
%FSLAX25Y25*%
%IPPOS*%
%LPD*%
%AMOC8*
5,1,8,0,0,1.08239X$1,22.5*
%
%ADD10C,0.00000*%
%ADD11R,0.05906X0.05118*%
%ADD12R,0.07098X0.06299*%
%ADD13R,0.05118X0.06299*%
%ADD14OC8,0.10000*%
%ADD15R,0.05000X0.10000*%
%ADD16C,0.01000*%
%ADD17C,0.03762*%
%ADD18C,0.02400*%
%ADD19C,0.01600*%
D10*
X0001800Y0001200D02*
X0001800Y0188161D01*
X0400501Y0188161D01*
X0400661Y0187701D02*
X0400739Y0001000D01*
X0400501Y0001200D02*
X0001800Y0001200D01*
X0076288Y0142200D02*
X0076290Y0142348D01*
X0076296Y0142496D01*
X0076306Y0142644D01*
X0076320Y0142791D01*
X0076338Y0142938D01*
X0076359Y0143084D01*
X0076385Y0143230D01*
X0076415Y0143375D01*
X0076448Y0143519D01*
X0076486Y0143662D01*
X0076527Y0143804D01*
X0076572Y0143945D01*
X0076620Y0144085D01*
X0076673Y0144224D01*
X0076729Y0144361D01*
X0076789Y0144496D01*
X0076852Y0144630D01*
X0076919Y0144762D01*
X0076990Y0144892D01*
X0077064Y0145020D01*
X0077141Y0145146D01*
X0077222Y0145270D01*
X0077306Y0145392D01*
X0077393Y0145511D01*
X0077484Y0145628D01*
X0077578Y0145743D01*
X0077674Y0145855D01*
X0077774Y0145965D01*
X0077876Y0146071D01*
X0077982Y0146175D01*
X0078090Y0146276D01*
X0078201Y0146374D01*
X0078314Y0146470D01*
X0078430Y0146562D01*
X0078548Y0146651D01*
X0078669Y0146736D01*
X0078792Y0146819D01*
X0078917Y0146898D01*
X0079044Y0146974D01*
X0079173Y0147046D01*
X0079304Y0147115D01*
X0079437Y0147180D01*
X0079572Y0147241D01*
X0079708Y0147299D01*
X0079845Y0147354D01*
X0079984Y0147404D01*
X0080125Y0147451D01*
X0080266Y0147494D01*
X0080409Y0147534D01*
X0080553Y0147569D01*
X0080697Y0147601D01*
X0080843Y0147628D01*
X0080989Y0147652D01*
X0081136Y0147672D01*
X0081283Y0147688D01*
X0081430Y0147700D01*
X0081578Y0147708D01*
X0081726Y0147712D01*
X0081874Y0147712D01*
X0082022Y0147708D01*
X0082170Y0147700D01*
X0082317Y0147688D01*
X0082464Y0147672D01*
X0082611Y0147652D01*
X0082757Y0147628D01*
X0082903Y0147601D01*
X0083047Y0147569D01*
X0083191Y0147534D01*
X0083334Y0147494D01*
X0083475Y0147451D01*
X0083616Y0147404D01*
X0083755Y0147354D01*
X0083892Y0147299D01*
X0084028Y0147241D01*
X0084163Y0147180D01*
X0084296Y0147115D01*
X0084427Y0147046D01*
X0084556Y0146974D01*
X0084683Y0146898D01*
X0084808Y0146819D01*
X0084931Y0146736D01*
X0085052Y0146651D01*
X0085170Y0146562D01*
X0085286Y0146470D01*
X0085399Y0146374D01*
X0085510Y0146276D01*
X0085618Y0146175D01*
X0085724Y0146071D01*
X0085826Y0145965D01*
X0085926Y0145855D01*
X0086022Y0145743D01*
X0086116Y0145628D01*
X0086207Y0145511D01*
X0086294Y0145392D01*
X0086378Y0145270D01*
X0086459Y0145146D01*
X0086536Y0145020D01*
X0086610Y0144892D01*
X0086681Y0144762D01*
X0086748Y0144630D01*
X0086811Y0144496D01*
X0086871Y0144361D01*
X0086927Y0144224D01*
X0086980Y0144085D01*
X0087028Y0143945D01*
X0087073Y0143804D01*
X0087114Y0143662D01*
X0087152Y0143519D01*
X0087185Y0143375D01*
X0087215Y0143230D01*
X0087241Y0143084D01*
X0087262Y0142938D01*
X0087280Y0142791D01*
X0087294Y0142644D01*
X0087304Y0142496D01*
X0087310Y0142348D01*
X0087312Y0142200D01*
X0087310Y0142052D01*
X0087304Y0141904D01*
X0087294Y0141756D01*
X0087280Y0141609D01*
X0087262Y0141462D01*
X0087241Y0141316D01*
X0087215Y0141170D01*
X0087185Y0141025D01*
X0087152Y0140881D01*
X0087114Y0140738D01*
X0087073Y0140596D01*
X0087028Y0140455D01*
X0086980Y0140315D01*
X0086927Y0140176D01*
X0086871Y0140039D01*
X0086811Y0139904D01*
X0086748Y0139770D01*
X0086681Y0139638D01*
X0086610Y0139508D01*
X0086536Y0139380D01*
X0086459Y0139254D01*
X0086378Y0139130D01*
X0086294Y0139008D01*
X0086207Y0138889D01*
X0086116Y0138772D01*
X0086022Y0138657D01*
X0085926Y0138545D01*
X0085826Y0138435D01*
X0085724Y0138329D01*
X0085618Y0138225D01*
X0085510Y0138124D01*
X0085399Y0138026D01*
X0085286Y0137930D01*
X0085170Y0137838D01*
X0085052Y0137749D01*
X0084931Y0137664D01*
X0084808Y0137581D01*
X0084683Y0137502D01*
X0084556Y0137426D01*
X0084427Y0137354D01*
X0084296Y0137285D01*
X0084163Y0137220D01*
X0084028Y0137159D01*
X0083892Y0137101D01*
X0083755Y0137046D01*
X0083616Y0136996D01*
X0083475Y0136949D01*
X0083334Y0136906D01*
X0083191Y0136866D01*
X0083047Y0136831D01*
X0082903Y0136799D01*
X0082757Y0136772D01*
X0082611Y0136748D01*
X0082464Y0136728D01*
X0082317Y0136712D01*
X0082170Y0136700D01*
X0082022Y0136692D01*
X0081874Y0136688D01*
X0081726Y0136688D01*
X0081578Y0136692D01*
X0081430Y0136700D01*
X0081283Y0136712D01*
X0081136Y0136728D01*
X0080989Y0136748D01*
X0080843Y0136772D01*
X0080697Y0136799D01*
X0080553Y0136831D01*
X0080409Y0136866D01*
X0080266Y0136906D01*
X0080125Y0136949D01*
X0079984Y0136996D01*
X0079845Y0137046D01*
X0079708Y0137101D01*
X0079572Y0137159D01*
X0079437Y0137220D01*
X0079304Y0137285D01*
X0079173Y0137354D01*
X0079044Y0137426D01*
X0078917Y0137502D01*
X0078792Y0137581D01*
X0078669Y0137664D01*
X0078548Y0137749D01*
X0078430Y0137838D01*
X0078314Y0137930D01*
X0078201Y0138026D01*
X0078090Y0138124D01*
X0077982Y0138225D01*
X0077876Y0138329D01*
X0077774Y0138435D01*
X0077674Y0138545D01*
X0077578Y0138657D01*
X0077484Y0138772D01*
X0077393Y0138889D01*
X0077306Y0139008D01*
X0077222Y0139130D01*
X0077141Y0139254D01*
X0077064Y0139380D01*
X0076990Y0139508D01*
X0076919Y0139638D01*
X0076852Y0139770D01*
X0076789Y0139904D01*
X0076729Y0140039D01*
X0076673Y0140176D01*
X0076620Y0140315D01*
X0076572Y0140455D01*
X0076527Y0140596D01*
X0076486Y0140738D01*
X0076448Y0140881D01*
X0076415Y0141025D01*
X0076385Y0141170D01*
X0076359Y0141316D01*
X0076338Y0141462D01*
X0076320Y0141609D01*
X0076306Y0141756D01*
X0076296Y0141904D01*
X0076290Y0142052D01*
X0076288Y0142200D01*
X0342288Y0029100D02*
X0342290Y0029248D01*
X0342296Y0029396D01*
X0342306Y0029544D01*
X0342320Y0029691D01*
X0342338Y0029838D01*
X0342359Y0029984D01*
X0342385Y0030130D01*
X0342415Y0030275D01*
X0342448Y0030419D01*
X0342486Y0030562D01*
X0342527Y0030704D01*
X0342572Y0030845D01*
X0342620Y0030985D01*
X0342673Y0031124D01*
X0342729Y0031261D01*
X0342789Y0031396D01*
X0342852Y0031530D01*
X0342919Y0031662D01*
X0342990Y0031792D01*
X0343064Y0031920D01*
X0343141Y0032046D01*
X0343222Y0032170D01*
X0343306Y0032292D01*
X0343393Y0032411D01*
X0343484Y0032528D01*
X0343578Y0032643D01*
X0343674Y0032755D01*
X0343774Y0032865D01*
X0343876Y0032971D01*
X0343982Y0033075D01*
X0344090Y0033176D01*
X0344201Y0033274D01*
X0344314Y0033370D01*
X0344430Y0033462D01*
X0344548Y0033551D01*
X0344669Y0033636D01*
X0344792Y0033719D01*
X0344917Y0033798D01*
X0345044Y0033874D01*
X0345173Y0033946D01*
X0345304Y0034015D01*
X0345437Y0034080D01*
X0345572Y0034141D01*
X0345708Y0034199D01*
X0345845Y0034254D01*
X0345984Y0034304D01*
X0346125Y0034351D01*
X0346266Y0034394D01*
X0346409Y0034434D01*
X0346553Y0034469D01*
X0346697Y0034501D01*
X0346843Y0034528D01*
X0346989Y0034552D01*
X0347136Y0034572D01*
X0347283Y0034588D01*
X0347430Y0034600D01*
X0347578Y0034608D01*
X0347726Y0034612D01*
X0347874Y0034612D01*
X0348022Y0034608D01*
X0348170Y0034600D01*
X0348317Y0034588D01*
X0348464Y0034572D01*
X0348611Y0034552D01*
X0348757Y0034528D01*
X0348903Y0034501D01*
X0349047Y0034469D01*
X0349191Y0034434D01*
X0349334Y0034394D01*
X0349475Y0034351D01*
X0349616Y0034304D01*
X0349755Y0034254D01*
X0349892Y0034199D01*
X0350028Y0034141D01*
X0350163Y0034080D01*
X0350296Y0034015D01*
X0350427Y0033946D01*
X0350556Y0033874D01*
X0350683Y0033798D01*
X0350808Y0033719D01*
X0350931Y0033636D01*
X0351052Y0033551D01*
X0351170Y0033462D01*
X0351286Y0033370D01*
X0351399Y0033274D01*
X0351510Y0033176D01*
X0351618Y0033075D01*
X0351724Y0032971D01*
X0351826Y0032865D01*
X0351926Y0032755D01*
X0352022Y0032643D01*
X0352116Y0032528D01*
X0352207Y0032411D01*
X0352294Y0032292D01*
X0352378Y0032170D01*
X0352459Y0032046D01*
X0352536Y0031920D01*
X0352610Y0031792D01*
X0352681Y0031662D01*
X0352748Y0031530D01*
X0352811Y0031396D01*
X0352871Y0031261D01*
X0352927Y0031124D01*
X0352980Y0030985D01*
X0353028Y0030845D01*
X0353073Y0030704D01*
X0353114Y0030562D01*
X0353152Y0030419D01*
X0353185Y0030275D01*
X0353215Y0030130D01*
X0353241Y0029984D01*
X0353262Y0029838D01*
X0353280Y0029691D01*
X0353294Y0029544D01*
X0353304Y0029396D01*
X0353310Y0029248D01*
X0353312Y0029100D01*
X0353310Y0028952D01*
X0353304Y0028804D01*
X0353294Y0028656D01*
X0353280Y0028509D01*
X0353262Y0028362D01*
X0353241Y0028216D01*
X0353215Y0028070D01*
X0353185Y0027925D01*
X0353152Y0027781D01*
X0353114Y0027638D01*
X0353073Y0027496D01*
X0353028Y0027355D01*
X0352980Y0027215D01*
X0352927Y0027076D01*
X0352871Y0026939D01*
X0352811Y0026804D01*
X0352748Y0026670D01*
X0352681Y0026538D01*
X0352610Y0026408D01*
X0352536Y0026280D01*
X0352459Y0026154D01*
X0352378Y0026030D01*
X0352294Y0025908D01*
X0352207Y0025789D01*
X0352116Y0025672D01*
X0352022Y0025557D01*
X0351926Y0025445D01*
X0351826Y0025335D01*
X0351724Y0025229D01*
X0351618Y0025125D01*
X0351510Y0025024D01*
X0351399Y0024926D01*
X0351286Y0024830D01*
X0351170Y0024738D01*
X0351052Y0024649D01*
X0350931Y0024564D01*
X0350808Y0024481D01*
X0350683Y0024402D01*
X0350556Y0024326D01*
X0350427Y0024254D01*
X0350296Y0024185D01*
X0350163Y0024120D01*
X0350028Y0024059D01*
X0349892Y0024001D01*
X0349755Y0023946D01*
X0349616Y0023896D01*
X0349475Y0023849D01*
X0349334Y0023806D01*
X0349191Y0023766D01*
X0349047Y0023731D01*
X0348903Y0023699D01*
X0348757Y0023672D01*
X0348611Y0023648D01*
X0348464Y0023628D01*
X0348317Y0023612D01*
X0348170Y0023600D01*
X0348022Y0023592D01*
X0347874Y0023588D01*
X0347726Y0023588D01*
X0347578Y0023592D01*
X0347430Y0023600D01*
X0347283Y0023612D01*
X0347136Y0023628D01*
X0346989Y0023648D01*
X0346843Y0023672D01*
X0346697Y0023699D01*
X0346553Y0023731D01*
X0346409Y0023766D01*
X0346266Y0023806D01*
X0346125Y0023849D01*
X0345984Y0023896D01*
X0345845Y0023946D01*
X0345708Y0024001D01*
X0345572Y0024059D01*
X0345437Y0024120D01*
X0345304Y0024185D01*
X0345173Y0024254D01*
X0345044Y0024326D01*
X0344917Y0024402D01*
X0344792Y0024481D01*
X0344669Y0024564D01*
X0344548Y0024649D01*
X0344430Y0024738D01*
X0344314Y0024830D01*
X0344201Y0024926D01*
X0344090Y0025024D01*
X0343982Y0025125D01*
X0343876Y0025229D01*
X0343774Y0025335D01*
X0343674Y0025445D01*
X0343578Y0025557D01*
X0343484Y0025672D01*
X0343393Y0025789D01*
X0343306Y0025908D01*
X0343222Y0026030D01*
X0343141Y0026154D01*
X0343064Y0026280D01*
X0342990Y0026408D01*
X0342919Y0026538D01*
X0342852Y0026670D01*
X0342789Y0026804D01*
X0342729Y0026939D01*
X0342673Y0027076D01*
X0342620Y0027215D01*
X0342572Y0027355D01*
X0342527Y0027496D01*
X0342486Y0027638D01*
X0342448Y0027781D01*
X0342415Y0027925D01*
X0342385Y0028070D01*
X0342359Y0028216D01*
X0342338Y0028362D01*
X0342320Y0028509D01*
X0342306Y0028656D01*
X0342296Y0028804D01*
X0342290Y0028952D01*
X0342288Y0029100D01*
D11*
X0220800Y0136460D03*
X0220800Y0143940D03*
X0148800Y0149460D03*
X0148800Y0156940D03*
D12*
X0128800Y0160798D03*
X0128800Y0149602D03*
X0128800Y0136798D03*
X0128800Y0125602D03*
X0128800Y0112798D03*
X0128800Y0101602D03*
X0128800Y0086798D03*
X0128800Y0075602D03*
X0128800Y0059798D03*
X0128800Y0048602D03*
X0128800Y0033798D03*
X0128800Y0022602D03*
X0020600Y0021402D03*
X0020600Y0032598D03*
X0020000Y0049502D03*
X0020000Y0060698D03*
X0020500Y0075202D03*
X0020500Y0086398D03*
X0020500Y0101402D03*
X0020500Y0112598D03*
X0020400Y0125902D03*
X0020400Y0137098D03*
X0020000Y0149502D03*
X0020000Y0160698D03*
X0265800Y0160798D03*
X0265800Y0149602D03*
X0265800Y0136798D03*
X0265800Y0125602D03*
X0265800Y0112798D03*
X0265800Y0101602D03*
X0265800Y0086798D03*
X0265800Y0075602D03*
X0265800Y0060798D03*
X0265800Y0049602D03*
X0265800Y0032798D03*
X0265800Y0021602D03*
X0383800Y0021602D03*
X0383800Y0032798D03*
X0383800Y0049602D03*
X0383800Y0060798D03*
X0383800Y0075602D03*
X0383800Y0086798D03*
X0384800Y0101602D03*
X0384800Y0112798D03*
X0384800Y0125602D03*
X0384800Y0136798D03*
X0383800Y0149602D03*
X0383800Y0160798D03*
D13*
X0209540Y0135200D03*
X0202060Y0135200D03*
D14*
X0143800Y0169400D03*
X0278800Y0170800D03*
D15*
X0396200Y0071800D03*
X0406200Y0071800D03*
D16*
X0391500Y0070900D02*
X0391500Y0064200D01*
X0388398Y0061098D01*
X0388398Y0060798D01*
X0383800Y0060798D01*
X0376800Y0061200D02*
X0376800Y0073200D01*
X0379202Y0075602D01*
X0383800Y0075602D01*
X0389800Y0069200D02*
X0391500Y0070900D01*
X0391500Y0114900D01*
X0389398Y0112798D01*
X0384800Y0112798D01*
X0391500Y0114900D02*
X0391500Y0139800D01*
X0388498Y0136798D01*
X0384800Y0136798D01*
X0387398Y0136798D01*
X0391500Y0139800D02*
X0391500Y0158400D01*
X0389202Y0160698D01*
X0389202Y0160798D01*
X0383800Y0160798D01*
X0383800Y0149602D02*
X0369202Y0149602D01*
X0364800Y0145200D01*
X0365800Y0048200D01*
X0365600Y0041300D02*
X0355400Y0051500D01*
X0355400Y0067700D01*
X0350400Y0065100D02*
X0350400Y0071900D01*
X0350500Y0072000D01*
X0345800Y0074200D02*
X0345700Y0074100D01*
X0345700Y0065300D01*
X0322800Y0042400D01*
X0322800Y0024200D01*
X0317800Y0019200D01*
X0312800Y0019200D01*
X0285800Y0019200D01*
X0287800Y0024200D02*
X0315800Y0024200D01*
X0318800Y0025200D01*
X0315800Y0040200D01*
X0335800Y0065200D01*
X0335800Y0068200D01*
X0341800Y0077200D01*
X0336800Y0079200D02*
X0331800Y0072200D01*
X0331800Y0069200D01*
X0311800Y0042200D01*
X0310800Y0036200D01*
X0304800Y0037200D02*
X0304800Y0040200D01*
X0328800Y0070200D01*
X0327800Y0076200D01*
X0306800Y0077200D01*
X0322800Y0070200D02*
X0300800Y0043200D01*
X0299800Y0037200D01*
X0288800Y0029200D02*
X0276800Y0029200D01*
X0273800Y0032200D01*
X0271800Y0035798D02*
X0265800Y0032798D01*
X0271800Y0035798D02*
X0271800Y0054200D01*
X0282800Y0068200D01*
X0291800Y0059200D01*
X0308800Y0059200D01*
X0271800Y0064200D02*
X0271800Y0054200D01*
X0265800Y0049602D02*
X0265800Y0048200D01*
X0260800Y0043200D01*
X0252800Y0046200D02*
X0252800Y0073200D01*
X0259800Y0080200D01*
X0259800Y0090200D01*
X0265800Y0096200D01*
X0265800Y0101602D01*
X0259300Y0094700D02*
X0256800Y0092200D01*
X0256800Y0080200D01*
X0248800Y0072200D01*
X0248800Y0041200D01*
X0244800Y0036200D02*
X0244800Y0071200D01*
X0254800Y0081200D01*
X0254800Y0093200D01*
X0256800Y0095200D01*
X0256800Y0120200D01*
X0259800Y0123200D01*
X0259800Y0140200D01*
X0265800Y0146200D01*
X0265800Y0149602D01*
X0271800Y0141200D02*
X0271800Y0158200D01*
X0269202Y0160798D01*
X0265800Y0160798D01*
X0265202Y0160798D01*
X0257800Y0168200D01*
X0284800Y0151200D02*
X0322800Y0151200D01*
X0338400Y0139000D01*
X0339800Y0142200D02*
X0346800Y0142200D01*
X0351800Y0140500D01*
X0351600Y0140500D01*
X0355500Y0143000D02*
X0358200Y0142900D01*
X0355500Y0143000D02*
X0348800Y0147200D01*
X0340800Y0147200D01*
X0325800Y0162200D01*
X0307800Y0162200D01*
X0293800Y0157200D01*
X0308800Y0157200D02*
X0324800Y0157200D01*
X0339800Y0142200D01*
X0345300Y0135600D02*
X0334100Y0135600D01*
X0319800Y0147200D01*
X0310800Y0147200D01*
X0303800Y0143200D02*
X0319800Y0143200D01*
X0332800Y0130200D01*
X0342800Y0130200D01*
X0350800Y0122200D01*
X0350800Y0121200D01*
X0346800Y0094200D01*
X0353800Y0095200D01*
X0342800Y0090200D02*
X0347800Y0118200D01*
X0338800Y0127200D01*
X0330800Y0127200D01*
X0319800Y0139200D01*
X0288800Y0139200D01*
X0284800Y0135200D02*
X0281800Y0138200D01*
X0276800Y0142200D01*
X0271800Y0141200D02*
X0268398Y0136798D01*
X0265800Y0136798D01*
X0271800Y0141200D02*
X0271800Y0117200D01*
X0267398Y0112798D01*
X0265800Y0112798D01*
X0271800Y0117200D02*
X0271800Y0091200D01*
X0268398Y0086798D01*
X0265800Y0086798D01*
X0271800Y0091200D02*
X0271800Y0064200D01*
X0269398Y0060798D01*
X0265800Y0060798D01*
X0256800Y0051200D02*
X0256800Y0073200D01*
X0259202Y0075602D01*
X0265800Y0075602D01*
X0249800Y0086200D02*
X0235800Y0072200D01*
X0183800Y0072200D01*
X0172800Y0083200D01*
X0172800Y0096200D01*
X0177800Y0094200D02*
X0177800Y0081200D01*
X0184800Y0074200D01*
X0232800Y0074200D01*
X0244800Y0086200D01*
X0241519Y0085464D02*
X0241519Y0087559D01*
X0243441Y0089481D01*
X0246081Y0089481D01*
X0247800Y0091200D01*
X0250800Y0091200D01*
X0251800Y0092200D01*
X0246800Y0096200D02*
X0244800Y0094200D01*
X0239800Y0094200D01*
X0229800Y0084200D01*
X0196800Y0084200D01*
X0193800Y0087200D01*
X0188800Y0087200D02*
X0188800Y0083200D01*
X0191800Y0081200D01*
X0231440Y0081200D01*
X0237120Y0086880D01*
X0241519Y0085464D02*
X0233254Y0077200D01*
X0185800Y0077200D01*
X0182800Y0080200D01*
X0182800Y0096200D01*
X0176081Y0102919D01*
X0176081Y0144559D01*
X0174159Y0146481D01*
X0155779Y0146481D01*
X0148800Y0149460D01*
X0148800Y0156940D02*
X0143800Y0165940D01*
X0143800Y0169400D01*
X0176800Y0154200D02*
X0195800Y0135200D01*
X0202060Y0135200D01*
X0209540Y0135200D02*
X0209540Y0130460D01*
X0213800Y0126200D01*
X0218800Y0126200D01*
X0220800Y0136460D02*
X0227540Y0136460D01*
X0227800Y0136200D01*
X0228800Y0143200D02*
X0228060Y0143940D01*
X0220800Y0143940D01*
X0220060Y0143200D01*
X0203800Y0143200D01*
X0172800Y0143200D02*
X0136800Y0143200D01*
X0128800Y0149602D02*
X0127202Y0149602D01*
X0119800Y0142200D01*
X0119800Y0116200D01*
X0113800Y0110200D01*
X0112800Y0105200D02*
X0119800Y0108200D01*
X0112800Y0105200D02*
X0076800Y0105200D01*
X0063800Y0092200D01*
X0063800Y0066200D01*
X0052800Y0055200D01*
X0052800Y0047200D01*
X0049800Y0044200D01*
X0054800Y0044200D02*
X0054800Y0054200D01*
X0066800Y0066200D01*
X0066800Y0092200D01*
X0077800Y0103200D01*
X0119800Y0103200D01*
X0128800Y0101602D02*
X0128800Y0101200D01*
X0121800Y0094200D01*
X0111800Y0087200D01*
X0100800Y0076200D01*
X0100800Y0071200D01*
X0105800Y0076200D02*
X0126202Y0075602D01*
X0128800Y0075602D01*
X0139800Y0064200D02*
X0136800Y0061200D01*
X0139800Y0064200D02*
X0148800Y0064200D01*
X0152800Y0068200D01*
X0164800Y0056200D01*
X0177800Y0056200D01*
X0175800Y0051200D02*
X0160800Y0051200D01*
X0175800Y0051200D02*
X0188800Y0038200D01*
X0218800Y0038200D01*
X0226800Y0038200D02*
X0235800Y0029200D01*
X0248800Y0029200D01*
X0234398Y0021602D02*
X0222800Y0033200D01*
X0222800Y0056200D01*
X0221800Y0057200D01*
X0178800Y0039200D02*
X0176800Y0037200D01*
X0150800Y0037200D01*
X0144800Y0026200D02*
X0168800Y0026200D01*
X0164800Y0019200D02*
X0152800Y0019200D01*
X0150800Y0021200D01*
X0147800Y0021200D01*
X0144800Y0026200D02*
X0135800Y0017200D01*
X0115800Y0017200D01*
X0106800Y0026200D01*
X0101800Y0026200D01*
X0097800Y0022200D01*
X0070800Y0022200D01*
X0067800Y0025200D01*
X0075800Y0025200D02*
X0082800Y0026200D01*
X0093800Y0037200D01*
X0101800Y0034200D02*
X0103800Y0032200D01*
X0103800Y0031200D01*
X0109800Y0030200D02*
X0119398Y0022602D01*
X0128800Y0022602D01*
X0109800Y0030200D02*
X0090800Y0058200D01*
X0090800Y0083200D01*
X0096800Y0080200D02*
X0096800Y0056200D01*
X0107800Y0049200D01*
X0114398Y0048602D01*
X0128800Y0048602D01*
X0122800Y0042200D02*
X0115800Y0033200D01*
X0104800Y0019200D02*
X0080800Y0019200D01*
X0082800Y0038200D02*
X0076800Y0044200D01*
X0076800Y0070200D01*
X0078800Y0072200D01*
X0078800Y0076200D01*
X0117800Y0060200D02*
X0128398Y0060200D01*
X0128800Y0059798D01*
X0203800Y0097200D02*
X0204800Y0097200D01*
X0213800Y0088200D01*
X0228800Y0088200D01*
X0240800Y0100200D01*
X0250800Y0100200D01*
X0259300Y0094700D02*
X0259300Y0119200D01*
X0260800Y0120700D01*
X0260898Y0120700D01*
X0265800Y0125602D01*
X0255800Y0125200D02*
X0227800Y0097200D01*
X0221800Y0097200D01*
X0218800Y0093200D02*
X0216800Y0095200D01*
X0216800Y0097200D01*
X0211800Y0097200D02*
X0218800Y0090200D01*
X0227800Y0090200D01*
X0242800Y0105200D01*
X0251800Y0105200D01*
X0252800Y0111200D02*
X0245800Y0111200D01*
X0231800Y0097200D01*
X0230800Y0097200D01*
X0226800Y0093200D01*
X0218800Y0093200D01*
X0211800Y0097200D02*
X0210800Y0097200D01*
X0275800Y0112200D02*
X0301800Y0112200D01*
X0320800Y0092200D01*
X0318800Y0088200D02*
X0322800Y0088200D01*
X0337100Y0112000D01*
X0334700Y0116200D01*
X0334800Y0120200D02*
X0339800Y0117200D01*
X0339800Y0110200D01*
X0331800Y0096200D01*
X0333900Y0094200D01*
X0338800Y0095200D02*
X0342800Y0109200D01*
X0342800Y0118200D01*
X0337800Y0123200D01*
X0329800Y0123200D01*
X0317800Y0135200D01*
X0284800Y0135200D01*
X0281800Y0128200D02*
X0314800Y0128200D01*
X0331800Y0111200D01*
X0328800Y0106700D02*
X0312800Y0123200D01*
X0282800Y0123200D01*
X0280800Y0119200D02*
X0275800Y0122200D01*
X0280800Y0119200D02*
X0309800Y0119200D01*
X0325800Y0102200D01*
X0323800Y0097200D02*
X0307800Y0116200D01*
X0276800Y0116200D01*
X0275800Y0117200D01*
X0283800Y0105200D02*
X0301800Y0105200D01*
X0318800Y0088200D01*
X0334800Y0085200D02*
X0336800Y0089200D01*
X0338800Y0095200D01*
X0371800Y0098200D02*
X0371800Y0059200D01*
X0374800Y0056200D01*
X0369800Y0053200D02*
X0367800Y0122200D01*
X0371202Y0125602D01*
X0384800Y0125602D01*
X0361800Y0135200D02*
X0361800Y0144200D01*
X0335800Y0170200D01*
X0312800Y0170200D01*
X0345300Y0135600D02*
X0346900Y0134600D01*
X0355800Y0129200D02*
X0361800Y0135200D01*
X0355800Y0129200D02*
X0355800Y0117200D01*
X0355600Y0116900D01*
X0334800Y0120200D02*
X0327800Y0120200D01*
X0316800Y0131200D01*
X0300800Y0131600D01*
X0371800Y0098200D02*
X0375202Y0101602D01*
X0384800Y0101602D01*
X0383800Y0086798D02*
X0386398Y0086798D01*
X0386800Y0069200D02*
X0389800Y0069200D01*
X0391500Y0064200D02*
X0391500Y0040498D01*
X0383800Y0032798D01*
X0372800Y0035200D02*
X0372800Y0027200D01*
X0378800Y0021200D01*
X0383398Y0021200D01*
X0383800Y0021602D01*
X0372800Y0035200D02*
X0369800Y0039200D01*
X0367700Y0041300D01*
X0365600Y0041300D01*
X0383800Y0043200D02*
X0384800Y0044200D01*
X0384800Y0046200D01*
X0383800Y0049602D01*
X0350400Y0065100D02*
X0325800Y0040500D01*
X0325800Y0023200D01*
X0321800Y0019200D01*
X0321800Y0016200D01*
X0265800Y0021602D02*
X0234398Y0021602D01*
X0039800Y0023200D02*
X0036800Y0023200D01*
X0034800Y0025200D01*
X0034800Y0034200D01*
X0031800Y0040200D02*
X0031800Y0027200D01*
X0026002Y0021402D01*
X0020600Y0021402D01*
X0020000Y0049502D02*
X0022102Y0049502D01*
X0026800Y0054200D01*
X0023802Y0075202D02*
X0020500Y0075202D01*
X0023802Y0075202D02*
X0027800Y0079200D01*
X0034800Y0078200D01*
X0020800Y0095200D02*
X0020800Y0101102D01*
X0020500Y0101402D01*
X0021800Y0119200D02*
X0021098Y0120902D01*
X0020400Y0125902D01*
X0021800Y0143200D02*
X0020498Y0145502D01*
X0020000Y0149502D01*
X0124400Y0120000D02*
X0127800Y0120200D01*
X0129202Y0123602D01*
X0128800Y0125602D01*
D17*
X0124400Y0120000D03*
X0113800Y0110200D03*
X0119800Y0108200D03*
X0119800Y0103200D03*
X0090800Y0083200D03*
X0096800Y0080200D03*
X0105800Y0076200D03*
X0100800Y0071200D03*
X0078800Y0076200D03*
X0117800Y0060200D03*
X0130800Y0042200D03*
X0142800Y0041200D03*
X0150800Y0037200D03*
X0168800Y0026200D03*
X0164800Y0019200D03*
X0147800Y0021200D03*
X0115800Y0033200D03*
X0103800Y0031200D03*
X0101800Y0026200D03*
X0104800Y0019200D03*
X0080800Y0019200D03*
X0075800Y0025200D03*
X0067800Y0025200D03*
X0073800Y0032200D03*
X0082800Y0038200D03*
X0093800Y0037200D03*
X0054800Y0044200D03*
X0049800Y0044200D03*
X0031800Y0040200D03*
X0026800Y0054200D03*
X0034800Y0078200D03*
X0020800Y0095200D03*
X0021800Y0119200D03*
X0021800Y0143200D03*
X0172800Y0143200D03*
X0176800Y0154200D03*
X0203800Y0143200D03*
X0227800Y0136200D03*
X0228800Y0143200D03*
X0218800Y0126200D03*
X0252800Y0111200D03*
X0251800Y0105200D03*
X0250800Y0100200D03*
X0246800Y0096200D03*
X0251800Y0092200D03*
X0249800Y0086200D03*
X0244800Y0086200D03*
X0237120Y0086880D03*
X0221800Y0097200D03*
X0216800Y0097200D03*
X0210800Y0097200D03*
X0203800Y0097200D03*
X0193800Y0087200D03*
X0188800Y0087200D03*
X0177800Y0094200D03*
X0172800Y0096200D03*
X0152800Y0068200D03*
X0177800Y0056200D03*
X0160800Y0051200D03*
X0178800Y0039200D03*
X0218800Y0038200D03*
X0226800Y0038200D03*
X0244800Y0036200D03*
X0248800Y0041200D03*
X0252800Y0046200D03*
X0260800Y0043200D03*
X0256800Y0051200D03*
X0282800Y0068200D03*
X0306800Y0077200D03*
X0322800Y0070200D03*
X0336800Y0079200D03*
X0341800Y0077200D03*
X0345800Y0074200D03*
X0350500Y0072000D03*
X0355400Y0067700D03*
X0376800Y0061200D03*
X0374800Y0056200D03*
X0369800Y0053200D03*
X0365800Y0048200D03*
X0383800Y0043200D03*
X0386800Y0069200D03*
X0342800Y0090200D03*
X0334800Y0085200D03*
X0320800Y0092200D03*
X0323800Y0097200D03*
X0325800Y0102200D03*
X0328800Y0106700D03*
X0331800Y0111200D03*
X0334700Y0116200D03*
X0355600Y0116900D03*
X0346900Y0134600D03*
X0338400Y0139000D03*
X0351600Y0140500D03*
X0358200Y0142900D03*
X0310800Y0147200D03*
X0303800Y0143200D03*
X0288800Y0139200D03*
X0276800Y0142200D03*
X0284800Y0151200D03*
X0293800Y0157200D03*
X0308800Y0157200D03*
X0312800Y0170200D03*
X0257800Y0168200D03*
X0300800Y0131600D03*
X0281800Y0128200D03*
X0282800Y0123200D03*
X0275800Y0122200D03*
X0275800Y0117200D03*
X0275800Y0112200D03*
X0283800Y0105200D03*
X0255800Y0125200D03*
X0333900Y0094200D03*
X0353800Y0095200D03*
X0308800Y0059200D03*
X0304800Y0037200D03*
X0310800Y0036200D03*
X0299800Y0037200D03*
X0288800Y0029200D03*
X0287800Y0024200D03*
X0285800Y0019200D03*
X0273800Y0032200D03*
X0248800Y0029200D03*
X0221800Y0057200D03*
X0312800Y0019200D03*
X0321800Y0016200D03*
X0318800Y0025200D03*
X0039800Y0023200D03*
D18*
X0122800Y0042200D02*
X0130800Y0042200D01*
X0142800Y0041200D02*
X0142800Y0043200D01*
X0150800Y0051200D01*
X0160800Y0051200D01*
D19*
X0163930Y0054100D02*
X0174977Y0054100D01*
X0175828Y0053249D01*
X0177108Y0052719D01*
X0178492Y0052719D01*
X0179772Y0053249D01*
X0180751Y0054228D01*
X0181281Y0055508D01*
X0181281Y0056892D01*
X0180751Y0058172D01*
X0179772Y0059151D01*
X0178492Y0059681D01*
X0177108Y0059681D01*
X0175828Y0059151D01*
X0174977Y0058300D01*
X0165670Y0058300D01*
X0156281Y0067689D01*
X0156281Y0068892D01*
X0155751Y0070172D01*
X0154772Y0071151D01*
X0153492Y0071681D01*
X0152108Y0071681D01*
X0150828Y0071151D01*
X0149849Y0070172D01*
X0149319Y0068892D01*
X0149319Y0067689D01*
X0147930Y0066300D01*
X0139200Y0066300D01*
X0139200Y0141100D01*
X0169977Y0141100D01*
X0170828Y0140249D01*
X0172108Y0139719D01*
X0173492Y0139719D01*
X0173981Y0139921D01*
X0173981Y0102049D01*
X0178349Y0097681D01*
X0177108Y0097681D01*
X0176123Y0097273D01*
X0175751Y0098172D01*
X0174772Y0099151D01*
X0173492Y0099681D01*
X0172108Y0099681D01*
X0170828Y0099151D01*
X0169849Y0098172D01*
X0169319Y0096892D01*
X0169319Y0095508D01*
X0169849Y0094228D01*
X0170700Y0093377D01*
X0170700Y0082330D01*
X0181700Y0071330D01*
X0182930Y0070100D01*
X0236670Y0070100D01*
X0249289Y0082719D01*
X0250492Y0082719D01*
X0251772Y0083249D01*
X0252700Y0084177D01*
X0252700Y0082070D01*
X0242700Y0072070D01*
X0242700Y0039023D01*
X0241849Y0038172D01*
X0241319Y0036892D01*
X0241319Y0035508D01*
X0241849Y0034228D01*
X0242828Y0033249D01*
X0244108Y0032719D01*
X0245492Y0032719D01*
X0246772Y0033249D01*
X0247751Y0034228D01*
X0248281Y0035508D01*
X0248281Y0036892D01*
X0247904Y0037803D01*
X0248108Y0037719D01*
X0249492Y0037719D01*
X0250772Y0038249D01*
X0251751Y0039228D01*
X0252281Y0040508D01*
X0252281Y0041892D01*
X0251904Y0042803D01*
X0252108Y0042719D01*
X0253492Y0042719D01*
X0254772Y0043249D01*
X0255751Y0044228D01*
X0256281Y0045508D01*
X0256281Y0046892D01*
X0255904Y0047803D01*
X0256108Y0047719D01*
X0257492Y0047719D01*
X0258772Y0048249D01*
X0259751Y0049228D01*
X0260281Y0050508D01*
X0260281Y0051892D01*
X0259751Y0053172D01*
X0258900Y0054023D01*
X0258900Y0072330D01*
X0260071Y0073502D01*
X0260651Y0073502D01*
X0260651Y0071789D01*
X0261588Y0070852D01*
X0269700Y0070852D01*
X0269700Y0065548D01*
X0261588Y0065548D01*
X0260651Y0064611D01*
X0260651Y0056986D01*
X0261588Y0056049D01*
X0269700Y0056049D01*
X0269700Y0054926D01*
X0269611Y0054813D01*
X0269667Y0054351D01*
X0261588Y0054351D01*
X0260651Y0053414D01*
X0260651Y0046681D01*
X0260108Y0046681D01*
X0258828Y0046151D01*
X0257849Y0045172D01*
X0257319Y0043892D01*
X0257319Y0042508D01*
X0257849Y0041228D01*
X0258828Y0040249D01*
X0260108Y0039719D01*
X0261492Y0039719D01*
X0262772Y0040249D01*
X0263751Y0041228D01*
X0264281Y0042508D01*
X0264281Y0043711D01*
X0265422Y0044852D01*
X0269700Y0044852D01*
X0269700Y0037548D01*
X0261588Y0037548D01*
X0260651Y0036611D01*
X0260651Y0028986D01*
X0261588Y0028049D01*
X0270012Y0028049D01*
X0270949Y0028986D01*
X0270949Y0033025D01*
X0272296Y0033698D01*
X0272670Y0033698D01*
X0273044Y0034073D01*
X0273517Y0034309D01*
X0273635Y0034664D01*
X0273900Y0034929D01*
X0273900Y0035458D01*
X0274067Y0035960D01*
X0273900Y0036294D01*
X0273900Y0053474D01*
X0282736Y0064719D01*
X0283311Y0064719D01*
X0289700Y0058330D01*
X0290930Y0057100D01*
X0305977Y0057100D01*
X0306828Y0056249D01*
X0308108Y0055719D01*
X0308292Y0055719D01*
X0299350Y0044745D01*
X0298872Y0044403D01*
X0298820Y0044095D01*
X0298623Y0043852D01*
X0298682Y0043267D01*
X0298188Y0040300D01*
X0297828Y0040151D01*
X0296849Y0039172D01*
X0296319Y0037892D01*
X0296319Y0036508D01*
X0296849Y0035228D01*
X0297828Y0034249D01*
X0299108Y0033719D01*
X0300492Y0033719D01*
X0301772Y0034249D01*
X0302300Y0034777D01*
X0302828Y0034249D01*
X0304108Y0033719D01*
X0305492Y0033719D01*
X0306772Y0034249D01*
X0307527Y0035004D01*
X0307849Y0034228D01*
X0308828Y0033249D01*
X0310108Y0032719D01*
X0311492Y0032719D01*
X0312772Y0033249D01*
X0313751Y0034228D01*
X0314281Y0035508D01*
X0314281Y0036892D01*
X0313751Y0038172D01*
X0313328Y0038595D01*
X0313624Y0040371D01*
X0313723Y0039877D01*
X0313809Y0039104D01*
X0313891Y0039038D01*
X0316195Y0027518D01*
X0315849Y0027172D01*
X0315492Y0026311D01*
X0315459Y0026300D01*
X0290623Y0026300D01*
X0289772Y0027151D01*
X0288492Y0027681D01*
X0287108Y0027681D01*
X0285828Y0027151D01*
X0284849Y0026172D01*
X0284319Y0024892D01*
X0284319Y0023508D01*
X0284727Y0022523D01*
X0283828Y0022151D01*
X0282849Y0021172D01*
X0282319Y0019892D01*
X0282319Y0018508D01*
X0282849Y0017228D01*
X0283828Y0016249D01*
X0285108Y0015719D01*
X0286492Y0015719D01*
X0287772Y0016249D01*
X0288623Y0017100D01*
X0309977Y0017100D01*
X0310828Y0016249D01*
X0312108Y0015719D01*
X0313492Y0015719D01*
X0314772Y0016249D01*
X0315623Y0017100D01*
X0318405Y0017100D01*
X0318319Y0016892D01*
X0318319Y0015508D01*
X0318849Y0014228D01*
X0319828Y0013249D01*
X0321108Y0012719D01*
X0322492Y0012719D01*
X0323772Y0013249D01*
X0324751Y0014228D01*
X0325281Y0015508D01*
X0325281Y0016892D01*
X0324751Y0018172D01*
X0324246Y0018677D01*
X0326670Y0021100D01*
X0327900Y0022330D01*
X0327900Y0039630D01*
X0351270Y0063000D01*
X0352500Y0064230D01*
X0352500Y0065677D01*
X0353300Y0064877D01*
X0353300Y0050630D01*
X0363500Y0040430D01*
X0364730Y0039200D01*
X0366830Y0039200D01*
X0368210Y0037821D01*
X0370700Y0034500D01*
X0370700Y0026330D01*
X0371930Y0025100D01*
X0377930Y0019100D01*
X0378651Y0019100D01*
X0378651Y0017789D01*
X0379588Y0016852D01*
X0388012Y0016852D01*
X0388949Y0017789D01*
X0388949Y0025414D01*
X0388012Y0026351D01*
X0379588Y0026351D01*
X0378651Y0025414D01*
X0378651Y0024319D01*
X0374900Y0028070D01*
X0374900Y0035051D01*
X0375002Y0035764D01*
X0374900Y0035900D01*
X0374900Y0036070D01*
X0374390Y0036579D01*
X0371900Y0039900D01*
X0371900Y0040070D01*
X0371390Y0040579D01*
X0370958Y0041156D01*
X0370790Y0041180D01*
X0368570Y0043400D01*
X0366470Y0043400D01*
X0365151Y0044719D01*
X0366492Y0044719D01*
X0367772Y0045249D01*
X0368751Y0046228D01*
X0369281Y0047508D01*
X0369281Y0048892D01*
X0368904Y0049803D01*
X0369108Y0049719D01*
X0370492Y0049719D01*
X0371772Y0050249D01*
X0372751Y0051228D01*
X0373281Y0052508D01*
X0373281Y0053061D01*
X0374108Y0052719D01*
X0375492Y0052719D01*
X0376772Y0053249D01*
X0377751Y0054228D01*
X0378281Y0055508D01*
X0378281Y0056892D01*
X0377873Y0057877D01*
X0378651Y0058199D01*
X0378651Y0056986D01*
X0379588Y0056049D01*
X0388012Y0056049D01*
X0388949Y0056986D01*
X0388949Y0058698D01*
X0389268Y0058698D01*
X0389400Y0058830D01*
X0389400Y0041368D01*
X0385580Y0037548D01*
X0379588Y0037548D01*
X0378651Y0036611D01*
X0378651Y0028986D01*
X0379588Y0028049D01*
X0388012Y0028049D01*
X0388949Y0028986D01*
X0388949Y0034978D01*
X0393600Y0039629D01*
X0393600Y0065000D01*
X0395750Y0065000D01*
X0395750Y0071350D01*
X0396650Y0071350D01*
X0396650Y0065000D01*
X0398412Y0065000D01*
X0398435Y0012200D01*
X0004100Y0012200D01*
X0004100Y0174200D01*
X0139266Y0174200D01*
X0137200Y0172134D01*
X0137200Y0166666D01*
X0141066Y0162800D01*
X0143142Y0162800D01*
X0144479Y0160394D01*
X0144247Y0160162D01*
X0144247Y0153718D01*
X0144766Y0153200D01*
X0144247Y0152682D01*
X0144247Y0146238D01*
X0145184Y0145301D01*
X0152415Y0145301D01*
X0152649Y0145534D01*
X0153197Y0145300D01*
X0139200Y0145300D01*
X0139200Y0159677D01*
X0138835Y0160559D01*
X0136561Y0162833D01*
X0135679Y0163198D01*
X0133949Y0163198D01*
X0133949Y0164611D01*
X0133012Y0165548D01*
X0127445Y0165548D01*
X0123758Y0169235D01*
X0122876Y0169600D01*
X0022323Y0169600D01*
X0021441Y0169235D01*
X0020765Y0168559D01*
X0017965Y0165759D01*
X0017836Y0165448D01*
X0015788Y0165448D01*
X0014851Y0164511D01*
X0014851Y0163098D01*
X0012821Y0163098D01*
X0011939Y0162733D01*
X0009441Y0160235D01*
X0009441Y0160235D01*
X0008765Y0159559D01*
X0008400Y0158677D01*
X0008400Y0041921D01*
X0008765Y0041039D01*
X0015451Y0034354D01*
X0015451Y0028786D01*
X0016388Y0027849D01*
X0024812Y0027849D01*
X0025749Y0028786D01*
X0025749Y0036411D01*
X0024812Y0037348D01*
X0019245Y0037348D01*
X0013200Y0043393D01*
X0013200Y0059406D01*
X0013942Y0058664D01*
X0014824Y0058298D01*
X0014851Y0058298D01*
X0014851Y0056886D01*
X0015788Y0055949D01*
X0023756Y0055949D01*
X0023319Y0054892D01*
X0023319Y0054251D01*
X0015788Y0054251D01*
X0014851Y0053314D01*
X0014851Y0045689D01*
X0015788Y0044752D01*
X0024212Y0044752D01*
X0025149Y0045689D01*
X0025149Y0049579D01*
X0026289Y0050719D01*
X0027492Y0050719D01*
X0028772Y0051249D01*
X0029751Y0052228D01*
X0030281Y0053508D01*
X0030281Y0054892D01*
X0029751Y0056172D01*
X0028772Y0057151D01*
X0027492Y0057681D01*
X0026108Y0057681D01*
X0025149Y0057284D01*
X0025149Y0064511D01*
X0024212Y0065448D01*
X0015788Y0065448D01*
X0014867Y0064527D01*
X0013200Y0066194D01*
X0013200Y0085406D01*
X0014242Y0084364D01*
X0015124Y0083998D01*
X0015351Y0083998D01*
X0015351Y0082586D01*
X0016288Y0081649D01*
X0024712Y0081649D01*
X0025649Y0082586D01*
X0025649Y0090211D01*
X0024712Y0091148D01*
X0016288Y0091148D01*
X0015351Y0090211D01*
X0015351Y0090043D01*
X0013200Y0092194D01*
X0013200Y0112406D01*
X0015042Y0110564D01*
X0015351Y0110436D01*
X0015351Y0108786D01*
X0016288Y0107849D01*
X0024712Y0107849D01*
X0025649Y0108786D01*
X0025649Y0116411D01*
X0024775Y0117285D01*
X0025281Y0118508D01*
X0025281Y0119892D01*
X0024751Y0121172D01*
X0024691Y0121232D01*
X0025549Y0122089D01*
X0025549Y0129714D01*
X0024612Y0130651D01*
X0016188Y0130651D01*
X0015251Y0129714D01*
X0015251Y0122089D01*
X0016188Y0121152D01*
X0018841Y0121152D01*
X0018319Y0119892D01*
X0018319Y0118508D01*
X0018799Y0117348D01*
X0016288Y0117348D01*
X0015667Y0116727D01*
X0013200Y0119194D01*
X0013200Y0136406D01*
X0014542Y0135064D01*
X0015251Y0134770D01*
X0015251Y0133286D01*
X0016188Y0132349D01*
X0024612Y0132349D01*
X0025549Y0133286D01*
X0025549Y0140911D01*
X0024892Y0141568D01*
X0025281Y0142508D01*
X0025281Y0143892D01*
X0024751Y0145172D01*
X0024691Y0145232D01*
X0025149Y0145689D01*
X0025149Y0153314D01*
X0024212Y0154251D01*
X0015788Y0154251D01*
X0014851Y0153314D01*
X0014851Y0145689D01*
X0015788Y0144752D01*
X0018476Y0144752D01*
X0018522Y0144382D01*
X0018319Y0143892D01*
X0018319Y0142508D01*
X0018592Y0141848D01*
X0016188Y0141848D01*
X0015367Y0141027D01*
X0013200Y0143194D01*
X0013200Y0157206D01*
X0014293Y0158298D01*
X0014851Y0158298D01*
X0014851Y0156886D01*
X0015788Y0155949D01*
X0024212Y0155949D01*
X0025149Y0156886D01*
X0025149Y0164511D01*
X0024860Y0164800D01*
X0121404Y0164800D01*
X0123651Y0162554D01*
X0123651Y0156986D01*
X0124588Y0156049D01*
X0133012Y0156049D01*
X0133949Y0156986D01*
X0133949Y0158398D01*
X0134207Y0158398D01*
X0134400Y0158206D01*
X0134400Y0139198D01*
X0133949Y0139198D01*
X0133949Y0140611D01*
X0133012Y0141548D01*
X0124588Y0141548D01*
X0123651Y0140611D01*
X0123651Y0132986D01*
X0124588Y0132049D01*
X0133012Y0132049D01*
X0133949Y0132986D01*
X0133949Y0134398D01*
X0134400Y0134398D01*
X0134400Y0116194D01*
X0133949Y0115743D01*
X0133949Y0116611D01*
X0133012Y0117548D01*
X0126871Y0117548D01*
X0127351Y0118028D01*
X0127369Y0118071D01*
X0127444Y0118075D01*
X0127804Y0117927D01*
X0128279Y0118125D01*
X0128792Y0118155D01*
X0129051Y0118446D01*
X0129410Y0118596D01*
X0129606Y0119071D01*
X0129947Y0119455D01*
X0129925Y0119844D01*
X0130340Y0120852D01*
X0133012Y0120852D01*
X0133949Y0121789D01*
X0133949Y0129414D01*
X0133012Y0130351D01*
X0124588Y0130351D01*
X0123651Y0129414D01*
X0123651Y0123458D01*
X0122428Y0122951D01*
X0121900Y0122423D01*
X0121900Y0141330D01*
X0125422Y0144852D01*
X0133012Y0144852D01*
X0133949Y0145789D01*
X0133949Y0153414D01*
X0133012Y0154351D01*
X0124588Y0154351D01*
X0123651Y0153414D01*
X0123651Y0149021D01*
X0117700Y0143070D01*
X0117700Y0117070D01*
X0114311Y0113681D01*
X0113108Y0113681D01*
X0111828Y0113151D01*
X0110849Y0112172D01*
X0110319Y0110892D01*
X0110319Y0109508D01*
X0110849Y0108228D01*
X0111777Y0107300D01*
X0075930Y0107300D01*
X0074700Y0106070D01*
X0061700Y0093070D01*
X0061700Y0067070D01*
X0050700Y0056070D01*
X0050700Y0048070D01*
X0050311Y0047681D01*
X0049108Y0047681D01*
X0047828Y0047151D01*
X0046849Y0046172D01*
X0046319Y0044892D01*
X0046319Y0043508D01*
X0046849Y0042228D01*
X0047828Y0041249D01*
X0049108Y0040719D01*
X0050492Y0040719D01*
X0051772Y0041249D01*
X0052300Y0041777D01*
X0052828Y0041249D01*
X0054108Y0040719D01*
X0055492Y0040719D01*
X0056772Y0041249D01*
X0057751Y0042228D01*
X0058281Y0043508D01*
X0058281Y0044892D01*
X0057751Y0046172D01*
X0056900Y0047023D01*
X0056900Y0053330D01*
X0067670Y0064100D01*
X0068900Y0065330D01*
X0068900Y0091330D01*
X0078670Y0101100D01*
X0116977Y0101100D01*
X0117828Y0100249D01*
X0119108Y0099719D01*
X0120492Y0099719D01*
X0121772Y0100249D01*
X0122751Y0101228D01*
X0123281Y0102508D01*
X0123281Y0103892D01*
X0122751Y0105172D01*
X0122223Y0105700D01*
X0122751Y0106228D01*
X0123281Y0107508D01*
X0123281Y0108892D01*
X0122751Y0110172D01*
X0121772Y0111151D01*
X0120492Y0111681D01*
X0119108Y0111681D01*
X0117828Y0111151D01*
X0117281Y0110604D01*
X0117281Y0110711D01*
X0120670Y0114100D01*
X0121900Y0115330D01*
X0121900Y0117577D01*
X0122428Y0117049D01*
X0123651Y0116542D01*
X0123651Y0108986D01*
X0124588Y0108049D01*
X0133012Y0108049D01*
X0133949Y0108986D01*
X0133949Y0110398D01*
X0134400Y0110398D01*
X0134400Y0090194D01*
X0133949Y0089743D01*
X0133949Y0090611D01*
X0133012Y0091548D01*
X0124588Y0091548D01*
X0123651Y0090611D01*
X0123651Y0082986D01*
X0124588Y0082049D01*
X0133012Y0082049D01*
X0133949Y0082986D01*
X0133949Y0084398D01*
X0134400Y0084398D01*
X0134400Y0063194D01*
X0133949Y0062743D01*
X0133949Y0063611D01*
X0133012Y0064548D01*
X0124588Y0064548D01*
X0123651Y0063611D01*
X0123651Y0062300D01*
X0120623Y0062300D01*
X0119772Y0063151D01*
X0118492Y0063681D01*
X0117108Y0063681D01*
X0115828Y0063151D01*
X0114849Y0062172D01*
X0114319Y0060892D01*
X0114319Y0059508D01*
X0114849Y0058228D01*
X0115828Y0057249D01*
X0117108Y0056719D01*
X0118492Y0056719D01*
X0119772Y0057249D01*
X0120623Y0058100D01*
X0123651Y0058100D01*
X0123651Y0055986D01*
X0124588Y0055049D01*
X0133012Y0055049D01*
X0133949Y0055986D01*
X0133949Y0057398D01*
X0134400Y0057398D01*
X0134400Y0042793D01*
X0130155Y0038548D01*
X0124588Y0038548D01*
X0123651Y0037611D01*
X0123651Y0029986D01*
X0124588Y0029049D01*
X0133012Y0029049D01*
X0133949Y0029986D01*
X0133949Y0035554D01*
X0138835Y0040439D01*
X0139200Y0041321D01*
X0139200Y0060630D01*
X0140670Y0062100D01*
X0149670Y0062100D01*
X0150900Y0063330D01*
X0150900Y0063330D01*
X0152289Y0064719D01*
X0153311Y0064719D01*
X0163930Y0054100D01*
X0162481Y0055549D02*
X0139200Y0055549D01*
X0139200Y0053951D02*
X0175126Y0053951D01*
X0180474Y0053951D02*
X0220548Y0053951D01*
X0220700Y0053888D02*
X0220700Y0032330D01*
X0221930Y0031100D01*
X0233529Y0019502D01*
X0260651Y0019502D01*
X0260651Y0017789D01*
X0261588Y0016852D01*
X0270012Y0016852D01*
X0270949Y0017789D01*
X0270949Y0025414D01*
X0270012Y0026351D01*
X0261588Y0026351D01*
X0260651Y0025414D01*
X0260651Y0023702D01*
X0235268Y0023702D01*
X0224900Y0034070D01*
X0224900Y0055588D01*
X0225281Y0056508D01*
X0225281Y0057892D01*
X0224751Y0059172D01*
X0223772Y0060151D01*
X0222492Y0060681D01*
X0221108Y0060681D01*
X0219828Y0060151D01*
X0218849Y0059172D01*
X0218319Y0057892D01*
X0218319Y0056508D01*
X0218849Y0055228D01*
X0219828Y0054249D01*
X0220700Y0053888D01*
X0220700Y0052352D02*
X0139200Y0052352D01*
X0139200Y0050754D02*
X0220700Y0050754D01*
X0220700Y0049155D02*
X0139200Y0049155D01*
X0139200Y0047557D02*
X0220700Y0047557D01*
X0220700Y0045958D02*
X0139200Y0045958D01*
X0139200Y0044360D02*
X0220700Y0044360D01*
X0220700Y0042761D02*
X0139200Y0042761D01*
X0139134Y0041163D02*
X0175845Y0041163D01*
X0175849Y0041172D02*
X0175319Y0039892D01*
X0175319Y0039300D01*
X0153623Y0039300D01*
X0152772Y0040151D01*
X0151492Y0040681D01*
X0150108Y0040681D01*
X0148828Y0040151D01*
X0147849Y0039172D01*
X0147319Y0037892D01*
X0147319Y0036508D01*
X0147849Y0035228D01*
X0148828Y0034249D01*
X0150108Y0033719D01*
X0151492Y0033719D01*
X0152772Y0034249D01*
X0153623Y0035100D01*
X0177670Y0035100D01*
X0178289Y0035719D01*
X0179492Y0035719D01*
X0180772Y0036249D01*
X0181751Y0037228D01*
X0182281Y0038508D01*
X0182281Y0039892D01*
X0181751Y0041172D01*
X0180772Y0042151D01*
X0179492Y0042681D01*
X0178108Y0042681D01*
X0176828Y0042151D01*
X0175849Y0041172D01*
X0175319Y0039564D02*
X0153359Y0039564D01*
X0148241Y0039564D02*
X0137960Y0039564D01*
X0136361Y0037966D02*
X0147349Y0037966D01*
X0147377Y0036367D02*
X0134763Y0036367D01*
X0133949Y0034769D02*
X0148308Y0034769D01*
X0153292Y0034769D02*
X0220700Y0034769D01*
X0220700Y0036367D02*
X0180890Y0036367D01*
X0182057Y0037966D02*
X0220700Y0037966D01*
X0220700Y0039564D02*
X0182281Y0039564D01*
X0181755Y0041163D02*
X0220700Y0041163D01*
X0224900Y0041163D02*
X0242700Y0041163D01*
X0242700Y0042761D02*
X0224900Y0042761D01*
X0224900Y0044360D02*
X0242700Y0044360D01*
X0242700Y0045958D02*
X0224900Y0045958D01*
X0224900Y0047557D02*
X0242700Y0047557D01*
X0242700Y0049155D02*
X0224900Y0049155D01*
X0224900Y0050754D02*
X0242700Y0050754D01*
X0242700Y0052352D02*
X0224900Y0052352D01*
X0224900Y0053951D02*
X0242700Y0053951D01*
X0242700Y0055549D02*
X0224900Y0055549D01*
X0225281Y0057148D02*
X0242700Y0057148D01*
X0242700Y0058746D02*
X0224927Y0058746D01*
X0223304Y0060345D02*
X0242700Y0060345D01*
X0242700Y0061943D02*
X0162026Y0061943D01*
X0163625Y0060345D02*
X0220296Y0060345D01*
X0218673Y0058746D02*
X0180177Y0058746D01*
X0181175Y0057148D02*
X0218319Y0057148D01*
X0218716Y0055549D02*
X0181281Y0055549D01*
X0175423Y0058746D02*
X0165223Y0058746D01*
X0160882Y0057148D02*
X0139200Y0057148D01*
X0139200Y0058746D02*
X0159284Y0058746D01*
X0157685Y0060345D02*
X0139200Y0060345D01*
X0140513Y0061943D02*
X0156087Y0061943D01*
X0154488Y0063542D02*
X0151112Y0063542D01*
X0148369Y0066739D02*
X0139200Y0066739D01*
X0139200Y0068337D02*
X0149319Y0068337D01*
X0149751Y0069936D02*
X0139200Y0069936D01*
X0139200Y0071534D02*
X0151754Y0071534D01*
X0153846Y0071534D02*
X0181496Y0071534D01*
X0179897Y0073133D02*
X0139200Y0073133D01*
X0139200Y0074732D02*
X0178299Y0074732D01*
X0176700Y0076330D02*
X0139200Y0076330D01*
X0139200Y0077929D02*
X0175102Y0077929D01*
X0173503Y0079527D02*
X0139200Y0079527D01*
X0139200Y0081126D02*
X0171905Y0081126D01*
X0170700Y0082724D02*
X0139200Y0082724D01*
X0139200Y0084323D02*
X0170700Y0084323D01*
X0170700Y0085921D02*
X0139200Y0085921D01*
X0139200Y0087520D02*
X0170700Y0087520D01*
X0170700Y0089118D02*
X0139200Y0089118D01*
X0139200Y0090717D02*
X0170700Y0090717D01*
X0170700Y0092315D02*
X0139200Y0092315D01*
X0139200Y0093914D02*
X0170163Y0093914D01*
X0169319Y0095512D02*
X0139200Y0095512D01*
X0139200Y0097111D02*
X0169409Y0097111D01*
X0170386Y0098709D02*
X0139200Y0098709D01*
X0139200Y0100308D02*
X0175722Y0100308D01*
X0175214Y0098709D02*
X0177321Y0098709D01*
X0180064Y0101906D02*
X0229536Y0101906D01*
X0227938Y0100308D02*
X0223394Y0100308D01*
X0223772Y0100151D02*
X0222492Y0100681D01*
X0221108Y0100681D01*
X0219828Y0100151D01*
X0219300Y0099623D01*
X0218772Y0100151D01*
X0217492Y0100681D01*
X0216108Y0100681D01*
X0214828Y0100151D01*
X0213849Y0099172D01*
X0213800Y0099054D01*
X0213751Y0099172D01*
X0212772Y0100151D01*
X0211492Y0100681D01*
X0210108Y0100681D01*
X0208828Y0100151D01*
X0207849Y0099172D01*
X0207319Y0097892D01*
X0207319Y0097651D01*
X0207281Y0097689D01*
X0207281Y0097892D01*
X0206751Y0099172D01*
X0205772Y0100151D01*
X0204492Y0100681D01*
X0203108Y0100681D01*
X0201828Y0100151D01*
X0200849Y0099172D01*
X0200319Y0097892D01*
X0200319Y0096508D01*
X0200849Y0095228D01*
X0201828Y0094249D01*
X0203108Y0093719D01*
X0204492Y0093719D01*
X0205071Y0093959D01*
X0211700Y0087330D01*
X0212730Y0086300D01*
X0197670Y0086300D01*
X0197281Y0086689D01*
X0197281Y0087892D01*
X0196751Y0089172D01*
X0195772Y0090151D01*
X0194492Y0090681D01*
X0193108Y0090681D01*
X0191828Y0090151D01*
X0191300Y0089623D01*
X0190772Y0090151D01*
X0189492Y0090681D01*
X0188108Y0090681D01*
X0186828Y0090151D01*
X0185849Y0089172D01*
X0185319Y0087892D01*
X0185319Y0086508D01*
X0185849Y0085228D01*
X0186700Y0084377D01*
X0186700Y0083836D01*
X0186570Y0083641D01*
X0186700Y0082992D01*
X0186700Y0082330D01*
X0186865Y0082165D01*
X0186911Y0081935D01*
X0187462Y0081568D01*
X0187930Y0081100D01*
X0188164Y0081100D01*
X0190462Y0079568D01*
X0190730Y0079300D01*
X0186670Y0079300D01*
X0184900Y0081070D01*
X0184900Y0097070D01*
X0183670Y0098300D01*
X0178181Y0103789D01*
X0178181Y0145429D01*
X0176951Y0146659D01*
X0176259Y0147351D01*
X0175029Y0148581D01*
X0156208Y0148581D01*
X0153353Y0149800D01*
X0153353Y0152682D01*
X0152834Y0153200D01*
X0153353Y0153718D01*
X0153353Y0160162D01*
X0152415Y0161099D01*
X0148892Y0161099D01*
X0147442Y0163708D01*
X0150400Y0166666D01*
X0150400Y0172134D01*
X0148334Y0174200D01*
X0185200Y0174200D01*
X0185200Y0148770D01*
X0180281Y0153689D01*
X0180281Y0154892D01*
X0179751Y0156172D01*
X0178772Y0157151D01*
X0177492Y0157681D01*
X0176108Y0157681D01*
X0174828Y0157151D01*
X0173849Y0156172D01*
X0173319Y0154892D01*
X0173319Y0153508D01*
X0173849Y0152228D01*
X0174828Y0151249D01*
X0176108Y0150719D01*
X0177311Y0150719D01*
X0193700Y0134330D01*
X0194930Y0133100D01*
X0197901Y0133100D01*
X0197901Y0131388D01*
X0198838Y0130450D01*
X0205282Y0130450D01*
X0205800Y0130969D01*
X0206318Y0130450D01*
X0207440Y0130450D01*
X0207440Y0129590D01*
X0211700Y0125330D01*
X0212930Y0124100D01*
X0215977Y0124100D01*
X0216828Y0123249D01*
X0218108Y0122719D01*
X0219492Y0122719D01*
X0220772Y0123249D01*
X0221751Y0124228D01*
X0222281Y0125508D01*
X0222281Y0126892D01*
X0221751Y0128172D01*
X0220772Y0129151D01*
X0219492Y0129681D01*
X0218108Y0129681D01*
X0216828Y0129151D01*
X0215977Y0128300D01*
X0214670Y0128300D01*
X0212519Y0130450D01*
X0212762Y0130450D01*
X0213699Y0131388D01*
X0213699Y0139012D01*
X0212762Y0139950D01*
X0206318Y0139950D01*
X0205800Y0139431D01*
X0205282Y0139950D01*
X0205049Y0139950D01*
X0205772Y0140249D01*
X0206623Y0141100D01*
X0216247Y0141100D01*
X0216247Y0140718D01*
X0216624Y0140341D01*
X0216407Y0140124D01*
X0216170Y0139714D01*
X0216047Y0139256D01*
X0216047Y0136939D01*
X0220320Y0136939D01*
X0220320Y0135980D01*
X0216047Y0135980D01*
X0216047Y0133664D01*
X0216170Y0133206D01*
X0216407Y0132796D01*
X0216742Y0132460D01*
X0217152Y0132223D01*
X0217610Y0132101D01*
X0220320Y0132101D01*
X0220320Y0135980D01*
X0221280Y0135980D01*
X0221280Y0136939D01*
X0225553Y0136939D01*
X0225553Y0139256D01*
X0225430Y0139714D01*
X0225193Y0140124D01*
X0224976Y0140341D01*
X0225353Y0140718D01*
X0225353Y0141840D01*
X0225595Y0141840D01*
X0225849Y0141228D01*
X0226828Y0140249D01*
X0228108Y0139719D01*
X0229492Y0139719D01*
X0230772Y0140249D01*
X0231751Y0141228D01*
X0232281Y0142508D01*
X0232281Y0143892D01*
X0231751Y0145172D01*
X0230772Y0146151D01*
X0229492Y0146681D01*
X0228108Y0146681D01*
X0226828Y0146151D01*
X0226717Y0146040D01*
X0225353Y0146040D01*
X0225353Y0147162D01*
X0224915Y0147600D01*
X0241400Y0147600D01*
X0241400Y0175200D01*
X0273866Y0175200D01*
X0272200Y0173534D01*
X0272200Y0168066D01*
X0276066Y0164200D01*
X0281534Y0164200D01*
X0285400Y0168066D01*
X0285400Y0173534D01*
X0283734Y0175200D01*
X0398366Y0175200D01*
X0398407Y0078600D01*
X0396650Y0078600D01*
X0396650Y0072250D01*
X0395750Y0072250D01*
X0395750Y0078600D01*
X0393600Y0078600D01*
X0393600Y0159270D01*
X0392370Y0160500D01*
X0391302Y0161568D01*
X0391302Y0161668D01*
X0390071Y0162898D01*
X0388949Y0162898D01*
X0388949Y0164611D01*
X0388012Y0165548D01*
X0379588Y0165548D01*
X0378651Y0164611D01*
X0378651Y0156986D01*
X0379588Y0156049D01*
X0388012Y0156049D01*
X0388949Y0156986D01*
X0388949Y0157981D01*
X0389400Y0157530D01*
X0389400Y0141160D01*
X0389012Y0141548D01*
X0380588Y0141548D01*
X0379651Y0140611D01*
X0379651Y0132986D01*
X0380588Y0132049D01*
X0389012Y0132049D01*
X0389400Y0132437D01*
X0389400Y0129963D01*
X0389012Y0130351D01*
X0380588Y0130351D01*
X0379651Y0129414D01*
X0379651Y0127702D01*
X0370332Y0127702D01*
X0367114Y0124484D01*
X0366909Y0144339D01*
X0370071Y0147502D01*
X0378651Y0147502D01*
X0378651Y0145789D01*
X0379588Y0144852D01*
X0388012Y0144852D01*
X0388949Y0145789D01*
X0388949Y0153414D01*
X0388012Y0154351D01*
X0379588Y0154351D01*
X0378651Y0153414D01*
X0378651Y0151702D01*
X0368332Y0151702D01*
X0363921Y0147291D01*
X0363909Y0147291D01*
X0363307Y0146677D01*
X0362800Y0146170D01*
X0337900Y0171070D01*
X0336670Y0172300D01*
X0315623Y0172300D01*
X0314772Y0173151D01*
X0313492Y0173681D01*
X0312108Y0173681D01*
X0310828Y0173151D01*
X0309849Y0172172D01*
X0309319Y0170892D01*
X0309319Y0169508D01*
X0309849Y0168228D01*
X0310828Y0167249D01*
X0312108Y0166719D01*
X0313492Y0166719D01*
X0314772Y0167249D01*
X0315623Y0168100D01*
X0334930Y0168100D01*
X0356901Y0146130D01*
X0356228Y0145851D01*
X0355719Y0145341D01*
X0350117Y0148853D01*
X0349670Y0149300D01*
X0349404Y0149300D01*
X0349178Y0149441D01*
X0348562Y0149300D01*
X0341670Y0149300D01*
X0326670Y0164300D01*
X0308272Y0164300D01*
X0307913Y0164470D01*
X0307436Y0164300D01*
X0306930Y0164300D01*
X0306649Y0164019D01*
X0295784Y0160139D01*
X0295772Y0160151D01*
X0294492Y0160681D01*
X0293108Y0160681D01*
X0291828Y0160151D01*
X0290849Y0159172D01*
X0290319Y0157892D01*
X0290319Y0156508D01*
X0290849Y0155228D01*
X0291828Y0154249D01*
X0293108Y0153719D01*
X0294492Y0153719D01*
X0295772Y0154249D01*
X0296751Y0155228D01*
X0297138Y0156162D01*
X0306007Y0159330D01*
X0305849Y0159172D01*
X0305319Y0157892D01*
X0305319Y0156508D01*
X0305849Y0155228D01*
X0306828Y0154249D01*
X0308108Y0153719D01*
X0309492Y0153719D01*
X0310772Y0154249D01*
X0311623Y0155100D01*
X0323930Y0155100D01*
X0333648Y0145382D01*
X0324194Y0152775D01*
X0323670Y0153300D01*
X0323524Y0153300D01*
X0323408Y0153390D01*
X0322672Y0153300D01*
X0287623Y0153300D01*
X0286772Y0154151D01*
X0285492Y0154681D01*
X0284108Y0154681D01*
X0282828Y0154151D01*
X0281849Y0153172D01*
X0281319Y0151892D01*
X0281319Y0150508D01*
X0281849Y0149228D01*
X0282828Y0148249D01*
X0284108Y0147719D01*
X0285492Y0147719D01*
X0286772Y0148249D01*
X0287623Y0149100D01*
X0307819Y0149100D01*
X0307319Y0147892D01*
X0307319Y0146508D01*
X0307819Y0145300D01*
X0306623Y0145300D01*
X0305772Y0146151D01*
X0304492Y0146681D01*
X0303108Y0146681D01*
X0301828Y0146151D01*
X0300849Y0145172D01*
X0300319Y0143892D01*
X0300319Y0142508D01*
X0300819Y0141300D01*
X0291623Y0141300D01*
X0290772Y0142151D01*
X0289492Y0142681D01*
X0288108Y0142681D01*
X0286828Y0142151D01*
X0285849Y0141172D01*
X0285319Y0139892D01*
X0285319Y0138508D01*
X0285819Y0137300D01*
X0285670Y0137300D01*
X0283806Y0139164D01*
X0283791Y0139296D01*
X0283203Y0139767D01*
X0282670Y0140300D01*
X0282537Y0140300D01*
X0280281Y0142104D01*
X0280281Y0142892D01*
X0279751Y0144172D01*
X0278772Y0145151D01*
X0277492Y0145681D01*
X0276108Y0145681D01*
X0274828Y0145151D01*
X0273900Y0144223D01*
X0273900Y0159070D01*
X0272670Y0160300D01*
X0270949Y0162021D01*
X0270949Y0164611D01*
X0270012Y0165548D01*
X0263422Y0165548D01*
X0261281Y0167689D01*
X0261281Y0168892D01*
X0260751Y0170172D01*
X0259772Y0171151D01*
X0258492Y0171681D01*
X0257108Y0171681D01*
X0255828Y0171151D01*
X0254849Y0170172D01*
X0254319Y0168892D01*
X0254319Y0167508D01*
X0254849Y0166228D01*
X0255828Y0165249D01*
X0257108Y0164719D01*
X0258311Y0164719D01*
X0260651Y0162379D01*
X0260651Y0156986D01*
X0261588Y0156049D01*
X0269700Y0156049D01*
X0269700Y0154351D01*
X0261588Y0154351D01*
X0260651Y0153414D01*
X0260651Y0145789D01*
X0261535Y0144905D01*
X0258930Y0142300D01*
X0257700Y0141070D01*
X0257700Y0128181D01*
X0256492Y0128681D01*
X0255108Y0128681D01*
X0253828Y0128151D01*
X0252849Y0127172D01*
X0252319Y0125892D01*
X0252319Y0124689D01*
X0226930Y0099300D01*
X0224623Y0099300D01*
X0223772Y0100151D01*
X0220206Y0100308D02*
X0218394Y0100308D01*
X0215206Y0100308D02*
X0212394Y0100308D01*
X0209206Y0100308D02*
X0205394Y0100308D01*
X0206943Y0098709D02*
X0207657Y0098709D01*
X0202206Y0100308D02*
X0181662Y0100308D01*
X0183261Y0098709D02*
X0200657Y0098709D01*
X0200319Y0097111D02*
X0184859Y0097111D01*
X0184900Y0095512D02*
X0200731Y0095512D01*
X0202637Y0093914D02*
X0184900Y0093914D01*
X0184900Y0092315D02*
X0206715Y0092315D01*
X0208314Y0090717D02*
X0184900Y0090717D01*
X0184900Y0089118D02*
X0185827Y0089118D01*
X0185319Y0087520D02*
X0184900Y0087520D01*
X0184900Y0085921D02*
X0185562Y0085921D01*
X0184900Y0084323D02*
X0186700Y0084323D01*
X0186700Y0082724D02*
X0184900Y0082724D01*
X0184900Y0081126D02*
X0187905Y0081126D01*
X0186443Y0079527D02*
X0190503Y0079527D01*
X0197281Y0087520D02*
X0211511Y0087520D01*
X0209912Y0089118D02*
X0196773Y0089118D01*
X0204963Y0093914D02*
X0205116Y0093914D01*
X0231135Y0103505D02*
X0178465Y0103505D01*
X0178181Y0105103D02*
X0232733Y0105103D01*
X0234332Y0106702D02*
X0178181Y0106702D01*
X0178181Y0108300D02*
X0235930Y0108300D01*
X0237529Y0109899D02*
X0178181Y0109899D01*
X0178181Y0111497D02*
X0239127Y0111497D01*
X0240726Y0113096D02*
X0178181Y0113096D01*
X0178181Y0114694D02*
X0242324Y0114694D01*
X0243923Y0116293D02*
X0178181Y0116293D01*
X0178181Y0117891D02*
X0245521Y0117891D01*
X0247120Y0119490D02*
X0178181Y0119490D01*
X0178181Y0121088D02*
X0248719Y0121088D01*
X0250317Y0122687D02*
X0178181Y0122687D01*
X0178181Y0124285D02*
X0212745Y0124285D01*
X0211146Y0125884D02*
X0178181Y0125884D01*
X0178181Y0127482D02*
X0209548Y0127482D01*
X0207949Y0129081D02*
X0178181Y0129081D01*
X0178181Y0130679D02*
X0198609Y0130679D01*
X0197901Y0132278D02*
X0178181Y0132278D01*
X0178181Y0133876D02*
X0194154Y0133876D01*
X0192555Y0135475D02*
X0178181Y0135475D01*
X0178181Y0137073D02*
X0190957Y0137073D01*
X0189358Y0138672D02*
X0178181Y0138672D01*
X0178181Y0140270D02*
X0187760Y0140270D01*
X0186161Y0141869D02*
X0178181Y0141869D01*
X0178181Y0143468D02*
X0184563Y0143468D01*
X0182964Y0145066D02*
X0178181Y0145066D01*
X0176945Y0146665D02*
X0181366Y0146665D01*
X0179767Y0148263D02*
X0175347Y0148263D01*
X0178169Y0149862D02*
X0153353Y0149862D01*
X0153353Y0151460D02*
X0174617Y0151460D01*
X0173505Y0153059D02*
X0152976Y0153059D01*
X0153353Y0154657D02*
X0173319Y0154657D01*
X0173933Y0156256D02*
X0153353Y0156256D01*
X0153353Y0157854D02*
X0185200Y0157854D01*
X0185200Y0156256D02*
X0179667Y0156256D01*
X0180281Y0154657D02*
X0185200Y0154657D01*
X0185200Y0153059D02*
X0180911Y0153059D01*
X0182510Y0151460D02*
X0185200Y0151460D01*
X0185200Y0149862D02*
X0184108Y0149862D01*
X0185200Y0159453D02*
X0153353Y0159453D01*
X0152464Y0161051D02*
X0185200Y0161051D01*
X0185200Y0162650D02*
X0148030Y0162650D01*
X0147982Y0164248D02*
X0185200Y0164248D01*
X0185200Y0165847D02*
X0149580Y0165847D01*
X0150400Y0167445D02*
X0185200Y0167445D01*
X0185200Y0169044D02*
X0150400Y0169044D01*
X0150400Y0170642D02*
X0185200Y0170642D01*
X0185200Y0172241D02*
X0150293Y0172241D01*
X0148695Y0173839D02*
X0185200Y0173839D01*
X0144114Y0161051D02*
X0138343Y0161051D01*
X0139200Y0159453D02*
X0144247Y0159453D01*
X0144247Y0157854D02*
X0139200Y0157854D01*
X0139200Y0156256D02*
X0144247Y0156256D01*
X0144247Y0154657D02*
X0139200Y0154657D01*
X0139200Y0153059D02*
X0144624Y0153059D01*
X0144247Y0151460D02*
X0139200Y0151460D01*
X0139200Y0149862D02*
X0144247Y0149862D01*
X0144247Y0148263D02*
X0139200Y0148263D01*
X0139200Y0146665D02*
X0144247Y0146665D01*
X0136800Y0143200D02*
X0136800Y0159200D01*
X0135202Y0160798D01*
X0128800Y0160798D01*
X0122398Y0167200D01*
X0022800Y0167200D01*
X0020000Y0164400D01*
X0020000Y0160698D01*
X0013298Y0160698D01*
X0010800Y0158200D01*
X0010800Y0142200D01*
X0015902Y0137098D01*
X0020400Y0137098D01*
X0014131Y0135475D02*
X0013200Y0135475D01*
X0013200Y0133876D02*
X0015251Y0133876D01*
X0013200Y0132278D02*
X0071049Y0132278D01*
X0069827Y0133501D02*
X0073101Y0130227D01*
X0077227Y0128124D01*
X0081800Y0127400D01*
X0086373Y0128124D01*
X0086373Y0128124D01*
X0090499Y0130227D01*
X0093773Y0133501D01*
X0095876Y0137627D01*
X0096600Y0142200D01*
X0095876Y0146773D01*
X0095876Y0146773D01*
X0093773Y0150899D01*
X0090499Y0154173D01*
X0086373Y0156276D01*
X0081800Y0157000D01*
X0077227Y0156276D01*
X0073101Y0154173D01*
X0069827Y0150899D01*
X0067724Y0146773D01*
X0067000Y0142200D01*
X0067000Y0142200D01*
X0067724Y0137627D01*
X0069827Y0133501D01*
X0069827Y0133501D01*
X0069635Y0133876D02*
X0025549Y0133876D01*
X0025549Y0135475D02*
X0068821Y0135475D01*
X0068006Y0137073D02*
X0025549Y0137073D01*
X0025549Y0138672D02*
X0067559Y0138672D01*
X0067724Y0137627D02*
X0067724Y0137627D01*
X0067306Y0140270D02*
X0025549Y0140270D01*
X0025017Y0141869D02*
X0067052Y0141869D01*
X0067201Y0143468D02*
X0025281Y0143468D01*
X0024795Y0145066D02*
X0067454Y0145066D01*
X0067707Y0146665D02*
X0025149Y0146665D01*
X0025149Y0148263D02*
X0068483Y0148263D01*
X0067724Y0146773D02*
X0067724Y0146773D01*
X0069298Y0149862D02*
X0025149Y0149862D01*
X0025149Y0151460D02*
X0070387Y0151460D01*
X0071986Y0153059D02*
X0025149Y0153059D01*
X0024519Y0156256D02*
X0077187Y0156256D01*
X0074050Y0154657D02*
X0013200Y0154657D01*
X0013200Y0153059D02*
X0014851Y0153059D01*
X0014851Y0151460D02*
X0013200Y0151460D01*
X0013200Y0149862D02*
X0014851Y0149862D01*
X0014851Y0148263D02*
X0013200Y0148263D01*
X0013200Y0146665D02*
X0014851Y0146665D01*
X0015474Y0145066D02*
X0013200Y0145066D01*
X0013200Y0143468D02*
X0018319Y0143468D01*
X0018583Y0141869D02*
X0014525Y0141869D01*
X0010800Y0142200D02*
X0010800Y0118200D01*
X0016402Y0112598D01*
X0020500Y0112598D01*
X0015351Y0109899D02*
X0013200Y0109899D01*
X0013200Y0111497D02*
X0014109Y0111497D01*
X0013200Y0108300D02*
X0015837Y0108300D01*
X0016288Y0106151D02*
X0015351Y0105214D01*
X0015351Y0097589D01*
X0016288Y0096652D01*
X0017634Y0096652D01*
X0017319Y0095892D01*
X0017319Y0094508D01*
X0017849Y0093228D01*
X0018828Y0092249D01*
X0020108Y0091719D01*
X0021492Y0091719D01*
X0022772Y0092249D01*
X0023751Y0093228D01*
X0024281Y0094508D01*
X0024281Y0095892D01*
X0023966Y0096652D01*
X0024712Y0096652D01*
X0025649Y0097589D01*
X0025649Y0105214D01*
X0024712Y0106151D01*
X0016288Y0106151D01*
X0015351Y0105103D02*
X0013200Y0105103D01*
X0013200Y0103505D02*
X0015351Y0103505D01*
X0015351Y0101906D02*
X0013200Y0101906D01*
X0013200Y0100308D02*
X0015351Y0100308D01*
X0015351Y0098709D02*
X0013200Y0098709D01*
X0013200Y0097111D02*
X0015829Y0097111D01*
X0017319Y0095512D02*
X0013200Y0095512D01*
X0013200Y0093914D02*
X0017565Y0093914D01*
X0018762Y0092315D02*
X0013200Y0092315D01*
X0014677Y0090717D02*
X0015857Y0090717D01*
X0015602Y0086398D02*
X0010800Y0091200D01*
X0010800Y0118200D01*
X0008400Y0117891D02*
X0004100Y0117891D01*
X0004100Y0116293D02*
X0008400Y0116293D01*
X0008400Y0114694D02*
X0004100Y0114694D01*
X0004100Y0113096D02*
X0008400Y0113096D01*
X0008400Y0111497D02*
X0004100Y0111497D01*
X0004100Y0109899D02*
X0008400Y0109899D01*
X0008400Y0108300D02*
X0004100Y0108300D01*
X0004100Y0106702D02*
X0008400Y0106702D01*
X0008400Y0105103D02*
X0004100Y0105103D01*
X0004100Y0103505D02*
X0008400Y0103505D01*
X0008400Y0101906D02*
X0004100Y0101906D01*
X0004100Y0100308D02*
X0008400Y0100308D01*
X0008400Y0098709D02*
X0004100Y0098709D01*
X0004100Y0097111D02*
X0008400Y0097111D01*
X0008400Y0095512D02*
X0004100Y0095512D01*
X0004100Y0093914D02*
X0008400Y0093914D01*
X0008400Y0092315D02*
X0004100Y0092315D01*
X0004100Y0090717D02*
X0008400Y0090717D01*
X0008400Y0089118D02*
X0004100Y0089118D01*
X0004100Y0087520D02*
X0008400Y0087520D01*
X0008400Y0085921D02*
X0004100Y0085921D01*
X0004100Y0084323D02*
X0008400Y0084323D01*
X0008400Y0082724D02*
X0004100Y0082724D01*
X0004100Y0081126D02*
X0008400Y0081126D01*
X0008400Y0079527D02*
X0004100Y0079527D01*
X0004100Y0077929D02*
X0008400Y0077929D01*
X0008400Y0076330D02*
X0004100Y0076330D01*
X0004100Y0074732D02*
X0008400Y0074732D01*
X0008400Y0073133D02*
X0004100Y0073133D01*
X0004100Y0071534D02*
X0008400Y0071534D01*
X0008400Y0069936D02*
X0004100Y0069936D01*
X0004100Y0068337D02*
X0008400Y0068337D01*
X0008400Y0066739D02*
X0004100Y0066739D01*
X0004100Y0065140D02*
X0008400Y0065140D01*
X0008400Y0063542D02*
X0004100Y0063542D01*
X0004100Y0061943D02*
X0008400Y0061943D01*
X0008400Y0060345D02*
X0004100Y0060345D01*
X0004100Y0058746D02*
X0008400Y0058746D01*
X0008400Y0057148D02*
X0004100Y0057148D01*
X0004100Y0055549D02*
X0008400Y0055549D01*
X0008400Y0053951D02*
X0004100Y0053951D01*
X0004100Y0052352D02*
X0008400Y0052352D01*
X0008400Y0050754D02*
X0004100Y0050754D01*
X0004100Y0049155D02*
X0008400Y0049155D01*
X0008400Y0047557D02*
X0004100Y0047557D01*
X0004100Y0045958D02*
X0008400Y0045958D01*
X0008400Y0044360D02*
X0004100Y0044360D01*
X0004100Y0042761D02*
X0008400Y0042761D01*
X0008714Y0041163D02*
X0004100Y0041163D01*
X0004100Y0039564D02*
X0010240Y0039564D01*
X0011839Y0037966D02*
X0004100Y0037966D01*
X0004100Y0036367D02*
X0013437Y0036367D01*
X0015036Y0034769D02*
X0004100Y0034769D01*
X0004100Y0033170D02*
X0015451Y0033170D01*
X0015451Y0031572D02*
X0004100Y0031572D01*
X0004100Y0029973D02*
X0015451Y0029973D01*
X0015862Y0028375D02*
X0004100Y0028375D01*
X0004100Y0026776D02*
X0028406Y0026776D01*
X0029700Y0028070D02*
X0025749Y0024119D01*
X0025749Y0025214D01*
X0024812Y0026151D01*
X0016388Y0026151D01*
X0015451Y0025214D01*
X0015451Y0017589D01*
X0016388Y0016652D01*
X0024812Y0016652D01*
X0025749Y0017589D01*
X0025749Y0019302D01*
X0026871Y0019302D01*
X0032670Y0025100D01*
X0033900Y0026330D01*
X0033900Y0037377D01*
X0034751Y0038228D01*
X0035281Y0039508D01*
X0035281Y0040892D01*
X0034751Y0042172D01*
X0033772Y0043151D01*
X0032492Y0043681D01*
X0031108Y0043681D01*
X0029828Y0043151D01*
X0028849Y0042172D01*
X0028319Y0040892D01*
X0028319Y0039508D01*
X0028849Y0038228D01*
X0029700Y0037377D01*
X0029700Y0028070D01*
X0029700Y0028375D02*
X0025338Y0028375D01*
X0025749Y0029973D02*
X0029700Y0029973D01*
X0029700Y0031572D02*
X0025749Y0031572D01*
X0025749Y0033170D02*
X0029700Y0033170D01*
X0029700Y0034769D02*
X0025749Y0034769D01*
X0025749Y0036367D02*
X0029700Y0036367D01*
X0029111Y0037966D02*
X0018627Y0037966D01*
X0017028Y0039564D02*
X0028319Y0039564D01*
X0028431Y0041163D02*
X0015430Y0041163D01*
X0013831Y0042761D02*
X0029438Y0042761D01*
X0034162Y0042761D02*
X0046628Y0042761D01*
X0046319Y0044360D02*
X0013200Y0044360D01*
X0013200Y0045958D02*
X0014851Y0045958D01*
X0014851Y0047557D02*
X0013200Y0047557D01*
X0013200Y0049155D02*
X0014851Y0049155D01*
X0014851Y0050754D02*
X0013200Y0050754D01*
X0013200Y0052352D02*
X0014851Y0052352D01*
X0015488Y0053951D02*
X0013200Y0053951D01*
X0013200Y0055549D02*
X0023591Y0055549D01*
X0028775Y0057148D02*
X0051778Y0057148D01*
X0050700Y0055549D02*
X0030009Y0055549D01*
X0030281Y0053951D02*
X0050700Y0053951D01*
X0050700Y0052352D02*
X0029803Y0052352D01*
X0027577Y0050754D02*
X0050700Y0050754D01*
X0050700Y0049155D02*
X0025149Y0049155D01*
X0025149Y0047557D02*
X0048808Y0047557D01*
X0046760Y0045958D02*
X0025149Y0045958D01*
X0035169Y0041163D02*
X0048036Y0041163D01*
X0051564Y0041163D02*
X0053036Y0041163D01*
X0056564Y0041163D02*
X0076867Y0041163D01*
X0075930Y0042100D02*
X0079319Y0038711D01*
X0079319Y0037508D01*
X0079849Y0036228D01*
X0080828Y0035249D01*
X0082108Y0034719D01*
X0083492Y0034719D01*
X0084772Y0035249D01*
X0085751Y0036228D01*
X0086281Y0037508D01*
X0086281Y0038892D01*
X0085751Y0040172D01*
X0084772Y0041151D01*
X0083492Y0041681D01*
X0082289Y0041681D01*
X0078900Y0045070D01*
X0078900Y0069330D01*
X0079670Y0070100D01*
X0080900Y0071330D01*
X0080900Y0073377D01*
X0081751Y0074228D01*
X0082281Y0075508D01*
X0082281Y0076892D01*
X0081751Y0078172D01*
X0080772Y0079151D01*
X0079492Y0079681D01*
X0078108Y0079681D01*
X0076828Y0079151D01*
X0075849Y0078172D01*
X0075319Y0076892D01*
X0075319Y0075508D01*
X0075849Y0074228D01*
X0076700Y0073377D01*
X0076700Y0073070D01*
X0074700Y0071070D01*
X0074700Y0043330D01*
X0075930Y0042100D01*
X0075269Y0042761D02*
X0057972Y0042761D01*
X0058281Y0044360D02*
X0074700Y0044360D01*
X0074700Y0045958D02*
X0057840Y0045958D01*
X0056900Y0047557D02*
X0074700Y0047557D01*
X0074700Y0049155D02*
X0056900Y0049155D01*
X0056900Y0050754D02*
X0074700Y0050754D01*
X0074700Y0052352D02*
X0056900Y0052352D01*
X0057521Y0053951D02*
X0074700Y0053951D01*
X0074700Y0055549D02*
X0059119Y0055549D01*
X0060718Y0057148D02*
X0074700Y0057148D01*
X0074700Y0058746D02*
X0062316Y0058746D01*
X0063915Y0060345D02*
X0074700Y0060345D01*
X0074700Y0061943D02*
X0065513Y0061943D01*
X0067112Y0063542D02*
X0074700Y0063542D01*
X0074700Y0065140D02*
X0068710Y0065140D01*
X0067670Y0064100D02*
X0067670Y0064100D01*
X0068900Y0066739D02*
X0074700Y0066739D01*
X0074700Y0068337D02*
X0068900Y0068337D01*
X0068900Y0069936D02*
X0074700Y0069936D01*
X0075165Y0071534D02*
X0068900Y0071534D01*
X0068900Y0073133D02*
X0076700Y0073133D01*
X0075640Y0074732D02*
X0068900Y0074732D01*
X0068900Y0076330D02*
X0075319Y0076330D01*
X0075748Y0077929D02*
X0068900Y0077929D01*
X0068900Y0079527D02*
X0077736Y0079527D01*
X0079864Y0079527D02*
X0088700Y0079527D01*
X0088700Y0080377D02*
X0088700Y0058399D01*
X0088574Y0057741D01*
X0088700Y0057555D01*
X0088700Y0057330D01*
X0089174Y0056856D01*
X0107773Y0029446D01*
X0107815Y0029093D01*
X0108244Y0028754D01*
X0108551Y0028301D01*
X0108900Y0028234D01*
X0118000Y0021031D01*
X0118529Y0020502D01*
X0118668Y0020502D01*
X0118777Y0020415D01*
X0119520Y0020502D01*
X0123651Y0020502D01*
X0123651Y0019300D01*
X0116670Y0019300D01*
X0107670Y0028300D01*
X0104623Y0028300D01*
X0103772Y0029151D01*
X0102492Y0029681D01*
X0101108Y0029681D01*
X0099828Y0029151D01*
X0098849Y0028172D01*
X0098319Y0026892D01*
X0098319Y0025689D01*
X0096930Y0024300D01*
X0084000Y0024300D01*
X0084390Y0024821D01*
X0093289Y0033719D01*
X0094492Y0033719D01*
X0095772Y0034249D01*
X0096751Y0035228D01*
X0097281Y0036508D01*
X0097281Y0037892D01*
X0096751Y0039172D01*
X0095772Y0040151D01*
X0094492Y0040681D01*
X0093108Y0040681D01*
X0091828Y0040151D01*
X0090849Y0039172D01*
X0090319Y0037892D01*
X0090319Y0036689D01*
X0081810Y0028180D01*
X0078251Y0027672D01*
X0077772Y0028151D01*
X0076492Y0028681D01*
X0075108Y0028681D01*
X0073828Y0028151D01*
X0072849Y0027172D01*
X0072319Y0025892D01*
X0072319Y0024508D01*
X0072405Y0024300D01*
X0071670Y0024300D01*
X0071281Y0024689D01*
X0071281Y0025892D01*
X0070751Y0027172D01*
X0069772Y0028151D01*
X0068492Y0028681D01*
X0067108Y0028681D01*
X0065828Y0028151D01*
X0064849Y0027172D01*
X0064319Y0025892D01*
X0064319Y0024508D01*
X0064849Y0023228D01*
X0065828Y0022249D01*
X0067108Y0021719D01*
X0068311Y0021719D01*
X0068700Y0021330D01*
X0069930Y0020100D01*
X0077405Y0020100D01*
X0077319Y0019892D01*
X0077319Y0018508D01*
X0077849Y0017228D01*
X0078828Y0016249D01*
X0080108Y0015719D01*
X0081492Y0015719D01*
X0082772Y0016249D01*
X0083623Y0017100D01*
X0101977Y0017100D01*
X0102828Y0016249D01*
X0104108Y0015719D01*
X0105492Y0015719D01*
X0106772Y0016249D01*
X0107751Y0017228D01*
X0108281Y0018508D01*
X0108281Y0019892D01*
X0107751Y0021172D01*
X0106772Y0022151D01*
X0105492Y0022681D01*
X0104108Y0022681D01*
X0102828Y0022151D01*
X0101977Y0021300D01*
X0099870Y0021300D01*
X0101289Y0022719D01*
X0102492Y0022719D01*
X0103772Y0023249D01*
X0104623Y0024100D01*
X0105930Y0024100D01*
X0113700Y0016330D01*
X0114930Y0015100D01*
X0136670Y0015100D01*
X0145670Y0024100D01*
X0145777Y0024100D01*
X0144849Y0023172D01*
X0144319Y0021892D01*
X0144319Y0020508D01*
X0144849Y0019228D01*
X0145828Y0018249D01*
X0147108Y0017719D01*
X0148492Y0017719D01*
X0149772Y0018249D01*
X0150277Y0018754D01*
X0150700Y0018330D01*
X0151930Y0017100D01*
X0161977Y0017100D01*
X0162828Y0016249D01*
X0164108Y0015719D01*
X0165492Y0015719D01*
X0166772Y0016249D01*
X0167751Y0017228D01*
X0168281Y0018508D01*
X0168281Y0019892D01*
X0167751Y0021172D01*
X0166772Y0022151D01*
X0165492Y0022681D01*
X0164108Y0022681D01*
X0162828Y0022151D01*
X0161977Y0021300D01*
X0153670Y0021300D01*
X0151670Y0023300D01*
X0150623Y0023300D01*
X0149823Y0024100D01*
X0165977Y0024100D01*
X0166828Y0023249D01*
X0168108Y0022719D01*
X0169492Y0022719D01*
X0170772Y0023249D01*
X0171751Y0024228D01*
X0172281Y0025508D01*
X0172281Y0026892D01*
X0171751Y0028172D01*
X0170772Y0029151D01*
X0169492Y0029681D01*
X0168108Y0029681D01*
X0166828Y0029151D01*
X0165977Y0028300D01*
X0143930Y0028300D01*
X0142700Y0027070D01*
X0134930Y0019300D01*
X0133949Y0019300D01*
X0133949Y0026414D01*
X0133012Y0027351D01*
X0124588Y0027351D01*
X0123651Y0026414D01*
X0123651Y0024702D01*
X0120129Y0024702D01*
X0111356Y0031646D01*
X0096120Y0054100D01*
X0096188Y0054100D01*
X0106397Y0047604D01*
X0106744Y0047187D01*
X0107103Y0047155D01*
X0107406Y0046961D01*
X0107936Y0047079D01*
X0113451Y0046579D01*
X0113529Y0046502D01*
X0114303Y0046502D01*
X0115075Y0046432D01*
X0115159Y0046502D01*
X0123651Y0046502D01*
X0123651Y0044789D01*
X0124588Y0043852D01*
X0133012Y0043852D01*
X0133949Y0044789D01*
X0133949Y0052414D01*
X0133012Y0053351D01*
X0124588Y0053351D01*
X0123651Y0052414D01*
X0123651Y0050702D01*
X0114494Y0050702D01*
X0108497Y0051245D01*
X0098900Y0057353D01*
X0098900Y0068219D01*
X0100108Y0067719D01*
X0101492Y0067719D01*
X0102772Y0068249D01*
X0103751Y0069228D01*
X0104281Y0070508D01*
X0104281Y0071892D01*
X0103751Y0073172D01*
X0102900Y0074023D01*
X0102900Y0074177D01*
X0103828Y0073249D01*
X0105108Y0072719D01*
X0106492Y0072719D01*
X0107772Y0073249D01*
X0108542Y0074019D01*
X0123651Y0073575D01*
X0123651Y0071789D01*
X0124588Y0070852D01*
X0133012Y0070852D01*
X0133949Y0071789D01*
X0133949Y0079414D01*
X0133012Y0080351D01*
X0124588Y0080351D01*
X0123651Y0079414D01*
X0123651Y0077777D01*
X0108707Y0078216D01*
X0107772Y0079151D01*
X0107029Y0079459D01*
X0113155Y0085585D01*
X0122462Y0092100D01*
X0122670Y0092100D01*
X0123155Y0092585D01*
X0123717Y0092978D01*
X0123753Y0093183D01*
X0127422Y0096852D01*
X0133012Y0096852D01*
X0133949Y0097789D01*
X0133949Y0105414D01*
X0133012Y0106351D01*
X0124588Y0106351D01*
X0123651Y0105414D01*
X0123651Y0099021D01*
X0120445Y0095815D01*
X0111138Y0089300D01*
X0110930Y0089300D01*
X0110445Y0088815D01*
X0109883Y0088422D01*
X0109847Y0088217D01*
X0098900Y0077270D01*
X0098900Y0077377D01*
X0099751Y0078228D01*
X0100281Y0079508D01*
X0100281Y0080892D01*
X0099751Y0082172D01*
X0098772Y0083151D01*
X0097492Y0083681D01*
X0096108Y0083681D01*
X0094828Y0083151D01*
X0094281Y0082604D01*
X0094281Y0083892D01*
X0093751Y0085172D01*
X0092772Y0086151D01*
X0091492Y0086681D01*
X0090108Y0086681D01*
X0088828Y0086151D01*
X0087849Y0085172D01*
X0087319Y0083892D01*
X0087319Y0082508D01*
X0087849Y0081228D01*
X0088700Y0080377D01*
X0087951Y0081126D02*
X0068900Y0081126D01*
X0068900Y0082724D02*
X0087319Y0082724D01*
X0087497Y0084323D02*
X0068900Y0084323D01*
X0068900Y0085921D02*
X0088598Y0085921D01*
X0093002Y0085921D02*
X0107551Y0085921D01*
X0105953Y0084323D02*
X0094103Y0084323D01*
X0094281Y0082724D02*
X0094401Y0082724D01*
X0099199Y0082724D02*
X0104354Y0082724D01*
X0102756Y0081126D02*
X0100185Y0081126D01*
X0100281Y0079527D02*
X0101157Y0079527D01*
X0099559Y0077929D02*
X0099452Y0077929D01*
X0107097Y0079527D02*
X0123764Y0079527D01*
X0123651Y0077929D02*
X0118494Y0077929D01*
X0123913Y0082724D02*
X0110294Y0082724D01*
X0111892Y0084323D02*
X0123651Y0084323D01*
X0123651Y0085921D02*
X0113635Y0085921D01*
X0115919Y0087520D02*
X0123651Y0087520D01*
X0123651Y0089118D02*
X0118202Y0089118D01*
X0120486Y0090717D02*
X0123757Y0090717D01*
X0122885Y0092315D02*
X0134400Y0092315D01*
X0134400Y0090717D02*
X0133843Y0090717D01*
X0136800Y0089200D02*
X0134398Y0086798D01*
X0128800Y0086798D01*
X0133949Y0084323D02*
X0134400Y0084323D01*
X0134400Y0082724D02*
X0133687Y0082724D01*
X0134400Y0081126D02*
X0108695Y0081126D01*
X0109150Y0087520D02*
X0068900Y0087520D01*
X0068900Y0089118D02*
X0110748Y0089118D01*
X0113162Y0090717D02*
X0068900Y0090717D01*
X0069885Y0092315D02*
X0115445Y0092315D01*
X0117729Y0093914D02*
X0071484Y0093914D01*
X0073082Y0095512D02*
X0120013Y0095512D01*
X0121741Y0097111D02*
X0074681Y0097111D01*
X0076279Y0098709D02*
X0123339Y0098709D01*
X0123651Y0100308D02*
X0121831Y0100308D01*
X0123032Y0101906D02*
X0123651Y0101906D01*
X0123651Y0103505D02*
X0123281Y0103505D01*
X0123651Y0105103D02*
X0122780Y0105103D01*
X0122947Y0106702D02*
X0134400Y0106702D01*
X0134400Y0108300D02*
X0133263Y0108300D01*
X0133949Y0109899D02*
X0134400Y0109899D01*
X0134398Y0112798D02*
X0128800Y0112798D01*
X0123651Y0113096D02*
X0119666Y0113096D01*
X0118664Y0111497D02*
X0118067Y0111497D01*
X0120936Y0111497D02*
X0123651Y0111497D01*
X0123651Y0109899D02*
X0122864Y0109899D01*
X0123281Y0108300D02*
X0124337Y0108300D01*
X0133949Y0105103D02*
X0134400Y0105103D01*
X0134400Y0103505D02*
X0133949Y0103505D01*
X0133949Y0101906D02*
X0134400Y0101906D01*
X0134400Y0100308D02*
X0133949Y0100308D01*
X0133949Y0098709D02*
X0134400Y0098709D01*
X0134400Y0097111D02*
X0133271Y0097111D01*
X0134400Y0095512D02*
X0126082Y0095512D01*
X0124483Y0093914D02*
X0134400Y0093914D01*
X0136800Y0089200D02*
X0136800Y0115200D01*
X0134398Y0112798D01*
X0136800Y0115200D02*
X0136800Y0136200D01*
X0136202Y0136798D01*
X0128800Y0136798D01*
X0123651Y0137073D02*
X0121900Y0137073D01*
X0121900Y0135475D02*
X0123651Y0135475D01*
X0123651Y0133876D02*
X0121900Y0133876D01*
X0121900Y0132278D02*
X0124359Y0132278D01*
X0121900Y0130679D02*
X0134400Y0130679D01*
X0134400Y0129081D02*
X0133949Y0129081D01*
X0133949Y0127482D02*
X0134400Y0127482D01*
X0134400Y0125884D02*
X0133949Y0125884D01*
X0133949Y0124285D02*
X0134400Y0124285D01*
X0134400Y0122687D02*
X0133949Y0122687D01*
X0134400Y0121088D02*
X0133248Y0121088D01*
X0134400Y0119490D02*
X0129945Y0119490D01*
X0127214Y0117891D02*
X0134400Y0117891D01*
X0134400Y0116293D02*
X0133949Y0116293D01*
X0139200Y0116293D02*
X0173981Y0116293D01*
X0173981Y0117891D02*
X0139200Y0117891D01*
X0139200Y0119490D02*
X0173981Y0119490D01*
X0173981Y0121088D02*
X0139200Y0121088D01*
X0139200Y0122687D02*
X0173981Y0122687D01*
X0173981Y0124285D02*
X0139200Y0124285D01*
X0139200Y0125884D02*
X0173981Y0125884D01*
X0173981Y0127482D02*
X0139200Y0127482D01*
X0139200Y0129081D02*
X0173981Y0129081D01*
X0173981Y0130679D02*
X0139200Y0130679D01*
X0139200Y0132278D02*
X0173981Y0132278D01*
X0173981Y0133876D02*
X0139200Y0133876D01*
X0139200Y0135475D02*
X0173981Y0135475D01*
X0173981Y0137073D02*
X0139200Y0137073D01*
X0139200Y0138672D02*
X0173981Y0138672D01*
X0170806Y0140270D02*
X0139200Y0140270D01*
X0136800Y0143200D02*
X0136800Y0136200D01*
X0134400Y0133876D02*
X0133949Y0133876D01*
X0134400Y0132278D02*
X0133241Y0132278D01*
X0123651Y0129081D02*
X0121900Y0129081D01*
X0121900Y0127482D02*
X0123651Y0127482D01*
X0123651Y0125884D02*
X0121900Y0125884D01*
X0121900Y0124285D02*
X0123651Y0124285D01*
X0122164Y0122687D02*
X0121900Y0122687D01*
X0117700Y0122687D02*
X0025549Y0122687D01*
X0025549Y0124285D02*
X0117700Y0124285D01*
X0117700Y0125884D02*
X0025549Y0125884D01*
X0025549Y0127482D02*
X0081280Y0127482D01*
X0081800Y0127400D02*
X0081800Y0127400D01*
X0082320Y0127482D02*
X0117700Y0127482D01*
X0117700Y0129081D02*
X0088251Y0129081D01*
X0090499Y0130227D02*
X0090499Y0130227D01*
X0090952Y0130679D02*
X0117700Y0130679D01*
X0117700Y0132278D02*
X0092551Y0132278D01*
X0093773Y0133501D02*
X0093773Y0133501D01*
X0093965Y0133876D02*
X0117700Y0133876D01*
X0117700Y0135475D02*
X0094779Y0135475D01*
X0095594Y0137073D02*
X0117700Y0137073D01*
X0117700Y0138672D02*
X0096041Y0138672D01*
X0095876Y0137627D02*
X0095876Y0137627D01*
X0096294Y0140270D02*
X0117700Y0140270D01*
X0117700Y0141869D02*
X0096548Y0141869D01*
X0096399Y0143468D02*
X0118098Y0143468D01*
X0119696Y0145066D02*
X0096146Y0145066D01*
X0095893Y0146665D02*
X0121295Y0146665D01*
X0122893Y0148263D02*
X0095117Y0148263D01*
X0094302Y0149862D02*
X0123651Y0149862D01*
X0123651Y0151460D02*
X0093213Y0151460D01*
X0093773Y0150899D02*
X0093773Y0150899D01*
X0091614Y0153059D02*
X0123651Y0153059D01*
X0124381Y0156256D02*
X0086413Y0156256D01*
X0086373Y0156276D02*
X0086373Y0156276D01*
X0089550Y0154657D02*
X0134400Y0154657D01*
X0134400Y0153059D02*
X0133949Y0153059D01*
X0133949Y0151460D02*
X0134400Y0151460D01*
X0134400Y0149862D02*
X0133949Y0149862D01*
X0133949Y0148263D02*
X0134400Y0148263D01*
X0134400Y0146665D02*
X0133949Y0146665D01*
X0134400Y0145066D02*
X0133226Y0145066D01*
X0134400Y0143468D02*
X0124037Y0143468D01*
X0122439Y0141869D02*
X0134400Y0141869D01*
X0134400Y0140270D02*
X0133949Y0140270D01*
X0123651Y0140270D02*
X0121900Y0140270D01*
X0121900Y0138672D02*
X0123651Y0138672D01*
X0090499Y0154173D02*
X0090499Y0154173D01*
X0081800Y0157000D02*
X0081800Y0157000D01*
X0073101Y0154173D02*
X0073101Y0154173D01*
X0025149Y0157854D02*
X0123651Y0157854D01*
X0123651Y0159453D02*
X0025149Y0159453D01*
X0025149Y0161051D02*
X0123651Y0161051D01*
X0123555Y0162650D02*
X0025149Y0162650D01*
X0025149Y0164248D02*
X0121956Y0164248D01*
X0127146Y0165847D02*
X0138020Y0165847D01*
X0137200Y0167445D02*
X0125547Y0167445D01*
X0123949Y0169044D02*
X0137200Y0169044D01*
X0137200Y0170642D02*
X0004100Y0170642D01*
X0004100Y0169044D02*
X0021250Y0169044D01*
X0019651Y0167445D02*
X0004100Y0167445D01*
X0004100Y0165847D02*
X0018053Y0165847D01*
X0014851Y0164248D02*
X0004100Y0164248D01*
X0004100Y0162650D02*
X0011856Y0162650D01*
X0010257Y0161051D02*
X0004100Y0161051D01*
X0004100Y0159453D02*
X0008721Y0159453D01*
X0008400Y0157854D02*
X0004100Y0157854D01*
X0004100Y0156256D02*
X0008400Y0156256D01*
X0008400Y0154657D02*
X0004100Y0154657D01*
X0004100Y0153059D02*
X0008400Y0153059D01*
X0008400Y0151460D02*
X0004100Y0151460D01*
X0004100Y0149862D02*
X0008400Y0149862D01*
X0008400Y0148263D02*
X0004100Y0148263D01*
X0004100Y0146665D02*
X0008400Y0146665D01*
X0008400Y0145066D02*
X0004100Y0145066D01*
X0004100Y0143468D02*
X0008400Y0143468D01*
X0008400Y0141869D02*
X0004100Y0141869D01*
X0004100Y0140270D02*
X0008400Y0140270D01*
X0008400Y0138672D02*
X0004100Y0138672D01*
X0004100Y0137073D02*
X0008400Y0137073D01*
X0008400Y0135475D02*
X0004100Y0135475D01*
X0004100Y0133876D02*
X0008400Y0133876D01*
X0008400Y0132278D02*
X0004100Y0132278D01*
X0004100Y0130679D02*
X0008400Y0130679D01*
X0008400Y0129081D02*
X0004100Y0129081D01*
X0004100Y0127482D02*
X0008400Y0127482D01*
X0008400Y0125884D02*
X0004100Y0125884D01*
X0004100Y0124285D02*
X0008400Y0124285D01*
X0008400Y0122687D02*
X0004100Y0122687D01*
X0004100Y0121088D02*
X0008400Y0121088D01*
X0008400Y0119490D02*
X0004100Y0119490D01*
X0013200Y0119490D02*
X0018319Y0119490D01*
X0018574Y0117891D02*
X0014503Y0117891D01*
X0013200Y0121088D02*
X0018814Y0121088D01*
X0015251Y0122687D02*
X0013200Y0122687D01*
X0013200Y0124285D02*
X0015251Y0124285D01*
X0015251Y0125884D02*
X0013200Y0125884D01*
X0013200Y0127482D02*
X0015251Y0127482D01*
X0015251Y0129081D02*
X0013200Y0129081D01*
X0013200Y0130679D02*
X0072648Y0130679D01*
X0073101Y0130227D02*
X0073101Y0130227D01*
X0075349Y0129081D02*
X0025549Y0129081D01*
X0024786Y0121088D02*
X0117700Y0121088D01*
X0117700Y0119490D02*
X0025281Y0119490D01*
X0025026Y0117891D02*
X0117700Y0117891D01*
X0116923Y0116293D02*
X0025649Y0116293D01*
X0025649Y0114694D02*
X0115324Y0114694D01*
X0111773Y0113096D02*
X0025649Y0113096D01*
X0025649Y0111497D02*
X0110569Y0111497D01*
X0110319Y0109899D02*
X0025649Y0109899D01*
X0025163Y0108300D02*
X0110819Y0108300D01*
X0121264Y0114694D02*
X0123651Y0114694D01*
X0123651Y0116293D02*
X0121900Y0116293D01*
X0139200Y0114694D02*
X0173981Y0114694D01*
X0173981Y0113096D02*
X0139200Y0113096D01*
X0139200Y0111497D02*
X0173981Y0111497D01*
X0173981Y0109899D02*
X0139200Y0109899D01*
X0139200Y0108300D02*
X0173981Y0108300D01*
X0173981Y0106702D02*
X0139200Y0106702D01*
X0139200Y0105103D02*
X0173981Y0105103D01*
X0173981Y0103505D02*
X0139200Y0103505D01*
X0139200Y0101906D02*
X0174124Y0101906D01*
X0136800Y0089200D02*
X0136800Y0062200D01*
X0134398Y0059798D01*
X0128800Y0059798D01*
X0133949Y0057148D02*
X0134400Y0057148D01*
X0134400Y0055549D02*
X0133513Y0055549D01*
X0134400Y0053951D02*
X0104246Y0053951D01*
X0106758Y0052352D02*
X0123651Y0052352D01*
X0123651Y0050754D02*
X0113917Y0050754D01*
X0106436Y0047557D02*
X0100560Y0047557D01*
X0099475Y0049155D02*
X0103959Y0049155D01*
X0101447Y0050754D02*
X0098391Y0050754D01*
X0098935Y0052352D02*
X0097306Y0052352D01*
X0096423Y0053951D02*
X0096221Y0053951D01*
X0092230Y0052352D02*
X0078900Y0052352D01*
X0078900Y0050754D02*
X0093315Y0050754D01*
X0094400Y0049155D02*
X0078900Y0049155D01*
X0078900Y0047557D02*
X0095484Y0047557D01*
X0096569Y0045958D02*
X0078900Y0045958D01*
X0079610Y0044360D02*
X0097654Y0044360D01*
X0098738Y0042761D02*
X0081209Y0042761D01*
X0084744Y0041163D02*
X0099823Y0041163D01*
X0100908Y0039564D02*
X0096359Y0039564D01*
X0097251Y0037966D02*
X0101993Y0037966D01*
X0103077Y0036367D02*
X0097223Y0036367D01*
X0096292Y0034769D02*
X0104162Y0034769D01*
X0105247Y0033170D02*
X0092740Y0033170D01*
X0091142Y0031572D02*
X0106331Y0031572D01*
X0107416Y0029973D02*
X0089543Y0029973D01*
X0087945Y0028375D02*
X0099052Y0028375D01*
X0098319Y0026776D02*
X0086346Y0026776D01*
X0084748Y0025178D02*
X0097808Y0025178D01*
X0100550Y0021981D02*
X0102658Y0021981D01*
X0104102Y0023579D02*
X0106451Y0023579D01*
X0106942Y0021981D02*
X0108049Y0021981D01*
X0108078Y0020382D02*
X0109648Y0020382D01*
X0108281Y0018784D02*
X0111247Y0018784D01*
X0112845Y0017185D02*
X0107708Y0017185D01*
X0114444Y0015587D02*
X0004100Y0015587D01*
X0004100Y0017185D02*
X0015855Y0017185D01*
X0015451Y0018784D02*
X0004100Y0018784D01*
X0004100Y0020382D02*
X0015451Y0020382D01*
X0015451Y0021981D02*
X0004100Y0021981D01*
X0004100Y0023579D02*
X0015451Y0023579D01*
X0015451Y0025178D02*
X0004100Y0025178D01*
X0020600Y0032598D02*
X0010800Y0042398D01*
X0010800Y0065200D01*
X0015302Y0060698D01*
X0020000Y0060698D01*
X0013859Y0058746D02*
X0013200Y0058746D01*
X0013200Y0057148D02*
X0014851Y0057148D01*
X0025149Y0058746D02*
X0053377Y0058746D01*
X0054975Y0060345D02*
X0025149Y0060345D01*
X0025149Y0061943D02*
X0056574Y0061943D01*
X0058172Y0063542D02*
X0025149Y0063542D01*
X0024520Y0065140D02*
X0059771Y0065140D01*
X0061369Y0066739D02*
X0013200Y0066739D01*
X0013200Y0068337D02*
X0061700Y0068337D01*
X0061700Y0069936D02*
X0013200Y0069936D01*
X0013200Y0071534D02*
X0015351Y0071534D01*
X0015351Y0071389D02*
X0016288Y0070452D01*
X0024712Y0070452D01*
X0025649Y0071389D01*
X0025649Y0074079D01*
X0028542Y0076973D01*
X0031729Y0076517D01*
X0031849Y0076228D01*
X0032828Y0075249D01*
X0034108Y0074719D01*
X0035492Y0074719D01*
X0036772Y0075249D01*
X0037751Y0076228D01*
X0038281Y0077508D01*
X0038281Y0078892D01*
X0037751Y0080172D01*
X0036772Y0081151D01*
X0035492Y0081681D01*
X0034108Y0081681D01*
X0032828Y0081151D01*
X0032349Y0080672D01*
X0028790Y0081180D01*
X0028670Y0081300D01*
X0027949Y0081300D01*
X0027236Y0081402D01*
X0027100Y0081300D01*
X0026930Y0081300D01*
X0026421Y0080790D01*
X0025844Y0080358D01*
X0025820Y0080190D01*
X0025147Y0079516D01*
X0024712Y0079951D01*
X0016288Y0079951D01*
X0015351Y0079014D01*
X0015351Y0071389D01*
X0015351Y0073133D02*
X0013200Y0073133D01*
X0013200Y0074732D02*
X0015351Y0074732D01*
X0015351Y0076330D02*
X0013200Y0076330D01*
X0013200Y0077929D02*
X0015351Y0077929D01*
X0015864Y0079527D02*
X0013200Y0079527D01*
X0013200Y0081126D02*
X0026756Y0081126D01*
X0025649Y0082724D02*
X0061700Y0082724D01*
X0061700Y0081126D02*
X0036797Y0081126D01*
X0038018Y0079527D02*
X0061700Y0079527D01*
X0061700Y0077929D02*
X0038281Y0077929D01*
X0037793Y0076330D02*
X0061700Y0076330D01*
X0061700Y0074732D02*
X0035523Y0074732D01*
X0034077Y0074732D02*
X0026301Y0074732D01*
X0025649Y0073133D02*
X0061700Y0073133D01*
X0061700Y0071534D02*
X0025649Y0071534D01*
X0027900Y0076330D02*
X0031807Y0076330D01*
X0032803Y0081126D02*
X0029170Y0081126D01*
X0025157Y0079527D02*
X0025136Y0079527D01*
X0025649Y0084323D02*
X0061700Y0084323D01*
X0061700Y0085921D02*
X0025649Y0085921D01*
X0025649Y0087520D02*
X0061700Y0087520D01*
X0061700Y0089118D02*
X0025649Y0089118D01*
X0025143Y0090717D02*
X0061700Y0090717D01*
X0061700Y0092315D02*
X0022838Y0092315D01*
X0024035Y0093914D02*
X0062544Y0093914D01*
X0064142Y0095512D02*
X0024281Y0095512D01*
X0025171Y0097111D02*
X0065741Y0097111D01*
X0067339Y0098709D02*
X0025649Y0098709D01*
X0025649Y0100308D02*
X0068938Y0100308D01*
X0070536Y0101906D02*
X0025649Y0101906D01*
X0025649Y0103505D02*
X0072135Y0103505D01*
X0073733Y0105103D02*
X0025649Y0105103D01*
X0013200Y0106702D02*
X0075332Y0106702D01*
X0077878Y0100308D02*
X0117769Y0100308D01*
X0133836Y0079527D02*
X0134400Y0079527D01*
X0134400Y0077929D02*
X0133949Y0077929D01*
X0133949Y0076330D02*
X0134400Y0076330D01*
X0134400Y0074732D02*
X0133949Y0074732D01*
X0133949Y0073133D02*
X0134400Y0073133D01*
X0134400Y0071534D02*
X0133694Y0071534D01*
X0134400Y0069936D02*
X0104044Y0069936D01*
X0104281Y0071534D02*
X0123906Y0071534D01*
X0123651Y0073133D02*
X0107492Y0073133D01*
X0104108Y0073133D02*
X0103767Y0073133D01*
X0102860Y0068337D02*
X0134400Y0068337D01*
X0134400Y0066739D02*
X0098900Y0066739D01*
X0098900Y0065140D02*
X0134400Y0065140D01*
X0134400Y0063542D02*
X0133949Y0063542D01*
X0136800Y0062200D02*
X0136800Y0061200D01*
X0136800Y0041798D01*
X0128800Y0033798D01*
X0133949Y0033170D02*
X0220700Y0033170D01*
X0221458Y0031572D02*
X0133949Y0031572D01*
X0133936Y0029973D02*
X0223057Y0029973D01*
X0224655Y0028375D02*
X0171548Y0028375D01*
X0172281Y0026776D02*
X0226254Y0026776D01*
X0227852Y0025178D02*
X0172144Y0025178D01*
X0171102Y0023579D02*
X0229451Y0023579D01*
X0231049Y0021981D02*
X0166942Y0021981D01*
X0166498Y0023579D02*
X0150344Y0023579D01*
X0152989Y0021981D02*
X0162658Y0021981D01*
X0168078Y0020382D02*
X0232648Y0020382D01*
X0233792Y0025178D02*
X0260651Y0025178D01*
X0261262Y0028375D02*
X0230595Y0028375D01*
X0228997Y0029973D02*
X0260651Y0029973D01*
X0260651Y0031572D02*
X0227398Y0031572D01*
X0225800Y0033170D02*
X0243018Y0033170D01*
X0241625Y0034769D02*
X0224900Y0034769D01*
X0224900Y0036367D02*
X0241319Y0036367D01*
X0241763Y0037966D02*
X0224900Y0037966D01*
X0224900Y0039564D02*
X0242700Y0039564D01*
X0248281Y0036367D02*
X0260651Y0036367D01*
X0260651Y0034769D02*
X0247975Y0034769D01*
X0246582Y0033170D02*
X0260651Y0033170D01*
X0270949Y0031572D02*
X0315384Y0031572D01*
X0315064Y0033170D02*
X0312582Y0033170D01*
X0313975Y0034769D02*
X0314745Y0034769D01*
X0314425Y0036367D02*
X0314281Y0036367D01*
X0314105Y0037966D02*
X0313837Y0037966D01*
X0313758Y0039564D02*
X0313490Y0039564D01*
X0307625Y0034769D02*
X0307292Y0034769D01*
X0309018Y0033170D02*
X0271239Y0033170D01*
X0273740Y0034769D02*
X0297308Y0034769D01*
X0296377Y0036367D02*
X0273900Y0036367D01*
X0273900Y0037966D02*
X0296349Y0037966D01*
X0297241Y0039564D02*
X0273900Y0039564D01*
X0273900Y0041163D02*
X0298332Y0041163D01*
X0298598Y0042761D02*
X0273900Y0042761D01*
X0273900Y0044360D02*
X0298864Y0044360D01*
X0300339Y0045958D02*
X0273900Y0045958D01*
X0273900Y0047557D02*
X0301641Y0047557D01*
X0302944Y0049155D02*
X0273900Y0049155D01*
X0273900Y0050754D02*
X0304246Y0050754D01*
X0305549Y0052352D02*
X0273900Y0052352D01*
X0274275Y0053951D02*
X0306851Y0053951D01*
X0308154Y0055549D02*
X0275531Y0055549D01*
X0276787Y0057148D02*
X0290882Y0057148D01*
X0289284Y0058746D02*
X0278043Y0058746D01*
X0279299Y0060345D02*
X0287685Y0060345D01*
X0286087Y0061943D02*
X0280555Y0061943D01*
X0281811Y0063542D02*
X0284488Y0063542D01*
X0269700Y0066739D02*
X0258900Y0066739D01*
X0258900Y0068337D02*
X0269700Y0068337D01*
X0269700Y0069936D02*
X0258900Y0069936D01*
X0258900Y0071534D02*
X0260906Y0071534D01*
X0260651Y0073133D02*
X0259703Y0073133D01*
X0248559Y0077929D02*
X0244498Y0077929D01*
X0246097Y0079527D02*
X0250157Y0079527D01*
X0251756Y0081126D02*
X0247695Y0081126D01*
X0250505Y0082724D02*
X0252700Y0082724D01*
X0246960Y0076330D02*
X0242900Y0076330D01*
X0241301Y0074732D02*
X0245362Y0074732D01*
X0243763Y0073133D02*
X0239703Y0073133D01*
X0238104Y0071534D02*
X0242700Y0071534D01*
X0242700Y0069936D02*
X0155849Y0069936D01*
X0156281Y0068337D02*
X0242700Y0068337D01*
X0242700Y0066739D02*
X0157231Y0066739D01*
X0158829Y0065140D02*
X0242700Y0065140D01*
X0242700Y0063542D02*
X0160428Y0063542D01*
X0134400Y0052352D02*
X0133949Y0052352D01*
X0133949Y0050754D02*
X0134400Y0050754D01*
X0134400Y0049155D02*
X0133949Y0049155D01*
X0133949Y0047557D02*
X0134400Y0047557D01*
X0134400Y0045958D02*
X0133949Y0045958D01*
X0133520Y0044360D02*
X0134400Y0044360D01*
X0134369Y0042761D02*
X0103814Y0042761D01*
X0104899Y0041163D02*
X0132770Y0041163D01*
X0131172Y0039564D02*
X0105983Y0039564D01*
X0107068Y0037966D02*
X0124006Y0037966D01*
X0123651Y0036367D02*
X0108153Y0036367D01*
X0109238Y0034769D02*
X0123651Y0034769D01*
X0123651Y0033170D02*
X0110322Y0033170D01*
X0111451Y0031572D02*
X0123651Y0031572D01*
X0123664Y0029973D02*
X0113470Y0029973D01*
X0115489Y0028375D02*
X0166052Y0028375D01*
X0145256Y0023579D02*
X0145149Y0023579D01*
X0144355Y0021981D02*
X0143550Y0021981D01*
X0144371Y0020382D02*
X0141952Y0020382D01*
X0140353Y0018784D02*
X0145293Y0018784D01*
X0138755Y0017185D02*
X0151845Y0017185D01*
X0139209Y0023579D02*
X0133949Y0023579D01*
X0133949Y0021981D02*
X0137611Y0021981D01*
X0136012Y0020382D02*
X0133949Y0020382D01*
X0137156Y0015587D02*
X0318319Y0015587D01*
X0319089Y0013988D02*
X0004100Y0013988D01*
X0004100Y0012390D02*
X0398435Y0012390D01*
X0398434Y0013988D02*
X0324511Y0013988D01*
X0325281Y0015587D02*
X0342123Y0015587D01*
X0343227Y0015024D02*
X0339101Y0017127D01*
X0339101Y0017127D01*
X0335827Y0020401D01*
X0335827Y0020401D01*
X0333724Y0024527D01*
X0333724Y0024527D01*
X0333000Y0029100D01*
X0333000Y0029100D01*
X0333724Y0033673D01*
X0333724Y0033673D01*
X0335827Y0037799D01*
X0335827Y0037799D01*
X0339101Y0041073D01*
X0339101Y0041073D01*
X0343227Y0043176D01*
X0343227Y0043176D01*
X0347800Y0043900D01*
X0347800Y0043900D01*
X0352373Y0043176D01*
X0352373Y0043176D01*
X0356499Y0041073D01*
X0356499Y0041073D01*
X0359773Y0037799D01*
X0359773Y0037799D01*
X0361876Y0033673D01*
X0361876Y0033673D01*
X0362600Y0029100D01*
X0361876Y0024527D01*
X0361876Y0024527D01*
X0359773Y0020401D01*
X0359773Y0020401D01*
X0356499Y0017127D01*
X0356499Y0017127D01*
X0352373Y0015024D01*
X0352373Y0015024D01*
X0347800Y0014300D01*
X0347800Y0014300D01*
X0343227Y0015024D01*
X0343227Y0015024D01*
X0339042Y0017185D02*
X0325160Y0017185D01*
X0324353Y0018784D02*
X0337444Y0018784D01*
X0335845Y0020382D02*
X0325952Y0020382D01*
X0326670Y0021100D02*
X0326670Y0021100D01*
X0327550Y0021981D02*
X0335022Y0021981D01*
X0334207Y0023579D02*
X0327900Y0023579D01*
X0327900Y0025178D02*
X0333621Y0025178D01*
X0333368Y0026776D02*
X0327900Y0026776D01*
X0327900Y0028375D02*
X0333115Y0028375D01*
X0333138Y0029973D02*
X0327900Y0029973D01*
X0327900Y0031572D02*
X0333391Y0031572D01*
X0333645Y0033170D02*
X0327900Y0033170D01*
X0327900Y0034769D02*
X0334282Y0034769D01*
X0335097Y0036367D02*
X0327900Y0036367D01*
X0327900Y0037966D02*
X0335993Y0037966D01*
X0337592Y0039564D02*
X0327900Y0039564D01*
X0329433Y0041163D02*
X0339276Y0041163D01*
X0342413Y0042761D02*
X0331031Y0042761D01*
X0332630Y0044360D02*
X0359570Y0044360D01*
X0357972Y0045958D02*
X0334228Y0045958D01*
X0335827Y0047557D02*
X0356373Y0047557D01*
X0354775Y0049155D02*
X0337425Y0049155D01*
X0339024Y0050754D02*
X0353300Y0050754D01*
X0353300Y0052352D02*
X0340622Y0052352D01*
X0342221Y0053951D02*
X0353300Y0053951D01*
X0353300Y0055549D02*
X0343819Y0055549D01*
X0345418Y0057148D02*
X0353300Y0057148D01*
X0353300Y0058746D02*
X0347016Y0058746D01*
X0348615Y0060345D02*
X0353300Y0060345D01*
X0353300Y0061943D02*
X0350213Y0061943D01*
X0351812Y0063542D02*
X0353300Y0063542D01*
X0353037Y0065140D02*
X0352500Y0065140D01*
X0378175Y0057148D02*
X0378651Y0057148D01*
X0378281Y0055549D02*
X0389400Y0055549D01*
X0389400Y0053951D02*
X0388412Y0053951D01*
X0388012Y0054351D02*
X0388949Y0053414D01*
X0388949Y0045789D01*
X0388012Y0044852D01*
X0386900Y0044852D01*
X0386900Y0044812D01*
X0387281Y0043892D01*
X0387281Y0042508D01*
X0386751Y0041228D01*
X0385772Y0040249D01*
X0384492Y0039719D01*
X0383108Y0039719D01*
X0381828Y0040249D01*
X0380849Y0041228D01*
X0380319Y0042508D01*
X0380319Y0043892D01*
X0380716Y0044852D01*
X0379588Y0044852D01*
X0378651Y0045789D01*
X0378651Y0053414D01*
X0379588Y0054351D01*
X0388012Y0054351D01*
X0388949Y0052352D02*
X0389400Y0052352D01*
X0389400Y0050754D02*
X0388949Y0050754D01*
X0388949Y0049155D02*
X0389400Y0049155D01*
X0389400Y0047557D02*
X0388949Y0047557D01*
X0388949Y0045958D02*
X0389400Y0045958D01*
X0389400Y0044360D02*
X0387087Y0044360D01*
X0387281Y0042761D02*
X0389400Y0042761D01*
X0389195Y0041163D02*
X0386686Y0041163D01*
X0387596Y0039564D02*
X0372152Y0039564D01*
X0373351Y0037966D02*
X0385997Y0037966D01*
X0390339Y0036367D02*
X0398424Y0036367D01*
X0398425Y0034769D02*
X0388949Y0034769D01*
X0388949Y0033170D02*
X0398426Y0033170D01*
X0398426Y0031572D02*
X0388949Y0031572D01*
X0388949Y0029973D02*
X0398427Y0029973D01*
X0398428Y0028375D02*
X0388338Y0028375D01*
X0388949Y0025178D02*
X0398429Y0025178D01*
X0398429Y0026776D02*
X0376194Y0026776D01*
X0374900Y0028375D02*
X0379262Y0028375D01*
X0378651Y0029973D02*
X0374900Y0029973D01*
X0374900Y0031572D02*
X0378651Y0031572D01*
X0378651Y0033170D02*
X0374900Y0033170D01*
X0374900Y0034769D02*
X0378651Y0034769D01*
X0378651Y0036367D02*
X0374603Y0036367D01*
X0370498Y0034769D02*
X0361318Y0034769D01*
X0361955Y0033170D02*
X0370700Y0033170D01*
X0370700Y0031572D02*
X0362209Y0031572D01*
X0362462Y0029973D02*
X0370700Y0029973D01*
X0370700Y0028375D02*
X0362485Y0028375D01*
X0362232Y0026776D02*
X0370700Y0026776D01*
X0371852Y0025178D02*
X0361979Y0025178D01*
X0361393Y0023579D02*
X0373451Y0023579D01*
X0375049Y0021981D02*
X0360578Y0021981D01*
X0359755Y0020382D02*
X0376648Y0020382D01*
X0378651Y0018784D02*
X0358156Y0018784D01*
X0356558Y0017185D02*
X0379255Y0017185D01*
X0388345Y0017185D02*
X0398433Y0017185D01*
X0398433Y0015587D02*
X0353477Y0015587D01*
X0377792Y0025178D02*
X0378651Y0025178D01*
X0388949Y0023579D02*
X0398430Y0023579D01*
X0398431Y0021981D02*
X0388949Y0021981D01*
X0388949Y0020382D02*
X0398431Y0020382D01*
X0398432Y0018784D02*
X0388949Y0018784D01*
X0369300Y0036367D02*
X0360503Y0036367D01*
X0359607Y0037966D02*
X0368064Y0037966D01*
X0364366Y0039564D02*
X0358008Y0039564D01*
X0356324Y0041163D02*
X0362767Y0041163D01*
X0361169Y0042761D02*
X0353187Y0042761D01*
X0365510Y0044360D02*
X0380512Y0044360D01*
X0380319Y0042761D02*
X0369209Y0042761D01*
X0370910Y0041163D02*
X0380914Y0041163D01*
X0378651Y0045958D02*
X0368481Y0045958D01*
X0369281Y0047557D02*
X0378651Y0047557D01*
X0378651Y0049155D02*
X0369172Y0049155D01*
X0372277Y0050754D02*
X0378651Y0050754D01*
X0378651Y0052352D02*
X0373217Y0052352D01*
X0377474Y0053951D02*
X0379188Y0053951D01*
X0388949Y0057148D02*
X0389400Y0057148D01*
X0389400Y0058746D02*
X0389316Y0058746D01*
X0393600Y0058746D02*
X0398415Y0058746D01*
X0398416Y0057148D02*
X0393600Y0057148D01*
X0393600Y0055549D02*
X0398416Y0055549D01*
X0398417Y0053951D02*
X0393600Y0053951D01*
X0393600Y0052352D02*
X0398418Y0052352D01*
X0398418Y0050754D02*
X0393600Y0050754D01*
X0393600Y0049155D02*
X0398419Y0049155D01*
X0398420Y0047557D02*
X0393600Y0047557D01*
X0393600Y0045958D02*
X0398420Y0045958D01*
X0398421Y0044360D02*
X0393600Y0044360D01*
X0393600Y0042761D02*
X0398422Y0042761D01*
X0398422Y0041163D02*
X0393600Y0041163D01*
X0393536Y0039564D02*
X0398423Y0039564D01*
X0398424Y0037966D02*
X0391937Y0037966D01*
X0393600Y0060345D02*
X0398414Y0060345D01*
X0398414Y0061943D02*
X0393600Y0061943D01*
X0393600Y0063542D02*
X0398413Y0063542D01*
X0396650Y0065140D02*
X0395750Y0065140D01*
X0395750Y0066739D02*
X0396650Y0066739D01*
X0396650Y0068337D02*
X0395750Y0068337D01*
X0395750Y0069936D02*
X0396650Y0069936D01*
X0396650Y0073133D02*
X0395750Y0073133D01*
X0395750Y0074732D02*
X0396650Y0074732D01*
X0396650Y0076330D02*
X0395750Y0076330D01*
X0395750Y0077929D02*
X0396650Y0077929D01*
X0398406Y0079527D02*
X0393600Y0079527D01*
X0393600Y0081126D02*
X0398406Y0081126D01*
X0398405Y0082724D02*
X0393600Y0082724D01*
X0393600Y0084323D02*
X0398404Y0084323D01*
X0398404Y0085921D02*
X0393600Y0085921D01*
X0393600Y0087520D02*
X0398403Y0087520D01*
X0398402Y0089118D02*
X0393600Y0089118D01*
X0393600Y0090717D02*
X0398402Y0090717D01*
X0398401Y0092315D02*
X0393600Y0092315D01*
X0393600Y0093914D02*
X0398400Y0093914D01*
X0398400Y0095512D02*
X0393600Y0095512D01*
X0393600Y0097111D02*
X0398399Y0097111D01*
X0398398Y0098709D02*
X0393600Y0098709D01*
X0393600Y0100308D02*
X0398397Y0100308D01*
X0398397Y0101906D02*
X0393600Y0101906D01*
X0393600Y0103505D02*
X0398396Y0103505D01*
X0398395Y0105103D02*
X0393600Y0105103D01*
X0393600Y0106702D02*
X0398395Y0106702D01*
X0398394Y0108300D02*
X0393600Y0108300D01*
X0393600Y0109899D02*
X0398393Y0109899D01*
X0398393Y0111497D02*
X0393600Y0111497D01*
X0393600Y0113096D02*
X0398392Y0113096D01*
X0398391Y0114694D02*
X0393600Y0114694D01*
X0393600Y0116293D02*
X0398391Y0116293D01*
X0398390Y0117891D02*
X0393600Y0117891D01*
X0393600Y0119490D02*
X0398389Y0119490D01*
X0398389Y0121088D02*
X0393600Y0121088D01*
X0393600Y0122687D02*
X0398388Y0122687D01*
X0398387Y0124285D02*
X0393600Y0124285D01*
X0393600Y0125884D02*
X0398387Y0125884D01*
X0398386Y0127482D02*
X0393600Y0127482D01*
X0393600Y0129081D02*
X0398385Y0129081D01*
X0398385Y0130679D02*
X0393600Y0130679D01*
X0393600Y0132278D02*
X0398384Y0132278D01*
X0398383Y0133876D02*
X0393600Y0133876D01*
X0393600Y0135475D02*
X0398383Y0135475D01*
X0398382Y0137073D02*
X0393600Y0137073D01*
X0393600Y0138672D02*
X0398381Y0138672D01*
X0398381Y0140270D02*
X0393600Y0140270D01*
X0393600Y0141869D02*
X0398380Y0141869D01*
X0398379Y0143468D02*
X0393600Y0143468D01*
X0393600Y0145066D02*
X0398379Y0145066D01*
X0398378Y0146665D02*
X0393600Y0146665D01*
X0393600Y0148263D02*
X0398377Y0148263D01*
X0398377Y0149862D02*
X0393600Y0149862D01*
X0393600Y0151460D02*
X0398376Y0151460D01*
X0398375Y0153059D02*
X0393600Y0153059D01*
X0393600Y0154657D02*
X0398375Y0154657D01*
X0398374Y0156256D02*
X0393600Y0156256D01*
X0393600Y0157854D02*
X0398373Y0157854D01*
X0398373Y0159453D02*
X0393417Y0159453D01*
X0391819Y0161051D02*
X0398372Y0161051D01*
X0398371Y0162650D02*
X0390320Y0162650D01*
X0388949Y0164248D02*
X0398371Y0164248D01*
X0398370Y0165847D02*
X0343123Y0165847D01*
X0341525Y0167445D02*
X0398369Y0167445D01*
X0398369Y0169044D02*
X0339926Y0169044D01*
X0338328Y0170642D02*
X0398368Y0170642D01*
X0398367Y0172241D02*
X0336729Y0172241D01*
X0335585Y0167445D02*
X0314968Y0167445D01*
X0310632Y0167445D02*
X0284779Y0167445D01*
X0285400Y0169044D02*
X0309511Y0169044D01*
X0309319Y0170642D02*
X0285400Y0170642D01*
X0285400Y0172241D02*
X0309918Y0172241D01*
X0306878Y0164248D02*
X0281582Y0164248D01*
X0283180Y0165847D02*
X0337183Y0165847D01*
X0338782Y0164248D02*
X0326722Y0164248D01*
X0328320Y0162650D02*
X0340380Y0162650D01*
X0341979Y0161051D02*
X0329919Y0161051D01*
X0331517Y0159453D02*
X0343578Y0159453D01*
X0345176Y0157854D02*
X0333116Y0157854D01*
X0334714Y0156256D02*
X0346775Y0156256D01*
X0348373Y0154657D02*
X0336313Y0154657D01*
X0337911Y0153059D02*
X0349972Y0153059D01*
X0351570Y0151460D02*
X0339510Y0151460D01*
X0341108Y0149862D02*
X0353169Y0149862D01*
X0354767Y0148263D02*
X0351058Y0148263D01*
X0353608Y0146665D02*
X0356366Y0146665D01*
X0360707Y0148263D02*
X0364893Y0148263D01*
X0363295Y0146665D02*
X0362305Y0146665D01*
X0367636Y0145066D02*
X0379374Y0145066D01*
X0378651Y0146665D02*
X0369234Y0146665D01*
X0366918Y0143468D02*
X0389400Y0143468D01*
X0389400Y0145066D02*
X0388226Y0145066D01*
X0388949Y0146665D02*
X0389400Y0146665D01*
X0389400Y0148263D02*
X0388949Y0148263D01*
X0388949Y0149862D02*
X0389400Y0149862D01*
X0389400Y0151460D02*
X0388949Y0151460D01*
X0388949Y0153059D02*
X0389400Y0153059D01*
X0389400Y0154657D02*
X0354313Y0154657D01*
X0355911Y0153059D02*
X0378651Y0153059D01*
X0379381Y0156256D02*
X0352714Y0156256D01*
X0351116Y0157854D02*
X0378651Y0157854D01*
X0378651Y0159453D02*
X0349517Y0159453D01*
X0347919Y0161051D02*
X0378651Y0161051D01*
X0378651Y0162650D02*
X0346320Y0162650D01*
X0344722Y0164248D02*
X0378651Y0164248D01*
X0388949Y0157854D02*
X0389076Y0157854D01*
X0389400Y0156256D02*
X0388219Y0156256D01*
X0368090Y0151460D02*
X0357510Y0151460D01*
X0359108Y0149862D02*
X0366492Y0149862D01*
X0366934Y0141869D02*
X0389400Y0141869D01*
X0379651Y0140270D02*
X0366951Y0140270D01*
X0366967Y0138672D02*
X0379651Y0138672D01*
X0379651Y0137073D02*
X0366984Y0137073D01*
X0367000Y0135475D02*
X0379651Y0135475D01*
X0379651Y0133876D02*
X0367017Y0133876D01*
X0367033Y0132278D02*
X0380359Y0132278D01*
X0379651Y0129081D02*
X0367066Y0129081D01*
X0367050Y0130679D02*
X0389400Y0130679D01*
X0389400Y0132278D02*
X0389241Y0132278D01*
X0370113Y0127482D02*
X0367083Y0127482D01*
X0367099Y0125884D02*
X0368514Y0125884D01*
X0332366Y0146665D02*
X0332008Y0146665D01*
X0330767Y0148263D02*
X0329964Y0148263D01*
X0329169Y0149862D02*
X0327920Y0149862D01*
X0327570Y0151460D02*
X0325876Y0151460D01*
X0325972Y0153059D02*
X0323911Y0153059D01*
X0324373Y0154657D02*
X0311180Y0154657D01*
X0306420Y0154657D02*
X0296180Y0154657D01*
X0297399Y0156256D02*
X0305423Y0156256D01*
X0305319Y0157854D02*
X0301875Y0157854D01*
X0298339Y0161051D02*
X0271919Y0161051D01*
X0270949Y0162650D02*
X0302815Y0162650D01*
X0291130Y0159453D02*
X0273517Y0159453D01*
X0273900Y0157854D02*
X0290319Y0157854D01*
X0290423Y0156256D02*
X0273900Y0156256D01*
X0273900Y0154657D02*
X0284050Y0154657D01*
X0285550Y0154657D02*
X0291420Y0154657D01*
X0281802Y0153059D02*
X0273900Y0153059D01*
X0273900Y0151460D02*
X0281319Y0151460D01*
X0281586Y0149862D02*
X0273900Y0149862D01*
X0273900Y0148263D02*
X0282814Y0148263D01*
X0286786Y0148263D02*
X0307472Y0148263D01*
X0307319Y0146665D02*
X0304532Y0146665D01*
X0303068Y0146665D02*
X0273900Y0146665D01*
X0273900Y0145066D02*
X0274743Y0145066D01*
X0278857Y0145066D02*
X0300805Y0145066D01*
X0300319Y0143468D02*
X0280043Y0143468D01*
X0280575Y0141869D02*
X0286546Y0141869D01*
X0285476Y0140270D02*
X0282699Y0140270D01*
X0284298Y0138672D02*
X0285319Y0138672D01*
X0291054Y0141869D02*
X0300583Y0141869D01*
X0269700Y0154657D02*
X0241400Y0154657D01*
X0241400Y0153059D02*
X0260651Y0153059D01*
X0260651Y0151460D02*
X0241400Y0151460D01*
X0241400Y0149862D02*
X0260651Y0149862D01*
X0260651Y0148263D02*
X0241400Y0148263D01*
X0231795Y0145066D02*
X0261374Y0145066D01*
X0260651Y0146665D02*
X0229532Y0146665D01*
X0228068Y0146665D02*
X0225353Y0146665D01*
X0232281Y0143468D02*
X0260098Y0143468D01*
X0258499Y0141869D02*
X0232017Y0141869D01*
X0230793Y0140270D02*
X0257700Y0140270D01*
X0257700Y0138672D02*
X0225553Y0138672D01*
X0225553Y0137073D02*
X0257700Y0137073D01*
X0257700Y0135475D02*
X0225553Y0135475D01*
X0225553Y0135980D02*
X0221280Y0135980D01*
X0221280Y0132101D01*
X0223990Y0132101D01*
X0224448Y0132223D01*
X0224858Y0132460D01*
X0225193Y0132796D01*
X0225430Y0133206D01*
X0225553Y0133664D01*
X0225553Y0135980D01*
X0225553Y0133876D02*
X0257700Y0133876D01*
X0257700Y0132278D02*
X0224542Y0132278D01*
X0221280Y0132278D02*
X0220320Y0132278D01*
X0220320Y0133876D02*
X0221280Y0133876D01*
X0221280Y0135475D02*
X0220320Y0135475D01*
X0216047Y0135475D02*
X0213699Y0135475D01*
X0213699Y0137073D02*
X0216047Y0137073D01*
X0216047Y0138672D02*
X0213699Y0138672D01*
X0216553Y0140270D02*
X0205793Y0140270D01*
X0213699Y0133876D02*
X0216047Y0133876D01*
X0217058Y0132278D02*
X0213699Y0132278D01*
X0212991Y0130679D02*
X0257700Y0130679D01*
X0257700Y0129081D02*
X0220842Y0129081D01*
X0222037Y0127482D02*
X0253159Y0127482D01*
X0252319Y0125884D02*
X0222281Y0125884D01*
X0221775Y0124285D02*
X0251916Y0124285D01*
X0226806Y0140270D02*
X0225047Y0140270D01*
X0206089Y0130679D02*
X0205511Y0130679D01*
X0213889Y0129081D02*
X0216758Y0129081D01*
X0241400Y0156256D02*
X0261381Y0156256D01*
X0260651Y0157854D02*
X0241400Y0157854D01*
X0241400Y0159453D02*
X0260651Y0159453D01*
X0260651Y0161051D02*
X0241400Y0161051D01*
X0241400Y0162650D02*
X0260380Y0162650D01*
X0258782Y0164248D02*
X0241400Y0164248D01*
X0241400Y0165847D02*
X0255230Y0165847D01*
X0254345Y0167445D02*
X0241400Y0167445D01*
X0241400Y0169044D02*
X0254382Y0169044D01*
X0255319Y0170642D02*
X0241400Y0170642D01*
X0241400Y0172241D02*
X0272200Y0172241D01*
X0272200Y0170642D02*
X0260281Y0170642D01*
X0261218Y0169044D02*
X0272200Y0169044D01*
X0272821Y0167445D02*
X0261525Y0167445D01*
X0263123Y0165847D02*
X0274420Y0165847D01*
X0276018Y0164248D02*
X0270949Y0164248D01*
X0272505Y0173839D02*
X0241400Y0173839D01*
X0285095Y0173839D02*
X0398366Y0173839D01*
X0261180Y0065140D02*
X0258900Y0065140D01*
X0258900Y0063542D02*
X0260651Y0063542D01*
X0260651Y0061943D02*
X0258900Y0061943D01*
X0258900Y0060345D02*
X0260651Y0060345D01*
X0260651Y0058746D02*
X0258900Y0058746D01*
X0258900Y0057148D02*
X0260651Y0057148D01*
X0258900Y0055549D02*
X0269700Y0055549D01*
X0261188Y0053951D02*
X0258972Y0053951D01*
X0260091Y0052352D02*
X0260651Y0052352D01*
X0260651Y0050754D02*
X0260281Y0050754D01*
X0260651Y0049155D02*
X0259678Y0049155D01*
X0260651Y0047557D02*
X0256006Y0047557D01*
X0256281Y0045958D02*
X0258635Y0045958D01*
X0257512Y0044360D02*
X0255806Y0044360D01*
X0257319Y0042761D02*
X0253595Y0042761D01*
X0252005Y0042761D02*
X0251921Y0042761D01*
X0252281Y0041163D02*
X0257914Y0041163D01*
X0251890Y0039564D02*
X0269700Y0039564D01*
X0269700Y0037966D02*
X0250088Y0037966D01*
X0263686Y0041163D02*
X0269700Y0041163D01*
X0269700Y0042761D02*
X0264281Y0042761D01*
X0264930Y0044360D02*
X0269700Y0044360D01*
X0270949Y0029973D02*
X0315704Y0029973D01*
X0316023Y0028375D02*
X0270338Y0028375D01*
X0270949Y0025178D02*
X0284437Y0025178D01*
X0284319Y0023579D02*
X0270949Y0023579D01*
X0270949Y0021981D02*
X0283658Y0021981D01*
X0282522Y0020382D02*
X0270949Y0020382D01*
X0270949Y0018784D02*
X0282319Y0018784D01*
X0282892Y0017185D02*
X0270345Y0017185D01*
X0261255Y0017185D02*
X0167708Y0017185D01*
X0168281Y0018784D02*
X0260651Y0018784D01*
X0285453Y0026776D02*
X0232194Y0026776D01*
X0290147Y0026776D02*
X0315685Y0026776D01*
X0302308Y0034769D02*
X0302292Y0034769D01*
X0142406Y0026776D02*
X0133587Y0026776D01*
X0133949Y0025178D02*
X0140808Y0025178D01*
X0124013Y0026776D02*
X0117508Y0026776D01*
X0119528Y0025178D02*
X0123651Y0025178D01*
X0116799Y0021981D02*
X0113989Y0021981D01*
X0114780Y0023579D02*
X0112391Y0023579D01*
X0112761Y0025178D02*
X0110792Y0025178D01*
X0110742Y0026776D02*
X0109194Y0026776D01*
X0108501Y0028375D02*
X0104548Y0028375D01*
X0101800Y0034200D02*
X0101800Y0035500D01*
X0092800Y0044500D01*
X0091500Y0044500D01*
X0088800Y0041800D01*
X0088800Y0037700D01*
X0083300Y0032200D01*
X0073800Y0032200D01*
X0054500Y0032200D01*
X0045500Y0023200D01*
X0039800Y0023200D01*
X0033900Y0026776D02*
X0064685Y0026776D01*
X0064319Y0025178D02*
X0032748Y0025178D01*
X0031149Y0023579D02*
X0064703Y0023579D01*
X0066476Y0021981D02*
X0029550Y0021981D01*
X0027952Y0020382D02*
X0069648Y0020382D01*
X0077319Y0018784D02*
X0025749Y0018784D01*
X0025345Y0017185D02*
X0077892Y0017185D01*
X0072319Y0025178D02*
X0071281Y0025178D01*
X0070915Y0026776D02*
X0072685Y0026776D01*
X0074368Y0028375D02*
X0069232Y0028375D01*
X0066368Y0028375D02*
X0033900Y0028375D01*
X0033900Y0029973D02*
X0083603Y0029973D01*
X0082005Y0028375D02*
X0077232Y0028375D01*
X0085202Y0031572D02*
X0033900Y0031572D01*
X0033900Y0033170D02*
X0086800Y0033170D01*
X0088399Y0034769D02*
X0083613Y0034769D01*
X0081987Y0034769D02*
X0033900Y0034769D01*
X0033900Y0036367D02*
X0079791Y0036367D01*
X0079319Y0037966D02*
X0034489Y0037966D01*
X0035281Y0039564D02*
X0078466Y0039564D01*
X0086003Y0039564D02*
X0091241Y0039564D01*
X0090349Y0037966D02*
X0086281Y0037966D01*
X0085809Y0036367D02*
X0089997Y0036367D01*
X0102729Y0044360D02*
X0124080Y0044360D01*
X0123651Y0045958D02*
X0101645Y0045958D01*
X0091145Y0053951D02*
X0078900Y0053951D01*
X0078900Y0055549D02*
X0090061Y0055549D01*
X0088882Y0057148D02*
X0078900Y0057148D01*
X0078900Y0058746D02*
X0088700Y0058746D01*
X0088700Y0060345D02*
X0078900Y0060345D01*
X0078900Y0061943D02*
X0088700Y0061943D01*
X0088700Y0063542D02*
X0078900Y0063542D01*
X0078900Y0065140D02*
X0088700Y0065140D01*
X0088700Y0066739D02*
X0078900Y0066739D01*
X0078900Y0068337D02*
X0088700Y0068337D01*
X0088700Y0069936D02*
X0079506Y0069936D01*
X0080900Y0071534D02*
X0088700Y0071534D01*
X0088700Y0073133D02*
X0080900Y0073133D01*
X0081960Y0074732D02*
X0088700Y0074732D01*
X0088700Y0076330D02*
X0082281Y0076330D01*
X0081852Y0077929D02*
X0088700Y0077929D01*
X0098900Y0063542D02*
X0116772Y0063542D01*
X0118828Y0063542D02*
X0123651Y0063542D01*
X0123651Y0057148D02*
X0119528Y0057148D01*
X0116072Y0057148D02*
X0099222Y0057148D01*
X0098900Y0058746D02*
X0114634Y0058746D01*
X0114319Y0060345D02*
X0098900Y0060345D01*
X0098900Y0061943D02*
X0114754Y0061943D01*
X0124087Y0055549D02*
X0101734Y0055549D01*
X0026808Y0025178D02*
X0025749Y0025178D01*
X0015480Y0065140D02*
X0014254Y0065140D01*
X0010800Y0065200D02*
X0010800Y0091200D01*
X0015602Y0086398D02*
X0020500Y0086398D01*
X0014342Y0084323D02*
X0013200Y0084323D01*
X0013200Y0082724D02*
X0015351Y0082724D01*
X0077227Y0128124D02*
X0077227Y0128124D01*
X0133219Y0156256D02*
X0134400Y0156256D01*
X0134400Y0157854D02*
X0133949Y0157854D01*
X0136744Y0162650D02*
X0143226Y0162650D01*
X0139618Y0164248D02*
X0133949Y0164248D01*
X0137307Y0172241D02*
X0004100Y0172241D01*
X0004100Y0173839D02*
X0138905Y0173839D01*
X0015481Y0156256D02*
X0013200Y0156256D01*
X0013848Y0157854D02*
X0014851Y0157854D01*
X0115588Y0020382D02*
X0123651Y0020382D01*
M02*
