G75*
%MOIN*%
%OFA0B0*%
%FSLAX25Y25*%
%IPPOS*%
%LPD*%
%AMOC8*
5,1,8,0,0,1.08239X$1,22.5*
%
%ADD10C,0.00000*%
%ADD11C,0.00400*%
%ADD12R,0.00787X0.00787*%
%ADD13R,0.00591X0.00984*%
%ADD14C,0.00600*%
%ADD15C,0.00200*%
%ADD16C,0.00500*%
D10*
X0001800Y0001200D02*
X0001800Y0188161D01*
X0400501Y0188161D01*
X0400661Y0187701D02*
X0400739Y0001000D01*
X0400501Y0001200D02*
X0001800Y0001200D01*
X0076288Y0142200D02*
X0076290Y0142348D01*
X0076296Y0142496D01*
X0076306Y0142644D01*
X0076320Y0142791D01*
X0076338Y0142938D01*
X0076359Y0143084D01*
X0076385Y0143230D01*
X0076415Y0143375D01*
X0076448Y0143519D01*
X0076486Y0143662D01*
X0076527Y0143804D01*
X0076572Y0143945D01*
X0076620Y0144085D01*
X0076673Y0144224D01*
X0076729Y0144361D01*
X0076789Y0144496D01*
X0076852Y0144630D01*
X0076919Y0144762D01*
X0076990Y0144892D01*
X0077064Y0145020D01*
X0077141Y0145146D01*
X0077222Y0145270D01*
X0077306Y0145392D01*
X0077393Y0145511D01*
X0077484Y0145628D01*
X0077578Y0145743D01*
X0077674Y0145855D01*
X0077774Y0145965D01*
X0077876Y0146071D01*
X0077982Y0146175D01*
X0078090Y0146276D01*
X0078201Y0146374D01*
X0078314Y0146470D01*
X0078430Y0146562D01*
X0078548Y0146651D01*
X0078669Y0146736D01*
X0078792Y0146819D01*
X0078917Y0146898D01*
X0079044Y0146974D01*
X0079173Y0147046D01*
X0079304Y0147115D01*
X0079437Y0147180D01*
X0079572Y0147241D01*
X0079708Y0147299D01*
X0079845Y0147354D01*
X0079984Y0147404D01*
X0080125Y0147451D01*
X0080266Y0147494D01*
X0080409Y0147534D01*
X0080553Y0147569D01*
X0080697Y0147601D01*
X0080843Y0147628D01*
X0080989Y0147652D01*
X0081136Y0147672D01*
X0081283Y0147688D01*
X0081430Y0147700D01*
X0081578Y0147708D01*
X0081726Y0147712D01*
X0081874Y0147712D01*
X0082022Y0147708D01*
X0082170Y0147700D01*
X0082317Y0147688D01*
X0082464Y0147672D01*
X0082611Y0147652D01*
X0082757Y0147628D01*
X0082903Y0147601D01*
X0083047Y0147569D01*
X0083191Y0147534D01*
X0083334Y0147494D01*
X0083475Y0147451D01*
X0083616Y0147404D01*
X0083755Y0147354D01*
X0083892Y0147299D01*
X0084028Y0147241D01*
X0084163Y0147180D01*
X0084296Y0147115D01*
X0084427Y0147046D01*
X0084556Y0146974D01*
X0084683Y0146898D01*
X0084808Y0146819D01*
X0084931Y0146736D01*
X0085052Y0146651D01*
X0085170Y0146562D01*
X0085286Y0146470D01*
X0085399Y0146374D01*
X0085510Y0146276D01*
X0085618Y0146175D01*
X0085724Y0146071D01*
X0085826Y0145965D01*
X0085926Y0145855D01*
X0086022Y0145743D01*
X0086116Y0145628D01*
X0086207Y0145511D01*
X0086294Y0145392D01*
X0086378Y0145270D01*
X0086459Y0145146D01*
X0086536Y0145020D01*
X0086610Y0144892D01*
X0086681Y0144762D01*
X0086748Y0144630D01*
X0086811Y0144496D01*
X0086871Y0144361D01*
X0086927Y0144224D01*
X0086980Y0144085D01*
X0087028Y0143945D01*
X0087073Y0143804D01*
X0087114Y0143662D01*
X0087152Y0143519D01*
X0087185Y0143375D01*
X0087215Y0143230D01*
X0087241Y0143084D01*
X0087262Y0142938D01*
X0087280Y0142791D01*
X0087294Y0142644D01*
X0087304Y0142496D01*
X0087310Y0142348D01*
X0087312Y0142200D01*
X0087310Y0142052D01*
X0087304Y0141904D01*
X0087294Y0141756D01*
X0087280Y0141609D01*
X0087262Y0141462D01*
X0087241Y0141316D01*
X0087215Y0141170D01*
X0087185Y0141025D01*
X0087152Y0140881D01*
X0087114Y0140738D01*
X0087073Y0140596D01*
X0087028Y0140455D01*
X0086980Y0140315D01*
X0086927Y0140176D01*
X0086871Y0140039D01*
X0086811Y0139904D01*
X0086748Y0139770D01*
X0086681Y0139638D01*
X0086610Y0139508D01*
X0086536Y0139380D01*
X0086459Y0139254D01*
X0086378Y0139130D01*
X0086294Y0139008D01*
X0086207Y0138889D01*
X0086116Y0138772D01*
X0086022Y0138657D01*
X0085926Y0138545D01*
X0085826Y0138435D01*
X0085724Y0138329D01*
X0085618Y0138225D01*
X0085510Y0138124D01*
X0085399Y0138026D01*
X0085286Y0137930D01*
X0085170Y0137838D01*
X0085052Y0137749D01*
X0084931Y0137664D01*
X0084808Y0137581D01*
X0084683Y0137502D01*
X0084556Y0137426D01*
X0084427Y0137354D01*
X0084296Y0137285D01*
X0084163Y0137220D01*
X0084028Y0137159D01*
X0083892Y0137101D01*
X0083755Y0137046D01*
X0083616Y0136996D01*
X0083475Y0136949D01*
X0083334Y0136906D01*
X0083191Y0136866D01*
X0083047Y0136831D01*
X0082903Y0136799D01*
X0082757Y0136772D01*
X0082611Y0136748D01*
X0082464Y0136728D01*
X0082317Y0136712D01*
X0082170Y0136700D01*
X0082022Y0136692D01*
X0081874Y0136688D01*
X0081726Y0136688D01*
X0081578Y0136692D01*
X0081430Y0136700D01*
X0081283Y0136712D01*
X0081136Y0136728D01*
X0080989Y0136748D01*
X0080843Y0136772D01*
X0080697Y0136799D01*
X0080553Y0136831D01*
X0080409Y0136866D01*
X0080266Y0136906D01*
X0080125Y0136949D01*
X0079984Y0136996D01*
X0079845Y0137046D01*
X0079708Y0137101D01*
X0079572Y0137159D01*
X0079437Y0137220D01*
X0079304Y0137285D01*
X0079173Y0137354D01*
X0079044Y0137426D01*
X0078917Y0137502D01*
X0078792Y0137581D01*
X0078669Y0137664D01*
X0078548Y0137749D01*
X0078430Y0137838D01*
X0078314Y0137930D01*
X0078201Y0138026D01*
X0078090Y0138124D01*
X0077982Y0138225D01*
X0077876Y0138329D01*
X0077774Y0138435D01*
X0077674Y0138545D01*
X0077578Y0138657D01*
X0077484Y0138772D01*
X0077393Y0138889D01*
X0077306Y0139008D01*
X0077222Y0139130D01*
X0077141Y0139254D01*
X0077064Y0139380D01*
X0076990Y0139508D01*
X0076919Y0139638D01*
X0076852Y0139770D01*
X0076789Y0139904D01*
X0076729Y0140039D01*
X0076673Y0140176D01*
X0076620Y0140315D01*
X0076572Y0140455D01*
X0076527Y0140596D01*
X0076486Y0140738D01*
X0076448Y0140881D01*
X0076415Y0141025D01*
X0076385Y0141170D01*
X0076359Y0141316D01*
X0076338Y0141462D01*
X0076320Y0141609D01*
X0076306Y0141756D01*
X0076296Y0141904D01*
X0076290Y0142052D01*
X0076288Y0142200D01*
X0342288Y0029100D02*
X0342290Y0029248D01*
X0342296Y0029396D01*
X0342306Y0029544D01*
X0342320Y0029691D01*
X0342338Y0029838D01*
X0342359Y0029984D01*
X0342385Y0030130D01*
X0342415Y0030275D01*
X0342448Y0030419D01*
X0342486Y0030562D01*
X0342527Y0030704D01*
X0342572Y0030845D01*
X0342620Y0030985D01*
X0342673Y0031124D01*
X0342729Y0031261D01*
X0342789Y0031396D01*
X0342852Y0031530D01*
X0342919Y0031662D01*
X0342990Y0031792D01*
X0343064Y0031920D01*
X0343141Y0032046D01*
X0343222Y0032170D01*
X0343306Y0032292D01*
X0343393Y0032411D01*
X0343484Y0032528D01*
X0343578Y0032643D01*
X0343674Y0032755D01*
X0343774Y0032865D01*
X0343876Y0032971D01*
X0343982Y0033075D01*
X0344090Y0033176D01*
X0344201Y0033274D01*
X0344314Y0033370D01*
X0344430Y0033462D01*
X0344548Y0033551D01*
X0344669Y0033636D01*
X0344792Y0033719D01*
X0344917Y0033798D01*
X0345044Y0033874D01*
X0345173Y0033946D01*
X0345304Y0034015D01*
X0345437Y0034080D01*
X0345572Y0034141D01*
X0345708Y0034199D01*
X0345845Y0034254D01*
X0345984Y0034304D01*
X0346125Y0034351D01*
X0346266Y0034394D01*
X0346409Y0034434D01*
X0346553Y0034469D01*
X0346697Y0034501D01*
X0346843Y0034528D01*
X0346989Y0034552D01*
X0347136Y0034572D01*
X0347283Y0034588D01*
X0347430Y0034600D01*
X0347578Y0034608D01*
X0347726Y0034612D01*
X0347874Y0034612D01*
X0348022Y0034608D01*
X0348170Y0034600D01*
X0348317Y0034588D01*
X0348464Y0034572D01*
X0348611Y0034552D01*
X0348757Y0034528D01*
X0348903Y0034501D01*
X0349047Y0034469D01*
X0349191Y0034434D01*
X0349334Y0034394D01*
X0349475Y0034351D01*
X0349616Y0034304D01*
X0349755Y0034254D01*
X0349892Y0034199D01*
X0350028Y0034141D01*
X0350163Y0034080D01*
X0350296Y0034015D01*
X0350427Y0033946D01*
X0350556Y0033874D01*
X0350683Y0033798D01*
X0350808Y0033719D01*
X0350931Y0033636D01*
X0351052Y0033551D01*
X0351170Y0033462D01*
X0351286Y0033370D01*
X0351399Y0033274D01*
X0351510Y0033176D01*
X0351618Y0033075D01*
X0351724Y0032971D01*
X0351826Y0032865D01*
X0351926Y0032755D01*
X0352022Y0032643D01*
X0352116Y0032528D01*
X0352207Y0032411D01*
X0352294Y0032292D01*
X0352378Y0032170D01*
X0352459Y0032046D01*
X0352536Y0031920D01*
X0352610Y0031792D01*
X0352681Y0031662D01*
X0352748Y0031530D01*
X0352811Y0031396D01*
X0352871Y0031261D01*
X0352927Y0031124D01*
X0352980Y0030985D01*
X0353028Y0030845D01*
X0353073Y0030704D01*
X0353114Y0030562D01*
X0353152Y0030419D01*
X0353185Y0030275D01*
X0353215Y0030130D01*
X0353241Y0029984D01*
X0353262Y0029838D01*
X0353280Y0029691D01*
X0353294Y0029544D01*
X0353304Y0029396D01*
X0353310Y0029248D01*
X0353312Y0029100D01*
X0353310Y0028952D01*
X0353304Y0028804D01*
X0353294Y0028656D01*
X0353280Y0028509D01*
X0353262Y0028362D01*
X0353241Y0028216D01*
X0353215Y0028070D01*
X0353185Y0027925D01*
X0353152Y0027781D01*
X0353114Y0027638D01*
X0353073Y0027496D01*
X0353028Y0027355D01*
X0352980Y0027215D01*
X0352927Y0027076D01*
X0352871Y0026939D01*
X0352811Y0026804D01*
X0352748Y0026670D01*
X0352681Y0026538D01*
X0352610Y0026408D01*
X0352536Y0026280D01*
X0352459Y0026154D01*
X0352378Y0026030D01*
X0352294Y0025908D01*
X0352207Y0025789D01*
X0352116Y0025672D01*
X0352022Y0025557D01*
X0351926Y0025445D01*
X0351826Y0025335D01*
X0351724Y0025229D01*
X0351618Y0025125D01*
X0351510Y0025024D01*
X0351399Y0024926D01*
X0351286Y0024830D01*
X0351170Y0024738D01*
X0351052Y0024649D01*
X0350931Y0024564D01*
X0350808Y0024481D01*
X0350683Y0024402D01*
X0350556Y0024326D01*
X0350427Y0024254D01*
X0350296Y0024185D01*
X0350163Y0024120D01*
X0350028Y0024059D01*
X0349892Y0024001D01*
X0349755Y0023946D01*
X0349616Y0023896D01*
X0349475Y0023849D01*
X0349334Y0023806D01*
X0349191Y0023766D01*
X0349047Y0023731D01*
X0348903Y0023699D01*
X0348757Y0023672D01*
X0348611Y0023648D01*
X0348464Y0023628D01*
X0348317Y0023612D01*
X0348170Y0023600D01*
X0348022Y0023592D01*
X0347874Y0023588D01*
X0347726Y0023588D01*
X0347578Y0023592D01*
X0347430Y0023600D01*
X0347283Y0023612D01*
X0347136Y0023628D01*
X0346989Y0023648D01*
X0346843Y0023672D01*
X0346697Y0023699D01*
X0346553Y0023731D01*
X0346409Y0023766D01*
X0346266Y0023806D01*
X0346125Y0023849D01*
X0345984Y0023896D01*
X0345845Y0023946D01*
X0345708Y0024001D01*
X0345572Y0024059D01*
X0345437Y0024120D01*
X0345304Y0024185D01*
X0345173Y0024254D01*
X0345044Y0024326D01*
X0344917Y0024402D01*
X0344792Y0024481D01*
X0344669Y0024564D01*
X0344548Y0024649D01*
X0344430Y0024738D01*
X0344314Y0024830D01*
X0344201Y0024926D01*
X0344090Y0025024D01*
X0343982Y0025125D01*
X0343876Y0025229D01*
X0343774Y0025335D01*
X0343674Y0025445D01*
X0343578Y0025557D01*
X0343484Y0025672D01*
X0343393Y0025789D01*
X0343306Y0025908D01*
X0343222Y0026030D01*
X0343141Y0026154D01*
X0343064Y0026280D01*
X0342990Y0026408D01*
X0342919Y0026538D01*
X0342852Y0026670D01*
X0342789Y0026804D01*
X0342729Y0026939D01*
X0342673Y0027076D01*
X0342620Y0027215D01*
X0342572Y0027355D01*
X0342527Y0027496D01*
X0342486Y0027638D01*
X0342448Y0027781D01*
X0342415Y0027925D01*
X0342385Y0028070D01*
X0342359Y0028216D01*
X0342338Y0028362D01*
X0342320Y0028509D01*
X0342306Y0028656D01*
X0342296Y0028804D01*
X0342290Y0028952D01*
X0342288Y0029100D01*
D11*
X0304408Y0160500D02*
X0304408Y0165104D01*
X0302106Y0165104D01*
X0301339Y0164337D01*
X0301339Y0162802D01*
X0302106Y0162035D01*
X0304408Y0162035D01*
X0302873Y0162035D02*
X0301339Y0160500D01*
X0299804Y0160500D02*
X0299804Y0161267D01*
X0296735Y0164337D01*
X0296735Y0165104D01*
X0299804Y0165104D01*
X0175600Y0173400D02*
X0172531Y0173400D01*
X0170996Y0173400D02*
X0167927Y0173400D01*
X0166392Y0173400D02*
X0164090Y0173400D01*
X0163323Y0174167D01*
X0163323Y0177237D01*
X0164090Y0178004D01*
X0166392Y0178004D01*
X0166392Y0173400D01*
X0169461Y0175702D02*
X0170996Y0175702D01*
X0170996Y0178004D02*
X0170996Y0173400D01*
X0175600Y0173400D02*
X0175600Y0178004D01*
X0170996Y0178004D02*
X0167927Y0178004D01*
X0161788Y0176469D02*
X0160254Y0178004D01*
X0160254Y0173400D01*
X0161788Y0173400D02*
X0158719Y0173400D01*
X0168635Y0170168D02*
X0168708Y0170245D01*
X0168783Y0170320D01*
X0168861Y0170391D01*
X0168942Y0170460D01*
X0169025Y0170526D01*
X0169110Y0170589D01*
X0169198Y0170648D01*
X0169287Y0170705D01*
X0169379Y0170758D01*
X0169473Y0170808D01*
X0169568Y0170854D01*
X0169665Y0170897D01*
X0169763Y0170936D01*
X0169863Y0170972D01*
X0169964Y0171004D01*
X0170066Y0171032D01*
X0170169Y0171057D01*
X0170273Y0171078D01*
X0170378Y0171095D01*
X0170483Y0171109D01*
X0170588Y0171118D01*
X0170694Y0171124D01*
X0170800Y0171126D01*
X0170906Y0171124D01*
X0171012Y0171118D01*
X0171117Y0171109D01*
X0171222Y0171095D01*
X0171327Y0171078D01*
X0171431Y0171057D01*
X0171534Y0171032D01*
X0171636Y0171004D01*
X0171737Y0170972D01*
X0171837Y0170936D01*
X0171935Y0170897D01*
X0172032Y0170854D01*
X0172127Y0170808D01*
X0172221Y0170758D01*
X0172313Y0170705D01*
X0172402Y0170648D01*
X0172490Y0170589D01*
X0172575Y0170526D01*
X0172658Y0170460D01*
X0172739Y0170391D01*
X0172817Y0170320D01*
X0172892Y0170245D01*
X0172965Y0170168D01*
X0172965Y0166232D02*
X0172892Y0166155D01*
X0172817Y0166080D01*
X0172739Y0166009D01*
X0172658Y0165940D01*
X0172575Y0165874D01*
X0172490Y0165811D01*
X0172402Y0165752D01*
X0172313Y0165695D01*
X0172221Y0165642D01*
X0172127Y0165592D01*
X0172032Y0165546D01*
X0171935Y0165503D01*
X0171837Y0165464D01*
X0171737Y0165428D01*
X0171636Y0165396D01*
X0171534Y0165368D01*
X0171431Y0165343D01*
X0171327Y0165322D01*
X0171222Y0165305D01*
X0171117Y0165291D01*
X0171012Y0165282D01*
X0170906Y0165276D01*
X0170800Y0165274D01*
X0170694Y0165276D01*
X0170588Y0165282D01*
X0170483Y0165291D01*
X0170378Y0165305D01*
X0170273Y0165322D01*
X0170169Y0165343D01*
X0170066Y0165368D01*
X0169964Y0165396D01*
X0169863Y0165428D01*
X0169763Y0165464D01*
X0169665Y0165503D01*
X0169568Y0165546D01*
X0169473Y0165592D01*
X0169379Y0165642D01*
X0169287Y0165695D01*
X0169198Y0165752D01*
X0169110Y0165811D01*
X0169025Y0165874D01*
X0168942Y0165940D01*
X0168861Y0166009D01*
X0168783Y0166080D01*
X0168708Y0166155D01*
X0168635Y0166232D01*
D12*
X0170800Y0168200D03*
D13*
X0168733Y0165936D03*
D14*
X0393800Y0059100D02*
X0408800Y0059100D01*
X0408860Y0059098D01*
X0408921Y0059093D01*
X0408980Y0059084D01*
X0409039Y0059071D01*
X0409098Y0059055D01*
X0409155Y0059035D01*
X0409210Y0059012D01*
X0409265Y0058985D01*
X0409317Y0058956D01*
X0409368Y0058923D01*
X0409417Y0058887D01*
X0409463Y0058849D01*
X0409507Y0058807D01*
X0409549Y0058763D01*
X0409587Y0058717D01*
X0409623Y0058668D01*
X0409656Y0058617D01*
X0409685Y0058565D01*
X0409712Y0058510D01*
X0409735Y0058455D01*
X0409755Y0058398D01*
X0409771Y0058339D01*
X0409784Y0058280D01*
X0409793Y0058221D01*
X0409798Y0058160D01*
X0409800Y0058100D01*
X0409800Y0048100D01*
X0409798Y0048040D01*
X0409793Y0047979D01*
X0409784Y0047920D01*
X0409771Y0047861D01*
X0409755Y0047802D01*
X0409735Y0047745D01*
X0409712Y0047690D01*
X0409685Y0047635D01*
X0409656Y0047583D01*
X0409623Y0047532D01*
X0409587Y0047483D01*
X0409549Y0047437D01*
X0409507Y0047393D01*
X0409463Y0047351D01*
X0409417Y0047313D01*
X0409368Y0047277D01*
X0409317Y0047244D01*
X0409265Y0047215D01*
X0409210Y0047188D01*
X0409155Y0047165D01*
X0409098Y0047145D01*
X0409039Y0047129D01*
X0408980Y0047116D01*
X0408921Y0047107D01*
X0408860Y0047102D01*
X0408800Y0047100D01*
X0393800Y0047100D01*
X0393740Y0047102D01*
X0393679Y0047107D01*
X0393620Y0047116D01*
X0393561Y0047129D01*
X0393502Y0047145D01*
X0393445Y0047165D01*
X0393390Y0047188D01*
X0393335Y0047215D01*
X0393283Y0047244D01*
X0393232Y0047277D01*
X0393183Y0047313D01*
X0393137Y0047351D01*
X0393093Y0047393D01*
X0393051Y0047437D01*
X0393013Y0047483D01*
X0392977Y0047532D01*
X0392944Y0047583D01*
X0392915Y0047635D01*
X0392888Y0047690D01*
X0392865Y0047745D01*
X0392845Y0047802D01*
X0392829Y0047861D01*
X0392816Y0047920D01*
X0392807Y0047979D01*
X0392802Y0048040D01*
X0392800Y0048100D01*
X0392800Y0058100D01*
X0392802Y0058160D01*
X0392807Y0058221D01*
X0392816Y0058280D01*
X0392829Y0058339D01*
X0392845Y0058398D01*
X0392865Y0058455D01*
X0392888Y0058510D01*
X0392915Y0058565D01*
X0392944Y0058617D01*
X0392977Y0058668D01*
X0393013Y0058717D01*
X0393051Y0058763D01*
X0393093Y0058807D01*
X0393137Y0058849D01*
X0393183Y0058887D01*
X0393232Y0058923D01*
X0393283Y0058956D01*
X0393335Y0058985D01*
X0393390Y0059012D01*
X0393445Y0059035D01*
X0393502Y0059055D01*
X0393561Y0059071D01*
X0393620Y0059084D01*
X0393679Y0059093D01*
X0393740Y0059098D01*
X0393800Y0059100D01*
X0313602Y0049794D02*
X0313602Y0032705D01*
X0294097Y0032705D02*
X0294097Y0049794D01*
X0295600Y0046000D02*
X0295602Y0046084D01*
X0295608Y0046169D01*
X0295618Y0046252D01*
X0295632Y0046336D01*
X0295649Y0046418D01*
X0295671Y0046500D01*
X0295696Y0046580D01*
X0295725Y0046659D01*
X0295758Y0046737D01*
X0295794Y0046813D01*
X0295834Y0046888D01*
X0295878Y0046960D01*
X0295924Y0047031D01*
X0295974Y0047099D01*
X0296027Y0047164D01*
X0296083Y0047227D01*
X0296142Y0047288D01*
X0296204Y0047345D01*
X0296268Y0047400D01*
X0296335Y0047451D01*
X0296404Y0047500D01*
X0296476Y0047545D01*
X0296549Y0047586D01*
X0296624Y0047624D01*
X0296701Y0047659D01*
X0296780Y0047690D01*
X0296860Y0047717D01*
X0296941Y0047740D01*
X0297023Y0047760D01*
X0297106Y0047776D01*
X0297189Y0047788D01*
X0297274Y0047796D01*
X0297358Y0047800D01*
X0297442Y0047800D01*
X0297526Y0047796D01*
X0297611Y0047788D01*
X0297694Y0047776D01*
X0297777Y0047760D01*
X0297859Y0047740D01*
X0297940Y0047717D01*
X0298020Y0047690D01*
X0298099Y0047659D01*
X0298176Y0047624D01*
X0298251Y0047586D01*
X0298324Y0047545D01*
X0298396Y0047500D01*
X0298465Y0047451D01*
X0298532Y0047400D01*
X0298596Y0047345D01*
X0298658Y0047288D01*
X0298717Y0047227D01*
X0298773Y0047164D01*
X0298826Y0047099D01*
X0298876Y0047031D01*
X0298922Y0046960D01*
X0298966Y0046888D01*
X0299006Y0046813D01*
X0299042Y0046737D01*
X0299075Y0046659D01*
X0299104Y0046580D01*
X0299129Y0046500D01*
X0299151Y0046418D01*
X0299168Y0046336D01*
X0299182Y0046252D01*
X0299192Y0046169D01*
X0299198Y0046084D01*
X0299200Y0046000D01*
X0299198Y0045916D01*
X0299192Y0045831D01*
X0299182Y0045748D01*
X0299168Y0045664D01*
X0299151Y0045582D01*
X0299129Y0045500D01*
X0299104Y0045420D01*
X0299075Y0045341D01*
X0299042Y0045263D01*
X0299006Y0045187D01*
X0298966Y0045112D01*
X0298922Y0045040D01*
X0298876Y0044969D01*
X0298826Y0044901D01*
X0298773Y0044836D01*
X0298717Y0044773D01*
X0298658Y0044712D01*
X0298596Y0044655D01*
X0298532Y0044600D01*
X0298465Y0044549D01*
X0298396Y0044500D01*
X0298324Y0044455D01*
X0298251Y0044414D01*
X0298176Y0044376D01*
X0298099Y0044341D01*
X0298020Y0044310D01*
X0297940Y0044283D01*
X0297859Y0044260D01*
X0297777Y0044240D01*
X0297694Y0044224D01*
X0297611Y0044212D01*
X0297526Y0044204D01*
X0297442Y0044200D01*
X0297358Y0044200D01*
X0297274Y0044204D01*
X0297189Y0044212D01*
X0297106Y0044224D01*
X0297023Y0044240D01*
X0296941Y0044260D01*
X0296860Y0044283D01*
X0296780Y0044310D01*
X0296701Y0044341D01*
X0296624Y0044376D01*
X0296549Y0044414D01*
X0296476Y0044455D01*
X0296404Y0044500D01*
X0296335Y0044549D01*
X0296268Y0044600D01*
X0296204Y0044655D01*
X0296142Y0044712D01*
X0296083Y0044773D01*
X0296027Y0044836D01*
X0295974Y0044901D01*
X0295924Y0044969D01*
X0295878Y0045040D01*
X0295834Y0045112D01*
X0295794Y0045187D01*
X0295758Y0045263D01*
X0295725Y0045341D01*
X0295696Y0045420D01*
X0295671Y0045500D01*
X0295649Y0045582D01*
X0295632Y0045664D01*
X0295618Y0045748D01*
X0295608Y0045831D01*
X0295602Y0045916D01*
X0295600Y0046000D01*
X0189394Y0052903D02*
X0172305Y0052903D01*
X0183800Y0049600D02*
X0183802Y0049684D01*
X0183808Y0049769D01*
X0183818Y0049852D01*
X0183832Y0049936D01*
X0183849Y0050018D01*
X0183871Y0050100D01*
X0183896Y0050180D01*
X0183925Y0050259D01*
X0183958Y0050337D01*
X0183994Y0050413D01*
X0184034Y0050488D01*
X0184078Y0050560D01*
X0184124Y0050631D01*
X0184174Y0050699D01*
X0184227Y0050764D01*
X0184283Y0050827D01*
X0184342Y0050888D01*
X0184404Y0050945D01*
X0184468Y0051000D01*
X0184535Y0051051D01*
X0184604Y0051100D01*
X0184676Y0051145D01*
X0184749Y0051186D01*
X0184824Y0051224D01*
X0184901Y0051259D01*
X0184980Y0051290D01*
X0185060Y0051317D01*
X0185141Y0051340D01*
X0185223Y0051360D01*
X0185306Y0051376D01*
X0185389Y0051388D01*
X0185474Y0051396D01*
X0185558Y0051400D01*
X0185642Y0051400D01*
X0185726Y0051396D01*
X0185811Y0051388D01*
X0185894Y0051376D01*
X0185977Y0051360D01*
X0186059Y0051340D01*
X0186140Y0051317D01*
X0186220Y0051290D01*
X0186299Y0051259D01*
X0186376Y0051224D01*
X0186451Y0051186D01*
X0186524Y0051145D01*
X0186596Y0051100D01*
X0186665Y0051051D01*
X0186732Y0051000D01*
X0186796Y0050945D01*
X0186858Y0050888D01*
X0186917Y0050827D01*
X0186973Y0050764D01*
X0187026Y0050699D01*
X0187076Y0050631D01*
X0187122Y0050560D01*
X0187166Y0050488D01*
X0187206Y0050413D01*
X0187242Y0050337D01*
X0187275Y0050259D01*
X0187304Y0050180D01*
X0187329Y0050100D01*
X0187351Y0050018D01*
X0187368Y0049936D01*
X0187382Y0049852D01*
X0187392Y0049769D01*
X0187398Y0049684D01*
X0187400Y0049600D01*
X0187398Y0049516D01*
X0187392Y0049431D01*
X0187382Y0049348D01*
X0187368Y0049264D01*
X0187351Y0049182D01*
X0187329Y0049100D01*
X0187304Y0049020D01*
X0187275Y0048941D01*
X0187242Y0048863D01*
X0187206Y0048787D01*
X0187166Y0048712D01*
X0187122Y0048640D01*
X0187076Y0048569D01*
X0187026Y0048501D01*
X0186973Y0048436D01*
X0186917Y0048373D01*
X0186858Y0048312D01*
X0186796Y0048255D01*
X0186732Y0048200D01*
X0186665Y0048149D01*
X0186596Y0048100D01*
X0186524Y0048055D01*
X0186451Y0048014D01*
X0186376Y0047976D01*
X0186299Y0047941D01*
X0186220Y0047910D01*
X0186140Y0047883D01*
X0186059Y0047860D01*
X0185977Y0047840D01*
X0185894Y0047824D01*
X0185811Y0047812D01*
X0185726Y0047804D01*
X0185642Y0047800D01*
X0185558Y0047800D01*
X0185474Y0047804D01*
X0185389Y0047812D01*
X0185306Y0047824D01*
X0185223Y0047840D01*
X0185141Y0047860D01*
X0185060Y0047883D01*
X0184980Y0047910D01*
X0184901Y0047941D01*
X0184824Y0047976D01*
X0184749Y0048014D01*
X0184676Y0048055D01*
X0184604Y0048100D01*
X0184535Y0048149D01*
X0184468Y0048200D01*
X0184404Y0048255D01*
X0184342Y0048312D01*
X0184283Y0048373D01*
X0184227Y0048436D01*
X0184174Y0048501D01*
X0184124Y0048569D01*
X0184078Y0048640D01*
X0184034Y0048712D01*
X0183994Y0048787D01*
X0183958Y0048863D01*
X0183925Y0048941D01*
X0183896Y0049020D01*
X0183871Y0049100D01*
X0183849Y0049182D01*
X0183832Y0049264D01*
X0183818Y0049348D01*
X0183808Y0049431D01*
X0183802Y0049516D01*
X0183800Y0049600D01*
X0189394Y0033398D02*
X0172305Y0033398D01*
X0099602Y0033705D02*
X0099602Y0050794D01*
X0081600Y0047000D02*
X0081602Y0047084D01*
X0081608Y0047169D01*
X0081618Y0047252D01*
X0081632Y0047336D01*
X0081649Y0047418D01*
X0081671Y0047500D01*
X0081696Y0047580D01*
X0081725Y0047659D01*
X0081758Y0047737D01*
X0081794Y0047813D01*
X0081834Y0047888D01*
X0081878Y0047960D01*
X0081924Y0048031D01*
X0081974Y0048099D01*
X0082027Y0048164D01*
X0082083Y0048227D01*
X0082142Y0048288D01*
X0082204Y0048345D01*
X0082268Y0048400D01*
X0082335Y0048451D01*
X0082404Y0048500D01*
X0082476Y0048545D01*
X0082549Y0048586D01*
X0082624Y0048624D01*
X0082701Y0048659D01*
X0082780Y0048690D01*
X0082860Y0048717D01*
X0082941Y0048740D01*
X0083023Y0048760D01*
X0083106Y0048776D01*
X0083189Y0048788D01*
X0083274Y0048796D01*
X0083358Y0048800D01*
X0083442Y0048800D01*
X0083526Y0048796D01*
X0083611Y0048788D01*
X0083694Y0048776D01*
X0083777Y0048760D01*
X0083859Y0048740D01*
X0083940Y0048717D01*
X0084020Y0048690D01*
X0084099Y0048659D01*
X0084176Y0048624D01*
X0084251Y0048586D01*
X0084324Y0048545D01*
X0084396Y0048500D01*
X0084465Y0048451D01*
X0084532Y0048400D01*
X0084596Y0048345D01*
X0084658Y0048288D01*
X0084717Y0048227D01*
X0084773Y0048164D01*
X0084826Y0048099D01*
X0084876Y0048031D01*
X0084922Y0047960D01*
X0084966Y0047888D01*
X0085006Y0047813D01*
X0085042Y0047737D01*
X0085075Y0047659D01*
X0085104Y0047580D01*
X0085129Y0047500D01*
X0085151Y0047418D01*
X0085168Y0047336D01*
X0085182Y0047252D01*
X0085192Y0047169D01*
X0085198Y0047084D01*
X0085200Y0047000D01*
X0085198Y0046916D01*
X0085192Y0046831D01*
X0085182Y0046748D01*
X0085168Y0046664D01*
X0085151Y0046582D01*
X0085129Y0046500D01*
X0085104Y0046420D01*
X0085075Y0046341D01*
X0085042Y0046263D01*
X0085006Y0046187D01*
X0084966Y0046112D01*
X0084922Y0046040D01*
X0084876Y0045969D01*
X0084826Y0045901D01*
X0084773Y0045836D01*
X0084717Y0045773D01*
X0084658Y0045712D01*
X0084596Y0045655D01*
X0084532Y0045600D01*
X0084465Y0045549D01*
X0084396Y0045500D01*
X0084324Y0045455D01*
X0084251Y0045414D01*
X0084176Y0045376D01*
X0084099Y0045341D01*
X0084020Y0045310D01*
X0083940Y0045283D01*
X0083859Y0045260D01*
X0083777Y0045240D01*
X0083694Y0045224D01*
X0083611Y0045212D01*
X0083526Y0045204D01*
X0083442Y0045200D01*
X0083358Y0045200D01*
X0083274Y0045204D01*
X0083189Y0045212D01*
X0083106Y0045224D01*
X0083023Y0045240D01*
X0082941Y0045260D01*
X0082860Y0045283D01*
X0082780Y0045310D01*
X0082701Y0045341D01*
X0082624Y0045376D01*
X0082549Y0045414D01*
X0082476Y0045455D01*
X0082404Y0045500D01*
X0082335Y0045549D01*
X0082268Y0045600D01*
X0082204Y0045655D01*
X0082142Y0045712D01*
X0082083Y0045773D01*
X0082027Y0045836D01*
X0081974Y0045901D01*
X0081924Y0045969D01*
X0081878Y0046040D01*
X0081834Y0046112D01*
X0081794Y0046187D01*
X0081758Y0046263D01*
X0081725Y0046341D01*
X0081696Y0046420D01*
X0081671Y0046500D01*
X0081649Y0046582D01*
X0081632Y0046664D01*
X0081618Y0046748D01*
X0081608Y0046831D01*
X0081602Y0046916D01*
X0081600Y0047000D01*
X0080097Y0050794D02*
X0080097Y0033705D01*
X0058602Y0033705D02*
X0058602Y0050794D01*
X0040600Y0047000D02*
X0040602Y0047084D01*
X0040608Y0047169D01*
X0040618Y0047252D01*
X0040632Y0047336D01*
X0040649Y0047418D01*
X0040671Y0047500D01*
X0040696Y0047580D01*
X0040725Y0047659D01*
X0040758Y0047737D01*
X0040794Y0047813D01*
X0040834Y0047888D01*
X0040878Y0047960D01*
X0040924Y0048031D01*
X0040974Y0048099D01*
X0041027Y0048164D01*
X0041083Y0048227D01*
X0041142Y0048288D01*
X0041204Y0048345D01*
X0041268Y0048400D01*
X0041335Y0048451D01*
X0041404Y0048500D01*
X0041476Y0048545D01*
X0041549Y0048586D01*
X0041624Y0048624D01*
X0041701Y0048659D01*
X0041780Y0048690D01*
X0041860Y0048717D01*
X0041941Y0048740D01*
X0042023Y0048760D01*
X0042106Y0048776D01*
X0042189Y0048788D01*
X0042274Y0048796D01*
X0042358Y0048800D01*
X0042442Y0048800D01*
X0042526Y0048796D01*
X0042611Y0048788D01*
X0042694Y0048776D01*
X0042777Y0048760D01*
X0042859Y0048740D01*
X0042940Y0048717D01*
X0043020Y0048690D01*
X0043099Y0048659D01*
X0043176Y0048624D01*
X0043251Y0048586D01*
X0043324Y0048545D01*
X0043396Y0048500D01*
X0043465Y0048451D01*
X0043532Y0048400D01*
X0043596Y0048345D01*
X0043658Y0048288D01*
X0043717Y0048227D01*
X0043773Y0048164D01*
X0043826Y0048099D01*
X0043876Y0048031D01*
X0043922Y0047960D01*
X0043966Y0047888D01*
X0044006Y0047813D01*
X0044042Y0047737D01*
X0044075Y0047659D01*
X0044104Y0047580D01*
X0044129Y0047500D01*
X0044151Y0047418D01*
X0044168Y0047336D01*
X0044182Y0047252D01*
X0044192Y0047169D01*
X0044198Y0047084D01*
X0044200Y0047000D01*
X0044198Y0046916D01*
X0044192Y0046831D01*
X0044182Y0046748D01*
X0044168Y0046664D01*
X0044151Y0046582D01*
X0044129Y0046500D01*
X0044104Y0046420D01*
X0044075Y0046341D01*
X0044042Y0046263D01*
X0044006Y0046187D01*
X0043966Y0046112D01*
X0043922Y0046040D01*
X0043876Y0045969D01*
X0043826Y0045901D01*
X0043773Y0045836D01*
X0043717Y0045773D01*
X0043658Y0045712D01*
X0043596Y0045655D01*
X0043532Y0045600D01*
X0043465Y0045549D01*
X0043396Y0045500D01*
X0043324Y0045455D01*
X0043251Y0045414D01*
X0043176Y0045376D01*
X0043099Y0045341D01*
X0043020Y0045310D01*
X0042940Y0045283D01*
X0042859Y0045260D01*
X0042777Y0045240D01*
X0042694Y0045224D01*
X0042611Y0045212D01*
X0042526Y0045204D01*
X0042442Y0045200D01*
X0042358Y0045200D01*
X0042274Y0045204D01*
X0042189Y0045212D01*
X0042106Y0045224D01*
X0042023Y0045240D01*
X0041941Y0045260D01*
X0041860Y0045283D01*
X0041780Y0045310D01*
X0041701Y0045341D01*
X0041624Y0045376D01*
X0041549Y0045414D01*
X0041476Y0045455D01*
X0041404Y0045500D01*
X0041335Y0045549D01*
X0041268Y0045600D01*
X0041204Y0045655D01*
X0041142Y0045712D01*
X0041083Y0045773D01*
X0041027Y0045836D01*
X0040974Y0045901D01*
X0040924Y0045969D01*
X0040878Y0046040D01*
X0040834Y0046112D01*
X0040794Y0046187D01*
X0040758Y0046263D01*
X0040725Y0046341D01*
X0040696Y0046420D01*
X0040671Y0046500D01*
X0040649Y0046582D01*
X0040632Y0046664D01*
X0040618Y0046748D01*
X0040608Y0046831D01*
X0040602Y0046916D01*
X0040600Y0047000D01*
X0039097Y0050794D02*
X0039097Y0033705D01*
D15*
X0036202Y0033938D02*
X0036202Y0034672D01*
X0035835Y0035039D01*
X0036202Y0035781D02*
X0035101Y0035781D01*
X0035468Y0036515D01*
X0035468Y0036882D01*
X0035101Y0037249D01*
X0034367Y0037249D01*
X0034000Y0036882D01*
X0034000Y0036148D01*
X0034367Y0035781D01*
X0034367Y0035039D02*
X0034000Y0034672D01*
X0034000Y0033938D01*
X0034367Y0033571D01*
X0035835Y0033571D01*
X0036202Y0033938D01*
X0036202Y0032829D02*
X0034000Y0032829D01*
X0035101Y0032829D02*
X0035101Y0031362D01*
X0035101Y0030620D02*
X0035101Y0029152D01*
X0036202Y0030253D01*
X0034000Y0030253D01*
X0034000Y0031362D02*
X0036202Y0031362D01*
X0036202Y0028410D02*
X0035835Y0028410D01*
X0034367Y0026942D01*
X0034000Y0026942D01*
X0034000Y0026200D02*
X0036202Y0026200D01*
X0035468Y0025466D01*
X0036202Y0024732D01*
X0034000Y0024732D01*
X0034000Y0023990D02*
X0036202Y0023990D01*
X0035468Y0023256D01*
X0036202Y0022522D01*
X0034000Y0022522D01*
X0036202Y0026942D02*
X0036202Y0028410D01*
X0036202Y0035781D02*
X0036202Y0037249D01*
X0035835Y0037991D02*
X0035468Y0037991D01*
X0035101Y0038358D01*
X0035101Y0039459D01*
X0035835Y0039459D02*
X0036202Y0039092D01*
X0036202Y0038358D01*
X0035835Y0037991D01*
X0034367Y0037991D02*
X0034000Y0038358D01*
X0034000Y0039092D01*
X0034367Y0039459D01*
X0035835Y0039459D01*
X0036202Y0040201D02*
X0035101Y0040201D01*
X0035468Y0040935D01*
X0035468Y0041302D01*
X0035101Y0041669D01*
X0034367Y0041669D01*
X0034000Y0041302D01*
X0034000Y0040568D01*
X0034367Y0040201D01*
X0036202Y0040201D02*
X0036202Y0041669D01*
X0036202Y0042411D02*
X0035468Y0043145D01*
X0036202Y0043879D01*
X0034000Y0043879D01*
X0034000Y0042411D02*
X0036202Y0042411D01*
X0036202Y0044621D02*
X0036202Y0046089D01*
X0036202Y0045355D02*
X0034000Y0045355D01*
X0034367Y0046831D02*
X0034000Y0047198D01*
X0034000Y0047932D01*
X0034367Y0048299D01*
X0034000Y0049041D02*
X0036202Y0050508D01*
X0035835Y0051250D02*
X0034367Y0051250D01*
X0034000Y0051617D01*
X0034000Y0052351D01*
X0034367Y0052718D01*
X0035835Y0052718D02*
X0036202Y0052351D01*
X0036202Y0051617D01*
X0035835Y0051250D01*
X0034000Y0050508D02*
X0036202Y0049041D01*
X0035835Y0048299D02*
X0036202Y0047932D01*
X0036202Y0047198D01*
X0035835Y0046831D01*
X0034367Y0046831D01*
X0036202Y0053460D02*
X0036202Y0054928D01*
X0036202Y0054194D02*
X0034000Y0054194D01*
X0035101Y0055670D02*
X0035101Y0057138D01*
X0036202Y0057880D02*
X0034000Y0059348D01*
X0036202Y0059348D01*
X0036202Y0060090D02*
X0036202Y0061191D01*
X0035835Y0061558D01*
X0034367Y0061558D01*
X0034000Y0061191D01*
X0034000Y0060090D01*
X0036202Y0060090D01*
X0036202Y0057880D02*
X0034000Y0057880D01*
X0075000Y0057880D02*
X0077202Y0057880D01*
X0075000Y0059348D01*
X0077202Y0059348D01*
X0077202Y0060090D02*
X0077202Y0061191D01*
X0076835Y0061558D01*
X0075367Y0061558D01*
X0075000Y0061191D01*
X0075000Y0060090D01*
X0077202Y0060090D01*
X0076101Y0057138D02*
X0076101Y0055670D01*
X0077202Y0054928D02*
X0077202Y0053460D01*
X0077202Y0054194D02*
X0075000Y0054194D01*
X0075367Y0052718D02*
X0075000Y0052351D01*
X0075000Y0051617D01*
X0075367Y0051250D01*
X0076835Y0051250D01*
X0077202Y0051617D01*
X0077202Y0052351D01*
X0076835Y0052718D01*
X0077202Y0050508D02*
X0075000Y0049041D01*
X0075367Y0048299D02*
X0075000Y0047932D01*
X0075000Y0047198D01*
X0075367Y0046831D01*
X0076835Y0046831D01*
X0077202Y0047198D01*
X0077202Y0047932D01*
X0076835Y0048299D01*
X0077202Y0049041D02*
X0075000Y0050508D01*
X0077202Y0046089D02*
X0077202Y0044621D01*
X0077202Y0045355D02*
X0075000Y0045355D01*
X0075000Y0043879D02*
X0077202Y0043879D01*
X0076468Y0043145D01*
X0077202Y0042411D01*
X0075000Y0042411D01*
X0075367Y0041669D02*
X0075000Y0041302D01*
X0075000Y0040568D01*
X0075367Y0040201D01*
X0076101Y0040201D02*
X0076468Y0040935D01*
X0076468Y0041302D01*
X0076101Y0041669D01*
X0075367Y0041669D01*
X0076101Y0040201D02*
X0077202Y0040201D01*
X0077202Y0041669D01*
X0076835Y0039459D02*
X0077202Y0039092D01*
X0077202Y0038358D01*
X0076835Y0037991D01*
X0076468Y0037991D01*
X0076101Y0038358D01*
X0076101Y0039459D01*
X0075367Y0039459D02*
X0076835Y0039459D01*
X0075367Y0039459D02*
X0075000Y0039092D01*
X0075000Y0038358D01*
X0075367Y0037991D01*
X0075367Y0037249D02*
X0075000Y0036882D01*
X0075000Y0036148D01*
X0075367Y0035781D01*
X0076101Y0035781D02*
X0076468Y0036515D01*
X0076468Y0036882D01*
X0076101Y0037249D01*
X0075367Y0037249D01*
X0076101Y0035781D02*
X0077202Y0035781D01*
X0077202Y0037249D01*
X0076835Y0035039D02*
X0077202Y0034672D01*
X0077202Y0033938D01*
X0076835Y0033571D01*
X0075367Y0033571D01*
X0075000Y0033938D01*
X0075000Y0034672D01*
X0075367Y0035039D01*
X0075000Y0032829D02*
X0077202Y0032829D01*
X0076101Y0032829D02*
X0076101Y0031362D01*
X0076101Y0030620D02*
X0076101Y0029152D01*
X0077202Y0030253D01*
X0075000Y0030253D01*
X0075000Y0031362D02*
X0077202Y0031362D01*
X0077202Y0028410D02*
X0076835Y0028410D01*
X0075367Y0026942D01*
X0075000Y0026942D01*
X0075000Y0026200D02*
X0077202Y0026200D01*
X0076468Y0025466D01*
X0077202Y0024732D01*
X0075000Y0024732D01*
X0075000Y0023990D02*
X0077202Y0023990D01*
X0076468Y0023256D01*
X0077202Y0022522D01*
X0075000Y0022522D01*
X0077202Y0026942D02*
X0077202Y0028410D01*
X0161664Y0056167D02*
X0161664Y0057635D01*
X0162031Y0058002D01*
X0163132Y0058002D01*
X0163132Y0055800D01*
X0162031Y0055800D01*
X0161664Y0056167D01*
X0163874Y0055800D02*
X0163874Y0058002D01*
X0165342Y0058002D02*
X0163874Y0055800D01*
X0165342Y0055800D02*
X0165342Y0058002D01*
X0166084Y0056901D02*
X0167552Y0056901D01*
X0168294Y0058002D02*
X0169762Y0058002D01*
X0169028Y0058002D02*
X0169028Y0055800D01*
X0170504Y0056167D02*
X0170871Y0055800D01*
X0171605Y0055800D01*
X0171972Y0056167D01*
X0171972Y0057635D01*
X0171605Y0058002D01*
X0170871Y0058002D01*
X0170504Y0057635D01*
X0172714Y0058002D02*
X0174181Y0055800D01*
X0174923Y0056167D02*
X0175290Y0055800D01*
X0176024Y0055800D01*
X0176391Y0056167D01*
X0176391Y0057635D01*
X0176024Y0058002D01*
X0175290Y0058002D01*
X0174923Y0057635D01*
X0174181Y0058002D02*
X0172714Y0055800D01*
X0177133Y0058002D02*
X0178601Y0058002D01*
X0177867Y0058002D02*
X0177867Y0055800D01*
X0179343Y0055800D02*
X0179343Y0058002D01*
X0180077Y0057268D01*
X0180811Y0058002D01*
X0180811Y0055800D01*
X0181553Y0056167D02*
X0181553Y0056901D01*
X0181920Y0057268D01*
X0182287Y0057268D01*
X0183021Y0056901D01*
X0183021Y0058002D01*
X0181553Y0058002D01*
X0181553Y0056167D02*
X0181920Y0055800D01*
X0182654Y0055800D01*
X0183021Y0056167D01*
X0183763Y0056167D02*
X0183763Y0057635D01*
X0184130Y0058002D01*
X0184864Y0058002D01*
X0185231Y0057635D01*
X0185231Y0057268D01*
X0184864Y0056901D01*
X0183763Y0056901D01*
X0183763Y0056167D02*
X0184130Y0055800D01*
X0184864Y0055800D01*
X0185231Y0056167D01*
X0185973Y0056167D02*
X0186340Y0055800D01*
X0187074Y0055800D01*
X0187441Y0056167D01*
X0187441Y0056901D02*
X0186707Y0057268D01*
X0186340Y0057268D01*
X0185973Y0056901D01*
X0185973Y0056167D01*
X0187441Y0056901D02*
X0187441Y0058002D01*
X0185973Y0058002D01*
X0188183Y0057635D02*
X0188550Y0058002D01*
X0189284Y0058002D01*
X0189651Y0057635D01*
X0189651Y0056167D01*
X0189284Y0055800D01*
X0188550Y0055800D01*
X0188183Y0056167D01*
X0190393Y0055800D02*
X0190393Y0058002D01*
X0190393Y0056901D02*
X0191860Y0056901D01*
X0192602Y0056901D02*
X0194070Y0056901D01*
X0192969Y0058002D01*
X0192969Y0055800D01*
X0191860Y0055800D02*
X0191860Y0058002D01*
X0194812Y0058002D02*
X0194812Y0057635D01*
X0196280Y0056167D01*
X0196280Y0055800D01*
X0197022Y0055800D02*
X0197022Y0058002D01*
X0197756Y0057268D01*
X0198490Y0058002D01*
X0198490Y0055800D01*
X0199232Y0055800D02*
X0199232Y0058002D01*
X0199966Y0057268D01*
X0200700Y0058002D01*
X0200700Y0055800D01*
X0196280Y0058002D02*
X0194812Y0058002D01*
X0289000Y0058348D02*
X0291202Y0058348D01*
X0291202Y0059090D02*
X0291202Y0060191D01*
X0290835Y0060558D01*
X0289367Y0060558D01*
X0289000Y0060191D01*
X0289000Y0059090D01*
X0291202Y0059090D01*
X0291202Y0056880D02*
X0289000Y0058348D01*
X0289000Y0056880D02*
X0291202Y0056880D01*
X0290101Y0056138D02*
X0290101Y0054670D01*
X0291202Y0053928D02*
X0291202Y0052460D01*
X0291202Y0053194D02*
X0289000Y0053194D01*
X0289367Y0051718D02*
X0289000Y0051351D01*
X0289000Y0050617D01*
X0289367Y0050250D01*
X0290835Y0050250D01*
X0291202Y0050617D01*
X0291202Y0051351D01*
X0290835Y0051718D01*
X0291202Y0049508D02*
X0289000Y0048041D01*
X0289367Y0047299D02*
X0289000Y0046932D01*
X0289000Y0046198D01*
X0289367Y0045831D01*
X0290835Y0045831D01*
X0291202Y0046198D01*
X0291202Y0046932D01*
X0290835Y0047299D01*
X0291202Y0048041D02*
X0289000Y0049508D01*
X0291202Y0045089D02*
X0291202Y0043621D01*
X0291202Y0044355D02*
X0289000Y0044355D01*
X0289000Y0042879D02*
X0291202Y0042879D01*
X0290468Y0042145D01*
X0291202Y0041411D01*
X0289000Y0041411D01*
X0289367Y0040669D02*
X0289000Y0040302D01*
X0289000Y0039568D01*
X0289367Y0039201D01*
X0290101Y0039201D02*
X0290468Y0039935D01*
X0290468Y0040302D01*
X0290101Y0040669D01*
X0289367Y0040669D01*
X0290101Y0039201D02*
X0291202Y0039201D01*
X0291202Y0040669D01*
X0290835Y0038459D02*
X0291202Y0038092D01*
X0291202Y0037358D01*
X0290835Y0036991D01*
X0290468Y0036991D01*
X0290101Y0037358D01*
X0290101Y0038459D01*
X0289367Y0038459D02*
X0290835Y0038459D01*
X0289367Y0038459D02*
X0289000Y0038092D01*
X0289000Y0037358D01*
X0289367Y0036991D01*
X0289367Y0036249D02*
X0289000Y0035882D01*
X0289000Y0035148D01*
X0289367Y0034781D01*
X0290101Y0034781D02*
X0290468Y0035515D01*
X0290468Y0035882D01*
X0290101Y0036249D01*
X0289367Y0036249D01*
X0290101Y0034781D02*
X0291202Y0034781D01*
X0291202Y0036249D01*
X0290835Y0034039D02*
X0291202Y0033672D01*
X0291202Y0032938D01*
X0290835Y0032571D01*
X0289367Y0032571D01*
X0289000Y0032938D01*
X0289000Y0033672D01*
X0289367Y0034039D01*
X0289000Y0031829D02*
X0291202Y0031829D01*
X0290101Y0031829D02*
X0290101Y0030362D01*
X0290101Y0029620D02*
X0290101Y0028152D01*
X0291202Y0029253D01*
X0289000Y0029253D01*
X0289000Y0030362D02*
X0291202Y0030362D01*
X0291202Y0027410D02*
X0290835Y0027410D01*
X0289367Y0025942D01*
X0289000Y0025942D01*
X0289000Y0025200D02*
X0291202Y0025200D01*
X0290468Y0024466D01*
X0291202Y0023732D01*
X0289000Y0023732D01*
X0289000Y0022990D02*
X0291202Y0022990D01*
X0290468Y0022256D01*
X0291202Y0021522D01*
X0289000Y0021522D01*
X0291202Y0025942D02*
X0291202Y0027410D01*
D16*
X0327831Y0052444D02*
X0331769Y0052444D01*
X0331769Y0058350D01*
X0327831Y0058350D01*
X0327831Y0052444D01*
X0327831Y0060444D02*
X0331769Y0060444D01*
X0331769Y0066350D01*
X0327831Y0066350D01*
X0327831Y0060444D01*
X0394151Y0045103D02*
X0394902Y0045854D01*
X0396403Y0045854D01*
X0397154Y0045103D01*
X0398755Y0045854D02*
X0400257Y0045854D01*
X0399506Y0045854D02*
X0399506Y0042101D01*
X0400257Y0041350D01*
X0401007Y0041350D01*
X0401758Y0042101D01*
X0403359Y0042101D02*
X0404110Y0041350D01*
X0405611Y0041350D01*
X0406362Y0042101D01*
X0405611Y0043602D02*
X0404110Y0043602D01*
X0403359Y0042851D01*
X0403359Y0042101D01*
X0405611Y0043602D02*
X0406362Y0044353D01*
X0406362Y0045103D01*
X0405611Y0045854D01*
X0404110Y0045854D01*
X0403359Y0045103D01*
X0397154Y0041350D02*
X0394151Y0044353D01*
X0394151Y0045103D01*
X0394151Y0041350D02*
X0397154Y0041350D01*
X0235800Y0088200D02*
X0235800Y0159066D01*
X0199580Y0159066D01*
X0199580Y0151192D01*
X0188556Y0151192D01*
X0188556Y0088200D01*
X0235800Y0088200D01*
X0212769Y0054350D02*
X0208831Y0054350D01*
X0208831Y0048444D01*
X0212769Y0048444D01*
X0212769Y0054350D01*
X0212769Y0044350D02*
X0208831Y0044350D01*
X0208831Y0038444D01*
X0212769Y0038444D01*
X0212769Y0044350D01*
X0097769Y0060444D02*
X0097769Y0066350D01*
X0093831Y0066350D01*
X0093831Y0060444D01*
X0097769Y0060444D01*
X0092769Y0073444D02*
X0088831Y0073444D01*
X0088831Y0079350D01*
X0092769Y0079350D01*
X0092769Y0073444D01*
X0053556Y0069169D02*
X0053556Y0065231D01*
X0047650Y0065231D01*
X0047650Y0069169D01*
X0053556Y0069169D01*
X0044556Y0069169D02*
X0044556Y0065231D01*
X0038650Y0065231D01*
X0038650Y0069169D01*
X0044556Y0069169D01*
X0188556Y0151192D02*
X0188556Y0159066D01*
X0199580Y0159066D01*
X0188556Y0159066D02*
X0188556Y0174814D01*
X0226351Y0174814D01*
X0229501Y0174814D01*
X0235800Y0174814D01*
X0235800Y0159066D01*
X0229501Y0174814D02*
X0229499Y0174735D01*
X0229493Y0174657D01*
X0229483Y0174579D01*
X0229470Y0174502D01*
X0229452Y0174425D01*
X0229431Y0174350D01*
X0229406Y0174275D01*
X0229377Y0174202D01*
X0229345Y0174131D01*
X0229309Y0174061D01*
X0229270Y0173993D01*
X0229227Y0173927D01*
X0229181Y0173863D01*
X0229133Y0173802D01*
X0229081Y0173743D01*
X0229026Y0173687D01*
X0228968Y0173633D01*
X0228908Y0173583D01*
X0228845Y0173535D01*
X0228781Y0173491D01*
X0228714Y0173450D01*
X0228645Y0173412D01*
X0228574Y0173378D01*
X0228501Y0173348D01*
X0228428Y0173321D01*
X0228353Y0173298D01*
X0228276Y0173278D01*
X0228199Y0173263D01*
X0228122Y0173251D01*
X0228044Y0173243D01*
X0227965Y0173239D01*
X0227887Y0173239D01*
X0227808Y0173243D01*
X0227730Y0173251D01*
X0227653Y0173263D01*
X0227576Y0173278D01*
X0227499Y0173298D01*
X0227424Y0173321D01*
X0227351Y0173348D01*
X0227278Y0173378D01*
X0227207Y0173412D01*
X0227139Y0173450D01*
X0227071Y0173491D01*
X0227007Y0173535D01*
X0226944Y0173583D01*
X0226884Y0173633D01*
X0226826Y0173687D01*
X0226771Y0173743D01*
X0226719Y0173802D01*
X0226671Y0173863D01*
X0226625Y0173927D01*
X0226582Y0173993D01*
X0226543Y0174061D01*
X0226507Y0174131D01*
X0226475Y0174202D01*
X0226446Y0174275D01*
X0226421Y0174350D01*
X0226400Y0174425D01*
X0226382Y0174502D01*
X0226369Y0174579D01*
X0226359Y0174657D01*
X0226353Y0174735D01*
X0226351Y0174814D01*
M02*
