G75*
%MOIN*%
%OFA0B0*%
%FSLAX25Y25*%
%IPPOS*%
%LPD*%
%AMOC8*
5,1,8,0,0,1.08239X$1,22.5*
%
%ADD10C,0.00000*%
%ADD11C,0.01600*%
%ADD12C,0.00400*%
%ADD13R,0.00787X0.00787*%
%ADD14R,0.00984X0.00591*%
%ADD15C,0.00600*%
%ADD16C,0.00500*%
%ADD17C,0.00800*%
D10*
X0001800Y0001100D02*
X0001800Y0188061D01*
X0407901Y0188061D01*
X0407961Y0188101D02*
X0408039Y0001000D01*
X0408001Y0001000D02*
X0001800Y0001100D01*
X0076288Y0142100D02*
X0076290Y0142248D01*
X0076296Y0142396D01*
X0076306Y0142544D01*
X0076320Y0142691D01*
X0076338Y0142838D01*
X0076359Y0142984D01*
X0076385Y0143130D01*
X0076415Y0143275D01*
X0076448Y0143419D01*
X0076486Y0143562D01*
X0076527Y0143704D01*
X0076572Y0143845D01*
X0076620Y0143985D01*
X0076673Y0144124D01*
X0076729Y0144261D01*
X0076789Y0144396D01*
X0076852Y0144530D01*
X0076919Y0144662D01*
X0076990Y0144792D01*
X0077064Y0144920D01*
X0077141Y0145046D01*
X0077222Y0145170D01*
X0077306Y0145292D01*
X0077393Y0145411D01*
X0077484Y0145528D01*
X0077578Y0145643D01*
X0077674Y0145755D01*
X0077774Y0145865D01*
X0077876Y0145971D01*
X0077982Y0146075D01*
X0078090Y0146176D01*
X0078201Y0146274D01*
X0078314Y0146370D01*
X0078430Y0146462D01*
X0078548Y0146551D01*
X0078669Y0146636D01*
X0078792Y0146719D01*
X0078917Y0146798D01*
X0079044Y0146874D01*
X0079173Y0146946D01*
X0079304Y0147015D01*
X0079437Y0147080D01*
X0079572Y0147141D01*
X0079708Y0147199D01*
X0079845Y0147254D01*
X0079984Y0147304D01*
X0080125Y0147351D01*
X0080266Y0147394D01*
X0080409Y0147434D01*
X0080553Y0147469D01*
X0080697Y0147501D01*
X0080843Y0147528D01*
X0080989Y0147552D01*
X0081136Y0147572D01*
X0081283Y0147588D01*
X0081430Y0147600D01*
X0081578Y0147608D01*
X0081726Y0147612D01*
X0081874Y0147612D01*
X0082022Y0147608D01*
X0082170Y0147600D01*
X0082317Y0147588D01*
X0082464Y0147572D01*
X0082611Y0147552D01*
X0082757Y0147528D01*
X0082903Y0147501D01*
X0083047Y0147469D01*
X0083191Y0147434D01*
X0083334Y0147394D01*
X0083475Y0147351D01*
X0083616Y0147304D01*
X0083755Y0147254D01*
X0083892Y0147199D01*
X0084028Y0147141D01*
X0084163Y0147080D01*
X0084296Y0147015D01*
X0084427Y0146946D01*
X0084556Y0146874D01*
X0084683Y0146798D01*
X0084808Y0146719D01*
X0084931Y0146636D01*
X0085052Y0146551D01*
X0085170Y0146462D01*
X0085286Y0146370D01*
X0085399Y0146274D01*
X0085510Y0146176D01*
X0085618Y0146075D01*
X0085724Y0145971D01*
X0085826Y0145865D01*
X0085926Y0145755D01*
X0086022Y0145643D01*
X0086116Y0145528D01*
X0086207Y0145411D01*
X0086294Y0145292D01*
X0086378Y0145170D01*
X0086459Y0145046D01*
X0086536Y0144920D01*
X0086610Y0144792D01*
X0086681Y0144662D01*
X0086748Y0144530D01*
X0086811Y0144396D01*
X0086871Y0144261D01*
X0086927Y0144124D01*
X0086980Y0143985D01*
X0087028Y0143845D01*
X0087073Y0143704D01*
X0087114Y0143562D01*
X0087152Y0143419D01*
X0087185Y0143275D01*
X0087215Y0143130D01*
X0087241Y0142984D01*
X0087262Y0142838D01*
X0087280Y0142691D01*
X0087294Y0142544D01*
X0087304Y0142396D01*
X0087310Y0142248D01*
X0087312Y0142100D01*
X0087310Y0141952D01*
X0087304Y0141804D01*
X0087294Y0141656D01*
X0087280Y0141509D01*
X0087262Y0141362D01*
X0087241Y0141216D01*
X0087215Y0141070D01*
X0087185Y0140925D01*
X0087152Y0140781D01*
X0087114Y0140638D01*
X0087073Y0140496D01*
X0087028Y0140355D01*
X0086980Y0140215D01*
X0086927Y0140076D01*
X0086871Y0139939D01*
X0086811Y0139804D01*
X0086748Y0139670D01*
X0086681Y0139538D01*
X0086610Y0139408D01*
X0086536Y0139280D01*
X0086459Y0139154D01*
X0086378Y0139030D01*
X0086294Y0138908D01*
X0086207Y0138789D01*
X0086116Y0138672D01*
X0086022Y0138557D01*
X0085926Y0138445D01*
X0085826Y0138335D01*
X0085724Y0138229D01*
X0085618Y0138125D01*
X0085510Y0138024D01*
X0085399Y0137926D01*
X0085286Y0137830D01*
X0085170Y0137738D01*
X0085052Y0137649D01*
X0084931Y0137564D01*
X0084808Y0137481D01*
X0084683Y0137402D01*
X0084556Y0137326D01*
X0084427Y0137254D01*
X0084296Y0137185D01*
X0084163Y0137120D01*
X0084028Y0137059D01*
X0083892Y0137001D01*
X0083755Y0136946D01*
X0083616Y0136896D01*
X0083475Y0136849D01*
X0083334Y0136806D01*
X0083191Y0136766D01*
X0083047Y0136731D01*
X0082903Y0136699D01*
X0082757Y0136672D01*
X0082611Y0136648D01*
X0082464Y0136628D01*
X0082317Y0136612D01*
X0082170Y0136600D01*
X0082022Y0136592D01*
X0081874Y0136588D01*
X0081726Y0136588D01*
X0081578Y0136592D01*
X0081430Y0136600D01*
X0081283Y0136612D01*
X0081136Y0136628D01*
X0080989Y0136648D01*
X0080843Y0136672D01*
X0080697Y0136699D01*
X0080553Y0136731D01*
X0080409Y0136766D01*
X0080266Y0136806D01*
X0080125Y0136849D01*
X0079984Y0136896D01*
X0079845Y0136946D01*
X0079708Y0137001D01*
X0079572Y0137059D01*
X0079437Y0137120D01*
X0079304Y0137185D01*
X0079173Y0137254D01*
X0079044Y0137326D01*
X0078917Y0137402D01*
X0078792Y0137481D01*
X0078669Y0137564D01*
X0078548Y0137649D01*
X0078430Y0137738D01*
X0078314Y0137830D01*
X0078201Y0137926D01*
X0078090Y0138024D01*
X0077982Y0138125D01*
X0077876Y0138229D01*
X0077774Y0138335D01*
X0077674Y0138445D01*
X0077578Y0138557D01*
X0077484Y0138672D01*
X0077393Y0138789D01*
X0077306Y0138908D01*
X0077222Y0139030D01*
X0077141Y0139154D01*
X0077064Y0139280D01*
X0076990Y0139408D01*
X0076919Y0139538D01*
X0076852Y0139670D01*
X0076789Y0139804D01*
X0076729Y0139939D01*
X0076673Y0140076D01*
X0076620Y0140215D01*
X0076572Y0140355D01*
X0076527Y0140496D01*
X0076486Y0140638D01*
X0076448Y0140781D01*
X0076415Y0140925D01*
X0076385Y0141070D01*
X0076359Y0141216D01*
X0076338Y0141362D01*
X0076320Y0141509D01*
X0076306Y0141656D01*
X0076296Y0141804D01*
X0076290Y0141952D01*
X0076288Y0142100D01*
X0342288Y0029000D02*
X0342290Y0029148D01*
X0342296Y0029296D01*
X0342306Y0029444D01*
X0342320Y0029591D01*
X0342338Y0029738D01*
X0342359Y0029884D01*
X0342385Y0030030D01*
X0342415Y0030175D01*
X0342448Y0030319D01*
X0342486Y0030462D01*
X0342527Y0030604D01*
X0342572Y0030745D01*
X0342620Y0030885D01*
X0342673Y0031024D01*
X0342729Y0031161D01*
X0342789Y0031296D01*
X0342852Y0031430D01*
X0342919Y0031562D01*
X0342990Y0031692D01*
X0343064Y0031820D01*
X0343141Y0031946D01*
X0343222Y0032070D01*
X0343306Y0032192D01*
X0343393Y0032311D01*
X0343484Y0032428D01*
X0343578Y0032543D01*
X0343674Y0032655D01*
X0343774Y0032765D01*
X0343876Y0032871D01*
X0343982Y0032975D01*
X0344090Y0033076D01*
X0344201Y0033174D01*
X0344314Y0033270D01*
X0344430Y0033362D01*
X0344548Y0033451D01*
X0344669Y0033536D01*
X0344792Y0033619D01*
X0344917Y0033698D01*
X0345044Y0033774D01*
X0345173Y0033846D01*
X0345304Y0033915D01*
X0345437Y0033980D01*
X0345572Y0034041D01*
X0345708Y0034099D01*
X0345845Y0034154D01*
X0345984Y0034204D01*
X0346125Y0034251D01*
X0346266Y0034294D01*
X0346409Y0034334D01*
X0346553Y0034369D01*
X0346697Y0034401D01*
X0346843Y0034428D01*
X0346989Y0034452D01*
X0347136Y0034472D01*
X0347283Y0034488D01*
X0347430Y0034500D01*
X0347578Y0034508D01*
X0347726Y0034512D01*
X0347874Y0034512D01*
X0348022Y0034508D01*
X0348170Y0034500D01*
X0348317Y0034488D01*
X0348464Y0034472D01*
X0348611Y0034452D01*
X0348757Y0034428D01*
X0348903Y0034401D01*
X0349047Y0034369D01*
X0349191Y0034334D01*
X0349334Y0034294D01*
X0349475Y0034251D01*
X0349616Y0034204D01*
X0349755Y0034154D01*
X0349892Y0034099D01*
X0350028Y0034041D01*
X0350163Y0033980D01*
X0350296Y0033915D01*
X0350427Y0033846D01*
X0350556Y0033774D01*
X0350683Y0033698D01*
X0350808Y0033619D01*
X0350931Y0033536D01*
X0351052Y0033451D01*
X0351170Y0033362D01*
X0351286Y0033270D01*
X0351399Y0033174D01*
X0351510Y0033076D01*
X0351618Y0032975D01*
X0351724Y0032871D01*
X0351826Y0032765D01*
X0351926Y0032655D01*
X0352022Y0032543D01*
X0352116Y0032428D01*
X0352207Y0032311D01*
X0352294Y0032192D01*
X0352378Y0032070D01*
X0352459Y0031946D01*
X0352536Y0031820D01*
X0352610Y0031692D01*
X0352681Y0031562D01*
X0352748Y0031430D01*
X0352811Y0031296D01*
X0352871Y0031161D01*
X0352927Y0031024D01*
X0352980Y0030885D01*
X0353028Y0030745D01*
X0353073Y0030604D01*
X0353114Y0030462D01*
X0353152Y0030319D01*
X0353185Y0030175D01*
X0353215Y0030030D01*
X0353241Y0029884D01*
X0353262Y0029738D01*
X0353280Y0029591D01*
X0353294Y0029444D01*
X0353304Y0029296D01*
X0353310Y0029148D01*
X0353312Y0029000D01*
X0353310Y0028852D01*
X0353304Y0028704D01*
X0353294Y0028556D01*
X0353280Y0028409D01*
X0353262Y0028262D01*
X0353241Y0028116D01*
X0353215Y0027970D01*
X0353185Y0027825D01*
X0353152Y0027681D01*
X0353114Y0027538D01*
X0353073Y0027396D01*
X0353028Y0027255D01*
X0352980Y0027115D01*
X0352927Y0026976D01*
X0352871Y0026839D01*
X0352811Y0026704D01*
X0352748Y0026570D01*
X0352681Y0026438D01*
X0352610Y0026308D01*
X0352536Y0026180D01*
X0352459Y0026054D01*
X0352378Y0025930D01*
X0352294Y0025808D01*
X0352207Y0025689D01*
X0352116Y0025572D01*
X0352022Y0025457D01*
X0351926Y0025345D01*
X0351826Y0025235D01*
X0351724Y0025129D01*
X0351618Y0025025D01*
X0351510Y0024924D01*
X0351399Y0024826D01*
X0351286Y0024730D01*
X0351170Y0024638D01*
X0351052Y0024549D01*
X0350931Y0024464D01*
X0350808Y0024381D01*
X0350683Y0024302D01*
X0350556Y0024226D01*
X0350427Y0024154D01*
X0350296Y0024085D01*
X0350163Y0024020D01*
X0350028Y0023959D01*
X0349892Y0023901D01*
X0349755Y0023846D01*
X0349616Y0023796D01*
X0349475Y0023749D01*
X0349334Y0023706D01*
X0349191Y0023666D01*
X0349047Y0023631D01*
X0348903Y0023599D01*
X0348757Y0023572D01*
X0348611Y0023548D01*
X0348464Y0023528D01*
X0348317Y0023512D01*
X0348170Y0023500D01*
X0348022Y0023492D01*
X0347874Y0023488D01*
X0347726Y0023488D01*
X0347578Y0023492D01*
X0347430Y0023500D01*
X0347283Y0023512D01*
X0347136Y0023528D01*
X0346989Y0023548D01*
X0346843Y0023572D01*
X0346697Y0023599D01*
X0346553Y0023631D01*
X0346409Y0023666D01*
X0346266Y0023706D01*
X0346125Y0023749D01*
X0345984Y0023796D01*
X0345845Y0023846D01*
X0345708Y0023901D01*
X0345572Y0023959D01*
X0345437Y0024020D01*
X0345304Y0024085D01*
X0345173Y0024154D01*
X0345044Y0024226D01*
X0344917Y0024302D01*
X0344792Y0024381D01*
X0344669Y0024464D01*
X0344548Y0024549D01*
X0344430Y0024638D01*
X0344314Y0024730D01*
X0344201Y0024826D01*
X0344090Y0024924D01*
X0343982Y0025025D01*
X0343876Y0025129D01*
X0343774Y0025235D01*
X0343674Y0025345D01*
X0343578Y0025457D01*
X0343484Y0025572D01*
X0343393Y0025689D01*
X0343306Y0025808D01*
X0343222Y0025930D01*
X0343141Y0026054D01*
X0343064Y0026180D01*
X0342990Y0026308D01*
X0342919Y0026438D01*
X0342852Y0026570D01*
X0342789Y0026704D01*
X0342729Y0026839D01*
X0342673Y0026976D01*
X0342620Y0027115D01*
X0342572Y0027255D01*
X0342527Y0027396D01*
X0342486Y0027538D01*
X0342448Y0027681D01*
X0342415Y0027825D01*
X0342385Y0027970D01*
X0342359Y0028116D01*
X0342338Y0028262D01*
X0342320Y0028409D01*
X0342306Y0028556D01*
X0342296Y0028704D01*
X0342290Y0028852D01*
X0342288Y0029000D01*
D11*
X0399800Y0008900D02*
X0399800Y0177300D01*
X0001800Y0174100D01*
X0001800Y0012100D01*
X0399800Y0008900D01*
D12*
X0378600Y0022300D02*
X0373996Y0022300D01*
X0378600Y0022300D02*
X0378600Y0025369D01*
X0378600Y0026904D02*
X0378600Y0029973D01*
X0378600Y0031508D02*
X0378600Y0033810D01*
X0377833Y0034577D01*
X0374763Y0034577D01*
X0373996Y0033810D01*
X0373996Y0031508D01*
X0378600Y0031508D01*
X0376298Y0028439D02*
X0376298Y0026904D01*
X0373996Y0026904D02*
X0373996Y0029973D01*
X0373996Y0026904D02*
X0378600Y0026904D01*
X0381832Y0024935D02*
X0381755Y0025008D01*
X0381680Y0025083D01*
X0381609Y0025161D01*
X0381540Y0025242D01*
X0381474Y0025325D01*
X0381411Y0025410D01*
X0381352Y0025498D01*
X0381295Y0025587D01*
X0381242Y0025679D01*
X0381192Y0025773D01*
X0381146Y0025868D01*
X0381103Y0025965D01*
X0381064Y0026063D01*
X0381028Y0026163D01*
X0380996Y0026264D01*
X0380968Y0026366D01*
X0380943Y0026469D01*
X0380922Y0026573D01*
X0380905Y0026678D01*
X0380891Y0026783D01*
X0380882Y0026888D01*
X0380876Y0026994D01*
X0380874Y0027100D01*
X0380876Y0027206D01*
X0380882Y0027312D01*
X0380891Y0027417D01*
X0380905Y0027522D01*
X0380922Y0027627D01*
X0380943Y0027731D01*
X0380968Y0027834D01*
X0380996Y0027936D01*
X0381028Y0028037D01*
X0381064Y0028137D01*
X0381103Y0028235D01*
X0381146Y0028332D01*
X0381192Y0028427D01*
X0381242Y0028521D01*
X0381295Y0028613D01*
X0381352Y0028702D01*
X0381411Y0028790D01*
X0381474Y0028875D01*
X0381540Y0028958D01*
X0381609Y0029039D01*
X0381680Y0029117D01*
X0381755Y0029192D01*
X0381832Y0029265D01*
X0385768Y0029265D02*
X0385845Y0029192D01*
X0385920Y0029117D01*
X0385991Y0029039D01*
X0386060Y0028958D01*
X0386126Y0028875D01*
X0386189Y0028790D01*
X0386248Y0028702D01*
X0386305Y0028613D01*
X0386358Y0028521D01*
X0386408Y0028427D01*
X0386454Y0028332D01*
X0386497Y0028235D01*
X0386536Y0028137D01*
X0386572Y0028037D01*
X0386604Y0027936D01*
X0386632Y0027834D01*
X0386657Y0027731D01*
X0386678Y0027627D01*
X0386695Y0027522D01*
X0386709Y0027417D01*
X0386718Y0027312D01*
X0386724Y0027206D01*
X0386726Y0027100D01*
X0386724Y0026994D01*
X0386718Y0026888D01*
X0386709Y0026783D01*
X0386695Y0026678D01*
X0386678Y0026573D01*
X0386657Y0026469D01*
X0386632Y0026366D01*
X0386604Y0026264D01*
X0386572Y0026163D01*
X0386536Y0026063D01*
X0386497Y0025965D01*
X0386454Y0025868D01*
X0386408Y0025773D01*
X0386358Y0025679D01*
X0386305Y0025587D01*
X0386248Y0025498D01*
X0386189Y0025410D01*
X0386126Y0025325D01*
X0386060Y0025242D01*
X0385991Y0025161D01*
X0385920Y0025083D01*
X0385845Y0025008D01*
X0385768Y0024935D01*
X0377833Y0036112D02*
X0378600Y0036879D01*
X0378600Y0038414D01*
X0377833Y0039181D01*
X0377065Y0039181D01*
X0376298Y0038414D01*
X0376298Y0037646D01*
X0376298Y0038414D02*
X0375531Y0039181D01*
X0374763Y0039181D01*
X0373996Y0038414D01*
X0373996Y0036879D01*
X0374763Y0036112D01*
X0375531Y0040716D02*
X0373996Y0042250D01*
X0378600Y0042250D01*
X0378600Y0040716D02*
X0378600Y0043785D01*
X0378600Y0050300D02*
X0373996Y0050300D01*
X0378600Y0050300D02*
X0378600Y0053369D01*
X0378600Y0054904D02*
X0378600Y0057973D01*
X0378600Y0059508D02*
X0378600Y0061810D01*
X0377833Y0062577D01*
X0374763Y0062577D01*
X0373996Y0061810D01*
X0373996Y0059508D01*
X0378600Y0059508D01*
X0376298Y0056439D02*
X0376298Y0054904D01*
X0373996Y0054904D02*
X0373996Y0057973D01*
X0373996Y0054904D02*
X0378600Y0054904D01*
X0381832Y0052935D02*
X0381755Y0053008D01*
X0381680Y0053083D01*
X0381609Y0053161D01*
X0381540Y0053242D01*
X0381474Y0053325D01*
X0381411Y0053410D01*
X0381352Y0053498D01*
X0381295Y0053587D01*
X0381242Y0053679D01*
X0381192Y0053773D01*
X0381146Y0053868D01*
X0381103Y0053965D01*
X0381064Y0054063D01*
X0381028Y0054163D01*
X0380996Y0054264D01*
X0380968Y0054366D01*
X0380943Y0054469D01*
X0380922Y0054573D01*
X0380905Y0054678D01*
X0380891Y0054783D01*
X0380882Y0054888D01*
X0380876Y0054994D01*
X0380874Y0055100D01*
X0380876Y0055206D01*
X0380882Y0055312D01*
X0380891Y0055417D01*
X0380905Y0055522D01*
X0380922Y0055627D01*
X0380943Y0055731D01*
X0380968Y0055834D01*
X0380996Y0055936D01*
X0381028Y0056037D01*
X0381064Y0056137D01*
X0381103Y0056235D01*
X0381146Y0056332D01*
X0381192Y0056427D01*
X0381242Y0056521D01*
X0381295Y0056613D01*
X0381352Y0056702D01*
X0381411Y0056790D01*
X0381474Y0056875D01*
X0381540Y0056958D01*
X0381609Y0057039D01*
X0381680Y0057117D01*
X0381755Y0057192D01*
X0381832Y0057265D01*
X0385768Y0057265D02*
X0385845Y0057192D01*
X0385920Y0057117D01*
X0385991Y0057039D01*
X0386060Y0056958D01*
X0386126Y0056875D01*
X0386189Y0056790D01*
X0386248Y0056702D01*
X0386305Y0056613D01*
X0386358Y0056521D01*
X0386408Y0056427D01*
X0386454Y0056332D01*
X0386497Y0056235D01*
X0386536Y0056137D01*
X0386572Y0056037D01*
X0386604Y0055936D01*
X0386632Y0055834D01*
X0386657Y0055731D01*
X0386678Y0055627D01*
X0386695Y0055522D01*
X0386709Y0055417D01*
X0386718Y0055312D01*
X0386724Y0055206D01*
X0386726Y0055100D01*
X0386724Y0054994D01*
X0386718Y0054888D01*
X0386709Y0054783D01*
X0386695Y0054678D01*
X0386678Y0054573D01*
X0386657Y0054469D01*
X0386632Y0054366D01*
X0386604Y0054264D01*
X0386572Y0054163D01*
X0386536Y0054063D01*
X0386497Y0053965D01*
X0386454Y0053868D01*
X0386408Y0053773D01*
X0386358Y0053679D01*
X0386305Y0053587D01*
X0386248Y0053498D01*
X0386189Y0053410D01*
X0386126Y0053325D01*
X0386060Y0053242D01*
X0385991Y0053161D01*
X0385920Y0053083D01*
X0385845Y0053008D01*
X0385768Y0052935D01*
X0378600Y0064112D02*
X0375531Y0067181D01*
X0374763Y0067181D01*
X0373996Y0066414D01*
X0373996Y0064879D01*
X0374763Y0064112D01*
X0378600Y0064112D02*
X0378600Y0067181D01*
X0377833Y0068716D02*
X0378600Y0069483D01*
X0378600Y0071018D01*
X0377833Y0071785D01*
X0377065Y0071785D01*
X0376298Y0071018D01*
X0376298Y0068716D01*
X0377833Y0068716D01*
X0376298Y0068716D02*
X0374763Y0070250D01*
X0373996Y0071785D01*
X0373996Y0076300D02*
X0378600Y0076300D01*
X0378600Y0079369D01*
X0378600Y0080904D02*
X0378600Y0083973D01*
X0378600Y0085508D02*
X0378600Y0087810D01*
X0377833Y0088577D01*
X0374763Y0088577D01*
X0373996Y0087810D01*
X0373996Y0085508D01*
X0378600Y0085508D01*
X0376298Y0082439D02*
X0376298Y0080904D01*
X0373996Y0080904D02*
X0378600Y0080904D01*
X0381832Y0078935D02*
X0381755Y0079008D01*
X0381680Y0079083D01*
X0381609Y0079161D01*
X0381540Y0079242D01*
X0381474Y0079325D01*
X0381411Y0079410D01*
X0381352Y0079498D01*
X0381295Y0079587D01*
X0381242Y0079679D01*
X0381192Y0079773D01*
X0381146Y0079868D01*
X0381103Y0079965D01*
X0381064Y0080063D01*
X0381028Y0080163D01*
X0380996Y0080264D01*
X0380968Y0080366D01*
X0380943Y0080469D01*
X0380922Y0080573D01*
X0380905Y0080678D01*
X0380891Y0080783D01*
X0380882Y0080888D01*
X0380876Y0080994D01*
X0380874Y0081100D01*
X0380876Y0081206D01*
X0380882Y0081312D01*
X0380891Y0081417D01*
X0380905Y0081522D01*
X0380922Y0081627D01*
X0380943Y0081731D01*
X0380968Y0081834D01*
X0380996Y0081936D01*
X0381028Y0082037D01*
X0381064Y0082137D01*
X0381103Y0082235D01*
X0381146Y0082332D01*
X0381192Y0082427D01*
X0381242Y0082521D01*
X0381295Y0082613D01*
X0381352Y0082702D01*
X0381411Y0082790D01*
X0381474Y0082875D01*
X0381540Y0082958D01*
X0381609Y0083039D01*
X0381680Y0083117D01*
X0381755Y0083192D01*
X0381832Y0083265D01*
X0385768Y0083265D02*
X0385845Y0083192D01*
X0385920Y0083117D01*
X0385991Y0083039D01*
X0386060Y0082958D01*
X0386126Y0082875D01*
X0386189Y0082790D01*
X0386248Y0082702D01*
X0386305Y0082613D01*
X0386358Y0082521D01*
X0386408Y0082427D01*
X0386454Y0082332D01*
X0386497Y0082235D01*
X0386536Y0082137D01*
X0386572Y0082037D01*
X0386604Y0081936D01*
X0386632Y0081834D01*
X0386657Y0081731D01*
X0386678Y0081627D01*
X0386695Y0081522D01*
X0386709Y0081417D01*
X0386718Y0081312D01*
X0386724Y0081206D01*
X0386726Y0081100D01*
X0386724Y0080994D01*
X0386718Y0080888D01*
X0386709Y0080783D01*
X0386695Y0080678D01*
X0386678Y0080573D01*
X0386657Y0080469D01*
X0386632Y0080366D01*
X0386604Y0080264D01*
X0386572Y0080163D01*
X0386536Y0080063D01*
X0386497Y0079965D01*
X0386454Y0079868D01*
X0386408Y0079773D01*
X0386358Y0079679D01*
X0386305Y0079587D01*
X0386248Y0079498D01*
X0386189Y0079410D01*
X0386126Y0079325D01*
X0386060Y0079242D01*
X0385991Y0079161D01*
X0385920Y0079083D01*
X0385845Y0079008D01*
X0385768Y0078935D01*
X0373996Y0080904D02*
X0373996Y0083973D01*
X0374763Y0090112D02*
X0373996Y0090879D01*
X0373996Y0092414D01*
X0374763Y0093181D01*
X0375531Y0093181D01*
X0378600Y0090112D01*
X0378600Y0093181D01*
X0378600Y0094716D02*
X0377833Y0094716D01*
X0374763Y0097785D01*
X0373996Y0097785D01*
X0373996Y0094716D01*
X0374996Y0102300D02*
X0379600Y0102300D01*
X0379600Y0105369D01*
X0379600Y0106904D02*
X0374996Y0106904D01*
X0374996Y0109973D01*
X0374996Y0111508D02*
X0374996Y0113810D01*
X0375763Y0114577D01*
X0378833Y0114577D01*
X0379600Y0113810D01*
X0379600Y0111508D01*
X0374996Y0111508D01*
X0377298Y0108439D02*
X0377298Y0106904D01*
X0379600Y0106904D02*
X0379600Y0109973D01*
X0382832Y0109265D02*
X0382755Y0109192D01*
X0382680Y0109117D01*
X0382609Y0109039D01*
X0382540Y0108958D01*
X0382474Y0108875D01*
X0382411Y0108790D01*
X0382352Y0108702D01*
X0382295Y0108613D01*
X0382242Y0108521D01*
X0382192Y0108427D01*
X0382146Y0108332D01*
X0382103Y0108235D01*
X0382064Y0108137D01*
X0382028Y0108037D01*
X0381996Y0107936D01*
X0381968Y0107834D01*
X0381943Y0107731D01*
X0381922Y0107627D01*
X0381905Y0107522D01*
X0381891Y0107417D01*
X0381882Y0107312D01*
X0381876Y0107206D01*
X0381874Y0107100D01*
X0381876Y0106994D01*
X0381882Y0106888D01*
X0381891Y0106783D01*
X0381905Y0106678D01*
X0381922Y0106573D01*
X0381943Y0106469D01*
X0381968Y0106366D01*
X0381996Y0106264D01*
X0382028Y0106163D01*
X0382064Y0106063D01*
X0382103Y0105965D01*
X0382146Y0105868D01*
X0382192Y0105773D01*
X0382242Y0105679D01*
X0382295Y0105587D01*
X0382352Y0105498D01*
X0382411Y0105410D01*
X0382474Y0105325D01*
X0382540Y0105242D01*
X0382609Y0105161D01*
X0382680Y0105083D01*
X0382755Y0105008D01*
X0382832Y0104935D01*
X0386768Y0104935D02*
X0386845Y0105008D01*
X0386920Y0105083D01*
X0386991Y0105161D01*
X0387060Y0105242D01*
X0387126Y0105325D01*
X0387189Y0105410D01*
X0387248Y0105498D01*
X0387305Y0105587D01*
X0387358Y0105679D01*
X0387408Y0105773D01*
X0387454Y0105868D01*
X0387497Y0105965D01*
X0387536Y0106063D01*
X0387572Y0106163D01*
X0387604Y0106264D01*
X0387632Y0106366D01*
X0387657Y0106469D01*
X0387678Y0106573D01*
X0387695Y0106678D01*
X0387709Y0106783D01*
X0387718Y0106888D01*
X0387724Y0106994D01*
X0387726Y0107100D01*
X0387724Y0107206D01*
X0387718Y0107312D01*
X0387709Y0107417D01*
X0387695Y0107522D01*
X0387678Y0107627D01*
X0387657Y0107731D01*
X0387632Y0107834D01*
X0387604Y0107936D01*
X0387572Y0108037D01*
X0387536Y0108137D01*
X0387497Y0108235D01*
X0387454Y0108332D01*
X0387408Y0108427D01*
X0387358Y0108521D01*
X0387305Y0108613D01*
X0387248Y0108702D01*
X0387189Y0108790D01*
X0387126Y0108875D01*
X0387060Y0108958D01*
X0386991Y0109039D01*
X0386920Y0109117D01*
X0386845Y0109192D01*
X0386768Y0109265D01*
X0379600Y0116112D02*
X0376531Y0119181D01*
X0375763Y0119181D01*
X0374996Y0118414D01*
X0374996Y0116879D01*
X0375763Y0116112D01*
X0379600Y0116112D02*
X0379600Y0119181D01*
X0378833Y0120716D02*
X0378065Y0120716D01*
X0377298Y0121483D01*
X0377298Y0123018D01*
X0378065Y0123785D01*
X0378833Y0123785D01*
X0379600Y0123018D01*
X0379600Y0121483D01*
X0378833Y0120716D01*
X0377298Y0121483D02*
X0376531Y0120716D01*
X0375763Y0120716D01*
X0374996Y0121483D01*
X0374996Y0123018D01*
X0375763Y0123785D01*
X0376531Y0123785D01*
X0377298Y0123018D01*
X0374996Y0126300D02*
X0379600Y0126300D01*
X0379600Y0129369D01*
X0379600Y0130904D02*
X0374996Y0130904D01*
X0374996Y0133973D01*
X0374996Y0135508D02*
X0374996Y0137810D01*
X0375763Y0138577D01*
X0378833Y0138577D01*
X0379600Y0137810D01*
X0379600Y0135508D01*
X0374996Y0135508D01*
X0377298Y0132439D02*
X0377298Y0130904D01*
X0379600Y0130904D02*
X0379600Y0133973D01*
X0382832Y0133265D02*
X0382755Y0133192D01*
X0382680Y0133117D01*
X0382609Y0133039D01*
X0382540Y0132958D01*
X0382474Y0132875D01*
X0382411Y0132790D01*
X0382352Y0132702D01*
X0382295Y0132613D01*
X0382242Y0132521D01*
X0382192Y0132427D01*
X0382146Y0132332D01*
X0382103Y0132235D01*
X0382064Y0132137D01*
X0382028Y0132037D01*
X0381996Y0131936D01*
X0381968Y0131834D01*
X0381943Y0131731D01*
X0381922Y0131627D01*
X0381905Y0131522D01*
X0381891Y0131417D01*
X0381882Y0131312D01*
X0381876Y0131206D01*
X0381874Y0131100D01*
X0381876Y0130994D01*
X0381882Y0130888D01*
X0381891Y0130783D01*
X0381905Y0130678D01*
X0381922Y0130573D01*
X0381943Y0130469D01*
X0381968Y0130366D01*
X0381996Y0130264D01*
X0382028Y0130163D01*
X0382064Y0130063D01*
X0382103Y0129965D01*
X0382146Y0129868D01*
X0382192Y0129773D01*
X0382242Y0129679D01*
X0382295Y0129587D01*
X0382352Y0129498D01*
X0382411Y0129410D01*
X0382474Y0129325D01*
X0382540Y0129242D01*
X0382609Y0129161D01*
X0382680Y0129083D01*
X0382755Y0129008D01*
X0382832Y0128935D01*
X0386768Y0128935D02*
X0386845Y0129008D01*
X0386920Y0129083D01*
X0386991Y0129161D01*
X0387060Y0129242D01*
X0387126Y0129325D01*
X0387189Y0129410D01*
X0387248Y0129498D01*
X0387305Y0129587D01*
X0387358Y0129679D01*
X0387408Y0129773D01*
X0387454Y0129868D01*
X0387497Y0129965D01*
X0387536Y0130063D01*
X0387572Y0130163D01*
X0387604Y0130264D01*
X0387632Y0130366D01*
X0387657Y0130469D01*
X0387678Y0130573D01*
X0387695Y0130678D01*
X0387709Y0130783D01*
X0387718Y0130888D01*
X0387724Y0130994D01*
X0387726Y0131100D01*
X0387724Y0131206D01*
X0387718Y0131312D01*
X0387709Y0131417D01*
X0387695Y0131522D01*
X0387678Y0131627D01*
X0387657Y0131731D01*
X0387632Y0131834D01*
X0387604Y0131936D01*
X0387572Y0132037D01*
X0387536Y0132137D01*
X0387497Y0132235D01*
X0387454Y0132332D01*
X0387408Y0132427D01*
X0387358Y0132521D01*
X0387305Y0132613D01*
X0387248Y0132702D01*
X0387189Y0132790D01*
X0387126Y0132875D01*
X0387060Y0132958D01*
X0386991Y0133039D01*
X0386920Y0133117D01*
X0386845Y0133192D01*
X0386768Y0133265D01*
X0379600Y0140112D02*
X0376531Y0143181D01*
X0375763Y0143181D01*
X0374996Y0142414D01*
X0374996Y0140879D01*
X0375763Y0140112D01*
X0379600Y0140112D02*
X0379600Y0143181D01*
X0378833Y0144716D02*
X0379600Y0145483D01*
X0379600Y0147018D01*
X0378833Y0147785D01*
X0375763Y0147785D01*
X0374996Y0147018D01*
X0374996Y0145483D01*
X0375763Y0144716D01*
X0376531Y0144716D01*
X0377298Y0145483D01*
X0377298Y0147785D01*
X0378600Y0150300D02*
X0373996Y0150300D01*
X0373996Y0154904D02*
X0378600Y0154904D01*
X0378600Y0157973D01*
X0378600Y0159508D02*
X0378600Y0161810D01*
X0377833Y0162577D01*
X0374763Y0162577D01*
X0373996Y0161810D01*
X0373996Y0159508D01*
X0378600Y0159508D01*
X0376298Y0156439D02*
X0376298Y0154904D01*
X0373996Y0154904D02*
X0373996Y0157973D01*
X0378600Y0153369D02*
X0378600Y0150300D01*
X0381832Y0152935D02*
X0381755Y0153008D01*
X0381680Y0153083D01*
X0381609Y0153161D01*
X0381540Y0153242D01*
X0381474Y0153325D01*
X0381411Y0153410D01*
X0381352Y0153498D01*
X0381295Y0153587D01*
X0381242Y0153679D01*
X0381192Y0153773D01*
X0381146Y0153868D01*
X0381103Y0153965D01*
X0381064Y0154063D01*
X0381028Y0154163D01*
X0380996Y0154264D01*
X0380968Y0154366D01*
X0380943Y0154469D01*
X0380922Y0154573D01*
X0380905Y0154678D01*
X0380891Y0154783D01*
X0380882Y0154888D01*
X0380876Y0154994D01*
X0380874Y0155100D01*
X0380876Y0155206D01*
X0380882Y0155312D01*
X0380891Y0155417D01*
X0380905Y0155522D01*
X0380922Y0155627D01*
X0380943Y0155731D01*
X0380968Y0155834D01*
X0380996Y0155936D01*
X0381028Y0156037D01*
X0381064Y0156137D01*
X0381103Y0156235D01*
X0381146Y0156332D01*
X0381192Y0156427D01*
X0381242Y0156521D01*
X0381295Y0156613D01*
X0381352Y0156702D01*
X0381411Y0156790D01*
X0381474Y0156875D01*
X0381540Y0156958D01*
X0381609Y0157039D01*
X0381680Y0157117D01*
X0381755Y0157192D01*
X0381832Y0157265D01*
X0385768Y0157265D02*
X0385845Y0157192D01*
X0385920Y0157117D01*
X0385991Y0157039D01*
X0386060Y0156958D01*
X0386126Y0156875D01*
X0386189Y0156790D01*
X0386248Y0156702D01*
X0386305Y0156613D01*
X0386358Y0156521D01*
X0386408Y0156427D01*
X0386454Y0156332D01*
X0386497Y0156235D01*
X0386536Y0156137D01*
X0386572Y0156037D01*
X0386604Y0155936D01*
X0386632Y0155834D01*
X0386657Y0155731D01*
X0386678Y0155627D01*
X0386695Y0155522D01*
X0386709Y0155417D01*
X0386718Y0155312D01*
X0386724Y0155206D01*
X0386726Y0155100D01*
X0386724Y0154994D01*
X0386718Y0154888D01*
X0386709Y0154783D01*
X0386695Y0154678D01*
X0386678Y0154573D01*
X0386657Y0154469D01*
X0386632Y0154366D01*
X0386604Y0154264D01*
X0386572Y0154163D01*
X0386536Y0154063D01*
X0386497Y0153965D01*
X0386454Y0153868D01*
X0386408Y0153773D01*
X0386358Y0153679D01*
X0386305Y0153587D01*
X0386248Y0153498D01*
X0386189Y0153410D01*
X0386126Y0153325D01*
X0386060Y0153242D01*
X0385991Y0153161D01*
X0385920Y0153083D01*
X0385845Y0153008D01*
X0385768Y0152935D01*
X0377833Y0164112D02*
X0378600Y0164879D01*
X0378600Y0166414D01*
X0377833Y0167181D01*
X0377065Y0167181D01*
X0376298Y0166414D01*
X0376298Y0165646D01*
X0376298Y0166414D02*
X0375531Y0167181D01*
X0374763Y0167181D01*
X0373996Y0166414D01*
X0373996Y0164879D01*
X0374763Y0164112D01*
X0374763Y0168716D02*
X0373996Y0169483D01*
X0373996Y0171018D01*
X0374763Y0171785D01*
X0377833Y0168716D01*
X0378600Y0169483D01*
X0378600Y0171018D01*
X0377833Y0171785D01*
X0374763Y0171785D01*
X0374763Y0168716D02*
X0377833Y0168716D01*
X0267768Y0157265D02*
X0267845Y0157192D01*
X0267920Y0157117D01*
X0267991Y0157039D01*
X0268060Y0156958D01*
X0268126Y0156875D01*
X0268189Y0156790D01*
X0268248Y0156702D01*
X0268305Y0156613D01*
X0268358Y0156521D01*
X0268408Y0156427D01*
X0268454Y0156332D01*
X0268497Y0156235D01*
X0268536Y0156137D01*
X0268572Y0156037D01*
X0268604Y0155936D01*
X0268632Y0155834D01*
X0268657Y0155731D01*
X0268678Y0155627D01*
X0268695Y0155522D01*
X0268709Y0155417D01*
X0268718Y0155312D01*
X0268724Y0155206D01*
X0268726Y0155100D01*
X0268724Y0154994D01*
X0268718Y0154888D01*
X0268709Y0154783D01*
X0268695Y0154678D01*
X0268678Y0154573D01*
X0268657Y0154469D01*
X0268632Y0154366D01*
X0268604Y0154264D01*
X0268572Y0154163D01*
X0268536Y0154063D01*
X0268497Y0153965D01*
X0268454Y0153868D01*
X0268408Y0153773D01*
X0268358Y0153679D01*
X0268305Y0153587D01*
X0268248Y0153498D01*
X0268189Y0153410D01*
X0268126Y0153325D01*
X0268060Y0153242D01*
X0267991Y0153161D01*
X0267920Y0153083D01*
X0267845Y0153008D01*
X0267768Y0152935D01*
X0263832Y0152935D02*
X0263755Y0153008D01*
X0263680Y0153083D01*
X0263609Y0153161D01*
X0263540Y0153242D01*
X0263474Y0153325D01*
X0263411Y0153410D01*
X0263352Y0153498D01*
X0263295Y0153587D01*
X0263242Y0153679D01*
X0263192Y0153773D01*
X0263146Y0153868D01*
X0263103Y0153965D01*
X0263064Y0154063D01*
X0263028Y0154163D01*
X0262996Y0154264D01*
X0262968Y0154366D01*
X0262943Y0154469D01*
X0262922Y0154573D01*
X0262905Y0154678D01*
X0262891Y0154783D01*
X0262882Y0154888D01*
X0262876Y0154994D01*
X0262874Y0155100D01*
X0262876Y0155206D01*
X0262882Y0155312D01*
X0262891Y0155417D01*
X0262905Y0155522D01*
X0262922Y0155627D01*
X0262943Y0155731D01*
X0262968Y0155834D01*
X0262996Y0155936D01*
X0263028Y0156037D01*
X0263064Y0156137D01*
X0263103Y0156235D01*
X0263146Y0156332D01*
X0263192Y0156427D01*
X0263242Y0156521D01*
X0263295Y0156613D01*
X0263352Y0156702D01*
X0263411Y0156790D01*
X0263474Y0156875D01*
X0263540Y0156958D01*
X0263609Y0157039D01*
X0263680Y0157117D01*
X0263755Y0157192D01*
X0263832Y0157265D01*
X0260600Y0157973D02*
X0260600Y0154904D01*
X0255996Y0154904D01*
X0255996Y0157973D01*
X0255996Y0159508D02*
X0255996Y0161810D01*
X0256763Y0162577D01*
X0259833Y0162577D01*
X0260600Y0161810D01*
X0260600Y0159508D01*
X0255996Y0159508D01*
X0258298Y0156439D02*
X0258298Y0154904D01*
X0260600Y0153369D02*
X0260600Y0150300D01*
X0255996Y0150300D01*
X0255996Y0147785D02*
X0256763Y0147785D01*
X0259833Y0144716D01*
X0260600Y0144716D01*
X0260600Y0143181D02*
X0260600Y0140112D01*
X0260600Y0141646D02*
X0255996Y0141646D01*
X0257531Y0140112D01*
X0256763Y0138577D02*
X0255996Y0137810D01*
X0255996Y0135508D01*
X0260600Y0135508D01*
X0260600Y0137810D01*
X0259833Y0138577D01*
X0256763Y0138577D01*
X0255996Y0133973D02*
X0255996Y0130904D01*
X0260600Y0130904D01*
X0260600Y0133973D01*
X0258298Y0132439D02*
X0258298Y0130904D01*
X0260600Y0129369D02*
X0260600Y0126300D01*
X0255996Y0126300D01*
X0255996Y0123785D02*
X0256763Y0122250D01*
X0258298Y0120716D01*
X0258298Y0123018D01*
X0259065Y0123785D01*
X0259833Y0123785D01*
X0260600Y0123018D01*
X0260600Y0121483D01*
X0259833Y0120716D01*
X0258298Y0120716D01*
X0260600Y0119181D02*
X0260600Y0116112D01*
X0260600Y0117646D02*
X0255996Y0117646D01*
X0257531Y0116112D01*
X0256763Y0114577D02*
X0255996Y0113810D01*
X0255996Y0111508D01*
X0260600Y0111508D01*
X0260600Y0113810D01*
X0259833Y0114577D01*
X0256763Y0114577D01*
X0255996Y0109973D02*
X0255996Y0106904D01*
X0260600Y0106904D01*
X0260600Y0109973D01*
X0258298Y0108439D02*
X0258298Y0106904D01*
X0260600Y0105369D02*
X0260600Y0102300D01*
X0255996Y0102300D01*
X0263832Y0104935D02*
X0263755Y0105008D01*
X0263680Y0105083D01*
X0263609Y0105161D01*
X0263540Y0105242D01*
X0263474Y0105325D01*
X0263411Y0105410D01*
X0263352Y0105498D01*
X0263295Y0105587D01*
X0263242Y0105679D01*
X0263192Y0105773D01*
X0263146Y0105868D01*
X0263103Y0105965D01*
X0263064Y0106063D01*
X0263028Y0106163D01*
X0262996Y0106264D01*
X0262968Y0106366D01*
X0262943Y0106469D01*
X0262922Y0106573D01*
X0262905Y0106678D01*
X0262891Y0106783D01*
X0262882Y0106888D01*
X0262876Y0106994D01*
X0262874Y0107100D01*
X0262876Y0107206D01*
X0262882Y0107312D01*
X0262891Y0107417D01*
X0262905Y0107522D01*
X0262922Y0107627D01*
X0262943Y0107731D01*
X0262968Y0107834D01*
X0262996Y0107936D01*
X0263028Y0108037D01*
X0263064Y0108137D01*
X0263103Y0108235D01*
X0263146Y0108332D01*
X0263192Y0108427D01*
X0263242Y0108521D01*
X0263295Y0108613D01*
X0263352Y0108702D01*
X0263411Y0108790D01*
X0263474Y0108875D01*
X0263540Y0108958D01*
X0263609Y0109039D01*
X0263680Y0109117D01*
X0263755Y0109192D01*
X0263832Y0109265D01*
X0267768Y0109265D02*
X0267845Y0109192D01*
X0267920Y0109117D01*
X0267991Y0109039D01*
X0268060Y0108958D01*
X0268126Y0108875D01*
X0268189Y0108790D01*
X0268248Y0108702D01*
X0268305Y0108613D01*
X0268358Y0108521D01*
X0268408Y0108427D01*
X0268454Y0108332D01*
X0268497Y0108235D01*
X0268536Y0108137D01*
X0268572Y0108037D01*
X0268604Y0107936D01*
X0268632Y0107834D01*
X0268657Y0107731D01*
X0268678Y0107627D01*
X0268695Y0107522D01*
X0268709Y0107417D01*
X0268718Y0107312D01*
X0268724Y0107206D01*
X0268726Y0107100D01*
X0268724Y0106994D01*
X0268718Y0106888D01*
X0268709Y0106783D01*
X0268695Y0106678D01*
X0268678Y0106573D01*
X0268657Y0106469D01*
X0268632Y0106366D01*
X0268604Y0106264D01*
X0268572Y0106163D01*
X0268536Y0106063D01*
X0268497Y0105965D01*
X0268454Y0105868D01*
X0268408Y0105773D01*
X0268358Y0105679D01*
X0268305Y0105587D01*
X0268248Y0105498D01*
X0268189Y0105410D01*
X0268126Y0105325D01*
X0268060Y0105242D01*
X0267991Y0105161D01*
X0267920Y0105083D01*
X0267845Y0105008D01*
X0267768Y0104935D01*
X0260600Y0097018D02*
X0260600Y0095483D01*
X0259833Y0094716D01*
X0258298Y0094716D02*
X0257531Y0096250D01*
X0257531Y0097018D01*
X0258298Y0097785D01*
X0259833Y0097785D01*
X0260600Y0097018D01*
X0258298Y0094716D02*
X0255996Y0094716D01*
X0255996Y0097785D01*
X0260600Y0093181D02*
X0260600Y0090112D01*
X0260600Y0091646D02*
X0255996Y0091646D01*
X0257531Y0090112D01*
X0256763Y0088577D02*
X0255996Y0087810D01*
X0255996Y0085508D01*
X0260600Y0085508D01*
X0260600Y0087810D01*
X0259833Y0088577D01*
X0256763Y0088577D01*
X0255996Y0083973D02*
X0255996Y0080904D01*
X0260600Y0080904D01*
X0260600Y0083973D01*
X0258298Y0082439D02*
X0258298Y0080904D01*
X0260600Y0079369D02*
X0260600Y0076300D01*
X0255996Y0076300D01*
X0263832Y0078935D02*
X0263755Y0079008D01*
X0263680Y0079083D01*
X0263609Y0079161D01*
X0263540Y0079242D01*
X0263474Y0079325D01*
X0263411Y0079410D01*
X0263352Y0079498D01*
X0263295Y0079587D01*
X0263242Y0079679D01*
X0263192Y0079773D01*
X0263146Y0079868D01*
X0263103Y0079965D01*
X0263064Y0080063D01*
X0263028Y0080163D01*
X0262996Y0080264D01*
X0262968Y0080366D01*
X0262943Y0080469D01*
X0262922Y0080573D01*
X0262905Y0080678D01*
X0262891Y0080783D01*
X0262882Y0080888D01*
X0262876Y0080994D01*
X0262874Y0081100D01*
X0262876Y0081206D01*
X0262882Y0081312D01*
X0262891Y0081417D01*
X0262905Y0081522D01*
X0262922Y0081627D01*
X0262943Y0081731D01*
X0262968Y0081834D01*
X0262996Y0081936D01*
X0263028Y0082037D01*
X0263064Y0082137D01*
X0263103Y0082235D01*
X0263146Y0082332D01*
X0263192Y0082427D01*
X0263242Y0082521D01*
X0263295Y0082613D01*
X0263352Y0082702D01*
X0263411Y0082790D01*
X0263474Y0082875D01*
X0263540Y0082958D01*
X0263609Y0083039D01*
X0263680Y0083117D01*
X0263755Y0083192D01*
X0263832Y0083265D01*
X0267768Y0083265D02*
X0267845Y0083192D01*
X0267920Y0083117D01*
X0267991Y0083039D01*
X0268060Y0082958D01*
X0268126Y0082875D01*
X0268189Y0082790D01*
X0268248Y0082702D01*
X0268305Y0082613D01*
X0268358Y0082521D01*
X0268408Y0082427D01*
X0268454Y0082332D01*
X0268497Y0082235D01*
X0268536Y0082137D01*
X0268572Y0082037D01*
X0268604Y0081936D01*
X0268632Y0081834D01*
X0268657Y0081731D01*
X0268678Y0081627D01*
X0268695Y0081522D01*
X0268709Y0081417D01*
X0268718Y0081312D01*
X0268724Y0081206D01*
X0268726Y0081100D01*
X0268724Y0080994D01*
X0268718Y0080888D01*
X0268709Y0080783D01*
X0268695Y0080678D01*
X0268678Y0080573D01*
X0268657Y0080469D01*
X0268632Y0080366D01*
X0268604Y0080264D01*
X0268572Y0080163D01*
X0268536Y0080063D01*
X0268497Y0079965D01*
X0268454Y0079868D01*
X0268408Y0079773D01*
X0268358Y0079679D01*
X0268305Y0079587D01*
X0268248Y0079498D01*
X0268189Y0079410D01*
X0268126Y0079325D01*
X0268060Y0079242D01*
X0267991Y0079161D01*
X0267920Y0079083D01*
X0267845Y0079008D01*
X0267768Y0078935D01*
X0260600Y0071018D02*
X0255996Y0071018D01*
X0258298Y0068716D01*
X0258298Y0071785D01*
X0260600Y0067181D02*
X0260600Y0064112D01*
X0260600Y0065646D02*
X0255996Y0065646D01*
X0257531Y0064112D01*
X0256763Y0062577D02*
X0255996Y0061810D01*
X0255996Y0059508D01*
X0260600Y0059508D01*
X0260600Y0061810D01*
X0259833Y0062577D01*
X0256763Y0062577D01*
X0255996Y0057973D02*
X0255996Y0054904D01*
X0260600Y0054904D01*
X0260600Y0057973D01*
X0258298Y0056439D02*
X0258298Y0054904D01*
X0260600Y0053369D02*
X0260600Y0050300D01*
X0255996Y0050300D01*
X0256763Y0043785D02*
X0255996Y0043018D01*
X0255996Y0041483D01*
X0256763Y0040716D01*
X0257531Y0040716D01*
X0258298Y0041483D01*
X0258298Y0043785D01*
X0259833Y0043785D02*
X0256763Y0043785D01*
X0259833Y0043785D02*
X0260600Y0043018D01*
X0260600Y0041483D01*
X0259833Y0040716D01*
X0260600Y0039181D02*
X0260600Y0036112D01*
X0260600Y0037646D02*
X0255996Y0037646D01*
X0257531Y0036112D01*
X0256763Y0034577D02*
X0255996Y0033810D01*
X0255996Y0031508D01*
X0260600Y0031508D01*
X0260600Y0033810D01*
X0259833Y0034577D01*
X0256763Y0034577D01*
X0255996Y0029973D02*
X0255996Y0026904D01*
X0260600Y0026904D01*
X0260600Y0029973D01*
X0258298Y0028439D02*
X0258298Y0026904D01*
X0260600Y0025369D02*
X0260600Y0022300D01*
X0255996Y0022300D01*
X0263832Y0024935D02*
X0263755Y0025008D01*
X0263680Y0025083D01*
X0263609Y0025161D01*
X0263540Y0025242D01*
X0263474Y0025325D01*
X0263411Y0025410D01*
X0263352Y0025498D01*
X0263295Y0025587D01*
X0263242Y0025679D01*
X0263192Y0025773D01*
X0263146Y0025868D01*
X0263103Y0025965D01*
X0263064Y0026063D01*
X0263028Y0026163D01*
X0262996Y0026264D01*
X0262968Y0026366D01*
X0262943Y0026469D01*
X0262922Y0026573D01*
X0262905Y0026678D01*
X0262891Y0026783D01*
X0262882Y0026888D01*
X0262876Y0026994D01*
X0262874Y0027100D01*
X0262876Y0027206D01*
X0262882Y0027312D01*
X0262891Y0027417D01*
X0262905Y0027522D01*
X0262922Y0027627D01*
X0262943Y0027731D01*
X0262968Y0027834D01*
X0262996Y0027936D01*
X0263028Y0028037D01*
X0263064Y0028137D01*
X0263103Y0028235D01*
X0263146Y0028332D01*
X0263192Y0028427D01*
X0263242Y0028521D01*
X0263295Y0028613D01*
X0263352Y0028702D01*
X0263411Y0028790D01*
X0263474Y0028875D01*
X0263540Y0028958D01*
X0263609Y0029039D01*
X0263680Y0029117D01*
X0263755Y0029192D01*
X0263832Y0029265D01*
X0267768Y0029265D02*
X0267845Y0029192D01*
X0267920Y0029117D01*
X0267991Y0029039D01*
X0268060Y0028958D01*
X0268126Y0028875D01*
X0268189Y0028790D01*
X0268248Y0028702D01*
X0268305Y0028613D01*
X0268358Y0028521D01*
X0268408Y0028427D01*
X0268454Y0028332D01*
X0268497Y0028235D01*
X0268536Y0028137D01*
X0268572Y0028037D01*
X0268604Y0027936D01*
X0268632Y0027834D01*
X0268657Y0027731D01*
X0268678Y0027627D01*
X0268695Y0027522D01*
X0268709Y0027417D01*
X0268718Y0027312D01*
X0268724Y0027206D01*
X0268726Y0027100D01*
X0268724Y0026994D01*
X0268718Y0026888D01*
X0268709Y0026783D01*
X0268695Y0026678D01*
X0268678Y0026573D01*
X0268657Y0026469D01*
X0268632Y0026366D01*
X0268604Y0026264D01*
X0268572Y0026163D01*
X0268536Y0026063D01*
X0268497Y0025965D01*
X0268454Y0025868D01*
X0268408Y0025773D01*
X0268358Y0025679D01*
X0268305Y0025587D01*
X0268248Y0025498D01*
X0268189Y0025410D01*
X0268126Y0025325D01*
X0268060Y0025242D01*
X0267991Y0025161D01*
X0267920Y0025083D01*
X0267845Y0025008D01*
X0267768Y0024935D01*
X0263832Y0052935D02*
X0263755Y0053008D01*
X0263680Y0053083D01*
X0263609Y0053161D01*
X0263540Y0053242D01*
X0263474Y0053325D01*
X0263411Y0053410D01*
X0263352Y0053498D01*
X0263295Y0053587D01*
X0263242Y0053679D01*
X0263192Y0053773D01*
X0263146Y0053868D01*
X0263103Y0053965D01*
X0263064Y0054063D01*
X0263028Y0054163D01*
X0262996Y0054264D01*
X0262968Y0054366D01*
X0262943Y0054469D01*
X0262922Y0054573D01*
X0262905Y0054678D01*
X0262891Y0054783D01*
X0262882Y0054888D01*
X0262876Y0054994D01*
X0262874Y0055100D01*
X0262876Y0055206D01*
X0262882Y0055312D01*
X0262891Y0055417D01*
X0262905Y0055522D01*
X0262922Y0055627D01*
X0262943Y0055731D01*
X0262968Y0055834D01*
X0262996Y0055936D01*
X0263028Y0056037D01*
X0263064Y0056137D01*
X0263103Y0056235D01*
X0263146Y0056332D01*
X0263192Y0056427D01*
X0263242Y0056521D01*
X0263295Y0056613D01*
X0263352Y0056702D01*
X0263411Y0056790D01*
X0263474Y0056875D01*
X0263540Y0056958D01*
X0263609Y0057039D01*
X0263680Y0057117D01*
X0263755Y0057192D01*
X0263832Y0057265D01*
X0267768Y0057265D02*
X0267845Y0057192D01*
X0267920Y0057117D01*
X0267991Y0057039D01*
X0268060Y0056958D01*
X0268126Y0056875D01*
X0268189Y0056790D01*
X0268248Y0056702D01*
X0268305Y0056613D01*
X0268358Y0056521D01*
X0268408Y0056427D01*
X0268454Y0056332D01*
X0268497Y0056235D01*
X0268536Y0056137D01*
X0268572Y0056037D01*
X0268604Y0055936D01*
X0268632Y0055834D01*
X0268657Y0055731D01*
X0268678Y0055627D01*
X0268695Y0055522D01*
X0268709Y0055417D01*
X0268718Y0055312D01*
X0268724Y0055206D01*
X0268726Y0055100D01*
X0268724Y0054994D01*
X0268718Y0054888D01*
X0268709Y0054783D01*
X0268695Y0054678D01*
X0268678Y0054573D01*
X0268657Y0054469D01*
X0268632Y0054366D01*
X0268604Y0054264D01*
X0268572Y0054163D01*
X0268536Y0054063D01*
X0268497Y0053965D01*
X0268454Y0053868D01*
X0268408Y0053773D01*
X0268358Y0053679D01*
X0268305Y0053587D01*
X0268248Y0053498D01*
X0268189Y0053410D01*
X0268126Y0053325D01*
X0268060Y0053242D01*
X0267991Y0053161D01*
X0267920Y0053083D01*
X0267845Y0053008D01*
X0267768Y0052935D01*
X0130768Y0051935D02*
X0130845Y0052008D01*
X0130920Y0052083D01*
X0130991Y0052161D01*
X0131060Y0052242D01*
X0131126Y0052325D01*
X0131189Y0052410D01*
X0131248Y0052498D01*
X0131305Y0052587D01*
X0131358Y0052679D01*
X0131408Y0052773D01*
X0131454Y0052868D01*
X0131497Y0052965D01*
X0131536Y0053063D01*
X0131572Y0053163D01*
X0131604Y0053264D01*
X0131632Y0053366D01*
X0131657Y0053469D01*
X0131678Y0053573D01*
X0131695Y0053678D01*
X0131709Y0053783D01*
X0131718Y0053888D01*
X0131724Y0053994D01*
X0131726Y0054100D01*
X0131724Y0054206D01*
X0131718Y0054312D01*
X0131709Y0054417D01*
X0131695Y0054522D01*
X0131678Y0054627D01*
X0131657Y0054731D01*
X0131632Y0054834D01*
X0131604Y0054936D01*
X0131572Y0055037D01*
X0131536Y0055137D01*
X0131497Y0055235D01*
X0131454Y0055332D01*
X0131408Y0055427D01*
X0131358Y0055521D01*
X0131305Y0055613D01*
X0131248Y0055702D01*
X0131189Y0055790D01*
X0131126Y0055875D01*
X0131060Y0055958D01*
X0130991Y0056039D01*
X0130920Y0056117D01*
X0130845Y0056192D01*
X0130768Y0056265D01*
X0126832Y0056265D02*
X0126755Y0056192D01*
X0126680Y0056117D01*
X0126609Y0056039D01*
X0126540Y0055958D01*
X0126474Y0055875D01*
X0126411Y0055790D01*
X0126352Y0055702D01*
X0126295Y0055613D01*
X0126242Y0055521D01*
X0126192Y0055427D01*
X0126146Y0055332D01*
X0126103Y0055235D01*
X0126064Y0055137D01*
X0126028Y0055037D01*
X0125996Y0054936D01*
X0125968Y0054834D01*
X0125943Y0054731D01*
X0125922Y0054627D01*
X0125905Y0054522D01*
X0125891Y0054417D01*
X0125882Y0054312D01*
X0125876Y0054206D01*
X0125874Y0054100D01*
X0125876Y0053994D01*
X0125882Y0053888D01*
X0125891Y0053783D01*
X0125905Y0053678D01*
X0125922Y0053573D01*
X0125943Y0053469D01*
X0125968Y0053366D01*
X0125996Y0053264D01*
X0126028Y0053163D01*
X0126064Y0053063D01*
X0126103Y0052965D01*
X0126146Y0052868D01*
X0126192Y0052773D01*
X0126242Y0052679D01*
X0126295Y0052587D01*
X0126352Y0052498D01*
X0126411Y0052410D01*
X0126474Y0052325D01*
X0126540Y0052242D01*
X0126609Y0052161D01*
X0126680Y0052083D01*
X0126755Y0052008D01*
X0126832Y0051935D01*
X0123600Y0052369D02*
X0123600Y0049300D01*
X0118996Y0049300D01*
X0118996Y0053904D02*
X0123600Y0053904D01*
X0123600Y0056973D01*
X0123600Y0058508D02*
X0123600Y0060810D01*
X0122833Y0061577D01*
X0119763Y0061577D01*
X0118996Y0060810D01*
X0118996Y0058508D01*
X0123600Y0058508D01*
X0121298Y0055439D02*
X0121298Y0053904D01*
X0118996Y0053904D02*
X0118996Y0056973D01*
X0119763Y0063112D02*
X0118996Y0063879D01*
X0118996Y0065414D01*
X0119763Y0066181D01*
X0120531Y0066181D01*
X0121298Y0065414D01*
X0121298Y0063879D01*
X0120531Y0063112D01*
X0119763Y0063112D01*
X0121298Y0063879D02*
X0122065Y0063112D01*
X0122833Y0063112D01*
X0123600Y0063879D01*
X0123600Y0065414D01*
X0122833Y0066181D01*
X0122065Y0066181D01*
X0121298Y0065414D01*
X0118996Y0076300D02*
X0123600Y0076300D01*
X0123600Y0079369D01*
X0123600Y0080904D02*
X0123600Y0083973D01*
X0123600Y0085508D02*
X0123600Y0087810D01*
X0122833Y0088577D01*
X0119763Y0088577D01*
X0118996Y0087810D01*
X0118996Y0085508D01*
X0123600Y0085508D01*
X0121298Y0082439D02*
X0121298Y0080904D01*
X0118996Y0080904D02*
X0123600Y0080904D01*
X0126832Y0078935D02*
X0126755Y0079008D01*
X0126680Y0079083D01*
X0126609Y0079161D01*
X0126540Y0079242D01*
X0126474Y0079325D01*
X0126411Y0079410D01*
X0126352Y0079498D01*
X0126295Y0079587D01*
X0126242Y0079679D01*
X0126192Y0079773D01*
X0126146Y0079868D01*
X0126103Y0079965D01*
X0126064Y0080063D01*
X0126028Y0080163D01*
X0125996Y0080264D01*
X0125968Y0080366D01*
X0125943Y0080469D01*
X0125922Y0080573D01*
X0125905Y0080678D01*
X0125891Y0080783D01*
X0125882Y0080888D01*
X0125876Y0080994D01*
X0125874Y0081100D01*
X0125876Y0081206D01*
X0125882Y0081312D01*
X0125891Y0081417D01*
X0125905Y0081522D01*
X0125922Y0081627D01*
X0125943Y0081731D01*
X0125968Y0081834D01*
X0125996Y0081936D01*
X0126028Y0082037D01*
X0126064Y0082137D01*
X0126103Y0082235D01*
X0126146Y0082332D01*
X0126192Y0082427D01*
X0126242Y0082521D01*
X0126295Y0082613D01*
X0126352Y0082702D01*
X0126411Y0082790D01*
X0126474Y0082875D01*
X0126540Y0082958D01*
X0126609Y0083039D01*
X0126680Y0083117D01*
X0126755Y0083192D01*
X0126832Y0083265D01*
X0130768Y0083265D02*
X0130845Y0083192D01*
X0130920Y0083117D01*
X0130991Y0083039D01*
X0131060Y0082958D01*
X0131126Y0082875D01*
X0131189Y0082790D01*
X0131248Y0082702D01*
X0131305Y0082613D01*
X0131358Y0082521D01*
X0131408Y0082427D01*
X0131454Y0082332D01*
X0131497Y0082235D01*
X0131536Y0082137D01*
X0131572Y0082037D01*
X0131604Y0081936D01*
X0131632Y0081834D01*
X0131657Y0081731D01*
X0131678Y0081627D01*
X0131695Y0081522D01*
X0131709Y0081417D01*
X0131718Y0081312D01*
X0131724Y0081206D01*
X0131726Y0081100D01*
X0131724Y0080994D01*
X0131718Y0080888D01*
X0131709Y0080783D01*
X0131695Y0080678D01*
X0131678Y0080573D01*
X0131657Y0080469D01*
X0131632Y0080366D01*
X0131604Y0080264D01*
X0131572Y0080163D01*
X0131536Y0080063D01*
X0131497Y0079965D01*
X0131454Y0079868D01*
X0131408Y0079773D01*
X0131358Y0079679D01*
X0131305Y0079587D01*
X0131248Y0079498D01*
X0131189Y0079410D01*
X0131126Y0079325D01*
X0131060Y0079242D01*
X0130991Y0079161D01*
X0130920Y0079083D01*
X0130845Y0079008D01*
X0130768Y0078935D01*
X0118996Y0080904D02*
X0118996Y0083973D01*
X0119763Y0090112D02*
X0120531Y0090112D01*
X0121298Y0090879D01*
X0121298Y0093181D01*
X0119763Y0093181D02*
X0118996Y0092414D01*
X0118996Y0090879D01*
X0119763Y0090112D01*
X0122833Y0090112D02*
X0123600Y0090879D01*
X0123600Y0092414D01*
X0122833Y0093181D01*
X0119763Y0093181D01*
X0118996Y0102300D02*
X0123600Y0102300D01*
X0123600Y0105369D01*
X0123600Y0106904D02*
X0123600Y0109973D01*
X0123600Y0111508D02*
X0123600Y0113810D01*
X0122833Y0114577D01*
X0119763Y0114577D01*
X0118996Y0113810D01*
X0118996Y0111508D01*
X0123600Y0111508D01*
X0121298Y0108439D02*
X0121298Y0106904D01*
X0118996Y0106904D02*
X0123600Y0106904D01*
X0126832Y0104935D02*
X0126755Y0105008D01*
X0126680Y0105083D01*
X0126609Y0105161D01*
X0126540Y0105242D01*
X0126474Y0105325D01*
X0126411Y0105410D01*
X0126352Y0105498D01*
X0126295Y0105587D01*
X0126242Y0105679D01*
X0126192Y0105773D01*
X0126146Y0105868D01*
X0126103Y0105965D01*
X0126064Y0106063D01*
X0126028Y0106163D01*
X0125996Y0106264D01*
X0125968Y0106366D01*
X0125943Y0106469D01*
X0125922Y0106573D01*
X0125905Y0106678D01*
X0125891Y0106783D01*
X0125882Y0106888D01*
X0125876Y0106994D01*
X0125874Y0107100D01*
X0125876Y0107206D01*
X0125882Y0107312D01*
X0125891Y0107417D01*
X0125905Y0107522D01*
X0125922Y0107627D01*
X0125943Y0107731D01*
X0125968Y0107834D01*
X0125996Y0107936D01*
X0126028Y0108037D01*
X0126064Y0108137D01*
X0126103Y0108235D01*
X0126146Y0108332D01*
X0126192Y0108427D01*
X0126242Y0108521D01*
X0126295Y0108613D01*
X0126352Y0108702D01*
X0126411Y0108790D01*
X0126474Y0108875D01*
X0126540Y0108958D01*
X0126609Y0109039D01*
X0126680Y0109117D01*
X0126755Y0109192D01*
X0126832Y0109265D01*
X0130768Y0109265D02*
X0130845Y0109192D01*
X0130920Y0109117D01*
X0130991Y0109039D01*
X0131060Y0108958D01*
X0131126Y0108875D01*
X0131189Y0108790D01*
X0131248Y0108702D01*
X0131305Y0108613D01*
X0131358Y0108521D01*
X0131408Y0108427D01*
X0131454Y0108332D01*
X0131497Y0108235D01*
X0131536Y0108137D01*
X0131572Y0108037D01*
X0131604Y0107936D01*
X0131632Y0107834D01*
X0131657Y0107731D01*
X0131678Y0107627D01*
X0131695Y0107522D01*
X0131709Y0107417D01*
X0131718Y0107312D01*
X0131724Y0107206D01*
X0131726Y0107100D01*
X0131724Y0106994D01*
X0131718Y0106888D01*
X0131709Y0106783D01*
X0131695Y0106678D01*
X0131678Y0106573D01*
X0131657Y0106469D01*
X0131632Y0106366D01*
X0131604Y0106264D01*
X0131572Y0106163D01*
X0131536Y0106063D01*
X0131497Y0105965D01*
X0131454Y0105868D01*
X0131408Y0105773D01*
X0131358Y0105679D01*
X0131305Y0105587D01*
X0131248Y0105498D01*
X0131189Y0105410D01*
X0131126Y0105325D01*
X0131060Y0105242D01*
X0130991Y0105161D01*
X0130920Y0105083D01*
X0130845Y0105008D01*
X0130768Y0104935D01*
X0118996Y0106904D02*
X0118996Y0109973D01*
X0120531Y0116112D02*
X0118996Y0117646D01*
X0123600Y0117646D01*
X0123600Y0116112D02*
X0123600Y0119181D01*
X0122833Y0120716D02*
X0123600Y0121483D01*
X0123600Y0123018D01*
X0122833Y0123785D01*
X0119763Y0123785D01*
X0122833Y0120716D01*
X0119763Y0120716D01*
X0118996Y0121483D01*
X0118996Y0123018D01*
X0119763Y0123785D01*
X0118996Y0126300D02*
X0123600Y0126300D01*
X0123600Y0129369D01*
X0123600Y0130904D02*
X0123600Y0133973D01*
X0123600Y0135508D02*
X0123600Y0137810D01*
X0122833Y0138577D01*
X0119763Y0138577D01*
X0118996Y0137810D01*
X0118996Y0135508D01*
X0123600Y0135508D01*
X0121298Y0132439D02*
X0121298Y0130904D01*
X0118996Y0130904D02*
X0118996Y0133973D01*
X0118996Y0130904D02*
X0123600Y0130904D01*
X0126832Y0128935D02*
X0126755Y0129008D01*
X0126680Y0129083D01*
X0126609Y0129161D01*
X0126540Y0129242D01*
X0126474Y0129325D01*
X0126411Y0129410D01*
X0126352Y0129498D01*
X0126295Y0129587D01*
X0126242Y0129679D01*
X0126192Y0129773D01*
X0126146Y0129868D01*
X0126103Y0129965D01*
X0126064Y0130063D01*
X0126028Y0130163D01*
X0125996Y0130264D01*
X0125968Y0130366D01*
X0125943Y0130469D01*
X0125922Y0130573D01*
X0125905Y0130678D01*
X0125891Y0130783D01*
X0125882Y0130888D01*
X0125876Y0130994D01*
X0125874Y0131100D01*
X0125876Y0131206D01*
X0125882Y0131312D01*
X0125891Y0131417D01*
X0125905Y0131522D01*
X0125922Y0131627D01*
X0125943Y0131731D01*
X0125968Y0131834D01*
X0125996Y0131936D01*
X0126028Y0132037D01*
X0126064Y0132137D01*
X0126103Y0132235D01*
X0126146Y0132332D01*
X0126192Y0132427D01*
X0126242Y0132521D01*
X0126295Y0132613D01*
X0126352Y0132702D01*
X0126411Y0132790D01*
X0126474Y0132875D01*
X0126540Y0132958D01*
X0126609Y0133039D01*
X0126680Y0133117D01*
X0126755Y0133192D01*
X0126832Y0133265D01*
X0130768Y0133265D02*
X0130845Y0133192D01*
X0130920Y0133117D01*
X0130991Y0133039D01*
X0131060Y0132958D01*
X0131126Y0132875D01*
X0131189Y0132790D01*
X0131248Y0132702D01*
X0131305Y0132613D01*
X0131358Y0132521D01*
X0131408Y0132427D01*
X0131454Y0132332D01*
X0131497Y0132235D01*
X0131536Y0132137D01*
X0131572Y0132037D01*
X0131604Y0131936D01*
X0131632Y0131834D01*
X0131657Y0131731D01*
X0131678Y0131627D01*
X0131695Y0131522D01*
X0131709Y0131417D01*
X0131718Y0131312D01*
X0131724Y0131206D01*
X0131726Y0131100D01*
X0131724Y0130994D01*
X0131718Y0130888D01*
X0131709Y0130783D01*
X0131695Y0130678D01*
X0131678Y0130573D01*
X0131657Y0130469D01*
X0131632Y0130366D01*
X0131604Y0130264D01*
X0131572Y0130163D01*
X0131536Y0130063D01*
X0131497Y0129965D01*
X0131454Y0129868D01*
X0131408Y0129773D01*
X0131358Y0129679D01*
X0131305Y0129587D01*
X0131248Y0129498D01*
X0131189Y0129410D01*
X0131126Y0129325D01*
X0131060Y0129242D01*
X0130991Y0129161D01*
X0130920Y0129083D01*
X0130845Y0129008D01*
X0130768Y0128935D01*
X0123600Y0140112D02*
X0123600Y0143181D01*
X0123600Y0141646D02*
X0118996Y0141646D01*
X0120531Y0140112D01*
X0120531Y0144716D02*
X0118996Y0146250D01*
X0123600Y0146250D01*
X0123600Y0144716D02*
X0123600Y0147785D01*
X0123600Y0150300D02*
X0123600Y0153369D01*
X0123600Y0154904D02*
X0123600Y0157973D01*
X0123600Y0159508D02*
X0123600Y0161810D01*
X0122833Y0162577D01*
X0119763Y0162577D01*
X0118996Y0161810D01*
X0118996Y0159508D01*
X0123600Y0159508D01*
X0121298Y0156439D02*
X0121298Y0154904D01*
X0118996Y0154904D02*
X0123600Y0154904D01*
X0126832Y0152935D02*
X0126755Y0153008D01*
X0126680Y0153083D01*
X0126609Y0153161D01*
X0126540Y0153242D01*
X0126474Y0153325D01*
X0126411Y0153410D01*
X0126352Y0153498D01*
X0126295Y0153587D01*
X0126242Y0153679D01*
X0126192Y0153773D01*
X0126146Y0153868D01*
X0126103Y0153965D01*
X0126064Y0154063D01*
X0126028Y0154163D01*
X0125996Y0154264D01*
X0125968Y0154366D01*
X0125943Y0154469D01*
X0125922Y0154573D01*
X0125905Y0154678D01*
X0125891Y0154783D01*
X0125882Y0154888D01*
X0125876Y0154994D01*
X0125874Y0155100D01*
X0125876Y0155206D01*
X0125882Y0155312D01*
X0125891Y0155417D01*
X0125905Y0155522D01*
X0125922Y0155627D01*
X0125943Y0155731D01*
X0125968Y0155834D01*
X0125996Y0155936D01*
X0126028Y0156037D01*
X0126064Y0156137D01*
X0126103Y0156235D01*
X0126146Y0156332D01*
X0126192Y0156427D01*
X0126242Y0156521D01*
X0126295Y0156613D01*
X0126352Y0156702D01*
X0126411Y0156790D01*
X0126474Y0156875D01*
X0126540Y0156958D01*
X0126609Y0157039D01*
X0126680Y0157117D01*
X0126755Y0157192D01*
X0126832Y0157265D01*
X0130768Y0157265D02*
X0130845Y0157192D01*
X0130920Y0157117D01*
X0130991Y0157039D01*
X0131060Y0156958D01*
X0131126Y0156875D01*
X0131189Y0156790D01*
X0131248Y0156702D01*
X0131305Y0156613D01*
X0131358Y0156521D01*
X0131408Y0156427D01*
X0131454Y0156332D01*
X0131497Y0156235D01*
X0131536Y0156137D01*
X0131572Y0156037D01*
X0131604Y0155936D01*
X0131632Y0155834D01*
X0131657Y0155731D01*
X0131678Y0155627D01*
X0131695Y0155522D01*
X0131709Y0155417D01*
X0131718Y0155312D01*
X0131724Y0155206D01*
X0131726Y0155100D01*
X0131724Y0154994D01*
X0131718Y0154888D01*
X0131709Y0154783D01*
X0131695Y0154678D01*
X0131678Y0154573D01*
X0131657Y0154469D01*
X0131632Y0154366D01*
X0131604Y0154264D01*
X0131572Y0154163D01*
X0131536Y0154063D01*
X0131497Y0153965D01*
X0131454Y0153868D01*
X0131408Y0153773D01*
X0131358Y0153679D01*
X0131305Y0153587D01*
X0131248Y0153498D01*
X0131189Y0153410D01*
X0131126Y0153325D01*
X0131060Y0153242D01*
X0130991Y0153161D01*
X0130920Y0153083D01*
X0130845Y0153008D01*
X0130768Y0152935D01*
X0123600Y0150300D02*
X0118996Y0150300D01*
X0118996Y0154904D02*
X0118996Y0157973D01*
X0120531Y0164112D02*
X0118996Y0165646D01*
X0123600Y0165646D01*
X0123600Y0164112D02*
X0123600Y0167181D01*
X0123600Y0168716D02*
X0120531Y0171785D01*
X0119763Y0171785D01*
X0118996Y0171018D01*
X0118996Y0169483D01*
X0119763Y0168716D01*
X0123600Y0168716D02*
X0123600Y0171785D01*
X0153996Y0153498D02*
X0153996Y0151963D01*
X0154763Y0151196D01*
X0154763Y0149661D02*
X0156298Y0149661D01*
X0157065Y0148894D01*
X0157065Y0146592D01*
X0157065Y0148127D02*
X0158600Y0149661D01*
X0158600Y0151196D02*
X0155531Y0154265D01*
X0154763Y0154265D01*
X0153996Y0153498D01*
X0158600Y0154265D02*
X0158600Y0151196D01*
X0154763Y0149661D02*
X0153996Y0148894D01*
X0153996Y0146592D01*
X0158600Y0146592D01*
X0201000Y0144904D02*
X0201000Y0140300D01*
X0201000Y0141835D02*
X0203302Y0141835D01*
X0204069Y0142602D01*
X0204069Y0144137D01*
X0203302Y0144904D01*
X0201000Y0144904D01*
X0202535Y0141835D02*
X0204069Y0140300D01*
X0205604Y0140300D02*
X0208673Y0140300D01*
X0207139Y0140300D02*
X0207139Y0144904D01*
X0205604Y0143369D01*
X0210996Y0141439D02*
X0215600Y0141439D01*
X0215600Y0142973D02*
X0215600Y0139904D01*
X0214833Y0138369D02*
X0215600Y0137602D01*
X0215600Y0136067D01*
X0214833Y0135300D01*
X0211763Y0135300D01*
X0210996Y0136067D01*
X0210996Y0137602D01*
X0211763Y0138369D01*
X0212531Y0139904D02*
X0210996Y0141439D01*
X0255996Y0144716D02*
X0255996Y0147785D01*
X0257531Y0164112D02*
X0255996Y0165646D01*
X0260600Y0165646D01*
X0260600Y0164112D02*
X0260600Y0167181D01*
X0259833Y0168716D02*
X0259065Y0168716D01*
X0258298Y0169483D01*
X0258298Y0171018D01*
X0259065Y0171785D01*
X0259833Y0171785D01*
X0260600Y0171018D01*
X0260600Y0169483D01*
X0259833Y0168716D01*
X0258298Y0169483D02*
X0257531Y0168716D01*
X0256763Y0168716D01*
X0255996Y0169483D01*
X0255996Y0171018D01*
X0256763Y0171785D01*
X0257531Y0171785D01*
X0258298Y0171018D01*
X0263832Y0133265D02*
X0263755Y0133192D01*
X0263680Y0133117D01*
X0263609Y0133039D01*
X0263540Y0132958D01*
X0263474Y0132875D01*
X0263411Y0132790D01*
X0263352Y0132702D01*
X0263295Y0132613D01*
X0263242Y0132521D01*
X0263192Y0132427D01*
X0263146Y0132332D01*
X0263103Y0132235D01*
X0263064Y0132137D01*
X0263028Y0132037D01*
X0262996Y0131936D01*
X0262968Y0131834D01*
X0262943Y0131731D01*
X0262922Y0131627D01*
X0262905Y0131522D01*
X0262891Y0131417D01*
X0262882Y0131312D01*
X0262876Y0131206D01*
X0262874Y0131100D01*
X0262876Y0130994D01*
X0262882Y0130888D01*
X0262891Y0130783D01*
X0262905Y0130678D01*
X0262922Y0130573D01*
X0262943Y0130469D01*
X0262968Y0130366D01*
X0262996Y0130264D01*
X0263028Y0130163D01*
X0263064Y0130063D01*
X0263103Y0129965D01*
X0263146Y0129868D01*
X0263192Y0129773D01*
X0263242Y0129679D01*
X0263295Y0129587D01*
X0263352Y0129498D01*
X0263411Y0129410D01*
X0263474Y0129325D01*
X0263540Y0129242D01*
X0263609Y0129161D01*
X0263680Y0129083D01*
X0263755Y0129008D01*
X0263832Y0128935D01*
X0267768Y0128935D02*
X0267845Y0129008D01*
X0267920Y0129083D01*
X0267991Y0129161D01*
X0268060Y0129242D01*
X0268126Y0129325D01*
X0268189Y0129410D01*
X0268248Y0129498D01*
X0268305Y0129587D01*
X0268358Y0129679D01*
X0268408Y0129773D01*
X0268454Y0129868D01*
X0268497Y0129965D01*
X0268536Y0130063D01*
X0268572Y0130163D01*
X0268604Y0130264D01*
X0268632Y0130366D01*
X0268657Y0130469D01*
X0268678Y0130573D01*
X0268695Y0130678D01*
X0268709Y0130783D01*
X0268718Y0130888D01*
X0268724Y0130994D01*
X0268726Y0131100D01*
X0268724Y0131206D01*
X0268718Y0131312D01*
X0268709Y0131417D01*
X0268695Y0131522D01*
X0268678Y0131627D01*
X0268657Y0131731D01*
X0268632Y0131834D01*
X0268604Y0131936D01*
X0268572Y0132037D01*
X0268536Y0132137D01*
X0268497Y0132235D01*
X0268454Y0132332D01*
X0268408Y0132427D01*
X0268358Y0132521D01*
X0268305Y0132613D01*
X0268248Y0132702D01*
X0268189Y0132790D01*
X0268126Y0132875D01*
X0268060Y0132958D01*
X0267991Y0133039D01*
X0267920Y0133117D01*
X0267845Y0133192D01*
X0267768Y0133265D01*
X0123600Y0044018D02*
X0122833Y0044785D01*
X0122065Y0044785D01*
X0121298Y0044018D01*
X0121298Y0043250D01*
X0121298Y0044018D02*
X0120531Y0044785D01*
X0119763Y0044785D01*
X0118996Y0044018D01*
X0118996Y0042483D01*
X0119763Y0041716D01*
X0122833Y0041716D02*
X0123600Y0042483D01*
X0123600Y0044018D01*
X0123600Y0040181D02*
X0123600Y0037112D01*
X0123600Y0038646D02*
X0118996Y0038646D01*
X0120531Y0037112D01*
X0119763Y0035577D02*
X0118996Y0034810D01*
X0118996Y0032508D01*
X0123600Y0032508D01*
X0123600Y0034810D01*
X0122833Y0035577D01*
X0119763Y0035577D01*
X0118996Y0030973D02*
X0118996Y0027904D01*
X0123600Y0027904D01*
X0123600Y0030973D01*
X0121298Y0029439D02*
X0121298Y0027904D01*
X0123600Y0026369D02*
X0123600Y0023300D01*
X0118996Y0023300D01*
X0126832Y0025935D02*
X0126755Y0026008D01*
X0126680Y0026083D01*
X0126609Y0026161D01*
X0126540Y0026242D01*
X0126474Y0026325D01*
X0126411Y0026410D01*
X0126352Y0026498D01*
X0126295Y0026587D01*
X0126242Y0026679D01*
X0126192Y0026773D01*
X0126146Y0026868D01*
X0126103Y0026965D01*
X0126064Y0027063D01*
X0126028Y0027163D01*
X0125996Y0027264D01*
X0125968Y0027366D01*
X0125943Y0027469D01*
X0125922Y0027573D01*
X0125905Y0027678D01*
X0125891Y0027783D01*
X0125882Y0027888D01*
X0125876Y0027994D01*
X0125874Y0028100D01*
X0125876Y0028206D01*
X0125882Y0028312D01*
X0125891Y0028417D01*
X0125905Y0028522D01*
X0125922Y0028627D01*
X0125943Y0028731D01*
X0125968Y0028834D01*
X0125996Y0028936D01*
X0126028Y0029037D01*
X0126064Y0029137D01*
X0126103Y0029235D01*
X0126146Y0029332D01*
X0126192Y0029427D01*
X0126242Y0029521D01*
X0126295Y0029613D01*
X0126352Y0029702D01*
X0126411Y0029790D01*
X0126474Y0029875D01*
X0126540Y0029958D01*
X0126609Y0030039D01*
X0126680Y0030117D01*
X0126755Y0030192D01*
X0126832Y0030265D01*
X0130768Y0030265D02*
X0130845Y0030192D01*
X0130920Y0030117D01*
X0130991Y0030039D01*
X0131060Y0029958D01*
X0131126Y0029875D01*
X0131189Y0029790D01*
X0131248Y0029702D01*
X0131305Y0029613D01*
X0131358Y0029521D01*
X0131408Y0029427D01*
X0131454Y0029332D01*
X0131497Y0029235D01*
X0131536Y0029137D01*
X0131572Y0029037D01*
X0131604Y0028936D01*
X0131632Y0028834D01*
X0131657Y0028731D01*
X0131678Y0028627D01*
X0131695Y0028522D01*
X0131709Y0028417D01*
X0131718Y0028312D01*
X0131724Y0028206D01*
X0131726Y0028100D01*
X0131724Y0027994D01*
X0131718Y0027888D01*
X0131709Y0027783D01*
X0131695Y0027678D01*
X0131678Y0027573D01*
X0131657Y0027469D01*
X0131632Y0027366D01*
X0131604Y0027264D01*
X0131572Y0027163D01*
X0131536Y0027063D01*
X0131497Y0026965D01*
X0131454Y0026868D01*
X0131408Y0026773D01*
X0131358Y0026679D01*
X0131305Y0026587D01*
X0131248Y0026498D01*
X0131189Y0026410D01*
X0131126Y0026325D01*
X0131060Y0026242D01*
X0130991Y0026161D01*
X0130920Y0026083D01*
X0130845Y0026008D01*
X0130768Y0025935D01*
X0022568Y0024735D02*
X0022645Y0024808D01*
X0022720Y0024883D01*
X0022791Y0024961D01*
X0022860Y0025042D01*
X0022926Y0025125D01*
X0022989Y0025210D01*
X0023048Y0025298D01*
X0023105Y0025387D01*
X0023158Y0025479D01*
X0023208Y0025573D01*
X0023254Y0025668D01*
X0023297Y0025765D01*
X0023336Y0025863D01*
X0023372Y0025963D01*
X0023404Y0026064D01*
X0023432Y0026166D01*
X0023457Y0026269D01*
X0023478Y0026373D01*
X0023495Y0026478D01*
X0023509Y0026583D01*
X0023518Y0026688D01*
X0023524Y0026794D01*
X0023526Y0026900D01*
X0023524Y0027006D01*
X0023518Y0027112D01*
X0023509Y0027217D01*
X0023495Y0027322D01*
X0023478Y0027427D01*
X0023457Y0027531D01*
X0023432Y0027634D01*
X0023404Y0027736D01*
X0023372Y0027837D01*
X0023336Y0027937D01*
X0023297Y0028035D01*
X0023254Y0028132D01*
X0023208Y0028227D01*
X0023158Y0028321D01*
X0023105Y0028413D01*
X0023048Y0028502D01*
X0022989Y0028590D01*
X0022926Y0028675D01*
X0022860Y0028758D01*
X0022791Y0028839D01*
X0022720Y0028917D01*
X0022645Y0028992D01*
X0022568Y0029065D01*
X0018632Y0029065D02*
X0018555Y0028992D01*
X0018480Y0028917D01*
X0018409Y0028839D01*
X0018340Y0028758D01*
X0018274Y0028675D01*
X0018211Y0028590D01*
X0018152Y0028502D01*
X0018095Y0028413D01*
X0018042Y0028321D01*
X0017992Y0028227D01*
X0017946Y0028132D01*
X0017903Y0028035D01*
X0017864Y0027937D01*
X0017828Y0027837D01*
X0017796Y0027736D01*
X0017768Y0027634D01*
X0017743Y0027531D01*
X0017722Y0027427D01*
X0017705Y0027322D01*
X0017691Y0027217D01*
X0017682Y0027112D01*
X0017676Y0027006D01*
X0017674Y0026900D01*
X0017676Y0026794D01*
X0017682Y0026688D01*
X0017691Y0026583D01*
X0017705Y0026478D01*
X0017722Y0026373D01*
X0017743Y0026269D01*
X0017768Y0026166D01*
X0017796Y0026064D01*
X0017828Y0025963D01*
X0017864Y0025863D01*
X0017903Y0025765D01*
X0017946Y0025668D01*
X0017992Y0025573D01*
X0018042Y0025479D01*
X0018095Y0025387D01*
X0018152Y0025298D01*
X0018211Y0025210D01*
X0018274Y0025125D01*
X0018340Y0025042D01*
X0018409Y0024961D01*
X0018480Y0024883D01*
X0018555Y0024808D01*
X0018632Y0024735D01*
X0015400Y0025169D02*
X0015400Y0022100D01*
X0010796Y0022100D01*
X0010796Y0026704D02*
X0015400Y0026704D01*
X0015400Y0029773D01*
X0015400Y0031308D02*
X0010796Y0031308D01*
X0010796Y0033610D01*
X0011563Y0034377D01*
X0014633Y0034377D01*
X0015400Y0033610D01*
X0015400Y0031308D01*
X0010796Y0029773D02*
X0010796Y0026704D01*
X0013098Y0026704D02*
X0013098Y0028239D01*
X0014633Y0035912D02*
X0015400Y0035912D01*
X0014633Y0035912D02*
X0011563Y0038981D01*
X0010796Y0038981D01*
X0010796Y0035912D01*
X0010196Y0050200D02*
X0014800Y0050200D01*
X0014800Y0053269D01*
X0014800Y0054804D02*
X0014800Y0057873D01*
X0014800Y0059408D02*
X0010196Y0059408D01*
X0010196Y0061710D01*
X0010963Y0062477D01*
X0014033Y0062477D01*
X0014800Y0061710D01*
X0014800Y0059408D01*
X0010196Y0057873D02*
X0010196Y0054804D01*
X0014800Y0054804D01*
X0012498Y0054804D02*
X0012498Y0056339D01*
X0018032Y0057165D02*
X0017955Y0057092D01*
X0017880Y0057017D01*
X0017809Y0056939D01*
X0017740Y0056858D01*
X0017674Y0056775D01*
X0017611Y0056690D01*
X0017552Y0056602D01*
X0017495Y0056513D01*
X0017442Y0056421D01*
X0017392Y0056327D01*
X0017346Y0056232D01*
X0017303Y0056135D01*
X0017264Y0056037D01*
X0017228Y0055937D01*
X0017196Y0055836D01*
X0017168Y0055734D01*
X0017143Y0055631D01*
X0017122Y0055527D01*
X0017105Y0055422D01*
X0017091Y0055317D01*
X0017082Y0055212D01*
X0017076Y0055106D01*
X0017074Y0055000D01*
X0017076Y0054894D01*
X0017082Y0054788D01*
X0017091Y0054683D01*
X0017105Y0054578D01*
X0017122Y0054473D01*
X0017143Y0054369D01*
X0017168Y0054266D01*
X0017196Y0054164D01*
X0017228Y0054063D01*
X0017264Y0053963D01*
X0017303Y0053865D01*
X0017346Y0053768D01*
X0017392Y0053673D01*
X0017442Y0053579D01*
X0017495Y0053487D01*
X0017552Y0053398D01*
X0017611Y0053310D01*
X0017674Y0053225D01*
X0017740Y0053142D01*
X0017809Y0053061D01*
X0017880Y0052983D01*
X0017955Y0052908D01*
X0018032Y0052835D01*
X0021968Y0052835D02*
X0022045Y0052908D01*
X0022120Y0052983D01*
X0022191Y0053061D01*
X0022260Y0053142D01*
X0022326Y0053225D01*
X0022389Y0053310D01*
X0022448Y0053398D01*
X0022505Y0053487D01*
X0022558Y0053579D01*
X0022608Y0053673D01*
X0022654Y0053768D01*
X0022697Y0053865D01*
X0022736Y0053963D01*
X0022772Y0054063D01*
X0022804Y0054164D01*
X0022832Y0054266D01*
X0022857Y0054369D01*
X0022878Y0054473D01*
X0022895Y0054578D01*
X0022909Y0054683D01*
X0022918Y0054788D01*
X0022924Y0054894D01*
X0022926Y0055000D01*
X0022924Y0055106D01*
X0022918Y0055212D01*
X0022909Y0055317D01*
X0022895Y0055422D01*
X0022878Y0055527D01*
X0022857Y0055631D01*
X0022832Y0055734D01*
X0022804Y0055836D01*
X0022772Y0055937D01*
X0022736Y0056037D01*
X0022697Y0056135D01*
X0022654Y0056232D01*
X0022608Y0056327D01*
X0022558Y0056421D01*
X0022505Y0056513D01*
X0022448Y0056602D01*
X0022389Y0056690D01*
X0022326Y0056775D01*
X0022260Y0056858D01*
X0022191Y0056939D01*
X0022120Y0057017D01*
X0022045Y0057092D01*
X0021968Y0057165D01*
X0014800Y0064012D02*
X0011731Y0067081D01*
X0010963Y0067081D01*
X0010196Y0066314D01*
X0010196Y0064779D01*
X0010963Y0064012D01*
X0014800Y0064012D02*
X0014800Y0067081D01*
X0015300Y0075900D02*
X0010696Y0075900D01*
X0015300Y0075900D02*
X0015300Y0078969D01*
X0015300Y0080504D02*
X0010696Y0080504D01*
X0010696Y0083573D01*
X0010696Y0085108D02*
X0010696Y0087410D01*
X0011463Y0088177D01*
X0014533Y0088177D01*
X0015300Y0087410D01*
X0015300Y0085108D01*
X0010696Y0085108D01*
X0015300Y0083573D02*
X0015300Y0080504D01*
X0012998Y0080504D02*
X0012998Y0082039D01*
X0018532Y0082865D02*
X0018455Y0082792D01*
X0018380Y0082717D01*
X0018309Y0082639D01*
X0018240Y0082558D01*
X0018174Y0082475D01*
X0018111Y0082390D01*
X0018052Y0082302D01*
X0017995Y0082213D01*
X0017942Y0082121D01*
X0017892Y0082027D01*
X0017846Y0081932D01*
X0017803Y0081835D01*
X0017764Y0081737D01*
X0017728Y0081637D01*
X0017696Y0081536D01*
X0017668Y0081434D01*
X0017643Y0081331D01*
X0017622Y0081227D01*
X0017605Y0081122D01*
X0017591Y0081017D01*
X0017582Y0080912D01*
X0017576Y0080806D01*
X0017574Y0080700D01*
X0017576Y0080594D01*
X0017582Y0080488D01*
X0017591Y0080383D01*
X0017605Y0080278D01*
X0017622Y0080173D01*
X0017643Y0080069D01*
X0017668Y0079966D01*
X0017696Y0079864D01*
X0017728Y0079763D01*
X0017764Y0079663D01*
X0017803Y0079565D01*
X0017846Y0079468D01*
X0017892Y0079373D01*
X0017942Y0079279D01*
X0017995Y0079187D01*
X0018052Y0079098D01*
X0018111Y0079010D01*
X0018174Y0078925D01*
X0018240Y0078842D01*
X0018309Y0078761D01*
X0018380Y0078683D01*
X0018455Y0078608D01*
X0018532Y0078535D01*
X0022468Y0078535D02*
X0022545Y0078608D01*
X0022620Y0078683D01*
X0022691Y0078761D01*
X0022760Y0078842D01*
X0022826Y0078925D01*
X0022889Y0079010D01*
X0022948Y0079098D01*
X0023005Y0079187D01*
X0023058Y0079279D01*
X0023108Y0079373D01*
X0023154Y0079468D01*
X0023197Y0079565D01*
X0023236Y0079663D01*
X0023272Y0079763D01*
X0023304Y0079864D01*
X0023332Y0079966D01*
X0023357Y0080069D01*
X0023378Y0080173D01*
X0023395Y0080278D01*
X0023409Y0080383D01*
X0023418Y0080488D01*
X0023424Y0080594D01*
X0023426Y0080700D01*
X0023424Y0080806D01*
X0023418Y0080912D01*
X0023409Y0081017D01*
X0023395Y0081122D01*
X0023378Y0081227D01*
X0023357Y0081331D01*
X0023332Y0081434D01*
X0023304Y0081536D01*
X0023272Y0081637D01*
X0023236Y0081737D01*
X0023197Y0081835D01*
X0023154Y0081932D01*
X0023108Y0082027D01*
X0023058Y0082121D01*
X0023005Y0082213D01*
X0022948Y0082302D01*
X0022889Y0082390D01*
X0022826Y0082475D01*
X0022760Y0082558D01*
X0022691Y0082639D01*
X0022620Y0082717D01*
X0022545Y0082792D01*
X0022468Y0082865D01*
X0015300Y0090479D02*
X0014533Y0089712D01*
X0015300Y0090479D02*
X0015300Y0092014D01*
X0014533Y0092781D01*
X0013765Y0092781D01*
X0012998Y0092014D01*
X0012998Y0091246D01*
X0012998Y0092014D02*
X0012231Y0092781D01*
X0011463Y0092781D01*
X0010696Y0092014D01*
X0010696Y0090479D01*
X0011463Y0089712D01*
X0010696Y0102100D02*
X0015300Y0102100D01*
X0015300Y0105169D01*
X0015300Y0106704D02*
X0010696Y0106704D01*
X0010696Y0109773D01*
X0010696Y0111308D02*
X0010696Y0113610D01*
X0011463Y0114377D01*
X0014533Y0114377D01*
X0015300Y0113610D01*
X0015300Y0111308D01*
X0010696Y0111308D01*
X0012998Y0108239D02*
X0012998Y0106704D01*
X0015300Y0106704D02*
X0015300Y0109773D01*
X0018532Y0109065D02*
X0018455Y0108992D01*
X0018380Y0108917D01*
X0018309Y0108839D01*
X0018240Y0108758D01*
X0018174Y0108675D01*
X0018111Y0108590D01*
X0018052Y0108502D01*
X0017995Y0108413D01*
X0017942Y0108321D01*
X0017892Y0108227D01*
X0017846Y0108132D01*
X0017803Y0108035D01*
X0017764Y0107937D01*
X0017728Y0107837D01*
X0017696Y0107736D01*
X0017668Y0107634D01*
X0017643Y0107531D01*
X0017622Y0107427D01*
X0017605Y0107322D01*
X0017591Y0107217D01*
X0017582Y0107112D01*
X0017576Y0107006D01*
X0017574Y0106900D01*
X0017576Y0106794D01*
X0017582Y0106688D01*
X0017591Y0106583D01*
X0017605Y0106478D01*
X0017622Y0106373D01*
X0017643Y0106269D01*
X0017668Y0106166D01*
X0017696Y0106064D01*
X0017728Y0105963D01*
X0017764Y0105863D01*
X0017803Y0105765D01*
X0017846Y0105668D01*
X0017892Y0105573D01*
X0017942Y0105479D01*
X0017995Y0105387D01*
X0018052Y0105298D01*
X0018111Y0105210D01*
X0018174Y0105125D01*
X0018240Y0105042D01*
X0018309Y0104961D01*
X0018380Y0104883D01*
X0018455Y0104808D01*
X0018532Y0104735D01*
X0022468Y0104735D02*
X0022545Y0104808D01*
X0022620Y0104883D01*
X0022691Y0104961D01*
X0022760Y0105042D01*
X0022826Y0105125D01*
X0022889Y0105210D01*
X0022948Y0105298D01*
X0023005Y0105387D01*
X0023058Y0105479D01*
X0023108Y0105573D01*
X0023154Y0105668D01*
X0023197Y0105765D01*
X0023236Y0105863D01*
X0023272Y0105963D01*
X0023304Y0106064D01*
X0023332Y0106166D01*
X0023357Y0106269D01*
X0023378Y0106373D01*
X0023395Y0106478D01*
X0023409Y0106583D01*
X0023418Y0106688D01*
X0023424Y0106794D01*
X0023426Y0106900D01*
X0023424Y0107006D01*
X0023418Y0107112D01*
X0023409Y0107217D01*
X0023395Y0107322D01*
X0023378Y0107427D01*
X0023357Y0107531D01*
X0023332Y0107634D01*
X0023304Y0107736D01*
X0023272Y0107837D01*
X0023236Y0107937D01*
X0023197Y0108035D01*
X0023154Y0108132D01*
X0023108Y0108227D01*
X0023058Y0108321D01*
X0023005Y0108413D01*
X0022948Y0108502D01*
X0022889Y0108590D01*
X0022826Y0108675D01*
X0022760Y0108758D01*
X0022691Y0108839D01*
X0022620Y0108917D01*
X0022545Y0108992D01*
X0022468Y0109065D01*
X0012998Y0115912D02*
X0012998Y0118981D01*
X0015300Y0118214D02*
X0010696Y0118214D01*
X0012998Y0115912D01*
X0015200Y0126600D02*
X0010596Y0126600D01*
X0015200Y0126600D02*
X0015200Y0129669D01*
X0015200Y0131204D02*
X0010596Y0131204D01*
X0010596Y0134273D01*
X0010596Y0135808D02*
X0010596Y0138110D01*
X0011363Y0138877D01*
X0014433Y0138877D01*
X0015200Y0138110D01*
X0015200Y0135808D01*
X0010596Y0135808D01*
X0012898Y0132739D02*
X0012898Y0131204D01*
X0015200Y0131204D02*
X0015200Y0134273D01*
X0018432Y0133565D02*
X0018355Y0133492D01*
X0018280Y0133417D01*
X0018209Y0133339D01*
X0018140Y0133258D01*
X0018074Y0133175D01*
X0018011Y0133090D01*
X0017952Y0133002D01*
X0017895Y0132913D01*
X0017842Y0132821D01*
X0017792Y0132727D01*
X0017746Y0132632D01*
X0017703Y0132535D01*
X0017664Y0132437D01*
X0017628Y0132337D01*
X0017596Y0132236D01*
X0017568Y0132134D01*
X0017543Y0132031D01*
X0017522Y0131927D01*
X0017505Y0131822D01*
X0017491Y0131717D01*
X0017482Y0131612D01*
X0017476Y0131506D01*
X0017474Y0131400D01*
X0017476Y0131294D01*
X0017482Y0131188D01*
X0017491Y0131083D01*
X0017505Y0130978D01*
X0017522Y0130873D01*
X0017543Y0130769D01*
X0017568Y0130666D01*
X0017596Y0130564D01*
X0017628Y0130463D01*
X0017664Y0130363D01*
X0017703Y0130265D01*
X0017746Y0130168D01*
X0017792Y0130073D01*
X0017842Y0129979D01*
X0017895Y0129887D01*
X0017952Y0129798D01*
X0018011Y0129710D01*
X0018074Y0129625D01*
X0018140Y0129542D01*
X0018209Y0129461D01*
X0018280Y0129383D01*
X0018355Y0129308D01*
X0018432Y0129235D01*
X0022368Y0129235D02*
X0022445Y0129308D01*
X0022520Y0129383D01*
X0022591Y0129461D01*
X0022660Y0129542D01*
X0022726Y0129625D01*
X0022789Y0129710D01*
X0022848Y0129798D01*
X0022905Y0129887D01*
X0022958Y0129979D01*
X0023008Y0130073D01*
X0023054Y0130168D01*
X0023097Y0130265D01*
X0023136Y0130363D01*
X0023172Y0130463D01*
X0023204Y0130564D01*
X0023232Y0130666D01*
X0023257Y0130769D01*
X0023278Y0130873D01*
X0023295Y0130978D01*
X0023309Y0131083D01*
X0023318Y0131188D01*
X0023324Y0131294D01*
X0023326Y0131400D01*
X0023324Y0131506D01*
X0023318Y0131612D01*
X0023309Y0131717D01*
X0023295Y0131822D01*
X0023278Y0131927D01*
X0023257Y0132031D01*
X0023232Y0132134D01*
X0023204Y0132236D01*
X0023172Y0132337D01*
X0023136Y0132437D01*
X0023097Y0132535D01*
X0023054Y0132632D01*
X0023008Y0132727D01*
X0022958Y0132821D01*
X0022905Y0132913D01*
X0022848Y0133002D01*
X0022789Y0133090D01*
X0022726Y0133175D01*
X0022660Y0133258D01*
X0022591Y0133339D01*
X0022520Y0133417D01*
X0022445Y0133492D01*
X0022368Y0133565D01*
X0015200Y0141179D02*
X0014433Y0140412D01*
X0015200Y0141179D02*
X0015200Y0142714D01*
X0014433Y0143481D01*
X0012898Y0143481D01*
X0012131Y0142714D01*
X0012131Y0141946D01*
X0012898Y0140412D01*
X0010596Y0140412D01*
X0010596Y0143481D01*
X0010196Y0150200D02*
X0014800Y0150200D01*
X0014800Y0153269D01*
X0014800Y0154804D02*
X0014800Y0157873D01*
X0014800Y0159408D02*
X0010196Y0159408D01*
X0010196Y0161710D01*
X0010963Y0162477D01*
X0014033Y0162477D01*
X0014800Y0161710D01*
X0014800Y0159408D01*
X0010196Y0157873D02*
X0010196Y0154804D01*
X0014800Y0154804D01*
X0012498Y0154804D02*
X0012498Y0156339D01*
X0018032Y0157165D02*
X0017955Y0157092D01*
X0017880Y0157017D01*
X0017809Y0156939D01*
X0017740Y0156858D01*
X0017674Y0156775D01*
X0017611Y0156690D01*
X0017552Y0156602D01*
X0017495Y0156513D01*
X0017442Y0156421D01*
X0017392Y0156327D01*
X0017346Y0156232D01*
X0017303Y0156135D01*
X0017264Y0156037D01*
X0017228Y0155937D01*
X0017196Y0155836D01*
X0017168Y0155734D01*
X0017143Y0155631D01*
X0017122Y0155527D01*
X0017105Y0155422D01*
X0017091Y0155317D01*
X0017082Y0155212D01*
X0017076Y0155106D01*
X0017074Y0155000D01*
X0017076Y0154894D01*
X0017082Y0154788D01*
X0017091Y0154683D01*
X0017105Y0154578D01*
X0017122Y0154473D01*
X0017143Y0154369D01*
X0017168Y0154266D01*
X0017196Y0154164D01*
X0017228Y0154063D01*
X0017264Y0153963D01*
X0017303Y0153865D01*
X0017346Y0153768D01*
X0017392Y0153673D01*
X0017442Y0153579D01*
X0017495Y0153487D01*
X0017552Y0153398D01*
X0017611Y0153310D01*
X0017674Y0153225D01*
X0017740Y0153142D01*
X0017809Y0153061D01*
X0017880Y0152983D01*
X0017955Y0152908D01*
X0018032Y0152835D01*
X0021968Y0152835D02*
X0022045Y0152908D01*
X0022120Y0152983D01*
X0022191Y0153061D01*
X0022260Y0153142D01*
X0022326Y0153225D01*
X0022389Y0153310D01*
X0022448Y0153398D01*
X0022505Y0153487D01*
X0022558Y0153579D01*
X0022608Y0153673D01*
X0022654Y0153768D01*
X0022697Y0153865D01*
X0022736Y0153963D01*
X0022772Y0154063D01*
X0022804Y0154164D01*
X0022832Y0154266D01*
X0022857Y0154369D01*
X0022878Y0154473D01*
X0022895Y0154578D01*
X0022909Y0154683D01*
X0022918Y0154788D01*
X0022924Y0154894D01*
X0022926Y0155000D01*
X0022924Y0155106D01*
X0022918Y0155212D01*
X0022909Y0155317D01*
X0022895Y0155422D01*
X0022878Y0155527D01*
X0022857Y0155631D01*
X0022832Y0155734D01*
X0022804Y0155836D01*
X0022772Y0155937D01*
X0022736Y0156037D01*
X0022697Y0156135D01*
X0022654Y0156232D01*
X0022608Y0156327D01*
X0022558Y0156421D01*
X0022505Y0156513D01*
X0022448Y0156602D01*
X0022389Y0156690D01*
X0022326Y0156775D01*
X0022260Y0156858D01*
X0022191Y0156939D01*
X0022120Y0157017D01*
X0022045Y0157092D01*
X0021968Y0157165D01*
X0014800Y0164779D02*
X0014033Y0164012D01*
X0012498Y0164012D01*
X0012498Y0166314D01*
X0013265Y0167081D01*
X0014033Y0167081D01*
X0014800Y0166314D01*
X0014800Y0164779D01*
X0012498Y0164012D02*
X0010963Y0165546D01*
X0010196Y0167081D01*
X0040996Y0165614D02*
X0045600Y0165614D01*
X0045600Y0164080D02*
X0045600Y0167149D01*
X0045600Y0168684D02*
X0042531Y0171753D01*
X0041763Y0171753D01*
X0040996Y0170986D01*
X0040996Y0169451D01*
X0041763Y0168684D01*
X0045600Y0168684D02*
X0045600Y0171753D01*
X0040996Y0165614D02*
X0042531Y0164080D01*
X0043298Y0157941D02*
X0044833Y0157941D01*
X0045600Y0157174D01*
X0045600Y0154872D01*
X0047135Y0154872D02*
X0042531Y0154872D01*
X0042531Y0157174D01*
X0043298Y0157941D01*
X0042531Y0153337D02*
X0042531Y0152570D01*
X0044065Y0151035D01*
X0042531Y0151035D02*
X0045600Y0151035D01*
X0044833Y0149501D02*
X0045600Y0148733D01*
X0045600Y0147199D01*
X0044833Y0146431D01*
X0041763Y0146431D01*
X0040996Y0147199D01*
X0040996Y0148733D01*
X0041763Y0149501D01*
X0043298Y0149501D02*
X0043298Y0147966D01*
X0043298Y0149501D02*
X0044833Y0149501D01*
X0041763Y0140293D02*
X0040996Y0140293D01*
X0040996Y0137224D01*
X0040996Y0135689D02*
X0041763Y0135689D01*
X0044833Y0132620D01*
X0045600Y0132620D01*
X0043298Y0131085D02*
X0043298Y0128016D01*
X0040996Y0130318D01*
X0045600Y0130318D01*
X0049263Y0130318D02*
X0052333Y0130318D01*
X0053100Y0131085D01*
X0052333Y0132620D02*
X0051565Y0133387D01*
X0051565Y0135689D01*
X0050798Y0135689D02*
X0053100Y0135689D01*
X0053100Y0133387D01*
X0052333Y0132620D01*
X0050031Y0133387D02*
X0050031Y0134922D01*
X0050798Y0135689D01*
X0050031Y0137224D02*
X0053100Y0137224D01*
X0051565Y0137224D02*
X0050031Y0138758D01*
X0050031Y0139525D01*
X0045600Y0137224D02*
X0044833Y0137224D01*
X0041763Y0140293D01*
X0040996Y0135689D02*
X0040996Y0132620D01*
X0050031Y0131085D02*
X0050031Y0129550D01*
X0050031Y0128016D02*
X0053100Y0128016D01*
X0053100Y0125714D01*
X0052333Y0124946D01*
X0050031Y0124946D01*
X0050031Y0123412D02*
X0050031Y0121877D01*
X0049263Y0122644D02*
X0052333Y0122644D01*
X0053100Y0123412D01*
X0045600Y0121877D02*
X0045600Y0118808D01*
X0040996Y0118808D01*
X0040996Y0121877D01*
X0043298Y0120342D02*
X0043298Y0118808D01*
X0041763Y0117273D02*
X0040996Y0116506D01*
X0040996Y0114971D01*
X0041763Y0114204D01*
X0044833Y0114204D01*
X0045600Y0114971D01*
X0045600Y0116506D01*
X0044833Y0117273D01*
X0047729Y0119575D02*
X0048496Y0119575D01*
X0050031Y0119575D02*
X0050031Y0118808D01*
X0050031Y0119575D02*
X0053100Y0119575D01*
X0053100Y0118808D02*
X0053100Y0120342D01*
X0053100Y0117273D02*
X0050031Y0117273D01*
X0053100Y0117273D02*
X0053100Y0114971D01*
X0052333Y0114204D01*
X0050031Y0114204D01*
X0050798Y0112669D02*
X0050798Y0111135D01*
X0050798Y0112669D02*
X0052333Y0112669D01*
X0053100Y0111902D01*
X0053100Y0110367D01*
X0052333Y0109600D01*
X0049263Y0109600D01*
X0048496Y0110367D01*
X0048496Y0111902D01*
X0049263Y0112669D01*
X0045600Y0112669D02*
X0045600Y0109600D01*
X0040996Y0109600D01*
X0040996Y0112669D01*
X0043298Y0111135D02*
X0043298Y0109600D01*
D13*
X0020500Y0106900D03*
X0020400Y0131400D03*
X0020000Y0155000D03*
X0128800Y0155100D03*
X0128800Y0131100D03*
X0128800Y0107100D03*
X0128800Y0081100D03*
X0128800Y0054100D03*
X0128800Y0028100D03*
X0020600Y0026900D03*
X0020000Y0055000D03*
X0020500Y0080700D03*
X0265800Y0081100D03*
X0265800Y0055100D03*
X0265800Y0027100D03*
X0383800Y0027100D03*
X0383800Y0055100D03*
X0383800Y0081100D03*
X0384800Y0107100D03*
X0384800Y0131100D03*
X0383800Y0155100D03*
X0265800Y0155100D03*
X0265800Y0131100D03*
X0265800Y0107100D03*
D14*
X0268064Y0109167D03*
X0268064Y0133167D03*
X0268064Y0157167D03*
X0386064Y0157167D03*
X0387064Y0133167D03*
X0387064Y0109167D03*
X0386064Y0083167D03*
X0386064Y0057167D03*
X0386064Y0029167D03*
X0268064Y0029167D03*
X0268064Y0057167D03*
X0268064Y0083167D03*
X0131064Y0083167D03*
X0131064Y0109167D03*
X0131064Y0133167D03*
X0131064Y0157167D03*
X0022264Y0157067D03*
X0022664Y0133467D03*
X0022764Y0108967D03*
X0022764Y0082767D03*
X0022264Y0057067D03*
X0022864Y0028967D03*
X0131064Y0030167D03*
X0131064Y0056167D03*
D15*
X0070300Y0142100D02*
X0070303Y0142382D01*
X0070314Y0142664D01*
X0070331Y0142946D01*
X0070355Y0143227D01*
X0070386Y0143508D01*
X0070424Y0143787D01*
X0070469Y0144066D01*
X0070521Y0144344D01*
X0070579Y0144620D01*
X0070645Y0144894D01*
X0070717Y0145167D01*
X0070795Y0145438D01*
X0070880Y0145707D01*
X0070972Y0145974D01*
X0071071Y0146239D01*
X0071175Y0146501D01*
X0071287Y0146760D01*
X0071404Y0147017D01*
X0071528Y0147271D01*
X0071658Y0147521D01*
X0071794Y0147768D01*
X0071936Y0148012D01*
X0072084Y0148252D01*
X0072238Y0148489D01*
X0072398Y0148722D01*
X0072563Y0148951D01*
X0072734Y0149175D01*
X0072910Y0149396D01*
X0073092Y0149611D01*
X0073279Y0149823D01*
X0073471Y0150030D01*
X0073668Y0150232D01*
X0073870Y0150429D01*
X0074077Y0150621D01*
X0074289Y0150808D01*
X0074504Y0150990D01*
X0074725Y0151166D01*
X0074949Y0151337D01*
X0075178Y0151502D01*
X0075411Y0151662D01*
X0075648Y0151816D01*
X0075888Y0151964D01*
X0076132Y0152106D01*
X0076379Y0152242D01*
X0076629Y0152372D01*
X0076883Y0152496D01*
X0077140Y0152613D01*
X0077399Y0152725D01*
X0077661Y0152829D01*
X0077926Y0152928D01*
X0078193Y0153020D01*
X0078462Y0153105D01*
X0078733Y0153183D01*
X0079006Y0153255D01*
X0079280Y0153321D01*
X0079556Y0153379D01*
X0079834Y0153431D01*
X0080113Y0153476D01*
X0080392Y0153514D01*
X0080673Y0153545D01*
X0080954Y0153569D01*
X0081236Y0153586D01*
X0081518Y0153597D01*
X0081800Y0153600D01*
X0082082Y0153597D01*
X0082364Y0153586D01*
X0082646Y0153569D01*
X0082927Y0153545D01*
X0083208Y0153514D01*
X0083487Y0153476D01*
X0083766Y0153431D01*
X0084044Y0153379D01*
X0084320Y0153321D01*
X0084594Y0153255D01*
X0084867Y0153183D01*
X0085138Y0153105D01*
X0085407Y0153020D01*
X0085674Y0152928D01*
X0085939Y0152829D01*
X0086201Y0152725D01*
X0086460Y0152613D01*
X0086717Y0152496D01*
X0086971Y0152372D01*
X0087221Y0152242D01*
X0087468Y0152106D01*
X0087712Y0151964D01*
X0087952Y0151816D01*
X0088189Y0151662D01*
X0088422Y0151502D01*
X0088651Y0151337D01*
X0088875Y0151166D01*
X0089096Y0150990D01*
X0089311Y0150808D01*
X0089523Y0150621D01*
X0089730Y0150429D01*
X0089932Y0150232D01*
X0090129Y0150030D01*
X0090321Y0149823D01*
X0090508Y0149611D01*
X0090690Y0149396D01*
X0090866Y0149175D01*
X0091037Y0148951D01*
X0091202Y0148722D01*
X0091362Y0148489D01*
X0091516Y0148252D01*
X0091664Y0148012D01*
X0091806Y0147768D01*
X0091942Y0147521D01*
X0092072Y0147271D01*
X0092196Y0147017D01*
X0092313Y0146760D01*
X0092425Y0146501D01*
X0092529Y0146239D01*
X0092628Y0145974D01*
X0092720Y0145707D01*
X0092805Y0145438D01*
X0092883Y0145167D01*
X0092955Y0144894D01*
X0093021Y0144620D01*
X0093079Y0144344D01*
X0093131Y0144066D01*
X0093176Y0143787D01*
X0093214Y0143508D01*
X0093245Y0143227D01*
X0093269Y0142946D01*
X0093286Y0142664D01*
X0093297Y0142382D01*
X0093300Y0142100D01*
X0093297Y0141818D01*
X0093286Y0141536D01*
X0093269Y0141254D01*
X0093245Y0140973D01*
X0093214Y0140692D01*
X0093176Y0140413D01*
X0093131Y0140134D01*
X0093079Y0139856D01*
X0093021Y0139580D01*
X0092955Y0139306D01*
X0092883Y0139033D01*
X0092805Y0138762D01*
X0092720Y0138493D01*
X0092628Y0138226D01*
X0092529Y0137961D01*
X0092425Y0137699D01*
X0092313Y0137440D01*
X0092196Y0137183D01*
X0092072Y0136929D01*
X0091942Y0136679D01*
X0091806Y0136432D01*
X0091664Y0136188D01*
X0091516Y0135948D01*
X0091362Y0135711D01*
X0091202Y0135478D01*
X0091037Y0135249D01*
X0090866Y0135025D01*
X0090690Y0134804D01*
X0090508Y0134589D01*
X0090321Y0134377D01*
X0090129Y0134170D01*
X0089932Y0133968D01*
X0089730Y0133771D01*
X0089523Y0133579D01*
X0089311Y0133392D01*
X0089096Y0133210D01*
X0088875Y0133034D01*
X0088651Y0132863D01*
X0088422Y0132698D01*
X0088189Y0132538D01*
X0087952Y0132384D01*
X0087712Y0132236D01*
X0087468Y0132094D01*
X0087221Y0131958D01*
X0086971Y0131828D01*
X0086717Y0131704D01*
X0086460Y0131587D01*
X0086201Y0131475D01*
X0085939Y0131371D01*
X0085674Y0131272D01*
X0085407Y0131180D01*
X0085138Y0131095D01*
X0084867Y0131017D01*
X0084594Y0130945D01*
X0084320Y0130879D01*
X0084044Y0130821D01*
X0083766Y0130769D01*
X0083487Y0130724D01*
X0083208Y0130686D01*
X0082927Y0130655D01*
X0082646Y0130631D01*
X0082364Y0130614D01*
X0082082Y0130603D01*
X0081800Y0130600D01*
X0081518Y0130603D01*
X0081236Y0130614D01*
X0080954Y0130631D01*
X0080673Y0130655D01*
X0080392Y0130686D01*
X0080113Y0130724D01*
X0079834Y0130769D01*
X0079556Y0130821D01*
X0079280Y0130879D01*
X0079006Y0130945D01*
X0078733Y0131017D01*
X0078462Y0131095D01*
X0078193Y0131180D01*
X0077926Y0131272D01*
X0077661Y0131371D01*
X0077399Y0131475D01*
X0077140Y0131587D01*
X0076883Y0131704D01*
X0076629Y0131828D01*
X0076379Y0131958D01*
X0076132Y0132094D01*
X0075888Y0132236D01*
X0075648Y0132384D01*
X0075411Y0132538D01*
X0075178Y0132698D01*
X0074949Y0132863D01*
X0074725Y0133034D01*
X0074504Y0133210D01*
X0074289Y0133392D01*
X0074077Y0133579D01*
X0073870Y0133771D01*
X0073668Y0133968D01*
X0073471Y0134170D01*
X0073279Y0134377D01*
X0073092Y0134589D01*
X0072910Y0134804D01*
X0072734Y0135025D01*
X0072563Y0135249D01*
X0072398Y0135478D01*
X0072238Y0135711D01*
X0072084Y0135948D01*
X0071936Y0136188D01*
X0071794Y0136432D01*
X0071658Y0136679D01*
X0071528Y0136929D01*
X0071404Y0137183D01*
X0071287Y0137440D01*
X0071175Y0137699D01*
X0071071Y0137961D01*
X0070972Y0138226D01*
X0070880Y0138493D01*
X0070795Y0138762D01*
X0070717Y0139033D01*
X0070645Y0139306D01*
X0070579Y0139580D01*
X0070521Y0139856D01*
X0070469Y0140134D01*
X0070424Y0140413D01*
X0070386Y0140692D01*
X0070355Y0140973D01*
X0070331Y0141254D01*
X0070314Y0141536D01*
X0070303Y0141818D01*
X0070300Y0142100D01*
X0138800Y0164300D02*
X0138800Y0166300D01*
X0138800Y0164300D02*
X0140800Y0164300D01*
X0146800Y0164300D02*
X0148800Y0164300D01*
X0148800Y0166300D01*
X0148800Y0172300D02*
X0148800Y0174300D01*
X0146800Y0174300D01*
X0140800Y0174300D02*
X0138800Y0174300D01*
X0138800Y0172300D01*
X0273800Y0173700D02*
X0273800Y0175700D01*
X0275800Y0175700D01*
X0281800Y0175700D02*
X0283800Y0175700D01*
X0283800Y0173700D01*
X0283800Y0167700D02*
X0283800Y0165700D01*
X0281800Y0165700D01*
X0275800Y0165700D02*
X0273800Y0165700D01*
X0273800Y0167700D01*
X0393700Y0077700D02*
X0408700Y0077700D01*
X0408760Y0077698D01*
X0408821Y0077693D01*
X0408880Y0077684D01*
X0408939Y0077671D01*
X0408998Y0077655D01*
X0409055Y0077635D01*
X0409110Y0077612D01*
X0409165Y0077585D01*
X0409217Y0077556D01*
X0409268Y0077523D01*
X0409317Y0077487D01*
X0409363Y0077449D01*
X0409407Y0077407D01*
X0409449Y0077363D01*
X0409487Y0077317D01*
X0409523Y0077268D01*
X0409556Y0077217D01*
X0409585Y0077165D01*
X0409612Y0077110D01*
X0409635Y0077055D01*
X0409655Y0076998D01*
X0409671Y0076939D01*
X0409684Y0076880D01*
X0409693Y0076821D01*
X0409698Y0076760D01*
X0409700Y0076700D01*
X0409700Y0066700D01*
X0409698Y0066640D01*
X0409693Y0066579D01*
X0409684Y0066520D01*
X0409671Y0066461D01*
X0409655Y0066402D01*
X0409635Y0066345D01*
X0409612Y0066290D01*
X0409585Y0066235D01*
X0409556Y0066183D01*
X0409523Y0066132D01*
X0409487Y0066083D01*
X0409449Y0066037D01*
X0409407Y0065993D01*
X0409363Y0065951D01*
X0409317Y0065913D01*
X0409268Y0065877D01*
X0409217Y0065844D01*
X0409165Y0065815D01*
X0409110Y0065788D01*
X0409055Y0065765D01*
X0408998Y0065745D01*
X0408939Y0065729D01*
X0408880Y0065716D01*
X0408821Y0065707D01*
X0408760Y0065702D01*
X0408700Y0065700D01*
X0393700Y0065700D01*
X0393640Y0065702D01*
X0393579Y0065707D01*
X0393520Y0065716D01*
X0393461Y0065729D01*
X0393402Y0065745D01*
X0393345Y0065765D01*
X0393290Y0065788D01*
X0393235Y0065815D01*
X0393183Y0065844D01*
X0393132Y0065877D01*
X0393083Y0065913D01*
X0393037Y0065951D01*
X0392993Y0065993D01*
X0392951Y0066037D01*
X0392913Y0066083D01*
X0392877Y0066132D01*
X0392844Y0066183D01*
X0392815Y0066235D01*
X0392788Y0066290D01*
X0392765Y0066345D01*
X0392745Y0066402D01*
X0392729Y0066461D01*
X0392716Y0066520D01*
X0392707Y0066579D01*
X0392702Y0066640D01*
X0392700Y0066700D01*
X0392700Y0076700D01*
X0392702Y0076760D01*
X0392707Y0076821D01*
X0392716Y0076880D01*
X0392729Y0076939D01*
X0392745Y0076998D01*
X0392765Y0077055D01*
X0392788Y0077110D01*
X0392815Y0077165D01*
X0392844Y0077217D01*
X0392877Y0077268D01*
X0392913Y0077317D01*
X0392951Y0077363D01*
X0392993Y0077407D01*
X0393037Y0077449D01*
X0393083Y0077487D01*
X0393132Y0077523D01*
X0393183Y0077556D01*
X0393235Y0077585D01*
X0393290Y0077612D01*
X0393345Y0077635D01*
X0393402Y0077655D01*
X0393461Y0077671D01*
X0393520Y0077684D01*
X0393579Y0077693D01*
X0393640Y0077698D01*
X0393700Y0077700D01*
X0336300Y0029000D02*
X0336303Y0029282D01*
X0336314Y0029564D01*
X0336331Y0029846D01*
X0336355Y0030127D01*
X0336386Y0030408D01*
X0336424Y0030687D01*
X0336469Y0030966D01*
X0336521Y0031244D01*
X0336579Y0031520D01*
X0336645Y0031794D01*
X0336717Y0032067D01*
X0336795Y0032338D01*
X0336880Y0032607D01*
X0336972Y0032874D01*
X0337071Y0033139D01*
X0337175Y0033401D01*
X0337287Y0033660D01*
X0337404Y0033917D01*
X0337528Y0034171D01*
X0337658Y0034421D01*
X0337794Y0034668D01*
X0337936Y0034912D01*
X0338084Y0035152D01*
X0338238Y0035389D01*
X0338398Y0035622D01*
X0338563Y0035851D01*
X0338734Y0036075D01*
X0338910Y0036296D01*
X0339092Y0036511D01*
X0339279Y0036723D01*
X0339471Y0036930D01*
X0339668Y0037132D01*
X0339870Y0037329D01*
X0340077Y0037521D01*
X0340289Y0037708D01*
X0340504Y0037890D01*
X0340725Y0038066D01*
X0340949Y0038237D01*
X0341178Y0038402D01*
X0341411Y0038562D01*
X0341648Y0038716D01*
X0341888Y0038864D01*
X0342132Y0039006D01*
X0342379Y0039142D01*
X0342629Y0039272D01*
X0342883Y0039396D01*
X0343140Y0039513D01*
X0343399Y0039625D01*
X0343661Y0039729D01*
X0343926Y0039828D01*
X0344193Y0039920D01*
X0344462Y0040005D01*
X0344733Y0040083D01*
X0345006Y0040155D01*
X0345280Y0040221D01*
X0345556Y0040279D01*
X0345834Y0040331D01*
X0346113Y0040376D01*
X0346392Y0040414D01*
X0346673Y0040445D01*
X0346954Y0040469D01*
X0347236Y0040486D01*
X0347518Y0040497D01*
X0347800Y0040500D01*
X0348082Y0040497D01*
X0348364Y0040486D01*
X0348646Y0040469D01*
X0348927Y0040445D01*
X0349208Y0040414D01*
X0349487Y0040376D01*
X0349766Y0040331D01*
X0350044Y0040279D01*
X0350320Y0040221D01*
X0350594Y0040155D01*
X0350867Y0040083D01*
X0351138Y0040005D01*
X0351407Y0039920D01*
X0351674Y0039828D01*
X0351939Y0039729D01*
X0352201Y0039625D01*
X0352460Y0039513D01*
X0352717Y0039396D01*
X0352971Y0039272D01*
X0353221Y0039142D01*
X0353468Y0039006D01*
X0353712Y0038864D01*
X0353952Y0038716D01*
X0354189Y0038562D01*
X0354422Y0038402D01*
X0354651Y0038237D01*
X0354875Y0038066D01*
X0355096Y0037890D01*
X0355311Y0037708D01*
X0355523Y0037521D01*
X0355730Y0037329D01*
X0355932Y0037132D01*
X0356129Y0036930D01*
X0356321Y0036723D01*
X0356508Y0036511D01*
X0356690Y0036296D01*
X0356866Y0036075D01*
X0357037Y0035851D01*
X0357202Y0035622D01*
X0357362Y0035389D01*
X0357516Y0035152D01*
X0357664Y0034912D01*
X0357806Y0034668D01*
X0357942Y0034421D01*
X0358072Y0034171D01*
X0358196Y0033917D01*
X0358313Y0033660D01*
X0358425Y0033401D01*
X0358529Y0033139D01*
X0358628Y0032874D01*
X0358720Y0032607D01*
X0358805Y0032338D01*
X0358883Y0032067D01*
X0358955Y0031794D01*
X0359021Y0031520D01*
X0359079Y0031244D01*
X0359131Y0030966D01*
X0359176Y0030687D01*
X0359214Y0030408D01*
X0359245Y0030127D01*
X0359269Y0029846D01*
X0359286Y0029564D01*
X0359297Y0029282D01*
X0359300Y0029000D01*
X0359297Y0028718D01*
X0359286Y0028436D01*
X0359269Y0028154D01*
X0359245Y0027873D01*
X0359214Y0027592D01*
X0359176Y0027313D01*
X0359131Y0027034D01*
X0359079Y0026756D01*
X0359021Y0026480D01*
X0358955Y0026206D01*
X0358883Y0025933D01*
X0358805Y0025662D01*
X0358720Y0025393D01*
X0358628Y0025126D01*
X0358529Y0024861D01*
X0358425Y0024599D01*
X0358313Y0024340D01*
X0358196Y0024083D01*
X0358072Y0023829D01*
X0357942Y0023579D01*
X0357806Y0023332D01*
X0357664Y0023088D01*
X0357516Y0022848D01*
X0357362Y0022611D01*
X0357202Y0022378D01*
X0357037Y0022149D01*
X0356866Y0021925D01*
X0356690Y0021704D01*
X0356508Y0021489D01*
X0356321Y0021277D01*
X0356129Y0021070D01*
X0355932Y0020868D01*
X0355730Y0020671D01*
X0355523Y0020479D01*
X0355311Y0020292D01*
X0355096Y0020110D01*
X0354875Y0019934D01*
X0354651Y0019763D01*
X0354422Y0019598D01*
X0354189Y0019438D01*
X0353952Y0019284D01*
X0353712Y0019136D01*
X0353468Y0018994D01*
X0353221Y0018858D01*
X0352971Y0018728D01*
X0352717Y0018604D01*
X0352460Y0018487D01*
X0352201Y0018375D01*
X0351939Y0018271D01*
X0351674Y0018172D01*
X0351407Y0018080D01*
X0351138Y0017995D01*
X0350867Y0017917D01*
X0350594Y0017845D01*
X0350320Y0017779D01*
X0350044Y0017721D01*
X0349766Y0017669D01*
X0349487Y0017624D01*
X0349208Y0017586D01*
X0348927Y0017555D01*
X0348646Y0017531D01*
X0348364Y0017514D01*
X0348082Y0017503D01*
X0347800Y0017500D01*
X0347518Y0017503D01*
X0347236Y0017514D01*
X0346954Y0017531D01*
X0346673Y0017555D01*
X0346392Y0017586D01*
X0346113Y0017624D01*
X0345834Y0017669D01*
X0345556Y0017721D01*
X0345280Y0017779D01*
X0345006Y0017845D01*
X0344733Y0017917D01*
X0344462Y0017995D01*
X0344193Y0018080D01*
X0343926Y0018172D01*
X0343661Y0018271D01*
X0343399Y0018375D01*
X0343140Y0018487D01*
X0342883Y0018604D01*
X0342629Y0018728D01*
X0342379Y0018858D01*
X0342132Y0018994D01*
X0341888Y0019136D01*
X0341648Y0019284D01*
X0341411Y0019438D01*
X0341178Y0019598D01*
X0340949Y0019763D01*
X0340725Y0019934D01*
X0340504Y0020110D01*
X0340289Y0020292D01*
X0340077Y0020479D01*
X0339870Y0020671D01*
X0339668Y0020868D01*
X0339471Y0021070D01*
X0339279Y0021277D01*
X0339092Y0021489D01*
X0338910Y0021704D01*
X0338734Y0021925D01*
X0338563Y0022149D01*
X0338398Y0022378D01*
X0338238Y0022611D01*
X0338084Y0022848D01*
X0337936Y0023088D01*
X0337794Y0023332D01*
X0337658Y0023579D01*
X0337528Y0023829D01*
X0337404Y0024083D01*
X0337287Y0024340D01*
X0337175Y0024599D01*
X0337071Y0024861D01*
X0336972Y0025126D01*
X0336880Y0025393D01*
X0336795Y0025662D01*
X0336717Y0025933D01*
X0336645Y0026206D01*
X0336579Y0026480D01*
X0336521Y0026756D01*
X0336469Y0027034D01*
X0336424Y0027313D01*
X0336386Y0027592D01*
X0336355Y0027873D01*
X0336331Y0028154D01*
X0336314Y0028436D01*
X0336303Y0028718D01*
X0336300Y0029000D01*
D16*
X0392950Y0079701D02*
X0393701Y0078950D01*
X0395202Y0078950D01*
X0395953Y0079701D01*
X0395953Y0080451D01*
X0395202Y0081202D01*
X0393701Y0081202D01*
X0392950Y0081953D01*
X0392950Y0082703D01*
X0393701Y0083454D01*
X0395202Y0083454D01*
X0395953Y0082703D01*
X0399055Y0083454D02*
X0400556Y0083454D01*
X0399806Y0083454D02*
X0399806Y0079701D01*
X0399055Y0078950D01*
X0398305Y0078950D01*
X0397554Y0079701D01*
X0402158Y0078950D02*
X0405160Y0078950D01*
X0403659Y0078950D02*
X0403659Y0083454D01*
X0402158Y0081953D01*
X0290864Y0176950D02*
X0287862Y0176950D01*
X0290864Y0179953D01*
X0290864Y0180703D01*
X0290114Y0181454D01*
X0288612Y0181454D01*
X0287862Y0180703D01*
X0286260Y0180703D02*
X0285510Y0181454D01*
X0283258Y0181454D01*
X0283258Y0176950D01*
X0285510Y0176950D01*
X0286260Y0177701D01*
X0286260Y0180703D01*
X0281656Y0179953D02*
X0281656Y0176950D01*
X0281656Y0179202D02*
X0278654Y0179202D01*
X0278654Y0179953D02*
X0278654Y0176950D01*
X0277053Y0179202D02*
X0276302Y0178451D01*
X0274050Y0178451D01*
X0274050Y0176950D02*
X0274050Y0181454D01*
X0276302Y0181454D01*
X0277053Y0180703D01*
X0277053Y0179202D01*
X0278654Y0179953D02*
X0280155Y0181454D01*
X0281656Y0179953D01*
X0155864Y0175550D02*
X0152862Y0175550D01*
X0154363Y0175550D02*
X0154363Y0180054D01*
X0152862Y0178553D01*
X0151260Y0179303D02*
X0151260Y0176301D01*
X0150510Y0175550D01*
X0148258Y0175550D01*
X0148258Y0180054D01*
X0150510Y0180054D01*
X0151260Y0179303D01*
X0146656Y0178553D02*
X0145155Y0180054D01*
X0143654Y0178553D01*
X0143654Y0175550D01*
X0142053Y0177802D02*
X0141302Y0177051D01*
X0139050Y0177051D01*
X0139050Y0175550D02*
X0139050Y0180054D01*
X0141302Y0180054D01*
X0142053Y0179303D01*
X0142053Y0177802D01*
X0143654Y0177802D02*
X0146656Y0177802D01*
X0146656Y0178553D02*
X0146656Y0175550D01*
D17*
X0075894Y0142100D02*
X0075896Y0142253D01*
X0075902Y0142407D01*
X0075912Y0142560D01*
X0075926Y0142712D01*
X0075944Y0142865D01*
X0075966Y0143016D01*
X0075991Y0143167D01*
X0076021Y0143318D01*
X0076055Y0143468D01*
X0076092Y0143616D01*
X0076133Y0143764D01*
X0076178Y0143910D01*
X0076227Y0144056D01*
X0076280Y0144200D01*
X0076336Y0144342D01*
X0076396Y0144483D01*
X0076460Y0144623D01*
X0076527Y0144761D01*
X0076598Y0144897D01*
X0076673Y0145031D01*
X0076750Y0145163D01*
X0076832Y0145293D01*
X0076916Y0145421D01*
X0077004Y0145547D01*
X0077095Y0145670D01*
X0077189Y0145791D01*
X0077287Y0145909D01*
X0077387Y0146025D01*
X0077491Y0146138D01*
X0077597Y0146249D01*
X0077706Y0146357D01*
X0077818Y0146462D01*
X0077932Y0146563D01*
X0078050Y0146662D01*
X0078169Y0146758D01*
X0078291Y0146851D01*
X0078416Y0146940D01*
X0078543Y0147027D01*
X0078672Y0147109D01*
X0078803Y0147189D01*
X0078936Y0147265D01*
X0079071Y0147338D01*
X0079208Y0147407D01*
X0079347Y0147472D01*
X0079487Y0147534D01*
X0079629Y0147592D01*
X0079772Y0147647D01*
X0079917Y0147698D01*
X0080063Y0147745D01*
X0080210Y0147788D01*
X0080358Y0147827D01*
X0080507Y0147863D01*
X0080657Y0147894D01*
X0080808Y0147922D01*
X0080959Y0147946D01*
X0081112Y0147966D01*
X0081264Y0147982D01*
X0081417Y0147994D01*
X0081570Y0148002D01*
X0081723Y0148006D01*
X0081877Y0148006D01*
X0082030Y0148002D01*
X0082183Y0147994D01*
X0082336Y0147982D01*
X0082488Y0147966D01*
X0082641Y0147946D01*
X0082792Y0147922D01*
X0082943Y0147894D01*
X0083093Y0147863D01*
X0083242Y0147827D01*
X0083390Y0147788D01*
X0083537Y0147745D01*
X0083683Y0147698D01*
X0083828Y0147647D01*
X0083971Y0147592D01*
X0084113Y0147534D01*
X0084253Y0147472D01*
X0084392Y0147407D01*
X0084529Y0147338D01*
X0084664Y0147265D01*
X0084797Y0147189D01*
X0084928Y0147109D01*
X0085057Y0147027D01*
X0085184Y0146940D01*
X0085309Y0146851D01*
X0085431Y0146758D01*
X0085550Y0146662D01*
X0085668Y0146563D01*
X0085782Y0146462D01*
X0085894Y0146357D01*
X0086003Y0146249D01*
X0086109Y0146138D01*
X0086213Y0146025D01*
X0086313Y0145909D01*
X0086411Y0145791D01*
X0086505Y0145670D01*
X0086596Y0145547D01*
X0086684Y0145421D01*
X0086768Y0145293D01*
X0086850Y0145163D01*
X0086927Y0145031D01*
X0087002Y0144897D01*
X0087073Y0144761D01*
X0087140Y0144623D01*
X0087204Y0144483D01*
X0087264Y0144342D01*
X0087320Y0144200D01*
X0087373Y0144056D01*
X0087422Y0143910D01*
X0087467Y0143764D01*
X0087508Y0143616D01*
X0087545Y0143468D01*
X0087579Y0143318D01*
X0087609Y0143167D01*
X0087634Y0143016D01*
X0087656Y0142865D01*
X0087674Y0142712D01*
X0087688Y0142560D01*
X0087698Y0142407D01*
X0087704Y0142253D01*
X0087706Y0142100D01*
X0087704Y0141947D01*
X0087698Y0141793D01*
X0087688Y0141640D01*
X0087674Y0141488D01*
X0087656Y0141335D01*
X0087634Y0141184D01*
X0087609Y0141033D01*
X0087579Y0140882D01*
X0087545Y0140732D01*
X0087508Y0140584D01*
X0087467Y0140436D01*
X0087422Y0140290D01*
X0087373Y0140144D01*
X0087320Y0140000D01*
X0087264Y0139858D01*
X0087204Y0139717D01*
X0087140Y0139577D01*
X0087073Y0139439D01*
X0087002Y0139303D01*
X0086927Y0139169D01*
X0086850Y0139037D01*
X0086768Y0138907D01*
X0086684Y0138779D01*
X0086596Y0138653D01*
X0086505Y0138530D01*
X0086411Y0138409D01*
X0086313Y0138291D01*
X0086213Y0138175D01*
X0086109Y0138062D01*
X0086003Y0137951D01*
X0085894Y0137843D01*
X0085782Y0137738D01*
X0085668Y0137637D01*
X0085550Y0137538D01*
X0085431Y0137442D01*
X0085309Y0137349D01*
X0085184Y0137260D01*
X0085057Y0137173D01*
X0084928Y0137091D01*
X0084797Y0137011D01*
X0084664Y0136935D01*
X0084529Y0136862D01*
X0084392Y0136793D01*
X0084253Y0136728D01*
X0084113Y0136666D01*
X0083971Y0136608D01*
X0083828Y0136553D01*
X0083683Y0136502D01*
X0083537Y0136455D01*
X0083390Y0136412D01*
X0083242Y0136373D01*
X0083093Y0136337D01*
X0082943Y0136306D01*
X0082792Y0136278D01*
X0082641Y0136254D01*
X0082488Y0136234D01*
X0082336Y0136218D01*
X0082183Y0136206D01*
X0082030Y0136198D01*
X0081877Y0136194D01*
X0081723Y0136194D01*
X0081570Y0136198D01*
X0081417Y0136206D01*
X0081264Y0136218D01*
X0081112Y0136234D01*
X0080959Y0136254D01*
X0080808Y0136278D01*
X0080657Y0136306D01*
X0080507Y0136337D01*
X0080358Y0136373D01*
X0080210Y0136412D01*
X0080063Y0136455D01*
X0079917Y0136502D01*
X0079772Y0136553D01*
X0079629Y0136608D01*
X0079487Y0136666D01*
X0079347Y0136728D01*
X0079208Y0136793D01*
X0079071Y0136862D01*
X0078936Y0136935D01*
X0078803Y0137011D01*
X0078672Y0137091D01*
X0078543Y0137173D01*
X0078416Y0137260D01*
X0078291Y0137349D01*
X0078169Y0137442D01*
X0078050Y0137538D01*
X0077932Y0137637D01*
X0077818Y0137738D01*
X0077706Y0137843D01*
X0077597Y0137951D01*
X0077491Y0138062D01*
X0077387Y0138175D01*
X0077287Y0138291D01*
X0077189Y0138409D01*
X0077095Y0138530D01*
X0077004Y0138653D01*
X0076916Y0138779D01*
X0076832Y0138907D01*
X0076750Y0139037D01*
X0076673Y0139169D01*
X0076598Y0139303D01*
X0076527Y0139439D01*
X0076460Y0139577D01*
X0076396Y0139717D01*
X0076336Y0139858D01*
X0076280Y0140000D01*
X0076227Y0140144D01*
X0076178Y0140290D01*
X0076133Y0140436D01*
X0076092Y0140584D01*
X0076055Y0140732D01*
X0076021Y0140882D01*
X0075991Y0141033D01*
X0075966Y0141184D01*
X0075944Y0141335D01*
X0075926Y0141488D01*
X0075912Y0141640D01*
X0075902Y0141793D01*
X0075896Y0141947D01*
X0075894Y0142100D01*
X0341894Y0029000D02*
X0341896Y0029153D01*
X0341902Y0029307D01*
X0341912Y0029460D01*
X0341926Y0029612D01*
X0341944Y0029765D01*
X0341966Y0029916D01*
X0341991Y0030067D01*
X0342021Y0030218D01*
X0342055Y0030368D01*
X0342092Y0030516D01*
X0342133Y0030664D01*
X0342178Y0030810D01*
X0342227Y0030956D01*
X0342280Y0031100D01*
X0342336Y0031242D01*
X0342396Y0031383D01*
X0342460Y0031523D01*
X0342527Y0031661D01*
X0342598Y0031797D01*
X0342673Y0031931D01*
X0342750Y0032063D01*
X0342832Y0032193D01*
X0342916Y0032321D01*
X0343004Y0032447D01*
X0343095Y0032570D01*
X0343189Y0032691D01*
X0343287Y0032809D01*
X0343387Y0032925D01*
X0343491Y0033038D01*
X0343597Y0033149D01*
X0343706Y0033257D01*
X0343818Y0033362D01*
X0343932Y0033463D01*
X0344050Y0033562D01*
X0344169Y0033658D01*
X0344291Y0033751D01*
X0344416Y0033840D01*
X0344543Y0033927D01*
X0344672Y0034009D01*
X0344803Y0034089D01*
X0344936Y0034165D01*
X0345071Y0034238D01*
X0345208Y0034307D01*
X0345347Y0034372D01*
X0345487Y0034434D01*
X0345629Y0034492D01*
X0345772Y0034547D01*
X0345917Y0034598D01*
X0346063Y0034645D01*
X0346210Y0034688D01*
X0346358Y0034727D01*
X0346507Y0034763D01*
X0346657Y0034794D01*
X0346808Y0034822D01*
X0346959Y0034846D01*
X0347112Y0034866D01*
X0347264Y0034882D01*
X0347417Y0034894D01*
X0347570Y0034902D01*
X0347723Y0034906D01*
X0347877Y0034906D01*
X0348030Y0034902D01*
X0348183Y0034894D01*
X0348336Y0034882D01*
X0348488Y0034866D01*
X0348641Y0034846D01*
X0348792Y0034822D01*
X0348943Y0034794D01*
X0349093Y0034763D01*
X0349242Y0034727D01*
X0349390Y0034688D01*
X0349537Y0034645D01*
X0349683Y0034598D01*
X0349828Y0034547D01*
X0349971Y0034492D01*
X0350113Y0034434D01*
X0350253Y0034372D01*
X0350392Y0034307D01*
X0350529Y0034238D01*
X0350664Y0034165D01*
X0350797Y0034089D01*
X0350928Y0034009D01*
X0351057Y0033927D01*
X0351184Y0033840D01*
X0351309Y0033751D01*
X0351431Y0033658D01*
X0351550Y0033562D01*
X0351668Y0033463D01*
X0351782Y0033362D01*
X0351894Y0033257D01*
X0352003Y0033149D01*
X0352109Y0033038D01*
X0352213Y0032925D01*
X0352313Y0032809D01*
X0352411Y0032691D01*
X0352505Y0032570D01*
X0352596Y0032447D01*
X0352684Y0032321D01*
X0352768Y0032193D01*
X0352850Y0032063D01*
X0352927Y0031931D01*
X0353002Y0031797D01*
X0353073Y0031661D01*
X0353140Y0031523D01*
X0353204Y0031383D01*
X0353264Y0031242D01*
X0353320Y0031100D01*
X0353373Y0030956D01*
X0353422Y0030810D01*
X0353467Y0030664D01*
X0353508Y0030516D01*
X0353545Y0030368D01*
X0353579Y0030218D01*
X0353609Y0030067D01*
X0353634Y0029916D01*
X0353656Y0029765D01*
X0353674Y0029612D01*
X0353688Y0029460D01*
X0353698Y0029307D01*
X0353704Y0029153D01*
X0353706Y0029000D01*
X0353704Y0028847D01*
X0353698Y0028693D01*
X0353688Y0028540D01*
X0353674Y0028388D01*
X0353656Y0028235D01*
X0353634Y0028084D01*
X0353609Y0027933D01*
X0353579Y0027782D01*
X0353545Y0027632D01*
X0353508Y0027484D01*
X0353467Y0027336D01*
X0353422Y0027190D01*
X0353373Y0027044D01*
X0353320Y0026900D01*
X0353264Y0026758D01*
X0353204Y0026617D01*
X0353140Y0026477D01*
X0353073Y0026339D01*
X0353002Y0026203D01*
X0352927Y0026069D01*
X0352850Y0025937D01*
X0352768Y0025807D01*
X0352684Y0025679D01*
X0352596Y0025553D01*
X0352505Y0025430D01*
X0352411Y0025309D01*
X0352313Y0025191D01*
X0352213Y0025075D01*
X0352109Y0024962D01*
X0352003Y0024851D01*
X0351894Y0024743D01*
X0351782Y0024638D01*
X0351668Y0024537D01*
X0351550Y0024438D01*
X0351431Y0024342D01*
X0351309Y0024249D01*
X0351184Y0024160D01*
X0351057Y0024073D01*
X0350928Y0023991D01*
X0350797Y0023911D01*
X0350664Y0023835D01*
X0350529Y0023762D01*
X0350392Y0023693D01*
X0350253Y0023628D01*
X0350113Y0023566D01*
X0349971Y0023508D01*
X0349828Y0023453D01*
X0349683Y0023402D01*
X0349537Y0023355D01*
X0349390Y0023312D01*
X0349242Y0023273D01*
X0349093Y0023237D01*
X0348943Y0023206D01*
X0348792Y0023178D01*
X0348641Y0023154D01*
X0348488Y0023134D01*
X0348336Y0023118D01*
X0348183Y0023106D01*
X0348030Y0023098D01*
X0347877Y0023094D01*
X0347723Y0023094D01*
X0347570Y0023098D01*
X0347417Y0023106D01*
X0347264Y0023118D01*
X0347112Y0023134D01*
X0346959Y0023154D01*
X0346808Y0023178D01*
X0346657Y0023206D01*
X0346507Y0023237D01*
X0346358Y0023273D01*
X0346210Y0023312D01*
X0346063Y0023355D01*
X0345917Y0023402D01*
X0345772Y0023453D01*
X0345629Y0023508D01*
X0345487Y0023566D01*
X0345347Y0023628D01*
X0345208Y0023693D01*
X0345071Y0023762D01*
X0344936Y0023835D01*
X0344803Y0023911D01*
X0344672Y0023991D01*
X0344543Y0024073D01*
X0344416Y0024160D01*
X0344291Y0024249D01*
X0344169Y0024342D01*
X0344050Y0024438D01*
X0343932Y0024537D01*
X0343818Y0024638D01*
X0343706Y0024743D01*
X0343597Y0024851D01*
X0343491Y0024962D01*
X0343387Y0025075D01*
X0343287Y0025191D01*
X0343189Y0025309D01*
X0343095Y0025430D01*
X0343004Y0025553D01*
X0342916Y0025679D01*
X0342832Y0025807D01*
X0342750Y0025937D01*
X0342673Y0026069D01*
X0342598Y0026203D01*
X0342527Y0026339D01*
X0342460Y0026477D01*
X0342396Y0026617D01*
X0342336Y0026758D01*
X0342280Y0026900D01*
X0342227Y0027044D01*
X0342178Y0027190D01*
X0342133Y0027336D01*
X0342092Y0027484D01*
X0342055Y0027632D01*
X0342021Y0027782D01*
X0341991Y0027933D01*
X0341966Y0028084D01*
X0341944Y0028235D01*
X0341926Y0028388D01*
X0341912Y0028540D01*
X0341902Y0028693D01*
X0341896Y0028847D01*
X0341894Y0029000D01*
M02*
