G75*
%MOIN*%
%OFA0B0*%
%FSLAX25Y25*%
%IPPOS*%
%LPD*%
%AMOC8*
5,1,8,0,0,1.08239X$1,22.5*
%
%ADD10C,0.00000*%
%ADD11R,0.06299X0.07098*%
%ADD12R,0.01181X0.05709*%
%ADD13R,0.05709X0.01181*%
%ADD14OC8,0.10000*%
%ADD15R,0.05906X0.02756*%
%ADD16R,0.02756X0.05906*%
%ADD17R,0.01500X0.01500*%
%ADD18R,0.05118X0.05906*%
%ADD19R,0.01575X0.01969*%
%ADD20R,0.01181X0.01969*%
%ADD21R,0.01969X0.01575*%
%ADD22R,0.01969X0.01181*%
%ADD23R,0.05000X0.10000*%
%ADD24C,0.01000*%
%ADD25C,0.03762*%
%ADD26C,0.02400*%
%ADD27C,0.01600*%
D10*
X0001800Y0001100D02*
X0001800Y0188061D01*
X0407901Y0188061D01*
X0407961Y0188101D02*
X0408039Y0001000D01*
X0408001Y0001000D02*
X0001800Y0001100D01*
X0076288Y0142100D02*
X0076290Y0142248D01*
X0076296Y0142396D01*
X0076306Y0142544D01*
X0076320Y0142691D01*
X0076338Y0142838D01*
X0076359Y0142984D01*
X0076385Y0143130D01*
X0076415Y0143275D01*
X0076448Y0143419D01*
X0076486Y0143562D01*
X0076527Y0143704D01*
X0076572Y0143845D01*
X0076620Y0143985D01*
X0076673Y0144124D01*
X0076729Y0144261D01*
X0076789Y0144396D01*
X0076852Y0144530D01*
X0076919Y0144662D01*
X0076990Y0144792D01*
X0077064Y0144920D01*
X0077141Y0145046D01*
X0077222Y0145170D01*
X0077306Y0145292D01*
X0077393Y0145411D01*
X0077484Y0145528D01*
X0077578Y0145643D01*
X0077674Y0145755D01*
X0077774Y0145865D01*
X0077876Y0145971D01*
X0077982Y0146075D01*
X0078090Y0146176D01*
X0078201Y0146274D01*
X0078314Y0146370D01*
X0078430Y0146462D01*
X0078548Y0146551D01*
X0078669Y0146636D01*
X0078792Y0146719D01*
X0078917Y0146798D01*
X0079044Y0146874D01*
X0079173Y0146946D01*
X0079304Y0147015D01*
X0079437Y0147080D01*
X0079572Y0147141D01*
X0079708Y0147199D01*
X0079845Y0147254D01*
X0079984Y0147304D01*
X0080125Y0147351D01*
X0080266Y0147394D01*
X0080409Y0147434D01*
X0080553Y0147469D01*
X0080697Y0147501D01*
X0080843Y0147528D01*
X0080989Y0147552D01*
X0081136Y0147572D01*
X0081283Y0147588D01*
X0081430Y0147600D01*
X0081578Y0147608D01*
X0081726Y0147612D01*
X0081874Y0147612D01*
X0082022Y0147608D01*
X0082170Y0147600D01*
X0082317Y0147588D01*
X0082464Y0147572D01*
X0082611Y0147552D01*
X0082757Y0147528D01*
X0082903Y0147501D01*
X0083047Y0147469D01*
X0083191Y0147434D01*
X0083334Y0147394D01*
X0083475Y0147351D01*
X0083616Y0147304D01*
X0083755Y0147254D01*
X0083892Y0147199D01*
X0084028Y0147141D01*
X0084163Y0147080D01*
X0084296Y0147015D01*
X0084427Y0146946D01*
X0084556Y0146874D01*
X0084683Y0146798D01*
X0084808Y0146719D01*
X0084931Y0146636D01*
X0085052Y0146551D01*
X0085170Y0146462D01*
X0085286Y0146370D01*
X0085399Y0146274D01*
X0085510Y0146176D01*
X0085618Y0146075D01*
X0085724Y0145971D01*
X0085826Y0145865D01*
X0085926Y0145755D01*
X0086022Y0145643D01*
X0086116Y0145528D01*
X0086207Y0145411D01*
X0086294Y0145292D01*
X0086378Y0145170D01*
X0086459Y0145046D01*
X0086536Y0144920D01*
X0086610Y0144792D01*
X0086681Y0144662D01*
X0086748Y0144530D01*
X0086811Y0144396D01*
X0086871Y0144261D01*
X0086927Y0144124D01*
X0086980Y0143985D01*
X0087028Y0143845D01*
X0087073Y0143704D01*
X0087114Y0143562D01*
X0087152Y0143419D01*
X0087185Y0143275D01*
X0087215Y0143130D01*
X0087241Y0142984D01*
X0087262Y0142838D01*
X0087280Y0142691D01*
X0087294Y0142544D01*
X0087304Y0142396D01*
X0087310Y0142248D01*
X0087312Y0142100D01*
X0087310Y0141952D01*
X0087304Y0141804D01*
X0087294Y0141656D01*
X0087280Y0141509D01*
X0087262Y0141362D01*
X0087241Y0141216D01*
X0087215Y0141070D01*
X0087185Y0140925D01*
X0087152Y0140781D01*
X0087114Y0140638D01*
X0087073Y0140496D01*
X0087028Y0140355D01*
X0086980Y0140215D01*
X0086927Y0140076D01*
X0086871Y0139939D01*
X0086811Y0139804D01*
X0086748Y0139670D01*
X0086681Y0139538D01*
X0086610Y0139408D01*
X0086536Y0139280D01*
X0086459Y0139154D01*
X0086378Y0139030D01*
X0086294Y0138908D01*
X0086207Y0138789D01*
X0086116Y0138672D01*
X0086022Y0138557D01*
X0085926Y0138445D01*
X0085826Y0138335D01*
X0085724Y0138229D01*
X0085618Y0138125D01*
X0085510Y0138024D01*
X0085399Y0137926D01*
X0085286Y0137830D01*
X0085170Y0137738D01*
X0085052Y0137649D01*
X0084931Y0137564D01*
X0084808Y0137481D01*
X0084683Y0137402D01*
X0084556Y0137326D01*
X0084427Y0137254D01*
X0084296Y0137185D01*
X0084163Y0137120D01*
X0084028Y0137059D01*
X0083892Y0137001D01*
X0083755Y0136946D01*
X0083616Y0136896D01*
X0083475Y0136849D01*
X0083334Y0136806D01*
X0083191Y0136766D01*
X0083047Y0136731D01*
X0082903Y0136699D01*
X0082757Y0136672D01*
X0082611Y0136648D01*
X0082464Y0136628D01*
X0082317Y0136612D01*
X0082170Y0136600D01*
X0082022Y0136592D01*
X0081874Y0136588D01*
X0081726Y0136588D01*
X0081578Y0136592D01*
X0081430Y0136600D01*
X0081283Y0136612D01*
X0081136Y0136628D01*
X0080989Y0136648D01*
X0080843Y0136672D01*
X0080697Y0136699D01*
X0080553Y0136731D01*
X0080409Y0136766D01*
X0080266Y0136806D01*
X0080125Y0136849D01*
X0079984Y0136896D01*
X0079845Y0136946D01*
X0079708Y0137001D01*
X0079572Y0137059D01*
X0079437Y0137120D01*
X0079304Y0137185D01*
X0079173Y0137254D01*
X0079044Y0137326D01*
X0078917Y0137402D01*
X0078792Y0137481D01*
X0078669Y0137564D01*
X0078548Y0137649D01*
X0078430Y0137738D01*
X0078314Y0137830D01*
X0078201Y0137926D01*
X0078090Y0138024D01*
X0077982Y0138125D01*
X0077876Y0138229D01*
X0077774Y0138335D01*
X0077674Y0138445D01*
X0077578Y0138557D01*
X0077484Y0138672D01*
X0077393Y0138789D01*
X0077306Y0138908D01*
X0077222Y0139030D01*
X0077141Y0139154D01*
X0077064Y0139280D01*
X0076990Y0139408D01*
X0076919Y0139538D01*
X0076852Y0139670D01*
X0076789Y0139804D01*
X0076729Y0139939D01*
X0076673Y0140076D01*
X0076620Y0140215D01*
X0076572Y0140355D01*
X0076527Y0140496D01*
X0076486Y0140638D01*
X0076448Y0140781D01*
X0076415Y0140925D01*
X0076385Y0141070D01*
X0076359Y0141216D01*
X0076338Y0141362D01*
X0076320Y0141509D01*
X0076306Y0141656D01*
X0076296Y0141804D01*
X0076290Y0141952D01*
X0076288Y0142100D01*
X0342288Y0029000D02*
X0342290Y0029148D01*
X0342296Y0029296D01*
X0342306Y0029444D01*
X0342320Y0029591D01*
X0342338Y0029738D01*
X0342359Y0029884D01*
X0342385Y0030030D01*
X0342415Y0030175D01*
X0342448Y0030319D01*
X0342486Y0030462D01*
X0342527Y0030604D01*
X0342572Y0030745D01*
X0342620Y0030885D01*
X0342673Y0031024D01*
X0342729Y0031161D01*
X0342789Y0031296D01*
X0342852Y0031430D01*
X0342919Y0031562D01*
X0342990Y0031692D01*
X0343064Y0031820D01*
X0343141Y0031946D01*
X0343222Y0032070D01*
X0343306Y0032192D01*
X0343393Y0032311D01*
X0343484Y0032428D01*
X0343578Y0032543D01*
X0343674Y0032655D01*
X0343774Y0032765D01*
X0343876Y0032871D01*
X0343982Y0032975D01*
X0344090Y0033076D01*
X0344201Y0033174D01*
X0344314Y0033270D01*
X0344430Y0033362D01*
X0344548Y0033451D01*
X0344669Y0033536D01*
X0344792Y0033619D01*
X0344917Y0033698D01*
X0345044Y0033774D01*
X0345173Y0033846D01*
X0345304Y0033915D01*
X0345437Y0033980D01*
X0345572Y0034041D01*
X0345708Y0034099D01*
X0345845Y0034154D01*
X0345984Y0034204D01*
X0346125Y0034251D01*
X0346266Y0034294D01*
X0346409Y0034334D01*
X0346553Y0034369D01*
X0346697Y0034401D01*
X0346843Y0034428D01*
X0346989Y0034452D01*
X0347136Y0034472D01*
X0347283Y0034488D01*
X0347430Y0034500D01*
X0347578Y0034508D01*
X0347726Y0034512D01*
X0347874Y0034512D01*
X0348022Y0034508D01*
X0348170Y0034500D01*
X0348317Y0034488D01*
X0348464Y0034472D01*
X0348611Y0034452D01*
X0348757Y0034428D01*
X0348903Y0034401D01*
X0349047Y0034369D01*
X0349191Y0034334D01*
X0349334Y0034294D01*
X0349475Y0034251D01*
X0349616Y0034204D01*
X0349755Y0034154D01*
X0349892Y0034099D01*
X0350028Y0034041D01*
X0350163Y0033980D01*
X0350296Y0033915D01*
X0350427Y0033846D01*
X0350556Y0033774D01*
X0350683Y0033698D01*
X0350808Y0033619D01*
X0350931Y0033536D01*
X0351052Y0033451D01*
X0351170Y0033362D01*
X0351286Y0033270D01*
X0351399Y0033174D01*
X0351510Y0033076D01*
X0351618Y0032975D01*
X0351724Y0032871D01*
X0351826Y0032765D01*
X0351926Y0032655D01*
X0352022Y0032543D01*
X0352116Y0032428D01*
X0352207Y0032311D01*
X0352294Y0032192D01*
X0352378Y0032070D01*
X0352459Y0031946D01*
X0352536Y0031820D01*
X0352610Y0031692D01*
X0352681Y0031562D01*
X0352748Y0031430D01*
X0352811Y0031296D01*
X0352871Y0031161D01*
X0352927Y0031024D01*
X0352980Y0030885D01*
X0353028Y0030745D01*
X0353073Y0030604D01*
X0353114Y0030462D01*
X0353152Y0030319D01*
X0353185Y0030175D01*
X0353215Y0030030D01*
X0353241Y0029884D01*
X0353262Y0029738D01*
X0353280Y0029591D01*
X0353294Y0029444D01*
X0353304Y0029296D01*
X0353310Y0029148D01*
X0353312Y0029000D01*
X0353310Y0028852D01*
X0353304Y0028704D01*
X0353294Y0028556D01*
X0353280Y0028409D01*
X0353262Y0028262D01*
X0353241Y0028116D01*
X0353215Y0027970D01*
X0353185Y0027825D01*
X0353152Y0027681D01*
X0353114Y0027538D01*
X0353073Y0027396D01*
X0353028Y0027255D01*
X0352980Y0027115D01*
X0352927Y0026976D01*
X0352871Y0026839D01*
X0352811Y0026704D01*
X0352748Y0026570D01*
X0352681Y0026438D01*
X0352610Y0026308D01*
X0352536Y0026180D01*
X0352459Y0026054D01*
X0352378Y0025930D01*
X0352294Y0025808D01*
X0352207Y0025689D01*
X0352116Y0025572D01*
X0352022Y0025457D01*
X0351926Y0025345D01*
X0351826Y0025235D01*
X0351724Y0025129D01*
X0351618Y0025025D01*
X0351510Y0024924D01*
X0351399Y0024826D01*
X0351286Y0024730D01*
X0351170Y0024638D01*
X0351052Y0024549D01*
X0350931Y0024464D01*
X0350808Y0024381D01*
X0350683Y0024302D01*
X0350556Y0024226D01*
X0350427Y0024154D01*
X0350296Y0024085D01*
X0350163Y0024020D01*
X0350028Y0023959D01*
X0349892Y0023901D01*
X0349755Y0023846D01*
X0349616Y0023796D01*
X0349475Y0023749D01*
X0349334Y0023706D01*
X0349191Y0023666D01*
X0349047Y0023631D01*
X0348903Y0023599D01*
X0348757Y0023572D01*
X0348611Y0023548D01*
X0348464Y0023528D01*
X0348317Y0023512D01*
X0348170Y0023500D01*
X0348022Y0023492D01*
X0347874Y0023488D01*
X0347726Y0023488D01*
X0347578Y0023492D01*
X0347430Y0023500D01*
X0347283Y0023512D01*
X0347136Y0023528D01*
X0346989Y0023548D01*
X0346843Y0023572D01*
X0346697Y0023599D01*
X0346553Y0023631D01*
X0346409Y0023666D01*
X0346266Y0023706D01*
X0346125Y0023749D01*
X0345984Y0023796D01*
X0345845Y0023846D01*
X0345708Y0023901D01*
X0345572Y0023959D01*
X0345437Y0024020D01*
X0345304Y0024085D01*
X0345173Y0024154D01*
X0345044Y0024226D01*
X0344917Y0024302D01*
X0344792Y0024381D01*
X0344669Y0024464D01*
X0344548Y0024549D01*
X0344430Y0024638D01*
X0344314Y0024730D01*
X0344201Y0024826D01*
X0344090Y0024924D01*
X0343982Y0025025D01*
X0343876Y0025129D01*
X0343774Y0025235D01*
X0343674Y0025345D01*
X0343578Y0025457D01*
X0343484Y0025572D01*
X0343393Y0025689D01*
X0343306Y0025808D01*
X0343222Y0025930D01*
X0343141Y0026054D01*
X0343064Y0026180D01*
X0342990Y0026308D01*
X0342919Y0026438D01*
X0342852Y0026570D01*
X0342789Y0026704D01*
X0342729Y0026839D01*
X0342673Y0026976D01*
X0342620Y0027115D01*
X0342572Y0027255D01*
X0342527Y0027396D01*
X0342486Y0027538D01*
X0342448Y0027681D01*
X0342415Y0027825D01*
X0342385Y0027970D01*
X0342359Y0028116D01*
X0342338Y0028262D01*
X0342320Y0028409D01*
X0342306Y0028556D01*
X0342296Y0028704D01*
X0342290Y0028852D01*
X0342288Y0029000D01*
D11*
X0176398Y0168100D03*
X0165202Y0168100D03*
D12*
X0098757Y0053714D03*
X0096198Y0053714D03*
X0093639Y0053714D03*
X0091080Y0053714D03*
X0088520Y0053714D03*
X0085961Y0053714D03*
X0083402Y0053714D03*
X0080843Y0053714D03*
X0057757Y0053714D03*
X0055198Y0053714D03*
X0052639Y0053714D03*
X0050080Y0053714D03*
X0047520Y0053714D03*
X0044961Y0053714D03*
X0042402Y0053714D03*
X0039843Y0053714D03*
X0039843Y0030486D03*
X0042402Y0030486D03*
X0044961Y0030486D03*
X0047520Y0030486D03*
X0050080Y0030486D03*
X0052639Y0030486D03*
X0055198Y0030486D03*
X0057757Y0030486D03*
X0080843Y0030486D03*
X0083402Y0030486D03*
X0085961Y0030486D03*
X0088520Y0030486D03*
X0091080Y0030486D03*
X0093639Y0030486D03*
X0096198Y0030486D03*
X0098757Y0030486D03*
X0294843Y0029486D03*
X0297402Y0029486D03*
X0299961Y0029486D03*
X0302520Y0029486D03*
X0305080Y0029486D03*
X0307639Y0029486D03*
X0310198Y0029486D03*
X0312757Y0029486D03*
X0312757Y0052714D03*
X0310198Y0052714D03*
X0307639Y0052714D03*
X0305080Y0052714D03*
X0302520Y0052714D03*
X0299961Y0052714D03*
X0297402Y0052714D03*
X0294843Y0052714D03*
D13*
X0192414Y0052057D03*
X0192414Y0049498D03*
X0192414Y0046939D03*
X0192414Y0044380D03*
X0192414Y0041820D03*
X0192414Y0039261D03*
X0192414Y0036702D03*
X0192414Y0034143D03*
X0169186Y0034143D03*
X0169186Y0036702D03*
X0169186Y0039261D03*
X0169186Y0041820D03*
X0169186Y0044380D03*
X0169186Y0046939D03*
X0169186Y0049498D03*
X0169186Y0052057D03*
D14*
X0143800Y0169300D03*
X0278800Y0170700D03*
D15*
X0235013Y0171565D03*
X0235013Y0167234D03*
X0189343Y0167234D03*
X0189343Y0171565D03*
X0235013Y0142824D03*
X0235013Y0138494D03*
X0235013Y0134163D03*
X0235013Y0129832D03*
X0235013Y0125502D03*
X0235013Y0121171D03*
X0235013Y0116840D03*
X0235013Y0112509D03*
X0235013Y0108179D03*
X0235013Y0103848D03*
X0235013Y0099517D03*
X0235013Y0095187D03*
X0189343Y0095187D03*
X0189343Y0099517D03*
X0189343Y0103848D03*
X0189343Y0108179D03*
X0189343Y0112509D03*
X0189343Y0116840D03*
X0189343Y0121171D03*
X0189343Y0125502D03*
X0189343Y0129832D03*
X0189343Y0134163D03*
D16*
X0199186Y0088887D03*
X0203517Y0088887D03*
X0207847Y0088887D03*
X0212178Y0088887D03*
X0216509Y0088887D03*
X0220839Y0088887D03*
X0225170Y0088887D03*
D17*
X0398013Y0091400D03*
X0398013Y0093900D03*
X0398013Y0096400D03*
X0401587Y0096400D03*
X0401587Y0093900D03*
X0401587Y0091400D03*
X0401587Y0098900D03*
X0401587Y0101400D03*
X0401587Y0103900D03*
X0398013Y0103900D03*
X0398013Y0101400D03*
X0398013Y0098900D03*
X0398013Y0106400D03*
X0398013Y0108900D03*
X0398013Y0111400D03*
X0401587Y0111400D03*
X0401587Y0108900D03*
X0401587Y0106400D03*
X0401587Y0113900D03*
X0401587Y0116300D03*
X0401587Y0118900D03*
X0398013Y0118900D03*
X0398013Y0116300D03*
X0398013Y0113900D03*
X0398013Y0121400D03*
X0398013Y0123900D03*
X0397913Y0126400D03*
X0401487Y0126400D03*
X0401587Y0123900D03*
X0401587Y0121400D03*
X0401487Y0128900D03*
X0401487Y0131400D03*
X0401587Y0133900D03*
X0398013Y0133900D03*
X0397913Y0131400D03*
X0397913Y0128900D03*
X0398013Y0136400D03*
X0398013Y0138900D03*
X0398013Y0141400D03*
X0401587Y0141400D03*
X0401587Y0138900D03*
X0401587Y0136400D03*
X0401587Y0143900D03*
X0401587Y0146400D03*
X0401587Y0148900D03*
X0398013Y0148900D03*
X0398013Y0146400D03*
X0398013Y0143900D03*
X0398013Y0151400D03*
X0398013Y0153900D03*
X0398013Y0156400D03*
X0401587Y0156400D03*
X0401587Y0153900D03*
X0401587Y0151400D03*
X0401587Y0158900D03*
X0401587Y0161400D03*
X0401587Y0163900D03*
X0401587Y0166400D03*
X0398013Y0166400D03*
X0398013Y0163900D03*
X0398013Y0161400D03*
X0398013Y0158900D03*
D18*
X0301640Y0170200D03*
X0294160Y0170200D03*
D19*
X0053556Y0069069D03*
X0053556Y0065131D03*
X0047650Y0065131D03*
X0044556Y0065131D03*
X0038650Y0065131D03*
X0038650Y0069069D03*
X0044556Y0069069D03*
X0047650Y0069069D03*
D20*
X0049619Y0069069D03*
X0051587Y0069069D03*
X0051587Y0065131D03*
X0049619Y0065131D03*
X0042587Y0065131D03*
X0040619Y0065131D03*
X0040619Y0069069D03*
X0042587Y0069069D03*
D21*
X0088831Y0073344D03*
X0092769Y0073344D03*
X0092769Y0079250D03*
X0088831Y0079250D03*
X0093831Y0066250D03*
X0097769Y0066250D03*
X0097769Y0060344D03*
X0093831Y0060344D03*
X0208831Y0054250D03*
X0212769Y0054250D03*
X0212769Y0048344D03*
X0208831Y0048344D03*
X0208831Y0044250D03*
X0212769Y0044250D03*
X0212769Y0038344D03*
X0208831Y0038344D03*
X0327831Y0052244D03*
X0331769Y0052244D03*
X0331769Y0058150D03*
X0331769Y0060344D03*
X0327831Y0060344D03*
X0327831Y0058150D03*
X0327831Y0066250D03*
X0331769Y0066250D03*
D22*
X0331769Y0064281D03*
X0331769Y0062313D03*
X0327831Y0062313D03*
X0327831Y0064281D03*
X0327831Y0056181D03*
X0327831Y0054213D03*
X0331769Y0054213D03*
X0331769Y0056181D03*
X0212769Y0052281D03*
X0212769Y0050313D03*
X0208831Y0050313D03*
X0208831Y0052281D03*
X0208831Y0042281D03*
X0208831Y0040313D03*
X0212769Y0040313D03*
X0212769Y0042281D03*
X0097769Y0062313D03*
X0097769Y0064281D03*
X0093831Y0064281D03*
X0093831Y0062313D03*
X0092769Y0075313D03*
X0092769Y0077281D03*
X0088831Y0077281D03*
X0088831Y0075313D03*
D23*
X0396300Y0053000D03*
X0406300Y0053000D03*
D24*
X0396300Y0053000D02*
X0396300Y0059600D01*
X0386800Y0069100D01*
X0378800Y0076100D01*
X0359200Y0076100D01*
X0351800Y0068700D01*
X0331100Y0068700D01*
X0325200Y0074600D01*
X0312800Y0074600D01*
X0310600Y0072400D01*
X0287100Y0072400D01*
X0282800Y0068100D01*
X0274800Y0069100D02*
X0288800Y0083100D01*
X0303800Y0083100D01*
X0329800Y0125100D01*
X0398013Y0133900D01*
X0397913Y0131400D02*
X0330800Y0122100D01*
X0305800Y0081100D01*
X0289800Y0081100D01*
X0274800Y0066100D01*
X0158800Y0066100D01*
X0145800Y0053100D01*
X0145800Y0052100D01*
X0151800Y0046400D01*
X0163200Y0046400D01*
X0164039Y0046939D01*
X0169186Y0046939D01*
X0169186Y0044380D02*
X0162080Y0044380D01*
X0157800Y0040100D01*
X0157800Y0017100D01*
X0158800Y0016100D01*
X0305800Y0016100D01*
X0321800Y0016100D01*
X0312800Y0019100D02*
X0305800Y0019100D01*
X0304800Y0020100D01*
X0304800Y0029206D01*
X0305080Y0029486D01*
X0307639Y0029486D02*
X0307800Y0029647D01*
X0307800Y0035100D01*
X0308800Y0036100D01*
X0310800Y0036100D01*
X0307800Y0035100D02*
X0307800Y0040100D01*
X0305800Y0042100D01*
X0296800Y0042100D01*
X0278800Y0024100D01*
X0187800Y0024100D01*
X0178800Y0033100D01*
X0178800Y0039100D01*
X0169347Y0039100D01*
X0169186Y0039261D01*
X0169186Y0036702D02*
X0165402Y0036702D01*
X0164800Y0036100D01*
X0164800Y0029100D01*
X0167800Y0026100D01*
X0168800Y0026100D01*
X0176800Y0026100D01*
X0180800Y0022100D01*
X0288700Y0022000D01*
X0291000Y0024100D01*
X0285800Y0019100D02*
X0164800Y0019500D01*
X0163800Y0019100D01*
X0160800Y0022100D01*
X0160800Y0039100D01*
X0163520Y0041820D01*
X0169186Y0041820D01*
X0164198Y0049498D02*
X0161800Y0048600D01*
X0156800Y0048600D01*
X0153800Y0050100D01*
X0153800Y0055100D01*
X0159800Y0060100D01*
X0202981Y0060100D01*
X0208831Y0054250D01*
X0208831Y0052281D02*
X0204981Y0052281D01*
X0203800Y0052100D01*
X0192457Y0052100D01*
X0192414Y0052057D01*
X0192414Y0049498D02*
X0205198Y0049498D01*
X0206013Y0050313D01*
X0208831Y0050313D01*
X0208831Y0048344D02*
X0206426Y0046939D01*
X0192414Y0046939D01*
X0192414Y0044380D02*
X0208702Y0044380D01*
X0208831Y0044250D01*
X0208831Y0042281D02*
X0200181Y0042281D01*
X0199700Y0041800D01*
X0192435Y0041800D01*
X0192414Y0041820D01*
X0184800Y0036100D02*
X0184800Y0049100D01*
X0177800Y0056100D01*
X0169186Y0049498D02*
X0164198Y0049498D01*
X0161757Y0052057D02*
X0160900Y0052800D01*
X0150800Y0037100D02*
X0093800Y0037100D01*
X0093800Y0030647D01*
X0093639Y0030486D01*
X0096198Y0030486D02*
X0096198Y0026702D01*
X0100800Y0022100D01*
X0101800Y0023100D01*
X0101800Y0026100D01*
X0098800Y0018100D02*
X0091080Y0025820D01*
X0091080Y0030486D01*
X0088520Y0030486D02*
X0088520Y0024380D01*
X0097000Y0015300D01*
X0158800Y0016100D01*
X0147800Y0021100D02*
X0145800Y0019100D01*
X0104800Y0019100D01*
X0103800Y0019100D01*
X0102800Y0018100D01*
X0098800Y0018100D01*
X0097000Y0015300D02*
X0054900Y0015300D01*
X0047520Y0023380D01*
X0047520Y0030486D01*
X0044961Y0030486D02*
X0044961Y0039261D01*
X0049800Y0044100D01*
X0054800Y0044100D02*
X0069800Y0028800D01*
X0076800Y0028800D01*
X0081800Y0024100D01*
X0082800Y0024100D01*
X0085961Y0027261D01*
X0085961Y0030486D01*
X0083402Y0030486D02*
X0082800Y0031088D01*
X0082800Y0038100D01*
X0092800Y0042100D02*
X0098800Y0048100D01*
X0098800Y0053671D01*
X0098757Y0053714D01*
X0098757Y0056057D01*
X0102800Y0060100D01*
X0117800Y0060100D01*
X0102800Y0064100D02*
X0097950Y0064100D01*
X0097769Y0064281D01*
X0097918Y0066100D02*
X0100800Y0066100D01*
X0109800Y0074100D01*
X0109800Y0113100D01*
X0124400Y0119900D01*
X0143800Y0114100D02*
X0143800Y0104100D01*
X0174800Y0073100D01*
X0272800Y0073100D01*
X0286800Y0087100D01*
X0299800Y0087100D01*
X0335800Y0144100D01*
X0398013Y0148900D01*
X0398013Y0146400D02*
X0358200Y0142800D01*
X0358200Y0139500D02*
X0351600Y0140400D01*
X0351100Y0136800D02*
X0345400Y0138800D01*
X0338400Y0138900D01*
X0346900Y0134500D02*
X0350200Y0133800D01*
X0398013Y0138900D01*
X0398013Y0141400D02*
X0392113Y0140400D01*
X0351100Y0136800D01*
X0358200Y0139500D02*
X0398013Y0143900D01*
X0398013Y0136400D02*
X0328800Y0128100D01*
X0301800Y0085100D01*
X0287800Y0085100D01*
X0273800Y0071100D01*
X0173800Y0071100D01*
X0136800Y0108100D01*
X0119800Y0108100D01*
X0113800Y0110100D02*
X0113800Y0075100D01*
X0102800Y0064100D01*
X0097918Y0066100D02*
X0097769Y0066250D01*
X0093831Y0066250D02*
X0091682Y0066100D01*
X0090800Y0066100D01*
X0088520Y0063820D01*
X0088520Y0053714D01*
X0085961Y0053714D02*
X0085961Y0061474D01*
X0088831Y0073344D01*
X0088831Y0075313D02*
X0086831Y0075313D01*
X0086619Y0075100D01*
X0083800Y0065100D01*
X0083402Y0062702D01*
X0083402Y0053714D01*
X0083587Y0053899D01*
X0080843Y0053714D02*
X0080843Y0063293D01*
X0084831Y0077281D01*
X0088831Y0077281D01*
X0088831Y0079250D02*
X0081950Y0079250D01*
X0078800Y0076100D01*
X0090800Y0083100D02*
X0092769Y0081131D01*
X0092769Y0079250D01*
X0092769Y0077281D02*
X0094981Y0077281D01*
X0095800Y0078100D01*
X0096800Y0080100D01*
X0105013Y0075313D02*
X0105800Y0076100D01*
X0105013Y0075313D02*
X0092769Y0075313D01*
X0092769Y0073344D02*
X0095013Y0073100D01*
X0095800Y0073100D01*
X0099800Y0072100D01*
X0100800Y0071100D01*
X0093831Y0064281D02*
X0093650Y0064100D01*
X0091800Y0064100D01*
X0091080Y0061820D01*
X0091080Y0053714D01*
X0092800Y0042100D02*
X0061800Y0042100D01*
X0057757Y0046143D01*
X0057757Y0053714D01*
X0050080Y0053714D02*
X0050080Y0060131D01*
X0049619Y0065131D01*
X0047650Y0065131D02*
X0047520Y0065131D01*
X0047520Y0053714D01*
X0044961Y0053714D02*
X0044961Y0065131D01*
X0044556Y0065131D01*
X0042587Y0065131D02*
X0042402Y0057131D01*
X0042402Y0053714D01*
X0039900Y0053771D02*
X0039843Y0053714D01*
X0039900Y0053771D02*
X0039900Y0058400D01*
X0040619Y0059119D01*
X0040619Y0065131D01*
X0038650Y0065131D02*
X0036800Y0063131D01*
X0036800Y0041100D01*
X0042402Y0035498D01*
X0042402Y0030486D01*
X0039843Y0030486D02*
X0039843Y0023143D01*
X0039800Y0023100D01*
X0050080Y0023820D02*
X0055800Y0018100D01*
X0079800Y0018100D01*
X0081600Y0018800D01*
X0074000Y0025400D02*
X0069800Y0020100D01*
X0056800Y0020100D01*
X0052639Y0024261D01*
X0052639Y0030486D01*
X0055198Y0030486D02*
X0055198Y0024702D01*
X0057800Y0022100D01*
X0064800Y0022100D01*
X0067800Y0025100D01*
X0073800Y0032100D02*
X0078414Y0032086D01*
X0080843Y0030486D01*
X0103800Y0031100D02*
X0105800Y0033100D01*
X0115800Y0033100D01*
X0050080Y0030486D02*
X0050080Y0023820D01*
X0031800Y0040100D02*
X0031800Y0067300D01*
X0033569Y0069069D01*
X0038650Y0069069D01*
X0040619Y0069069D02*
X0040619Y0072281D01*
X0038800Y0074100D01*
X0032800Y0074100D01*
X0026800Y0068100D01*
X0026800Y0054100D01*
X0042587Y0069069D02*
X0042587Y0075313D01*
X0034800Y0078100D01*
X0044556Y0078344D02*
X0027800Y0092100D01*
X0025800Y0094100D01*
X0020800Y0095100D01*
X0021800Y0100100D02*
X0026800Y0098100D01*
X0034800Y0091100D01*
X0047650Y0080250D01*
X0047650Y0069069D01*
X0049619Y0069069D02*
X0049619Y0085281D01*
X0027800Y0102100D01*
X0027800Y0119100D01*
X0023800Y0125100D01*
X0023800Y0138100D01*
X0021800Y0143100D01*
X0021800Y0119100D02*
X0022800Y0116100D01*
X0021800Y0100100D01*
X0044556Y0078344D02*
X0044556Y0069069D01*
X0119800Y0103100D02*
X0138800Y0103100D01*
X0172800Y0069100D01*
X0274800Y0069100D01*
X0271800Y0075100D02*
X0285800Y0089100D01*
X0297800Y0089100D01*
X0334800Y0146100D01*
X0398013Y0151400D01*
X0398013Y0153900D02*
X0333800Y0149100D01*
X0295800Y0091100D01*
X0284800Y0091100D01*
X0270800Y0077100D01*
X0176800Y0077100D01*
X0148800Y0105100D01*
X0148800Y0113100D01*
X0152540Y0116840D01*
X0189343Y0116840D01*
X0189343Y0112509D02*
X0152209Y0112509D01*
X0150800Y0111100D01*
X0150800Y0106100D01*
X0177800Y0079100D01*
X0269800Y0079100D01*
X0283800Y0093100D01*
X0293800Y0093100D01*
X0332800Y0152100D01*
X0398013Y0156400D01*
X0398013Y0158900D02*
X0331800Y0155100D01*
X0291800Y0095100D01*
X0282800Y0095100D01*
X0268800Y0081100D01*
X0178800Y0081100D01*
X0163800Y0096100D01*
X0163800Y0105100D01*
X0166879Y0108179D01*
X0189343Y0108179D01*
X0189343Y0103848D02*
X0169548Y0103848D01*
X0166800Y0101100D01*
X0166800Y0096100D01*
X0179800Y0083100D01*
X0267800Y0083100D01*
X0281800Y0097100D01*
X0290800Y0097100D01*
X0330800Y0158100D01*
X0398013Y0161400D01*
X0398013Y0163900D02*
X0329800Y0161100D01*
X0288800Y0099100D01*
X0280800Y0099100D01*
X0267800Y0086100D01*
X0249800Y0086100D01*
X0247800Y0089100D02*
X0244800Y0086700D01*
X0247800Y0089100D02*
X0267800Y0089100D01*
X0279800Y0101100D01*
X0286800Y0101100D01*
X0327800Y0164100D01*
X0398013Y0166400D01*
X0397913Y0128900D02*
X0331800Y0119100D01*
X0306800Y0077100D01*
X0304800Y0069100D02*
X0314800Y0069100D01*
X0316800Y0068100D01*
X0320800Y0067100D01*
X0325800Y0064100D01*
X0327650Y0064100D01*
X0327831Y0064281D01*
X0327831Y0062313D02*
X0327619Y0062100D01*
X0324800Y0062100D01*
X0320800Y0064100D01*
X0316800Y0065100D01*
X0312800Y0067100D01*
X0305800Y0067100D01*
X0297402Y0058702D01*
X0297402Y0052714D01*
X0294843Y0052714D02*
X0294843Y0059143D01*
X0304800Y0069100D01*
X0306800Y0065100D02*
X0310800Y0065100D01*
X0323800Y0060100D01*
X0327587Y0060100D01*
X0327831Y0060344D01*
X0327831Y0058150D02*
X0327682Y0058100D01*
X0322800Y0058100D01*
X0319800Y0059100D01*
X0309800Y0063100D01*
X0307800Y0063100D01*
X0302520Y0057820D01*
X0302520Y0052714D01*
X0299961Y0052714D02*
X0299961Y0058261D01*
X0306800Y0065100D01*
X0308800Y0059100D02*
X0311000Y0059100D01*
X0312757Y0057343D01*
X0312757Y0052714D01*
X0312757Y0055143D01*
X0315800Y0052100D02*
X0319800Y0056100D01*
X0327650Y0056100D01*
X0327831Y0056181D01*
X0331769Y0056181D02*
X0349419Y0056281D01*
X0357600Y0048100D01*
X0365800Y0048100D01*
X0364800Y0048100D01*
X0364800Y0053100D02*
X0359650Y0058250D01*
X0331769Y0058150D01*
X0331918Y0058100D01*
X0331769Y0056181D02*
X0331950Y0056100D01*
X0331769Y0060344D02*
X0370556Y0060344D01*
X0374800Y0056100D01*
X0369800Y0053100D02*
X0364800Y0053100D01*
X0375587Y0062313D02*
X0376800Y0061100D01*
X0375587Y0062313D02*
X0331769Y0062313D01*
X0331769Y0064281D02*
X0354619Y0064281D01*
X0378800Y0067100D01*
X0383800Y0065100D01*
X0383800Y0043100D01*
X0355400Y0067600D02*
X0351800Y0066100D01*
X0331918Y0066100D01*
X0331769Y0066250D01*
X0327831Y0066250D02*
X0324800Y0069281D01*
X0322800Y0070100D01*
X0336800Y0079100D02*
X0343800Y0083100D01*
X0348800Y0084500D01*
X0376700Y0090600D01*
X0382400Y0093000D01*
X0398013Y0098900D01*
X0398013Y0101400D02*
X0347400Y0086800D01*
X0334800Y0085100D01*
X0342800Y0090100D02*
X0347800Y0090100D01*
X0348600Y0091000D01*
X0355000Y0091700D01*
X0359000Y0092900D01*
X0398013Y0103900D01*
X0398013Y0106400D02*
X0353800Y0095100D01*
X0354000Y0098900D02*
X0350000Y0098900D01*
X0347300Y0098600D01*
X0339800Y0095100D01*
X0333900Y0094100D01*
X0332800Y0098100D02*
X0398013Y0111400D01*
X0398013Y0108900D02*
X0355900Y0099100D01*
X0354000Y0098900D01*
X0354000Y0082800D02*
X0374400Y0087000D01*
X0378100Y0087700D01*
X0398013Y0096400D01*
X0398013Y0093900D02*
X0395700Y0093100D01*
X0384800Y0087600D01*
X0381300Y0084100D01*
X0379800Y0084100D01*
X0372600Y0083800D01*
X0355800Y0080100D01*
X0347800Y0078100D01*
X0345800Y0074100D01*
X0341800Y0077100D02*
X0344800Y0080100D01*
X0347800Y0081100D01*
X0354000Y0082800D01*
X0357500Y0077800D02*
X0350800Y0075100D01*
X0350500Y0071900D01*
X0357500Y0077800D02*
X0376000Y0081100D01*
X0382400Y0081100D01*
X0398013Y0091400D01*
X0398013Y0113900D02*
X0331800Y0101100D01*
X0326800Y0098100D01*
X0323800Y0097100D01*
X0324800Y0092100D02*
X0332800Y0098100D01*
X0331800Y0104100D02*
X0327800Y0102100D01*
X0325800Y0102100D01*
X0331800Y0104100D02*
X0398013Y0116300D01*
X0398013Y0118900D02*
X0328800Y0106600D01*
X0331800Y0111100D02*
X0334800Y0111100D01*
X0335800Y0110000D01*
X0398013Y0121400D01*
X0398013Y0123900D02*
X0355600Y0116800D01*
X0343500Y0118200D02*
X0334700Y0116100D01*
X0343500Y0118200D02*
X0397913Y0126400D01*
X0324800Y0092100D02*
X0320800Y0092100D01*
X0283800Y0105100D02*
X0281800Y0103100D01*
X0278800Y0103100D01*
X0267800Y0092100D01*
X0251600Y0092000D01*
X0250300Y0095100D02*
X0248000Y0093100D01*
X0246300Y0092200D01*
X0241800Y0092100D01*
X0237120Y0087420D01*
X0237120Y0086780D01*
X0232800Y0092100D02*
X0229587Y0088887D01*
X0225170Y0088887D01*
X0220839Y0088887D02*
X0220839Y0096139D01*
X0221800Y0097100D01*
X0216800Y0097100D02*
X0216509Y0096809D01*
X0216509Y0088887D01*
X0212178Y0088887D02*
X0212178Y0095722D01*
X0210800Y0097100D01*
X0207847Y0093053D02*
X0203800Y0097100D01*
X0200800Y0095100D02*
X0196800Y0095100D01*
X0188800Y0087100D01*
X0193800Y0087100D02*
X0195587Y0088887D01*
X0199186Y0088887D01*
X0203517Y0088887D02*
X0203517Y0092383D01*
X0200800Y0095100D01*
X0207847Y0093053D02*
X0207847Y0088887D01*
X0189343Y0095187D02*
X0178887Y0095187D01*
X0177800Y0094100D01*
X0172800Y0096100D02*
X0176217Y0099517D01*
X0189343Y0099517D01*
X0232800Y0092100D02*
X0238800Y0092100D01*
X0244100Y0098400D01*
X0244800Y0102100D01*
X0248800Y0106100D01*
X0248800Y0112100D01*
X0252800Y0116100D01*
X0252800Y0127100D01*
X0255800Y0130100D01*
X0276800Y0130100D01*
X0281800Y0128100D01*
X0282800Y0123100D02*
X0276800Y0126100D01*
X0256000Y0125200D01*
X0250800Y0129100D02*
X0254800Y0133100D01*
X0277800Y0133100D01*
X0288800Y0139100D01*
X0299800Y0140100D02*
X0301800Y0142100D01*
X0303800Y0143100D01*
X0299800Y0140100D02*
X0281800Y0113100D01*
X0277800Y0108100D01*
X0265800Y0108100D01*
X0255000Y0097700D01*
X0250800Y0097100D01*
X0249400Y0097000D01*
X0246900Y0096400D01*
X0250300Y0095100D02*
X0267800Y0095100D01*
X0278800Y0106100D01*
X0279800Y0106100D01*
X0296800Y0131100D01*
X0300800Y0131500D01*
X0276800Y0142100D02*
X0263800Y0136100D01*
X0254800Y0136100D01*
X0248800Y0130100D01*
X0248800Y0118100D01*
X0244800Y0114100D01*
X0244800Y0108100D01*
X0239800Y0103100D01*
X0239800Y0100100D01*
X0239217Y0099517D01*
X0235013Y0099517D01*
X0238887Y0095187D02*
X0242100Y0099400D01*
X0242800Y0103100D01*
X0246800Y0107100D01*
X0246800Y0113100D01*
X0250800Y0117100D01*
X0250800Y0129100D01*
X0246800Y0131100D02*
X0256800Y0141100D01*
X0266800Y0141100D01*
X0271800Y0146100D01*
X0297800Y0146100D01*
X0298800Y0147100D01*
X0310800Y0147100D01*
X0308800Y0157100D02*
X0302800Y0157100D01*
X0297800Y0161100D01*
X0280800Y0161100D01*
X0274800Y0155100D01*
X0267800Y0155100D01*
X0262800Y0150100D01*
X0256800Y0150100D01*
X0240863Y0134163D01*
X0235013Y0134163D01*
X0241800Y0132100D02*
X0256800Y0147100D01*
X0263800Y0147100D01*
X0268800Y0152100D01*
X0276800Y0152100D01*
X0281800Y0157100D01*
X0293800Y0157100D01*
X0284800Y0151100D02*
X0282800Y0149100D01*
X0269800Y0149100D01*
X0264800Y0144100D01*
X0256800Y0144100D01*
X0244800Y0132100D01*
X0244800Y0120100D01*
X0240800Y0116100D01*
X0240800Y0110100D01*
X0238879Y0108179D01*
X0235013Y0108179D01*
X0237548Y0103848D02*
X0242800Y0109100D01*
X0242800Y0115100D01*
X0246800Y0119100D01*
X0246800Y0131100D01*
X0241800Y0132100D02*
X0241800Y0120100D01*
X0238540Y0116840D01*
X0235013Y0116840D01*
X0252800Y0113100D02*
X0252800Y0111100D01*
X0252800Y0113100D02*
X0259800Y0120100D01*
X0271800Y0120100D01*
X0275800Y0122100D01*
X0275800Y0117100D02*
X0265800Y0117100D01*
X0253800Y0105100D01*
X0252000Y0105100D01*
X0250600Y0100500D02*
X0253800Y0100100D01*
X0265800Y0112100D01*
X0275800Y0112100D01*
X0251800Y0100100D02*
X0250600Y0100500D01*
X0238887Y0095187D02*
X0235013Y0095187D01*
X0235013Y0103848D02*
X0237548Y0103848D01*
X0189343Y0121171D02*
X0153871Y0121171D01*
X0145800Y0113100D01*
X0145800Y0105100D01*
X0175800Y0075100D01*
X0271800Y0075100D01*
X0259800Y0056100D02*
X0231800Y0056100D01*
X0227981Y0052281D01*
X0212769Y0052281D01*
X0212769Y0050313D02*
X0247313Y0050313D01*
X0248100Y0051100D01*
X0256800Y0051100D01*
X0260800Y0055100D02*
X0259800Y0056100D01*
X0260800Y0055100D02*
X0260800Y0043100D01*
X0252800Y0046100D02*
X0250800Y0048100D01*
X0235800Y0048100D01*
X0235556Y0048344D01*
X0212769Y0048344D01*
X0212769Y0044250D02*
X0213918Y0044100D01*
X0232800Y0044100D01*
X0235800Y0041100D01*
X0248800Y0041100D01*
X0244800Y0036100D02*
X0236800Y0036100D01*
X0230619Y0042281D01*
X0212769Y0042281D01*
X0218800Y0038100D02*
X0226800Y0038100D01*
X0248800Y0029100D02*
X0251800Y0032100D01*
X0273800Y0032100D01*
X0288800Y0029100D02*
X0291186Y0029486D01*
X0294843Y0029486D01*
X0297402Y0029486D02*
X0297402Y0034702D01*
X0299800Y0037100D01*
X0304600Y0037100D02*
X0299961Y0032261D01*
X0299961Y0029486D01*
X0302520Y0029486D02*
X0302520Y0019380D01*
X0305800Y0016100D01*
X0311700Y0022500D02*
X0316700Y0022500D01*
X0318800Y0025100D01*
X0311700Y0022500D02*
X0310298Y0023702D01*
X0310198Y0029486D01*
X0308800Y0046100D02*
X0312800Y0046100D01*
X0315800Y0049100D01*
X0315800Y0052100D01*
X0308800Y0046100D02*
X0305080Y0047820D01*
X0305080Y0052714D01*
X0221800Y0057100D02*
X0215619Y0057100D01*
X0212769Y0054250D01*
X0186757Y0034143D02*
X0184800Y0036100D01*
X0186757Y0034143D02*
X0192414Y0034143D01*
X0143800Y0114100D02*
X0155202Y0125502D01*
X0189343Y0125502D01*
X0189343Y0129832D02*
X0189076Y0130100D01*
X0177800Y0130100D01*
X0168800Y0139100D01*
X0168800Y0158100D01*
X0165202Y0161698D01*
X0165202Y0168100D01*
X0176398Y0168100D02*
X0176800Y0167698D01*
X0176800Y0154100D01*
X0182800Y0153100D02*
X0172800Y0143100D01*
X0181737Y0134163D01*
X0189343Y0134163D01*
X0189343Y0135643D01*
X0196800Y0143100D01*
X0203800Y0143100D01*
X0182800Y0153100D02*
X0182800Y0165100D01*
X0184934Y0167234D01*
X0189343Y0167234D01*
X0189343Y0171565D01*
X0235013Y0171565D02*
X0235013Y0167234D01*
X0235146Y0167100D01*
X0239800Y0167100D01*
X0240800Y0166100D01*
X0240800Y0146100D01*
X0237524Y0142824D01*
X0235013Y0142824D01*
X0234737Y0143100D01*
X0228800Y0143100D01*
X0230800Y0138100D02*
X0234619Y0138100D01*
X0235013Y0138494D01*
X0230800Y0138100D02*
X0228800Y0136100D01*
X0227800Y0136100D01*
X0235013Y0129832D02*
X0235013Y0125502D01*
X0234414Y0126100D01*
X0218800Y0126100D01*
X0280800Y0166900D02*
X0278800Y0172100D01*
X0278800Y0170700D01*
X0280800Y0166900D02*
X0285800Y0166900D01*
X0288700Y0170200D01*
X0294160Y0170200D01*
X0301640Y0170200D02*
X0304540Y0170100D01*
X0312800Y0170100D01*
D25*
X0312800Y0170100D03*
X0308800Y0157100D03*
X0293800Y0157100D03*
X0284800Y0151100D03*
X0276800Y0142100D03*
X0288800Y0139100D03*
X0303800Y0143100D03*
X0310800Y0147100D03*
X0338400Y0138900D03*
X0346900Y0134500D03*
X0351600Y0140400D03*
X0358200Y0142800D03*
X0355600Y0116800D03*
X0334700Y0116100D03*
X0331800Y0111100D03*
X0328800Y0106600D03*
X0325800Y0102100D03*
X0323800Y0097100D03*
X0320800Y0092100D03*
X0333900Y0094100D03*
X0342800Y0090100D03*
X0334800Y0085100D03*
X0336800Y0079100D03*
X0341800Y0077100D03*
X0345800Y0074100D03*
X0350500Y0071900D03*
X0355400Y0067600D03*
X0376800Y0061100D03*
X0374800Y0056100D03*
X0369800Y0053100D03*
X0365800Y0048100D03*
X0383800Y0043100D03*
X0386800Y0069100D03*
X0353800Y0095100D03*
X0306800Y0077100D03*
X0322800Y0070100D03*
X0308800Y0059100D03*
X0282800Y0068100D03*
X0256800Y0051100D03*
X0252800Y0046100D03*
X0260800Y0043100D03*
X0248800Y0041100D03*
X0244800Y0036100D03*
X0248800Y0029100D03*
X0226800Y0038100D03*
X0218800Y0038100D03*
X0221800Y0057100D03*
X0177800Y0056100D03*
X0160900Y0052800D03*
X0142800Y0041100D03*
X0150800Y0037100D03*
X0130800Y0042100D03*
X0115800Y0033100D03*
X0103800Y0031100D03*
X0101800Y0026100D03*
X0104800Y0019100D03*
X0081600Y0018800D03*
X0074000Y0025400D03*
X0067800Y0025100D03*
X0073800Y0032100D03*
X0082800Y0038100D03*
X0093800Y0037100D03*
X0054800Y0044100D03*
X0049800Y0044100D03*
X0031800Y0040100D03*
X0026800Y0054100D03*
X0034800Y0078100D03*
X0020800Y0095100D03*
X0021800Y0119100D03*
X0021800Y0143100D03*
X0113800Y0110100D03*
X0119800Y0108100D03*
X0119800Y0103100D03*
X0124400Y0119900D03*
X0172800Y0143100D03*
X0176800Y0154100D03*
X0203800Y0143100D03*
X0227800Y0136100D03*
X0228800Y0143100D03*
X0218800Y0126100D03*
X0252800Y0111100D03*
X0252000Y0105100D03*
X0250600Y0100500D03*
X0246900Y0096400D03*
X0251600Y0092000D03*
X0249800Y0086100D03*
X0244800Y0086700D03*
X0237120Y0086780D03*
X0221800Y0097100D03*
X0216800Y0097100D03*
X0210800Y0097100D03*
X0203800Y0097100D03*
X0193800Y0087100D03*
X0188800Y0087100D03*
X0177800Y0094100D03*
X0172800Y0096100D03*
X0152800Y0068100D03*
X0117800Y0060100D03*
X0100800Y0071100D03*
X0105800Y0076100D03*
X0096800Y0080100D03*
X0090800Y0083100D03*
X0078800Y0076100D03*
X0178800Y0039100D03*
X0168800Y0026100D03*
X0164800Y0019500D03*
X0147800Y0021100D03*
X0039800Y0023100D03*
X0256000Y0125200D03*
X0275800Y0122100D03*
X0282800Y0123100D03*
X0281800Y0128100D03*
X0300800Y0131500D03*
X0275800Y0117100D03*
X0275800Y0112100D03*
X0283800Y0105100D03*
X0257800Y0168100D03*
X0299800Y0037100D03*
X0304600Y0037100D03*
X0310800Y0036100D03*
X0288800Y0029100D03*
X0291000Y0024100D03*
X0285800Y0019100D03*
X0273800Y0032100D03*
X0312800Y0019100D03*
X0321800Y0016100D03*
X0318800Y0025100D03*
D26*
X0142800Y0041100D02*
X0141800Y0042100D01*
X0130800Y0042100D01*
D27*
X0127462Y0041063D02*
X0084744Y0041063D01*
X0084772Y0041051D02*
X0083492Y0041581D01*
X0082108Y0041581D01*
X0080828Y0041051D01*
X0079849Y0040072D01*
X0079319Y0038792D01*
X0079319Y0037408D01*
X0079849Y0036128D01*
X0080700Y0035277D01*
X0080700Y0034940D01*
X0079590Y0034940D01*
X0078918Y0034268D01*
X0078843Y0034318D01*
X0078204Y0034186D01*
X0076632Y0034191D01*
X0075772Y0035051D01*
X0074492Y0035581D01*
X0073108Y0035581D01*
X0071828Y0035051D01*
X0070849Y0034072D01*
X0070319Y0032792D01*
X0070319Y0031408D01*
X0070417Y0031170D01*
X0058281Y0043549D01*
X0058281Y0044792D01*
X0057751Y0046072D01*
X0056772Y0047051D01*
X0055492Y0047581D01*
X0054108Y0047581D01*
X0052828Y0047051D01*
X0052300Y0046523D01*
X0051772Y0047051D01*
X0050492Y0047581D01*
X0049108Y0047581D01*
X0047828Y0047051D01*
X0046849Y0046072D01*
X0046319Y0044792D01*
X0046319Y0043589D01*
X0042861Y0040131D01*
X0042861Y0038008D01*
X0038900Y0041970D01*
X0038900Y0049260D01*
X0041097Y0049260D01*
X0041123Y0049286D01*
X0041149Y0049260D01*
X0043656Y0049260D01*
X0043682Y0049286D01*
X0043708Y0049260D01*
X0046215Y0049260D01*
X0046241Y0049286D01*
X0046267Y0049260D01*
X0048774Y0049260D01*
X0048800Y0049286D01*
X0048826Y0049260D01*
X0051333Y0049260D01*
X0051359Y0049286D01*
X0051385Y0049260D01*
X0053892Y0049260D01*
X0053918Y0049286D01*
X0053944Y0049260D01*
X0056337Y0049260D01*
X0056471Y0049183D01*
X0056929Y0049060D01*
X0057757Y0049060D01*
X0058584Y0049060D01*
X0059042Y0049183D01*
X0059452Y0049419D01*
X0059788Y0049755D01*
X0060025Y0050165D01*
X0060147Y0050623D01*
X0060147Y0053714D01*
X0057757Y0053714D01*
X0057757Y0053714D01*
X0057757Y0049060D01*
X0057757Y0053714D01*
X0057757Y0053714D01*
X0060147Y0053714D01*
X0060147Y0056805D01*
X0060025Y0057263D01*
X0059788Y0057674D01*
X0059452Y0058009D01*
X0059042Y0058246D01*
X0058584Y0058368D01*
X0057757Y0058368D01*
X0057757Y0053714D01*
X0057757Y0053714D01*
X0057757Y0058368D01*
X0056929Y0058368D01*
X0056471Y0058246D01*
X0056337Y0058168D01*
X0053944Y0058168D01*
X0053918Y0058142D01*
X0053892Y0058168D01*
X0052180Y0058168D01*
X0052180Y0059373D01*
X0052250Y0059458D01*
X0052180Y0060228D01*
X0052180Y0061001D01*
X0052101Y0061080D01*
X0051966Y0062547D01*
X0055006Y0062547D01*
X0055943Y0063484D01*
X0055943Y0066778D01*
X0055622Y0067100D01*
X0055943Y0067422D01*
X0055943Y0070715D01*
X0055006Y0071653D01*
X0051719Y0071653D01*
X0051719Y0084566D01*
X0051813Y0084688D01*
X0051719Y0085416D01*
X0051719Y0086151D01*
X0051610Y0086260D01*
X0051590Y0086413D01*
X0051008Y0086862D01*
X0050489Y0087381D01*
X0050334Y0087381D01*
X0029900Y0103133D01*
X0029900Y0118892D01*
X0030030Y0119541D01*
X0029900Y0119736D01*
X0029900Y0119970D01*
X0029432Y0120438D01*
X0025900Y0125736D01*
X0025900Y0137669D01*
X0026073Y0138072D01*
X0025900Y0138504D01*
X0025900Y0138970D01*
X0025590Y0139280D01*
X0024802Y0141250D01*
X0025281Y0142408D01*
X0025281Y0143792D01*
X0024751Y0145072D01*
X0023772Y0146051D01*
X0022492Y0146581D01*
X0021108Y0146581D01*
X0019828Y0146051D01*
X0018849Y0145072D01*
X0018319Y0143792D01*
X0018319Y0142408D01*
X0018849Y0141128D01*
X0019828Y0140149D01*
X0020896Y0139707D01*
X0021700Y0137696D01*
X0021700Y0125308D01*
X0021570Y0124659D01*
X0021700Y0124464D01*
X0021700Y0124230D01*
X0022168Y0123762D01*
X0023132Y0122316D01*
X0022492Y0122581D01*
X0021108Y0122581D01*
X0019828Y0122051D01*
X0018849Y0121072D01*
X0018319Y0119792D01*
X0018319Y0118408D01*
X0018849Y0117128D01*
X0019828Y0116149D01*
X0020677Y0115797D01*
X0019725Y0100567D01*
X0019527Y0100072D01*
X0019673Y0099732D01*
X0019650Y0099363D01*
X0020002Y0098963D01*
X0020166Y0098581D01*
X0020108Y0098581D01*
X0018828Y0098051D01*
X0017849Y0097072D01*
X0017319Y0095792D01*
X0017319Y0094408D01*
X0017849Y0093128D01*
X0018828Y0092149D01*
X0020108Y0091619D01*
X0021492Y0091619D01*
X0022772Y0092149D01*
X0023118Y0092495D01*
X0024765Y0092165D01*
X0025784Y0091147D01*
X0025795Y0091029D01*
X0026388Y0090542D01*
X0026930Y0090000D01*
X0027048Y0090000D01*
X0041940Y0077775D01*
X0038139Y0079135D01*
X0037751Y0080072D01*
X0036772Y0081051D01*
X0035492Y0081581D01*
X0034108Y0081581D01*
X0032828Y0081051D01*
X0031849Y0080072D01*
X0031319Y0078792D01*
X0031319Y0077408D01*
X0031849Y0076128D01*
X0031854Y0076123D01*
X0025930Y0070200D01*
X0024700Y0068970D01*
X0024700Y0056923D01*
X0023849Y0056072D01*
X0023319Y0054792D01*
X0023319Y0053408D01*
X0023849Y0052128D01*
X0024828Y0051149D01*
X0026108Y0050619D01*
X0027492Y0050619D01*
X0028772Y0051149D01*
X0029700Y0052077D01*
X0029700Y0042923D01*
X0028849Y0042072D01*
X0028319Y0040792D01*
X0028319Y0039408D01*
X0028849Y0038128D01*
X0029828Y0037149D01*
X0031108Y0036619D01*
X0032492Y0036619D01*
X0033772Y0037149D01*
X0034751Y0038128D01*
X0035281Y0039408D01*
X0035281Y0039649D01*
X0039990Y0034940D01*
X0038590Y0034940D01*
X0037653Y0034003D01*
X0037653Y0026969D01*
X0037743Y0026878D01*
X0037743Y0025966D01*
X0036849Y0025072D01*
X0036319Y0023792D01*
X0036319Y0022408D01*
X0036849Y0021128D01*
X0037828Y0020149D01*
X0039108Y0019619D01*
X0040492Y0019619D01*
X0041772Y0020149D01*
X0042751Y0021128D01*
X0043281Y0022408D01*
X0043281Y0023792D01*
X0042751Y0025072D01*
X0041943Y0025880D01*
X0041943Y0026031D01*
X0043656Y0026031D01*
X0043682Y0026058D01*
X0043708Y0026031D01*
X0045420Y0026031D01*
X0045420Y0023427D01*
X0045383Y0022606D01*
X0045420Y0022565D01*
X0045420Y0022510D01*
X0046002Y0021928D01*
X0052800Y0014485D01*
X0052800Y0014430D01*
X0053382Y0013849D01*
X0053936Y0013241D01*
X0053991Y0013239D01*
X0054030Y0013200D01*
X0054853Y0013200D01*
X0055674Y0013163D01*
X0055715Y0013200D01*
X0096146Y0013200D01*
X0096157Y0013189D01*
X0096978Y0013200D01*
X0097798Y0013172D01*
X0097828Y0013200D01*
X0097870Y0013200D01*
X0097881Y0013211D01*
X0158814Y0014000D01*
X0318977Y0014000D01*
X0319828Y0013149D01*
X0321108Y0012619D01*
X0322492Y0012619D01*
X0323772Y0013149D01*
X0324751Y0014128D01*
X0325281Y0015408D01*
X0325281Y0016792D01*
X0324751Y0018072D01*
X0323772Y0019051D01*
X0322492Y0019581D01*
X0321108Y0019581D01*
X0319828Y0019051D01*
X0318977Y0018200D01*
X0316195Y0018200D01*
X0316281Y0018408D01*
X0316281Y0019792D01*
X0316062Y0020320D01*
X0316811Y0020400D01*
X0317570Y0020400D01*
X0317660Y0020490D01*
X0317787Y0020504D01*
X0318264Y0021094D01*
X0318789Y0021619D01*
X0319492Y0021619D01*
X0320772Y0022149D01*
X0321751Y0023128D01*
X0322281Y0024408D01*
X0322281Y0025792D01*
X0321751Y0027072D01*
X0320772Y0028051D01*
X0319492Y0028581D01*
X0318108Y0028581D01*
X0316828Y0028051D01*
X0315849Y0027072D01*
X0315319Y0025792D01*
X0315319Y0024600D01*
X0312477Y0024600D01*
X0312381Y0024682D01*
X0312375Y0025031D01*
X0314010Y0025031D01*
X0314947Y0025969D01*
X0314947Y0033003D01*
X0314010Y0033940D01*
X0313563Y0033940D01*
X0313751Y0034128D01*
X0314281Y0035408D01*
X0314281Y0036792D01*
X0313751Y0038072D01*
X0312772Y0039051D01*
X0311492Y0039581D01*
X0310108Y0039581D01*
X0309900Y0039495D01*
X0309900Y0040970D01*
X0308670Y0042200D01*
X0306670Y0044200D01*
X0295930Y0044200D01*
X0294700Y0042970D01*
X0277930Y0026200D01*
X0250823Y0026200D01*
X0251751Y0027128D01*
X0252281Y0028408D01*
X0252281Y0029611D01*
X0252670Y0030000D01*
X0270977Y0030000D01*
X0271828Y0029149D01*
X0273108Y0028619D01*
X0274492Y0028619D01*
X0275772Y0029149D01*
X0276751Y0030128D01*
X0277281Y0031408D01*
X0277281Y0032792D01*
X0276751Y0034072D01*
X0275772Y0035051D01*
X0274492Y0035581D01*
X0273108Y0035581D01*
X0271828Y0035051D01*
X0270977Y0034200D01*
X0250930Y0034200D01*
X0249311Y0032581D01*
X0248108Y0032581D01*
X0246828Y0032051D01*
X0245849Y0031072D01*
X0245319Y0029792D01*
X0245319Y0028408D01*
X0245849Y0027128D01*
X0246777Y0026200D01*
X0188670Y0026200D01*
X0180900Y0033970D01*
X0180900Y0036277D01*
X0181751Y0037128D01*
X0182281Y0038408D01*
X0182281Y0039792D01*
X0181751Y0041072D01*
X0180772Y0042051D01*
X0179492Y0042581D01*
X0178108Y0042581D01*
X0176828Y0042051D01*
X0175977Y0041200D01*
X0173640Y0041200D01*
X0173640Y0043074D01*
X0173614Y0043100D01*
X0173640Y0043126D01*
X0173640Y0045633D01*
X0173614Y0045659D01*
X0173640Y0045685D01*
X0173640Y0048192D01*
X0173614Y0048218D01*
X0173640Y0048244D01*
X0173640Y0050751D01*
X0173614Y0050777D01*
X0173640Y0050803D01*
X0173640Y0053310D01*
X0172703Y0054247D01*
X0170169Y0054247D01*
X0169663Y0054457D01*
X0163982Y0054457D01*
X0163851Y0054772D01*
X0162872Y0055751D01*
X0161592Y0056281D01*
X0160208Y0056281D01*
X0158928Y0055751D01*
X0157949Y0054772D01*
X0157419Y0053492D01*
X0157419Y0052108D01*
X0157949Y0050828D01*
X0158077Y0050700D01*
X0157296Y0050700D01*
X0155900Y0051398D01*
X0155900Y0054116D01*
X0160560Y0058000D01*
X0202111Y0058000D01*
X0205730Y0054381D01*
X0205669Y0054381D01*
X0205523Y0054489D01*
X0204821Y0054381D01*
X0204111Y0054381D01*
X0203983Y0054253D01*
X0203640Y0054200D01*
X0195978Y0054200D01*
X0195931Y0054247D01*
X0188897Y0054247D01*
X0187960Y0053310D01*
X0187960Y0050803D01*
X0187986Y0050777D01*
X0187960Y0050751D01*
X0187960Y0048244D01*
X0187986Y0048218D01*
X0187960Y0048192D01*
X0187960Y0045685D01*
X0187986Y0045659D01*
X0187960Y0045633D01*
X0187960Y0043126D01*
X0187986Y0043100D01*
X0187960Y0043074D01*
X0187960Y0040567D01*
X0187986Y0040541D01*
X0187960Y0040515D01*
X0187960Y0038008D01*
X0187986Y0037982D01*
X0187960Y0037956D01*
X0187960Y0035563D01*
X0187883Y0035429D01*
X0187760Y0034971D01*
X0187760Y0034143D01*
X0187760Y0033316D01*
X0187883Y0032858D01*
X0188119Y0032448D01*
X0188455Y0032112D01*
X0188865Y0031875D01*
X0189323Y0031753D01*
X0192414Y0031753D01*
X0192414Y0034143D01*
X0192414Y0034143D01*
X0187760Y0034143D01*
X0192414Y0034143D01*
X0192414Y0034143D01*
X0192414Y0031753D01*
X0195505Y0031753D01*
X0195963Y0031875D01*
X0196374Y0032112D01*
X0196709Y0032448D01*
X0196946Y0032858D01*
X0197068Y0033316D01*
X0197068Y0034143D01*
X0192414Y0034143D01*
X0192414Y0034143D01*
X0197068Y0034143D01*
X0197068Y0034971D01*
X0196946Y0035429D01*
X0196868Y0035563D01*
X0196868Y0037956D01*
X0196842Y0037982D01*
X0196868Y0038008D01*
X0196868Y0039700D01*
X0200570Y0039700D01*
X0201051Y0040181D01*
X0206247Y0040181D01*
X0206247Y0036894D01*
X0207184Y0035957D01*
X0210478Y0035957D01*
X0210800Y0036278D01*
X0211122Y0035957D01*
X0214415Y0035957D01*
X0215353Y0036894D01*
X0215353Y0037326D01*
X0215849Y0036128D01*
X0216828Y0035149D01*
X0218108Y0034619D01*
X0219492Y0034619D01*
X0220772Y0035149D01*
X0221623Y0036000D01*
X0223977Y0036000D01*
X0224828Y0035149D01*
X0226108Y0034619D01*
X0227492Y0034619D01*
X0228772Y0035149D01*
X0229751Y0036128D01*
X0230281Y0037408D01*
X0230281Y0038792D01*
X0229751Y0040072D01*
X0229642Y0040181D01*
X0229749Y0040181D01*
X0235930Y0034000D01*
X0241977Y0034000D01*
X0242828Y0033149D01*
X0244108Y0032619D01*
X0245492Y0032619D01*
X0246772Y0033149D01*
X0247751Y0034128D01*
X0248281Y0035408D01*
X0248281Y0036792D01*
X0247904Y0037703D01*
X0248108Y0037619D01*
X0249492Y0037619D01*
X0250772Y0038149D01*
X0251751Y0039128D01*
X0252281Y0040408D01*
X0252281Y0041792D01*
X0251904Y0042703D01*
X0252108Y0042619D01*
X0253492Y0042619D01*
X0254772Y0043149D01*
X0255751Y0044128D01*
X0256281Y0045408D01*
X0256281Y0046792D01*
X0255904Y0047703D01*
X0256108Y0047619D01*
X0257492Y0047619D01*
X0258700Y0048119D01*
X0258700Y0045923D01*
X0257849Y0045072D01*
X0257319Y0043792D01*
X0257319Y0042408D01*
X0257849Y0041128D01*
X0258828Y0040149D01*
X0260108Y0039619D01*
X0261492Y0039619D01*
X0262772Y0040149D01*
X0263751Y0041128D01*
X0264281Y0042408D01*
X0264281Y0043792D01*
X0263751Y0045072D01*
X0262900Y0045923D01*
X0262900Y0055970D01*
X0261900Y0056970D01*
X0260670Y0058200D01*
X0230930Y0058200D01*
X0227111Y0054381D01*
X0224004Y0054381D01*
X0224751Y0055128D01*
X0225281Y0056408D01*
X0225281Y0057792D01*
X0224751Y0059072D01*
X0223772Y0060051D01*
X0222492Y0060581D01*
X0221108Y0060581D01*
X0219828Y0060051D01*
X0218977Y0059200D01*
X0214749Y0059200D01*
X0213519Y0057970D01*
X0212186Y0056637D01*
X0211122Y0056637D01*
X0210800Y0056315D01*
X0210478Y0056637D01*
X0209414Y0056637D01*
X0205081Y0060970D01*
X0203851Y0062200D01*
X0159895Y0062200D01*
X0159124Y0062270D01*
X0159040Y0062200D01*
X0158930Y0062200D01*
X0158382Y0061652D01*
X0153040Y0057200D01*
X0152930Y0057200D01*
X0152382Y0056652D01*
X0152020Y0056351D01*
X0159670Y0064000D01*
X0275670Y0064000D01*
X0290670Y0079000D01*
X0303819Y0079000D01*
X0303319Y0077792D01*
X0303319Y0076408D01*
X0303849Y0075128D01*
X0304828Y0074149D01*
X0306108Y0073619D01*
X0307492Y0073619D01*
X0308772Y0074149D01*
X0309751Y0075128D01*
X0310281Y0076408D01*
X0310281Y0077792D01*
X0310025Y0078412D01*
X0317500Y0090970D01*
X0317849Y0090128D01*
X0318828Y0089149D01*
X0320108Y0088619D01*
X0321492Y0088619D01*
X0322772Y0089149D01*
X0323623Y0090000D01*
X0324651Y0090000D01*
X0325364Y0089898D01*
X0325500Y0090000D01*
X0325670Y0090000D01*
X0326179Y0090510D01*
X0330419Y0093689D01*
X0330419Y0093408D01*
X0330949Y0092128D01*
X0331928Y0091149D01*
X0333208Y0090619D01*
X0334592Y0090619D01*
X0335872Y0091149D01*
X0336851Y0092128D01*
X0337004Y0092496D01*
X0339604Y0092937D01*
X0339900Y0092829D01*
X0340431Y0093077D01*
X0341009Y0093175D01*
X0341191Y0093432D01*
X0347875Y0096551D01*
X0350116Y0096800D01*
X0350736Y0096800D01*
X0350319Y0095792D01*
X0350319Y0094408D01*
X0350758Y0093348D01*
X0348424Y0093093D01*
X0347608Y0093045D01*
X0347568Y0093000D01*
X0347507Y0092993D01*
X0346995Y0092356D01*
X0346857Y0092200D01*
X0345623Y0092200D01*
X0344772Y0093051D01*
X0343492Y0093581D01*
X0342108Y0093581D01*
X0340828Y0093051D01*
X0339849Y0092072D01*
X0339319Y0090792D01*
X0339319Y0089408D01*
X0339849Y0088128D01*
X0340050Y0087927D01*
X0337271Y0087552D01*
X0336772Y0088051D01*
X0335492Y0088581D01*
X0334108Y0088581D01*
X0332828Y0088051D01*
X0331849Y0087072D01*
X0331319Y0085792D01*
X0331319Y0084408D01*
X0331849Y0083128D01*
X0332828Y0082149D01*
X0334108Y0081619D01*
X0334396Y0081619D01*
X0333849Y0081072D01*
X0333319Y0079792D01*
X0333319Y0078408D01*
X0333849Y0077128D01*
X0334828Y0076149D01*
X0336108Y0075619D01*
X0337492Y0075619D01*
X0338477Y0076027D01*
X0338849Y0075128D01*
X0339828Y0074149D01*
X0341108Y0073619D01*
X0342319Y0073619D01*
X0342319Y0073408D01*
X0342849Y0072128D01*
X0343828Y0071149D01*
X0345108Y0070619D01*
X0346492Y0070619D01*
X0347150Y0070891D01*
X0347549Y0069928D01*
X0348528Y0068949D01*
X0349808Y0068419D01*
X0351192Y0068419D01*
X0352133Y0068808D01*
X0351985Y0068452D01*
X0351380Y0068200D01*
X0333852Y0068200D01*
X0333415Y0068637D01*
X0330122Y0068637D01*
X0329800Y0068315D01*
X0329478Y0068637D01*
X0328414Y0068637D01*
X0326577Y0070474D01*
X0326401Y0070895D01*
X0326206Y0070975D01*
X0325751Y0072072D01*
X0324772Y0073051D01*
X0323492Y0073581D01*
X0322108Y0073581D01*
X0320828Y0073051D01*
X0319849Y0072072D01*
X0319319Y0070792D01*
X0319319Y0069635D01*
X0317533Y0070081D01*
X0316044Y0070826D01*
X0315670Y0071200D01*
X0315296Y0071200D01*
X0314961Y0071367D01*
X0314459Y0071200D01*
X0303930Y0071200D01*
X0302700Y0069970D01*
X0292743Y0060013D01*
X0292743Y0056322D01*
X0292653Y0056231D01*
X0292653Y0049197D01*
X0293590Y0048260D01*
X0296097Y0048260D01*
X0296123Y0048286D01*
X0296149Y0048260D01*
X0298656Y0048260D01*
X0298682Y0048286D01*
X0298708Y0048260D01*
X0301215Y0048260D01*
X0301241Y0048286D01*
X0301267Y0048260D01*
X0302969Y0048260D01*
X0302808Y0047912D01*
X0302980Y0047447D01*
X0302980Y0046951D01*
X0303268Y0046662D01*
X0303409Y0046280D01*
X0303859Y0046071D01*
X0304210Y0045720D01*
X0304617Y0045720D01*
X0307579Y0044351D01*
X0307930Y0044000D01*
X0308338Y0044000D01*
X0308708Y0043829D01*
X0309174Y0044000D01*
X0313670Y0044000D01*
X0314900Y0045230D01*
X0317900Y0048230D01*
X0317900Y0051230D01*
X0320670Y0054000D01*
X0325247Y0054000D01*
X0325247Y0050794D01*
X0326184Y0049857D01*
X0329478Y0049857D01*
X0329800Y0050178D01*
X0330122Y0049857D01*
X0333415Y0049857D01*
X0334353Y0050794D01*
X0334353Y0054096D01*
X0348554Y0054176D01*
X0355500Y0047230D01*
X0356730Y0046000D01*
X0362977Y0046000D01*
X0363828Y0045149D01*
X0365108Y0044619D01*
X0366492Y0044619D01*
X0367772Y0045149D01*
X0368751Y0046128D01*
X0369281Y0047408D01*
X0369281Y0048792D01*
X0368904Y0049703D01*
X0369108Y0049619D01*
X0370492Y0049619D01*
X0371772Y0050149D01*
X0372751Y0051128D01*
X0373281Y0052408D01*
X0373281Y0052961D01*
X0374108Y0052619D01*
X0375492Y0052619D01*
X0376772Y0053149D01*
X0377751Y0054128D01*
X0378281Y0055408D01*
X0378281Y0056792D01*
X0377873Y0057777D01*
X0378772Y0058149D01*
X0379751Y0059128D01*
X0380281Y0060408D01*
X0380281Y0061792D01*
X0379751Y0063072D01*
X0378772Y0064051D01*
X0377492Y0064581D01*
X0376108Y0064581D01*
X0375701Y0064413D01*
X0373883Y0064413D01*
X0378514Y0064952D01*
X0381700Y0063678D01*
X0381700Y0045923D01*
X0380849Y0045072D01*
X0380319Y0043792D01*
X0380319Y0042408D01*
X0380849Y0041128D01*
X0381828Y0040149D01*
X0383108Y0039619D01*
X0384492Y0039619D01*
X0385772Y0040149D01*
X0386751Y0041128D01*
X0387281Y0042408D01*
X0387281Y0043792D01*
X0386751Y0045072D01*
X0385900Y0045923D01*
X0385900Y0064696D01*
X0386073Y0065128D01*
X0385900Y0065531D01*
X0385900Y0065970D01*
X0385571Y0066299D01*
X0385388Y0066727D01*
X0384980Y0066890D01*
X0384670Y0067200D01*
X0384204Y0067200D01*
X0379863Y0068936D01*
X0379421Y0069287D01*
X0379086Y0069248D01*
X0378772Y0069373D01*
X0378253Y0069150D01*
X0358874Y0066891D01*
X0358881Y0066908D01*
X0358881Y0068292D01*
X0358351Y0069572D01*
X0357372Y0070551D01*
X0356092Y0071081D01*
X0354708Y0071081D01*
X0353767Y0070692D01*
X0353981Y0071208D01*
X0353981Y0072592D01*
X0353451Y0073872D01*
X0353428Y0073895D01*
X0358083Y0075771D01*
X0376186Y0079000D01*
X0382187Y0079000D01*
X0382830Y0078868D01*
X0383030Y0079000D01*
X0383270Y0079000D01*
X0383734Y0079464D01*
X0398264Y0089050D01*
X0399425Y0089050D01*
X0399800Y0089425D01*
X0399800Y0059501D01*
X0399495Y0059677D01*
X0399037Y0059800D01*
X0396750Y0059800D01*
X0396750Y0053450D01*
X0395850Y0053450D01*
X0395850Y0059800D01*
X0393563Y0059800D01*
X0393105Y0059677D01*
X0392695Y0059440D01*
X0392360Y0059105D01*
X0392123Y0058695D01*
X0392000Y0058237D01*
X0392000Y0053450D01*
X0395850Y0053450D01*
X0395850Y0052550D01*
X0396750Y0052550D01*
X0396750Y0046200D01*
X0399037Y0046200D01*
X0399495Y0046323D01*
X0399800Y0046499D01*
X0399800Y0012100D01*
X0004100Y0012100D01*
X0004100Y0174100D01*
X0139266Y0174100D01*
X0137200Y0172034D01*
X0137200Y0166566D01*
X0141066Y0162700D01*
X0146534Y0162700D01*
X0150400Y0166566D01*
X0150400Y0172034D01*
X0148334Y0174100D01*
X0180800Y0174100D01*
X0180800Y0172660D01*
X0180211Y0173249D01*
X0172586Y0173249D01*
X0171649Y0172312D01*
X0171649Y0163888D01*
X0172586Y0162951D01*
X0174700Y0162951D01*
X0174700Y0156923D01*
X0173849Y0156072D01*
X0173319Y0154792D01*
X0173319Y0153408D01*
X0173849Y0152128D01*
X0174828Y0151149D01*
X0176108Y0150619D01*
X0177492Y0150619D01*
X0178772Y0151149D01*
X0179751Y0152128D01*
X0180281Y0153408D01*
X0180281Y0154792D01*
X0179751Y0156072D01*
X0178900Y0156923D01*
X0178900Y0162951D01*
X0180211Y0162951D01*
X0180800Y0163540D01*
X0180800Y0147100D01*
X0238800Y0147100D01*
X0238800Y0164259D01*
X0239071Y0164416D01*
X0239406Y0164751D01*
X0239643Y0165161D01*
X0239765Y0165619D01*
X0239765Y0167234D01*
X0239765Y0168849D01*
X0239643Y0169307D01*
X0239589Y0169399D01*
X0239643Y0169492D01*
X0239765Y0169950D01*
X0239765Y0171564D01*
X0238800Y0171564D01*
X0238800Y0171565D01*
X0239765Y0171565D01*
X0239765Y0173179D01*
X0239643Y0173637D01*
X0239406Y0174048D01*
X0239071Y0174383D01*
X0238800Y0174539D01*
X0238800Y0174600D01*
X0273366Y0174600D01*
X0272200Y0173434D01*
X0272200Y0167966D01*
X0276066Y0164100D01*
X0281534Y0164100D01*
X0282234Y0164800D01*
X0285008Y0164800D01*
X0285067Y0164748D01*
X0285868Y0164800D01*
X0286670Y0164800D01*
X0286725Y0164855D01*
X0286803Y0164860D01*
X0287333Y0165463D01*
X0287900Y0166030D01*
X0287900Y0166108D01*
X0289650Y0168100D01*
X0290001Y0168100D01*
X0290001Y0166584D01*
X0290938Y0165647D01*
X0297382Y0165647D01*
X0297900Y0166166D01*
X0298418Y0165647D01*
X0304862Y0165647D01*
X0305799Y0166584D01*
X0305799Y0168000D01*
X0309977Y0168000D01*
X0310828Y0167149D01*
X0312108Y0166619D01*
X0313492Y0166619D01*
X0314772Y0167149D01*
X0315751Y0168128D01*
X0316281Y0169408D01*
X0316281Y0170792D01*
X0315751Y0172072D01*
X0314772Y0173051D01*
X0313492Y0173581D01*
X0312108Y0173581D01*
X0310828Y0173051D01*
X0309977Y0172200D01*
X0305799Y0172200D01*
X0305799Y0173815D01*
X0305015Y0174600D01*
X0399800Y0174600D01*
X0399800Y0168375D01*
X0399425Y0168750D01*
X0396600Y0168750D01*
X0396295Y0168445D01*
X0328392Y0166220D01*
X0328216Y0166335D01*
X0327546Y0166193D01*
X0326862Y0166170D01*
X0326719Y0166018D01*
X0326514Y0165974D01*
X0326141Y0165401D01*
X0325673Y0164901D01*
X0325680Y0164692D01*
X0314281Y0147177D01*
X0314281Y0147792D01*
X0313751Y0149072D01*
X0312772Y0150051D01*
X0311492Y0150581D01*
X0310108Y0150581D01*
X0308828Y0150051D01*
X0307977Y0149200D01*
X0297930Y0149200D01*
X0296930Y0148200D01*
X0286823Y0148200D01*
X0287751Y0149128D01*
X0288281Y0150408D01*
X0288281Y0151792D01*
X0287751Y0153072D01*
X0286772Y0154051D01*
X0285492Y0154581D01*
X0284108Y0154581D01*
X0282828Y0154051D01*
X0281849Y0153072D01*
X0281319Y0151792D01*
X0281319Y0151200D01*
X0278870Y0151200D01*
X0278900Y0151230D01*
X0282670Y0155000D01*
X0290977Y0155000D01*
X0291828Y0154149D01*
X0293108Y0153619D01*
X0294492Y0153619D01*
X0295772Y0154149D01*
X0296751Y0155128D01*
X0297281Y0156408D01*
X0297281Y0157792D01*
X0296781Y0159000D01*
X0297063Y0159000D01*
X0301397Y0155533D01*
X0301930Y0155000D01*
X0302063Y0155000D01*
X0302167Y0154917D01*
X0302916Y0155000D01*
X0305977Y0155000D01*
X0306828Y0154149D01*
X0308108Y0153619D01*
X0309492Y0153619D01*
X0310772Y0154149D01*
X0311751Y0155128D01*
X0312281Y0156408D01*
X0312281Y0157792D01*
X0311751Y0159072D01*
X0310772Y0160051D01*
X0309492Y0160581D01*
X0308108Y0160581D01*
X0306828Y0160051D01*
X0305977Y0159200D01*
X0303537Y0159200D01*
X0299203Y0162667D01*
X0298670Y0163200D01*
X0298537Y0163200D01*
X0298433Y0163283D01*
X0297684Y0163200D01*
X0279930Y0163200D01*
X0278700Y0161970D01*
X0273930Y0157200D01*
X0266930Y0157200D01*
X0265700Y0155970D01*
X0261930Y0152200D01*
X0255930Y0152200D01*
X0254700Y0150970D01*
X0239993Y0136263D01*
X0239506Y0136263D01*
X0239441Y0136328D01*
X0239565Y0136453D01*
X0239565Y0140534D01*
X0239535Y0140565D01*
X0239643Y0140752D01*
X0239765Y0141209D01*
X0239765Y0142824D01*
X0235013Y0142824D01*
X0235013Y0142824D01*
X0239765Y0142824D01*
X0239765Y0144439D01*
X0239643Y0144897D01*
X0239406Y0145308D01*
X0239071Y0145643D01*
X0238660Y0145880D01*
X0238202Y0146002D01*
X0235013Y0146002D01*
X0235013Y0142825D01*
X0235013Y0142825D01*
X0235013Y0146002D01*
X0231823Y0146002D01*
X0231365Y0145880D01*
X0230955Y0145643D01*
X0230619Y0145308D01*
X0230383Y0144897D01*
X0230260Y0144439D01*
X0230260Y0142824D01*
X0230260Y0141209D01*
X0230383Y0140752D01*
X0230490Y0140565D01*
X0230460Y0140534D01*
X0230460Y0140200D01*
X0229930Y0140200D01*
X0229071Y0139341D01*
X0228492Y0139581D01*
X0227108Y0139581D01*
X0225828Y0139051D01*
X0224849Y0138072D01*
X0224319Y0136792D01*
X0224319Y0135408D01*
X0224849Y0134128D01*
X0225828Y0133149D01*
X0227108Y0132619D01*
X0228492Y0132619D01*
X0229772Y0133149D01*
X0230460Y0133837D01*
X0230460Y0132122D01*
X0230585Y0131998D01*
X0230460Y0131873D01*
X0230460Y0128200D01*
X0221623Y0128200D01*
X0220772Y0129051D01*
X0219492Y0129581D01*
X0218108Y0129581D01*
X0216828Y0129051D01*
X0215849Y0128072D01*
X0215319Y0126792D01*
X0215319Y0125408D01*
X0215849Y0124128D01*
X0216828Y0123149D01*
X0218108Y0122619D01*
X0219492Y0122619D01*
X0220772Y0123149D01*
X0221623Y0124000D01*
X0230460Y0124000D01*
X0230460Y0123461D01*
X0230585Y0123336D01*
X0230460Y0123212D01*
X0230460Y0119130D01*
X0230585Y0119006D01*
X0230460Y0118881D01*
X0230460Y0114799D01*
X0230585Y0114675D01*
X0230460Y0114550D01*
X0230460Y0110469D01*
X0230585Y0110344D01*
X0230460Y0110219D01*
X0230460Y0106138D01*
X0230585Y0106013D01*
X0230460Y0105889D01*
X0230460Y0101807D01*
X0230585Y0101683D01*
X0230460Y0101558D01*
X0230460Y0097477D01*
X0230585Y0097352D01*
X0230460Y0097227D01*
X0230460Y0093146D01*
X0230668Y0092938D01*
X0228718Y0090987D01*
X0228148Y0090987D01*
X0228148Y0092503D01*
X0227211Y0093440D01*
X0223129Y0093440D01*
X0223005Y0093315D01*
X0222939Y0093381D01*
X0222939Y0093804D01*
X0223772Y0094149D01*
X0224751Y0095128D01*
X0225281Y0096408D01*
X0225281Y0097792D01*
X0224751Y0099072D01*
X0223772Y0100051D01*
X0222492Y0100581D01*
X0221108Y0100581D01*
X0219828Y0100051D01*
X0219300Y0099523D01*
X0218772Y0100051D01*
X0217492Y0100581D01*
X0216108Y0100581D01*
X0214828Y0100051D01*
X0213849Y0099072D01*
X0213800Y0098954D01*
X0213751Y0099072D01*
X0212772Y0100051D01*
X0211492Y0100581D01*
X0210108Y0100581D01*
X0208828Y0100051D01*
X0207849Y0099072D01*
X0207319Y0097792D01*
X0207319Y0096551D01*
X0207281Y0096589D01*
X0207281Y0097792D01*
X0206751Y0099072D01*
X0205772Y0100051D01*
X0204492Y0100581D01*
X0203108Y0100581D01*
X0201828Y0100051D01*
X0200849Y0099072D01*
X0200319Y0097792D01*
X0200319Y0097200D01*
X0195930Y0097200D01*
X0193896Y0095166D01*
X0193896Y0097227D01*
X0193771Y0097352D01*
X0193896Y0097477D01*
X0193896Y0101558D01*
X0193771Y0101683D01*
X0193896Y0101807D01*
X0193896Y0105889D01*
X0193771Y0106013D01*
X0193896Y0106138D01*
X0193896Y0110219D01*
X0193771Y0110344D01*
X0193896Y0110469D01*
X0193896Y0114550D01*
X0193771Y0114675D01*
X0193896Y0114799D01*
X0193896Y0118881D01*
X0193771Y0119006D01*
X0193896Y0119130D01*
X0193896Y0123212D01*
X0193771Y0123336D01*
X0193896Y0123461D01*
X0193896Y0127542D01*
X0193771Y0127667D01*
X0193896Y0127792D01*
X0193896Y0131873D01*
X0193866Y0131903D01*
X0193973Y0132090D01*
X0194096Y0132548D01*
X0194096Y0134163D01*
X0194096Y0135778D01*
X0193973Y0136236D01*
X0193736Y0136646D01*
X0193401Y0136981D01*
X0192991Y0137218D01*
X0192533Y0137341D01*
X0189343Y0137341D01*
X0186154Y0137341D01*
X0185696Y0137218D01*
X0185285Y0136981D01*
X0184950Y0136646D01*
X0184713Y0136236D01*
X0184591Y0135778D01*
X0184591Y0134163D01*
X0184591Y0132548D01*
X0184684Y0132200D01*
X0178670Y0132200D01*
X0170900Y0139970D01*
X0170900Y0158970D01*
X0169670Y0160200D01*
X0169670Y0160200D01*
X0167302Y0162568D01*
X0167302Y0162951D01*
X0169014Y0162951D01*
X0169951Y0163888D01*
X0169951Y0172312D01*
X0169014Y0173249D01*
X0161389Y0173249D01*
X0160452Y0172312D01*
X0160452Y0163888D01*
X0161389Y0162951D01*
X0163102Y0162951D01*
X0163102Y0160829D01*
X0166700Y0157230D01*
X0166700Y0138230D01*
X0175700Y0129230D01*
X0176930Y0128000D01*
X0184791Y0128000D01*
X0184791Y0127792D01*
X0184915Y0127667D01*
X0184850Y0127602D01*
X0154332Y0127602D01*
X0142930Y0116200D01*
X0141700Y0114970D01*
X0141700Y0106170D01*
X0137670Y0110200D01*
X0122623Y0110200D01*
X0121772Y0111051D01*
X0120492Y0111581D01*
X0119108Y0111581D01*
X0117828Y0111051D01*
X0117281Y0110504D01*
X0117281Y0110792D01*
X0116751Y0112072D01*
X0115772Y0113051D01*
X0115188Y0113293D01*
X0122751Y0116815D01*
X0123708Y0116419D01*
X0125092Y0116419D01*
X0126372Y0116949D01*
X0127351Y0117928D01*
X0127881Y0119208D01*
X0127881Y0120592D01*
X0127351Y0121872D01*
X0126372Y0122851D01*
X0125092Y0123381D01*
X0123708Y0123381D01*
X0122428Y0122851D01*
X0121449Y0121872D01*
X0120920Y0120596D01*
X0109335Y0115200D01*
X0108930Y0115200D01*
X0108577Y0114847D01*
X0108125Y0114636D01*
X0107986Y0114256D01*
X0107700Y0113970D01*
X0107700Y0113471D01*
X0107529Y0113002D01*
X0107700Y0112635D01*
X0107700Y0079081D01*
X0106492Y0079581D01*
X0105108Y0079581D01*
X0103828Y0079051D01*
X0102849Y0078072D01*
X0102576Y0077413D01*
X0099036Y0077413D01*
X0099751Y0078128D01*
X0100281Y0079408D01*
X0100281Y0080792D01*
X0099751Y0082072D01*
X0098772Y0083051D01*
X0097492Y0083581D01*
X0096108Y0083581D01*
X0094828Y0083051D01*
X0094323Y0082546D01*
X0094281Y0082589D01*
X0094281Y0083792D01*
X0093751Y0085072D01*
X0092772Y0086051D01*
X0091492Y0086581D01*
X0090108Y0086581D01*
X0088828Y0086051D01*
X0087849Y0085072D01*
X0087319Y0083792D01*
X0087319Y0082408D01*
X0087638Y0081637D01*
X0087184Y0081637D01*
X0086897Y0081350D01*
X0081080Y0081350D01*
X0079850Y0080119D01*
X0079311Y0079581D01*
X0078108Y0079581D01*
X0076828Y0079051D01*
X0075849Y0078072D01*
X0075319Y0076792D01*
X0075319Y0075408D01*
X0075849Y0074128D01*
X0076828Y0073149D01*
X0078108Y0072619D01*
X0079492Y0072619D01*
X0080772Y0073149D01*
X0081748Y0074125D01*
X0078973Y0064393D01*
X0078743Y0064163D01*
X0078743Y0063586D01*
X0078585Y0063032D01*
X0078743Y0062748D01*
X0078743Y0057322D01*
X0078653Y0057231D01*
X0078653Y0050197D01*
X0079590Y0049260D01*
X0082097Y0049260D01*
X0082123Y0049286D01*
X0082149Y0049260D01*
X0084656Y0049260D01*
X0084682Y0049286D01*
X0084708Y0049260D01*
X0087215Y0049260D01*
X0087241Y0049286D01*
X0087267Y0049260D01*
X0089774Y0049260D01*
X0089800Y0049286D01*
X0089826Y0049260D01*
X0092333Y0049260D01*
X0092359Y0049286D01*
X0092385Y0049260D01*
X0094892Y0049260D01*
X0094918Y0049286D01*
X0094944Y0049260D01*
X0097337Y0049260D01*
X0097471Y0049183D01*
X0097929Y0049060D01*
X0098757Y0049060D01*
X0099584Y0049060D01*
X0100042Y0049183D01*
X0100452Y0049419D01*
X0100788Y0049755D01*
X0101025Y0050165D01*
X0101147Y0050623D01*
X0101147Y0053714D01*
X0098757Y0053714D01*
X0098757Y0053714D01*
X0098757Y0049060D01*
X0098757Y0053714D01*
X0098757Y0053714D01*
X0101147Y0053714D01*
X0101147Y0056805D01*
X0101025Y0057263D01*
X0100788Y0057674D01*
X0100452Y0058009D01*
X0100042Y0058246D01*
X0099776Y0058317D01*
X0100353Y0058894D01*
X0100353Y0062000D01*
X0103670Y0062000D01*
X0104900Y0063230D01*
X0114670Y0073000D01*
X0115900Y0074230D01*
X0115900Y0107277D01*
X0116319Y0107696D01*
X0116319Y0107408D01*
X0116849Y0106128D01*
X0117377Y0105600D01*
X0116849Y0105072D01*
X0116319Y0103792D01*
X0116319Y0102408D01*
X0116849Y0101128D01*
X0117828Y0100149D01*
X0119108Y0099619D01*
X0120492Y0099619D01*
X0121772Y0100149D01*
X0122623Y0101000D01*
X0137930Y0101000D01*
X0170700Y0068230D01*
X0170730Y0068200D01*
X0157930Y0068200D01*
X0156700Y0066970D01*
X0143700Y0053970D01*
X0143700Y0052938D01*
X0143678Y0052916D01*
X0143700Y0052073D01*
X0143700Y0051230D01*
X0143722Y0051208D01*
X0143723Y0051177D01*
X0144334Y0050596D01*
X0144930Y0050000D01*
X0144962Y0050000D01*
X0150334Y0044896D01*
X0150930Y0044300D01*
X0150962Y0044300D01*
X0150984Y0044278D01*
X0151827Y0044300D01*
X0159030Y0044300D01*
X0156930Y0042200D01*
X0155700Y0040970D01*
X0155700Y0018160D01*
X0149608Y0018081D01*
X0149772Y0018149D01*
X0150751Y0019128D01*
X0151281Y0020408D01*
X0151281Y0021792D01*
X0150751Y0023072D01*
X0149772Y0024051D01*
X0148492Y0024581D01*
X0147108Y0024581D01*
X0145828Y0024051D01*
X0144849Y0023072D01*
X0144319Y0021792D01*
X0144319Y0021200D01*
X0107623Y0021200D01*
X0106772Y0022051D01*
X0105492Y0022581D01*
X0104108Y0022581D01*
X0103900Y0022495D01*
X0103900Y0023277D01*
X0104751Y0024128D01*
X0105281Y0025408D01*
X0105281Y0026792D01*
X0104873Y0027777D01*
X0105772Y0028149D01*
X0106751Y0029128D01*
X0107281Y0030408D01*
X0107281Y0031000D01*
X0112977Y0031000D01*
X0113828Y0030149D01*
X0115108Y0029619D01*
X0116492Y0029619D01*
X0117772Y0030149D01*
X0118751Y0031128D01*
X0119281Y0032408D01*
X0119281Y0033792D01*
X0118781Y0035000D01*
X0147977Y0035000D01*
X0148828Y0034149D01*
X0150108Y0033619D01*
X0151492Y0033619D01*
X0152772Y0034149D01*
X0153751Y0035128D01*
X0154281Y0036408D01*
X0154281Y0037792D01*
X0153751Y0039072D01*
X0152772Y0040051D01*
X0151492Y0040581D01*
X0150108Y0040581D01*
X0148828Y0040051D01*
X0147977Y0039200D01*
X0145781Y0039200D01*
X0146281Y0040408D01*
X0146281Y0041792D01*
X0145751Y0043072D01*
X0144772Y0044051D01*
X0143492Y0044581D01*
X0143127Y0044581D01*
X0142357Y0044900D01*
X0132923Y0044900D01*
X0132772Y0045051D01*
X0131492Y0045581D01*
X0130108Y0045581D01*
X0128828Y0045051D01*
X0127849Y0044072D01*
X0127319Y0042792D01*
X0127319Y0041408D01*
X0127849Y0040128D01*
X0128777Y0039200D01*
X0096623Y0039200D01*
X0095772Y0040051D01*
X0094492Y0040581D01*
X0093108Y0040581D01*
X0091828Y0040051D01*
X0090849Y0039072D01*
X0090319Y0037792D01*
X0090319Y0036408D01*
X0090849Y0035128D01*
X0091037Y0034940D01*
X0089826Y0034940D01*
X0089800Y0034914D01*
X0089774Y0034940D01*
X0087267Y0034940D01*
X0087241Y0034914D01*
X0087215Y0034940D01*
X0084900Y0034940D01*
X0084900Y0035277D01*
X0085751Y0036128D01*
X0086281Y0037408D01*
X0086281Y0038792D01*
X0085751Y0040072D01*
X0084772Y0041051D01*
X0086003Y0039464D02*
X0091241Y0039464D01*
X0090349Y0037866D02*
X0086281Y0037866D01*
X0085809Y0036267D02*
X0090377Y0036267D01*
X0096359Y0039464D02*
X0128513Y0039464D01*
X0127319Y0042661D02*
X0059151Y0042661D01*
X0058281Y0044260D02*
X0128037Y0044260D01*
X0144268Y0044260D02*
X0158990Y0044260D01*
X0157391Y0042661D02*
X0145921Y0042661D01*
X0146281Y0041063D02*
X0155793Y0041063D01*
X0155700Y0039464D02*
X0153359Y0039464D01*
X0154251Y0037866D02*
X0155700Y0037866D01*
X0155700Y0036267D02*
X0154223Y0036267D01*
X0153292Y0034669D02*
X0155700Y0034669D01*
X0155700Y0033070D02*
X0119281Y0033070D01*
X0118918Y0034669D02*
X0148308Y0034669D01*
X0148241Y0039464D02*
X0145890Y0039464D01*
X0149321Y0045858D02*
X0057840Y0045858D01*
X0055792Y0047457D02*
X0147639Y0047457D01*
X0145956Y0049055D02*
X0038900Y0049055D01*
X0038900Y0047457D02*
X0048808Y0047457D01*
X0050792Y0047457D02*
X0053808Y0047457D01*
X0057757Y0050654D02*
X0057757Y0050654D01*
X0057757Y0052252D02*
X0057757Y0052252D01*
X0057757Y0053851D02*
X0057757Y0053851D01*
X0057757Y0055449D02*
X0057757Y0055449D01*
X0057757Y0057048D02*
X0057757Y0057048D01*
X0060082Y0057048D02*
X0078653Y0057048D01*
X0078653Y0055449D02*
X0060147Y0055449D01*
X0060147Y0053851D02*
X0078653Y0053851D01*
X0078653Y0052252D02*
X0060147Y0052252D01*
X0060147Y0050654D02*
X0078653Y0050654D01*
X0078743Y0058646D02*
X0052180Y0058646D01*
X0052180Y0060245D02*
X0078743Y0060245D01*
X0078743Y0061843D02*
X0052031Y0061843D01*
X0055901Y0063442D02*
X0078702Y0063442D01*
X0079158Y0065040D02*
X0055943Y0065040D01*
X0055943Y0066639D02*
X0079614Y0066639D01*
X0080069Y0068237D02*
X0055943Y0068237D01*
X0055943Y0069836D02*
X0080525Y0069836D01*
X0080981Y0071434D02*
X0055224Y0071434D01*
X0051719Y0073033D02*
X0077108Y0073033D01*
X0075640Y0074632D02*
X0051719Y0074632D01*
X0051719Y0076230D02*
X0075319Y0076230D01*
X0075748Y0077829D02*
X0051719Y0077829D01*
X0051719Y0079427D02*
X0077736Y0079427D01*
X0080756Y0081026D02*
X0051719Y0081026D01*
X0051719Y0082624D02*
X0087319Y0082624D01*
X0087497Y0084223D02*
X0051719Y0084223D01*
X0051719Y0085821D02*
X0088598Y0085821D01*
X0093002Y0085821D02*
X0107700Y0085821D01*
X0107700Y0084223D02*
X0094103Y0084223D01*
X0094281Y0082624D02*
X0094401Y0082624D01*
X0099199Y0082624D02*
X0107700Y0082624D01*
X0107700Y0081026D02*
X0100185Y0081026D01*
X0100281Y0079427D02*
X0104736Y0079427D01*
X0106864Y0079427D02*
X0107700Y0079427D01*
X0102748Y0077829D02*
X0099452Y0077829D01*
X0114703Y0073033D02*
X0165897Y0073033D01*
X0164299Y0074632D02*
X0115900Y0074632D01*
X0115900Y0076230D02*
X0162700Y0076230D01*
X0161102Y0077829D02*
X0115900Y0077829D01*
X0115900Y0079427D02*
X0159503Y0079427D01*
X0157905Y0081026D02*
X0115900Y0081026D01*
X0115900Y0082624D02*
X0156306Y0082624D01*
X0154708Y0084223D02*
X0115900Y0084223D01*
X0115900Y0085821D02*
X0153109Y0085821D01*
X0151511Y0087420D02*
X0115900Y0087420D01*
X0115900Y0089018D02*
X0149912Y0089018D01*
X0148314Y0090617D02*
X0115900Y0090617D01*
X0115900Y0092215D02*
X0146715Y0092215D01*
X0145116Y0093814D02*
X0115900Y0093814D01*
X0115900Y0095412D02*
X0143518Y0095412D01*
X0141919Y0097011D02*
X0115900Y0097011D01*
X0115900Y0098609D02*
X0140321Y0098609D01*
X0138722Y0100208D02*
X0121831Y0100208D01*
X0117769Y0100208D02*
X0115900Y0100208D01*
X0115900Y0101806D02*
X0116568Y0101806D01*
X0116319Y0103405D02*
X0115900Y0103405D01*
X0115900Y0105003D02*
X0116820Y0105003D01*
X0116653Y0106602D02*
X0115900Y0106602D01*
X0117031Y0111397D02*
X0118664Y0111397D01*
X0120936Y0111397D02*
X0141700Y0111397D01*
X0141700Y0109799D02*
X0138071Y0109799D01*
X0139670Y0108200D02*
X0141700Y0108200D01*
X0141700Y0106602D02*
X0141268Y0106602D01*
X0141700Y0112996D02*
X0115827Y0112996D01*
X0117982Y0114594D02*
X0141700Y0114594D01*
X0142923Y0116193D02*
X0121414Y0116193D01*
X0127214Y0117791D02*
X0144521Y0117791D01*
X0146120Y0119390D02*
X0127881Y0119390D01*
X0127717Y0120988D02*
X0147719Y0120988D01*
X0149317Y0122587D02*
X0126636Y0122587D01*
X0122164Y0122587D02*
X0027999Y0122587D01*
X0026934Y0124185D02*
X0150916Y0124185D01*
X0152514Y0125784D02*
X0025900Y0125784D01*
X0025900Y0127382D02*
X0081280Y0127382D01*
X0081800Y0127300D02*
X0081800Y0127300D01*
X0086373Y0128024D01*
X0086373Y0128024D01*
X0090499Y0130127D01*
X0093773Y0133401D01*
X0095876Y0137527D01*
X0096600Y0142100D01*
X0095876Y0146673D01*
X0095876Y0146673D01*
X0093773Y0150799D01*
X0090499Y0154073D01*
X0086373Y0156176D01*
X0081800Y0156900D01*
X0077227Y0156176D01*
X0077227Y0156176D01*
X0073101Y0154073D01*
X0069827Y0150799D01*
X0067724Y0146673D01*
X0067000Y0142100D01*
X0067724Y0137527D01*
X0069827Y0133401D01*
X0069827Y0133401D01*
X0073101Y0130127D01*
X0077227Y0128024D01*
X0081800Y0127300D01*
X0082320Y0127382D02*
X0154113Y0127382D01*
X0169555Y0135375D02*
X0094779Y0135375D01*
X0093965Y0133776D02*
X0171154Y0133776D01*
X0172752Y0132178D02*
X0092551Y0132178D01*
X0093773Y0133401D02*
X0093773Y0133401D01*
X0090952Y0130579D02*
X0174351Y0130579D01*
X0175949Y0128981D02*
X0088251Y0128981D01*
X0090499Y0130127D02*
X0090499Y0130127D01*
X0095594Y0136973D02*
X0167957Y0136973D01*
X0166700Y0138572D02*
X0096041Y0138572D01*
X0095876Y0137527D02*
X0095876Y0137527D01*
X0096294Y0140170D02*
X0166700Y0140170D01*
X0166700Y0141769D02*
X0096548Y0141769D01*
X0096399Y0143368D02*
X0166700Y0143368D01*
X0166700Y0144966D02*
X0096146Y0144966D01*
X0095893Y0146565D02*
X0166700Y0146565D01*
X0166700Y0148163D02*
X0095117Y0148163D01*
X0094302Y0149762D02*
X0166700Y0149762D01*
X0166700Y0151360D02*
X0093213Y0151360D01*
X0093773Y0150799D02*
X0093773Y0150799D01*
X0091614Y0152959D02*
X0166700Y0152959D01*
X0166700Y0154557D02*
X0089550Y0154557D01*
X0090499Y0154073D02*
X0090499Y0154073D01*
X0086413Y0156156D02*
X0166700Y0156156D01*
X0166176Y0157754D02*
X0004100Y0157754D01*
X0004100Y0156156D02*
X0077187Y0156156D01*
X0074050Y0154557D02*
X0004100Y0154557D01*
X0004100Y0152959D02*
X0071986Y0152959D01*
X0073101Y0154073D02*
X0073101Y0154073D01*
X0070387Y0151360D02*
X0004100Y0151360D01*
X0004100Y0149762D02*
X0069298Y0149762D01*
X0068483Y0148163D02*
X0004100Y0148163D01*
X0004100Y0146565D02*
X0021068Y0146565D01*
X0022532Y0146565D02*
X0067707Y0146565D01*
X0067454Y0144966D02*
X0024795Y0144966D01*
X0025281Y0143368D02*
X0067201Y0143368D01*
X0067000Y0142100D02*
X0067000Y0142100D01*
X0067052Y0141769D02*
X0025017Y0141769D01*
X0025234Y0140170D02*
X0067306Y0140170D01*
X0067559Y0138572D02*
X0025900Y0138572D01*
X0025900Y0136973D02*
X0068006Y0136973D01*
X0067724Y0137527D02*
X0067724Y0137527D01*
X0068821Y0135375D02*
X0025900Y0135375D01*
X0025900Y0133776D02*
X0069635Y0133776D01*
X0071049Y0132178D02*
X0025900Y0132178D01*
X0025900Y0130579D02*
X0072648Y0130579D01*
X0073101Y0130127D02*
X0073101Y0130127D01*
X0075349Y0128981D02*
X0025900Y0128981D01*
X0021700Y0128981D02*
X0004100Y0128981D01*
X0004100Y0130579D02*
X0021700Y0130579D01*
X0021700Y0132178D02*
X0004100Y0132178D01*
X0004100Y0133776D02*
X0021700Y0133776D01*
X0021700Y0135375D02*
X0004100Y0135375D01*
X0004100Y0136973D02*
X0021700Y0136973D01*
X0021349Y0138572D02*
X0004100Y0138572D01*
X0004100Y0140170D02*
X0019806Y0140170D01*
X0018583Y0141769D02*
X0004100Y0141769D01*
X0004100Y0143368D02*
X0018319Y0143368D01*
X0018805Y0144966D02*
X0004100Y0144966D01*
X0004100Y0159353D02*
X0164578Y0159353D01*
X0163102Y0160951D02*
X0004100Y0160951D01*
X0004100Y0162550D02*
X0163102Y0162550D01*
X0160452Y0164148D02*
X0147982Y0164148D01*
X0149580Y0165747D02*
X0160452Y0165747D01*
X0160452Y0167345D02*
X0150400Y0167345D01*
X0150400Y0168944D02*
X0160452Y0168944D01*
X0160452Y0170542D02*
X0150400Y0170542D01*
X0150293Y0172141D02*
X0160452Y0172141D01*
X0169951Y0172141D02*
X0171649Y0172141D01*
X0171649Y0170542D02*
X0169951Y0170542D01*
X0169951Y0168944D02*
X0171649Y0168944D01*
X0171649Y0167345D02*
X0169951Y0167345D01*
X0169951Y0165747D02*
X0171649Y0165747D01*
X0171649Y0164148D02*
X0169951Y0164148D01*
X0167320Y0162550D02*
X0174700Y0162550D01*
X0174700Y0160951D02*
X0168919Y0160951D01*
X0170517Y0159353D02*
X0174700Y0159353D01*
X0174700Y0157754D02*
X0170900Y0157754D01*
X0170900Y0156156D02*
X0173933Y0156156D01*
X0173319Y0154557D02*
X0170900Y0154557D01*
X0170900Y0152959D02*
X0173505Y0152959D01*
X0174617Y0151360D02*
X0170900Y0151360D01*
X0170900Y0149762D02*
X0180800Y0149762D01*
X0180800Y0151360D02*
X0178983Y0151360D01*
X0180095Y0152959D02*
X0180800Y0152959D01*
X0180800Y0154557D02*
X0180281Y0154557D01*
X0180800Y0156156D02*
X0179667Y0156156D01*
X0178900Y0157754D02*
X0180800Y0157754D01*
X0180800Y0159353D02*
X0178900Y0159353D01*
X0178900Y0160951D02*
X0180800Y0160951D01*
X0180800Y0162550D02*
X0178900Y0162550D01*
X0180800Y0173739D02*
X0148695Y0173739D01*
X0138905Y0173739D02*
X0004100Y0173739D01*
X0004100Y0172141D02*
X0137307Y0172141D01*
X0137200Y0170542D02*
X0004100Y0170542D01*
X0004100Y0168944D02*
X0137200Y0168944D01*
X0137200Y0167345D02*
X0004100Y0167345D01*
X0004100Y0165747D02*
X0138020Y0165747D01*
X0139618Y0164148D02*
X0004100Y0164148D01*
X0004100Y0127382D02*
X0021700Y0127382D01*
X0021700Y0125784D02*
X0004100Y0125784D01*
X0004100Y0124185D02*
X0021745Y0124185D01*
X0022952Y0122587D02*
X0004100Y0122587D01*
X0004100Y0120988D02*
X0018814Y0120988D01*
X0018319Y0119390D02*
X0004100Y0119390D01*
X0004100Y0117791D02*
X0018574Y0117791D01*
X0019784Y0116193D02*
X0004100Y0116193D01*
X0004100Y0114594D02*
X0020602Y0114594D01*
X0020502Y0112996D02*
X0004100Y0112996D01*
X0004100Y0111397D02*
X0020402Y0111397D01*
X0020302Y0109799D02*
X0004100Y0109799D01*
X0004100Y0108200D02*
X0020202Y0108200D01*
X0020102Y0106602D02*
X0004100Y0106602D01*
X0004100Y0105003D02*
X0020002Y0105003D01*
X0019902Y0103405D02*
X0004100Y0103405D01*
X0004100Y0101806D02*
X0019803Y0101806D01*
X0019581Y0100208D02*
X0004100Y0100208D01*
X0004100Y0098609D02*
X0020154Y0098609D01*
X0017824Y0097011D02*
X0004100Y0097011D01*
X0004100Y0095412D02*
X0017319Y0095412D01*
X0017565Y0093814D02*
X0004100Y0093814D01*
X0004100Y0092215D02*
X0018762Y0092215D01*
X0022838Y0092215D02*
X0024516Y0092215D01*
X0026297Y0090617D02*
X0004100Y0090617D01*
X0004100Y0089018D02*
X0028244Y0089018D01*
X0030192Y0087420D02*
X0004100Y0087420D01*
X0004100Y0085821D02*
X0032139Y0085821D01*
X0034086Y0084223D02*
X0004100Y0084223D01*
X0004100Y0082624D02*
X0036033Y0082624D01*
X0036797Y0081026D02*
X0037980Y0081026D01*
X0038018Y0079427D02*
X0039927Y0079427D01*
X0041790Y0077829D02*
X0041874Y0077829D01*
X0032803Y0081026D02*
X0004100Y0081026D01*
X0004100Y0079427D02*
X0031582Y0079427D01*
X0031319Y0077829D02*
X0004100Y0077829D01*
X0004100Y0076230D02*
X0031807Y0076230D01*
X0030362Y0074632D02*
X0004100Y0074632D01*
X0004100Y0073033D02*
X0028763Y0073033D01*
X0027165Y0071434D02*
X0004100Y0071434D01*
X0004100Y0069836D02*
X0025566Y0069836D01*
X0024700Y0068237D02*
X0004100Y0068237D01*
X0004100Y0066639D02*
X0024700Y0066639D01*
X0024700Y0065040D02*
X0004100Y0065040D01*
X0004100Y0063442D02*
X0024700Y0063442D01*
X0024700Y0061843D02*
X0004100Y0061843D01*
X0004100Y0060245D02*
X0024700Y0060245D01*
X0024700Y0058646D02*
X0004100Y0058646D01*
X0004100Y0057048D02*
X0024700Y0057048D01*
X0023591Y0055449D02*
X0004100Y0055449D01*
X0004100Y0053851D02*
X0023319Y0053851D01*
X0023797Y0052252D02*
X0004100Y0052252D01*
X0004100Y0050654D02*
X0026023Y0050654D01*
X0027577Y0050654D02*
X0029700Y0050654D01*
X0029700Y0049055D02*
X0004100Y0049055D01*
X0004100Y0047457D02*
X0029700Y0047457D01*
X0029700Y0045858D02*
X0004100Y0045858D01*
X0004100Y0044260D02*
X0029700Y0044260D01*
X0029438Y0042661D02*
X0004100Y0042661D01*
X0004100Y0041063D02*
X0028431Y0041063D01*
X0028319Y0039464D02*
X0004100Y0039464D01*
X0004100Y0037866D02*
X0029111Y0037866D01*
X0034489Y0037866D02*
X0037064Y0037866D01*
X0035466Y0039464D02*
X0035281Y0039464D01*
X0038663Y0036267D02*
X0004100Y0036267D01*
X0004100Y0034669D02*
X0038319Y0034669D01*
X0037653Y0033070D02*
X0004100Y0033070D01*
X0004100Y0031472D02*
X0037653Y0031472D01*
X0037653Y0029873D02*
X0004100Y0029873D01*
X0004100Y0028275D02*
X0037653Y0028275D01*
X0037743Y0026676D02*
X0004100Y0026676D01*
X0004100Y0025078D02*
X0036855Y0025078D01*
X0036319Y0023479D02*
X0004100Y0023479D01*
X0004100Y0021881D02*
X0036537Y0021881D01*
X0037695Y0020282D02*
X0004100Y0020282D01*
X0004100Y0018684D02*
X0048965Y0018684D01*
X0047505Y0020282D02*
X0041905Y0020282D01*
X0043063Y0021881D02*
X0046045Y0021881D01*
X0045420Y0023479D02*
X0043281Y0023479D01*
X0042745Y0025078D02*
X0045420Y0025078D01*
X0050425Y0017085D02*
X0004100Y0017085D01*
X0004100Y0015487D02*
X0051885Y0015487D01*
X0053342Y0013888D02*
X0004100Y0013888D01*
X0004100Y0012290D02*
X0399800Y0012290D01*
X0399800Y0013888D02*
X0324511Y0013888D01*
X0325281Y0015487D02*
X0342123Y0015487D01*
X0343227Y0014924D02*
X0339101Y0017027D01*
X0339101Y0017027D01*
X0335827Y0020301D01*
X0335827Y0020301D01*
X0333724Y0024427D01*
X0333724Y0024427D01*
X0333000Y0029000D01*
X0333000Y0029000D01*
X0333724Y0033573D01*
X0333724Y0033573D01*
X0335827Y0037699D01*
X0335827Y0037699D01*
X0339101Y0040973D01*
X0339101Y0040973D01*
X0343227Y0043076D01*
X0343227Y0043076D01*
X0347800Y0043800D01*
X0347800Y0043800D01*
X0352373Y0043076D01*
X0352373Y0043076D01*
X0356499Y0040973D01*
X0356499Y0040973D01*
X0359773Y0037699D01*
X0359773Y0037699D01*
X0361876Y0033573D01*
X0361876Y0033573D01*
X0362600Y0029000D01*
X0361876Y0024427D01*
X0361876Y0024427D01*
X0359773Y0020301D01*
X0359773Y0020301D01*
X0356499Y0017027D01*
X0356499Y0017027D01*
X0352373Y0014924D01*
X0352373Y0014924D01*
X0347800Y0014200D01*
X0347800Y0014200D01*
X0343227Y0014924D01*
X0343227Y0014924D01*
X0339042Y0017085D02*
X0325160Y0017085D01*
X0324139Y0018684D02*
X0337444Y0018684D01*
X0335845Y0020282D02*
X0316078Y0020282D01*
X0316281Y0018684D02*
X0319461Y0018684D01*
X0320124Y0021881D02*
X0335022Y0021881D01*
X0334207Y0023479D02*
X0321897Y0023479D01*
X0322281Y0025078D02*
X0333621Y0025078D01*
X0333368Y0026676D02*
X0321915Y0026676D01*
X0320232Y0028275D02*
X0333115Y0028275D01*
X0333138Y0029873D02*
X0314947Y0029873D01*
X0314947Y0028275D02*
X0317368Y0028275D01*
X0315685Y0026676D02*
X0314947Y0026676D01*
X0315319Y0025078D02*
X0314056Y0025078D01*
X0314947Y0031472D02*
X0333391Y0031472D01*
X0333645Y0033070D02*
X0314880Y0033070D01*
X0313975Y0034669D02*
X0334282Y0034669D01*
X0335097Y0036267D02*
X0314281Y0036267D01*
X0313837Y0037866D02*
X0335993Y0037866D01*
X0337592Y0039464D02*
X0311774Y0039464D01*
X0309807Y0041063D02*
X0339276Y0041063D01*
X0342413Y0042661D02*
X0308209Y0042661D01*
X0307670Y0044260D02*
X0264088Y0044260D01*
X0264281Y0042661D02*
X0294391Y0042661D01*
X0292793Y0041063D02*
X0263686Y0041063D01*
X0257914Y0041063D02*
X0252281Y0041063D01*
X0252005Y0042661D02*
X0251921Y0042661D01*
X0253595Y0042661D02*
X0257319Y0042661D01*
X0257512Y0044260D02*
X0255806Y0044260D01*
X0256281Y0045858D02*
X0258635Y0045858D01*
X0258700Y0047457D02*
X0256006Y0047457D01*
X0262900Y0047457D02*
X0302976Y0047457D01*
X0304072Y0045858D02*
X0262965Y0045858D01*
X0262900Y0049055D02*
X0292795Y0049055D01*
X0292653Y0050654D02*
X0262900Y0050654D01*
X0262900Y0052252D02*
X0292653Y0052252D01*
X0292653Y0053851D02*
X0262900Y0053851D01*
X0262900Y0055449D02*
X0292653Y0055449D01*
X0292743Y0057048D02*
X0261822Y0057048D01*
X0276710Y0065040D02*
X0297771Y0065040D01*
X0296172Y0063442D02*
X0159112Y0063442D01*
X0158574Y0061843D02*
X0157513Y0061843D01*
X0156694Y0060245D02*
X0155915Y0060245D01*
X0154775Y0058646D02*
X0154316Y0058646D01*
X0152778Y0057048D02*
X0152718Y0057048D01*
X0149975Y0060245D02*
X0100353Y0060245D01*
X0100353Y0061843D02*
X0151574Y0061843D01*
X0153172Y0063442D02*
X0105112Y0063442D01*
X0106710Y0065040D02*
X0154771Y0065040D01*
X0156369Y0066639D02*
X0108309Y0066639D01*
X0109907Y0068237D02*
X0170693Y0068237D01*
X0169094Y0069836D02*
X0111506Y0069836D01*
X0113104Y0071434D02*
X0167496Y0071434D01*
X0148377Y0058646D02*
X0100105Y0058646D01*
X0098757Y0057957D02*
X0098757Y0053714D01*
X0098757Y0053714D01*
X0098757Y0057957D01*
X0098757Y0057957D01*
X0098757Y0057048D02*
X0098757Y0057048D01*
X0098757Y0055449D02*
X0098757Y0055449D01*
X0098757Y0053851D02*
X0098757Y0053851D01*
X0098757Y0052252D02*
X0098757Y0052252D01*
X0098757Y0050654D02*
X0098757Y0050654D01*
X0101147Y0050654D02*
X0144273Y0050654D01*
X0143695Y0052252D02*
X0101147Y0052252D01*
X0101147Y0053851D02*
X0143700Y0053851D01*
X0145180Y0055449D02*
X0101147Y0055449D01*
X0101082Y0057048D02*
X0146778Y0057048D01*
X0155900Y0053851D02*
X0157567Y0053851D01*
X0157500Y0055449D02*
X0158626Y0055449D01*
X0159418Y0057048D02*
X0203063Y0057048D01*
X0204662Y0055449D02*
X0163174Y0055449D01*
X0160900Y0052800D02*
X0160800Y0052057D01*
X0169186Y0052057D01*
X0173099Y0053851D02*
X0188501Y0053851D01*
X0187960Y0052252D02*
X0173640Y0052252D01*
X0173640Y0050654D02*
X0187960Y0050654D01*
X0187960Y0049055D02*
X0173640Y0049055D01*
X0173640Y0047457D02*
X0187960Y0047457D01*
X0187960Y0045858D02*
X0173640Y0045858D01*
X0173640Y0044260D02*
X0187960Y0044260D01*
X0187960Y0042661D02*
X0173640Y0042661D01*
X0181755Y0041063D02*
X0187960Y0041063D01*
X0187960Y0039464D02*
X0182281Y0039464D01*
X0182057Y0037866D02*
X0187960Y0037866D01*
X0187960Y0036267D02*
X0180900Y0036267D01*
X0180900Y0034669D02*
X0187760Y0034669D01*
X0187826Y0033070D02*
X0181800Y0033070D01*
X0183398Y0031472D02*
X0246249Y0031472D01*
X0246582Y0033070D02*
X0249800Y0033070D01*
X0247975Y0034669D02*
X0271446Y0034669D01*
X0276154Y0034669D02*
X0286399Y0034669D01*
X0287997Y0036267D02*
X0248281Y0036267D01*
X0250088Y0037866D02*
X0289596Y0037866D01*
X0291194Y0039464D02*
X0251890Y0039464D01*
X0243018Y0033070D02*
X0197003Y0033070D01*
X0197068Y0034669D02*
X0217987Y0034669D01*
X0219613Y0034669D02*
X0225987Y0034669D01*
X0227613Y0034669D02*
X0235261Y0034669D01*
X0233663Y0036267D02*
X0229809Y0036267D01*
X0230281Y0037866D02*
X0232064Y0037866D01*
X0230466Y0039464D02*
X0230003Y0039464D01*
X0215791Y0036267D02*
X0214726Y0036267D01*
X0210811Y0036267D02*
X0210789Y0036267D01*
X0206874Y0036267D02*
X0196868Y0036267D01*
X0196868Y0037866D02*
X0206247Y0037866D01*
X0206247Y0039464D02*
X0196868Y0039464D01*
X0192414Y0033070D02*
X0192414Y0033070D01*
X0184997Y0029873D02*
X0245352Y0029873D01*
X0245374Y0028275D02*
X0186595Y0028275D01*
X0188194Y0026676D02*
X0246301Y0026676D01*
X0251299Y0026676D02*
X0278406Y0026676D01*
X0280005Y0028275D02*
X0252226Y0028275D01*
X0252543Y0029873D02*
X0271104Y0029873D01*
X0276496Y0029873D02*
X0281603Y0029873D01*
X0283202Y0031472D02*
X0277281Y0031472D01*
X0277166Y0033070D02*
X0284800Y0033070D01*
X0313930Y0044260D02*
X0380512Y0044260D01*
X0380319Y0042661D02*
X0353187Y0042661D01*
X0356324Y0041063D02*
X0380914Y0041063D01*
X0386686Y0041063D02*
X0399800Y0041063D01*
X0399800Y0042661D02*
X0387281Y0042661D01*
X0387087Y0044260D02*
X0399800Y0044260D01*
X0399800Y0045858D02*
X0385965Y0045858D01*
X0385900Y0047457D02*
X0392082Y0047457D01*
X0392123Y0047305D02*
X0392360Y0046895D01*
X0392695Y0046560D01*
X0393105Y0046323D01*
X0393563Y0046200D01*
X0395850Y0046200D01*
X0395850Y0052550D01*
X0392000Y0052550D01*
X0392000Y0047763D01*
X0392123Y0047305D01*
X0392000Y0049055D02*
X0385900Y0049055D01*
X0385900Y0050654D02*
X0392000Y0050654D01*
X0392000Y0052252D02*
X0385900Y0052252D01*
X0385900Y0053851D02*
X0392000Y0053851D01*
X0392000Y0055449D02*
X0385900Y0055449D01*
X0385900Y0057048D02*
X0392000Y0057048D01*
X0392110Y0058646D02*
X0385900Y0058646D01*
X0385900Y0060245D02*
X0399800Y0060245D01*
X0399800Y0061843D02*
X0385900Y0061843D01*
X0385900Y0063442D02*
X0399800Y0063442D01*
X0399800Y0065040D02*
X0386038Y0065040D01*
X0385425Y0066639D02*
X0399800Y0066639D01*
X0399800Y0068237D02*
X0381611Y0068237D01*
X0370421Y0068237D02*
X0358881Y0068237D01*
X0358087Y0069836D02*
X0399800Y0069836D01*
X0399800Y0071434D02*
X0353981Y0071434D01*
X0353799Y0073033D02*
X0399800Y0073033D01*
X0399800Y0074632D02*
X0355256Y0074632D01*
X0360657Y0076230D02*
X0399800Y0076230D01*
X0399800Y0077829D02*
X0369619Y0077829D01*
X0383697Y0079427D02*
X0399800Y0079427D01*
X0399800Y0081026D02*
X0386101Y0081026D01*
X0388524Y0082624D02*
X0399800Y0082624D01*
X0399800Y0084223D02*
X0390947Y0084223D01*
X0393370Y0085821D02*
X0399800Y0085821D01*
X0399800Y0087420D02*
X0395793Y0087420D01*
X0398216Y0089018D02*
X0399800Y0089018D01*
X0350565Y0093814D02*
X0342009Y0093814D01*
X0339992Y0092215D02*
X0336887Y0092215D01*
X0339319Y0090617D02*
X0326322Y0090617D01*
X0328454Y0092215D02*
X0330913Y0092215D01*
X0332197Y0087420D02*
X0315386Y0087420D01*
X0316338Y0089018D02*
X0319144Y0089018D01*
X0317647Y0090617D02*
X0317289Y0090617D01*
X0322456Y0089018D02*
X0339480Y0089018D01*
X0345608Y0092215D02*
X0346870Y0092215D01*
X0345435Y0095412D02*
X0350319Y0095412D01*
X0331331Y0085821D02*
X0314435Y0085821D01*
X0313483Y0084223D02*
X0331396Y0084223D01*
X0332353Y0082624D02*
X0312532Y0082624D01*
X0311580Y0081026D02*
X0333830Y0081026D01*
X0333319Y0079427D02*
X0310629Y0079427D01*
X0310266Y0077829D02*
X0333559Y0077829D01*
X0334747Y0076230D02*
X0310208Y0076230D01*
X0309255Y0074632D02*
X0339345Y0074632D01*
X0342474Y0073033D02*
X0324790Y0073033D01*
X0326015Y0071434D02*
X0343542Y0071434D01*
X0347641Y0069836D02*
X0327215Y0069836D01*
X0333815Y0068237D02*
X0351470Y0068237D01*
X0378175Y0057048D02*
X0381700Y0057048D01*
X0381700Y0058646D02*
X0379269Y0058646D01*
X0380214Y0060245D02*
X0381700Y0060245D01*
X0381700Y0061843D02*
X0380260Y0061843D01*
X0379381Y0063442D02*
X0381700Y0063442D01*
X0381700Y0055449D02*
X0378281Y0055449D01*
X0377474Y0053851D02*
X0381700Y0053851D01*
X0381700Y0052252D02*
X0373217Y0052252D01*
X0372277Y0050654D02*
X0381700Y0050654D01*
X0381700Y0049055D02*
X0369172Y0049055D01*
X0369281Y0047457D02*
X0381700Y0047457D01*
X0381635Y0045858D02*
X0368481Y0045858D01*
X0363119Y0045858D02*
X0315528Y0045858D01*
X0317127Y0047457D02*
X0355273Y0047457D01*
X0353675Y0049055D02*
X0317900Y0049055D01*
X0317900Y0050654D02*
X0325387Y0050654D01*
X0325247Y0052252D02*
X0318922Y0052252D01*
X0320521Y0053851D02*
X0325247Y0053851D01*
X0318206Y0057476D02*
X0317700Y0056970D01*
X0317700Y0056970D01*
X0315147Y0054417D01*
X0315147Y0055805D01*
X0315025Y0056263D01*
X0314788Y0056674D01*
X0314452Y0057009D01*
X0314042Y0057246D01*
X0313584Y0057368D01*
X0312757Y0057368D01*
X0312757Y0052714D01*
X0312757Y0052714D01*
X0312757Y0057368D01*
X0311929Y0057368D01*
X0311471Y0057246D01*
X0311337Y0057168D01*
X0308944Y0057168D01*
X0308918Y0057142D01*
X0308892Y0057168D01*
X0306385Y0057168D01*
X0306359Y0057142D01*
X0306333Y0057168D01*
X0304838Y0057168D01*
X0308670Y0061000D01*
X0309396Y0061000D01*
X0318206Y0057476D01*
X0317778Y0057048D02*
X0314385Y0057048D01*
X0312757Y0057048D02*
X0312757Y0057048D01*
X0312757Y0055449D02*
X0312757Y0055449D01*
X0312757Y0053851D02*
X0312757Y0053851D01*
X0315147Y0055449D02*
X0316180Y0055449D01*
X0315280Y0058646D02*
X0306316Y0058646D01*
X0307915Y0060245D02*
X0311283Y0060245D01*
X0299369Y0066639D02*
X0278309Y0066639D01*
X0279907Y0068237D02*
X0300968Y0068237D01*
X0302566Y0069836D02*
X0281506Y0069836D01*
X0283104Y0071434D02*
X0319585Y0071434D01*
X0319319Y0069836D02*
X0318514Y0069836D01*
X0320810Y0073033D02*
X0284703Y0073033D01*
X0286301Y0074632D02*
X0304345Y0074632D01*
X0303392Y0076230D02*
X0287900Y0076230D01*
X0289498Y0077829D02*
X0303334Y0077829D01*
X0294574Y0061843D02*
X0204208Y0061843D01*
X0205806Y0060245D02*
X0220296Y0060245D01*
X0223304Y0060245D02*
X0292975Y0060245D01*
X0292743Y0058646D02*
X0224927Y0058646D01*
X0225281Y0057048D02*
X0229778Y0057048D01*
X0228180Y0055449D02*
X0224884Y0055449D01*
X0214195Y0058646D02*
X0207405Y0058646D01*
X0209003Y0057048D02*
X0212597Y0057048D01*
X0157419Y0052252D02*
X0155900Y0052252D01*
X0155700Y0031472D02*
X0118893Y0031472D01*
X0117106Y0029873D02*
X0155700Y0029873D01*
X0155700Y0028275D02*
X0105898Y0028275D01*
X0105281Y0026676D02*
X0155700Y0026676D01*
X0155700Y0025078D02*
X0105144Y0025078D01*
X0104102Y0023479D02*
X0145256Y0023479D01*
X0144355Y0021881D02*
X0106942Y0021881D01*
X0107060Y0029873D02*
X0114494Y0029873D01*
X0079791Y0036267D02*
X0065420Y0036267D01*
X0066987Y0034669D02*
X0071446Y0034669D01*
X0070434Y0033070D02*
X0068554Y0033070D01*
X0070122Y0031472D02*
X0070319Y0031472D01*
X0076154Y0034669D02*
X0079319Y0034669D01*
X0079319Y0037866D02*
X0063853Y0037866D01*
X0062286Y0039464D02*
X0079597Y0039464D01*
X0080856Y0041063D02*
X0060719Y0041063D01*
X0046319Y0044260D02*
X0038900Y0044260D01*
X0038900Y0045858D02*
X0046760Y0045858D01*
X0045391Y0042661D02*
X0038900Y0042661D01*
X0039807Y0041063D02*
X0043793Y0041063D01*
X0042861Y0039464D02*
X0041406Y0039464D01*
X0080492Y0073033D02*
X0081437Y0073033D01*
X0107700Y0087420D02*
X0050284Y0087420D01*
X0048211Y0089018D02*
X0107700Y0089018D01*
X0107700Y0090617D02*
X0046137Y0090617D01*
X0044063Y0092215D02*
X0107700Y0092215D01*
X0107700Y0093814D02*
X0041989Y0093814D01*
X0039916Y0095412D02*
X0107700Y0095412D01*
X0107700Y0097011D02*
X0037842Y0097011D01*
X0035768Y0098609D02*
X0107700Y0098609D01*
X0107700Y0100208D02*
X0033695Y0100208D01*
X0031621Y0101806D02*
X0107700Y0101806D01*
X0107700Y0103405D02*
X0029900Y0103405D01*
X0029900Y0105003D02*
X0107700Y0105003D01*
X0107700Y0106602D02*
X0029900Y0106602D01*
X0029900Y0108200D02*
X0107700Y0108200D01*
X0107700Y0109799D02*
X0029900Y0109799D01*
X0029900Y0111397D02*
X0107700Y0111397D01*
X0107532Y0112996D02*
X0029900Y0112996D01*
X0029900Y0114594D02*
X0108110Y0114594D01*
X0111467Y0116193D02*
X0029900Y0116193D01*
X0029900Y0117791D02*
X0114899Y0117791D01*
X0118331Y0119390D02*
X0030000Y0119390D01*
X0029065Y0120988D02*
X0121083Y0120988D01*
X0077227Y0128024D02*
X0077227Y0128024D01*
X0081800Y0156900D02*
X0081800Y0156900D01*
X0086373Y0156176D02*
X0086373Y0156176D01*
X0170900Y0148163D02*
X0180800Y0148163D01*
X0170900Y0146565D02*
X0250295Y0146565D01*
X0251893Y0148163D02*
X0238800Y0148163D01*
X0238800Y0149762D02*
X0253492Y0149762D01*
X0255090Y0151360D02*
X0238800Y0151360D01*
X0238800Y0152959D02*
X0262689Y0152959D01*
X0264287Y0154557D02*
X0238800Y0154557D01*
X0238800Y0156156D02*
X0265886Y0156156D01*
X0274484Y0157754D02*
X0238800Y0157754D01*
X0238800Y0159353D02*
X0276083Y0159353D01*
X0277681Y0160951D02*
X0238800Y0160951D01*
X0238800Y0162550D02*
X0279280Y0162550D01*
X0281582Y0164148D02*
X0325326Y0164148D01*
X0324286Y0162550D02*
X0299350Y0162550D01*
X0301348Y0160951D02*
X0323245Y0160951D01*
X0322205Y0159353D02*
X0311470Y0159353D01*
X0312281Y0157754D02*
X0321165Y0157754D01*
X0320124Y0156156D02*
X0312177Y0156156D01*
X0311180Y0154557D02*
X0319084Y0154557D01*
X0318044Y0152959D02*
X0287798Y0152959D01*
X0288281Y0151360D02*
X0317003Y0151360D01*
X0315963Y0149762D02*
X0313061Y0149762D01*
X0314128Y0148163D02*
X0314923Y0148163D01*
X0308539Y0149762D02*
X0288013Y0149762D01*
X0285550Y0154557D02*
X0291420Y0154557D01*
X0284050Y0154557D02*
X0282227Y0154557D01*
X0281802Y0152959D02*
X0280628Y0152959D01*
X0281319Y0151360D02*
X0279030Y0151360D01*
X0296180Y0154557D02*
X0306420Y0154557D01*
X0300619Y0156156D02*
X0297177Y0156156D01*
X0297281Y0157754D02*
X0298621Y0157754D01*
X0303346Y0159353D02*
X0306130Y0159353D01*
X0304961Y0165747D02*
X0326366Y0165747D01*
X0316089Y0168944D02*
X0399800Y0168944D01*
X0399800Y0170542D02*
X0316281Y0170542D01*
X0315682Y0172141D02*
X0399800Y0172141D01*
X0399800Y0173739D02*
X0305799Y0173739D01*
X0305799Y0167345D02*
X0310632Y0167345D01*
X0314968Y0167345D02*
X0362725Y0167345D01*
X0298319Y0165747D02*
X0297481Y0165747D01*
X0290839Y0165747D02*
X0287616Y0165747D01*
X0288987Y0167345D02*
X0290001Y0167345D01*
X0276018Y0164148D02*
X0238800Y0164148D01*
X0239765Y0165747D02*
X0274420Y0165747D01*
X0272821Y0167345D02*
X0239765Y0167345D01*
X0239765Y0167234D02*
X0238800Y0167234D01*
X0238800Y0167234D01*
X0239765Y0167234D01*
X0239740Y0168944D02*
X0272200Y0168944D01*
X0272200Y0170542D02*
X0239765Y0170542D01*
X0239765Y0172141D02*
X0272200Y0172141D01*
X0272505Y0173739D02*
X0239584Y0173739D01*
X0239603Y0144966D02*
X0248696Y0144966D01*
X0247098Y0143368D02*
X0239765Y0143368D01*
X0239765Y0141769D02*
X0245499Y0141769D01*
X0243901Y0140170D02*
X0239565Y0140170D01*
X0239565Y0138572D02*
X0242302Y0138572D01*
X0240704Y0136973D02*
X0239565Y0136973D01*
X0230460Y0133776D02*
X0230399Y0133776D01*
X0230460Y0132178D02*
X0193997Y0132178D01*
X0194096Y0133776D02*
X0225201Y0133776D01*
X0224332Y0135375D02*
X0194096Y0135375D01*
X0194096Y0134163D02*
X0189343Y0134163D01*
X0189343Y0134163D01*
X0184591Y0134163D01*
X0189343Y0134163D01*
X0189343Y0137341D01*
X0189343Y0134163D01*
X0189343Y0134163D01*
X0189343Y0134163D01*
X0194096Y0134163D01*
X0193896Y0130579D02*
X0230460Y0130579D01*
X0230460Y0128981D02*
X0220842Y0128981D01*
X0216758Y0128981D02*
X0193896Y0128981D01*
X0193896Y0127382D02*
X0215563Y0127382D01*
X0215319Y0125784D02*
X0193896Y0125784D01*
X0193896Y0124185D02*
X0215825Y0124185D01*
X0230460Y0122587D02*
X0193896Y0122587D01*
X0193896Y0120988D02*
X0230460Y0120988D01*
X0230460Y0119390D02*
X0193896Y0119390D01*
X0193896Y0117791D02*
X0230460Y0117791D01*
X0230460Y0116193D02*
X0193896Y0116193D01*
X0193852Y0114594D02*
X0230504Y0114594D01*
X0230460Y0112996D02*
X0193896Y0112996D01*
X0193896Y0111397D02*
X0230460Y0111397D01*
X0230460Y0109799D02*
X0193896Y0109799D01*
X0193896Y0108200D02*
X0230460Y0108200D01*
X0230460Y0106602D02*
X0193896Y0106602D01*
X0193896Y0105003D02*
X0230460Y0105003D01*
X0230460Y0103405D02*
X0193896Y0103405D01*
X0193895Y0101806D02*
X0230461Y0101806D01*
X0230460Y0100208D02*
X0223394Y0100208D01*
X0224943Y0098609D02*
X0230460Y0098609D01*
X0230460Y0097011D02*
X0225281Y0097011D01*
X0224869Y0095412D02*
X0230460Y0095412D01*
X0230460Y0093814D02*
X0222963Y0093814D01*
X0228148Y0092215D02*
X0229945Y0092215D01*
X0220206Y0100208D02*
X0218394Y0100208D01*
X0215206Y0100208D02*
X0212394Y0100208D01*
X0209206Y0100208D02*
X0205394Y0100208D01*
X0206943Y0098609D02*
X0207657Y0098609D01*
X0207319Y0097011D02*
X0207281Y0097011D01*
X0202206Y0100208D02*
X0193896Y0100208D01*
X0193896Y0098609D02*
X0200657Y0098609D01*
X0195741Y0097011D02*
X0193896Y0097011D01*
X0193896Y0095412D02*
X0194142Y0095412D01*
X0184591Y0133776D02*
X0177093Y0133776D01*
X0175495Y0135375D02*
X0184591Y0135375D01*
X0185277Y0136973D02*
X0173896Y0136973D01*
X0172298Y0138572D02*
X0225349Y0138572D01*
X0224394Y0136973D02*
X0193409Y0136973D01*
X0189343Y0136973D02*
X0189343Y0136973D01*
X0189343Y0135375D02*
X0189343Y0135375D01*
X0170900Y0140170D02*
X0229901Y0140170D01*
X0230260Y0141769D02*
X0170900Y0141769D01*
X0170900Y0143368D02*
X0230260Y0143368D01*
X0230260Y0142824D02*
X0235012Y0142824D01*
X0230260Y0142824D01*
X0230422Y0144966D02*
X0170900Y0144966D01*
X0235013Y0144966D02*
X0235013Y0144966D01*
X0235013Y0143368D02*
X0235013Y0143368D01*
X0235012Y0142824D02*
X0235012Y0142824D01*
X0395850Y0058646D02*
X0396750Y0058646D01*
X0396750Y0057048D02*
X0395850Y0057048D01*
X0395850Y0055449D02*
X0396750Y0055449D01*
X0396750Y0053851D02*
X0395850Y0053851D01*
X0395850Y0052252D02*
X0396750Y0052252D01*
X0396750Y0050654D02*
X0395850Y0050654D01*
X0395850Y0049055D02*
X0396750Y0049055D01*
X0396750Y0047457D02*
X0395850Y0047457D01*
X0399800Y0039464D02*
X0358008Y0039464D01*
X0359607Y0037866D02*
X0399800Y0037866D01*
X0399800Y0036267D02*
X0360503Y0036267D01*
X0361318Y0034669D02*
X0399800Y0034669D01*
X0399800Y0033070D02*
X0361955Y0033070D01*
X0362209Y0031472D02*
X0399800Y0031472D01*
X0399800Y0029873D02*
X0362462Y0029873D01*
X0362485Y0028275D02*
X0399800Y0028275D01*
X0399800Y0026676D02*
X0362232Y0026676D01*
X0361979Y0025078D02*
X0399800Y0025078D01*
X0399800Y0023479D02*
X0361393Y0023479D01*
X0360578Y0021881D02*
X0399800Y0021881D01*
X0399800Y0020282D02*
X0359755Y0020282D01*
X0358156Y0018684D02*
X0399800Y0018684D01*
X0399800Y0017085D02*
X0356558Y0017085D01*
X0353477Y0015487D02*
X0399800Y0015487D01*
X0352076Y0050654D02*
X0334213Y0050654D01*
X0334353Y0052252D02*
X0350478Y0052252D01*
X0348879Y0053851D02*
X0334353Y0053851D01*
X0319089Y0013888D02*
X0150169Y0013888D01*
X0150307Y0018684D02*
X0155700Y0018684D01*
X0155700Y0020282D02*
X0151229Y0020282D01*
X0151245Y0021881D02*
X0155700Y0021881D01*
X0155700Y0023479D02*
X0150344Y0023479D01*
M02*
