%
M48
M72
T01C0.0236
T02C0.0360
T03C0.1102
%
T01
X3980Y2310
X6780Y2510
X7400Y2540
X7380Y3210
X8280Y3810
X9380Y3710
X10380Y3110
X10180Y2610
X10480Y1910
X8160Y1880
X11580Y3310
X13080Y4210
X14280Y4110
X15080Y3710
X16880Y2610
X16480Y1950
X14780Y2110
X17880Y3910
X16090Y5280
X17780Y5610
X15280Y6810
X11780Y6010
X10080Y7110
X10580Y7610
X9680Y8010
X9080Y8310
X7880Y7610
X3480Y7810
X2080Y9510
X2180Y11910
X2180Y14310
X11380Y11010
X11980Y10810
X11980Y10310
X12440Y11990
X17280Y14310
X17680Y15410
X20380Y14310
X22780Y13610
X22880Y14310
X21880Y12610
X25280Y11110
X25200Y10510
X25060Y10050
X24690Y9640
X25160Y9200
X24980Y8610
X24480Y8670
X23712Y8678
X22180Y9710
X21680Y9710
X21080Y9710
X20380Y9710
X19380Y8710
X18880Y8710
X17780Y9410
X17280Y9610
X22180Y5710
X25280Y4610
X26080Y4310
X24880Y4110
X24480Y3610
X24880Y2910
X22680Y3810
X21880Y3810
X25680Y5110
X28280Y6810
X30680Y7710
X32280Y7010
X33680Y7910
X34180Y7710
X34580Y7410
X35050Y7190
X35540Y6760
X37680Y6110
X37480Y5610
X36980Y5310
X36580Y4810
X38380Y4310
X38680Y6910
X34280Y9010
X33480Y8510
X32080Y9210
X32380Y9710
X32580Y10210
X32880Y10660
X33180Y11110
X33470Y11610
X35560Y11680
X34690Y13450
X33840Y13890
X35160Y14040
X35820Y14280
X31080Y14710
X30380Y14310
X28880Y13910
X27680Y14210
X28480Y15110
X29380Y15710
X30880Y15710
X31280Y17010
X25780Y16810
X30080Y13150
X28180Y12810
X28280Y12310
X27580Y12210
X27580Y11710
X27580Y11210
X28380Y10510
X25600Y12520
X33390Y9410
X35380Y9510
X30880Y5910
X30460Y3710
X31080Y3610
X29980Y3710
X28880Y2910
X29100Y2410
X28580Y1910
X27380Y3210
X31280Y1910
X32180Y1610
X31880Y2510
X5480Y4410
X4980Y4410
X3180Y4010
X2680Y5410
T02
X14380Y16930
X27880Y17070
T03
X8180Y14210
X34780Y2900
M30
