G75*
%MOIN*%
%OFA0B0*%
%FSLAX25Y25*%
%IPPOS*%
%LPD*%
%AMOC8*
5,1,8,0,0,1.08239X$1,22.5*
%
%ADD10C,0.00000*%
D10*
X0001800Y0001100D02*
X0001800Y0188061D01*
X0407901Y0188061D01*
X0407961Y0188101D02*
X0408039Y0001000D01*
X0408001Y0001000D02*
X0001800Y0001100D01*
X0076288Y0142100D02*
X0076290Y0142248D01*
X0076296Y0142396D01*
X0076306Y0142544D01*
X0076320Y0142691D01*
X0076338Y0142838D01*
X0076359Y0142984D01*
X0076385Y0143130D01*
X0076415Y0143275D01*
X0076448Y0143419D01*
X0076486Y0143562D01*
X0076527Y0143704D01*
X0076572Y0143845D01*
X0076620Y0143985D01*
X0076673Y0144124D01*
X0076729Y0144261D01*
X0076789Y0144396D01*
X0076852Y0144530D01*
X0076919Y0144662D01*
X0076990Y0144792D01*
X0077064Y0144920D01*
X0077141Y0145046D01*
X0077222Y0145170D01*
X0077306Y0145292D01*
X0077393Y0145411D01*
X0077484Y0145528D01*
X0077578Y0145643D01*
X0077674Y0145755D01*
X0077774Y0145865D01*
X0077876Y0145971D01*
X0077982Y0146075D01*
X0078090Y0146176D01*
X0078201Y0146274D01*
X0078314Y0146370D01*
X0078430Y0146462D01*
X0078548Y0146551D01*
X0078669Y0146636D01*
X0078792Y0146719D01*
X0078917Y0146798D01*
X0079044Y0146874D01*
X0079173Y0146946D01*
X0079304Y0147015D01*
X0079437Y0147080D01*
X0079572Y0147141D01*
X0079708Y0147199D01*
X0079845Y0147254D01*
X0079984Y0147304D01*
X0080125Y0147351D01*
X0080266Y0147394D01*
X0080409Y0147434D01*
X0080553Y0147469D01*
X0080697Y0147501D01*
X0080843Y0147528D01*
X0080989Y0147552D01*
X0081136Y0147572D01*
X0081283Y0147588D01*
X0081430Y0147600D01*
X0081578Y0147608D01*
X0081726Y0147612D01*
X0081874Y0147612D01*
X0082022Y0147608D01*
X0082170Y0147600D01*
X0082317Y0147588D01*
X0082464Y0147572D01*
X0082611Y0147552D01*
X0082757Y0147528D01*
X0082903Y0147501D01*
X0083047Y0147469D01*
X0083191Y0147434D01*
X0083334Y0147394D01*
X0083475Y0147351D01*
X0083616Y0147304D01*
X0083755Y0147254D01*
X0083892Y0147199D01*
X0084028Y0147141D01*
X0084163Y0147080D01*
X0084296Y0147015D01*
X0084427Y0146946D01*
X0084556Y0146874D01*
X0084683Y0146798D01*
X0084808Y0146719D01*
X0084931Y0146636D01*
X0085052Y0146551D01*
X0085170Y0146462D01*
X0085286Y0146370D01*
X0085399Y0146274D01*
X0085510Y0146176D01*
X0085618Y0146075D01*
X0085724Y0145971D01*
X0085826Y0145865D01*
X0085926Y0145755D01*
X0086022Y0145643D01*
X0086116Y0145528D01*
X0086207Y0145411D01*
X0086294Y0145292D01*
X0086378Y0145170D01*
X0086459Y0145046D01*
X0086536Y0144920D01*
X0086610Y0144792D01*
X0086681Y0144662D01*
X0086748Y0144530D01*
X0086811Y0144396D01*
X0086871Y0144261D01*
X0086927Y0144124D01*
X0086980Y0143985D01*
X0087028Y0143845D01*
X0087073Y0143704D01*
X0087114Y0143562D01*
X0087152Y0143419D01*
X0087185Y0143275D01*
X0087215Y0143130D01*
X0087241Y0142984D01*
X0087262Y0142838D01*
X0087280Y0142691D01*
X0087294Y0142544D01*
X0087304Y0142396D01*
X0087310Y0142248D01*
X0087312Y0142100D01*
X0087310Y0141952D01*
X0087304Y0141804D01*
X0087294Y0141656D01*
X0087280Y0141509D01*
X0087262Y0141362D01*
X0087241Y0141216D01*
X0087215Y0141070D01*
X0087185Y0140925D01*
X0087152Y0140781D01*
X0087114Y0140638D01*
X0087073Y0140496D01*
X0087028Y0140355D01*
X0086980Y0140215D01*
X0086927Y0140076D01*
X0086871Y0139939D01*
X0086811Y0139804D01*
X0086748Y0139670D01*
X0086681Y0139538D01*
X0086610Y0139408D01*
X0086536Y0139280D01*
X0086459Y0139154D01*
X0086378Y0139030D01*
X0086294Y0138908D01*
X0086207Y0138789D01*
X0086116Y0138672D01*
X0086022Y0138557D01*
X0085926Y0138445D01*
X0085826Y0138335D01*
X0085724Y0138229D01*
X0085618Y0138125D01*
X0085510Y0138024D01*
X0085399Y0137926D01*
X0085286Y0137830D01*
X0085170Y0137738D01*
X0085052Y0137649D01*
X0084931Y0137564D01*
X0084808Y0137481D01*
X0084683Y0137402D01*
X0084556Y0137326D01*
X0084427Y0137254D01*
X0084296Y0137185D01*
X0084163Y0137120D01*
X0084028Y0137059D01*
X0083892Y0137001D01*
X0083755Y0136946D01*
X0083616Y0136896D01*
X0083475Y0136849D01*
X0083334Y0136806D01*
X0083191Y0136766D01*
X0083047Y0136731D01*
X0082903Y0136699D01*
X0082757Y0136672D01*
X0082611Y0136648D01*
X0082464Y0136628D01*
X0082317Y0136612D01*
X0082170Y0136600D01*
X0082022Y0136592D01*
X0081874Y0136588D01*
X0081726Y0136588D01*
X0081578Y0136592D01*
X0081430Y0136600D01*
X0081283Y0136612D01*
X0081136Y0136628D01*
X0080989Y0136648D01*
X0080843Y0136672D01*
X0080697Y0136699D01*
X0080553Y0136731D01*
X0080409Y0136766D01*
X0080266Y0136806D01*
X0080125Y0136849D01*
X0079984Y0136896D01*
X0079845Y0136946D01*
X0079708Y0137001D01*
X0079572Y0137059D01*
X0079437Y0137120D01*
X0079304Y0137185D01*
X0079173Y0137254D01*
X0079044Y0137326D01*
X0078917Y0137402D01*
X0078792Y0137481D01*
X0078669Y0137564D01*
X0078548Y0137649D01*
X0078430Y0137738D01*
X0078314Y0137830D01*
X0078201Y0137926D01*
X0078090Y0138024D01*
X0077982Y0138125D01*
X0077876Y0138229D01*
X0077774Y0138335D01*
X0077674Y0138445D01*
X0077578Y0138557D01*
X0077484Y0138672D01*
X0077393Y0138789D01*
X0077306Y0138908D01*
X0077222Y0139030D01*
X0077141Y0139154D01*
X0077064Y0139280D01*
X0076990Y0139408D01*
X0076919Y0139538D01*
X0076852Y0139670D01*
X0076789Y0139804D01*
X0076729Y0139939D01*
X0076673Y0140076D01*
X0076620Y0140215D01*
X0076572Y0140355D01*
X0076527Y0140496D01*
X0076486Y0140638D01*
X0076448Y0140781D01*
X0076415Y0140925D01*
X0076385Y0141070D01*
X0076359Y0141216D01*
X0076338Y0141362D01*
X0076320Y0141509D01*
X0076306Y0141656D01*
X0076296Y0141804D01*
X0076290Y0141952D01*
X0076288Y0142100D01*
X0342288Y0029000D02*
X0342290Y0029148D01*
X0342296Y0029296D01*
X0342306Y0029444D01*
X0342320Y0029591D01*
X0342338Y0029738D01*
X0342359Y0029884D01*
X0342385Y0030030D01*
X0342415Y0030175D01*
X0342448Y0030319D01*
X0342486Y0030462D01*
X0342527Y0030604D01*
X0342572Y0030745D01*
X0342620Y0030885D01*
X0342673Y0031024D01*
X0342729Y0031161D01*
X0342789Y0031296D01*
X0342852Y0031430D01*
X0342919Y0031562D01*
X0342990Y0031692D01*
X0343064Y0031820D01*
X0343141Y0031946D01*
X0343222Y0032070D01*
X0343306Y0032192D01*
X0343393Y0032311D01*
X0343484Y0032428D01*
X0343578Y0032543D01*
X0343674Y0032655D01*
X0343774Y0032765D01*
X0343876Y0032871D01*
X0343982Y0032975D01*
X0344090Y0033076D01*
X0344201Y0033174D01*
X0344314Y0033270D01*
X0344430Y0033362D01*
X0344548Y0033451D01*
X0344669Y0033536D01*
X0344792Y0033619D01*
X0344917Y0033698D01*
X0345044Y0033774D01*
X0345173Y0033846D01*
X0345304Y0033915D01*
X0345437Y0033980D01*
X0345572Y0034041D01*
X0345708Y0034099D01*
X0345845Y0034154D01*
X0345984Y0034204D01*
X0346125Y0034251D01*
X0346266Y0034294D01*
X0346409Y0034334D01*
X0346553Y0034369D01*
X0346697Y0034401D01*
X0346843Y0034428D01*
X0346989Y0034452D01*
X0347136Y0034472D01*
X0347283Y0034488D01*
X0347430Y0034500D01*
X0347578Y0034508D01*
X0347726Y0034512D01*
X0347874Y0034512D01*
X0348022Y0034508D01*
X0348170Y0034500D01*
X0348317Y0034488D01*
X0348464Y0034472D01*
X0348611Y0034452D01*
X0348757Y0034428D01*
X0348903Y0034401D01*
X0349047Y0034369D01*
X0349191Y0034334D01*
X0349334Y0034294D01*
X0349475Y0034251D01*
X0349616Y0034204D01*
X0349755Y0034154D01*
X0349892Y0034099D01*
X0350028Y0034041D01*
X0350163Y0033980D01*
X0350296Y0033915D01*
X0350427Y0033846D01*
X0350556Y0033774D01*
X0350683Y0033698D01*
X0350808Y0033619D01*
X0350931Y0033536D01*
X0351052Y0033451D01*
X0351170Y0033362D01*
X0351286Y0033270D01*
X0351399Y0033174D01*
X0351510Y0033076D01*
X0351618Y0032975D01*
X0351724Y0032871D01*
X0351826Y0032765D01*
X0351926Y0032655D01*
X0352022Y0032543D01*
X0352116Y0032428D01*
X0352207Y0032311D01*
X0352294Y0032192D01*
X0352378Y0032070D01*
X0352459Y0031946D01*
X0352536Y0031820D01*
X0352610Y0031692D01*
X0352681Y0031562D01*
X0352748Y0031430D01*
X0352811Y0031296D01*
X0352871Y0031161D01*
X0352927Y0031024D01*
X0352980Y0030885D01*
X0353028Y0030745D01*
X0353073Y0030604D01*
X0353114Y0030462D01*
X0353152Y0030319D01*
X0353185Y0030175D01*
X0353215Y0030030D01*
X0353241Y0029884D01*
X0353262Y0029738D01*
X0353280Y0029591D01*
X0353294Y0029444D01*
X0353304Y0029296D01*
X0353310Y0029148D01*
X0353312Y0029000D01*
X0353310Y0028852D01*
X0353304Y0028704D01*
X0353294Y0028556D01*
X0353280Y0028409D01*
X0353262Y0028262D01*
X0353241Y0028116D01*
X0353215Y0027970D01*
X0353185Y0027825D01*
X0353152Y0027681D01*
X0353114Y0027538D01*
X0353073Y0027396D01*
X0353028Y0027255D01*
X0352980Y0027115D01*
X0352927Y0026976D01*
X0352871Y0026839D01*
X0352811Y0026704D01*
X0352748Y0026570D01*
X0352681Y0026438D01*
X0352610Y0026308D01*
X0352536Y0026180D01*
X0352459Y0026054D01*
X0352378Y0025930D01*
X0352294Y0025808D01*
X0352207Y0025689D01*
X0352116Y0025572D01*
X0352022Y0025457D01*
X0351926Y0025345D01*
X0351826Y0025235D01*
X0351724Y0025129D01*
X0351618Y0025025D01*
X0351510Y0024924D01*
X0351399Y0024826D01*
X0351286Y0024730D01*
X0351170Y0024638D01*
X0351052Y0024549D01*
X0350931Y0024464D01*
X0350808Y0024381D01*
X0350683Y0024302D01*
X0350556Y0024226D01*
X0350427Y0024154D01*
X0350296Y0024085D01*
X0350163Y0024020D01*
X0350028Y0023959D01*
X0349892Y0023901D01*
X0349755Y0023846D01*
X0349616Y0023796D01*
X0349475Y0023749D01*
X0349334Y0023706D01*
X0349191Y0023666D01*
X0349047Y0023631D01*
X0348903Y0023599D01*
X0348757Y0023572D01*
X0348611Y0023548D01*
X0348464Y0023528D01*
X0348317Y0023512D01*
X0348170Y0023500D01*
X0348022Y0023492D01*
X0347874Y0023488D01*
X0347726Y0023488D01*
X0347578Y0023492D01*
X0347430Y0023500D01*
X0347283Y0023512D01*
X0347136Y0023528D01*
X0346989Y0023548D01*
X0346843Y0023572D01*
X0346697Y0023599D01*
X0346553Y0023631D01*
X0346409Y0023666D01*
X0346266Y0023706D01*
X0346125Y0023749D01*
X0345984Y0023796D01*
X0345845Y0023846D01*
X0345708Y0023901D01*
X0345572Y0023959D01*
X0345437Y0024020D01*
X0345304Y0024085D01*
X0345173Y0024154D01*
X0345044Y0024226D01*
X0344917Y0024302D01*
X0344792Y0024381D01*
X0344669Y0024464D01*
X0344548Y0024549D01*
X0344430Y0024638D01*
X0344314Y0024730D01*
X0344201Y0024826D01*
X0344090Y0024924D01*
X0343982Y0025025D01*
X0343876Y0025129D01*
X0343774Y0025235D01*
X0343674Y0025345D01*
X0343578Y0025457D01*
X0343484Y0025572D01*
X0343393Y0025689D01*
X0343306Y0025808D01*
X0343222Y0025930D01*
X0343141Y0026054D01*
X0343064Y0026180D01*
X0342990Y0026308D01*
X0342919Y0026438D01*
X0342852Y0026570D01*
X0342789Y0026704D01*
X0342729Y0026839D01*
X0342673Y0026976D01*
X0342620Y0027115D01*
X0342572Y0027255D01*
X0342527Y0027396D01*
X0342486Y0027538D01*
X0342448Y0027681D01*
X0342415Y0027825D01*
X0342385Y0027970D01*
X0342359Y0028116D01*
X0342338Y0028262D01*
X0342320Y0028409D01*
X0342306Y0028556D01*
X0342296Y0028704D01*
X0342290Y0028852D01*
X0342288Y0029000D01*
M02*
