G75*
%MOIN*%
%OFA0B0*%
%FSLAX25Y25*%
%IPPOS*%
%LPD*%
%AMOC8*
5,1,8,0,0,1.08239X$1,22.5*
%
%ADD10C,0.00000*%
%ADD11R,0.05718X0.06506*%
%ADD12R,0.06506X0.05718*%
%ADD13OC8,0.06600*%
%ADD14R,0.07698X0.06899*%
%ADD15R,0.06899X0.05718*%
%ADD16R,0.01969X0.04331*%
%ADD17OC8,0.10600*%
%ADD18C,0.11624*%
%ADD19R,0.09400X0.05400*%
%ADD20R,0.09261X0.14773*%
%ADD21R,0.11033X0.07490*%
%ADD22R,0.05600X0.10600*%
%ADD23R,0.02569X0.02175*%
%ADD24R,0.02569X0.01781*%
%ADD25R,0.02175X0.02569*%
%ADD26R,0.01781X0.02569*%
%ADD27C,0.04362*%
%ADD28C,0.05915*%
D10*
X0001000Y0001500D02*
X0001000Y0218961D01*
X0417701Y0218461D01*
X0417701Y0001000D01*
X0001000Y0001500D01*
X0255488Y0072500D02*
X0255490Y0072648D01*
X0255496Y0072796D01*
X0255506Y0072944D01*
X0255520Y0073091D01*
X0255538Y0073238D01*
X0255559Y0073384D01*
X0255585Y0073530D01*
X0255615Y0073675D01*
X0255648Y0073819D01*
X0255686Y0073962D01*
X0255727Y0074104D01*
X0255772Y0074245D01*
X0255820Y0074385D01*
X0255873Y0074524D01*
X0255929Y0074661D01*
X0255989Y0074796D01*
X0256052Y0074930D01*
X0256119Y0075062D01*
X0256190Y0075192D01*
X0256264Y0075320D01*
X0256341Y0075446D01*
X0256422Y0075570D01*
X0256506Y0075692D01*
X0256593Y0075811D01*
X0256684Y0075928D01*
X0256778Y0076043D01*
X0256874Y0076155D01*
X0256974Y0076265D01*
X0257076Y0076371D01*
X0257182Y0076475D01*
X0257290Y0076576D01*
X0257401Y0076674D01*
X0257514Y0076770D01*
X0257630Y0076862D01*
X0257748Y0076951D01*
X0257869Y0077036D01*
X0257992Y0077119D01*
X0258117Y0077198D01*
X0258244Y0077274D01*
X0258373Y0077346D01*
X0258504Y0077415D01*
X0258637Y0077480D01*
X0258772Y0077541D01*
X0258908Y0077599D01*
X0259045Y0077654D01*
X0259184Y0077704D01*
X0259325Y0077751D01*
X0259466Y0077794D01*
X0259609Y0077834D01*
X0259753Y0077869D01*
X0259897Y0077901D01*
X0260043Y0077928D01*
X0260189Y0077952D01*
X0260336Y0077972D01*
X0260483Y0077988D01*
X0260630Y0078000D01*
X0260778Y0078008D01*
X0260926Y0078012D01*
X0261074Y0078012D01*
X0261222Y0078008D01*
X0261370Y0078000D01*
X0261517Y0077988D01*
X0261664Y0077972D01*
X0261811Y0077952D01*
X0261957Y0077928D01*
X0262103Y0077901D01*
X0262247Y0077869D01*
X0262391Y0077834D01*
X0262534Y0077794D01*
X0262675Y0077751D01*
X0262816Y0077704D01*
X0262955Y0077654D01*
X0263092Y0077599D01*
X0263228Y0077541D01*
X0263363Y0077480D01*
X0263496Y0077415D01*
X0263627Y0077346D01*
X0263756Y0077274D01*
X0263883Y0077198D01*
X0264008Y0077119D01*
X0264131Y0077036D01*
X0264252Y0076951D01*
X0264370Y0076862D01*
X0264486Y0076770D01*
X0264599Y0076674D01*
X0264710Y0076576D01*
X0264818Y0076475D01*
X0264924Y0076371D01*
X0265026Y0076265D01*
X0265126Y0076155D01*
X0265222Y0076043D01*
X0265316Y0075928D01*
X0265407Y0075811D01*
X0265494Y0075692D01*
X0265578Y0075570D01*
X0265659Y0075446D01*
X0265736Y0075320D01*
X0265810Y0075192D01*
X0265881Y0075062D01*
X0265948Y0074930D01*
X0266011Y0074796D01*
X0266071Y0074661D01*
X0266127Y0074524D01*
X0266180Y0074385D01*
X0266228Y0074245D01*
X0266273Y0074104D01*
X0266314Y0073962D01*
X0266352Y0073819D01*
X0266385Y0073675D01*
X0266415Y0073530D01*
X0266441Y0073384D01*
X0266462Y0073238D01*
X0266480Y0073091D01*
X0266494Y0072944D01*
X0266504Y0072796D01*
X0266510Y0072648D01*
X0266512Y0072500D01*
X0266510Y0072352D01*
X0266504Y0072204D01*
X0266494Y0072056D01*
X0266480Y0071909D01*
X0266462Y0071762D01*
X0266441Y0071616D01*
X0266415Y0071470D01*
X0266385Y0071325D01*
X0266352Y0071181D01*
X0266314Y0071038D01*
X0266273Y0070896D01*
X0266228Y0070755D01*
X0266180Y0070615D01*
X0266127Y0070476D01*
X0266071Y0070339D01*
X0266011Y0070204D01*
X0265948Y0070070D01*
X0265881Y0069938D01*
X0265810Y0069808D01*
X0265736Y0069680D01*
X0265659Y0069554D01*
X0265578Y0069430D01*
X0265494Y0069308D01*
X0265407Y0069189D01*
X0265316Y0069072D01*
X0265222Y0068957D01*
X0265126Y0068845D01*
X0265026Y0068735D01*
X0264924Y0068629D01*
X0264818Y0068525D01*
X0264710Y0068424D01*
X0264599Y0068326D01*
X0264486Y0068230D01*
X0264370Y0068138D01*
X0264252Y0068049D01*
X0264131Y0067964D01*
X0264008Y0067881D01*
X0263883Y0067802D01*
X0263756Y0067726D01*
X0263627Y0067654D01*
X0263496Y0067585D01*
X0263363Y0067520D01*
X0263228Y0067459D01*
X0263092Y0067401D01*
X0262955Y0067346D01*
X0262816Y0067296D01*
X0262675Y0067249D01*
X0262534Y0067206D01*
X0262391Y0067166D01*
X0262247Y0067131D01*
X0262103Y0067099D01*
X0261957Y0067072D01*
X0261811Y0067048D01*
X0261664Y0067028D01*
X0261517Y0067012D01*
X0261370Y0067000D01*
X0261222Y0066992D01*
X0261074Y0066988D01*
X0260926Y0066988D01*
X0260778Y0066992D01*
X0260630Y0067000D01*
X0260483Y0067012D01*
X0260336Y0067028D01*
X0260189Y0067048D01*
X0260043Y0067072D01*
X0259897Y0067099D01*
X0259753Y0067131D01*
X0259609Y0067166D01*
X0259466Y0067206D01*
X0259325Y0067249D01*
X0259184Y0067296D01*
X0259045Y0067346D01*
X0258908Y0067401D01*
X0258772Y0067459D01*
X0258637Y0067520D01*
X0258504Y0067585D01*
X0258373Y0067654D01*
X0258244Y0067726D01*
X0258117Y0067802D01*
X0257992Y0067881D01*
X0257869Y0067964D01*
X0257748Y0068049D01*
X0257630Y0068138D01*
X0257514Y0068230D01*
X0257401Y0068326D01*
X0257290Y0068424D01*
X0257182Y0068525D01*
X0257076Y0068629D01*
X0256974Y0068735D01*
X0256874Y0068845D01*
X0256778Y0068957D01*
X0256684Y0069072D01*
X0256593Y0069189D01*
X0256506Y0069308D01*
X0256422Y0069430D01*
X0256341Y0069554D01*
X0256264Y0069680D01*
X0256190Y0069808D01*
X0256119Y0069938D01*
X0256052Y0070070D01*
X0255989Y0070204D01*
X0255929Y0070339D01*
X0255873Y0070476D01*
X0255820Y0070615D01*
X0255772Y0070755D01*
X0255727Y0070896D01*
X0255686Y0071038D01*
X0255648Y0071181D01*
X0255615Y0071325D01*
X0255585Y0071470D01*
X0255559Y0071616D01*
X0255538Y0071762D01*
X0255520Y0071909D01*
X0255506Y0072056D01*
X0255496Y0072204D01*
X0255490Y0072352D01*
X0255488Y0072500D01*
X0326488Y0173000D02*
X0326490Y0173148D01*
X0326496Y0173296D01*
X0326506Y0173444D01*
X0326520Y0173591D01*
X0326538Y0173738D01*
X0326559Y0173884D01*
X0326585Y0174030D01*
X0326615Y0174175D01*
X0326648Y0174319D01*
X0326686Y0174462D01*
X0326727Y0174604D01*
X0326772Y0174745D01*
X0326820Y0174885D01*
X0326873Y0175024D01*
X0326929Y0175161D01*
X0326989Y0175296D01*
X0327052Y0175430D01*
X0327119Y0175562D01*
X0327190Y0175692D01*
X0327264Y0175820D01*
X0327341Y0175946D01*
X0327422Y0176070D01*
X0327506Y0176192D01*
X0327593Y0176311D01*
X0327684Y0176428D01*
X0327778Y0176543D01*
X0327874Y0176655D01*
X0327974Y0176765D01*
X0328076Y0176871D01*
X0328182Y0176975D01*
X0328290Y0177076D01*
X0328401Y0177174D01*
X0328514Y0177270D01*
X0328630Y0177362D01*
X0328748Y0177451D01*
X0328869Y0177536D01*
X0328992Y0177619D01*
X0329117Y0177698D01*
X0329244Y0177774D01*
X0329373Y0177846D01*
X0329504Y0177915D01*
X0329637Y0177980D01*
X0329772Y0178041D01*
X0329908Y0178099D01*
X0330045Y0178154D01*
X0330184Y0178204D01*
X0330325Y0178251D01*
X0330466Y0178294D01*
X0330609Y0178334D01*
X0330753Y0178369D01*
X0330897Y0178401D01*
X0331043Y0178428D01*
X0331189Y0178452D01*
X0331336Y0178472D01*
X0331483Y0178488D01*
X0331630Y0178500D01*
X0331778Y0178508D01*
X0331926Y0178512D01*
X0332074Y0178512D01*
X0332222Y0178508D01*
X0332370Y0178500D01*
X0332517Y0178488D01*
X0332664Y0178472D01*
X0332811Y0178452D01*
X0332957Y0178428D01*
X0333103Y0178401D01*
X0333247Y0178369D01*
X0333391Y0178334D01*
X0333534Y0178294D01*
X0333675Y0178251D01*
X0333816Y0178204D01*
X0333955Y0178154D01*
X0334092Y0178099D01*
X0334228Y0178041D01*
X0334363Y0177980D01*
X0334496Y0177915D01*
X0334627Y0177846D01*
X0334756Y0177774D01*
X0334883Y0177698D01*
X0335008Y0177619D01*
X0335131Y0177536D01*
X0335252Y0177451D01*
X0335370Y0177362D01*
X0335486Y0177270D01*
X0335599Y0177174D01*
X0335710Y0177076D01*
X0335818Y0176975D01*
X0335924Y0176871D01*
X0336026Y0176765D01*
X0336126Y0176655D01*
X0336222Y0176543D01*
X0336316Y0176428D01*
X0336407Y0176311D01*
X0336494Y0176192D01*
X0336578Y0176070D01*
X0336659Y0175946D01*
X0336736Y0175820D01*
X0336810Y0175692D01*
X0336881Y0175562D01*
X0336948Y0175430D01*
X0337011Y0175296D01*
X0337071Y0175161D01*
X0337127Y0175024D01*
X0337180Y0174885D01*
X0337228Y0174745D01*
X0337273Y0174604D01*
X0337314Y0174462D01*
X0337352Y0174319D01*
X0337385Y0174175D01*
X0337415Y0174030D01*
X0337441Y0173884D01*
X0337462Y0173738D01*
X0337480Y0173591D01*
X0337494Y0173444D01*
X0337504Y0173296D01*
X0337510Y0173148D01*
X0337512Y0173000D01*
X0337510Y0172852D01*
X0337504Y0172704D01*
X0337494Y0172556D01*
X0337480Y0172409D01*
X0337462Y0172262D01*
X0337441Y0172116D01*
X0337415Y0171970D01*
X0337385Y0171825D01*
X0337352Y0171681D01*
X0337314Y0171538D01*
X0337273Y0171396D01*
X0337228Y0171255D01*
X0337180Y0171115D01*
X0337127Y0170976D01*
X0337071Y0170839D01*
X0337011Y0170704D01*
X0336948Y0170570D01*
X0336881Y0170438D01*
X0336810Y0170308D01*
X0336736Y0170180D01*
X0336659Y0170054D01*
X0336578Y0169930D01*
X0336494Y0169808D01*
X0336407Y0169689D01*
X0336316Y0169572D01*
X0336222Y0169457D01*
X0336126Y0169345D01*
X0336026Y0169235D01*
X0335924Y0169129D01*
X0335818Y0169025D01*
X0335710Y0168924D01*
X0335599Y0168826D01*
X0335486Y0168730D01*
X0335370Y0168638D01*
X0335252Y0168549D01*
X0335131Y0168464D01*
X0335008Y0168381D01*
X0334883Y0168302D01*
X0334756Y0168226D01*
X0334627Y0168154D01*
X0334496Y0168085D01*
X0334363Y0168020D01*
X0334228Y0167959D01*
X0334092Y0167901D01*
X0333955Y0167846D01*
X0333816Y0167796D01*
X0333675Y0167749D01*
X0333534Y0167706D01*
X0333391Y0167666D01*
X0333247Y0167631D01*
X0333103Y0167599D01*
X0332957Y0167572D01*
X0332811Y0167548D01*
X0332664Y0167528D01*
X0332517Y0167512D01*
X0332370Y0167500D01*
X0332222Y0167492D01*
X0332074Y0167488D01*
X0331926Y0167488D01*
X0331778Y0167492D01*
X0331630Y0167500D01*
X0331483Y0167512D01*
X0331336Y0167528D01*
X0331189Y0167548D01*
X0331043Y0167572D01*
X0330897Y0167599D01*
X0330753Y0167631D01*
X0330609Y0167666D01*
X0330466Y0167706D01*
X0330325Y0167749D01*
X0330184Y0167796D01*
X0330045Y0167846D01*
X0329908Y0167901D01*
X0329772Y0167959D01*
X0329637Y0168020D01*
X0329504Y0168085D01*
X0329373Y0168154D01*
X0329244Y0168226D01*
X0329117Y0168302D01*
X0328992Y0168381D01*
X0328869Y0168464D01*
X0328748Y0168549D01*
X0328630Y0168638D01*
X0328514Y0168730D01*
X0328401Y0168826D01*
X0328290Y0168924D01*
X0328182Y0169025D01*
X0328076Y0169129D01*
X0327974Y0169235D01*
X0327874Y0169345D01*
X0327778Y0169457D01*
X0327684Y0169572D01*
X0327593Y0169689D01*
X0327506Y0169808D01*
X0327422Y0169930D01*
X0327341Y0170054D01*
X0327264Y0170180D01*
X0327190Y0170308D01*
X0327119Y0170438D01*
X0327052Y0170570D01*
X0326989Y0170704D01*
X0326929Y0170839D01*
X0326873Y0170976D01*
X0326820Y0171115D01*
X0326772Y0171255D01*
X0326727Y0171396D01*
X0326686Y0171538D01*
X0326648Y0171681D01*
X0326615Y0171825D01*
X0326585Y0171970D01*
X0326559Y0172116D01*
X0326538Y0172262D01*
X0326520Y0172409D01*
X0326506Y0172556D01*
X0326496Y0172704D01*
X0326490Y0172852D01*
X0326488Y0173000D01*
D11*
X0173240Y0178500D03*
X0165760Y0178500D03*
X0160740Y0158000D03*
X0153260Y0158000D03*
X0154240Y0106000D03*
X0146760Y0106000D03*
D12*
X0137500Y0102260D03*
X0137500Y0109740D03*
X0147500Y0116260D03*
X0137500Y0119260D03*
X0137500Y0126740D03*
X0147500Y0123740D03*
X0158500Y0121260D03*
X0158500Y0128740D03*
X0147500Y0133260D03*
X0147500Y0140740D03*
X0137500Y0143740D03*
X0137500Y0136260D03*
X0119000Y0105858D03*
X0119000Y0098378D03*
D13*
X0042500Y0030500D03*
X0221000Y0168000D03*
X0231000Y0168000D03*
X0241000Y0168000D03*
X0241000Y0178000D03*
X0231000Y0178000D03*
X0221000Y0178000D03*
X0143000Y0193500D03*
D14*
X0106500Y0187598D03*
X0106500Y0176402D03*
X0106500Y0159598D03*
X0106500Y0148402D03*
X0106500Y0126598D03*
X0106500Y0115402D03*
X0106500Y0094598D03*
X0106500Y0083402D03*
X0106500Y0063598D03*
X0106500Y0052402D03*
X0106500Y0031598D03*
X0106500Y0020402D03*
X0199000Y0023402D03*
X0199000Y0034598D03*
X0199000Y0048902D03*
X0199000Y0060098D03*
X0199000Y0083402D03*
X0199000Y0094598D03*
X0199000Y0116402D03*
X0199000Y0127598D03*
X0199000Y0148402D03*
X0199000Y0159598D03*
X0199000Y0179902D03*
X0199000Y0191098D03*
X0292500Y0193598D03*
X0292500Y0182402D03*
X0292500Y0159598D03*
X0292500Y0148402D03*
X0292500Y0126098D03*
X0292500Y0114902D03*
X0292500Y0093598D03*
X0292500Y0082402D03*
X0292500Y0060598D03*
X0292500Y0049402D03*
X0292500Y0030098D03*
X0292500Y0018902D03*
X0378000Y0016402D03*
X0378000Y0027598D03*
X0377500Y0047902D03*
X0377500Y0059098D03*
X0377500Y0080902D03*
X0377500Y0092098D03*
X0377500Y0115402D03*
X0377500Y0126598D03*
X0377500Y0148902D03*
X0377500Y0160098D03*
X0377500Y0184402D03*
X0377500Y0195598D03*
D15*
X0173500Y0111740D03*
X0163500Y0111740D03*
X0163500Y0104260D03*
X0173500Y0104260D03*
D16*
X0215043Y0059925D03*
X0217602Y0059925D03*
X0220161Y0059925D03*
X0222720Y0059925D03*
X0225280Y0059925D03*
X0227839Y0059925D03*
X0230398Y0059925D03*
X0232957Y0059925D03*
X0232957Y0038075D03*
X0230398Y0038075D03*
X0227839Y0038075D03*
X0225280Y0038075D03*
X0222720Y0038075D03*
X0220161Y0038075D03*
X0217602Y0038075D03*
X0215043Y0038075D03*
X0133957Y0036575D03*
X0131398Y0036575D03*
X0128839Y0036575D03*
X0126280Y0036575D03*
X0123720Y0036575D03*
X0121161Y0036575D03*
X0118602Y0036575D03*
X0116043Y0036575D03*
X0116043Y0058425D03*
X0118602Y0058425D03*
X0121161Y0058425D03*
X0123720Y0058425D03*
X0126280Y0058425D03*
X0128839Y0058425D03*
X0131398Y0058425D03*
X0133957Y0058425D03*
X0063957Y0065575D03*
X0061398Y0065575D03*
X0058839Y0065575D03*
X0056280Y0065575D03*
X0053720Y0065575D03*
X0051161Y0065575D03*
X0048602Y0065575D03*
X0046043Y0065575D03*
X0046043Y0087425D03*
X0048602Y0087425D03*
X0051161Y0087425D03*
X0053720Y0087425D03*
X0056280Y0087425D03*
X0058839Y0087425D03*
X0061398Y0087425D03*
X0063957Y0087425D03*
X0303543Y0069425D03*
X0306102Y0069425D03*
X0308661Y0069425D03*
X0311220Y0069425D03*
X0313780Y0069425D03*
X0316339Y0069425D03*
X0318898Y0069425D03*
X0321457Y0069425D03*
X0321457Y0047575D03*
X0318898Y0047575D03*
X0316339Y0047575D03*
X0313780Y0047575D03*
X0311220Y0047575D03*
X0308661Y0047575D03*
X0306102Y0047575D03*
X0303543Y0047575D03*
D17*
X0034500Y0193500D03*
X0129000Y0194000D03*
X0222500Y0196500D03*
X0307000Y0199000D03*
D18*
X0332000Y0173000D03*
X0261000Y0072500D03*
D19*
X0143200Y0157400D03*
X0143200Y0166500D03*
X0143200Y0175600D03*
D20*
X0118799Y0166500D03*
D21*
X0154720Y0192000D03*
X0182083Y0192000D03*
D22*
X0395000Y0074000D03*
X0405000Y0074000D03*
X0036000Y0069000D03*
X0026000Y0069000D03*
D23*
X0155031Y0034256D03*
X0158969Y0034256D03*
X0158969Y0028350D03*
X0158969Y0025756D03*
X0155031Y0025756D03*
X0155031Y0028350D03*
X0155031Y0019850D03*
X0158969Y0019850D03*
X0254031Y0021850D03*
X0257969Y0021850D03*
X0257969Y0027756D03*
X0257969Y0030350D03*
X0254031Y0030350D03*
X0254031Y0027756D03*
X0254031Y0036256D03*
X0257969Y0036256D03*
X0333031Y0034350D03*
X0333031Y0031256D03*
X0336969Y0031256D03*
X0336969Y0034350D03*
X0336969Y0040256D03*
X0333031Y0040256D03*
X0333031Y0025350D03*
X0336969Y0025350D03*
D24*
X0336969Y0027319D03*
X0336969Y0029287D03*
X0333031Y0029287D03*
X0333031Y0027319D03*
X0333031Y0036319D03*
X0333031Y0038287D03*
X0336969Y0038287D03*
X0336969Y0036319D03*
X0257969Y0034287D03*
X0257969Y0032319D03*
X0254031Y0032319D03*
X0254031Y0034287D03*
X0254031Y0025787D03*
X0254031Y0023819D03*
X0257969Y0023819D03*
X0257969Y0025787D03*
X0158969Y0023787D03*
X0158969Y0021819D03*
X0155031Y0021819D03*
X0155031Y0023787D03*
X0155031Y0030319D03*
X0155031Y0032287D03*
X0158969Y0032287D03*
X0158969Y0030319D03*
D25*
X0059256Y0050031D03*
X0059256Y0053969D03*
X0053350Y0053969D03*
X0050756Y0053969D03*
X0050756Y0050031D03*
X0053350Y0050031D03*
X0044850Y0050031D03*
X0044850Y0053969D03*
D26*
X0046819Y0053969D03*
X0048787Y0053969D03*
X0048787Y0050031D03*
X0046819Y0050031D03*
X0055319Y0050031D03*
X0057287Y0050031D03*
X0057287Y0053969D03*
X0055319Y0053969D03*
D27*
X0068500Y0062000D03*
X0081500Y0068000D03*
X0086000Y0072500D03*
X0077000Y0073500D03*
X0073500Y0078000D03*
X0069500Y0083500D03*
X0064000Y0079000D03*
X0058500Y0080000D03*
X0056000Y0073000D03*
X0050000Y0073500D03*
X0083500Y0087000D03*
X0115500Y0084500D03*
X0115500Y0079500D03*
X0115000Y0074500D03*
X0118000Y0068500D03*
X0122000Y0074000D03*
X0126280Y0070000D03*
X0131000Y0071000D03*
X0134500Y0067500D03*
X0149740Y0050000D03*
X0143000Y0033500D03*
X0117500Y0046000D03*
X0099000Y0031098D03*
X0175000Y0033500D03*
X0211000Y0037000D03*
X0211000Y0045500D03*
X0218500Y0049500D03*
X0222500Y0053000D03*
X0230500Y0052000D03*
X0237000Y0054000D03*
X0241500Y0050000D03*
X0248500Y0049000D03*
X0241000Y0065000D03*
X0235000Y0072000D03*
X0228500Y0069500D03*
X0211000Y0060000D03*
X0199500Y0076500D03*
X0210000Y0080500D03*
X0206000Y0100500D03*
X0173000Y0084000D03*
X0125500Y0095000D03*
X0128500Y0113000D03*
X0115000Y0119500D03*
X0082500Y0121500D03*
X0129500Y0142000D03*
X0152500Y0147000D03*
X0160500Y0141000D03*
X0157000Y0136000D03*
X0164500Y0136000D03*
X0172000Y0147000D03*
X0190000Y0139500D03*
X0189000Y0127000D03*
X0180000Y0158000D03*
X0179500Y0163500D03*
X0184500Y0165500D03*
X0194000Y0165500D03*
X0200500Y0169500D03*
X0193500Y0175000D03*
X0182500Y0174500D03*
X0171000Y0170500D03*
X0158000Y0180500D03*
X0117000Y0187000D03*
X0210000Y0163500D03*
X0262000Y0163000D03*
X0279000Y0155000D03*
X0292000Y0168500D03*
X0308000Y0154500D03*
X0341000Y0086500D03*
X0327000Y0085000D03*
X0323000Y0079000D03*
X0316500Y0077500D03*
X0327500Y0071000D03*
X0333500Y0064000D03*
X0318500Y0055500D03*
X0311000Y0061500D03*
X0293500Y0070500D03*
X0302500Y0082500D03*
X0275000Y0086000D03*
X0325500Y0042000D03*
X0300000Y0034500D03*
X0387500Y0067000D03*
X0387500Y0077500D03*
D28*
X0360500Y0155000D03*
X0391500Y0166500D03*
M02*
