G75*
%MOIN*%
%OFA0B0*%
%FSLAX25Y25*%
%IPPOS*%
%LPD*%
%AMOC8*
5,1,8,0,0,1.08239X$1,22.5*
%
%ADD10C,0.00000*%
%ADD11R,0.05118X0.05906*%
%ADD12R,0.05906X0.05118*%
%ADD13OC8,0.06000*%
%ADD14R,0.07098X0.06299*%
%ADD15R,0.06299X0.05118*%
%ADD16R,0.05906X0.02756*%
%ADD17R,0.01181X0.05709*%
%ADD18OC8,0.10000*%
%ADD19R,0.08800X0.04800*%
%ADD20R,0.08661X0.14173*%
%ADD21R,0.10433X0.06890*%
%ADD22R,0.05000X0.10000*%
%ADD23C,0.01000*%
%ADD24C,0.03762*%
%ADD25C,0.01600*%
D10*
X0014000Y0001800D02*
X0014000Y0206761D01*
X0386701Y0206261D01*
X0386701Y0001300D01*
X0014000Y0001800D01*
X0240488Y0067300D02*
X0240490Y0067448D01*
X0240496Y0067596D01*
X0240506Y0067744D01*
X0240520Y0067891D01*
X0240538Y0068038D01*
X0240559Y0068184D01*
X0240585Y0068330D01*
X0240615Y0068475D01*
X0240648Y0068619D01*
X0240686Y0068762D01*
X0240727Y0068904D01*
X0240772Y0069045D01*
X0240820Y0069185D01*
X0240873Y0069324D01*
X0240929Y0069461D01*
X0240989Y0069596D01*
X0241052Y0069730D01*
X0241119Y0069862D01*
X0241190Y0069992D01*
X0241264Y0070120D01*
X0241341Y0070246D01*
X0241422Y0070370D01*
X0241506Y0070492D01*
X0241593Y0070611D01*
X0241684Y0070728D01*
X0241778Y0070843D01*
X0241874Y0070955D01*
X0241974Y0071065D01*
X0242076Y0071171D01*
X0242182Y0071275D01*
X0242290Y0071376D01*
X0242401Y0071474D01*
X0242514Y0071570D01*
X0242630Y0071662D01*
X0242748Y0071751D01*
X0242869Y0071836D01*
X0242992Y0071919D01*
X0243117Y0071998D01*
X0243244Y0072074D01*
X0243373Y0072146D01*
X0243504Y0072215D01*
X0243637Y0072280D01*
X0243772Y0072341D01*
X0243908Y0072399D01*
X0244045Y0072454D01*
X0244184Y0072504D01*
X0244325Y0072551D01*
X0244466Y0072594D01*
X0244609Y0072634D01*
X0244753Y0072669D01*
X0244897Y0072701D01*
X0245043Y0072728D01*
X0245189Y0072752D01*
X0245336Y0072772D01*
X0245483Y0072788D01*
X0245630Y0072800D01*
X0245778Y0072808D01*
X0245926Y0072812D01*
X0246074Y0072812D01*
X0246222Y0072808D01*
X0246370Y0072800D01*
X0246517Y0072788D01*
X0246664Y0072772D01*
X0246811Y0072752D01*
X0246957Y0072728D01*
X0247103Y0072701D01*
X0247247Y0072669D01*
X0247391Y0072634D01*
X0247534Y0072594D01*
X0247675Y0072551D01*
X0247816Y0072504D01*
X0247955Y0072454D01*
X0248092Y0072399D01*
X0248228Y0072341D01*
X0248363Y0072280D01*
X0248496Y0072215D01*
X0248627Y0072146D01*
X0248756Y0072074D01*
X0248883Y0071998D01*
X0249008Y0071919D01*
X0249131Y0071836D01*
X0249252Y0071751D01*
X0249370Y0071662D01*
X0249486Y0071570D01*
X0249599Y0071474D01*
X0249710Y0071376D01*
X0249818Y0071275D01*
X0249924Y0071171D01*
X0250026Y0071065D01*
X0250126Y0070955D01*
X0250222Y0070843D01*
X0250316Y0070728D01*
X0250407Y0070611D01*
X0250494Y0070492D01*
X0250578Y0070370D01*
X0250659Y0070246D01*
X0250736Y0070120D01*
X0250810Y0069992D01*
X0250881Y0069862D01*
X0250948Y0069730D01*
X0251011Y0069596D01*
X0251071Y0069461D01*
X0251127Y0069324D01*
X0251180Y0069185D01*
X0251228Y0069045D01*
X0251273Y0068904D01*
X0251314Y0068762D01*
X0251352Y0068619D01*
X0251385Y0068475D01*
X0251415Y0068330D01*
X0251441Y0068184D01*
X0251462Y0068038D01*
X0251480Y0067891D01*
X0251494Y0067744D01*
X0251504Y0067596D01*
X0251510Y0067448D01*
X0251512Y0067300D01*
X0251510Y0067152D01*
X0251504Y0067004D01*
X0251494Y0066856D01*
X0251480Y0066709D01*
X0251462Y0066562D01*
X0251441Y0066416D01*
X0251415Y0066270D01*
X0251385Y0066125D01*
X0251352Y0065981D01*
X0251314Y0065838D01*
X0251273Y0065696D01*
X0251228Y0065555D01*
X0251180Y0065415D01*
X0251127Y0065276D01*
X0251071Y0065139D01*
X0251011Y0065004D01*
X0250948Y0064870D01*
X0250881Y0064738D01*
X0250810Y0064608D01*
X0250736Y0064480D01*
X0250659Y0064354D01*
X0250578Y0064230D01*
X0250494Y0064108D01*
X0250407Y0063989D01*
X0250316Y0063872D01*
X0250222Y0063757D01*
X0250126Y0063645D01*
X0250026Y0063535D01*
X0249924Y0063429D01*
X0249818Y0063325D01*
X0249710Y0063224D01*
X0249599Y0063126D01*
X0249486Y0063030D01*
X0249370Y0062938D01*
X0249252Y0062849D01*
X0249131Y0062764D01*
X0249008Y0062681D01*
X0248883Y0062602D01*
X0248756Y0062526D01*
X0248627Y0062454D01*
X0248496Y0062385D01*
X0248363Y0062320D01*
X0248228Y0062259D01*
X0248092Y0062201D01*
X0247955Y0062146D01*
X0247816Y0062096D01*
X0247675Y0062049D01*
X0247534Y0062006D01*
X0247391Y0061966D01*
X0247247Y0061931D01*
X0247103Y0061899D01*
X0246957Y0061872D01*
X0246811Y0061848D01*
X0246664Y0061828D01*
X0246517Y0061812D01*
X0246370Y0061800D01*
X0246222Y0061792D01*
X0246074Y0061788D01*
X0245926Y0061788D01*
X0245778Y0061792D01*
X0245630Y0061800D01*
X0245483Y0061812D01*
X0245336Y0061828D01*
X0245189Y0061848D01*
X0245043Y0061872D01*
X0244897Y0061899D01*
X0244753Y0061931D01*
X0244609Y0061966D01*
X0244466Y0062006D01*
X0244325Y0062049D01*
X0244184Y0062096D01*
X0244045Y0062146D01*
X0243908Y0062201D01*
X0243772Y0062259D01*
X0243637Y0062320D01*
X0243504Y0062385D01*
X0243373Y0062454D01*
X0243244Y0062526D01*
X0243117Y0062602D01*
X0242992Y0062681D01*
X0242869Y0062764D01*
X0242748Y0062849D01*
X0242630Y0062938D01*
X0242514Y0063030D01*
X0242401Y0063126D01*
X0242290Y0063224D01*
X0242182Y0063325D01*
X0242076Y0063429D01*
X0241974Y0063535D01*
X0241874Y0063645D01*
X0241778Y0063757D01*
X0241684Y0063872D01*
X0241593Y0063989D01*
X0241506Y0064108D01*
X0241422Y0064230D01*
X0241341Y0064354D01*
X0241264Y0064480D01*
X0241190Y0064608D01*
X0241119Y0064738D01*
X0241052Y0064870D01*
X0240989Y0065004D01*
X0240929Y0065139D01*
X0240873Y0065276D01*
X0240820Y0065415D01*
X0240772Y0065555D01*
X0240727Y0065696D01*
X0240686Y0065838D01*
X0240648Y0065981D01*
X0240615Y0066125D01*
X0240585Y0066270D01*
X0240559Y0066416D01*
X0240538Y0066562D01*
X0240520Y0066709D01*
X0240506Y0066856D01*
X0240496Y0067004D01*
X0240490Y0067152D01*
X0240488Y0067300D01*
X0311488Y0167800D02*
X0311490Y0167948D01*
X0311496Y0168096D01*
X0311506Y0168244D01*
X0311520Y0168391D01*
X0311538Y0168538D01*
X0311559Y0168684D01*
X0311585Y0168830D01*
X0311615Y0168975D01*
X0311648Y0169119D01*
X0311686Y0169262D01*
X0311727Y0169404D01*
X0311772Y0169545D01*
X0311820Y0169685D01*
X0311873Y0169824D01*
X0311929Y0169961D01*
X0311989Y0170096D01*
X0312052Y0170230D01*
X0312119Y0170362D01*
X0312190Y0170492D01*
X0312264Y0170620D01*
X0312341Y0170746D01*
X0312422Y0170870D01*
X0312506Y0170992D01*
X0312593Y0171111D01*
X0312684Y0171228D01*
X0312778Y0171343D01*
X0312874Y0171455D01*
X0312974Y0171565D01*
X0313076Y0171671D01*
X0313182Y0171775D01*
X0313290Y0171876D01*
X0313401Y0171974D01*
X0313514Y0172070D01*
X0313630Y0172162D01*
X0313748Y0172251D01*
X0313869Y0172336D01*
X0313992Y0172419D01*
X0314117Y0172498D01*
X0314244Y0172574D01*
X0314373Y0172646D01*
X0314504Y0172715D01*
X0314637Y0172780D01*
X0314772Y0172841D01*
X0314908Y0172899D01*
X0315045Y0172954D01*
X0315184Y0173004D01*
X0315325Y0173051D01*
X0315466Y0173094D01*
X0315609Y0173134D01*
X0315753Y0173169D01*
X0315897Y0173201D01*
X0316043Y0173228D01*
X0316189Y0173252D01*
X0316336Y0173272D01*
X0316483Y0173288D01*
X0316630Y0173300D01*
X0316778Y0173308D01*
X0316926Y0173312D01*
X0317074Y0173312D01*
X0317222Y0173308D01*
X0317370Y0173300D01*
X0317517Y0173288D01*
X0317664Y0173272D01*
X0317811Y0173252D01*
X0317957Y0173228D01*
X0318103Y0173201D01*
X0318247Y0173169D01*
X0318391Y0173134D01*
X0318534Y0173094D01*
X0318675Y0173051D01*
X0318816Y0173004D01*
X0318955Y0172954D01*
X0319092Y0172899D01*
X0319228Y0172841D01*
X0319363Y0172780D01*
X0319496Y0172715D01*
X0319627Y0172646D01*
X0319756Y0172574D01*
X0319883Y0172498D01*
X0320008Y0172419D01*
X0320131Y0172336D01*
X0320252Y0172251D01*
X0320370Y0172162D01*
X0320486Y0172070D01*
X0320599Y0171974D01*
X0320710Y0171876D01*
X0320818Y0171775D01*
X0320924Y0171671D01*
X0321026Y0171565D01*
X0321126Y0171455D01*
X0321222Y0171343D01*
X0321316Y0171228D01*
X0321407Y0171111D01*
X0321494Y0170992D01*
X0321578Y0170870D01*
X0321659Y0170746D01*
X0321736Y0170620D01*
X0321810Y0170492D01*
X0321881Y0170362D01*
X0321948Y0170230D01*
X0322011Y0170096D01*
X0322071Y0169961D01*
X0322127Y0169824D01*
X0322180Y0169685D01*
X0322228Y0169545D01*
X0322273Y0169404D01*
X0322314Y0169262D01*
X0322352Y0169119D01*
X0322385Y0168975D01*
X0322415Y0168830D01*
X0322441Y0168684D01*
X0322462Y0168538D01*
X0322480Y0168391D01*
X0322494Y0168244D01*
X0322504Y0168096D01*
X0322510Y0167948D01*
X0322512Y0167800D01*
X0322510Y0167652D01*
X0322504Y0167504D01*
X0322494Y0167356D01*
X0322480Y0167209D01*
X0322462Y0167062D01*
X0322441Y0166916D01*
X0322415Y0166770D01*
X0322385Y0166625D01*
X0322352Y0166481D01*
X0322314Y0166338D01*
X0322273Y0166196D01*
X0322228Y0166055D01*
X0322180Y0165915D01*
X0322127Y0165776D01*
X0322071Y0165639D01*
X0322011Y0165504D01*
X0321948Y0165370D01*
X0321881Y0165238D01*
X0321810Y0165108D01*
X0321736Y0164980D01*
X0321659Y0164854D01*
X0321578Y0164730D01*
X0321494Y0164608D01*
X0321407Y0164489D01*
X0321316Y0164372D01*
X0321222Y0164257D01*
X0321126Y0164145D01*
X0321026Y0164035D01*
X0320924Y0163929D01*
X0320818Y0163825D01*
X0320710Y0163724D01*
X0320599Y0163626D01*
X0320486Y0163530D01*
X0320370Y0163438D01*
X0320252Y0163349D01*
X0320131Y0163264D01*
X0320008Y0163181D01*
X0319883Y0163102D01*
X0319756Y0163026D01*
X0319627Y0162954D01*
X0319496Y0162885D01*
X0319363Y0162820D01*
X0319228Y0162759D01*
X0319092Y0162701D01*
X0318955Y0162646D01*
X0318816Y0162596D01*
X0318675Y0162549D01*
X0318534Y0162506D01*
X0318391Y0162466D01*
X0318247Y0162431D01*
X0318103Y0162399D01*
X0317957Y0162372D01*
X0317811Y0162348D01*
X0317664Y0162328D01*
X0317517Y0162312D01*
X0317370Y0162300D01*
X0317222Y0162292D01*
X0317074Y0162288D01*
X0316926Y0162288D01*
X0316778Y0162292D01*
X0316630Y0162300D01*
X0316483Y0162312D01*
X0316336Y0162328D01*
X0316189Y0162348D01*
X0316043Y0162372D01*
X0315897Y0162399D01*
X0315753Y0162431D01*
X0315609Y0162466D01*
X0315466Y0162506D01*
X0315325Y0162549D01*
X0315184Y0162596D01*
X0315045Y0162646D01*
X0314908Y0162701D01*
X0314772Y0162759D01*
X0314637Y0162820D01*
X0314504Y0162885D01*
X0314373Y0162954D01*
X0314244Y0163026D01*
X0314117Y0163102D01*
X0313992Y0163181D01*
X0313869Y0163264D01*
X0313748Y0163349D01*
X0313630Y0163438D01*
X0313514Y0163530D01*
X0313401Y0163626D01*
X0313290Y0163724D01*
X0313182Y0163825D01*
X0313076Y0163929D01*
X0312974Y0164035D01*
X0312874Y0164145D01*
X0312778Y0164257D01*
X0312684Y0164372D01*
X0312593Y0164489D01*
X0312506Y0164608D01*
X0312422Y0164730D01*
X0312341Y0164854D01*
X0312264Y0164980D01*
X0312190Y0165108D01*
X0312119Y0165238D01*
X0312052Y0165370D01*
X0311989Y0165504D01*
X0311929Y0165639D01*
X0311873Y0165776D01*
X0311820Y0165915D01*
X0311772Y0166055D01*
X0311727Y0166196D01*
X0311686Y0166338D01*
X0311648Y0166481D01*
X0311615Y0166625D01*
X0311585Y0166770D01*
X0311559Y0166916D01*
X0311538Y0167062D01*
X0311520Y0167209D01*
X0311506Y0167356D01*
X0311496Y0167504D01*
X0311490Y0167652D01*
X0311488Y0167800D01*
D11*
X0158240Y0173300D03*
X0150760Y0173300D03*
X0145740Y0152800D03*
X0138260Y0152800D03*
X0139240Y0100800D03*
X0131760Y0100800D03*
D12*
X0122500Y0097060D03*
X0122500Y0104540D03*
X0132500Y0111060D03*
X0122500Y0114060D03*
X0122500Y0121540D03*
X0132500Y0118540D03*
X0143500Y0116060D03*
X0143500Y0123540D03*
X0132500Y0128060D03*
X0122500Y0131060D03*
X0122500Y0138540D03*
X0132500Y0135540D03*
X0104000Y0100658D03*
X0104000Y0093178D03*
D13*
X0206000Y0162800D03*
X0216000Y0162800D03*
X0226000Y0162800D03*
X0226000Y0172800D03*
X0216000Y0172800D03*
X0206000Y0172800D03*
X0128000Y0188300D03*
X0032500Y0018800D03*
D14*
X0091500Y0016702D03*
X0091500Y0027898D03*
X0091500Y0051202D03*
X0091500Y0062398D03*
X0091500Y0083202D03*
X0091500Y0094398D03*
X0091500Y0115702D03*
X0091500Y0126898D03*
X0091500Y0146202D03*
X0091500Y0157398D03*
X0091500Y0173202D03*
X0091500Y0184398D03*
X0184000Y0186898D03*
X0184000Y0175702D03*
X0184000Y0159398D03*
X0184000Y0148202D03*
X0184000Y0127398D03*
X0184000Y0116202D03*
X0184000Y0094398D03*
X0184000Y0083202D03*
X0184000Y0060898D03*
X0184000Y0049702D03*
X0184000Y0026398D03*
X0184000Y0015202D03*
X0277500Y0013202D03*
X0277500Y0024398D03*
X0277500Y0050202D03*
X0277500Y0061398D03*
X0277500Y0082702D03*
X0277500Y0093898D03*
X0277500Y0116702D03*
X0277500Y0127898D03*
X0277500Y0150202D03*
X0277500Y0161398D03*
X0277500Y0179702D03*
X0277500Y0190898D03*
X0362500Y0193898D03*
X0362500Y0182702D03*
X0362500Y0163398D03*
X0362500Y0152202D03*
X0362500Y0128898D03*
X0362500Y0117702D03*
X0362500Y0094898D03*
X0362500Y0083702D03*
X0362500Y0061398D03*
X0362500Y0050202D03*
X0362500Y0023898D03*
X0362500Y0012702D03*
D15*
X0158500Y0099060D03*
X0148500Y0099060D03*
X0148500Y0106540D03*
X0158500Y0106540D03*
D16*
X0075173Y0048300D03*
X0075173Y0043300D03*
X0075173Y0038300D03*
X0075173Y0033300D03*
X0075173Y0028300D03*
X0075173Y0023300D03*
X0075173Y0018300D03*
X0048827Y0018300D03*
X0048827Y0023300D03*
X0048827Y0028300D03*
X0048827Y0033300D03*
X0048827Y0038300D03*
X0048827Y0043300D03*
X0048827Y0048300D03*
X0140827Y0045800D03*
X0140827Y0040800D03*
X0140827Y0035800D03*
X0140827Y0030800D03*
X0140827Y0025800D03*
X0140827Y0020800D03*
X0140827Y0015800D03*
X0167173Y0015800D03*
X0167173Y0020800D03*
X0167173Y0025800D03*
X0167173Y0030800D03*
X0167173Y0035800D03*
X0167173Y0040800D03*
X0167173Y0045800D03*
X0233327Y0043300D03*
X0233327Y0038300D03*
X0233327Y0033300D03*
X0233327Y0028300D03*
X0233327Y0023300D03*
X0233327Y0018300D03*
X0233327Y0013300D03*
X0259673Y0013300D03*
X0259673Y0018300D03*
X0259673Y0023300D03*
X0259673Y0028300D03*
X0259673Y0033300D03*
X0259673Y0038300D03*
X0259673Y0043300D03*
X0314827Y0042800D03*
X0314827Y0037800D03*
X0314827Y0032800D03*
X0314827Y0027800D03*
X0314827Y0022800D03*
X0314827Y0017800D03*
X0314827Y0012800D03*
X0341173Y0012800D03*
X0341173Y0017800D03*
X0341173Y0022800D03*
X0341173Y0027800D03*
X0341173Y0032800D03*
X0341173Y0037800D03*
X0341173Y0042800D03*
D17*
X0306457Y0041686D03*
X0303898Y0041686D03*
X0301339Y0041686D03*
X0298780Y0041686D03*
X0296220Y0041686D03*
X0293661Y0041686D03*
X0291102Y0041686D03*
X0288543Y0041686D03*
X0288543Y0064914D03*
X0291102Y0064914D03*
X0293661Y0064914D03*
X0296220Y0064914D03*
X0298780Y0064914D03*
X0301339Y0064914D03*
X0303898Y0064914D03*
X0306457Y0064914D03*
X0217957Y0055414D03*
X0215398Y0055414D03*
X0212839Y0055414D03*
X0210280Y0055414D03*
X0207720Y0055414D03*
X0205161Y0055414D03*
X0202602Y0055414D03*
X0200043Y0055414D03*
X0200043Y0032186D03*
X0202602Y0032186D03*
X0205161Y0032186D03*
X0207720Y0032186D03*
X0210280Y0032186D03*
X0212839Y0032186D03*
X0215398Y0032186D03*
X0217957Y0032186D03*
X0118957Y0028686D03*
X0116398Y0028686D03*
X0113839Y0028686D03*
X0111280Y0028686D03*
X0108720Y0028686D03*
X0106161Y0028686D03*
X0103602Y0028686D03*
X0101043Y0028686D03*
X0101043Y0051914D03*
X0103602Y0051914D03*
X0106161Y0051914D03*
X0108720Y0051914D03*
X0111280Y0051914D03*
X0113839Y0051914D03*
X0116398Y0051914D03*
X0118957Y0051914D03*
X0048957Y0059686D03*
X0046398Y0059686D03*
X0043839Y0059686D03*
X0041280Y0059686D03*
X0038720Y0059686D03*
X0036161Y0059686D03*
X0033602Y0059686D03*
X0031043Y0059686D03*
X0031043Y0082914D03*
X0033602Y0082914D03*
X0036161Y0082914D03*
X0038720Y0082914D03*
X0041280Y0082914D03*
X0043839Y0082914D03*
X0046398Y0082914D03*
X0048957Y0082914D03*
D18*
X0019000Y0188300D03*
X0114000Y0188300D03*
X0206500Y0190800D03*
X0291500Y0193300D03*
D19*
X0128200Y0170400D03*
X0128200Y0161300D03*
X0128200Y0152200D03*
D20*
X0103799Y0161300D03*
D21*
X0139720Y0186800D03*
X0167083Y0186800D03*
D22*
X0016500Y0079800D03*
X0006500Y0079800D03*
X0381000Y0077800D03*
X0391000Y0077800D03*
D23*
X0384000Y0071381D02*
X0384000Y0003304D01*
X0016000Y0003797D01*
X0016000Y0073300D01*
X0016000Y0079300D01*
X0017000Y0079300D01*
X0017000Y0080300D01*
X0016000Y0080300D01*
X0016000Y0086300D01*
X0016000Y0182390D01*
X0016390Y0182000D01*
X0021610Y0182000D01*
X0025300Y0185690D01*
X0025300Y0190910D01*
X0021610Y0194600D01*
X0016390Y0194600D01*
X0016000Y0194210D01*
X0016000Y0201800D01*
X0384000Y0201800D01*
X0384000Y0084219D01*
X0383697Y0084300D01*
X0381500Y0084300D01*
X0381500Y0078300D01*
X0380500Y0078300D01*
X0380500Y0084300D01*
X0378303Y0084300D01*
X0377921Y0084198D01*
X0377579Y0084000D01*
X0377300Y0083721D01*
X0377102Y0083379D01*
X0377000Y0082997D01*
X0377000Y0078300D01*
X0380500Y0078300D01*
X0380500Y0077300D01*
X0377000Y0077300D01*
X0377000Y0072603D01*
X0377102Y0072221D01*
X0377300Y0071879D01*
X0377579Y0071600D01*
X0377921Y0071402D01*
X0378303Y0071300D01*
X0380500Y0071300D01*
X0380500Y0077300D01*
X0381500Y0077300D01*
X0381500Y0071300D01*
X0383697Y0071300D01*
X0384000Y0071381D01*
X0384000Y0070697D02*
X0370800Y0070697D01*
X0370800Y0069699D02*
X0384000Y0069699D01*
X0384000Y0068700D02*
X0370800Y0068700D01*
X0370800Y0067702D02*
X0384000Y0067702D01*
X0384000Y0066703D02*
X0370800Y0066703D01*
X0370800Y0065705D02*
X0384000Y0065705D01*
X0384000Y0064706D02*
X0370800Y0064706D01*
X0370800Y0063708D02*
X0384000Y0063708D01*
X0384000Y0062709D02*
X0369955Y0062709D01*
X0370800Y0063554D02*
X0370800Y0089144D01*
X0369746Y0090198D01*
X0367349Y0092595D01*
X0367349Y0097202D01*
X0369800Y0099653D01*
X0369800Y0127546D01*
X0368746Y0128600D01*
X0367349Y0129996D01*
X0367349Y0132587D01*
X0366588Y0133348D01*
X0358800Y0133348D01*
X0358800Y0134054D01*
X0362746Y0138000D01*
X0363800Y0139054D01*
X0363800Y0147752D01*
X0366588Y0147752D01*
X0367349Y0148513D01*
X0367349Y0155890D01*
X0366588Y0156651D01*
X0358412Y0156651D01*
X0357800Y0156039D01*
X0357800Y0159561D01*
X0358412Y0158949D01*
X0366588Y0158949D01*
X0367349Y0159710D01*
X0367349Y0167087D01*
X0366588Y0167848D01*
X0358412Y0167848D01*
X0357800Y0167236D01*
X0357800Y0168054D01*
X0362746Y0173000D01*
X0363800Y0174054D01*
X0363800Y0178252D01*
X0366588Y0178252D01*
X0367349Y0179013D01*
X0367349Y0186390D01*
X0366588Y0187151D01*
X0358412Y0187151D01*
X0357651Y0186390D01*
X0357651Y0179013D01*
X0358412Y0178252D01*
X0360200Y0178252D01*
X0360200Y0175546D01*
X0354200Y0169546D01*
X0354200Y0150546D01*
X0352200Y0148546D01*
X0352200Y0121546D01*
X0349200Y0118546D01*
X0349200Y0076546D01*
X0345200Y0072546D01*
X0345200Y0044942D01*
X0344664Y0045478D01*
X0337682Y0045478D01*
X0336920Y0044716D01*
X0336920Y0040884D01*
X0337504Y0040300D01*
X0336920Y0039716D01*
X0336920Y0035884D01*
X0337504Y0035300D01*
X0336920Y0034716D01*
X0336920Y0030884D01*
X0337504Y0030300D01*
X0336920Y0029716D01*
X0336920Y0025884D01*
X0337504Y0025300D01*
X0336920Y0024716D01*
X0336920Y0020884D01*
X0337504Y0020300D01*
X0336920Y0019716D01*
X0336920Y0015884D01*
X0337504Y0015300D01*
X0336920Y0014716D01*
X0336920Y0010884D01*
X0337682Y0010122D01*
X0339373Y0010122D01*
X0339373Y0009381D01*
X0342700Y0006054D01*
X0343754Y0005000D01*
X0356295Y0005000D01*
X0356324Y0004973D01*
X0357035Y0005000D01*
X0357746Y0005000D01*
X0357774Y0005029D01*
X0357814Y0005030D01*
X0358297Y0005552D01*
X0358800Y0006054D01*
X0358800Y0006095D01*
X0360797Y0008252D01*
X0366588Y0008252D01*
X0367349Y0009013D01*
X0367349Y0016390D01*
X0366588Y0017151D01*
X0358412Y0017151D01*
X0357651Y0016390D01*
X0357651Y0010153D01*
X0356213Y0008600D01*
X0345246Y0008600D01*
X0343724Y0010122D01*
X0344664Y0010122D01*
X0345426Y0010884D01*
X0345426Y0014716D01*
X0344842Y0015300D01*
X0345426Y0015884D01*
X0345426Y0016000D01*
X0348246Y0016000D01*
X0349312Y0017066D01*
X0349405Y0017075D01*
X0349830Y0017585D01*
X0350300Y0018054D01*
X0350300Y0018148D01*
X0357331Y0026585D01*
X0357651Y0026905D01*
X0357651Y0020210D01*
X0358412Y0019449D01*
X0366588Y0019449D01*
X0367349Y0020210D01*
X0367349Y0027587D01*
X0366588Y0028348D01*
X0359094Y0028348D01*
X0359826Y0029081D01*
X0359940Y0029093D01*
X0360343Y0029598D01*
X0360800Y0030054D01*
X0360800Y0030169D01*
X0364343Y0034598D01*
X0364800Y0035054D01*
X0364800Y0035169D01*
X0364871Y0035258D01*
X0364800Y0035900D01*
X0364800Y0045752D01*
X0366588Y0045752D01*
X0367349Y0046513D01*
X0367349Y0053890D01*
X0366588Y0054651D01*
X0358412Y0054651D01*
X0357800Y0054039D01*
X0357800Y0057561D01*
X0358412Y0056949D01*
X0366588Y0056949D01*
X0367349Y0057710D01*
X0367349Y0060104D01*
X0367898Y0060653D01*
X0370800Y0063554D01*
X0369000Y0064300D02*
X0366098Y0061398D01*
X0362500Y0061398D01*
X0367349Y0059714D02*
X0384000Y0059714D01*
X0384000Y0060712D02*
X0367958Y0060712D01*
X0368956Y0061711D02*
X0384000Y0061711D01*
X0384000Y0058715D02*
X0367349Y0058715D01*
X0367349Y0057717D02*
X0384000Y0057717D01*
X0384000Y0056718D02*
X0357800Y0056718D01*
X0357800Y0055720D02*
X0384000Y0055720D01*
X0384000Y0054721D02*
X0357800Y0054721D01*
X0362500Y0050202D02*
X0363000Y0049702D01*
X0363000Y0035800D01*
X0359000Y0030800D01*
X0356000Y0027800D01*
X0348500Y0018800D01*
X0347500Y0017800D01*
X0341173Y0017800D01*
X0336920Y0017776D02*
X0319080Y0017776D01*
X0319080Y0016778D02*
X0336920Y0016778D01*
X0337025Y0015779D02*
X0318975Y0015779D01*
X0319080Y0015884D02*
X0319080Y0019716D01*
X0318496Y0020300D01*
X0319080Y0020884D01*
X0319080Y0024716D01*
X0318496Y0025300D01*
X0319080Y0025884D01*
X0319080Y0029716D01*
X0318496Y0030300D01*
X0319080Y0030884D01*
X0319080Y0034716D01*
X0318496Y0035300D01*
X0319080Y0035884D01*
X0319080Y0039716D01*
X0318496Y0040300D01*
X0319080Y0040884D01*
X0319080Y0044716D01*
X0318318Y0045478D01*
X0312794Y0045478D01*
X0313300Y0045984D01*
X0313300Y0066054D01*
X0314746Y0067500D01*
X0315800Y0068554D01*
X0315800Y0082546D01*
X0308300Y0090046D01*
X0307246Y0091100D01*
X0285800Y0091100D01*
X0285800Y0160046D01*
X0283702Y0162144D01*
X0282647Y0163198D01*
X0282349Y0163198D01*
X0282349Y0165087D01*
X0281588Y0165848D01*
X0273412Y0165848D01*
X0272800Y0165236D01*
X0272800Y0167054D01*
X0278800Y0173054D01*
X0278800Y0175252D01*
X0281588Y0175252D01*
X0282349Y0176013D01*
X0282349Y0183390D01*
X0281588Y0184151D01*
X0273412Y0184151D01*
X0272651Y0183390D01*
X0272651Y0176013D01*
X0273412Y0175252D01*
X0275200Y0175252D01*
X0275200Y0174546D01*
X0269200Y0168546D01*
X0269200Y0142546D01*
X0267254Y0140600D01*
X0266200Y0139546D01*
X0266200Y0107546D01*
X0263200Y0104546D01*
X0263200Y0045942D01*
X0263164Y0045978D01*
X0256182Y0045978D01*
X0255420Y0045216D01*
X0255420Y0041384D01*
X0256004Y0040800D01*
X0255420Y0040216D01*
X0255420Y0036384D01*
X0256004Y0035800D01*
X0255420Y0035216D01*
X0255420Y0031384D01*
X0256004Y0030800D01*
X0255420Y0030216D01*
X0255420Y0026384D01*
X0256004Y0025800D01*
X0255420Y0025216D01*
X0255420Y0021384D01*
X0256004Y0020800D01*
X0255420Y0020216D01*
X0255420Y0016384D01*
X0256004Y0015800D01*
X0255420Y0015216D01*
X0255420Y0011384D01*
X0256182Y0010622D01*
X0259179Y0010622D01*
X0260248Y0008838D01*
X0260247Y0008833D01*
X0260632Y0008197D01*
X0261012Y0007562D01*
X0261017Y0007561D01*
X0261019Y0007557D01*
X0261740Y0007380D01*
X0262459Y0007199D01*
X0262462Y0007202D01*
X0262582Y0007172D01*
X0262754Y0007000D01*
X0263282Y0007000D01*
X0263793Y0006874D01*
X0264002Y0007000D01*
X0272007Y0007000D01*
X0272657Y0006934D01*
X0272739Y0007000D01*
X0272844Y0007000D01*
X0273306Y0007462D01*
X0274889Y0008752D01*
X0281588Y0008752D01*
X0282349Y0009513D01*
X0282349Y0016890D01*
X0281588Y0017651D01*
X0273412Y0017651D01*
X0272651Y0016890D01*
X0272651Y0011572D01*
X0271458Y0010600D01*
X0263718Y0010600D01*
X0263332Y0010695D01*
X0263297Y0010754D01*
X0263926Y0011384D01*
X0263926Y0015216D01*
X0263342Y0015800D01*
X0263717Y0016175D01*
X0265752Y0016014D01*
X0266378Y0015889D01*
X0266480Y0015956D01*
X0266601Y0015947D01*
X0267087Y0016362D01*
X0269928Y0018255D01*
X0270510Y0018569D01*
X0270538Y0018662D01*
X0270619Y0018716D01*
X0270748Y0019364D01*
X0272651Y0025705D01*
X0272651Y0020710D01*
X0273412Y0019949D01*
X0281588Y0019949D01*
X0282349Y0020710D01*
X0282349Y0026702D01*
X0284700Y0029053D01*
X0284700Y0011054D01*
X0285754Y0010000D01*
X0286700Y0009054D01*
X0287754Y0008000D01*
X0310699Y0008000D01*
X0311310Y0007913D01*
X0311427Y0008000D01*
X0311572Y0008000D01*
X0312009Y0008437D01*
X0314256Y0010122D01*
X0318318Y0010122D01*
X0319080Y0010884D01*
X0319080Y0014716D01*
X0318496Y0015300D01*
X0319080Y0015884D01*
X0319015Y0014781D02*
X0336985Y0014781D01*
X0336920Y0013782D02*
X0319080Y0013782D01*
X0319080Y0012784D02*
X0336920Y0012784D01*
X0336920Y0011785D02*
X0319080Y0011785D01*
X0318983Y0010787D02*
X0337017Y0010787D01*
X0339373Y0009788D02*
X0313811Y0009788D01*
X0312480Y0008790D02*
X0339965Y0008790D01*
X0340963Y0007791D02*
X0273710Y0007791D01*
X0272098Y0008800D02*
X0277500Y0013202D01*
X0272651Y0012784D02*
X0263926Y0012784D01*
X0263926Y0013782D02*
X0272651Y0013782D01*
X0272651Y0014781D02*
X0263926Y0014781D01*
X0263363Y0015779D02*
X0272651Y0015779D01*
X0272651Y0016778D02*
X0267711Y0016778D01*
X0269209Y0017776D02*
X0284700Y0017776D01*
X0284700Y0016778D02*
X0282349Y0016778D01*
X0282349Y0015779D02*
X0284700Y0015779D01*
X0284700Y0014781D02*
X0282349Y0014781D01*
X0282349Y0013782D02*
X0284700Y0013782D01*
X0284700Y0012784D02*
X0282349Y0012784D01*
X0282349Y0011785D02*
X0284700Y0011785D01*
X0284968Y0010787D02*
X0282349Y0010787D01*
X0282349Y0009788D02*
X0285966Y0009788D01*
X0286965Y0008790D02*
X0281625Y0008790D01*
X0286500Y0011800D02*
X0288500Y0009800D01*
X0310827Y0009800D01*
X0314827Y0012800D01*
X0313827Y0016800D02*
X0314827Y0017800D01*
X0313827Y0016800D02*
X0312000Y0016800D01*
X0307000Y0012800D01*
X0290000Y0012800D01*
X0288543Y0014257D01*
X0288543Y0041686D01*
X0291102Y0041686D02*
X0291102Y0016698D01*
X0292000Y0015800D01*
X0305000Y0015800D01*
X0313000Y0022800D01*
X0313827Y0021800D01*
X0314827Y0022800D01*
X0319080Y0022769D02*
X0336920Y0022769D01*
X0336920Y0023767D02*
X0319080Y0023767D01*
X0319030Y0024766D02*
X0336970Y0024766D01*
X0337040Y0025764D02*
X0318960Y0025764D01*
X0319080Y0026763D02*
X0336920Y0026763D01*
X0336920Y0027761D02*
X0319080Y0027761D01*
X0319080Y0028760D02*
X0336920Y0028760D01*
X0336962Y0029758D02*
X0319038Y0029758D01*
X0318953Y0030757D02*
X0337047Y0030757D01*
X0336920Y0031755D02*
X0319080Y0031755D01*
X0319080Y0032754D02*
X0336920Y0032754D01*
X0336920Y0033752D02*
X0319080Y0033752D01*
X0319045Y0034751D02*
X0336955Y0034751D01*
X0337055Y0035749D02*
X0318945Y0035749D01*
X0319080Y0036748D02*
X0336920Y0036748D01*
X0336920Y0037746D02*
X0319080Y0037746D01*
X0319080Y0038745D02*
X0336920Y0038745D01*
X0336947Y0039743D02*
X0319053Y0039743D01*
X0318938Y0040742D02*
X0337062Y0040742D01*
X0336920Y0041740D02*
X0319080Y0041740D01*
X0319080Y0042739D02*
X0336920Y0042739D01*
X0336920Y0043737D02*
X0319080Y0043737D01*
X0319060Y0044736D02*
X0336940Y0044736D01*
X0345200Y0045734D02*
X0313051Y0045734D01*
X0313300Y0046733D02*
X0345200Y0046733D01*
X0345200Y0047732D02*
X0319430Y0047732D01*
X0319302Y0047603D02*
X0320197Y0048498D01*
X0320681Y0049667D01*
X0320681Y0050933D01*
X0320197Y0052102D01*
X0319302Y0052997D01*
X0318133Y0053481D01*
X0316867Y0053481D01*
X0315698Y0052997D01*
X0314803Y0052102D01*
X0314319Y0050933D01*
X0314319Y0049667D01*
X0314803Y0048498D01*
X0315698Y0047603D01*
X0316867Y0047119D01*
X0318133Y0047119D01*
X0319302Y0047603D01*
X0320293Y0048730D02*
X0345200Y0048730D01*
X0345200Y0049729D02*
X0320681Y0049729D01*
X0320681Y0050727D02*
X0345200Y0050727D01*
X0345200Y0051726D02*
X0320353Y0051726D01*
X0319575Y0052724D02*
X0345200Y0052724D01*
X0345200Y0053723D02*
X0313300Y0053723D01*
X0313300Y0054721D02*
X0317120Y0054721D01*
X0317367Y0054619D02*
X0318633Y0054619D01*
X0319802Y0055103D01*
X0320697Y0055998D01*
X0320698Y0056000D01*
X0323746Y0056000D01*
X0328246Y0060500D01*
X0329300Y0061554D01*
X0329300Y0078602D01*
X0329302Y0078603D01*
X0330197Y0079498D01*
X0330681Y0080667D01*
X0330681Y0081933D01*
X0330197Y0083102D01*
X0329302Y0083997D01*
X0328133Y0084481D01*
X0326867Y0084481D01*
X0325698Y0083997D01*
X0324803Y0083102D01*
X0324319Y0081933D01*
X0324319Y0080667D01*
X0324803Y0079498D01*
X0325698Y0078603D01*
X0325700Y0078602D01*
X0325700Y0063046D01*
X0322254Y0059600D01*
X0320698Y0059600D01*
X0320697Y0059602D01*
X0319802Y0060497D01*
X0318633Y0060981D01*
X0317367Y0060981D01*
X0316198Y0060497D01*
X0315303Y0059602D01*
X0314819Y0058433D01*
X0314819Y0057167D01*
X0315303Y0055998D01*
X0316198Y0055103D01*
X0317367Y0054619D01*
X0318879Y0054721D02*
X0345200Y0054721D01*
X0345200Y0055720D02*
X0320418Y0055720D01*
X0318000Y0057800D02*
X0323000Y0057800D01*
X0327500Y0062300D01*
X0327500Y0081300D01*
X0324628Y0082679D02*
X0315666Y0082679D01*
X0315800Y0081681D02*
X0324319Y0081681D01*
X0324319Y0080682D02*
X0315800Y0080682D01*
X0315800Y0079684D02*
X0324726Y0079684D01*
X0325616Y0078685D02*
X0315800Y0078685D01*
X0315800Y0077687D02*
X0325700Y0077687D01*
X0325700Y0076688D02*
X0315800Y0076688D01*
X0315800Y0075690D02*
X0325700Y0075690D01*
X0325700Y0074691D02*
X0315800Y0074691D01*
X0315800Y0073693D02*
X0325700Y0073693D01*
X0325700Y0072694D02*
X0315800Y0072694D01*
X0315800Y0071696D02*
X0325700Y0071696D01*
X0325700Y0070697D02*
X0315800Y0070697D01*
X0315800Y0069699D02*
X0325700Y0069699D01*
X0325700Y0068700D02*
X0315800Y0068700D01*
X0314947Y0067702D02*
X0325700Y0067702D01*
X0325700Y0066703D02*
X0313949Y0066703D01*
X0313300Y0065705D02*
X0325700Y0065705D01*
X0325700Y0064706D02*
X0313300Y0064706D01*
X0313300Y0063708D02*
X0325700Y0063708D01*
X0325364Y0062709D02*
X0313300Y0062709D01*
X0313300Y0061711D02*
X0324365Y0061711D01*
X0323367Y0060712D02*
X0319282Y0060712D01*
X0320585Y0059714D02*
X0322368Y0059714D01*
X0324464Y0056718D02*
X0345200Y0056718D01*
X0345200Y0057717D02*
X0325462Y0057717D01*
X0326461Y0058715D02*
X0345200Y0058715D01*
X0345200Y0059714D02*
X0327459Y0059714D01*
X0328246Y0060500D02*
X0328246Y0060500D01*
X0328458Y0060712D02*
X0345200Y0060712D01*
X0345200Y0061711D02*
X0329300Y0061711D01*
X0329300Y0062709D02*
X0345200Y0062709D01*
X0345200Y0063708D02*
X0329300Y0063708D01*
X0329300Y0064706D02*
X0345200Y0064706D01*
X0345200Y0065705D02*
X0329300Y0065705D01*
X0329300Y0066703D02*
X0345200Y0066703D01*
X0345200Y0067702D02*
X0329300Y0067702D01*
X0329300Y0068700D02*
X0345200Y0068700D01*
X0345200Y0069699D02*
X0329300Y0069699D01*
X0329300Y0070697D02*
X0345200Y0070697D01*
X0345200Y0071696D02*
X0329300Y0071696D01*
X0329300Y0072694D02*
X0345349Y0072694D01*
X0346347Y0073693D02*
X0329300Y0073693D01*
X0329300Y0074691D02*
X0347346Y0074691D01*
X0348344Y0075690D02*
X0329300Y0075690D01*
X0329300Y0076688D02*
X0349200Y0076688D01*
X0349200Y0077687D02*
X0329300Y0077687D01*
X0329384Y0078685D02*
X0349200Y0078685D01*
X0349200Y0079684D02*
X0330274Y0079684D01*
X0330681Y0080682D02*
X0349200Y0080682D01*
X0349200Y0081681D02*
X0330681Y0081681D01*
X0330372Y0082679D02*
X0349200Y0082679D01*
X0349200Y0083678D02*
X0329621Y0083678D01*
X0325379Y0083678D02*
X0314668Y0083678D01*
X0313669Y0084676D02*
X0349200Y0084676D01*
X0349200Y0085675D02*
X0312671Y0085675D01*
X0311672Y0086673D02*
X0349200Y0086673D01*
X0349200Y0087672D02*
X0310674Y0087672D01*
X0309675Y0088670D02*
X0349200Y0088670D01*
X0349200Y0089669D02*
X0308677Y0089669D01*
X0307678Y0090668D02*
X0349200Y0090668D01*
X0349200Y0091666D02*
X0285800Y0091666D01*
X0285800Y0092665D02*
X0349200Y0092665D01*
X0349200Y0093663D02*
X0285800Y0093663D01*
X0285800Y0094662D02*
X0349200Y0094662D01*
X0349200Y0095660D02*
X0285800Y0095660D01*
X0285800Y0096659D02*
X0349200Y0096659D01*
X0349200Y0097657D02*
X0285800Y0097657D01*
X0285800Y0098656D02*
X0349200Y0098656D01*
X0349200Y0099654D02*
X0285800Y0099654D01*
X0285800Y0100653D02*
X0349200Y0100653D01*
X0349200Y0101651D02*
X0285800Y0101651D01*
X0285800Y0102650D02*
X0349200Y0102650D01*
X0349200Y0103648D02*
X0285800Y0103648D01*
X0285800Y0104647D02*
X0349200Y0104647D01*
X0349200Y0105645D02*
X0285800Y0105645D01*
X0285800Y0106644D02*
X0349200Y0106644D01*
X0349200Y0107642D02*
X0285800Y0107642D01*
X0285800Y0108641D02*
X0349200Y0108641D01*
X0349200Y0109639D02*
X0285800Y0109639D01*
X0285800Y0110638D02*
X0349200Y0110638D01*
X0349200Y0111636D02*
X0285800Y0111636D01*
X0285800Y0112635D02*
X0349200Y0112635D01*
X0349200Y0113633D02*
X0285800Y0113633D01*
X0285800Y0114632D02*
X0349200Y0114632D01*
X0349200Y0115630D02*
X0285800Y0115630D01*
X0285800Y0116629D02*
X0349200Y0116629D01*
X0349200Y0117627D02*
X0285800Y0117627D01*
X0285800Y0118626D02*
X0349280Y0118626D01*
X0350279Y0119624D02*
X0285800Y0119624D01*
X0285800Y0120623D02*
X0351277Y0120623D01*
X0352200Y0121621D02*
X0285800Y0121621D01*
X0285800Y0122620D02*
X0352200Y0122620D01*
X0352200Y0123618D02*
X0285800Y0123618D01*
X0285800Y0124617D02*
X0352200Y0124617D01*
X0352200Y0125615D02*
X0285800Y0125615D01*
X0285800Y0126614D02*
X0352200Y0126614D01*
X0352200Y0127612D02*
X0285800Y0127612D01*
X0285800Y0128611D02*
X0352200Y0128611D01*
X0352200Y0129609D02*
X0285800Y0129609D01*
X0285800Y0130608D02*
X0352200Y0130608D01*
X0352200Y0131606D02*
X0285800Y0131606D01*
X0285800Y0132605D02*
X0352200Y0132605D01*
X0352200Y0133603D02*
X0285800Y0133603D01*
X0285800Y0134602D02*
X0352200Y0134602D01*
X0352200Y0135601D02*
X0285800Y0135601D01*
X0285800Y0136599D02*
X0352200Y0136599D01*
X0352200Y0137598D02*
X0285800Y0137598D01*
X0285800Y0138596D02*
X0352200Y0138596D01*
X0352200Y0139595D02*
X0285800Y0139595D01*
X0285800Y0140593D02*
X0352200Y0140593D01*
X0352200Y0141592D02*
X0285800Y0141592D01*
X0285800Y0142590D02*
X0352200Y0142590D01*
X0352200Y0143589D02*
X0285800Y0143589D01*
X0285800Y0144587D02*
X0352200Y0144587D01*
X0352200Y0145586D02*
X0285800Y0145586D01*
X0285800Y0146584D02*
X0291244Y0146584D01*
X0291198Y0146603D02*
X0292367Y0146119D01*
X0293633Y0146119D01*
X0294802Y0146603D01*
X0295697Y0147498D01*
X0295698Y0147500D01*
X0342801Y0147500D01*
X0343198Y0147103D01*
X0344367Y0146619D01*
X0345633Y0146619D01*
X0346802Y0147103D01*
X0347697Y0147998D01*
X0348181Y0149167D01*
X0348181Y0150433D01*
X0347697Y0151602D01*
X0346802Y0152497D01*
X0345633Y0152981D01*
X0344367Y0152981D01*
X0343198Y0152497D01*
X0342303Y0151602D01*
X0342095Y0151100D01*
X0295698Y0151100D01*
X0295697Y0151102D01*
X0294802Y0151997D01*
X0293633Y0152481D01*
X0292367Y0152481D01*
X0291198Y0151997D01*
X0290303Y0151102D01*
X0289819Y0149933D01*
X0289819Y0148667D01*
X0290303Y0147498D01*
X0291198Y0146603D01*
X0290268Y0147583D02*
X0285800Y0147583D01*
X0285800Y0148581D02*
X0289855Y0148581D01*
X0289819Y0149580D02*
X0285800Y0149580D01*
X0285800Y0150578D02*
X0290086Y0150578D01*
X0290778Y0151577D02*
X0285800Y0151577D01*
X0285800Y0152575D02*
X0343387Y0152575D01*
X0342293Y0151577D02*
X0295222Y0151577D01*
X0293000Y0149300D02*
X0344500Y0149300D01*
X0345000Y0149800D01*
X0347938Y0148581D02*
X0352236Y0148581D01*
X0352200Y0147583D02*
X0347281Y0147583D01*
X0348181Y0149580D02*
X0353234Y0149580D01*
X0354200Y0150578D02*
X0348121Y0150578D01*
X0347707Y0151577D02*
X0354200Y0151577D01*
X0354200Y0152575D02*
X0346613Y0152575D01*
X0354200Y0153574D02*
X0318728Y0153574D01*
X0317000Y0153300D02*
X0321481Y0154010D01*
X0325523Y0156069D01*
X0328731Y0159277D01*
X0330790Y0163319D01*
X0331500Y0167800D01*
X0330790Y0172281D01*
X0328731Y0176323D01*
X0325523Y0179531D01*
X0325523Y0179531D01*
X0321481Y0181590D01*
X0321481Y0181590D01*
X0317000Y0182300D01*
X0312519Y0181590D01*
X0308477Y0179531D01*
X0305269Y0176323D01*
X0305269Y0176323D01*
X0303210Y0172281D01*
X0303210Y0172281D01*
X0302500Y0167800D01*
X0302500Y0167800D01*
X0303210Y0163319D01*
X0305269Y0159277D01*
X0308477Y0156069D01*
X0312519Y0154010D01*
X0312519Y0154010D01*
X0317000Y0153300D01*
X0317000Y0153300D01*
X0315272Y0153574D02*
X0285800Y0153574D01*
X0285800Y0154572D02*
X0311415Y0154572D01*
X0309455Y0155571D02*
X0285800Y0155571D01*
X0285800Y0156569D02*
X0307977Y0156569D01*
X0308477Y0156069D02*
X0308477Y0156069D01*
X0306979Y0157568D02*
X0285800Y0157568D01*
X0285800Y0158566D02*
X0305980Y0158566D01*
X0305269Y0159277D02*
X0305269Y0159277D01*
X0305123Y0159565D02*
X0285800Y0159565D01*
X0285282Y0160563D02*
X0304614Y0160563D01*
X0304105Y0161562D02*
X0284284Y0161562D01*
X0283285Y0162560D02*
X0303596Y0162560D01*
X0303210Y0163319D02*
X0303210Y0163319D01*
X0303172Y0163559D02*
X0282349Y0163559D01*
X0282349Y0164557D02*
X0303014Y0164557D01*
X0302855Y0165556D02*
X0281880Y0165556D01*
X0274297Y0168551D02*
X0302619Y0168551D01*
X0302539Y0167553D02*
X0273298Y0167553D01*
X0272800Y0166554D02*
X0302697Y0166554D01*
X0302777Y0169550D02*
X0275295Y0169550D01*
X0276294Y0170548D02*
X0302935Y0170548D01*
X0303093Y0171547D02*
X0277293Y0171547D01*
X0278291Y0172545D02*
X0303345Y0172545D01*
X0303853Y0173544D02*
X0278800Y0173544D01*
X0278800Y0174542D02*
X0304362Y0174542D01*
X0304871Y0175541D02*
X0281877Y0175541D01*
X0282349Y0176539D02*
X0305486Y0176539D01*
X0306484Y0177538D02*
X0282349Y0177538D01*
X0282349Y0178537D02*
X0307483Y0178537D01*
X0308477Y0179531D02*
X0308477Y0179531D01*
X0308486Y0179535D02*
X0282349Y0179535D01*
X0282349Y0180534D02*
X0310445Y0180534D01*
X0312405Y0181532D02*
X0282349Y0181532D01*
X0282349Y0182531D02*
X0357651Y0182531D01*
X0357651Y0183529D02*
X0282210Y0183529D01*
X0277500Y0179702D02*
X0277000Y0179202D01*
X0277000Y0173800D01*
X0271000Y0167800D01*
X0271000Y0141800D01*
X0268000Y0138800D01*
X0268000Y0106800D01*
X0265000Y0103800D01*
X0265000Y0041800D01*
X0262500Y0038300D01*
X0259673Y0038300D01*
X0255420Y0038745D02*
X0237580Y0038745D01*
X0237580Y0039743D02*
X0255420Y0039743D01*
X0255946Y0040742D02*
X0237054Y0040742D01*
X0236996Y0040800D02*
X0237580Y0041384D01*
X0237580Y0045216D01*
X0236818Y0045978D01*
X0229836Y0045978D01*
X0229074Y0045216D01*
X0229074Y0041384D01*
X0229658Y0040800D01*
X0229074Y0040216D01*
X0229074Y0039614D01*
X0228918Y0039600D01*
X0228254Y0039600D01*
X0228188Y0039534D01*
X0228095Y0039525D01*
X0227670Y0039015D01*
X0227200Y0038546D01*
X0227200Y0038452D01*
X0224300Y0034972D01*
X0224300Y0044054D01*
X0228865Y0048620D01*
X0228867Y0048619D01*
X0230133Y0048619D01*
X0231302Y0049103D01*
X0232197Y0049998D01*
X0232681Y0051167D01*
X0232681Y0052433D01*
X0232197Y0053602D01*
X0231302Y0054497D01*
X0230133Y0054981D01*
X0228867Y0054981D01*
X0227698Y0054497D01*
X0226803Y0053602D01*
X0226319Y0052433D01*
X0226319Y0051167D01*
X0226320Y0051165D01*
X0220700Y0045546D01*
X0220700Y0036046D01*
X0219847Y0035193D01*
X0219847Y0035579D01*
X0219086Y0036340D01*
X0216828Y0036340D01*
X0216677Y0036190D01*
X0216527Y0036340D01*
X0214269Y0036340D01*
X0214118Y0036190D01*
X0213968Y0036340D01*
X0211710Y0036340D01*
X0211559Y0036190D01*
X0211409Y0036340D01*
X0209150Y0036340D01*
X0209000Y0036190D01*
X0208849Y0036340D01*
X0206591Y0036340D01*
X0206441Y0036190D01*
X0206290Y0036340D01*
X0204032Y0036340D01*
X0203882Y0036190D01*
X0203731Y0036340D01*
X0201473Y0036340D01*
X0201323Y0036190D01*
X0201172Y0036340D01*
X0198914Y0036340D01*
X0198300Y0035726D01*
X0198300Y0045561D01*
X0199367Y0045119D01*
X0200633Y0045119D01*
X0201802Y0045603D01*
X0202697Y0046498D01*
X0203181Y0047667D01*
X0203181Y0048933D01*
X0202697Y0050102D01*
X0201843Y0050955D01*
X0201843Y0051260D01*
X0203731Y0051260D01*
X0203882Y0051410D01*
X0204032Y0051260D01*
X0206290Y0051260D01*
X0206441Y0051410D01*
X0206591Y0051260D01*
X0208700Y0051260D01*
X0208700Y0044546D01*
X0208254Y0044100D01*
X0206198Y0044100D01*
X0206197Y0044102D01*
X0205302Y0044997D01*
X0204133Y0045481D01*
X0202867Y0045481D01*
X0201698Y0044997D01*
X0200803Y0044102D01*
X0200319Y0042933D01*
X0200319Y0041667D01*
X0200803Y0040498D01*
X0201698Y0039603D01*
X0202867Y0039119D01*
X0204133Y0039119D01*
X0205302Y0039603D01*
X0206197Y0040498D01*
X0206198Y0040500D01*
X0209746Y0040500D01*
X0211246Y0042000D01*
X0212300Y0043054D01*
X0212300Y0051260D01*
X0213968Y0051260D01*
X0214118Y0051410D01*
X0214269Y0051260D01*
X0216527Y0051260D01*
X0216677Y0051410D01*
X0216828Y0051260D01*
X0219086Y0051260D01*
X0219847Y0052021D01*
X0219847Y0058807D01*
X0219315Y0059339D01*
X0219706Y0059686D01*
X0219867Y0059619D01*
X0221133Y0059619D01*
X0222302Y0060103D01*
X0223197Y0060998D01*
X0223681Y0062167D01*
X0223681Y0063433D01*
X0223197Y0064602D01*
X0222302Y0065497D01*
X0221133Y0065981D01*
X0219867Y0065981D01*
X0219181Y0065697D01*
X0219181Y0066433D01*
X0218697Y0067602D01*
X0217802Y0068497D01*
X0216633Y0068981D01*
X0215367Y0068981D01*
X0214198Y0068497D01*
X0213303Y0067602D01*
X0212846Y0066499D01*
X0212800Y0066546D01*
X0212800Y0068554D01*
X0218746Y0074500D01*
X0228746Y0074500D01*
X0236746Y0082500D01*
X0255754Y0082500D01*
X0256820Y0081435D01*
X0256819Y0081433D01*
X0256819Y0080167D01*
X0257303Y0078998D01*
X0258198Y0078103D01*
X0259367Y0077619D01*
X0260633Y0077619D01*
X0261802Y0078103D01*
X0262697Y0078998D01*
X0263181Y0080167D01*
X0263181Y0081433D01*
X0262697Y0082602D01*
X0261802Y0083497D01*
X0260633Y0083981D01*
X0259367Y0083981D01*
X0259365Y0083980D01*
X0257246Y0086100D01*
X0235254Y0086100D01*
X0227254Y0078100D01*
X0217254Y0078100D01*
X0216200Y0077046D01*
X0209200Y0070046D01*
X0209200Y0065054D01*
X0209726Y0064528D01*
X0208633Y0064981D01*
X0207367Y0064981D01*
X0206198Y0064497D01*
X0205303Y0063602D01*
X0205300Y0063594D01*
X0205300Y0067546D01*
X0204246Y0068600D01*
X0199800Y0073046D01*
X0198746Y0074100D01*
X0198198Y0074100D01*
X0198197Y0074102D01*
X0197302Y0074997D01*
X0196133Y0075481D01*
X0194867Y0075481D01*
X0193698Y0074997D01*
X0192803Y0074102D01*
X0192319Y0072933D01*
X0192319Y0071667D01*
X0192803Y0070498D01*
X0193698Y0069603D01*
X0194867Y0069119D01*
X0196133Y0069119D01*
X0197302Y0069603D01*
X0197727Y0070028D01*
X0201700Y0066054D01*
X0201700Y0061646D01*
X0199746Y0063600D01*
X0195754Y0063600D01*
X0194700Y0062546D01*
X0194700Y0052099D01*
X0194302Y0052497D01*
X0193133Y0052981D01*
X0191867Y0052981D01*
X0190698Y0052497D01*
X0189803Y0051602D01*
X0189319Y0050433D01*
X0189319Y0049167D01*
X0189803Y0047998D01*
X0190698Y0047103D01*
X0191867Y0046619D01*
X0193133Y0046619D01*
X0194302Y0047103D01*
X0194700Y0047501D01*
X0194700Y0013554D01*
X0195754Y0012500D01*
X0195754Y0012500D01*
X0200754Y0007500D01*
X0227480Y0007500D01*
X0227851Y0007352D01*
X0228196Y0007500D01*
X0228572Y0007500D01*
X0228854Y0007782D01*
X0231791Y0009040D01*
X0232267Y0009093D01*
X0232451Y0009323D01*
X0232721Y0009439D01*
X0232899Y0009884D01*
X0233490Y0010622D01*
X0236818Y0010622D01*
X0237580Y0011384D01*
X0237580Y0015216D01*
X0236996Y0015800D01*
X0237580Y0016384D01*
X0237580Y0020216D01*
X0236996Y0020800D01*
X0237580Y0021384D01*
X0237580Y0025216D01*
X0236996Y0025800D01*
X0237580Y0026384D01*
X0237580Y0030216D01*
X0236996Y0030800D01*
X0237580Y0031384D01*
X0237580Y0035216D01*
X0236996Y0035800D01*
X0237580Y0036384D01*
X0237580Y0040216D01*
X0236996Y0040800D01*
X0237580Y0041740D02*
X0255420Y0041740D01*
X0255420Y0042739D02*
X0237580Y0042739D01*
X0237580Y0043737D02*
X0255420Y0043737D01*
X0255420Y0044736D02*
X0237580Y0044736D01*
X0237061Y0045734D02*
X0255939Y0045734D01*
X0263200Y0046733D02*
X0226979Y0046733D01*
X0227977Y0047732D02*
X0263200Y0047732D01*
X0263200Y0048730D02*
X0230401Y0048730D01*
X0231927Y0049729D02*
X0263200Y0049729D01*
X0263200Y0050727D02*
X0232499Y0050727D01*
X0232681Y0051726D02*
X0263200Y0051726D01*
X0263200Y0052724D02*
X0232560Y0052724D01*
X0232076Y0053723D02*
X0241101Y0053723D01*
X0241519Y0053510D02*
X0246000Y0052800D01*
X0250481Y0053510D01*
X0254523Y0055569D01*
X0254523Y0055569D01*
X0257731Y0058777D01*
X0259790Y0062819D01*
X0260500Y0067300D01*
X0259790Y0071781D01*
X0257731Y0075823D01*
X0254523Y0079031D01*
X0254523Y0079031D01*
X0250481Y0081090D01*
X0250481Y0081090D01*
X0246000Y0081800D01*
X0241519Y0081090D01*
X0237477Y0079031D01*
X0234269Y0075823D01*
X0234269Y0075823D01*
X0232210Y0071781D01*
X0232210Y0071781D01*
X0231500Y0067300D01*
X0231500Y0067300D01*
X0232210Y0062819D01*
X0234269Y0058777D01*
X0234269Y0058777D01*
X0234269Y0058777D01*
X0237477Y0055569D01*
X0241519Y0053510D01*
X0241519Y0053510D01*
X0239142Y0054721D02*
X0230760Y0054721D01*
X0228240Y0054721D02*
X0219847Y0054721D01*
X0219847Y0053723D02*
X0226924Y0053723D01*
X0226440Y0052724D02*
X0219847Y0052724D01*
X0219551Y0051726D02*
X0226319Y0051726D01*
X0225881Y0050727D02*
X0212300Y0050727D01*
X0212300Y0049729D02*
X0224883Y0049729D01*
X0223884Y0048730D02*
X0212300Y0048730D01*
X0212300Y0047732D02*
X0222886Y0047732D01*
X0221887Y0046733D02*
X0212300Y0046733D01*
X0212300Y0045734D02*
X0220889Y0045734D01*
X0220700Y0044736D02*
X0212300Y0044736D01*
X0212300Y0043737D02*
X0220700Y0043737D01*
X0220700Y0042739D02*
X0211985Y0042739D01*
X0210986Y0041740D02*
X0220700Y0041740D01*
X0220700Y0040742D02*
X0209988Y0040742D01*
X0209000Y0042300D02*
X0210500Y0043800D01*
X0210500Y0055194D01*
X0210500Y0059300D01*
X0211500Y0060300D01*
X0211500Y0060800D01*
X0212500Y0061800D01*
X0212500Y0064300D01*
X0211000Y0065800D01*
X0211000Y0069300D01*
X0218000Y0076300D01*
X0228000Y0076300D01*
X0236000Y0084300D01*
X0256500Y0084300D01*
X0260000Y0080800D01*
X0262981Y0079684D02*
X0263200Y0079684D01*
X0263181Y0080682D02*
X0263200Y0080682D01*
X0263200Y0081681D02*
X0263078Y0081681D01*
X0263200Y0082679D02*
X0262619Y0082679D01*
X0263200Y0083678D02*
X0261365Y0083678D01*
X0263200Y0084676D02*
X0258669Y0084676D01*
X0257671Y0085675D02*
X0263200Y0085675D01*
X0263200Y0086673D02*
X0191800Y0086673D01*
X0191800Y0085675D02*
X0234829Y0085675D01*
X0233831Y0084676D02*
X0191800Y0084676D01*
X0191800Y0083678D02*
X0232832Y0083678D01*
X0231834Y0082679D02*
X0191800Y0082679D01*
X0191800Y0081681D02*
X0230835Y0081681D01*
X0229837Y0080682D02*
X0191800Y0080682D01*
X0191800Y0079684D02*
X0228838Y0079684D01*
X0227840Y0078685D02*
X0191800Y0078685D01*
X0191800Y0077687D02*
X0216841Y0077687D01*
X0215843Y0076688D02*
X0191800Y0076688D01*
X0191800Y0075690D02*
X0214844Y0075690D01*
X0213846Y0074691D02*
X0197607Y0074691D01*
X0199153Y0073693D02*
X0212847Y0073693D01*
X0211849Y0072694D02*
X0200151Y0072694D01*
X0201150Y0071696D02*
X0210850Y0071696D01*
X0209852Y0070697D02*
X0202148Y0070697D01*
X0203147Y0069699D02*
X0209200Y0069699D01*
X0209200Y0068700D02*
X0204145Y0068700D01*
X0205144Y0067702D02*
X0209200Y0067702D01*
X0209200Y0066703D02*
X0205300Y0066703D01*
X0205300Y0065705D02*
X0209200Y0065705D01*
X0209296Y0064706D02*
X0209548Y0064706D01*
X0206704Y0064706D02*
X0205300Y0064706D01*
X0205300Y0063708D02*
X0205409Y0063708D01*
X0208000Y0061800D02*
X0207720Y0060080D01*
X0207720Y0055414D01*
X0205161Y0055414D02*
X0205161Y0058139D01*
X0203500Y0060300D01*
X0203500Y0066800D01*
X0198000Y0072300D01*
X0195500Y0072300D01*
X0192634Y0073693D02*
X0191800Y0073693D01*
X0191800Y0074691D02*
X0193393Y0074691D01*
X0192319Y0072694D02*
X0191800Y0072694D01*
X0191800Y0071696D02*
X0192319Y0071696D01*
X0192721Y0070697D02*
X0191800Y0070697D01*
X0191800Y0069699D02*
X0193602Y0069699D01*
X0191800Y0068700D02*
X0199054Y0068700D01*
X0200053Y0067702D02*
X0191800Y0067702D01*
X0191800Y0066703D02*
X0201051Y0066703D01*
X0201700Y0065705D02*
X0191800Y0065705D01*
X0191800Y0064706D02*
X0201700Y0064706D01*
X0201700Y0063708D02*
X0191800Y0063708D01*
X0191800Y0062709D02*
X0194864Y0062709D01*
X0194700Y0061711D02*
X0191456Y0061711D01*
X0191800Y0062054D02*
X0191800Y0092046D01*
X0190800Y0093046D01*
X0190800Y0093561D01*
X0191867Y0093119D01*
X0193133Y0093119D01*
X0194302Y0093603D01*
X0195197Y0094498D01*
X0195198Y0094500D01*
X0210746Y0094500D01*
X0263012Y0146766D01*
X0263367Y0146619D01*
X0264633Y0146619D01*
X0265802Y0147103D01*
X0266697Y0147998D01*
X0267181Y0149167D01*
X0267181Y0150433D01*
X0266697Y0151602D01*
X0265802Y0152497D01*
X0264633Y0152981D01*
X0263367Y0152981D01*
X0262198Y0152497D01*
X0261303Y0151602D01*
X0260819Y0150433D01*
X0260819Y0149664D01*
X0209254Y0098100D01*
X0195198Y0098100D01*
X0195197Y0098102D01*
X0194302Y0098997D01*
X0193133Y0099481D01*
X0191867Y0099481D01*
X0190800Y0099039D01*
X0190800Y0127546D01*
X0189746Y0128600D01*
X0189147Y0129198D01*
X0188849Y0129198D01*
X0188849Y0129702D01*
X0198300Y0139153D01*
X0198300Y0150000D01*
X0234746Y0150000D01*
X0235800Y0151054D01*
X0240800Y0156054D01*
X0240800Y0157500D01*
X0243819Y0157500D01*
X0243819Y0157167D01*
X0244303Y0155998D01*
X0245198Y0155103D01*
X0246367Y0154619D01*
X0247633Y0154619D01*
X0248802Y0155103D01*
X0249697Y0155998D01*
X0250181Y0157167D01*
X0250181Y0158433D01*
X0249697Y0159602D01*
X0248802Y0160497D01*
X0247633Y0160981D01*
X0246367Y0160981D01*
X0246365Y0160980D01*
X0246246Y0161100D01*
X0240800Y0161100D01*
X0240800Y0180046D01*
X0239746Y0181100D01*
X0239746Y0181100D01*
X0237246Y0183600D01*
X0189844Y0183600D01*
X0188849Y0184595D01*
X0188849Y0190587D01*
X0188088Y0191348D01*
X0179912Y0191348D01*
X0179151Y0190587D01*
X0179151Y0183210D01*
X0179912Y0182449D01*
X0185904Y0182449D01*
X0188353Y0180000D01*
X0235754Y0180000D01*
X0237200Y0178554D01*
X0237200Y0157546D01*
X0233254Y0153600D01*
X0223300Y0153600D01*
X0223300Y0153895D01*
X0225481Y0158500D01*
X0227781Y0158500D01*
X0230300Y0161019D01*
X0230300Y0164581D01*
X0227781Y0167100D01*
X0224219Y0167100D01*
X0221700Y0164581D01*
X0221700Y0161019D01*
X0222372Y0160346D01*
X0220361Y0156100D01*
X0199746Y0156100D01*
X0190800Y0165046D01*
X0189746Y0166100D01*
X0177019Y0166100D01*
X0176827Y0166221D01*
X0176785Y0166211D01*
X0177181Y0167167D01*
X0177181Y0168433D01*
X0176924Y0169054D01*
X0179151Y0172574D01*
X0179151Y0172013D01*
X0179912Y0171252D01*
X0188088Y0171252D01*
X0188849Y0172013D01*
X0188849Y0179390D01*
X0188088Y0180151D01*
X0179912Y0180151D01*
X0179151Y0179390D01*
X0179151Y0177580D01*
X0178800Y0177502D01*
X0178254Y0177502D01*
X0178096Y0177343D01*
X0177878Y0177294D01*
X0177586Y0176833D01*
X0177200Y0176447D01*
X0177200Y0176223D01*
X0173883Y0170981D01*
X0173367Y0170981D01*
X0172198Y0170497D01*
X0171303Y0169602D01*
X0170819Y0168433D01*
X0170819Y0167167D01*
X0171303Y0165998D01*
X0172198Y0165103D01*
X0173367Y0164619D01*
X0174574Y0164619D01*
X0172513Y0161339D01*
X0172197Y0162102D01*
X0171302Y0162997D01*
X0170133Y0163481D01*
X0168867Y0163481D01*
X0168865Y0163480D01*
X0165246Y0167100D01*
X0158698Y0167100D01*
X0158697Y0167102D01*
X0158484Y0167314D01*
X0159600Y0168430D01*
X0159600Y0169047D01*
X0161338Y0169047D01*
X0162099Y0169809D01*
X0162099Y0171200D01*
X0168671Y0171200D01*
X0168867Y0171119D01*
X0170133Y0171119D01*
X0171302Y0171603D01*
X0172197Y0172498D01*
X0172681Y0173667D01*
X0172681Y0174933D01*
X0172197Y0176102D01*
X0171302Y0176997D01*
X0170133Y0177481D01*
X0168867Y0177481D01*
X0167698Y0176997D01*
X0166803Y0176102D01*
X0166512Y0175400D01*
X0162099Y0175400D01*
X0162099Y0176791D01*
X0161338Y0177553D01*
X0155143Y0177553D01*
X0154500Y0176910D01*
X0153857Y0177553D01*
X0152600Y0177553D01*
X0152600Y0184170D01*
X0151370Y0185400D01*
X0147870Y0188900D01*
X0146237Y0188900D01*
X0146237Y0190783D01*
X0145475Y0191545D01*
X0133965Y0191545D01*
X0133204Y0190783D01*
X0133204Y0190400D01*
X0131981Y0190400D01*
X0129781Y0192600D01*
X0126219Y0192600D01*
X0123700Y0190081D01*
X0123700Y0186519D01*
X0126219Y0184000D01*
X0129781Y0184000D01*
X0131981Y0186200D01*
X0133204Y0186200D01*
X0133204Y0182817D01*
X0133965Y0182055D01*
X0145475Y0182055D01*
X0146237Y0182817D01*
X0146237Y0184593D01*
X0148400Y0182430D01*
X0148400Y0177553D01*
X0147662Y0177553D01*
X0146901Y0176791D01*
X0146901Y0175400D01*
X0144599Y0175400D01*
X0144697Y0175498D01*
X0145181Y0176667D01*
X0145181Y0177933D01*
X0144697Y0179102D01*
X0143802Y0179997D01*
X0142633Y0180481D01*
X0141367Y0180481D01*
X0140198Y0179997D01*
X0139303Y0179102D01*
X0139302Y0179100D01*
X0108746Y0179100D01*
X0105180Y0182665D01*
X0105181Y0182667D01*
X0105181Y0183933D01*
X0104697Y0185102D01*
X0103802Y0185997D01*
X0102633Y0186481D01*
X0101367Y0186481D01*
X0100198Y0185997D01*
X0099303Y0185102D01*
X0098819Y0183933D01*
X0098819Y0182667D01*
X0099303Y0181498D01*
X0100198Y0180603D01*
X0101367Y0180119D01*
X0102633Y0180119D01*
X0102635Y0180120D01*
X0107254Y0175500D01*
X0139302Y0175500D01*
X0139303Y0175498D01*
X0140198Y0174603D01*
X0141367Y0174119D01*
X0141849Y0174119D01*
X0140230Y0172500D01*
X0133900Y0172500D01*
X0133900Y0173338D01*
X0133138Y0174100D01*
X0123262Y0174100D01*
X0122500Y0173338D01*
X0122500Y0167462D01*
X0123262Y0166700D01*
X0133138Y0166700D01*
X0133900Y0167462D01*
X0133900Y0168300D01*
X0141970Y0168300D01*
X0144870Y0171200D01*
X0146901Y0171200D01*
X0146901Y0169809D01*
X0147662Y0169047D01*
X0150777Y0169047D01*
X0149900Y0168170D01*
X0143640Y0161910D01*
X0143640Y0157053D01*
X0142643Y0157053D01*
X0142109Y0156519D01*
X0142019Y0156674D01*
X0141740Y0156953D01*
X0141398Y0157151D01*
X0141016Y0157253D01*
X0138760Y0157253D01*
X0138760Y0153300D01*
X0137760Y0153300D01*
X0137760Y0157253D01*
X0135503Y0157253D01*
X0135122Y0157151D01*
X0134780Y0156953D01*
X0134500Y0156674D01*
X0134303Y0156332D01*
X0134201Y0155950D01*
X0134201Y0153300D01*
X0137760Y0153300D01*
X0137760Y0152300D01*
X0138760Y0152300D01*
X0138760Y0148347D01*
X0141016Y0148347D01*
X0141398Y0148449D01*
X0141740Y0148647D01*
X0142019Y0148926D01*
X0142109Y0149081D01*
X0142643Y0148547D01*
X0148838Y0148547D01*
X0149599Y0149309D01*
X0149599Y0156291D01*
X0148838Y0157053D01*
X0147840Y0157053D01*
X0147840Y0160170D01*
X0152819Y0165149D01*
X0152819Y0164667D01*
X0153303Y0163498D01*
X0154198Y0162603D01*
X0155367Y0162119D01*
X0156633Y0162119D01*
X0157802Y0162603D01*
X0158697Y0163498D01*
X0158698Y0163500D01*
X0163754Y0163500D01*
X0166320Y0160935D01*
X0166319Y0160933D01*
X0166319Y0159667D01*
X0166803Y0158498D01*
X0167698Y0157603D01*
X0168867Y0157119D01*
X0169860Y0157119D01*
X0167928Y0154045D01*
X0167697Y0154602D01*
X0166802Y0155497D01*
X0165633Y0155981D01*
X0164367Y0155981D01*
X0163198Y0155497D01*
X0162303Y0154602D01*
X0161819Y0153433D01*
X0161819Y0152167D01*
X0161820Y0152165D01*
X0156636Y0146981D01*
X0156367Y0146981D01*
X0155198Y0146497D01*
X0154303Y0145602D01*
X0153819Y0144433D01*
X0153819Y0143167D01*
X0154036Y0142644D01*
X0140332Y0144276D01*
X0140197Y0144602D01*
X0139302Y0145497D01*
X0138133Y0145981D01*
X0136867Y0145981D01*
X0135698Y0145497D01*
X0134803Y0144602D01*
X0134319Y0143433D01*
X0134319Y0142167D01*
X0134803Y0140998D01*
X0135698Y0140103D01*
X0136867Y0139619D01*
X0138133Y0139619D01*
X0139302Y0140103D01*
X0139900Y0140702D01*
X0156700Y0138702D01*
X0156700Y0110399D01*
X0154812Y0110399D01*
X0154050Y0109638D01*
X0154050Y0103443D01*
X0154693Y0102800D01*
X0154050Y0102157D01*
X0154050Y0100860D01*
X0152950Y0100860D01*
X0152950Y0102157D01*
X0152416Y0102691D01*
X0152571Y0102781D01*
X0152850Y0103060D01*
X0153047Y0103402D01*
X0153150Y0103784D01*
X0153150Y0106040D01*
X0149000Y0106040D01*
X0149000Y0107040D01*
X0153150Y0107040D01*
X0153150Y0109297D01*
X0153047Y0109678D01*
X0152850Y0110020D01*
X0152571Y0110299D01*
X0152229Y0110497D01*
X0151847Y0110599D01*
X0149000Y0110599D01*
X0149000Y0107040D01*
X0148000Y0107040D01*
X0148000Y0106040D01*
X0143850Y0106040D01*
X0143850Y0103784D01*
X0143953Y0103402D01*
X0144150Y0103060D01*
X0144429Y0102781D01*
X0144584Y0102691D01*
X0144050Y0102157D01*
X0144050Y0097600D01*
X0143200Y0097600D01*
X0143099Y0097842D01*
X0143099Y0104291D01*
X0142338Y0105053D01*
X0136143Y0105053D01*
X0135500Y0104410D01*
X0134857Y0105053D01*
X0128662Y0105053D01*
X0127901Y0104291D01*
X0127901Y0099487D01*
X0127274Y0098860D01*
X0126753Y0098860D01*
X0126753Y0100157D01*
X0126110Y0100800D01*
X0126753Y0101443D01*
X0126753Y0107638D01*
X0125991Y0108399D01*
X0119009Y0108399D01*
X0118247Y0107638D01*
X0118247Y0106505D01*
X0116683Y0106566D01*
X0116521Y0106781D01*
X0116681Y0107167D01*
X0116681Y0108433D01*
X0116197Y0109602D01*
X0115302Y0110497D01*
X0114133Y0110981D01*
X0112867Y0110981D01*
X0111698Y0110497D01*
X0110803Y0109602D01*
X0110319Y0108433D01*
X0110319Y0107167D01*
X0110803Y0105998D01*
X0111698Y0105103D01*
X0112867Y0104619D01*
X0113643Y0104619D01*
X0113936Y0104229D01*
X0113932Y0104124D01*
X0114377Y0103644D01*
X0114771Y0103121D01*
X0114874Y0103107D01*
X0114945Y0103030D01*
X0115599Y0103005D01*
X0116247Y0102914D01*
X0116331Y0102977D01*
X0118247Y0102903D01*
X0118247Y0101443D01*
X0118890Y0100800D01*
X0118247Y0100157D01*
X0118247Y0093962D01*
X0119009Y0093201D01*
X0119355Y0093201D01*
X0111754Y0085600D01*
X0100246Y0085600D01*
X0098300Y0087546D01*
X0098300Y0093554D01*
X0098398Y0093653D01*
X0098593Y0093847D01*
X0098800Y0094054D01*
X0098800Y0152867D01*
X0098890Y0152816D01*
X0099271Y0152713D01*
X0103299Y0152713D01*
X0103299Y0160800D01*
X0104299Y0160800D01*
X0104299Y0152713D01*
X0108327Y0152713D01*
X0108709Y0152816D01*
X0109051Y0153013D01*
X0109330Y0153292D01*
X0109528Y0153634D01*
X0109630Y0154016D01*
X0109630Y0160800D01*
X0104299Y0160800D01*
X0104299Y0161800D01*
X0103299Y0161800D01*
X0103299Y0169887D01*
X0099271Y0169887D01*
X0098890Y0169784D01*
X0098800Y0169733D01*
X0098800Y0186546D01*
X0097746Y0187600D01*
X0096746Y0188600D01*
X0095836Y0188600D01*
X0095588Y0188848D01*
X0087412Y0188848D01*
X0086651Y0188087D01*
X0086651Y0180710D01*
X0087412Y0179949D01*
X0095200Y0179949D01*
X0095200Y0177651D01*
X0087412Y0177651D01*
X0086651Y0176890D01*
X0086651Y0169513D01*
X0087412Y0168752D01*
X0089700Y0168752D01*
X0089700Y0166459D01*
X0085610Y0164600D01*
X0085254Y0164600D01*
X0084958Y0164304D01*
X0084576Y0164130D01*
X0084452Y0163797D01*
X0084200Y0163546D01*
X0084200Y0163126D01*
X0084053Y0162734D01*
X0084200Y0162410D01*
X0084200Y0136931D01*
X0082657Y0135002D01*
X0082200Y0134546D01*
X0082200Y0134431D01*
X0082129Y0134342D01*
X0082200Y0133700D01*
X0082200Y0111546D01*
X0078254Y0107600D01*
X0077200Y0106546D01*
X0077200Y0077054D01*
X0078200Y0076054D01*
X0078200Y0050978D01*
X0071682Y0050978D01*
X0070920Y0050216D01*
X0070920Y0046384D01*
X0071504Y0045800D01*
X0070920Y0045216D01*
X0070920Y0041384D01*
X0071504Y0040800D01*
X0070920Y0040216D01*
X0070920Y0036384D01*
X0071504Y0035800D01*
X0070920Y0035216D01*
X0070920Y0031384D01*
X0071504Y0030800D01*
X0070920Y0030216D01*
X0070920Y0026384D01*
X0071504Y0025800D01*
X0070920Y0025216D01*
X0070920Y0021384D01*
X0071504Y0020800D01*
X0070920Y0020216D01*
X0070920Y0016384D01*
X0071682Y0015622D01*
X0076466Y0015622D01*
X0077298Y0014957D01*
X0077754Y0014500D01*
X0077869Y0014500D01*
X0077958Y0014429D01*
X0078600Y0014500D01*
X0086651Y0014500D01*
X0086651Y0013013D01*
X0087412Y0012252D01*
X0095588Y0012252D01*
X0096349Y0013013D01*
X0096349Y0020390D01*
X0095588Y0021151D01*
X0087412Y0021151D01*
X0086651Y0020390D01*
X0086651Y0018100D01*
X0079426Y0018100D01*
X0079426Y0020216D01*
X0078842Y0020800D01*
X0079426Y0021384D01*
X0079426Y0021500D01*
X0080510Y0021500D01*
X0080730Y0021370D01*
X0081230Y0021500D01*
X0081746Y0021500D01*
X0081926Y0021681D01*
X0082173Y0021745D01*
X0082435Y0022190D01*
X0082800Y0022554D01*
X0082800Y0022810D01*
X0086651Y0029356D01*
X0086651Y0024210D01*
X0087412Y0023449D01*
X0095588Y0023449D01*
X0096349Y0024210D01*
X0096349Y0031587D01*
X0095588Y0032348D01*
X0094094Y0032348D01*
X0097200Y0035454D01*
X0097200Y0013554D01*
X0098254Y0012500D01*
X0099700Y0011054D01*
X0100754Y0010000D01*
X0137246Y0010000D01*
X0140368Y0013122D01*
X0144318Y0013122D01*
X0145080Y0013884D01*
X0145080Y0017716D01*
X0144496Y0018300D01*
X0145080Y0018884D01*
X0145080Y0022716D01*
X0144496Y0023300D01*
X0145080Y0023884D01*
X0145080Y0027716D01*
X0144496Y0028300D01*
X0145080Y0028884D01*
X0145080Y0032716D01*
X0144496Y0033300D01*
X0145080Y0033884D01*
X0145080Y0037716D01*
X0144496Y0038300D01*
X0145080Y0038884D01*
X0145080Y0042716D01*
X0144496Y0043300D01*
X0145080Y0043884D01*
X0145080Y0047716D01*
X0144318Y0048478D01*
X0137336Y0048478D01*
X0136574Y0047716D01*
X0136574Y0043884D01*
X0137158Y0043300D01*
X0136574Y0042716D01*
X0136574Y0041100D01*
X0135754Y0041100D01*
X0133080Y0038425D01*
X0132840Y0038365D01*
X0132571Y0037916D01*
X0132200Y0037546D01*
X0132200Y0037299D01*
X0129571Y0032916D01*
X0126007Y0029353D01*
X0125697Y0030102D01*
X0125519Y0030280D01*
X0128082Y0038337D01*
X0128300Y0038554D01*
X0128300Y0039021D01*
X0128441Y0039465D01*
X0128300Y0039738D01*
X0128300Y0044078D01*
X0128405Y0044500D01*
X0130543Y0044500D01*
X0130543Y0044498D01*
X0131438Y0043603D01*
X0132607Y0043119D01*
X0133873Y0043119D01*
X0135042Y0043603D01*
X0135937Y0044498D01*
X0136421Y0045667D01*
X0136421Y0046933D01*
X0135937Y0048102D01*
X0135042Y0048997D01*
X0133873Y0049481D01*
X0132607Y0049481D01*
X0131438Y0048997D01*
X0130543Y0048102D01*
X0130543Y0048100D01*
X0127222Y0048100D01*
X0126713Y0048227D01*
X0126501Y0048100D01*
X0126254Y0048100D01*
X0125884Y0047729D01*
X0125435Y0047460D01*
X0125375Y0047220D01*
X0125200Y0047046D01*
X0125200Y0046522D01*
X0124875Y0045220D01*
X0124700Y0045046D01*
X0124700Y0044522D01*
X0124573Y0044013D01*
X0124700Y0043801D01*
X0124700Y0039579D01*
X0122086Y0031365D01*
X0121198Y0030997D01*
X0120847Y0030646D01*
X0120847Y0032079D01*
X0120086Y0032840D01*
X0117828Y0032840D01*
X0117677Y0032690D01*
X0117527Y0032840D01*
X0115269Y0032840D01*
X0115118Y0032690D01*
X0114968Y0032840D01*
X0112710Y0032840D01*
X0112559Y0032690D01*
X0112409Y0032840D01*
X0110150Y0032840D01*
X0110000Y0032690D01*
X0109849Y0032840D01*
X0107591Y0032840D01*
X0107441Y0032690D01*
X0107290Y0032840D01*
X0105032Y0032840D01*
X0104882Y0032690D01*
X0104731Y0032840D01*
X0102473Y0032840D01*
X0102323Y0032690D01*
X0102172Y0032840D01*
X0100800Y0032840D01*
X0100800Y0044000D01*
X0102246Y0044000D01*
X0103300Y0045054D01*
X0103300Y0046546D01*
X0102843Y0047002D01*
X0102843Y0047760D01*
X0104731Y0047760D01*
X0104882Y0047910D01*
X0105032Y0047760D01*
X0107290Y0047760D01*
X0107441Y0047910D01*
X0107591Y0047760D01*
X0109849Y0047760D01*
X0110000Y0047910D01*
X0110150Y0047760D01*
X0112409Y0047760D01*
X0112559Y0047910D01*
X0112710Y0047760D01*
X0114968Y0047760D01*
X0115118Y0047910D01*
X0115269Y0047760D01*
X0117527Y0047760D01*
X0117677Y0047910D01*
X0117828Y0047760D01*
X0120086Y0047760D01*
X0120847Y0048521D01*
X0120847Y0055307D01*
X0120417Y0055737D01*
X0121302Y0056103D01*
X0122197Y0056998D01*
X0122681Y0058167D01*
X0122681Y0059433D01*
X0122197Y0060602D01*
X0121632Y0061167D01*
X0122258Y0065868D01*
X0122446Y0066386D01*
X0122354Y0066584D01*
X0122383Y0066801D01*
X0122048Y0067238D01*
X0118689Y0074438D01*
X0118516Y0075023D01*
X0118381Y0075097D01*
X0118316Y0075237D01*
X0117743Y0075445D01*
X0113008Y0078028D01*
X0113005Y0078037D01*
X0112354Y0078384D01*
X0111707Y0078737D01*
X0111698Y0078734D01*
X0105575Y0082000D01*
X0113246Y0082000D01*
X0114300Y0083054D01*
X0124300Y0093054D01*
X0124300Y0093201D01*
X0125991Y0093201D01*
X0126753Y0093962D01*
X0126753Y0095260D01*
X0128765Y0095260D01*
X0129820Y0096314D01*
X0130053Y0096547D01*
X0134857Y0096547D01*
X0135500Y0097190D01*
X0136143Y0096547D01*
X0139739Y0096547D01*
X0140200Y0095440D01*
X0140200Y0095054D01*
X0140475Y0094779D01*
X0140625Y0094419D01*
X0140982Y0094273D01*
X0141254Y0094000D01*
X0141644Y0094000D01*
X0142004Y0093852D01*
X0142360Y0094000D01*
X0145389Y0094000D01*
X0145496Y0093918D01*
X0146118Y0094000D01*
X0146746Y0094000D01*
X0146841Y0094095D01*
X0146975Y0094113D01*
X0147356Y0094611D01*
X0147800Y0095054D01*
X0147800Y0095189D01*
X0147809Y0095201D01*
X0152188Y0095201D01*
X0152950Y0095962D01*
X0152950Y0097260D01*
X0154050Y0097260D01*
X0154050Y0095962D01*
X0154812Y0095201D01*
X0162188Y0095201D01*
X0162950Y0095962D01*
X0162950Y0102157D01*
X0162307Y0102800D01*
X0162950Y0103443D01*
X0162950Y0109638D01*
X0162188Y0110399D01*
X0160300Y0110399D01*
X0160300Y0139483D01*
X0163176Y0142000D01*
X0163246Y0142000D01*
X0163730Y0142485D01*
X0164246Y0142936D01*
X0164251Y0143005D01*
X0166406Y0145160D01*
X0166627Y0145211D01*
X0166916Y0145670D01*
X0167300Y0146054D01*
X0167300Y0146281D01*
X0174072Y0157055D01*
X0174303Y0156498D01*
X0175198Y0155603D01*
X0175200Y0155602D01*
X0175200Y0105931D01*
X0173657Y0104002D01*
X0173200Y0103546D01*
X0173200Y0103431D01*
X0173129Y0103342D01*
X0173200Y0102700D01*
X0173200Y0075931D01*
X0171657Y0074002D01*
X0171200Y0073546D01*
X0171200Y0073431D01*
X0171129Y0073342D01*
X0171200Y0072700D01*
X0171200Y0047942D01*
X0170664Y0048478D01*
X0163682Y0048478D01*
X0162920Y0047716D01*
X0162920Y0043884D01*
X0163504Y0043300D01*
X0162920Y0042716D01*
X0162920Y0038884D01*
X0163504Y0038300D01*
X0162920Y0037716D01*
X0162920Y0033884D01*
X0163504Y0033300D01*
X0162920Y0032716D01*
X0162920Y0028884D01*
X0163504Y0028300D01*
X0162920Y0027716D01*
X0162920Y0023884D01*
X0163504Y0023300D01*
X0162920Y0022716D01*
X0162920Y0018884D01*
X0163504Y0018300D01*
X0162920Y0017716D01*
X0162920Y0013884D01*
X0163682Y0013122D01*
X0170664Y0013122D01*
X0171426Y0013884D01*
X0171426Y0014000D01*
X0172575Y0014000D01*
X0176934Y0011821D01*
X0177254Y0011500D01*
X0177575Y0011500D01*
X0177862Y0011357D01*
X0178292Y0011500D01*
X0179164Y0011500D01*
X0179912Y0010752D01*
X0188088Y0010752D01*
X0188849Y0011513D01*
X0188849Y0018890D01*
X0188088Y0019651D01*
X0179912Y0019651D01*
X0179151Y0018890D01*
X0179151Y0015100D01*
X0178425Y0015100D01*
X0174066Y0017279D01*
X0173746Y0017600D01*
X0173425Y0017600D01*
X0173138Y0017743D01*
X0172708Y0017600D01*
X0171426Y0017600D01*
X0171426Y0017716D01*
X0170842Y0018300D01*
X0171426Y0018884D01*
X0171426Y0019000D01*
X0176289Y0019000D01*
X0176808Y0018876D01*
X0177009Y0019000D01*
X0177246Y0019000D01*
X0177623Y0019378D01*
X0178078Y0019658D01*
X0178133Y0019887D01*
X0178300Y0020054D01*
X0178300Y0020589D01*
X0179151Y0024162D01*
X0179151Y0022710D01*
X0179912Y0021949D01*
X0188088Y0021949D01*
X0188849Y0022710D01*
X0188849Y0030087D01*
X0188088Y0030848D01*
X0182121Y0030848D01*
X0184425Y0032000D01*
X0184746Y0032000D01*
X0185066Y0032321D01*
X0185472Y0032523D01*
X0185573Y0032828D01*
X0185800Y0033054D01*
X0185800Y0033508D01*
X0185943Y0033938D01*
X0185800Y0034225D01*
X0185800Y0045252D01*
X0188088Y0045252D01*
X0188849Y0046013D01*
X0188849Y0053390D01*
X0188088Y0054151D01*
X0180800Y0054151D01*
X0180800Y0056449D01*
X0188088Y0056449D01*
X0188849Y0057210D01*
X0188849Y0059104D01*
X0189898Y0060153D01*
X0191800Y0062054D01*
X0190458Y0060712D02*
X0194700Y0060712D01*
X0194700Y0059714D02*
X0189459Y0059714D01*
X0188849Y0058715D02*
X0194700Y0058715D01*
X0194700Y0057717D02*
X0188849Y0057717D01*
X0188357Y0056718D02*
X0194700Y0056718D01*
X0194700Y0055720D02*
X0180800Y0055720D01*
X0180800Y0054721D02*
X0194700Y0054721D01*
X0194700Y0053723D02*
X0188516Y0053723D01*
X0188849Y0052724D02*
X0191247Y0052724D01*
X0189927Y0051726D02*
X0188849Y0051726D01*
X0188849Y0050727D02*
X0189441Y0050727D01*
X0189319Y0049729D02*
X0188849Y0049729D01*
X0188849Y0048730D02*
X0189500Y0048730D01*
X0190070Y0047732D02*
X0188849Y0047732D01*
X0188849Y0046733D02*
X0191592Y0046733D01*
X0193408Y0046733D02*
X0194700Y0046733D01*
X0194700Y0045734D02*
X0188570Y0045734D01*
X0185800Y0044736D02*
X0194700Y0044736D01*
X0194700Y0043737D02*
X0185800Y0043737D01*
X0185800Y0042739D02*
X0194700Y0042739D01*
X0194700Y0041740D02*
X0185800Y0041740D01*
X0185800Y0040742D02*
X0194700Y0040742D01*
X0194700Y0039743D02*
X0185800Y0039743D01*
X0185800Y0038745D02*
X0194700Y0038745D01*
X0194700Y0037746D02*
X0185800Y0037746D01*
X0185800Y0036748D02*
X0194700Y0036748D01*
X0194700Y0035749D02*
X0185800Y0035749D01*
X0185800Y0034751D02*
X0194700Y0034751D01*
X0194700Y0033752D02*
X0185881Y0033752D01*
X0185549Y0032754D02*
X0194700Y0032754D01*
X0194700Y0031755D02*
X0183936Y0031755D01*
X0184000Y0033800D02*
X0184000Y0049702D01*
X0193753Y0052724D02*
X0194700Y0052724D01*
X0200043Y0055414D02*
X0200043Y0048343D01*
X0200000Y0048300D01*
X0202851Y0049729D02*
X0208700Y0049729D01*
X0208700Y0050727D02*
X0202072Y0050727D01*
X0203181Y0048730D02*
X0208700Y0048730D01*
X0208700Y0047732D02*
X0203181Y0047732D01*
X0202794Y0046733D02*
X0208700Y0046733D01*
X0208700Y0045734D02*
X0201933Y0045734D01*
X0201437Y0044736D02*
X0198300Y0044736D01*
X0198300Y0043737D02*
X0200652Y0043737D01*
X0200319Y0042739D02*
X0198300Y0042739D01*
X0198300Y0041740D02*
X0200319Y0041740D01*
X0200702Y0040742D02*
X0198300Y0040742D01*
X0198300Y0039743D02*
X0201558Y0039743D01*
X0203500Y0042300D02*
X0209000Y0042300D01*
X0208700Y0044736D02*
X0205563Y0044736D01*
X0205442Y0039743D02*
X0220700Y0039743D01*
X0220700Y0038745D02*
X0198300Y0038745D01*
X0198300Y0037746D02*
X0220700Y0037746D01*
X0220700Y0036748D02*
X0198300Y0036748D01*
X0198300Y0035749D02*
X0198324Y0035749D01*
X0200043Y0032186D02*
X0200043Y0016343D01*
X0202500Y0013800D01*
X0227000Y0013800D01*
X0230000Y0018800D01*
X0232827Y0018800D01*
X0233327Y0018300D01*
X0237580Y0018775D02*
X0255420Y0018775D01*
X0255420Y0019773D02*
X0237580Y0019773D01*
X0237024Y0020772D02*
X0255976Y0020772D01*
X0255420Y0021770D02*
X0237580Y0021770D01*
X0237580Y0022769D02*
X0255420Y0022769D01*
X0255420Y0023767D02*
X0237580Y0023767D01*
X0237580Y0024766D02*
X0255420Y0024766D01*
X0255968Y0025764D02*
X0237032Y0025764D01*
X0237580Y0026763D02*
X0255420Y0026763D01*
X0255420Y0027761D02*
X0237580Y0027761D01*
X0237580Y0028760D02*
X0255420Y0028760D01*
X0255420Y0029758D02*
X0237580Y0029758D01*
X0237039Y0030757D02*
X0255961Y0030757D01*
X0255420Y0031755D02*
X0237580Y0031755D01*
X0237580Y0032754D02*
X0255420Y0032754D01*
X0255420Y0033752D02*
X0237580Y0033752D01*
X0237580Y0034751D02*
X0255420Y0034751D01*
X0255953Y0035749D02*
X0237047Y0035749D01*
X0237580Y0036748D02*
X0255420Y0036748D01*
X0255420Y0037746D02*
X0237580Y0037746D01*
X0233327Y0038300D02*
X0232827Y0037800D01*
X0229000Y0037800D01*
X0219000Y0025800D01*
X0213500Y0025800D01*
X0210280Y0028580D01*
X0210280Y0032186D01*
X0207720Y0032186D02*
X0207720Y0025580D01*
X0211500Y0022800D01*
X0221000Y0022800D01*
X0229000Y0032800D01*
X0232827Y0032800D01*
X0233327Y0033300D01*
X0233327Y0028300D02*
X0232827Y0027800D01*
X0229000Y0027800D01*
X0223000Y0019800D01*
X0208500Y0019800D01*
X0205161Y0022461D01*
X0205161Y0032186D01*
X0202602Y0032186D02*
X0202602Y0019698D01*
X0205500Y0016800D01*
X0225000Y0016800D01*
X0229000Y0022800D01*
X0232827Y0022800D01*
X0233327Y0023300D01*
X0237580Y0017776D02*
X0255420Y0017776D01*
X0255420Y0016778D02*
X0237580Y0016778D01*
X0237017Y0015779D02*
X0255983Y0015779D01*
X0255420Y0014781D02*
X0237580Y0014781D01*
X0237580Y0013782D02*
X0255420Y0013782D01*
X0255420Y0012784D02*
X0237580Y0012784D01*
X0237580Y0011785D02*
X0255420Y0011785D01*
X0256017Y0010787D02*
X0236983Y0010787D01*
X0232861Y0009788D02*
X0259679Y0009788D01*
X0260274Y0008790D02*
X0231205Y0008790D01*
X0231327Y0010800D02*
X0227827Y0009300D01*
X0201500Y0009300D01*
X0196500Y0014300D01*
X0196500Y0061800D01*
X0199000Y0061800D01*
X0202602Y0058198D01*
X0202602Y0055414D01*
X0210280Y0055414D02*
X0210500Y0055194D01*
X0212839Y0055414D02*
X0213000Y0055576D01*
X0213000Y0058800D01*
X0216000Y0061800D01*
X0216000Y0065800D01*
X0219181Y0065705D02*
X0219200Y0065705D01*
X0219069Y0066703D02*
X0231595Y0066703D01*
X0231564Y0067702D02*
X0218597Y0067702D01*
X0217311Y0068700D02*
X0231722Y0068700D01*
X0231880Y0069699D02*
X0213944Y0069699D01*
X0214689Y0068700D02*
X0212946Y0068700D01*
X0212800Y0067702D02*
X0213403Y0067702D01*
X0212931Y0066703D02*
X0212800Y0066703D01*
X0214943Y0070697D02*
X0232038Y0070697D01*
X0232196Y0071696D02*
X0215941Y0071696D01*
X0216940Y0072694D02*
X0232675Y0072694D01*
X0233184Y0073693D02*
X0217938Y0073693D01*
X0228937Y0074691D02*
X0233693Y0074691D01*
X0234201Y0075690D02*
X0229935Y0075690D01*
X0230934Y0076688D02*
X0235135Y0076688D01*
X0236133Y0077687D02*
X0231932Y0077687D01*
X0232931Y0078685D02*
X0237132Y0078685D01*
X0237477Y0079031D02*
X0237477Y0079031D01*
X0238759Y0079684D02*
X0233929Y0079684D01*
X0234928Y0080682D02*
X0240719Y0080682D01*
X0241519Y0081090D02*
X0241519Y0081090D01*
X0245248Y0081681D02*
X0235926Y0081681D01*
X0246000Y0081800D02*
X0246000Y0081800D01*
X0246752Y0081681D02*
X0256573Y0081681D01*
X0256819Y0080682D02*
X0251281Y0080682D01*
X0253241Y0079684D02*
X0257019Y0079684D01*
X0257616Y0078685D02*
X0254868Y0078685D01*
X0255867Y0077687D02*
X0259203Y0077687D01*
X0260797Y0077687D02*
X0263200Y0077687D01*
X0263200Y0078685D02*
X0262384Y0078685D01*
X0263200Y0076688D02*
X0256865Y0076688D01*
X0257731Y0075823D02*
X0257731Y0075823D01*
X0257799Y0075690D02*
X0263200Y0075690D01*
X0263200Y0074691D02*
X0258307Y0074691D01*
X0258816Y0073693D02*
X0263200Y0073693D01*
X0263200Y0072694D02*
X0259325Y0072694D01*
X0259790Y0071781D02*
X0259790Y0071781D01*
X0259804Y0071696D02*
X0263200Y0071696D01*
X0263200Y0070697D02*
X0259962Y0070697D01*
X0260120Y0069699D02*
X0263200Y0069699D01*
X0263200Y0068700D02*
X0260278Y0068700D01*
X0260436Y0067702D02*
X0263200Y0067702D01*
X0263200Y0066703D02*
X0260405Y0066703D01*
X0260247Y0065705D02*
X0263200Y0065705D01*
X0263200Y0064706D02*
X0260089Y0064706D01*
X0259931Y0063708D02*
X0263200Y0063708D01*
X0263200Y0062709D02*
X0259734Y0062709D01*
X0259790Y0062819D02*
X0259790Y0062819D01*
X0259225Y0061711D02*
X0263200Y0061711D01*
X0263200Y0060712D02*
X0258717Y0060712D01*
X0258208Y0059714D02*
X0263200Y0059714D01*
X0263200Y0058715D02*
X0257669Y0058715D01*
X0257731Y0058777D02*
X0257731Y0058777D01*
X0256670Y0057717D02*
X0263200Y0057717D01*
X0263200Y0056718D02*
X0255672Y0056718D01*
X0254673Y0055720D02*
X0263200Y0055720D01*
X0263200Y0054721D02*
X0252858Y0054721D01*
X0250899Y0053723D02*
X0263200Y0053723D01*
X0275000Y0049702D02*
X0277500Y0050202D01*
X0275000Y0049702D02*
X0275000Y0034800D01*
X0272000Y0029800D01*
X0269000Y0019800D01*
X0266000Y0017800D01*
X0259673Y0018300D01*
X0259673Y0013300D02*
X0262173Y0009127D01*
X0263500Y0008800D01*
X0272098Y0008800D01*
X0271687Y0010787D02*
X0263329Y0010787D01*
X0263926Y0011785D02*
X0272651Y0011785D01*
X0270631Y0018775D02*
X0284700Y0018775D01*
X0284700Y0019773D02*
X0270871Y0019773D01*
X0271171Y0020772D02*
X0272651Y0020772D01*
X0272651Y0021770D02*
X0271470Y0021770D01*
X0271770Y0022769D02*
X0272651Y0022769D01*
X0272651Y0023767D02*
X0272069Y0023767D01*
X0272369Y0024766D02*
X0272651Y0024766D01*
X0277500Y0024398D02*
X0277500Y0025800D01*
X0277500Y0024398D02*
X0284000Y0030898D01*
X0284000Y0056800D01*
X0281500Y0059300D01*
X0284000Y0061800D01*
X0284000Y0089300D01*
X0306500Y0089300D01*
X0314000Y0081800D01*
X0314000Y0069300D01*
X0311500Y0066800D01*
X0311500Y0046729D01*
X0306457Y0041686D01*
X0298780Y0041686D02*
X0298780Y0027020D01*
X0299000Y0026800D01*
X0301000Y0026800D01*
X0314000Y0037800D01*
X0314827Y0037800D01*
X0314827Y0032800D02*
X0314000Y0032800D01*
X0302000Y0022800D01*
X0297000Y0022800D01*
X0296220Y0023580D01*
X0296220Y0041686D01*
X0293661Y0041686D02*
X0293661Y0020139D01*
X0295000Y0018800D01*
X0303000Y0018800D01*
X0314000Y0027800D01*
X0314827Y0027800D01*
X0319080Y0021770D02*
X0336920Y0021770D01*
X0337032Y0020772D02*
X0318968Y0020772D01*
X0319023Y0019773D02*
X0336977Y0019773D01*
X0336920Y0018775D02*
X0319080Y0018775D01*
X0341173Y0022800D02*
X0348000Y0022800D01*
X0353000Y0028800D01*
X0356000Y0031800D01*
X0356000Y0064800D01*
X0362000Y0070800D01*
X0362000Y0083202D01*
X0362500Y0083702D01*
X0369000Y0088398D02*
X0369000Y0064300D01*
X0370800Y0071696D02*
X0377483Y0071696D01*
X0377000Y0072694D02*
X0370800Y0072694D01*
X0370800Y0073693D02*
X0377000Y0073693D01*
X0377000Y0074691D02*
X0370800Y0074691D01*
X0370800Y0075690D02*
X0377000Y0075690D01*
X0377000Y0076688D02*
X0370800Y0076688D01*
X0370800Y0077687D02*
X0380500Y0077687D01*
X0380500Y0078685D02*
X0381500Y0078685D01*
X0381500Y0079684D02*
X0380500Y0079684D01*
X0380500Y0080682D02*
X0381500Y0080682D01*
X0381500Y0081681D02*
X0380500Y0081681D01*
X0380500Y0082679D02*
X0381500Y0082679D01*
X0381500Y0083678D02*
X0380500Y0083678D01*
X0377275Y0083678D02*
X0370800Y0083678D01*
X0370800Y0084676D02*
X0384000Y0084676D01*
X0384000Y0085675D02*
X0370800Y0085675D01*
X0370800Y0086673D02*
X0384000Y0086673D01*
X0384000Y0087672D02*
X0370800Y0087672D01*
X0370800Y0088670D02*
X0384000Y0088670D01*
X0384000Y0089669D02*
X0370275Y0089669D01*
X0369276Y0090668D02*
X0384000Y0090668D01*
X0384000Y0091666D02*
X0368278Y0091666D01*
X0367349Y0092665D02*
X0384000Y0092665D01*
X0384000Y0093663D02*
X0367349Y0093663D01*
X0367349Y0094662D02*
X0384000Y0094662D01*
X0384000Y0095660D02*
X0367349Y0095660D01*
X0367349Y0096659D02*
X0384000Y0096659D01*
X0384000Y0097657D02*
X0367804Y0097657D01*
X0368803Y0098656D02*
X0384000Y0098656D01*
X0384000Y0099654D02*
X0369800Y0099654D01*
X0369800Y0100653D02*
X0384000Y0100653D01*
X0384000Y0101651D02*
X0369800Y0101651D01*
X0369800Y0102650D02*
X0384000Y0102650D01*
X0384000Y0103648D02*
X0369800Y0103648D01*
X0369800Y0104647D02*
X0384000Y0104647D01*
X0384000Y0105645D02*
X0369800Y0105645D01*
X0369800Y0106644D02*
X0384000Y0106644D01*
X0384000Y0107642D02*
X0369800Y0107642D01*
X0369800Y0108641D02*
X0384000Y0108641D01*
X0384000Y0109639D02*
X0369800Y0109639D01*
X0369800Y0110638D02*
X0384000Y0110638D01*
X0384000Y0111636D02*
X0369800Y0111636D01*
X0369800Y0112635D02*
X0384000Y0112635D01*
X0384000Y0113633D02*
X0369800Y0113633D01*
X0369800Y0114632D02*
X0384000Y0114632D01*
X0384000Y0115630D02*
X0369800Y0115630D01*
X0369800Y0116629D02*
X0384000Y0116629D01*
X0384000Y0117627D02*
X0369800Y0117627D01*
X0369800Y0118626D02*
X0384000Y0118626D01*
X0384000Y0119624D02*
X0369800Y0119624D01*
X0369800Y0120623D02*
X0384000Y0120623D01*
X0384000Y0121621D02*
X0369800Y0121621D01*
X0369800Y0122620D02*
X0384000Y0122620D01*
X0384000Y0123618D02*
X0369800Y0123618D01*
X0369800Y0124617D02*
X0384000Y0124617D01*
X0384000Y0125615D02*
X0369800Y0125615D01*
X0369800Y0126614D02*
X0384000Y0126614D01*
X0384000Y0127612D02*
X0369733Y0127612D01*
X0368735Y0128611D02*
X0384000Y0128611D01*
X0384000Y0129609D02*
X0367736Y0129609D01*
X0367349Y0130608D02*
X0384000Y0130608D01*
X0384000Y0131606D02*
X0367349Y0131606D01*
X0367331Y0132605D02*
X0384000Y0132605D01*
X0384000Y0133603D02*
X0358800Y0133603D01*
X0359348Y0134602D02*
X0384000Y0134602D01*
X0384000Y0135601D02*
X0360346Y0135601D01*
X0361345Y0136599D02*
X0384000Y0136599D01*
X0384000Y0137598D02*
X0362343Y0137598D01*
X0363342Y0138596D02*
X0384000Y0138596D01*
X0384000Y0139595D02*
X0363800Y0139595D01*
X0363800Y0140593D02*
X0384000Y0140593D01*
X0384000Y0141592D02*
X0363800Y0141592D01*
X0363800Y0142590D02*
X0384000Y0142590D01*
X0384000Y0143589D02*
X0363800Y0143589D01*
X0363800Y0144587D02*
X0384000Y0144587D01*
X0384000Y0145586D02*
X0363800Y0145586D01*
X0363800Y0146584D02*
X0384000Y0146584D01*
X0384000Y0147583D02*
X0363800Y0147583D01*
X0367349Y0148581D02*
X0384000Y0148581D01*
X0384000Y0149580D02*
X0367349Y0149580D01*
X0367349Y0150578D02*
X0384000Y0150578D01*
X0384000Y0151577D02*
X0367349Y0151577D01*
X0367349Y0152575D02*
X0384000Y0152575D01*
X0384000Y0153574D02*
X0367349Y0153574D01*
X0367349Y0154572D02*
X0384000Y0154572D01*
X0384000Y0155571D02*
X0367349Y0155571D01*
X0366670Y0156569D02*
X0384000Y0156569D01*
X0384000Y0157568D02*
X0357800Y0157568D01*
X0357800Y0158566D02*
X0384000Y0158566D01*
X0384000Y0159565D02*
X0367204Y0159565D01*
X0367349Y0160563D02*
X0384000Y0160563D01*
X0384000Y0161562D02*
X0367349Y0161562D01*
X0367349Y0162560D02*
X0384000Y0162560D01*
X0384000Y0163559D02*
X0367349Y0163559D01*
X0367349Y0164557D02*
X0384000Y0164557D01*
X0384000Y0165556D02*
X0367349Y0165556D01*
X0367349Y0166554D02*
X0384000Y0166554D01*
X0384000Y0167553D02*
X0366883Y0167553D01*
X0362291Y0172545D02*
X0384000Y0172545D01*
X0384000Y0171547D02*
X0361293Y0171547D01*
X0360294Y0170548D02*
X0384000Y0170548D01*
X0384000Y0169550D02*
X0359295Y0169550D01*
X0358297Y0168551D02*
X0384000Y0168551D01*
X0384000Y0173544D02*
X0363290Y0173544D01*
X0363800Y0174542D02*
X0384000Y0174542D01*
X0384000Y0175541D02*
X0363800Y0175541D01*
X0363800Y0176539D02*
X0384000Y0176539D01*
X0384000Y0177538D02*
X0363800Y0177538D01*
X0366872Y0178537D02*
X0384000Y0178537D01*
X0384000Y0179535D02*
X0367349Y0179535D01*
X0367349Y0180534D02*
X0384000Y0180534D01*
X0384000Y0181532D02*
X0367349Y0181532D01*
X0367349Y0182531D02*
X0384000Y0182531D01*
X0384000Y0183529D02*
X0367349Y0183529D01*
X0367349Y0184528D02*
X0384000Y0184528D01*
X0384000Y0185526D02*
X0367349Y0185526D01*
X0367214Y0186525D02*
X0384000Y0186525D01*
X0384000Y0187523D02*
X0294633Y0187523D01*
X0294110Y0187000D02*
X0297800Y0190690D01*
X0297800Y0195910D01*
X0294110Y0199600D01*
X0288890Y0199600D01*
X0285200Y0195910D01*
X0285200Y0190690D01*
X0288890Y0187000D01*
X0294110Y0187000D01*
X0295631Y0188522D02*
X0384000Y0188522D01*
X0384000Y0189520D02*
X0366659Y0189520D01*
X0366588Y0189449D02*
X0367349Y0190210D01*
X0367349Y0197587D01*
X0366588Y0198348D01*
X0358412Y0198348D01*
X0357651Y0197587D01*
X0357651Y0190210D01*
X0358412Y0189449D01*
X0366588Y0189449D01*
X0367349Y0190519D02*
X0384000Y0190519D01*
X0384000Y0191517D02*
X0367349Y0191517D01*
X0367349Y0192516D02*
X0384000Y0192516D01*
X0384000Y0193514D02*
X0367349Y0193514D01*
X0367349Y0194513D02*
X0384000Y0194513D01*
X0384000Y0195511D02*
X0367349Y0195511D01*
X0367349Y0196510D02*
X0384000Y0196510D01*
X0384000Y0197508D02*
X0367349Y0197508D01*
X0357651Y0197508D02*
X0296201Y0197508D01*
X0295203Y0198507D02*
X0384000Y0198507D01*
X0384000Y0199505D02*
X0294204Y0199505D01*
X0297200Y0196510D02*
X0357651Y0196510D01*
X0357651Y0195511D02*
X0297800Y0195511D01*
X0297800Y0194513D02*
X0357651Y0194513D01*
X0357651Y0193514D02*
X0297800Y0193514D01*
X0297800Y0192516D02*
X0357651Y0192516D01*
X0357651Y0191517D02*
X0297800Y0191517D01*
X0297628Y0190519D02*
X0357651Y0190519D01*
X0358341Y0189520D02*
X0296630Y0189520D01*
X0288367Y0187523D02*
X0282349Y0187523D01*
X0282349Y0187210D02*
X0282349Y0194587D01*
X0281588Y0195348D01*
X0273412Y0195348D01*
X0272651Y0194587D01*
X0272651Y0187210D01*
X0273412Y0186449D01*
X0281588Y0186449D01*
X0282349Y0187210D01*
X0281663Y0186525D02*
X0357786Y0186525D01*
X0357651Y0185526D02*
X0210136Y0185526D01*
X0211134Y0186525D02*
X0273337Y0186525D01*
X0272651Y0187523D02*
X0212133Y0187523D01*
X0212800Y0188190D02*
X0209110Y0184500D01*
X0203890Y0184500D01*
X0200200Y0188190D01*
X0200200Y0193410D01*
X0203890Y0197100D01*
X0209110Y0197100D01*
X0212800Y0193410D01*
X0212800Y0188190D01*
X0212800Y0188522D02*
X0272651Y0188522D01*
X0272651Y0189520D02*
X0212800Y0189520D01*
X0212800Y0190519D02*
X0272651Y0190519D01*
X0272651Y0191517D02*
X0212800Y0191517D01*
X0212800Y0192516D02*
X0272651Y0192516D01*
X0272651Y0193514D02*
X0212695Y0193514D01*
X0211697Y0194513D02*
X0272651Y0194513D01*
X0282349Y0194513D02*
X0285200Y0194513D01*
X0285200Y0195511D02*
X0210698Y0195511D01*
X0209700Y0196510D02*
X0285800Y0196510D01*
X0286799Y0197508D02*
X0016000Y0197508D01*
X0016000Y0196510D02*
X0203300Y0196510D01*
X0202302Y0195511D02*
X0016000Y0195511D01*
X0016000Y0194513D02*
X0016303Y0194513D01*
X0016000Y0198507D02*
X0287797Y0198507D01*
X0288796Y0199505D02*
X0016000Y0199505D01*
X0016000Y0200504D02*
X0384000Y0200504D01*
X0384000Y0201502D02*
X0016000Y0201502D01*
X0021697Y0194513D02*
X0111303Y0194513D01*
X0111390Y0194600D02*
X0107700Y0190910D01*
X0107700Y0185690D01*
X0111390Y0182000D01*
X0116610Y0182000D01*
X0120300Y0185690D01*
X0120300Y0190910D01*
X0116610Y0194600D01*
X0111390Y0194600D01*
X0110305Y0193514D02*
X0022695Y0193514D01*
X0023694Y0192516D02*
X0109306Y0192516D01*
X0108308Y0191517D02*
X0024692Y0191517D01*
X0025300Y0190519D02*
X0107700Y0190519D01*
X0107700Y0189520D02*
X0025300Y0189520D01*
X0025300Y0188522D02*
X0087086Y0188522D01*
X0086651Y0187523D02*
X0025300Y0187523D01*
X0025300Y0186525D02*
X0086651Y0186525D01*
X0086651Y0185526D02*
X0025136Y0185526D01*
X0024137Y0184528D02*
X0086651Y0184528D01*
X0086651Y0183529D02*
X0023139Y0183529D01*
X0022140Y0182531D02*
X0086651Y0182531D01*
X0086651Y0181532D02*
X0016000Y0181532D01*
X0016000Y0180534D02*
X0086828Y0180534D01*
X0087299Y0177538D02*
X0016000Y0177538D01*
X0016000Y0178537D02*
X0095200Y0178537D01*
X0095200Y0179535D02*
X0016000Y0179535D01*
X0016000Y0176539D02*
X0086651Y0176539D01*
X0086651Y0175541D02*
X0016000Y0175541D01*
X0016000Y0174542D02*
X0086651Y0174542D01*
X0086651Y0173544D02*
X0016000Y0173544D01*
X0016000Y0172545D02*
X0086651Y0172545D01*
X0086651Y0171547D02*
X0016000Y0171547D01*
X0016000Y0170548D02*
X0086651Y0170548D01*
X0086651Y0169550D02*
X0016000Y0169550D01*
X0016000Y0168551D02*
X0089700Y0168551D01*
X0089700Y0167553D02*
X0016000Y0167553D01*
X0016000Y0166554D02*
X0089700Y0166554D01*
X0091500Y0165300D02*
X0086000Y0162800D01*
X0086000Y0136300D01*
X0084000Y0133800D01*
X0084000Y0110800D01*
X0079000Y0105800D01*
X0079000Y0077800D01*
X0080000Y0076800D01*
X0080000Y0045800D01*
X0075173Y0043300D01*
X0070920Y0043737D02*
X0053080Y0043737D01*
X0053080Y0042739D02*
X0070920Y0042739D01*
X0070920Y0041740D02*
X0053080Y0041740D01*
X0053080Y0041384D02*
X0053080Y0045216D01*
X0052496Y0045800D01*
X0053080Y0046384D01*
X0053080Y0050216D01*
X0052318Y0050978D01*
X0045336Y0050978D01*
X0044695Y0050337D01*
X0043080Y0054164D01*
X0043080Y0055531D01*
X0044968Y0055531D01*
X0045118Y0055682D01*
X0045269Y0055531D01*
X0047527Y0055531D01*
X0047677Y0055682D01*
X0047828Y0055531D01*
X0050086Y0055531D01*
X0050437Y0055883D01*
X0050803Y0054998D01*
X0051698Y0054103D01*
X0052867Y0053619D01*
X0054133Y0053619D01*
X0055302Y0054103D01*
X0056197Y0054998D01*
X0056681Y0056167D01*
X0056681Y0057433D01*
X0056197Y0058602D01*
X0056180Y0058619D01*
X0056633Y0058619D01*
X0057802Y0059103D01*
X0057833Y0059134D01*
X0058303Y0057998D01*
X0059198Y0057103D01*
X0060367Y0056619D01*
X0061633Y0056619D01*
X0061951Y0056751D01*
X0061819Y0056433D01*
X0061819Y0055167D01*
X0062303Y0053998D01*
X0063198Y0053103D01*
X0064367Y0052619D01*
X0065633Y0052619D01*
X0066802Y0053103D01*
X0067697Y0053998D01*
X0068181Y0055167D01*
X0068181Y0056433D01*
X0067697Y0057602D01*
X0066802Y0058497D01*
X0066800Y0058498D01*
X0066800Y0062718D01*
X0066860Y0063380D01*
X0066800Y0063452D01*
X0066800Y0063546D01*
X0066330Y0064015D01*
X0061800Y0069452D01*
X0061800Y0081001D01*
X0062198Y0080603D01*
X0063367Y0080119D01*
X0064633Y0080119D01*
X0065802Y0080603D01*
X0066697Y0081498D01*
X0067181Y0082667D01*
X0067181Y0083933D01*
X0066697Y0085102D01*
X0065802Y0085997D01*
X0064633Y0086481D01*
X0063800Y0086481D01*
X0063800Y0092546D01*
X0062746Y0093600D01*
X0056746Y0099600D01*
X0042254Y0099600D01*
X0041200Y0098546D01*
X0034200Y0091546D01*
X0034200Y0089146D01*
X0033300Y0090046D01*
X0032246Y0091100D01*
X0028254Y0091100D01*
X0025754Y0088600D01*
X0024700Y0087546D01*
X0024700Y0028554D01*
X0027200Y0026054D01*
X0028254Y0025000D01*
X0035754Y0025000D01*
X0043200Y0017554D01*
X0044254Y0016500D01*
X0044574Y0016500D01*
X0044574Y0016384D01*
X0045336Y0015622D01*
X0052318Y0015622D01*
X0053080Y0016384D01*
X0053080Y0020216D01*
X0052496Y0020800D01*
X0053080Y0021384D01*
X0053080Y0025216D01*
X0052496Y0025800D01*
X0053080Y0026384D01*
X0053080Y0030216D01*
X0052496Y0030800D01*
X0053080Y0031384D01*
X0053080Y0035216D01*
X0052496Y0035800D01*
X0053080Y0036384D01*
X0053080Y0040216D01*
X0052496Y0040800D01*
X0053080Y0041384D01*
X0052554Y0040742D02*
X0071446Y0040742D01*
X0070920Y0039743D02*
X0053080Y0039743D01*
X0053080Y0038745D02*
X0070920Y0038745D01*
X0070920Y0037746D02*
X0053080Y0037746D01*
X0053080Y0036748D02*
X0070920Y0036748D01*
X0071453Y0035749D02*
X0052547Y0035749D01*
X0053080Y0034751D02*
X0070920Y0034751D01*
X0070920Y0033752D02*
X0053080Y0033752D01*
X0053080Y0032754D02*
X0070920Y0032754D01*
X0070920Y0031755D02*
X0053080Y0031755D01*
X0052539Y0030757D02*
X0071461Y0030757D01*
X0070920Y0029758D02*
X0053080Y0029758D01*
X0053080Y0028760D02*
X0070920Y0028760D01*
X0070920Y0027761D02*
X0053080Y0027761D01*
X0053080Y0026763D02*
X0070920Y0026763D01*
X0071468Y0025764D02*
X0052532Y0025764D01*
X0053080Y0024766D02*
X0070920Y0024766D01*
X0070920Y0023767D02*
X0053080Y0023767D01*
X0053080Y0022769D02*
X0070920Y0022769D01*
X0070920Y0021770D02*
X0053080Y0021770D01*
X0052524Y0020772D02*
X0071476Y0020772D01*
X0070920Y0019773D02*
X0053080Y0019773D01*
X0053080Y0018775D02*
X0070920Y0018775D01*
X0070920Y0017776D02*
X0053080Y0017776D01*
X0053080Y0016778D02*
X0070920Y0016778D01*
X0071525Y0015779D02*
X0052475Y0015779D01*
X0048827Y0017800D02*
X0048827Y0018300D01*
X0045000Y0018300D01*
X0036500Y0026800D01*
X0029000Y0026800D01*
X0026500Y0029300D01*
X0026500Y0086800D01*
X0029000Y0089300D01*
X0031500Y0089300D01*
X0033602Y0087198D01*
X0033602Y0082914D01*
X0036000Y0083076D02*
X0036000Y0090800D01*
X0043000Y0097800D01*
X0056000Y0097800D01*
X0062000Y0091800D01*
X0062000Y0084800D01*
X0063000Y0083300D01*
X0064000Y0083300D01*
X0066873Y0084676D02*
X0077200Y0084676D01*
X0077200Y0083678D02*
X0067181Y0083678D01*
X0067181Y0082679D02*
X0077200Y0082679D01*
X0077200Y0081681D02*
X0066773Y0081681D01*
X0065881Y0080682D02*
X0077200Y0080682D01*
X0077200Y0079684D02*
X0061800Y0079684D01*
X0061800Y0080682D02*
X0062119Y0080682D01*
X0061800Y0078685D02*
X0077200Y0078685D01*
X0077200Y0077687D02*
X0061800Y0077687D01*
X0061800Y0076688D02*
X0077566Y0076688D01*
X0078200Y0075690D02*
X0061800Y0075690D01*
X0061800Y0074691D02*
X0078200Y0074691D01*
X0078200Y0073693D02*
X0061800Y0073693D01*
X0061800Y0072694D02*
X0078200Y0072694D01*
X0078200Y0071696D02*
X0061800Y0071696D01*
X0061800Y0070697D02*
X0078200Y0070697D01*
X0078200Y0069699D02*
X0061800Y0069699D01*
X0062426Y0068700D02*
X0078200Y0068700D01*
X0078200Y0067702D02*
X0063258Y0067702D01*
X0064090Y0066703D02*
X0078200Y0066703D01*
X0078200Y0065705D02*
X0064922Y0065705D01*
X0065755Y0064706D02*
X0078200Y0064706D01*
X0078200Y0063708D02*
X0066638Y0063708D01*
X0066800Y0062709D02*
X0078200Y0062709D01*
X0078200Y0061711D02*
X0066800Y0061711D01*
X0066800Y0060712D02*
X0078200Y0060712D01*
X0078200Y0059714D02*
X0066800Y0059714D01*
X0066800Y0058715D02*
X0078200Y0058715D01*
X0078200Y0057717D02*
X0067582Y0057717D01*
X0068063Y0056718D02*
X0078200Y0056718D01*
X0078200Y0055720D02*
X0068181Y0055720D01*
X0067996Y0054721D02*
X0078200Y0054721D01*
X0078200Y0053723D02*
X0067421Y0053723D01*
X0065887Y0052724D02*
X0078200Y0052724D01*
X0078200Y0051726D02*
X0044109Y0051726D01*
X0043687Y0052724D02*
X0064113Y0052724D01*
X0062579Y0053723D02*
X0054383Y0053723D01*
X0052617Y0053723D02*
X0043266Y0053723D01*
X0043080Y0054721D02*
X0051080Y0054721D01*
X0050504Y0055720D02*
X0050274Y0055720D01*
X0053500Y0056800D02*
X0050614Y0059686D01*
X0048957Y0059686D01*
X0056000Y0061800D02*
X0056000Y0088800D01*
X0053000Y0091800D01*
X0046000Y0091800D01*
X0043839Y0089639D01*
X0043839Y0082914D01*
X0046398Y0082914D02*
X0047000Y0087800D01*
X0048500Y0089300D01*
X0051500Y0089300D01*
X0052000Y0088800D01*
X0052500Y0082800D01*
X0041280Y0082914D02*
X0041280Y0090080D01*
X0045000Y0093800D01*
X0054000Y0093800D01*
X0058000Y0089800D01*
X0058000Y0065800D01*
X0061000Y0059800D01*
X0058006Y0058715D02*
X0056865Y0058715D01*
X0056564Y0057717D02*
X0058585Y0057717D01*
X0060128Y0056718D02*
X0056681Y0056718D01*
X0056496Y0055720D02*
X0061819Y0055720D01*
X0061872Y0056718D02*
X0061937Y0056718D01*
X0062004Y0054721D02*
X0055920Y0054721D01*
X0052569Y0050727D02*
X0071431Y0050727D01*
X0070920Y0049729D02*
X0053080Y0049729D01*
X0053080Y0048730D02*
X0070920Y0048730D01*
X0070920Y0047732D02*
X0053080Y0047732D01*
X0053080Y0046733D02*
X0070920Y0046733D01*
X0071439Y0045734D02*
X0052561Y0045734D01*
X0053080Y0044736D02*
X0070920Y0044736D01*
X0075173Y0038300D02*
X0082000Y0040800D01*
X0082000Y0105800D01*
X0086000Y0109800D01*
X0086000Y0131800D01*
X0091500Y0134300D01*
X0091500Y0146202D01*
X0098800Y0146584D02*
X0155409Y0146584D01*
X0154296Y0145586D02*
X0139088Y0145586D01*
X0140203Y0144587D02*
X0153883Y0144587D01*
X0153819Y0143589D02*
X0146102Y0143589D01*
X0149199Y0139595D02*
X0135668Y0139595D01*
X0135650Y0139599D02*
X0133000Y0139599D01*
X0133000Y0136040D01*
X0136953Y0136040D01*
X0136953Y0138297D01*
X0136851Y0138678D01*
X0136653Y0139020D01*
X0136374Y0139299D01*
X0136032Y0139497D01*
X0135650Y0139599D01*
X0135208Y0140593D02*
X0126953Y0140593D01*
X0126953Y0141297D02*
X0126953Y0139040D01*
X0123000Y0139040D01*
X0123000Y0138040D01*
X0126953Y0138040D01*
X0126953Y0135784D01*
X0126851Y0135402D01*
X0126653Y0135060D01*
X0126374Y0134781D01*
X0126219Y0134691D01*
X0126753Y0134157D01*
X0126753Y0131663D01*
X0128292Y0131202D01*
X0128781Y0131691D01*
X0128626Y0131781D01*
X0128347Y0132060D01*
X0128149Y0132402D01*
X0128047Y0132784D01*
X0128047Y0135040D01*
X0132000Y0135040D01*
X0132000Y0136040D01*
X0128047Y0136040D01*
X0128047Y0138297D01*
X0128149Y0138678D01*
X0128347Y0139020D01*
X0128626Y0139299D01*
X0128968Y0139497D01*
X0129350Y0139599D01*
X0132000Y0139599D01*
X0132000Y0136040D01*
X0133000Y0136040D01*
X0133000Y0135040D01*
X0136953Y0135040D01*
X0136953Y0132784D01*
X0136851Y0132402D01*
X0136653Y0132060D01*
X0136374Y0131781D01*
X0136219Y0131691D01*
X0136751Y0131159D01*
X0138971Y0131800D01*
X0139303Y0132602D01*
X0140198Y0133497D01*
X0141367Y0133981D01*
X0142633Y0133981D01*
X0143802Y0133497D01*
X0144697Y0132602D01*
X0144698Y0132600D01*
X0146802Y0132600D01*
X0146803Y0132602D01*
X0147698Y0133497D01*
X0148867Y0133981D01*
X0150133Y0133981D01*
X0151302Y0133497D01*
X0152197Y0132602D01*
X0152681Y0131433D01*
X0152681Y0130167D01*
X0152197Y0128998D01*
X0151302Y0128103D01*
X0150133Y0127619D01*
X0148867Y0127619D01*
X0147698Y0128103D01*
X0146803Y0128998D01*
X0146802Y0129000D01*
X0144698Y0129000D01*
X0144697Y0128998D01*
X0144294Y0128595D01*
X0144541Y0127399D01*
X0146991Y0127399D01*
X0147753Y0126638D01*
X0147753Y0120443D01*
X0147219Y0119909D01*
X0147374Y0119819D01*
X0147653Y0119540D01*
X0147851Y0119198D01*
X0147953Y0118816D01*
X0147953Y0116560D01*
X0144000Y0116560D01*
X0144000Y0115560D01*
X0147953Y0115560D01*
X0147953Y0113303D01*
X0147851Y0112922D01*
X0147653Y0112580D01*
X0147374Y0112300D01*
X0147032Y0112103D01*
X0146650Y0112001D01*
X0144000Y0112001D01*
X0144000Y0115560D01*
X0143000Y0115560D01*
X0139047Y0115560D01*
X0139047Y0113303D01*
X0139149Y0112922D01*
X0139347Y0112580D01*
X0139626Y0112300D01*
X0139968Y0112103D01*
X0140350Y0112001D01*
X0143000Y0112001D01*
X0143000Y0115560D01*
X0143000Y0116560D01*
X0139047Y0116560D01*
X0139047Y0118816D01*
X0139149Y0119198D01*
X0139347Y0119540D01*
X0139626Y0119819D01*
X0139781Y0119909D01*
X0139247Y0120443D01*
X0139247Y0126638D01*
X0140009Y0127399D01*
X0140865Y0127399D01*
X0140768Y0127867D01*
X0140198Y0128103D01*
X0139962Y0128339D01*
X0136753Y0127413D01*
X0136753Y0124962D01*
X0135991Y0124201D01*
X0134300Y0124201D01*
X0134300Y0122399D01*
X0135991Y0122399D01*
X0136753Y0121638D01*
X0136753Y0115443D01*
X0136219Y0114909D01*
X0136374Y0114819D01*
X0136653Y0114540D01*
X0136851Y0114198D01*
X0136953Y0113816D01*
X0136953Y0111560D01*
X0133000Y0111560D01*
X0133000Y0110560D01*
X0136953Y0110560D01*
X0136953Y0108303D01*
X0136851Y0107922D01*
X0136653Y0107580D01*
X0136374Y0107300D01*
X0136032Y0107103D01*
X0135650Y0107001D01*
X0133000Y0107001D01*
X0133000Y0110560D01*
X0132000Y0110560D01*
X0128047Y0110560D01*
X0128047Y0108303D01*
X0128149Y0107922D01*
X0128347Y0107580D01*
X0128626Y0107300D01*
X0128968Y0107103D01*
X0129350Y0107001D01*
X0132000Y0107001D01*
X0132000Y0110560D01*
X0132000Y0111560D01*
X0128047Y0111560D01*
X0128047Y0113816D01*
X0128149Y0114198D01*
X0128347Y0114540D01*
X0128626Y0114819D01*
X0128781Y0114909D01*
X0128247Y0115443D01*
X0128247Y0117937D01*
X0126708Y0118398D01*
X0126219Y0117909D01*
X0126374Y0117819D01*
X0126653Y0117540D01*
X0126851Y0117198D01*
X0126953Y0116816D01*
X0126953Y0114560D01*
X0123000Y0114560D01*
X0123000Y0113560D01*
X0126953Y0113560D01*
X0126953Y0111303D01*
X0126851Y0110922D01*
X0126653Y0110580D01*
X0126374Y0110300D01*
X0126032Y0110103D01*
X0125650Y0110001D01*
X0123000Y0110001D01*
X0123000Y0113560D01*
X0122000Y0113560D01*
X0118047Y0113560D01*
X0118047Y0111303D01*
X0118149Y0110922D01*
X0118347Y0110580D01*
X0118626Y0110300D01*
X0118968Y0110103D01*
X0119350Y0110001D01*
X0122000Y0110001D01*
X0122000Y0113560D01*
X0122000Y0114560D01*
X0118047Y0114560D01*
X0118047Y0116816D01*
X0118149Y0117198D01*
X0118347Y0117540D01*
X0118626Y0117819D01*
X0118781Y0117909D01*
X0118247Y0118443D01*
X0118247Y0124638D01*
X0119009Y0125399D01*
X0120700Y0125399D01*
X0120700Y0127201D01*
X0119009Y0127201D01*
X0118247Y0127962D01*
X0118247Y0134157D01*
X0118781Y0134691D01*
X0118626Y0134781D01*
X0118347Y0135060D01*
X0118149Y0135402D01*
X0118047Y0135784D01*
X0118047Y0138040D01*
X0122000Y0138040D01*
X0122000Y0139040D01*
X0118047Y0139040D01*
X0118047Y0141297D01*
X0118149Y0141678D01*
X0118347Y0142020D01*
X0118626Y0142299D01*
X0118968Y0142497D01*
X0119350Y0142599D01*
X0122000Y0142599D01*
X0122000Y0139040D01*
X0123000Y0139040D01*
X0123000Y0142599D01*
X0125650Y0142599D01*
X0126032Y0142497D01*
X0126374Y0142299D01*
X0126653Y0142020D01*
X0126851Y0141678D01*
X0126953Y0141297D01*
X0126874Y0141592D02*
X0134557Y0141592D01*
X0134319Y0142590D02*
X0125684Y0142590D01*
X0123000Y0142590D02*
X0122000Y0142590D01*
X0122000Y0141592D02*
X0123000Y0141592D01*
X0123000Y0140593D02*
X0122000Y0140593D01*
X0122000Y0139595D02*
X0123000Y0139595D01*
X0122500Y0138800D02*
X0122500Y0138540D01*
X0132500Y0135540D01*
X0138500Y0135540D01*
X0145500Y0135800D01*
X0153500Y0133300D01*
X0153500Y0117540D01*
X0148500Y0106540D01*
X0149000Y0106644D02*
X0154050Y0106644D01*
X0154050Y0107642D02*
X0153150Y0107642D01*
X0153150Y0108641D02*
X0154050Y0108641D01*
X0154052Y0109639D02*
X0153058Y0109639D01*
X0156700Y0110638D02*
X0133000Y0110638D01*
X0132500Y0111060D02*
X0122500Y0114060D01*
X0116500Y0117560D01*
X0116500Y0135800D01*
X0122500Y0138800D01*
X0123000Y0138596D02*
X0128127Y0138596D01*
X0128047Y0137598D02*
X0126953Y0137598D01*
X0126953Y0136599D02*
X0128047Y0136599D01*
X0126904Y0135601D02*
X0132000Y0135601D01*
X0132000Y0136599D02*
X0133000Y0136599D01*
X0133000Y0135601D02*
X0156700Y0135601D01*
X0156700Y0136599D02*
X0136953Y0136599D01*
X0136953Y0137598D02*
X0156700Y0137598D01*
X0156700Y0138596D02*
X0136873Y0138596D01*
X0139792Y0140593D02*
X0140811Y0140593D01*
X0137500Y0142800D02*
X0158500Y0140300D01*
X0162500Y0143800D01*
X0165500Y0146800D01*
X0176500Y0164300D01*
X0189000Y0164300D01*
X0199000Y0154300D01*
X0221500Y0154300D01*
X0226000Y0163800D01*
X0226000Y0162800D01*
X0230300Y0162560D02*
X0237200Y0162560D01*
X0237200Y0161562D02*
X0230300Y0161562D01*
X0229844Y0160563D02*
X0237200Y0160563D01*
X0237200Y0159565D02*
X0228846Y0159565D01*
X0227847Y0158566D02*
X0237200Y0158566D01*
X0237200Y0157568D02*
X0225040Y0157568D01*
X0224567Y0156569D02*
X0236224Y0156569D01*
X0235225Y0155571D02*
X0224094Y0155571D01*
X0223621Y0154572D02*
X0234227Y0154572D01*
X0234000Y0151800D02*
X0196500Y0151800D01*
X0196500Y0139898D01*
X0184000Y0127398D01*
X0188402Y0127398D01*
X0189000Y0126800D01*
X0189000Y0094800D01*
X0188598Y0094398D01*
X0184000Y0094398D01*
X0184402Y0094800D01*
X0189000Y0094800D02*
X0189000Y0092300D01*
X0190000Y0091300D01*
X0190000Y0073800D01*
X0185000Y0073800D01*
X0190000Y0073800D02*
X0190000Y0062800D01*
X0188098Y0060898D01*
X0184000Y0060898D01*
X0179000Y0066800D02*
X0181000Y0068800D01*
X0181000Y0077800D01*
X0184000Y0080800D01*
X0184000Y0083202D01*
X0191800Y0087672D02*
X0263200Y0087672D01*
X0263200Y0088670D02*
X0191800Y0088670D01*
X0191800Y0089669D02*
X0263200Y0089669D01*
X0263200Y0090668D02*
X0191800Y0090668D01*
X0191800Y0091666D02*
X0263200Y0091666D01*
X0263200Y0092665D02*
X0191181Y0092665D01*
X0194362Y0093663D02*
X0263200Y0093663D01*
X0263200Y0094662D02*
X0210907Y0094662D01*
X0211906Y0095660D02*
X0263200Y0095660D01*
X0263200Y0096659D02*
X0212904Y0096659D01*
X0213903Y0097657D02*
X0263200Y0097657D01*
X0263200Y0098656D02*
X0214901Y0098656D01*
X0215900Y0099654D02*
X0263200Y0099654D01*
X0263200Y0100653D02*
X0216898Y0100653D01*
X0217897Y0101651D02*
X0263200Y0101651D01*
X0263200Y0102650D02*
X0218895Y0102650D01*
X0219894Y0103648D02*
X0263200Y0103648D01*
X0263301Y0104647D02*
X0220892Y0104647D01*
X0221891Y0105645D02*
X0264300Y0105645D01*
X0265298Y0106644D02*
X0222889Y0106644D01*
X0223888Y0107642D02*
X0266200Y0107642D01*
X0266200Y0108641D02*
X0224886Y0108641D01*
X0225885Y0109639D02*
X0266200Y0109639D01*
X0266200Y0110638D02*
X0226883Y0110638D01*
X0227882Y0111636D02*
X0266200Y0111636D01*
X0266200Y0112635D02*
X0228880Y0112635D01*
X0229879Y0113633D02*
X0266200Y0113633D01*
X0266200Y0114632D02*
X0230877Y0114632D01*
X0231876Y0115630D02*
X0266200Y0115630D01*
X0266200Y0116629D02*
X0232874Y0116629D01*
X0233873Y0117627D02*
X0266200Y0117627D01*
X0266200Y0118626D02*
X0234871Y0118626D01*
X0235870Y0119624D02*
X0266200Y0119624D01*
X0266200Y0120623D02*
X0236868Y0120623D01*
X0237867Y0121621D02*
X0266200Y0121621D01*
X0266200Y0122620D02*
X0238865Y0122620D01*
X0239864Y0123618D02*
X0266200Y0123618D01*
X0266200Y0124617D02*
X0240862Y0124617D01*
X0241861Y0125615D02*
X0266200Y0125615D01*
X0266200Y0126614D02*
X0242859Y0126614D01*
X0243858Y0127612D02*
X0266200Y0127612D01*
X0266200Y0128611D02*
X0244857Y0128611D01*
X0245855Y0129609D02*
X0266200Y0129609D01*
X0266200Y0130608D02*
X0246854Y0130608D01*
X0247852Y0131606D02*
X0266200Y0131606D01*
X0266200Y0132605D02*
X0248851Y0132605D01*
X0249849Y0133603D02*
X0266200Y0133603D01*
X0266200Y0134602D02*
X0250848Y0134602D01*
X0251846Y0135601D02*
X0266200Y0135601D01*
X0266200Y0136599D02*
X0252845Y0136599D01*
X0253843Y0137598D02*
X0266200Y0137598D01*
X0266200Y0138596D02*
X0254842Y0138596D01*
X0255840Y0139595D02*
X0266249Y0139595D01*
X0267247Y0140593D02*
X0256839Y0140593D01*
X0257837Y0141592D02*
X0268246Y0141592D01*
X0269200Y0142590D02*
X0258836Y0142590D01*
X0259834Y0143589D02*
X0269200Y0143589D01*
X0269200Y0144587D02*
X0260833Y0144587D01*
X0261831Y0145586D02*
X0269200Y0145586D01*
X0269200Y0146584D02*
X0262830Y0146584D01*
X0263000Y0149300D02*
X0263500Y0149300D01*
X0264000Y0149800D01*
X0263000Y0149300D02*
X0210000Y0096300D01*
X0192500Y0096300D01*
X0194643Y0098656D02*
X0209810Y0098656D01*
X0210809Y0099654D02*
X0190800Y0099654D01*
X0190800Y0100653D02*
X0211807Y0100653D01*
X0212806Y0101651D02*
X0190800Y0101651D01*
X0190800Y0102650D02*
X0213804Y0102650D01*
X0214803Y0103648D02*
X0190800Y0103648D01*
X0190800Y0104647D02*
X0215801Y0104647D01*
X0216800Y0105645D02*
X0190800Y0105645D01*
X0190800Y0106644D02*
X0217798Y0106644D01*
X0218797Y0107642D02*
X0190800Y0107642D01*
X0190800Y0108641D02*
X0219795Y0108641D01*
X0220794Y0109639D02*
X0190800Y0109639D01*
X0190800Y0110638D02*
X0221792Y0110638D01*
X0222791Y0111636D02*
X0190800Y0111636D01*
X0190800Y0112635D02*
X0223789Y0112635D01*
X0224788Y0113633D02*
X0190800Y0113633D01*
X0190800Y0114632D02*
X0225786Y0114632D01*
X0226785Y0115630D02*
X0190800Y0115630D01*
X0190800Y0116629D02*
X0227783Y0116629D01*
X0228782Y0117627D02*
X0190800Y0117627D01*
X0190800Y0118626D02*
X0229780Y0118626D01*
X0230779Y0119624D02*
X0190800Y0119624D01*
X0190800Y0120623D02*
X0231777Y0120623D01*
X0232776Y0121621D02*
X0190800Y0121621D01*
X0190800Y0122620D02*
X0233774Y0122620D01*
X0234773Y0123618D02*
X0190800Y0123618D01*
X0190800Y0124617D02*
X0235771Y0124617D01*
X0236770Y0125615D02*
X0190800Y0125615D01*
X0190800Y0126614D02*
X0237768Y0126614D01*
X0238767Y0127612D02*
X0190733Y0127612D01*
X0189735Y0128611D02*
X0239765Y0128611D01*
X0240764Y0129609D02*
X0188849Y0129609D01*
X0189755Y0130608D02*
X0241762Y0130608D01*
X0242761Y0131606D02*
X0190754Y0131606D01*
X0191752Y0132605D02*
X0243759Y0132605D01*
X0244758Y0133603D02*
X0192751Y0133603D01*
X0193749Y0134602D02*
X0245756Y0134602D01*
X0246755Y0135601D02*
X0194748Y0135601D01*
X0195746Y0136599D02*
X0247753Y0136599D01*
X0248752Y0137598D02*
X0196745Y0137598D01*
X0197743Y0138596D02*
X0249750Y0138596D01*
X0250749Y0139595D02*
X0198300Y0139595D01*
X0198300Y0140593D02*
X0251747Y0140593D01*
X0252746Y0141592D02*
X0198300Y0141592D01*
X0198300Y0142590D02*
X0253745Y0142590D01*
X0254743Y0143589D02*
X0198300Y0143589D01*
X0198300Y0144587D02*
X0255742Y0144587D01*
X0256740Y0145586D02*
X0198300Y0145586D01*
X0198300Y0146584D02*
X0257739Y0146584D01*
X0258737Y0147583D02*
X0198300Y0147583D01*
X0198300Y0148581D02*
X0259736Y0148581D01*
X0260734Y0149580D02*
X0198300Y0149580D01*
X0196500Y0151800D02*
X0188902Y0159398D01*
X0184000Y0159398D01*
X0177000Y0158300D02*
X0177000Y0105300D01*
X0175000Y0102800D01*
X0175000Y0075300D01*
X0173000Y0072800D01*
X0173000Y0043300D01*
X0167173Y0040800D01*
X0163059Y0038745D02*
X0144941Y0038745D01*
X0145050Y0037746D02*
X0162950Y0037746D01*
X0162920Y0036748D02*
X0145080Y0036748D01*
X0145080Y0035749D02*
X0162920Y0035749D01*
X0162920Y0034751D02*
X0145080Y0034751D01*
X0144948Y0033752D02*
X0163052Y0033752D01*
X0162958Y0032754D02*
X0145042Y0032754D01*
X0145080Y0031755D02*
X0162920Y0031755D01*
X0162920Y0030757D02*
X0145080Y0030757D01*
X0145080Y0029758D02*
X0162920Y0029758D01*
X0163044Y0028760D02*
X0144956Y0028760D01*
X0145035Y0027761D02*
X0162965Y0027761D01*
X0162920Y0026763D02*
X0145080Y0026763D01*
X0145080Y0025764D02*
X0162920Y0025764D01*
X0162920Y0024766D02*
X0145080Y0024766D01*
X0144963Y0023767D02*
X0163037Y0023767D01*
X0162973Y0022769D02*
X0145027Y0022769D01*
X0145080Y0021770D02*
X0162920Y0021770D01*
X0162920Y0020772D02*
X0145080Y0020772D01*
X0145080Y0019773D02*
X0162920Y0019773D01*
X0163029Y0018775D02*
X0144971Y0018775D01*
X0145020Y0017776D02*
X0162980Y0017776D01*
X0162920Y0016778D02*
X0145080Y0016778D01*
X0145080Y0015779D02*
X0162920Y0015779D01*
X0162920Y0014781D02*
X0145080Y0014781D01*
X0144978Y0013782D02*
X0163022Y0013782D01*
X0167173Y0015800D02*
X0173000Y0015800D01*
X0178000Y0013300D01*
X0184000Y0013300D01*
X0184000Y0015202D01*
X0188849Y0014781D02*
X0194700Y0014781D01*
X0194700Y0015779D02*
X0188849Y0015779D01*
X0188849Y0016778D02*
X0194700Y0016778D01*
X0194700Y0017776D02*
X0188849Y0017776D01*
X0188849Y0018775D02*
X0194700Y0018775D01*
X0194700Y0019773D02*
X0178106Y0019773D01*
X0178344Y0020772D02*
X0194700Y0020772D01*
X0194700Y0021770D02*
X0178581Y0021770D01*
X0178819Y0022769D02*
X0179151Y0022769D01*
X0179151Y0023767D02*
X0179057Y0023767D01*
X0176500Y0020800D02*
X0179000Y0031300D01*
X0184000Y0033800D01*
X0188179Y0030757D02*
X0194700Y0030757D01*
X0194700Y0029758D02*
X0188849Y0029758D01*
X0188849Y0028760D02*
X0194700Y0028760D01*
X0194700Y0027761D02*
X0188849Y0027761D01*
X0188849Y0026763D02*
X0194700Y0026763D01*
X0194700Y0025764D02*
X0188849Y0025764D01*
X0188849Y0024766D02*
X0194700Y0024766D01*
X0194700Y0023767D02*
X0188849Y0023767D01*
X0188849Y0022769D02*
X0194700Y0022769D01*
X0179151Y0018775D02*
X0171317Y0018775D01*
X0171366Y0017776D02*
X0179151Y0017776D01*
X0179151Y0016778D02*
X0175070Y0016778D01*
X0177067Y0015779D02*
X0179151Y0015779D01*
X0176969Y0011785D02*
X0139031Y0011785D01*
X0140029Y0012784D02*
X0175008Y0012784D01*
X0173011Y0013782D02*
X0171325Y0013782D01*
X0179878Y0010787D02*
X0138032Y0010787D01*
X0136500Y0011800D02*
X0140500Y0015800D01*
X0140827Y0015800D01*
X0140000Y0015800D01*
X0139327Y0019300D02*
X0136500Y0019300D01*
X0131500Y0014300D01*
X0106500Y0014300D01*
X0104849Y0014772D01*
X0101043Y0018577D01*
X0101043Y0028686D01*
X0103602Y0028686D02*
X0103500Y0021686D01*
X0106000Y0017300D01*
X0109000Y0016800D01*
X0129000Y0016800D01*
X0136500Y0024300D01*
X0139327Y0024300D01*
X0140827Y0025800D01*
X0139327Y0029300D02*
X0136500Y0029300D01*
X0126500Y0019300D01*
X0109000Y0019300D01*
X0106500Y0021686D01*
X0106161Y0028686D01*
X0108720Y0028686D02*
X0108500Y0026186D01*
X0108720Y0024580D02*
X0108720Y0028686D01*
X0111280Y0028686D02*
X0111280Y0026020D01*
X0112500Y0024300D01*
X0123500Y0024300D01*
X0131000Y0031800D01*
X0134000Y0036800D01*
X0136500Y0039300D01*
X0139327Y0039300D01*
X0140827Y0040800D01*
X0145080Y0040742D02*
X0162920Y0040742D01*
X0162920Y0041740D02*
X0145080Y0041740D01*
X0145057Y0042739D02*
X0162943Y0042739D01*
X0163067Y0043737D02*
X0144933Y0043737D01*
X0145080Y0044736D02*
X0162920Y0044736D01*
X0162920Y0045734D02*
X0145080Y0045734D01*
X0145080Y0046733D02*
X0162920Y0046733D01*
X0162936Y0047732D02*
X0145064Y0047732D01*
X0136589Y0047732D02*
X0136090Y0047732D01*
X0136421Y0046733D02*
X0136574Y0046733D01*
X0136574Y0045734D02*
X0136421Y0045734D01*
X0136574Y0044736D02*
X0136036Y0044736D01*
X0136720Y0043737D02*
X0135176Y0043737D01*
X0136597Y0042739D02*
X0128300Y0042739D01*
X0128300Y0043737D02*
X0131304Y0043737D01*
X0133240Y0046300D02*
X0127000Y0046300D01*
X0126500Y0044300D01*
X0126500Y0039300D01*
X0123000Y0028300D01*
X0119343Y0028300D01*
X0118957Y0028686D01*
X0120847Y0030757D02*
X0120958Y0030757D01*
X0120847Y0031755D02*
X0122211Y0031755D01*
X0122528Y0032754D02*
X0120172Y0032754D01*
X0117741Y0032754D02*
X0117613Y0032754D01*
X0115182Y0032754D02*
X0115054Y0032754D01*
X0112623Y0032754D02*
X0112495Y0032754D01*
X0110064Y0032754D02*
X0109936Y0032754D01*
X0107505Y0032754D02*
X0107377Y0032754D01*
X0104946Y0032754D02*
X0104818Y0032754D01*
X0102387Y0032754D02*
X0102259Y0032754D01*
X0100800Y0033752D02*
X0122846Y0033752D01*
X0123164Y0034751D02*
X0100800Y0034751D01*
X0100800Y0035749D02*
X0123481Y0035749D01*
X0123799Y0036748D02*
X0100800Y0036748D01*
X0100800Y0037746D02*
X0124117Y0037746D01*
X0124434Y0038745D02*
X0100800Y0038745D01*
X0100800Y0039743D02*
X0124700Y0039743D01*
X0124700Y0040742D02*
X0100800Y0040742D01*
X0100800Y0041740D02*
X0124700Y0041740D01*
X0124700Y0042739D02*
X0100800Y0042739D01*
X0100800Y0043737D02*
X0124700Y0043737D01*
X0124700Y0044736D02*
X0102982Y0044736D01*
X0103300Y0045734D02*
X0125003Y0045734D01*
X0125200Y0046733D02*
X0103113Y0046733D01*
X0102843Y0047732D02*
X0125886Y0047732D01*
X0120847Y0048730D02*
X0131171Y0048730D01*
X0135309Y0048730D02*
X0171200Y0048730D01*
X0171200Y0049729D02*
X0120847Y0049729D01*
X0120847Y0050727D02*
X0171200Y0050727D01*
X0171200Y0051726D02*
X0120847Y0051726D01*
X0120847Y0052724D02*
X0171200Y0052724D01*
X0171200Y0053723D02*
X0120847Y0053723D01*
X0120847Y0054721D02*
X0171200Y0054721D01*
X0171200Y0055720D02*
X0120435Y0055720D01*
X0121917Y0056718D02*
X0171200Y0056718D01*
X0171200Y0057717D02*
X0122494Y0057717D01*
X0122681Y0058715D02*
X0171200Y0058715D01*
X0171200Y0059714D02*
X0122565Y0059714D01*
X0122087Y0060712D02*
X0171200Y0060712D01*
X0171200Y0061711D02*
X0121704Y0061711D01*
X0121837Y0062709D02*
X0171200Y0062709D01*
X0171200Y0063708D02*
X0121970Y0063708D01*
X0122103Y0064706D02*
X0171200Y0064706D01*
X0171200Y0065705D02*
X0122237Y0065705D01*
X0122370Y0066703D02*
X0171200Y0066703D01*
X0171200Y0067702D02*
X0121832Y0067702D01*
X0121366Y0068700D02*
X0171200Y0068700D01*
X0171200Y0069699D02*
X0120900Y0069699D01*
X0120434Y0070697D02*
X0171200Y0070697D01*
X0171200Y0071696D02*
X0119968Y0071696D01*
X0119502Y0072694D02*
X0171200Y0072694D01*
X0171347Y0073693D02*
X0119036Y0073693D01*
X0118614Y0074691D02*
X0172208Y0074691D01*
X0173007Y0075690D02*
X0117294Y0075690D01*
X0117000Y0073800D02*
X0111500Y0076800D01*
X0104000Y0080800D01*
X0100000Y0079800D01*
X0102500Y0077800D02*
X0098500Y0072300D01*
X0091500Y0072800D02*
X0086000Y0067800D01*
X0086000Y0035300D01*
X0084000Y0032800D01*
X0081000Y0028300D01*
X0075173Y0028300D01*
X0075173Y0033300D02*
X0084000Y0037800D01*
X0084000Y0102300D01*
X0091500Y0109800D01*
X0091500Y0115702D01*
X0098800Y0115630D02*
X0118047Y0115630D01*
X0118047Y0114632D02*
X0098800Y0114632D01*
X0098800Y0113633D02*
X0122000Y0113633D01*
X0122000Y0112635D02*
X0123000Y0112635D01*
X0123000Y0113633D02*
X0128047Y0113633D01*
X0128047Y0112635D02*
X0126953Y0112635D01*
X0126953Y0111636D02*
X0128047Y0111636D01*
X0126687Y0110638D02*
X0132000Y0110638D01*
X0132500Y0111060D02*
X0143500Y0116060D01*
X0144000Y0115630D02*
X0156700Y0115630D01*
X0156700Y0114632D02*
X0147953Y0114632D01*
X0147953Y0113633D02*
X0156700Y0113633D01*
X0156700Y0112635D02*
X0147685Y0112635D01*
X0148000Y0110599D02*
X0145153Y0110599D01*
X0144771Y0110497D01*
X0144429Y0110299D01*
X0144150Y0110020D01*
X0143953Y0109678D01*
X0143850Y0109297D01*
X0143850Y0107040D01*
X0148000Y0107040D01*
X0148000Y0110599D01*
X0148000Y0109639D02*
X0149000Y0109639D01*
X0149000Y0108641D02*
X0148000Y0108641D01*
X0148000Y0107642D02*
X0149000Y0107642D01*
X0148000Y0106644D02*
X0126753Y0106644D01*
X0126748Y0107642D02*
X0128311Y0107642D01*
X0128047Y0108641D02*
X0116595Y0108641D01*
X0116681Y0107642D02*
X0118252Y0107642D01*
X0118247Y0106644D02*
X0116625Y0106644D01*
X0115760Y0104800D02*
X0122500Y0104540D01*
X0126753Y0104647D02*
X0128256Y0104647D01*
X0127901Y0103648D02*
X0126753Y0103648D01*
X0126753Y0102650D02*
X0127901Y0102650D01*
X0127901Y0101651D02*
X0126753Y0101651D01*
X0126257Y0100653D02*
X0127901Y0100653D01*
X0127901Y0099654D02*
X0126753Y0099654D01*
X0128020Y0097060D02*
X0122500Y0097060D01*
X0122500Y0093800D01*
X0112500Y0083800D01*
X0099500Y0083800D01*
X0096500Y0086800D01*
X0096500Y0079300D01*
X0094000Y0076800D01*
X0094000Y0062398D01*
X0091500Y0062398D01*
X0094000Y0062398D02*
X0095487Y0062398D01*
X0096500Y0061386D01*
X0096500Y0037300D01*
X0091500Y0032300D01*
X0091500Y0027898D01*
X0096349Y0027761D02*
X0097200Y0027761D01*
X0097200Y0026763D02*
X0096349Y0026763D01*
X0096349Y0025764D02*
X0097200Y0025764D01*
X0097200Y0024766D02*
X0096349Y0024766D01*
X0095906Y0023767D02*
X0097200Y0023767D01*
X0097200Y0022769D02*
X0082800Y0022769D01*
X0083363Y0023767D02*
X0087094Y0023767D01*
X0086651Y0024766D02*
X0083951Y0024766D01*
X0084538Y0025764D02*
X0086651Y0025764D01*
X0086651Y0026763D02*
X0085125Y0026763D01*
X0085713Y0027761D02*
X0086651Y0027761D01*
X0086651Y0028760D02*
X0086300Y0028760D01*
X0086000Y0031800D02*
X0091500Y0036800D01*
X0091500Y0051202D01*
X0101043Y0051914D02*
X0101043Y0046257D01*
X0101500Y0045800D01*
X0103602Y0051914D02*
X0103602Y0054698D01*
X0101500Y0056800D01*
X0099000Y0056800D01*
X0099000Y0014300D01*
X0101500Y0011800D01*
X0136500Y0011800D01*
X0139327Y0019300D02*
X0140827Y0020800D01*
X0139327Y0029300D02*
X0140827Y0030800D01*
X0139327Y0034300D02*
X0136500Y0034300D01*
X0124000Y0021800D01*
X0111500Y0021800D01*
X0108720Y0024580D01*
X0111280Y0027020D02*
X0111280Y0028686D01*
X0097200Y0028760D02*
X0096349Y0028760D01*
X0096349Y0029758D02*
X0097200Y0029758D01*
X0097200Y0030757D02*
X0096349Y0030757D01*
X0096180Y0031755D02*
X0097200Y0031755D01*
X0097200Y0032754D02*
X0094499Y0032754D01*
X0095498Y0033752D02*
X0097200Y0033752D01*
X0097200Y0034751D02*
X0096496Y0034751D01*
X0086000Y0031800D02*
X0081000Y0023300D01*
X0075173Y0023300D01*
X0078871Y0020772D02*
X0087033Y0020772D01*
X0086651Y0019773D02*
X0079426Y0019773D01*
X0079426Y0018775D02*
X0086651Y0018775D01*
X0086651Y0013782D02*
X0016000Y0013782D01*
X0016000Y0012784D02*
X0086881Y0012784D01*
X0091500Y0016300D02*
X0078500Y0016300D01*
X0076000Y0018300D01*
X0075173Y0018300D01*
X0077474Y0014781D02*
X0034562Y0014781D01*
X0034281Y0014500D02*
X0036800Y0017019D01*
X0036800Y0020581D01*
X0034281Y0023100D01*
X0030719Y0023100D01*
X0028200Y0020581D01*
X0028200Y0017019D01*
X0030719Y0014500D01*
X0034281Y0014500D01*
X0035560Y0015779D02*
X0045178Y0015779D01*
X0043977Y0016778D02*
X0036559Y0016778D01*
X0036800Y0017776D02*
X0042978Y0017776D01*
X0041980Y0018775D02*
X0036800Y0018775D01*
X0036800Y0019773D02*
X0040981Y0019773D01*
X0039983Y0020772D02*
X0036609Y0020772D01*
X0035611Y0021770D02*
X0038984Y0021770D01*
X0037986Y0022769D02*
X0034612Y0022769D01*
X0035989Y0024766D02*
X0016000Y0024766D01*
X0016000Y0025764D02*
X0027490Y0025764D01*
X0026492Y0026763D02*
X0016000Y0026763D01*
X0016000Y0027761D02*
X0025493Y0027761D01*
X0024700Y0028760D02*
X0016000Y0028760D01*
X0016000Y0029758D02*
X0024700Y0029758D01*
X0024700Y0030757D02*
X0016000Y0030757D01*
X0016000Y0031755D02*
X0024700Y0031755D01*
X0024700Y0032754D02*
X0016000Y0032754D01*
X0016000Y0033752D02*
X0024700Y0033752D01*
X0024700Y0034751D02*
X0016000Y0034751D01*
X0016000Y0035749D02*
X0024700Y0035749D01*
X0024700Y0036748D02*
X0016000Y0036748D01*
X0016000Y0037746D02*
X0024700Y0037746D01*
X0024700Y0038745D02*
X0016000Y0038745D01*
X0016000Y0039743D02*
X0024700Y0039743D01*
X0024700Y0040742D02*
X0016000Y0040742D01*
X0016000Y0041740D02*
X0024700Y0041740D01*
X0024700Y0042739D02*
X0016000Y0042739D01*
X0016000Y0043737D02*
X0024700Y0043737D01*
X0024700Y0044736D02*
X0016000Y0044736D01*
X0016000Y0045734D02*
X0024700Y0045734D01*
X0024700Y0046733D02*
X0016000Y0046733D01*
X0016000Y0047732D02*
X0024700Y0047732D01*
X0024700Y0048730D02*
X0016000Y0048730D01*
X0016000Y0049729D02*
X0024700Y0049729D01*
X0024700Y0050727D02*
X0016000Y0050727D01*
X0016000Y0051726D02*
X0024700Y0051726D01*
X0024700Y0052724D02*
X0016000Y0052724D01*
X0016000Y0053723D02*
X0024700Y0053723D01*
X0024700Y0054721D02*
X0016000Y0054721D01*
X0016000Y0055720D02*
X0024700Y0055720D01*
X0024700Y0056718D02*
X0016000Y0056718D01*
X0016000Y0057717D02*
X0024700Y0057717D01*
X0024700Y0058715D02*
X0016000Y0058715D01*
X0016000Y0059714D02*
X0024700Y0059714D01*
X0024700Y0060712D02*
X0016000Y0060712D01*
X0016000Y0061711D02*
X0024700Y0061711D01*
X0024700Y0062709D02*
X0016000Y0062709D01*
X0016000Y0063708D02*
X0024700Y0063708D01*
X0024700Y0064706D02*
X0016000Y0064706D01*
X0016000Y0065705D02*
X0024700Y0065705D01*
X0024700Y0066703D02*
X0016000Y0066703D01*
X0016000Y0067702D02*
X0024700Y0067702D01*
X0024700Y0068700D02*
X0016000Y0068700D01*
X0016000Y0069699D02*
X0024700Y0069699D01*
X0024700Y0070697D02*
X0016000Y0070697D01*
X0016000Y0071696D02*
X0024700Y0071696D01*
X0024700Y0072694D02*
X0016000Y0072694D01*
X0016000Y0073300D02*
X0016000Y0073300D01*
X0016000Y0073693D02*
X0017000Y0073693D01*
X0017000Y0073300D02*
X0019197Y0073300D01*
X0019579Y0073402D01*
X0019921Y0073600D01*
X0020200Y0073879D01*
X0020398Y0074221D01*
X0020500Y0074603D01*
X0020500Y0079300D01*
X0017000Y0079300D01*
X0017000Y0073300D01*
X0017000Y0074691D02*
X0016000Y0074691D01*
X0016000Y0075690D02*
X0017000Y0075690D01*
X0017000Y0076688D02*
X0016000Y0076688D01*
X0016000Y0077687D02*
X0017000Y0077687D01*
X0017000Y0078685D02*
X0016000Y0078685D01*
X0016500Y0079800D02*
X0019500Y0079800D01*
X0020500Y0080300D02*
X0017000Y0080300D01*
X0017000Y0086300D01*
X0019197Y0086300D01*
X0019579Y0086198D01*
X0019921Y0086000D01*
X0020200Y0085721D01*
X0020398Y0085379D01*
X0020500Y0084997D01*
X0020500Y0080300D01*
X0020500Y0080682D02*
X0024700Y0080682D01*
X0024700Y0079684D02*
X0017000Y0079684D01*
X0017000Y0080682D02*
X0016000Y0080682D01*
X0016000Y0081681D02*
X0017000Y0081681D01*
X0017000Y0082679D02*
X0016000Y0082679D01*
X0016000Y0083678D02*
X0017000Y0083678D01*
X0017000Y0084676D02*
X0016000Y0084676D01*
X0016000Y0085675D02*
X0017000Y0085675D01*
X0016000Y0086300D02*
X0016000Y0086300D01*
X0016000Y0086673D02*
X0024700Y0086673D01*
X0024700Y0085675D02*
X0020227Y0085675D01*
X0020500Y0084676D02*
X0024700Y0084676D01*
X0024700Y0083678D02*
X0020500Y0083678D01*
X0020500Y0082679D02*
X0024700Y0082679D01*
X0024700Y0081681D02*
X0020500Y0081681D01*
X0020500Y0078685D02*
X0024700Y0078685D01*
X0024700Y0077687D02*
X0020500Y0077687D01*
X0020500Y0076688D02*
X0024700Y0076688D01*
X0024700Y0075690D02*
X0020500Y0075690D01*
X0020500Y0074691D02*
X0024700Y0074691D01*
X0024700Y0073693D02*
X0020014Y0073693D01*
X0031043Y0077757D02*
X0031500Y0077300D01*
X0031043Y0077757D02*
X0031043Y0082914D01*
X0036000Y0083076D02*
X0036161Y0082914D01*
X0038720Y0082914D02*
X0038720Y0090520D01*
X0044000Y0095800D01*
X0055000Y0095800D01*
X0060000Y0090800D01*
X0060000Y0068800D01*
X0065000Y0062800D01*
X0065000Y0055800D01*
X0045085Y0050727D02*
X0044530Y0050727D01*
X0040000Y0050800D02*
X0038720Y0053300D01*
X0038720Y0059686D01*
X0039000Y0059686D01*
X0041280Y0059686D02*
X0041280Y0053800D01*
X0045500Y0043800D01*
X0045500Y0043300D01*
X0048827Y0043300D01*
X0048827Y0038300D02*
X0045000Y0038300D01*
X0040000Y0050800D01*
X0036161Y0052800D02*
X0036161Y0059686D01*
X0036000Y0059686D01*
X0034000Y0059686D02*
X0033602Y0059686D01*
X0033602Y0053300D01*
X0036500Y0045800D01*
X0044000Y0028300D01*
X0048827Y0028300D01*
X0048827Y0027800D01*
X0048827Y0032800D02*
X0048827Y0033300D01*
X0044500Y0033300D01*
X0044500Y0032800D01*
X0036161Y0052800D01*
X0031000Y0052186D02*
X0043500Y0022800D01*
X0048827Y0022800D01*
X0048827Y0023300D01*
X0036987Y0023767D02*
X0016000Y0023767D01*
X0016000Y0022769D02*
X0030388Y0022769D01*
X0029389Y0021770D02*
X0016000Y0021770D01*
X0016000Y0020772D02*
X0028391Y0020772D01*
X0028200Y0019773D02*
X0016000Y0019773D01*
X0016000Y0018775D02*
X0028200Y0018775D01*
X0028200Y0017776D02*
X0016000Y0017776D01*
X0016000Y0016778D02*
X0028441Y0016778D01*
X0029440Y0015779D02*
X0016000Y0015779D01*
X0016000Y0014781D02*
X0030438Y0014781D01*
X0016000Y0011785D02*
X0098969Y0011785D01*
X0097971Y0012784D02*
X0096119Y0012784D01*
X0096349Y0013782D02*
X0097200Y0013782D01*
X0097200Y0014781D02*
X0096349Y0014781D01*
X0096349Y0015779D02*
X0097200Y0015779D01*
X0097200Y0016778D02*
X0096349Y0016778D01*
X0096349Y0017776D02*
X0097200Y0017776D01*
X0097200Y0018775D02*
X0096349Y0018775D01*
X0096349Y0019773D02*
X0097200Y0019773D01*
X0097200Y0020772D02*
X0095967Y0020772D01*
X0097200Y0021770D02*
X0082188Y0021770D01*
X0091500Y0016702D02*
X0091500Y0016300D01*
X0099968Y0010787D02*
X0016000Y0010787D01*
X0016000Y0009788D02*
X0198466Y0009788D01*
X0197468Y0010787D02*
X0188122Y0010787D01*
X0188849Y0011785D02*
X0196469Y0011785D01*
X0195471Y0012784D02*
X0188849Y0012784D01*
X0188849Y0013782D02*
X0194700Y0013782D01*
X0199465Y0008790D02*
X0016000Y0008790D01*
X0016000Y0007791D02*
X0200463Y0007791D01*
X0176500Y0020800D02*
X0167173Y0020800D01*
X0167173Y0025800D02*
X0174500Y0025800D01*
X0177000Y0033300D01*
X0179000Y0035800D01*
X0179000Y0066800D01*
X0177000Y0068800D02*
X0177000Y0037800D01*
X0175000Y0035300D01*
X0172500Y0030800D01*
X0167173Y0030800D01*
X0167173Y0035800D02*
X0175000Y0038300D01*
X0175000Y0070800D01*
X0177000Y0073300D01*
X0177000Y0100800D01*
X0179000Y0103300D01*
X0179000Y0131800D01*
X0184000Y0134300D01*
X0184000Y0148202D01*
X0175200Y0148581D02*
X0168746Y0148581D01*
X0169373Y0149580D02*
X0175200Y0149580D01*
X0175200Y0150578D02*
X0170001Y0150578D01*
X0170629Y0151577D02*
X0175200Y0151577D01*
X0175200Y0152575D02*
X0171256Y0152575D01*
X0171884Y0153574D02*
X0175200Y0153574D01*
X0175200Y0154572D02*
X0172511Y0154572D01*
X0173139Y0155571D02*
X0175200Y0155571D01*
X0174274Y0156569D02*
X0173767Y0156569D01*
X0169515Y0156569D02*
X0149321Y0156569D01*
X0149599Y0155571D02*
X0163377Y0155571D01*
X0162291Y0154572D02*
X0149599Y0154572D01*
X0149599Y0153574D02*
X0161877Y0153574D01*
X0161819Y0152575D02*
X0149599Y0152575D01*
X0149599Y0151577D02*
X0161231Y0151577D01*
X0160233Y0150578D02*
X0149599Y0150578D01*
X0149599Y0149580D02*
X0159234Y0149580D01*
X0158236Y0148581D02*
X0148872Y0148581D01*
X0142609Y0148581D02*
X0141626Y0148581D01*
X0138760Y0148581D02*
X0137760Y0148581D01*
X0137760Y0148347D02*
X0137760Y0152300D01*
X0134201Y0152300D01*
X0134201Y0149650D01*
X0134303Y0149268D01*
X0134500Y0148926D01*
X0134780Y0148647D01*
X0135122Y0148449D01*
X0135503Y0148347D01*
X0137760Y0148347D01*
X0137760Y0149580D02*
X0138760Y0149580D01*
X0138760Y0150578D02*
X0137760Y0150578D01*
X0137760Y0151577D02*
X0138760Y0151577D01*
X0137760Y0152575D02*
X0133900Y0152575D01*
X0133900Y0151577D02*
X0134201Y0151577D01*
X0134201Y0150578D02*
X0133900Y0150578D01*
X0133900Y0149580D02*
X0134220Y0149580D01*
X0133900Y0149262D02*
X0133900Y0155138D01*
X0133138Y0155900D01*
X0123262Y0155900D01*
X0122500Y0155138D01*
X0122500Y0149262D01*
X0123262Y0148500D01*
X0133138Y0148500D01*
X0133900Y0149262D01*
X0133220Y0148581D02*
X0134894Y0148581D01*
X0135913Y0145586D02*
X0098800Y0145586D01*
X0098800Y0144587D02*
X0134797Y0144587D01*
X0134383Y0143589D02*
X0098800Y0143589D01*
X0098800Y0142590D02*
X0119316Y0142590D01*
X0118126Y0141592D02*
X0098800Y0141592D01*
X0098800Y0140593D02*
X0118047Y0140593D01*
X0118047Y0139595D02*
X0098800Y0139595D01*
X0098800Y0138596D02*
X0122000Y0138596D01*
X0118047Y0137598D02*
X0098800Y0137598D01*
X0098800Y0136599D02*
X0118047Y0136599D01*
X0118096Y0135601D02*
X0098800Y0135601D01*
X0098800Y0134602D02*
X0118692Y0134602D01*
X0118247Y0133603D02*
X0098800Y0133603D01*
X0098800Y0132605D02*
X0118247Y0132605D01*
X0118247Y0131606D02*
X0098800Y0131606D01*
X0098800Y0130608D02*
X0118247Y0130608D01*
X0118247Y0129609D02*
X0098800Y0129609D01*
X0098800Y0128611D02*
X0118247Y0128611D01*
X0118597Y0127612D02*
X0098800Y0127612D01*
X0098800Y0126614D02*
X0120700Y0126614D01*
X0120700Y0125615D02*
X0098800Y0125615D01*
X0098800Y0124617D02*
X0118247Y0124617D01*
X0118247Y0123618D02*
X0098800Y0123618D01*
X0098800Y0122620D02*
X0118247Y0122620D01*
X0118247Y0121621D02*
X0098800Y0121621D01*
X0098800Y0120623D02*
X0118247Y0120623D01*
X0118247Y0119624D02*
X0098800Y0119624D01*
X0098800Y0118626D02*
X0118247Y0118626D01*
X0118434Y0117627D02*
X0098800Y0117627D01*
X0098800Y0116629D02*
X0118047Y0116629D01*
X0118047Y0112635D02*
X0098800Y0112635D01*
X0098800Y0111636D02*
X0118047Y0111636D01*
X0118313Y0110638D02*
X0114962Y0110638D01*
X0116160Y0109639D02*
X0128047Y0109639D01*
X0132000Y0109639D02*
X0133000Y0109639D01*
X0133000Y0108641D02*
X0132000Y0108641D01*
X0132000Y0107642D02*
X0133000Y0107642D01*
X0136689Y0107642D02*
X0143850Y0107642D01*
X0143850Y0108641D02*
X0136953Y0108641D01*
X0136953Y0109639D02*
X0143942Y0109639D01*
X0144000Y0112635D02*
X0143000Y0112635D01*
X0143000Y0113633D02*
X0144000Y0113633D01*
X0144000Y0114632D02*
X0143000Y0114632D01*
X0143000Y0115630D02*
X0136753Y0115630D01*
X0136753Y0116629D02*
X0139047Y0116629D01*
X0139047Y0117627D02*
X0136753Y0117627D01*
X0136753Y0118626D02*
X0139047Y0118626D01*
X0139431Y0119624D02*
X0136753Y0119624D01*
X0136753Y0120623D02*
X0139247Y0120623D01*
X0139247Y0121621D02*
X0136753Y0121621D01*
X0134300Y0122620D02*
X0139247Y0122620D01*
X0139247Y0123618D02*
X0134300Y0123618D01*
X0136407Y0124617D02*
X0139247Y0124617D01*
X0139247Y0125615D02*
X0136753Y0125615D01*
X0136753Y0126614D02*
X0139247Y0126614D01*
X0140821Y0127612D02*
X0137444Y0127612D01*
X0132500Y0128060D02*
X0132500Y0118540D01*
X0122500Y0121540D01*
X0122500Y0131060D01*
X0132500Y0128060D01*
X0142000Y0130800D01*
X0149500Y0130800D01*
X0152450Y0129609D02*
X0156700Y0129609D01*
X0156700Y0128611D02*
X0151810Y0128611D01*
X0152681Y0130608D02*
X0156700Y0130608D01*
X0156700Y0131606D02*
X0152609Y0131606D01*
X0152194Y0132605D02*
X0156700Y0132605D01*
X0156700Y0133603D02*
X0151044Y0133603D01*
X0147956Y0133603D02*
X0143544Y0133603D01*
X0144694Y0132605D02*
X0146806Y0132605D01*
X0142000Y0130800D02*
X0143500Y0123540D01*
X0147753Y0123618D02*
X0156700Y0123618D01*
X0156700Y0122620D02*
X0147753Y0122620D01*
X0147753Y0121621D02*
X0156700Y0121621D01*
X0156700Y0120623D02*
X0147753Y0120623D01*
X0147569Y0119624D02*
X0156700Y0119624D01*
X0156700Y0118626D02*
X0147953Y0118626D01*
X0147953Y0117627D02*
X0156700Y0117627D01*
X0156700Y0116629D02*
X0147953Y0116629D01*
X0139315Y0112635D02*
X0136953Y0112635D01*
X0136953Y0113633D02*
X0139047Y0113633D01*
X0139047Y0114632D02*
X0136561Y0114632D01*
X0136953Y0111636D02*
X0156700Y0111636D01*
X0160300Y0111636D02*
X0175200Y0111636D01*
X0175200Y0110638D02*
X0160300Y0110638D01*
X0160300Y0112635D02*
X0175200Y0112635D01*
X0175200Y0113633D02*
X0160300Y0113633D01*
X0160300Y0114632D02*
X0175200Y0114632D01*
X0175200Y0115630D02*
X0160300Y0115630D01*
X0160300Y0116629D02*
X0175200Y0116629D01*
X0175200Y0117627D02*
X0160300Y0117627D01*
X0160300Y0118626D02*
X0175200Y0118626D01*
X0175200Y0119624D02*
X0160300Y0119624D01*
X0160300Y0120623D02*
X0175200Y0120623D01*
X0175200Y0121621D02*
X0160300Y0121621D01*
X0160300Y0122620D02*
X0175200Y0122620D01*
X0175200Y0123618D02*
X0160300Y0123618D01*
X0160300Y0124617D02*
X0175200Y0124617D01*
X0175200Y0125615D02*
X0160300Y0125615D01*
X0160300Y0126614D02*
X0175200Y0126614D01*
X0175200Y0127612D02*
X0160300Y0127612D01*
X0160300Y0128611D02*
X0175200Y0128611D01*
X0175200Y0129609D02*
X0160300Y0129609D01*
X0160300Y0130608D02*
X0175200Y0130608D01*
X0175200Y0131606D02*
X0160300Y0131606D01*
X0160300Y0132605D02*
X0175200Y0132605D01*
X0175200Y0133603D02*
X0160300Y0133603D01*
X0160300Y0134602D02*
X0175200Y0134602D01*
X0175200Y0135601D02*
X0160300Y0135601D01*
X0160300Y0136599D02*
X0175200Y0136599D01*
X0175200Y0137598D02*
X0160300Y0137598D01*
X0160300Y0138596D02*
X0175200Y0138596D01*
X0175200Y0139595D02*
X0160427Y0139595D01*
X0161568Y0140593D02*
X0175200Y0140593D01*
X0175200Y0141592D02*
X0162710Y0141592D01*
X0163851Y0142590D02*
X0175200Y0142590D01*
X0175200Y0143589D02*
X0164834Y0143589D01*
X0165833Y0144587D02*
X0175200Y0144587D01*
X0175200Y0145586D02*
X0166863Y0145586D01*
X0167490Y0146584D02*
X0175200Y0146584D01*
X0175200Y0147583D02*
X0168118Y0147583D01*
X0165000Y0152800D02*
X0157000Y0144800D01*
X0157000Y0143800D01*
X0157237Y0147583D02*
X0098800Y0147583D01*
X0098800Y0148581D02*
X0123180Y0148581D01*
X0122500Y0149580D02*
X0098800Y0149580D01*
X0098800Y0150578D02*
X0122500Y0150578D01*
X0122500Y0151577D02*
X0098800Y0151577D01*
X0098800Y0152575D02*
X0122500Y0152575D01*
X0122500Y0153574D02*
X0109493Y0153574D01*
X0109630Y0154572D02*
X0122500Y0154572D01*
X0122932Y0155571D02*
X0109630Y0155571D01*
X0109630Y0156569D02*
X0134440Y0156569D01*
X0134201Y0155571D02*
X0133468Y0155571D01*
X0133900Y0154572D02*
X0134201Y0154572D01*
X0134201Y0153574D02*
X0133900Y0153574D01*
X0137760Y0153574D02*
X0138760Y0153574D01*
X0138760Y0154572D02*
X0137760Y0154572D01*
X0137760Y0155571D02*
X0138760Y0155571D01*
X0138760Y0156569D02*
X0137760Y0156569D01*
X0133998Y0158321D02*
X0134100Y0158703D01*
X0134100Y0160800D01*
X0128700Y0160800D01*
X0128700Y0161800D01*
X0127700Y0161800D01*
X0127700Y0165200D01*
X0123603Y0165200D01*
X0123221Y0165098D01*
X0122879Y0164900D01*
X0122600Y0164621D01*
X0122402Y0164279D01*
X0122300Y0163897D01*
X0122300Y0161800D01*
X0127700Y0161800D01*
X0127700Y0160800D01*
X0128700Y0160800D01*
X0128700Y0157400D01*
X0132797Y0157400D01*
X0133179Y0157502D01*
X0133521Y0157700D01*
X0133800Y0157979D01*
X0133998Y0158321D01*
X0134063Y0158566D02*
X0143640Y0158566D01*
X0143640Y0157568D02*
X0133292Y0157568D01*
X0134100Y0159565D02*
X0143640Y0159565D01*
X0143640Y0160563D02*
X0134100Y0160563D01*
X0134100Y0161800D02*
X0134100Y0163897D01*
X0133998Y0164279D01*
X0133800Y0164621D01*
X0133521Y0164900D01*
X0133179Y0165098D01*
X0132797Y0165200D01*
X0128700Y0165200D01*
X0128700Y0161800D01*
X0134100Y0161800D01*
X0134100Y0162560D02*
X0144290Y0162560D01*
X0143640Y0161562D02*
X0128700Y0161562D01*
X0128700Y0162560D02*
X0127700Y0162560D01*
X0127700Y0161562D02*
X0104299Y0161562D01*
X0104299Y0161800D02*
X0109630Y0161800D01*
X0109630Y0168584D01*
X0109528Y0168966D01*
X0109330Y0169308D01*
X0109051Y0169587D01*
X0108709Y0169784D01*
X0108327Y0169887D01*
X0104299Y0169887D01*
X0104299Y0161800D01*
X0104299Y0162560D02*
X0103299Y0162560D01*
X0103299Y0163559D02*
X0104299Y0163559D01*
X0104299Y0164557D02*
X0103299Y0164557D01*
X0103299Y0165556D02*
X0104299Y0165556D01*
X0104299Y0166554D02*
X0103299Y0166554D01*
X0103299Y0167553D02*
X0104299Y0167553D01*
X0104299Y0168551D02*
X0103299Y0168551D01*
X0103299Y0169550D02*
X0104299Y0169550D01*
X0109088Y0169550D02*
X0122500Y0169550D01*
X0122500Y0170548D02*
X0098800Y0170548D01*
X0098800Y0171547D02*
X0122500Y0171547D01*
X0122500Y0172545D02*
X0098800Y0172545D01*
X0098800Y0173544D02*
X0122705Y0173544D01*
X0122500Y0168551D02*
X0109630Y0168551D01*
X0109630Y0167553D02*
X0122500Y0167553D01*
X0122563Y0164557D02*
X0109630Y0164557D01*
X0109630Y0163559D02*
X0122300Y0163559D01*
X0122300Y0162560D02*
X0109630Y0162560D01*
X0109630Y0160563D02*
X0122300Y0160563D01*
X0122300Y0160800D02*
X0122300Y0158703D01*
X0122402Y0158321D01*
X0122600Y0157979D01*
X0122879Y0157700D01*
X0123221Y0157502D01*
X0123603Y0157400D01*
X0127700Y0157400D01*
X0127700Y0160800D01*
X0122300Y0160800D01*
X0122300Y0159565D02*
X0109630Y0159565D01*
X0109630Y0158566D02*
X0122337Y0158566D01*
X0123107Y0157568D02*
X0109630Y0157568D01*
X0104299Y0157568D02*
X0103299Y0157568D01*
X0103299Y0158566D02*
X0104299Y0158566D01*
X0104299Y0159565D02*
X0103299Y0159565D01*
X0103299Y0160563D02*
X0104299Y0160563D01*
X0104299Y0156569D02*
X0103299Y0156569D01*
X0103299Y0155571D02*
X0104299Y0155571D01*
X0104299Y0154572D02*
X0103299Y0154572D01*
X0103299Y0153574D02*
X0104299Y0153574D01*
X0097000Y0157800D02*
X0097000Y0127800D01*
X0097000Y0094800D01*
X0096793Y0094593D01*
X0096598Y0094398D01*
X0091500Y0094398D01*
X0096500Y0093886D02*
X0096500Y0086800D01*
X0098300Y0087672D02*
X0110239Y0087672D01*
X0110367Y0087619D02*
X0111633Y0087619D01*
X0112802Y0088103D01*
X0113697Y0088998D01*
X0114181Y0090167D01*
X0114181Y0091433D01*
X0113697Y0092602D01*
X0112802Y0093497D01*
X0111633Y0093981D01*
X0110367Y0093981D01*
X0110365Y0093980D01*
X0109368Y0094978D01*
X0108253Y0094978D01*
X0108253Y0096275D01*
X0107719Y0096809D01*
X0107874Y0096899D01*
X0108153Y0097178D01*
X0108351Y0097520D01*
X0108453Y0097902D01*
X0108453Y0100158D01*
X0104500Y0100158D01*
X0104500Y0101158D01*
X0108453Y0101158D01*
X0108453Y0103415D01*
X0108351Y0103796D01*
X0108153Y0104138D01*
X0107874Y0104418D01*
X0107532Y0104615D01*
X0107150Y0104717D01*
X0104500Y0104717D01*
X0104500Y0101158D01*
X0103500Y0101158D01*
X0103500Y0100158D01*
X0099547Y0100158D01*
X0099547Y0097902D01*
X0099649Y0097520D01*
X0099847Y0097178D01*
X0100126Y0096899D01*
X0100281Y0096809D01*
X0099747Y0096275D01*
X0099747Y0090080D01*
X0100509Y0089319D01*
X0107491Y0089319D01*
X0107971Y0089799D01*
X0108303Y0088998D01*
X0109198Y0088103D01*
X0110367Y0087619D01*
X0111761Y0087672D02*
X0113826Y0087672D01*
X0113369Y0088670D02*
X0114825Y0088670D01*
X0113975Y0089669D02*
X0115823Y0089669D01*
X0116822Y0090668D02*
X0114181Y0090668D01*
X0114084Y0091666D02*
X0117820Y0091666D01*
X0118819Y0092665D02*
X0113634Y0092665D01*
X0112401Y0093663D02*
X0118547Y0093663D01*
X0118247Y0094662D02*
X0109684Y0094662D01*
X0108253Y0095660D02*
X0118247Y0095660D01*
X0118247Y0096659D02*
X0107870Y0096659D01*
X0108387Y0097657D02*
X0118247Y0097657D01*
X0118247Y0098656D02*
X0108453Y0098656D01*
X0108453Y0099654D02*
X0118247Y0099654D01*
X0118742Y0100653D02*
X0104500Y0100653D01*
X0104000Y0100658D02*
X0100000Y0104658D01*
X0101000Y0113800D01*
X0098800Y0110638D02*
X0112038Y0110638D01*
X0110840Y0109639D02*
X0098800Y0109639D01*
X0098800Y0108641D02*
X0110405Y0108641D01*
X0110319Y0107642D02*
X0098800Y0107642D01*
X0098800Y0106644D02*
X0110536Y0106644D01*
X0111156Y0105645D02*
X0098800Y0105645D01*
X0098800Y0104647D02*
X0100586Y0104647D01*
X0100468Y0104615D02*
X0100126Y0104418D01*
X0099847Y0104138D01*
X0099649Y0103796D01*
X0099547Y0103415D01*
X0099547Y0101158D01*
X0103500Y0101158D01*
X0103500Y0104717D01*
X0100850Y0104717D01*
X0100468Y0104615D01*
X0099610Y0103648D02*
X0098800Y0103648D01*
X0098800Y0102650D02*
X0099547Y0102650D01*
X0099547Y0101651D02*
X0098800Y0101651D01*
X0098800Y0100653D02*
X0103500Y0100653D01*
X0103500Y0101651D02*
X0104500Y0101651D01*
X0104500Y0102650D02*
X0103500Y0102650D01*
X0103500Y0103648D02*
X0104500Y0103648D01*
X0104500Y0104647D02*
X0103500Y0104647D01*
X0107414Y0104647D02*
X0112800Y0104647D01*
X0114373Y0103648D02*
X0108390Y0103648D01*
X0108453Y0102650D02*
X0118247Y0102650D01*
X0118247Y0101651D02*
X0108453Y0101651D01*
X0113500Y0107800D02*
X0115760Y0104800D01*
X0122000Y0110638D02*
X0123000Y0110638D01*
X0123000Y0111636D02*
X0122000Y0111636D01*
X0126953Y0114632D02*
X0128439Y0114632D01*
X0128247Y0115630D02*
X0126953Y0115630D01*
X0126953Y0116629D02*
X0128247Y0116629D01*
X0128247Y0117627D02*
X0126566Y0117627D01*
X0144497Y0127612D02*
X0156700Y0127612D01*
X0156700Y0126614D02*
X0147753Y0126614D01*
X0147753Y0125615D02*
X0156700Y0125615D01*
X0156700Y0124617D02*
X0147753Y0124617D01*
X0147190Y0128611D02*
X0144310Y0128611D01*
X0140456Y0133603D02*
X0136953Y0133603D01*
X0136953Y0134602D02*
X0156700Y0134602D01*
X0158500Y0140300D02*
X0158500Y0106540D01*
X0162950Y0106644D02*
X0175200Y0106644D01*
X0175200Y0107642D02*
X0162950Y0107642D01*
X0162950Y0108641D02*
X0175200Y0108641D01*
X0175200Y0109639D02*
X0162948Y0109639D01*
X0162950Y0105645D02*
X0174971Y0105645D01*
X0174172Y0104647D02*
X0162950Y0104647D01*
X0162950Y0103648D02*
X0173303Y0103648D01*
X0173200Y0102650D02*
X0162457Y0102650D01*
X0162950Y0101651D02*
X0173200Y0101651D01*
X0173200Y0100653D02*
X0162950Y0100653D01*
X0162950Y0099654D02*
X0173200Y0099654D01*
X0173200Y0098656D02*
X0162950Y0098656D01*
X0162950Y0097657D02*
X0173200Y0097657D01*
X0173200Y0096659D02*
X0162950Y0096659D01*
X0162647Y0095660D02*
X0173200Y0095660D01*
X0173200Y0094662D02*
X0147407Y0094662D01*
X0146000Y0095800D02*
X0148500Y0099060D01*
X0158500Y0099060D01*
X0154050Y0096659D02*
X0152950Y0096659D01*
X0152647Y0095660D02*
X0154353Y0095660D01*
X0146000Y0095800D02*
X0142000Y0095800D01*
X0139500Y0101800D01*
X0139240Y0100800D01*
X0143099Y0100653D02*
X0144050Y0100653D01*
X0144050Y0101651D02*
X0143099Y0101651D01*
X0143099Y0102650D02*
X0144543Y0102650D01*
X0143887Y0103648D02*
X0143099Y0103648D01*
X0142744Y0104647D02*
X0143850Y0104647D01*
X0143850Y0105645D02*
X0126753Y0105645D01*
X0131760Y0100800D02*
X0128020Y0097060D01*
X0129165Y0095660D02*
X0140108Y0095660D01*
X0140524Y0094662D02*
X0126753Y0094662D01*
X0126453Y0093663D02*
X0173200Y0093663D01*
X0173200Y0092665D02*
X0123910Y0092665D01*
X0122912Y0091666D02*
X0173200Y0091666D01*
X0173200Y0090668D02*
X0121913Y0090668D01*
X0120915Y0089669D02*
X0173200Y0089669D01*
X0173200Y0088670D02*
X0119916Y0088670D01*
X0118918Y0087672D02*
X0173200Y0087672D01*
X0173200Y0086673D02*
X0117919Y0086673D01*
X0116921Y0085675D02*
X0173200Y0085675D01*
X0173200Y0084676D02*
X0115922Y0084676D01*
X0114924Y0083678D02*
X0173200Y0083678D01*
X0173200Y0082679D02*
X0113925Y0082679D01*
X0109918Y0079684D02*
X0173200Y0079684D01*
X0173200Y0080682D02*
X0108045Y0080682D01*
X0106173Y0081681D02*
X0173200Y0081681D01*
X0173200Y0078685D02*
X0111802Y0078685D01*
X0113633Y0077687D02*
X0173200Y0077687D01*
X0173200Y0076688D02*
X0115464Y0076688D01*
X0117000Y0073800D02*
X0120500Y0066300D01*
X0119500Y0058800D01*
X0116207Y0054593D01*
X0116207Y0052260D01*
X0116398Y0051914D02*
X0116398Y0051800D01*
X0116366Y0051834D01*
X0116337Y0051870D01*
X0116310Y0051908D01*
X0116287Y0051948D01*
X0116266Y0051990D01*
X0116248Y0052033D01*
X0116233Y0052077D01*
X0116222Y0052122D01*
X0116214Y0052167D01*
X0116209Y0052214D01*
X0116207Y0052260D01*
X0113839Y0051914D02*
X0114839Y0059800D01*
X0116500Y0063800D01*
X0116000Y0071300D01*
X0111500Y0073800D01*
X0102500Y0077800D01*
X0105500Y0072800D02*
X0099500Y0066800D01*
X0107000Y0068800D02*
X0108720Y0055300D01*
X0108720Y0051914D01*
X0106161Y0051914D02*
X0106161Y0054224D01*
X0106000Y0054386D01*
X0106000Y0057300D01*
X0103000Y0060300D01*
X0103000Y0061800D01*
X0111280Y0064800D02*
X0111280Y0069020D01*
X0107500Y0072800D01*
X0105500Y0072800D01*
X0091500Y0072800D02*
X0091500Y0083202D01*
X0099172Y0086673D02*
X0112828Y0086673D01*
X0111829Y0085675D02*
X0100171Y0085675D01*
X0098300Y0088670D02*
X0108631Y0088670D01*
X0108025Y0089669D02*
X0107841Y0089669D01*
X0111000Y0090800D02*
X0108622Y0093178D01*
X0104000Y0093178D01*
X0099747Y0093663D02*
X0098409Y0093663D01*
X0096793Y0094593D02*
X0096751Y0094549D01*
X0096713Y0094503D01*
X0096677Y0094454D01*
X0096644Y0094403D01*
X0096615Y0094351D01*
X0096588Y0094296D01*
X0096565Y0094241D01*
X0096545Y0094184D01*
X0096529Y0094125D01*
X0096516Y0094066D01*
X0096507Y0094007D01*
X0096502Y0093946D01*
X0096500Y0093886D01*
X0098300Y0092665D02*
X0099747Y0092665D01*
X0099747Y0091666D02*
X0098300Y0091666D01*
X0098300Y0090668D02*
X0099747Y0090668D01*
X0100159Y0089669D02*
X0098300Y0089669D01*
X0098800Y0094662D02*
X0099747Y0094662D01*
X0099747Y0095660D02*
X0098800Y0095660D01*
X0098800Y0096659D02*
X0100130Y0096659D01*
X0099613Y0097657D02*
X0098800Y0097657D01*
X0098800Y0098656D02*
X0099547Y0098656D01*
X0099547Y0099654D02*
X0098800Y0099654D01*
X0081292Y0110638D02*
X0016000Y0110638D01*
X0016000Y0111636D02*
X0082200Y0111636D01*
X0082200Y0112635D02*
X0016000Y0112635D01*
X0016000Y0113633D02*
X0082200Y0113633D01*
X0082200Y0114632D02*
X0016000Y0114632D01*
X0016000Y0115630D02*
X0082200Y0115630D01*
X0082200Y0116629D02*
X0016000Y0116629D01*
X0016000Y0117627D02*
X0082200Y0117627D01*
X0082200Y0118626D02*
X0016000Y0118626D01*
X0016000Y0119624D02*
X0082200Y0119624D01*
X0082200Y0120623D02*
X0016000Y0120623D01*
X0016000Y0121621D02*
X0082200Y0121621D01*
X0082200Y0122620D02*
X0016000Y0122620D01*
X0016000Y0123618D02*
X0082200Y0123618D01*
X0082200Y0124617D02*
X0016000Y0124617D01*
X0016000Y0125615D02*
X0082200Y0125615D01*
X0082200Y0126614D02*
X0016000Y0126614D01*
X0016000Y0127612D02*
X0082200Y0127612D01*
X0082200Y0128611D02*
X0016000Y0128611D01*
X0016000Y0129609D02*
X0082200Y0129609D01*
X0082200Y0130608D02*
X0016000Y0130608D01*
X0016000Y0131606D02*
X0082200Y0131606D01*
X0082200Y0132605D02*
X0016000Y0132605D01*
X0016000Y0133603D02*
X0082200Y0133603D01*
X0082256Y0134602D02*
X0016000Y0134602D01*
X0016000Y0135601D02*
X0083135Y0135601D01*
X0083934Y0136599D02*
X0016000Y0136599D01*
X0016000Y0137598D02*
X0084200Y0137598D01*
X0084200Y0138596D02*
X0016000Y0138596D01*
X0016000Y0139595D02*
X0084200Y0139595D01*
X0084200Y0140593D02*
X0016000Y0140593D01*
X0016000Y0141592D02*
X0084200Y0141592D01*
X0084200Y0142590D02*
X0016000Y0142590D01*
X0016000Y0143589D02*
X0084200Y0143589D01*
X0084200Y0144587D02*
X0016000Y0144587D01*
X0016000Y0145586D02*
X0084200Y0145586D01*
X0084200Y0146584D02*
X0016000Y0146584D01*
X0016000Y0147583D02*
X0084200Y0147583D01*
X0084200Y0148581D02*
X0016000Y0148581D01*
X0016000Y0149580D02*
X0084200Y0149580D01*
X0084200Y0150578D02*
X0016000Y0150578D01*
X0016000Y0151577D02*
X0084200Y0151577D01*
X0084200Y0152575D02*
X0016000Y0152575D01*
X0016000Y0153574D02*
X0084200Y0153574D01*
X0084200Y0154572D02*
X0016000Y0154572D01*
X0016000Y0155571D02*
X0084200Y0155571D01*
X0084200Y0156569D02*
X0016000Y0156569D01*
X0016000Y0157568D02*
X0084200Y0157568D01*
X0084200Y0158566D02*
X0016000Y0158566D01*
X0016000Y0159565D02*
X0084200Y0159565D01*
X0084200Y0160563D02*
X0016000Y0160563D01*
X0016000Y0161562D02*
X0084200Y0161562D01*
X0084132Y0162560D02*
X0016000Y0162560D01*
X0016000Y0163559D02*
X0084213Y0163559D01*
X0085212Y0164557D02*
X0016000Y0164557D01*
X0016000Y0165556D02*
X0087713Y0165556D01*
X0091500Y0165300D02*
X0091500Y0173202D01*
X0098800Y0174542D02*
X0140345Y0174542D01*
X0141274Y0173544D02*
X0133695Y0173544D01*
X0133900Y0172545D02*
X0140276Y0172545D01*
X0143220Y0169550D02*
X0147160Y0169550D01*
X0146901Y0170548D02*
X0144218Y0170548D01*
X0142221Y0168551D02*
X0150282Y0168551D01*
X0149283Y0167553D02*
X0133900Y0167553D01*
X0133837Y0164557D02*
X0146288Y0164557D01*
X0147286Y0165556D02*
X0109630Y0165556D01*
X0109630Y0166554D02*
X0148285Y0166554D01*
X0151229Y0163559D02*
X0153278Y0163559D01*
X0152864Y0164557D02*
X0152227Y0164557D01*
X0150230Y0162560D02*
X0154302Y0162560D01*
X0156000Y0165300D02*
X0164500Y0165300D01*
X0169500Y0160300D01*
X0171738Y0162560D02*
X0173280Y0162560D01*
X0172653Y0161562D02*
X0172421Y0161562D01*
X0173908Y0163559D02*
X0168787Y0163559D01*
X0167788Y0164557D02*
X0174536Y0164557D01*
X0171745Y0165556D02*
X0166790Y0165556D01*
X0165791Y0166554D02*
X0171073Y0166554D01*
X0170819Y0167553D02*
X0158723Y0167553D01*
X0159600Y0168551D02*
X0170868Y0168551D01*
X0171282Y0169550D02*
X0161840Y0169550D01*
X0162099Y0170548D02*
X0172323Y0170548D01*
X0171166Y0171547D02*
X0174241Y0171547D01*
X0174873Y0172545D02*
X0172216Y0172545D01*
X0172630Y0173544D02*
X0175505Y0173544D01*
X0176136Y0174542D02*
X0172681Y0174542D01*
X0172429Y0175541D02*
X0176768Y0175541D01*
X0177292Y0176539D02*
X0171759Y0176539D01*
X0167241Y0176539D02*
X0162099Y0176539D01*
X0162099Y0175541D02*
X0166571Y0175541D01*
X0161352Y0177538D02*
X0178962Y0177538D01*
X0179151Y0178537D02*
X0152600Y0178537D01*
X0152600Y0179535D02*
X0179296Y0179535D01*
X0179831Y0182531D02*
X0173555Y0182531D01*
X0173499Y0182434D02*
X0173697Y0182776D01*
X0173799Y0183158D01*
X0173799Y0186300D01*
X0167583Y0186300D01*
X0167583Y0187300D01*
X0173799Y0187300D01*
X0173799Y0190442D01*
X0173697Y0190824D01*
X0173499Y0191166D01*
X0173220Y0191445D01*
X0172878Y0191643D01*
X0172497Y0191745D01*
X0167583Y0191745D01*
X0167583Y0187300D01*
X0166583Y0187300D01*
X0166583Y0191745D01*
X0161669Y0191745D01*
X0161287Y0191643D01*
X0160945Y0191445D01*
X0160666Y0191166D01*
X0160468Y0190824D01*
X0160366Y0190442D01*
X0160366Y0187300D01*
X0166583Y0187300D01*
X0166583Y0186300D01*
X0167583Y0186300D01*
X0167583Y0181855D01*
X0172497Y0181855D01*
X0172878Y0181957D01*
X0173220Y0182155D01*
X0173499Y0182434D01*
X0173799Y0183529D02*
X0179151Y0183529D01*
X0179151Y0184528D02*
X0173799Y0184528D01*
X0173799Y0185526D02*
X0179151Y0185526D01*
X0179151Y0186525D02*
X0167583Y0186525D01*
X0167583Y0187523D02*
X0166583Y0187523D01*
X0166583Y0186525D02*
X0150245Y0186525D01*
X0149247Y0187523D02*
X0160366Y0187523D01*
X0160366Y0188522D02*
X0148248Y0188522D01*
X0146237Y0189520D02*
X0160366Y0189520D01*
X0160387Y0190519D02*
X0146237Y0190519D01*
X0145503Y0191517D02*
X0161070Y0191517D01*
X0166583Y0191517D02*
X0167583Y0191517D01*
X0167583Y0190519D02*
X0166583Y0190519D01*
X0166583Y0189520D02*
X0167583Y0189520D01*
X0167583Y0188522D02*
X0166583Y0188522D01*
X0166583Y0186300D02*
X0160366Y0186300D01*
X0160366Y0183158D01*
X0160468Y0182776D01*
X0160666Y0182434D01*
X0160945Y0182155D01*
X0161287Y0181957D01*
X0161669Y0181855D01*
X0166583Y0181855D01*
X0166583Y0186300D01*
X0166583Y0185526D02*
X0167583Y0185526D01*
X0167583Y0184528D02*
X0166583Y0184528D01*
X0166583Y0183529D02*
X0167583Y0183529D01*
X0167583Y0182531D02*
X0166583Y0182531D01*
X0160610Y0182531D02*
X0152600Y0182531D01*
X0152600Y0183529D02*
X0160366Y0183529D01*
X0160366Y0184528D02*
X0152242Y0184528D01*
X0151244Y0185526D02*
X0160366Y0185526D01*
X0152600Y0181532D02*
X0186821Y0181532D01*
X0187819Y0180534D02*
X0152600Y0180534D01*
X0153872Y0177538D02*
X0155128Y0177538D01*
X0148400Y0178537D02*
X0144931Y0178537D01*
X0145181Y0177538D02*
X0147648Y0177538D01*
X0146901Y0176539D02*
X0145128Y0176539D01*
X0144715Y0175541D02*
X0146901Y0175541D01*
X0142000Y0177300D02*
X0108000Y0177300D01*
X0102000Y0183300D01*
X0099065Y0184528D02*
X0098800Y0184528D01*
X0098800Y0185526D02*
X0099727Y0185526D01*
X0098800Y0186525D02*
X0107700Y0186525D01*
X0107700Y0187523D02*
X0097822Y0187523D01*
X0096824Y0188522D02*
X0107700Y0188522D01*
X0107864Y0185526D02*
X0104273Y0185526D01*
X0104935Y0184528D02*
X0108863Y0184528D01*
X0109861Y0183529D02*
X0105181Y0183529D01*
X0105315Y0182531D02*
X0110860Y0182531D01*
X0108311Y0179535D02*
X0139736Y0179535D01*
X0144264Y0179535D02*
X0148400Y0179535D01*
X0148400Y0180534D02*
X0107312Y0180534D01*
X0106314Y0181532D02*
X0148400Y0181532D01*
X0148300Y0182531D02*
X0145951Y0182531D01*
X0146237Y0183529D02*
X0147301Y0183529D01*
X0146303Y0184528D02*
X0146237Y0184528D01*
X0133490Y0182531D02*
X0117140Y0182531D01*
X0118139Y0183529D02*
X0133204Y0183529D01*
X0133204Y0184528D02*
X0130309Y0184528D01*
X0131307Y0185526D02*
X0133204Y0185526D01*
X0125691Y0184528D02*
X0119137Y0184528D01*
X0120136Y0185526D02*
X0124693Y0185526D01*
X0123700Y0186525D02*
X0120300Y0186525D01*
X0120300Y0187523D02*
X0123700Y0187523D01*
X0123700Y0188522D02*
X0120300Y0188522D01*
X0120300Y0189520D02*
X0123700Y0189520D01*
X0124138Y0190519D02*
X0120300Y0190519D01*
X0119692Y0191517D02*
X0125136Y0191517D01*
X0126135Y0192516D02*
X0118694Y0192516D01*
X0117695Y0193514D02*
X0200305Y0193514D01*
X0200200Y0192516D02*
X0129865Y0192516D01*
X0130864Y0191517D02*
X0133938Y0191517D01*
X0133204Y0190519D02*
X0131862Y0190519D01*
X0116697Y0194513D02*
X0201303Y0194513D01*
X0200200Y0191517D02*
X0173096Y0191517D01*
X0173779Y0190519D02*
X0179151Y0190519D01*
X0179151Y0189520D02*
X0173799Y0189520D01*
X0173799Y0188522D02*
X0179151Y0188522D01*
X0179151Y0187523D02*
X0173799Y0187523D01*
X0184000Y0186898D02*
X0189098Y0181800D01*
X0236500Y0181800D01*
X0239000Y0179300D01*
X0239000Y0156800D01*
X0234000Y0151800D01*
X0235324Y0150578D02*
X0260879Y0150578D01*
X0261293Y0151577D02*
X0236322Y0151577D01*
X0237321Y0152575D02*
X0262387Y0152575D01*
X0265613Y0152575D02*
X0269200Y0152575D01*
X0269200Y0151577D02*
X0266707Y0151577D01*
X0267121Y0150578D02*
X0269200Y0150578D01*
X0269200Y0149580D02*
X0267181Y0149580D01*
X0266938Y0148581D02*
X0269200Y0148581D01*
X0269200Y0147583D02*
X0266281Y0147583D01*
X0269200Y0153574D02*
X0238319Y0153574D01*
X0239318Y0154572D02*
X0269200Y0154572D01*
X0269200Y0155571D02*
X0249270Y0155571D01*
X0249933Y0156569D02*
X0269200Y0156569D01*
X0269200Y0157568D02*
X0250181Y0157568D01*
X0250126Y0158566D02*
X0269200Y0158566D01*
X0269200Y0159565D02*
X0249712Y0159565D01*
X0248641Y0160563D02*
X0269200Y0160563D01*
X0269200Y0161562D02*
X0240800Y0161562D01*
X0240800Y0162560D02*
X0269200Y0162560D01*
X0269200Y0163559D02*
X0240800Y0163559D01*
X0240800Y0164557D02*
X0269200Y0164557D01*
X0269200Y0165556D02*
X0240800Y0165556D01*
X0240800Y0166554D02*
X0269200Y0166554D01*
X0269200Y0167553D02*
X0240800Y0167553D01*
X0240800Y0168551D02*
X0269206Y0168551D01*
X0270204Y0169550D02*
X0240800Y0169550D01*
X0240800Y0170548D02*
X0271203Y0170548D01*
X0272201Y0171547D02*
X0240800Y0171547D01*
X0240800Y0172545D02*
X0273200Y0172545D01*
X0274198Y0173544D02*
X0240800Y0173544D01*
X0240800Y0174542D02*
X0275197Y0174542D01*
X0273123Y0175541D02*
X0240800Y0175541D01*
X0240800Y0176539D02*
X0272651Y0176539D01*
X0272651Y0177538D02*
X0240800Y0177538D01*
X0240800Y0178537D02*
X0272651Y0178537D01*
X0272651Y0179535D02*
X0240800Y0179535D01*
X0240312Y0180534D02*
X0272651Y0180534D01*
X0272651Y0181532D02*
X0239314Y0181532D01*
X0238315Y0182531D02*
X0272651Y0182531D01*
X0272790Y0183529D02*
X0237317Y0183529D01*
X0236219Y0179535D02*
X0188704Y0179535D01*
X0188849Y0178537D02*
X0237200Y0178537D01*
X0237200Y0177538D02*
X0188849Y0177538D01*
X0188849Y0176539D02*
X0203658Y0176539D01*
X0204219Y0177100D02*
X0201700Y0174581D01*
X0201700Y0171019D01*
X0204219Y0168500D01*
X0207781Y0168500D01*
X0210300Y0171019D01*
X0210300Y0174581D01*
X0207781Y0177100D01*
X0204219Y0177100D01*
X0202660Y0175541D02*
X0188849Y0175541D01*
X0188849Y0174542D02*
X0201700Y0174542D01*
X0201700Y0173544D02*
X0188849Y0173544D01*
X0188849Y0172545D02*
X0201700Y0172545D01*
X0201700Y0171547D02*
X0188383Y0171547D01*
X0184000Y0175702D02*
X0179000Y0175702D01*
X0174000Y0167800D01*
X0176927Y0166554D02*
X0203673Y0166554D01*
X0204219Y0167100D02*
X0201700Y0164581D01*
X0201700Y0161019D01*
X0204219Y0158500D01*
X0207781Y0158500D01*
X0210300Y0161019D01*
X0210300Y0164581D01*
X0207781Y0167100D01*
X0204219Y0167100D01*
X0204167Y0168551D02*
X0177132Y0168551D01*
X0177181Y0167553D02*
X0237200Y0167553D01*
X0237200Y0168551D02*
X0227832Y0168551D01*
X0227781Y0168500D02*
X0230300Y0171019D01*
X0230300Y0174581D01*
X0227781Y0177100D01*
X0224219Y0177100D01*
X0221700Y0174581D01*
X0221700Y0171019D01*
X0224219Y0168500D01*
X0227781Y0168500D01*
X0228831Y0169550D02*
X0237200Y0169550D01*
X0237200Y0170548D02*
X0229830Y0170548D01*
X0230300Y0171547D02*
X0237200Y0171547D01*
X0237200Y0172545D02*
X0230300Y0172545D01*
X0230300Y0173544D02*
X0237200Y0173544D01*
X0237200Y0174542D02*
X0230300Y0174542D01*
X0229340Y0175541D02*
X0237200Y0175541D01*
X0237200Y0176539D02*
X0228342Y0176539D01*
X0223658Y0176539D02*
X0218342Y0176539D01*
X0217781Y0177100D02*
X0214219Y0177100D01*
X0211700Y0174581D01*
X0211700Y0171019D01*
X0214219Y0168500D01*
X0217781Y0168500D01*
X0220300Y0171019D01*
X0220300Y0174581D01*
X0217781Y0177100D01*
X0219340Y0175541D02*
X0222660Y0175541D01*
X0221700Y0174542D02*
X0220300Y0174542D01*
X0220300Y0173544D02*
X0221700Y0173544D01*
X0221700Y0172545D02*
X0220300Y0172545D01*
X0220300Y0171547D02*
X0221700Y0171547D01*
X0222170Y0170548D02*
X0219830Y0170548D01*
X0218831Y0169550D02*
X0223169Y0169550D01*
X0224167Y0168551D02*
X0217832Y0168551D01*
X0217781Y0167100D02*
X0214219Y0167100D01*
X0211700Y0164581D01*
X0211700Y0161019D01*
X0214219Y0158500D01*
X0217781Y0158500D01*
X0220300Y0161019D01*
X0220300Y0164581D01*
X0217781Y0167100D01*
X0218327Y0166554D02*
X0223673Y0166554D01*
X0222675Y0165556D02*
X0219325Y0165556D01*
X0220300Y0164557D02*
X0221700Y0164557D01*
X0221700Y0163559D02*
X0220300Y0163559D01*
X0220300Y0162560D02*
X0221700Y0162560D01*
X0221700Y0161562D02*
X0220300Y0161562D01*
X0219844Y0160563D02*
X0222156Y0160563D01*
X0222002Y0159565D02*
X0218846Y0159565D01*
X0217847Y0158566D02*
X0221529Y0158566D01*
X0221056Y0157568D02*
X0198278Y0157568D01*
X0197279Y0158566D02*
X0204153Y0158566D01*
X0203154Y0159565D02*
X0196281Y0159565D01*
X0195282Y0160563D02*
X0202156Y0160563D01*
X0201700Y0161562D02*
X0194284Y0161562D01*
X0193285Y0162560D02*
X0201700Y0162560D01*
X0201700Y0163559D02*
X0192287Y0163559D01*
X0191288Y0164557D02*
X0201700Y0164557D01*
X0202675Y0165556D02*
X0190290Y0165556D01*
X0190800Y0165046D02*
X0190800Y0165046D01*
X0202170Y0170548D02*
X0177869Y0170548D01*
X0177237Y0169550D02*
X0203169Y0169550D01*
X0207832Y0168551D02*
X0214167Y0168551D01*
X0213169Y0169550D02*
X0208831Y0169550D01*
X0209830Y0170548D02*
X0212170Y0170548D01*
X0211700Y0171547D02*
X0210300Y0171547D01*
X0210300Y0172545D02*
X0211700Y0172545D01*
X0211700Y0173544D02*
X0210300Y0173544D01*
X0210300Y0174542D02*
X0211700Y0174542D01*
X0212660Y0175541D02*
X0209340Y0175541D01*
X0208342Y0176539D02*
X0213658Y0176539D01*
X0209137Y0184528D02*
X0357651Y0184528D01*
X0357651Y0181532D02*
X0321595Y0181532D01*
X0323555Y0180534D02*
X0357651Y0180534D01*
X0357651Y0179535D02*
X0325514Y0179535D01*
X0326517Y0178537D02*
X0358128Y0178537D01*
X0360200Y0177538D02*
X0327516Y0177538D01*
X0328514Y0176539D02*
X0360200Y0176539D01*
X0360195Y0175541D02*
X0329129Y0175541D01*
X0328731Y0176323D02*
X0328731Y0176323D01*
X0329638Y0174542D02*
X0359197Y0174542D01*
X0358198Y0173544D02*
X0330147Y0173544D01*
X0330655Y0172545D02*
X0357200Y0172545D01*
X0356201Y0171547D02*
X0330907Y0171547D01*
X0330790Y0172281D02*
X0330790Y0172281D01*
X0331065Y0170548D02*
X0355203Y0170548D01*
X0354204Y0169550D02*
X0331223Y0169550D01*
X0331381Y0168551D02*
X0354200Y0168551D01*
X0354200Y0167553D02*
X0331461Y0167553D01*
X0331303Y0166554D02*
X0354200Y0166554D01*
X0354200Y0165556D02*
X0331145Y0165556D01*
X0330986Y0164557D02*
X0354200Y0164557D01*
X0354200Y0163559D02*
X0330828Y0163559D01*
X0330790Y0163319D02*
X0330790Y0163319D01*
X0330404Y0162560D02*
X0354200Y0162560D01*
X0354200Y0161562D02*
X0329895Y0161562D01*
X0329386Y0160563D02*
X0354200Y0160563D01*
X0354200Y0159565D02*
X0328877Y0159565D01*
X0328731Y0159277D02*
X0328731Y0159277D01*
X0328020Y0158566D02*
X0354200Y0158566D01*
X0354200Y0157568D02*
X0327021Y0157568D01*
X0326023Y0156569D02*
X0354200Y0156569D01*
X0354200Y0155571D02*
X0324544Y0155571D01*
X0325523Y0156069D02*
X0325523Y0156069D01*
X0322585Y0154572D02*
X0354200Y0154572D01*
X0357800Y0156569D02*
X0358330Y0156569D01*
X0362500Y0152202D02*
X0362000Y0151702D01*
X0362000Y0139800D01*
X0357000Y0134800D01*
X0357000Y0117800D01*
X0354000Y0114800D01*
X0354000Y0072800D01*
X0350000Y0068800D01*
X0350000Y0035800D01*
X0347000Y0032800D01*
X0341173Y0032800D01*
X0341173Y0027800D02*
X0347500Y0027800D01*
X0350000Y0030800D01*
X0353000Y0033800D01*
X0353000Y0066800D01*
X0357000Y0070800D01*
X0357000Y0100800D01*
X0362000Y0105800D01*
X0362000Y0117202D01*
X0362500Y0117702D01*
X0354000Y0120800D02*
X0354000Y0147800D01*
X0356000Y0149800D01*
X0356000Y0168800D01*
X0362000Y0174800D01*
X0362000Y0182202D01*
X0362500Y0182702D01*
X0358117Y0167553D02*
X0357800Y0167553D01*
X0352200Y0146584D02*
X0294756Y0146584D01*
X0277500Y0150202D02*
X0277000Y0149702D01*
X0277000Y0137800D01*
X0272000Y0132800D01*
X0272000Y0106800D01*
X0268000Y0101800D01*
X0268000Y0076300D01*
X0267000Y0073800D01*
X0267000Y0039800D01*
X0265000Y0035800D01*
X0263500Y0033300D01*
X0259673Y0033300D01*
X0259673Y0028300D02*
X0264500Y0029300D01*
X0265000Y0029800D01*
X0268000Y0034800D01*
X0269000Y0036800D01*
X0269000Y0070800D01*
X0271000Y0073300D01*
X0271000Y0098800D01*
X0277000Y0106800D01*
X0277000Y0116202D01*
X0277500Y0116702D01*
X0284000Y0124300D02*
X0284000Y0159300D01*
X0281902Y0161398D01*
X0277500Y0161398D01*
X0273120Y0165556D02*
X0272800Y0165556D01*
X0247000Y0157800D02*
X0245500Y0159300D01*
X0239000Y0159300D01*
X0240800Y0156569D02*
X0244067Y0156569D01*
X0244730Y0155571D02*
X0240316Y0155571D01*
X0237200Y0163559D02*
X0230300Y0163559D01*
X0230300Y0164557D02*
X0237200Y0164557D01*
X0237200Y0165556D02*
X0229325Y0165556D01*
X0228327Y0166554D02*
X0237200Y0166554D01*
X0220583Y0156569D02*
X0199276Y0156569D01*
X0207847Y0158566D02*
X0214153Y0158566D01*
X0213154Y0159565D02*
X0208846Y0159565D01*
X0209844Y0160563D02*
X0212156Y0160563D01*
X0211700Y0161562D02*
X0210300Y0161562D01*
X0210300Y0162560D02*
X0211700Y0162560D01*
X0211700Y0163559D02*
X0210300Y0163559D01*
X0210300Y0164557D02*
X0211700Y0164557D01*
X0212675Y0165556D02*
X0209325Y0165556D01*
X0208327Y0166554D02*
X0213673Y0166554D01*
X0179617Y0171547D02*
X0178501Y0171547D01*
X0179133Y0172545D02*
X0179151Y0172545D01*
X0164694Y0162560D02*
X0157698Y0162560D01*
X0165693Y0161562D02*
X0149232Y0161562D01*
X0148233Y0160563D02*
X0166319Y0160563D01*
X0166361Y0159565D02*
X0147840Y0159565D01*
X0147840Y0158566D02*
X0166775Y0158566D01*
X0167784Y0157568D02*
X0147840Y0157568D01*
X0142159Y0156569D02*
X0142080Y0156569D01*
X0145289Y0163559D02*
X0134100Y0163559D01*
X0128700Y0163559D02*
X0127700Y0163559D01*
X0127700Y0164557D02*
X0128700Y0164557D01*
X0128700Y0160563D02*
X0127700Y0160563D01*
X0127700Y0159565D02*
X0128700Y0159565D01*
X0128700Y0158566D02*
X0127700Y0158566D01*
X0127700Y0157568D02*
X0128700Y0157568D01*
X0129332Y0139595D02*
X0126953Y0139595D01*
X0126308Y0134602D02*
X0128047Y0134602D01*
X0128047Y0133603D02*
X0126753Y0133603D01*
X0126753Y0132605D02*
X0128095Y0132605D01*
X0128696Y0131606D02*
X0126942Y0131606D01*
X0116500Y0135800D02*
X0114500Y0136800D01*
X0132000Y0137598D02*
X0133000Y0137598D01*
X0133000Y0138596D02*
X0132000Y0138596D01*
X0132000Y0139595D02*
X0133000Y0139595D01*
X0136905Y0132605D02*
X0139306Y0132605D01*
X0138301Y0131606D02*
X0136304Y0131606D01*
X0173500Y0133800D02*
X0173500Y0121800D01*
X0184000Y0116202D02*
X0184000Y0101300D01*
X0179000Y0098800D01*
X0179000Y0071300D01*
X0177000Y0068800D01*
X0197398Y0069699D02*
X0198056Y0069699D01*
X0200636Y0062709D02*
X0201700Y0062709D01*
X0201700Y0061711D02*
X0201635Y0061711D01*
X0216000Y0058800D02*
X0216000Y0056017D01*
X0215398Y0055414D01*
X0219847Y0055720D02*
X0237327Y0055720D01*
X0237477Y0055569D02*
X0237477Y0055569D01*
X0236328Y0056718D02*
X0219847Y0056718D01*
X0219847Y0057717D02*
X0235330Y0057717D01*
X0234331Y0058715D02*
X0219847Y0058715D01*
X0221362Y0059714D02*
X0233792Y0059714D01*
X0233283Y0060712D02*
X0222911Y0060712D01*
X0223492Y0061711D02*
X0232775Y0061711D01*
X0232266Y0062709D02*
X0223681Y0062709D01*
X0223567Y0063708D02*
X0232069Y0063708D01*
X0232210Y0062819D02*
X0232210Y0062819D01*
X0231911Y0064706D02*
X0223093Y0064706D01*
X0221800Y0065705D02*
X0231753Y0065705D01*
X0220500Y0062800D02*
X0216000Y0058800D01*
X0229500Y0051800D02*
X0222500Y0044800D01*
X0222500Y0035300D01*
X0219386Y0032186D01*
X0217957Y0032186D01*
X0219676Y0035749D02*
X0220404Y0035749D01*
X0224300Y0035749D02*
X0224948Y0035749D01*
X0224300Y0036748D02*
X0225780Y0036748D01*
X0226612Y0037746D02*
X0224300Y0037746D01*
X0224300Y0038745D02*
X0227399Y0038745D01*
X0229074Y0039743D02*
X0224300Y0039743D01*
X0224300Y0040742D02*
X0229600Y0040742D01*
X0229074Y0041740D02*
X0224300Y0041740D01*
X0224300Y0042739D02*
X0229074Y0042739D01*
X0229074Y0043737D02*
X0224300Y0043737D01*
X0224982Y0044736D02*
X0229074Y0044736D01*
X0229592Y0045734D02*
X0225980Y0045734D01*
X0259673Y0023300D02*
X0265500Y0024300D01*
X0267000Y0025800D01*
X0270000Y0031800D01*
X0271000Y0032800D01*
X0271000Y0067800D01*
X0278000Y0072800D01*
X0278000Y0082202D01*
X0277500Y0082702D01*
X0284000Y0089300D02*
X0284000Y0091800D01*
X0284000Y0124300D01*
X0280402Y0127898D01*
X0277500Y0127898D01*
X0267254Y0140600D02*
X0267254Y0140600D01*
X0321481Y0154010D02*
X0321481Y0154010D01*
X0362500Y0128898D02*
X0365902Y0128898D01*
X0368000Y0126800D01*
X0368000Y0100398D01*
X0362500Y0094898D01*
X0369000Y0088398D01*
X0370800Y0082679D02*
X0377000Y0082679D01*
X0377000Y0081681D02*
X0370800Y0081681D01*
X0370800Y0080682D02*
X0377000Y0080682D01*
X0377000Y0079684D02*
X0370800Y0079684D01*
X0370800Y0078685D02*
X0377000Y0078685D01*
X0380500Y0076688D02*
X0381500Y0076688D01*
X0381500Y0075690D02*
X0380500Y0075690D01*
X0380500Y0074691D02*
X0381500Y0074691D01*
X0381500Y0073693D02*
X0380500Y0073693D01*
X0380500Y0072694D02*
X0381500Y0072694D01*
X0381500Y0071696D02*
X0380500Y0071696D01*
X0351000Y0075800D02*
X0351000Y0117800D01*
X0354000Y0120800D01*
X0284000Y0091800D02*
X0281902Y0093898D01*
X0277500Y0093898D01*
X0288000Y0078800D02*
X0288000Y0077800D01*
X0293500Y0072300D01*
X0293500Y0065076D01*
X0293661Y0064914D01*
X0291102Y0064914D02*
X0291102Y0068198D01*
X0288500Y0071300D01*
X0286500Y0069300D01*
X0286500Y0011800D01*
X0284700Y0020772D02*
X0282349Y0020772D01*
X0282349Y0021770D02*
X0284700Y0021770D01*
X0284700Y0022769D02*
X0282349Y0022769D01*
X0282349Y0023767D02*
X0284700Y0023767D01*
X0284700Y0024766D02*
X0282349Y0024766D01*
X0282349Y0025764D02*
X0284700Y0025764D01*
X0284700Y0026763D02*
X0282410Y0026763D01*
X0283408Y0027761D02*
X0284700Y0027761D01*
X0284700Y0028760D02*
X0284407Y0028760D01*
X0313300Y0047732D02*
X0315570Y0047732D01*
X0314707Y0048730D02*
X0313300Y0048730D01*
X0313300Y0049729D02*
X0314319Y0049729D01*
X0314319Y0050727D02*
X0313300Y0050727D01*
X0313300Y0051726D02*
X0314647Y0051726D01*
X0315425Y0052724D02*
X0313300Y0052724D01*
X0313300Y0055720D02*
X0315582Y0055720D01*
X0315005Y0056718D02*
X0313300Y0056718D01*
X0313300Y0057717D02*
X0314819Y0057717D01*
X0314936Y0058715D02*
X0313300Y0058715D01*
X0313300Y0059714D02*
X0315415Y0059714D01*
X0316718Y0060712D02*
X0313300Y0060712D01*
X0304000Y0065017D02*
X0303898Y0064914D01*
X0304000Y0065017D02*
X0304000Y0068800D01*
X0308000Y0071800D01*
X0310000Y0076800D01*
X0304000Y0076800D02*
X0304000Y0071800D01*
X0301339Y0069139D01*
X0301339Y0064914D01*
X0298780Y0064914D02*
X0298780Y0060520D01*
X0302500Y0056800D01*
X0296220Y0056520D02*
X0296000Y0056300D01*
X0296220Y0056520D02*
X0296220Y0064914D01*
X0288543Y0064914D02*
X0288543Y0059257D01*
X0293500Y0050300D01*
X0303500Y0050300D01*
X0281500Y0059300D02*
X0279402Y0061398D01*
X0277500Y0061398D01*
X0341173Y0037800D02*
X0345000Y0037800D01*
X0347000Y0039800D01*
X0347000Y0071800D01*
X0351000Y0075800D01*
X0367349Y0053723D02*
X0384000Y0053723D01*
X0384000Y0052724D02*
X0367349Y0052724D01*
X0367349Y0051726D02*
X0384000Y0051726D01*
X0384000Y0050727D02*
X0367349Y0050727D01*
X0367349Y0049729D02*
X0384000Y0049729D01*
X0384000Y0048730D02*
X0367349Y0048730D01*
X0367349Y0047732D02*
X0384000Y0047732D01*
X0384000Y0046733D02*
X0367349Y0046733D01*
X0364800Y0045734D02*
X0384000Y0045734D01*
X0384000Y0044736D02*
X0364800Y0044736D01*
X0364800Y0043737D02*
X0384000Y0043737D01*
X0384000Y0042739D02*
X0364800Y0042739D01*
X0364800Y0041740D02*
X0384000Y0041740D01*
X0384000Y0040742D02*
X0364800Y0040742D01*
X0364800Y0039743D02*
X0384000Y0039743D01*
X0384000Y0038745D02*
X0364800Y0038745D01*
X0364800Y0037746D02*
X0384000Y0037746D01*
X0384000Y0036748D02*
X0364800Y0036748D01*
X0364817Y0035749D02*
X0384000Y0035749D01*
X0384000Y0034751D02*
X0364496Y0034751D01*
X0363667Y0033752D02*
X0384000Y0033752D01*
X0384000Y0032754D02*
X0362868Y0032754D01*
X0362069Y0031755D02*
X0384000Y0031755D01*
X0384000Y0030757D02*
X0361271Y0030757D01*
X0360504Y0029758D02*
X0384000Y0029758D01*
X0384000Y0028760D02*
X0359505Y0028760D01*
X0357651Y0026763D02*
X0357508Y0026763D01*
X0357651Y0025764D02*
X0356647Y0025764D01*
X0355815Y0024766D02*
X0357651Y0024766D01*
X0357651Y0023767D02*
X0354982Y0023767D01*
X0354150Y0022769D02*
X0357651Y0022769D01*
X0357651Y0021770D02*
X0353318Y0021770D01*
X0352486Y0020772D02*
X0357651Y0020772D01*
X0358088Y0019773D02*
X0351654Y0019773D01*
X0350822Y0018775D02*
X0384000Y0018775D01*
X0384000Y0019773D02*
X0366912Y0019773D01*
X0367349Y0020772D02*
X0384000Y0020772D01*
X0384000Y0021770D02*
X0367349Y0021770D01*
X0367349Y0022769D02*
X0384000Y0022769D01*
X0384000Y0023767D02*
X0367349Y0023767D01*
X0367349Y0024766D02*
X0384000Y0024766D01*
X0384000Y0025764D02*
X0367349Y0025764D01*
X0367349Y0026763D02*
X0384000Y0026763D01*
X0384000Y0027761D02*
X0367174Y0027761D01*
X0384000Y0017776D02*
X0350022Y0017776D01*
X0349023Y0016778D02*
X0358039Y0016778D01*
X0357651Y0015779D02*
X0345322Y0015779D01*
X0345362Y0014781D02*
X0357651Y0014781D01*
X0357651Y0013782D02*
X0345426Y0013782D01*
X0345426Y0012784D02*
X0357651Y0012784D01*
X0357651Y0011785D02*
X0345426Y0011785D01*
X0345329Y0010787D02*
X0357651Y0010787D01*
X0357313Y0009788D02*
X0344057Y0009788D01*
X0345056Y0008790D02*
X0356389Y0008790D01*
X0357000Y0006800D02*
X0362000Y0012202D01*
X0362500Y0012702D01*
X0367349Y0012784D02*
X0384000Y0012784D01*
X0384000Y0013782D02*
X0367349Y0013782D01*
X0367349Y0014781D02*
X0384000Y0014781D01*
X0384000Y0015779D02*
X0367349Y0015779D01*
X0366961Y0016778D02*
X0384000Y0016778D01*
X0384000Y0011785D02*
X0367349Y0011785D01*
X0367349Y0010787D02*
X0384000Y0010787D01*
X0384000Y0009788D02*
X0367349Y0009788D01*
X0367125Y0008790D02*
X0384000Y0008790D01*
X0384000Y0007791D02*
X0360370Y0007791D01*
X0359446Y0006793D02*
X0384000Y0006793D01*
X0384000Y0005794D02*
X0358540Y0005794D01*
X0357000Y0006800D02*
X0344500Y0006800D01*
X0341173Y0010127D01*
X0341173Y0012800D01*
X0341962Y0006793D02*
X0016000Y0006793D01*
X0016000Y0005794D02*
X0342960Y0005794D01*
X0384000Y0004796D02*
X0016000Y0004796D01*
X0016202Y0003797D02*
X0384000Y0003797D01*
X0260875Y0007791D02*
X0228875Y0007791D01*
X0231327Y0010800D02*
X0233327Y0013300D01*
X0162920Y0039743D02*
X0145080Y0039743D01*
X0140827Y0035800D02*
X0139327Y0034300D01*
X0134398Y0039743D02*
X0128300Y0039743D01*
X0128300Y0038745D02*
X0133399Y0038745D01*
X0132401Y0037746D02*
X0127895Y0037746D01*
X0127577Y0036748D02*
X0131870Y0036748D01*
X0131270Y0035749D02*
X0127259Y0035749D01*
X0126941Y0034751D02*
X0130671Y0034751D01*
X0130072Y0033752D02*
X0126624Y0033752D01*
X0126306Y0032754D02*
X0129408Y0032754D01*
X0128410Y0031755D02*
X0125988Y0031755D01*
X0125671Y0030757D02*
X0127411Y0030757D01*
X0126413Y0029758D02*
X0125839Y0029758D01*
X0128300Y0040742D02*
X0135396Y0040742D01*
X0136574Y0041740D02*
X0128300Y0041740D01*
X0111280Y0051914D02*
X0111280Y0064800D01*
X0077200Y0085675D02*
X0066124Y0085675D01*
X0063800Y0086673D02*
X0077200Y0086673D01*
X0077200Y0087672D02*
X0063800Y0087672D01*
X0063800Y0088670D02*
X0077200Y0088670D01*
X0077200Y0089669D02*
X0063800Y0089669D01*
X0063800Y0090668D02*
X0077200Y0090668D01*
X0077200Y0091666D02*
X0063800Y0091666D01*
X0063681Y0092665D02*
X0077200Y0092665D01*
X0077200Y0093663D02*
X0062683Y0093663D01*
X0061684Y0094662D02*
X0077200Y0094662D01*
X0077200Y0095660D02*
X0060686Y0095660D01*
X0059687Y0096659D02*
X0077200Y0096659D01*
X0077200Y0097657D02*
X0058688Y0097657D01*
X0057690Y0098656D02*
X0077200Y0098656D01*
X0077200Y0099654D02*
X0016000Y0099654D01*
X0016000Y0098656D02*
X0041310Y0098656D01*
X0040312Y0097657D02*
X0016000Y0097657D01*
X0016000Y0096659D02*
X0039313Y0096659D01*
X0038314Y0095660D02*
X0016000Y0095660D01*
X0016000Y0094662D02*
X0037316Y0094662D01*
X0036317Y0093663D02*
X0016000Y0093663D01*
X0016000Y0092665D02*
X0035319Y0092665D01*
X0034320Y0091666D02*
X0016000Y0091666D01*
X0016000Y0090668D02*
X0027822Y0090668D01*
X0026823Y0089669D02*
X0016000Y0089669D01*
X0016000Y0088670D02*
X0025825Y0088670D01*
X0024826Y0087672D02*
X0016000Y0087672D01*
X0032678Y0090668D02*
X0034200Y0090668D01*
X0034200Y0089669D02*
X0033677Y0089669D01*
X0016000Y0100653D02*
X0077200Y0100653D01*
X0077200Y0101651D02*
X0016000Y0101651D01*
X0016000Y0102650D02*
X0077200Y0102650D01*
X0077200Y0103648D02*
X0016000Y0103648D01*
X0016000Y0104647D02*
X0077200Y0104647D01*
X0077200Y0105645D02*
X0016000Y0105645D01*
X0016000Y0106644D02*
X0077298Y0106644D01*
X0078297Y0107642D02*
X0016000Y0107642D01*
X0016000Y0108641D02*
X0079295Y0108641D01*
X0080294Y0109639D02*
X0016000Y0109639D01*
X0091500Y0126898D02*
X0096098Y0126898D01*
X0097000Y0127800D01*
X0135263Y0104647D02*
X0135737Y0104647D01*
X0143099Y0099654D02*
X0144050Y0099654D01*
X0144050Y0098656D02*
X0143099Y0098656D01*
X0143176Y0097657D02*
X0144050Y0097657D01*
X0136031Y0096659D02*
X0134969Y0096659D01*
X0152457Y0102650D02*
X0154543Y0102650D01*
X0154050Y0103648D02*
X0153113Y0103648D01*
X0153150Y0104647D02*
X0154050Y0104647D01*
X0154050Y0105645D02*
X0153150Y0105645D01*
X0152950Y0101651D02*
X0154050Y0101651D01*
X0167709Y0154572D02*
X0168259Y0154572D01*
X0168887Y0155571D02*
X0166623Y0155571D01*
X0188916Y0184528D02*
X0203863Y0184528D01*
X0202864Y0185526D02*
X0188849Y0185526D01*
X0188849Y0186525D02*
X0201866Y0186525D01*
X0200867Y0187523D02*
X0188849Y0187523D01*
X0188849Y0188522D02*
X0200200Y0188522D01*
X0200200Y0189520D02*
X0188849Y0189520D01*
X0188849Y0190519D02*
X0200200Y0190519D01*
X0282349Y0190519D02*
X0285372Y0190519D01*
X0285200Y0191517D02*
X0282349Y0191517D01*
X0282349Y0192516D02*
X0285200Y0192516D01*
X0285200Y0193514D02*
X0282349Y0193514D01*
X0282349Y0189520D02*
X0286370Y0189520D01*
X0287369Y0188522D02*
X0282349Y0188522D01*
X0312519Y0181590D02*
X0312519Y0181590D01*
X0317000Y0182300D02*
X0317000Y0182300D01*
X0107213Y0175541D02*
X0098800Y0175541D01*
X0098800Y0176539D02*
X0106215Y0176539D01*
X0105216Y0177538D02*
X0098800Y0177538D01*
X0098800Y0178537D02*
X0104218Y0178537D01*
X0103219Y0179535D02*
X0098800Y0179535D01*
X0098800Y0180534D02*
X0100366Y0180534D01*
X0099289Y0181532D02*
X0098800Y0181532D01*
X0098800Y0182531D02*
X0098876Y0182531D01*
X0098819Y0183529D02*
X0098800Y0183529D01*
X0097000Y0185800D02*
X0097000Y0157800D01*
X0096598Y0157398D01*
X0091500Y0157398D01*
X0091500Y0184398D02*
X0091598Y0186800D01*
X0096000Y0186800D01*
X0097000Y0185800D01*
X0031043Y0059686D02*
X0031000Y0052186D01*
X0048827Y0038300D02*
X0048827Y0037800D01*
D24*
X0053500Y0056800D03*
X0056000Y0061800D03*
X0061000Y0059800D03*
X0065000Y0055800D03*
X0091500Y0062398D03*
X0099500Y0066800D03*
X0107000Y0068800D03*
X0111280Y0064800D03*
X0116500Y0063800D03*
X0119500Y0058800D03*
X0103000Y0061800D03*
X0098500Y0072300D03*
X0100000Y0079800D03*
X0111000Y0090800D03*
X0113500Y0107800D03*
X0101000Y0113800D03*
X0142000Y0130800D03*
X0145500Y0135800D03*
X0149500Y0130800D03*
X0137500Y0142800D03*
X0157000Y0143800D03*
X0165000Y0152800D03*
X0164500Y0158300D03*
X0169500Y0160300D03*
X0177000Y0158300D03*
X0184000Y0159398D03*
X0174000Y0167800D03*
X0167500Y0169300D03*
X0169500Y0174300D03*
X0156000Y0165300D03*
X0142000Y0177300D03*
X0102000Y0183300D03*
X0114500Y0136800D03*
X0173500Y0133800D03*
X0184000Y0127398D03*
X0173500Y0121800D03*
X0192500Y0096300D03*
X0185000Y0073800D03*
X0195500Y0072300D03*
X0208000Y0061800D03*
X0216000Y0065800D03*
X0220500Y0062800D03*
X0229500Y0051800D03*
X0203500Y0042300D03*
X0200000Y0048300D03*
X0192500Y0049800D03*
X0184000Y0026398D03*
X0133240Y0046300D03*
X0123000Y0028300D03*
X0091500Y0027898D03*
X0064000Y0083300D03*
X0052500Y0082800D03*
X0184000Y0187898D03*
X0247000Y0157800D03*
X0264000Y0149800D03*
X0277500Y0161398D03*
X0293000Y0149300D03*
X0277500Y0127898D03*
X0345000Y0149800D03*
X0362500Y0163398D03*
X0362500Y0193898D03*
X0277500Y0190898D03*
X0362500Y0128898D03*
X0327500Y0081300D03*
X0310000Y0076800D03*
X0304000Y0076800D03*
X0288000Y0078800D03*
X0260000Y0080800D03*
X0277500Y0061398D03*
X0296000Y0056300D03*
X0302500Y0056800D03*
X0303500Y0050300D03*
X0317500Y0050300D03*
X0318000Y0057800D03*
X0362500Y0061398D03*
X0362500Y0023898D03*
X0277500Y0025800D03*
D25*
X0277500Y0026300D01*
X0101000Y0113800D02*
X0100000Y0123800D01*
X0103799Y0127599D01*
X0103799Y0161300D01*
X0128200Y0161300D01*
X0132200Y0157300D01*
X0133500Y0157300D01*
X0138000Y0152800D01*
X0138260Y0152800D01*
X0138000Y0152540D01*
X0138000Y0147800D01*
X0140000Y0145800D01*
X0150000Y0145800D01*
X0162500Y0158300D01*
X0164500Y0158300D01*
X0154500Y0168800D02*
X0153000Y0167300D01*
X0152000Y0167300D01*
X0145740Y0161040D01*
X0145740Y0152800D01*
X0141100Y0170400D02*
X0128200Y0170400D01*
X0141100Y0170400D02*
X0144000Y0173300D01*
X0150760Y0173300D01*
X0150500Y0173560D01*
X0150500Y0183300D01*
X0147000Y0186800D01*
X0139720Y0186800D01*
X0138220Y0188300D01*
X0128000Y0188300D01*
X0157500Y0172560D02*
X0158240Y0173300D01*
X0168500Y0173300D01*
X0169500Y0174300D01*
X0174000Y0173300D02*
X0174000Y0176800D01*
X0167083Y0183717D01*
X0167083Y0186800D01*
X0174000Y0173300D02*
X0170500Y0169800D01*
X0168000Y0169800D01*
X0167500Y0169300D01*
X0157500Y0169300D02*
X0157500Y0172560D01*
X0157500Y0169300D02*
X0157000Y0168800D01*
X0154500Y0168800D01*
M02*
