G75*
%MOIN*%
%OFA0B0*%
%FSLAX25Y25*%
%IPPOS*%
%LPD*%
%AMOC8*
5,1,8,0,0,1.08239X$1,22.5*
%
%ADD10C,0.00000*%
%ADD11R,0.05118X0.05906*%
%ADD12R,0.05906X0.05118*%
%ADD13OC8,0.06000*%
%ADD14R,0.07098X0.06299*%
%ADD15R,0.06299X0.05118*%
%ADD16R,0.01181X0.05709*%
%ADD17OC8,0.10000*%
%ADD18R,0.08800X0.04800*%
%ADD19R,0.08661X0.14173*%
%ADD20R,0.10433X0.06890*%
%ADD21R,0.05000X0.10000*%
%ADD22R,0.01969X0.01575*%
%ADD23R,0.01969X0.01181*%
%ADD24R,0.01575X0.01969*%
%ADD25R,0.01181X0.01969*%
%ADD26C,0.03762*%
%ADD27C,0.01000*%
%ADD28C,0.01600*%
%ADD29C,0.05315*%
D10*
X0001000Y0001500D02*
X0001000Y0218961D01*
X0417701Y0218461D01*
X0417701Y0001000D01*
X0001000Y0001500D01*
X0255488Y0072500D02*
X0255490Y0072648D01*
X0255496Y0072796D01*
X0255506Y0072944D01*
X0255520Y0073091D01*
X0255538Y0073238D01*
X0255559Y0073384D01*
X0255585Y0073530D01*
X0255615Y0073675D01*
X0255648Y0073819D01*
X0255686Y0073962D01*
X0255727Y0074104D01*
X0255772Y0074245D01*
X0255820Y0074385D01*
X0255873Y0074524D01*
X0255929Y0074661D01*
X0255989Y0074796D01*
X0256052Y0074930D01*
X0256119Y0075062D01*
X0256190Y0075192D01*
X0256264Y0075320D01*
X0256341Y0075446D01*
X0256422Y0075570D01*
X0256506Y0075692D01*
X0256593Y0075811D01*
X0256684Y0075928D01*
X0256778Y0076043D01*
X0256874Y0076155D01*
X0256974Y0076265D01*
X0257076Y0076371D01*
X0257182Y0076475D01*
X0257290Y0076576D01*
X0257401Y0076674D01*
X0257514Y0076770D01*
X0257630Y0076862D01*
X0257748Y0076951D01*
X0257869Y0077036D01*
X0257992Y0077119D01*
X0258117Y0077198D01*
X0258244Y0077274D01*
X0258373Y0077346D01*
X0258504Y0077415D01*
X0258637Y0077480D01*
X0258772Y0077541D01*
X0258908Y0077599D01*
X0259045Y0077654D01*
X0259184Y0077704D01*
X0259325Y0077751D01*
X0259466Y0077794D01*
X0259609Y0077834D01*
X0259753Y0077869D01*
X0259897Y0077901D01*
X0260043Y0077928D01*
X0260189Y0077952D01*
X0260336Y0077972D01*
X0260483Y0077988D01*
X0260630Y0078000D01*
X0260778Y0078008D01*
X0260926Y0078012D01*
X0261074Y0078012D01*
X0261222Y0078008D01*
X0261370Y0078000D01*
X0261517Y0077988D01*
X0261664Y0077972D01*
X0261811Y0077952D01*
X0261957Y0077928D01*
X0262103Y0077901D01*
X0262247Y0077869D01*
X0262391Y0077834D01*
X0262534Y0077794D01*
X0262675Y0077751D01*
X0262816Y0077704D01*
X0262955Y0077654D01*
X0263092Y0077599D01*
X0263228Y0077541D01*
X0263363Y0077480D01*
X0263496Y0077415D01*
X0263627Y0077346D01*
X0263756Y0077274D01*
X0263883Y0077198D01*
X0264008Y0077119D01*
X0264131Y0077036D01*
X0264252Y0076951D01*
X0264370Y0076862D01*
X0264486Y0076770D01*
X0264599Y0076674D01*
X0264710Y0076576D01*
X0264818Y0076475D01*
X0264924Y0076371D01*
X0265026Y0076265D01*
X0265126Y0076155D01*
X0265222Y0076043D01*
X0265316Y0075928D01*
X0265407Y0075811D01*
X0265494Y0075692D01*
X0265578Y0075570D01*
X0265659Y0075446D01*
X0265736Y0075320D01*
X0265810Y0075192D01*
X0265881Y0075062D01*
X0265948Y0074930D01*
X0266011Y0074796D01*
X0266071Y0074661D01*
X0266127Y0074524D01*
X0266180Y0074385D01*
X0266228Y0074245D01*
X0266273Y0074104D01*
X0266314Y0073962D01*
X0266352Y0073819D01*
X0266385Y0073675D01*
X0266415Y0073530D01*
X0266441Y0073384D01*
X0266462Y0073238D01*
X0266480Y0073091D01*
X0266494Y0072944D01*
X0266504Y0072796D01*
X0266510Y0072648D01*
X0266512Y0072500D01*
X0266510Y0072352D01*
X0266504Y0072204D01*
X0266494Y0072056D01*
X0266480Y0071909D01*
X0266462Y0071762D01*
X0266441Y0071616D01*
X0266415Y0071470D01*
X0266385Y0071325D01*
X0266352Y0071181D01*
X0266314Y0071038D01*
X0266273Y0070896D01*
X0266228Y0070755D01*
X0266180Y0070615D01*
X0266127Y0070476D01*
X0266071Y0070339D01*
X0266011Y0070204D01*
X0265948Y0070070D01*
X0265881Y0069938D01*
X0265810Y0069808D01*
X0265736Y0069680D01*
X0265659Y0069554D01*
X0265578Y0069430D01*
X0265494Y0069308D01*
X0265407Y0069189D01*
X0265316Y0069072D01*
X0265222Y0068957D01*
X0265126Y0068845D01*
X0265026Y0068735D01*
X0264924Y0068629D01*
X0264818Y0068525D01*
X0264710Y0068424D01*
X0264599Y0068326D01*
X0264486Y0068230D01*
X0264370Y0068138D01*
X0264252Y0068049D01*
X0264131Y0067964D01*
X0264008Y0067881D01*
X0263883Y0067802D01*
X0263756Y0067726D01*
X0263627Y0067654D01*
X0263496Y0067585D01*
X0263363Y0067520D01*
X0263228Y0067459D01*
X0263092Y0067401D01*
X0262955Y0067346D01*
X0262816Y0067296D01*
X0262675Y0067249D01*
X0262534Y0067206D01*
X0262391Y0067166D01*
X0262247Y0067131D01*
X0262103Y0067099D01*
X0261957Y0067072D01*
X0261811Y0067048D01*
X0261664Y0067028D01*
X0261517Y0067012D01*
X0261370Y0067000D01*
X0261222Y0066992D01*
X0261074Y0066988D01*
X0260926Y0066988D01*
X0260778Y0066992D01*
X0260630Y0067000D01*
X0260483Y0067012D01*
X0260336Y0067028D01*
X0260189Y0067048D01*
X0260043Y0067072D01*
X0259897Y0067099D01*
X0259753Y0067131D01*
X0259609Y0067166D01*
X0259466Y0067206D01*
X0259325Y0067249D01*
X0259184Y0067296D01*
X0259045Y0067346D01*
X0258908Y0067401D01*
X0258772Y0067459D01*
X0258637Y0067520D01*
X0258504Y0067585D01*
X0258373Y0067654D01*
X0258244Y0067726D01*
X0258117Y0067802D01*
X0257992Y0067881D01*
X0257869Y0067964D01*
X0257748Y0068049D01*
X0257630Y0068138D01*
X0257514Y0068230D01*
X0257401Y0068326D01*
X0257290Y0068424D01*
X0257182Y0068525D01*
X0257076Y0068629D01*
X0256974Y0068735D01*
X0256874Y0068845D01*
X0256778Y0068957D01*
X0256684Y0069072D01*
X0256593Y0069189D01*
X0256506Y0069308D01*
X0256422Y0069430D01*
X0256341Y0069554D01*
X0256264Y0069680D01*
X0256190Y0069808D01*
X0256119Y0069938D01*
X0256052Y0070070D01*
X0255989Y0070204D01*
X0255929Y0070339D01*
X0255873Y0070476D01*
X0255820Y0070615D01*
X0255772Y0070755D01*
X0255727Y0070896D01*
X0255686Y0071038D01*
X0255648Y0071181D01*
X0255615Y0071325D01*
X0255585Y0071470D01*
X0255559Y0071616D01*
X0255538Y0071762D01*
X0255520Y0071909D01*
X0255506Y0072056D01*
X0255496Y0072204D01*
X0255490Y0072352D01*
X0255488Y0072500D01*
X0326488Y0173000D02*
X0326490Y0173148D01*
X0326496Y0173296D01*
X0326506Y0173444D01*
X0326520Y0173591D01*
X0326538Y0173738D01*
X0326559Y0173884D01*
X0326585Y0174030D01*
X0326615Y0174175D01*
X0326648Y0174319D01*
X0326686Y0174462D01*
X0326727Y0174604D01*
X0326772Y0174745D01*
X0326820Y0174885D01*
X0326873Y0175024D01*
X0326929Y0175161D01*
X0326989Y0175296D01*
X0327052Y0175430D01*
X0327119Y0175562D01*
X0327190Y0175692D01*
X0327264Y0175820D01*
X0327341Y0175946D01*
X0327422Y0176070D01*
X0327506Y0176192D01*
X0327593Y0176311D01*
X0327684Y0176428D01*
X0327778Y0176543D01*
X0327874Y0176655D01*
X0327974Y0176765D01*
X0328076Y0176871D01*
X0328182Y0176975D01*
X0328290Y0177076D01*
X0328401Y0177174D01*
X0328514Y0177270D01*
X0328630Y0177362D01*
X0328748Y0177451D01*
X0328869Y0177536D01*
X0328992Y0177619D01*
X0329117Y0177698D01*
X0329244Y0177774D01*
X0329373Y0177846D01*
X0329504Y0177915D01*
X0329637Y0177980D01*
X0329772Y0178041D01*
X0329908Y0178099D01*
X0330045Y0178154D01*
X0330184Y0178204D01*
X0330325Y0178251D01*
X0330466Y0178294D01*
X0330609Y0178334D01*
X0330753Y0178369D01*
X0330897Y0178401D01*
X0331043Y0178428D01*
X0331189Y0178452D01*
X0331336Y0178472D01*
X0331483Y0178488D01*
X0331630Y0178500D01*
X0331778Y0178508D01*
X0331926Y0178512D01*
X0332074Y0178512D01*
X0332222Y0178508D01*
X0332370Y0178500D01*
X0332517Y0178488D01*
X0332664Y0178472D01*
X0332811Y0178452D01*
X0332957Y0178428D01*
X0333103Y0178401D01*
X0333247Y0178369D01*
X0333391Y0178334D01*
X0333534Y0178294D01*
X0333675Y0178251D01*
X0333816Y0178204D01*
X0333955Y0178154D01*
X0334092Y0178099D01*
X0334228Y0178041D01*
X0334363Y0177980D01*
X0334496Y0177915D01*
X0334627Y0177846D01*
X0334756Y0177774D01*
X0334883Y0177698D01*
X0335008Y0177619D01*
X0335131Y0177536D01*
X0335252Y0177451D01*
X0335370Y0177362D01*
X0335486Y0177270D01*
X0335599Y0177174D01*
X0335710Y0177076D01*
X0335818Y0176975D01*
X0335924Y0176871D01*
X0336026Y0176765D01*
X0336126Y0176655D01*
X0336222Y0176543D01*
X0336316Y0176428D01*
X0336407Y0176311D01*
X0336494Y0176192D01*
X0336578Y0176070D01*
X0336659Y0175946D01*
X0336736Y0175820D01*
X0336810Y0175692D01*
X0336881Y0175562D01*
X0336948Y0175430D01*
X0337011Y0175296D01*
X0337071Y0175161D01*
X0337127Y0175024D01*
X0337180Y0174885D01*
X0337228Y0174745D01*
X0337273Y0174604D01*
X0337314Y0174462D01*
X0337352Y0174319D01*
X0337385Y0174175D01*
X0337415Y0174030D01*
X0337441Y0173884D01*
X0337462Y0173738D01*
X0337480Y0173591D01*
X0337494Y0173444D01*
X0337504Y0173296D01*
X0337510Y0173148D01*
X0337512Y0173000D01*
X0337510Y0172852D01*
X0337504Y0172704D01*
X0337494Y0172556D01*
X0337480Y0172409D01*
X0337462Y0172262D01*
X0337441Y0172116D01*
X0337415Y0171970D01*
X0337385Y0171825D01*
X0337352Y0171681D01*
X0337314Y0171538D01*
X0337273Y0171396D01*
X0337228Y0171255D01*
X0337180Y0171115D01*
X0337127Y0170976D01*
X0337071Y0170839D01*
X0337011Y0170704D01*
X0336948Y0170570D01*
X0336881Y0170438D01*
X0336810Y0170308D01*
X0336736Y0170180D01*
X0336659Y0170054D01*
X0336578Y0169930D01*
X0336494Y0169808D01*
X0336407Y0169689D01*
X0336316Y0169572D01*
X0336222Y0169457D01*
X0336126Y0169345D01*
X0336026Y0169235D01*
X0335924Y0169129D01*
X0335818Y0169025D01*
X0335710Y0168924D01*
X0335599Y0168826D01*
X0335486Y0168730D01*
X0335370Y0168638D01*
X0335252Y0168549D01*
X0335131Y0168464D01*
X0335008Y0168381D01*
X0334883Y0168302D01*
X0334756Y0168226D01*
X0334627Y0168154D01*
X0334496Y0168085D01*
X0334363Y0168020D01*
X0334228Y0167959D01*
X0334092Y0167901D01*
X0333955Y0167846D01*
X0333816Y0167796D01*
X0333675Y0167749D01*
X0333534Y0167706D01*
X0333391Y0167666D01*
X0333247Y0167631D01*
X0333103Y0167599D01*
X0332957Y0167572D01*
X0332811Y0167548D01*
X0332664Y0167528D01*
X0332517Y0167512D01*
X0332370Y0167500D01*
X0332222Y0167492D01*
X0332074Y0167488D01*
X0331926Y0167488D01*
X0331778Y0167492D01*
X0331630Y0167500D01*
X0331483Y0167512D01*
X0331336Y0167528D01*
X0331189Y0167548D01*
X0331043Y0167572D01*
X0330897Y0167599D01*
X0330753Y0167631D01*
X0330609Y0167666D01*
X0330466Y0167706D01*
X0330325Y0167749D01*
X0330184Y0167796D01*
X0330045Y0167846D01*
X0329908Y0167901D01*
X0329772Y0167959D01*
X0329637Y0168020D01*
X0329504Y0168085D01*
X0329373Y0168154D01*
X0329244Y0168226D01*
X0329117Y0168302D01*
X0328992Y0168381D01*
X0328869Y0168464D01*
X0328748Y0168549D01*
X0328630Y0168638D01*
X0328514Y0168730D01*
X0328401Y0168826D01*
X0328290Y0168924D01*
X0328182Y0169025D01*
X0328076Y0169129D01*
X0327974Y0169235D01*
X0327874Y0169345D01*
X0327778Y0169457D01*
X0327684Y0169572D01*
X0327593Y0169689D01*
X0327506Y0169808D01*
X0327422Y0169930D01*
X0327341Y0170054D01*
X0327264Y0170180D01*
X0327190Y0170308D01*
X0327119Y0170438D01*
X0327052Y0170570D01*
X0326989Y0170704D01*
X0326929Y0170839D01*
X0326873Y0170976D01*
X0326820Y0171115D01*
X0326772Y0171255D01*
X0326727Y0171396D01*
X0326686Y0171538D01*
X0326648Y0171681D01*
X0326615Y0171825D01*
X0326585Y0171970D01*
X0326559Y0172116D01*
X0326538Y0172262D01*
X0326520Y0172409D01*
X0326506Y0172556D01*
X0326496Y0172704D01*
X0326490Y0172852D01*
X0326488Y0173000D01*
D11*
X0173240Y0178500D03*
X0165760Y0178500D03*
X0160740Y0158000D03*
X0153260Y0158000D03*
X0154240Y0106000D03*
X0146760Y0106000D03*
D12*
X0137500Y0102260D03*
X0137500Y0109740D03*
X0147500Y0116260D03*
X0137500Y0119260D03*
X0137500Y0126740D03*
X0147500Y0123740D03*
X0158500Y0121260D03*
X0158500Y0128740D03*
X0147500Y0133260D03*
X0147500Y0140740D03*
X0137500Y0143740D03*
X0137500Y0136260D03*
X0119000Y0105858D03*
X0119000Y0098378D03*
D13*
X0042500Y0030500D03*
X0221000Y0168000D03*
X0231000Y0168000D03*
X0241000Y0168000D03*
X0241000Y0178000D03*
X0231000Y0178000D03*
X0221000Y0178000D03*
X0143000Y0193500D03*
D14*
X0106500Y0187598D03*
X0106500Y0176402D03*
X0106500Y0159598D03*
X0106500Y0148402D03*
X0106500Y0126598D03*
X0106500Y0115402D03*
X0106500Y0094598D03*
X0106500Y0083402D03*
X0106500Y0063598D03*
X0106500Y0052402D03*
X0106500Y0031598D03*
X0106500Y0020402D03*
X0199000Y0023402D03*
X0199000Y0034598D03*
X0199000Y0048902D03*
X0199000Y0060098D03*
X0199000Y0083402D03*
X0199000Y0094598D03*
X0199000Y0116402D03*
X0199000Y0127598D03*
X0199000Y0148402D03*
X0199000Y0159598D03*
X0199000Y0179902D03*
X0199000Y0191098D03*
X0292500Y0193598D03*
X0292500Y0182402D03*
X0292500Y0159598D03*
X0292500Y0148402D03*
X0292500Y0126098D03*
X0292500Y0114902D03*
X0292500Y0093598D03*
X0292500Y0082402D03*
X0292500Y0060598D03*
X0292500Y0049402D03*
X0292500Y0030098D03*
X0292500Y0018902D03*
X0378000Y0016402D03*
X0378000Y0027598D03*
X0377500Y0047902D03*
X0377500Y0059098D03*
X0377500Y0080902D03*
X0377500Y0092098D03*
X0377500Y0115402D03*
X0377500Y0126598D03*
X0377500Y0148902D03*
X0377500Y0160098D03*
X0377500Y0184402D03*
X0377500Y0195598D03*
D15*
X0173500Y0111740D03*
X0163500Y0111740D03*
X0163500Y0104260D03*
X0173500Y0104260D03*
D16*
X0215043Y0060614D03*
X0217602Y0060614D03*
X0220161Y0060614D03*
X0222720Y0060614D03*
X0225280Y0060614D03*
X0227839Y0060614D03*
X0230398Y0060614D03*
X0232957Y0060614D03*
X0232957Y0037386D03*
X0230398Y0037386D03*
X0227839Y0037386D03*
X0225280Y0037386D03*
X0222720Y0037386D03*
X0220161Y0037386D03*
X0217602Y0037386D03*
X0215043Y0037386D03*
X0133957Y0035886D03*
X0131398Y0035886D03*
X0128839Y0035886D03*
X0126280Y0035886D03*
X0123720Y0035886D03*
X0121161Y0035886D03*
X0118602Y0035886D03*
X0116043Y0035886D03*
X0116043Y0059114D03*
X0118602Y0059114D03*
X0121161Y0059114D03*
X0123720Y0059114D03*
X0126280Y0059114D03*
X0128839Y0059114D03*
X0131398Y0059114D03*
X0133957Y0059114D03*
X0063957Y0064886D03*
X0061398Y0064886D03*
X0058839Y0064886D03*
X0056280Y0064886D03*
X0053720Y0064886D03*
X0051161Y0064886D03*
X0048602Y0064886D03*
X0046043Y0064886D03*
X0046043Y0088114D03*
X0048602Y0088114D03*
X0051161Y0088114D03*
X0053720Y0088114D03*
X0056280Y0088114D03*
X0058839Y0088114D03*
X0061398Y0088114D03*
X0063957Y0088114D03*
X0303543Y0070114D03*
X0306102Y0070114D03*
X0308661Y0070114D03*
X0311220Y0070114D03*
X0313780Y0070114D03*
X0316339Y0070114D03*
X0318898Y0070114D03*
X0321457Y0070114D03*
X0321457Y0046886D03*
X0318898Y0046886D03*
X0316339Y0046886D03*
X0313780Y0046886D03*
X0311220Y0046886D03*
X0308661Y0046886D03*
X0306102Y0046886D03*
X0303543Y0046886D03*
D17*
X0034500Y0193500D03*
X0129000Y0194000D03*
X0222500Y0196500D03*
X0307000Y0199000D03*
D18*
X0143200Y0175600D03*
X0143200Y0166500D03*
X0143200Y0157400D03*
D19*
X0118799Y0166500D03*
D20*
X0154720Y0192000D03*
X0182083Y0192000D03*
D21*
X0395000Y0074000D03*
X0405000Y0074000D03*
X0036000Y0069000D03*
X0026000Y0069000D03*
D22*
X0155031Y0034256D03*
X0158969Y0034256D03*
X0158969Y0028350D03*
X0158969Y0025756D03*
X0155031Y0025756D03*
X0155031Y0028350D03*
X0155031Y0019850D03*
X0158969Y0019850D03*
X0254031Y0021850D03*
X0257969Y0021850D03*
X0257969Y0027756D03*
X0257969Y0030350D03*
X0254031Y0030350D03*
X0254031Y0027756D03*
X0254031Y0036256D03*
X0257969Y0036256D03*
X0333031Y0034350D03*
X0333031Y0031256D03*
X0336969Y0031256D03*
X0336969Y0034350D03*
X0336969Y0040256D03*
X0333031Y0040256D03*
X0333031Y0025350D03*
X0336969Y0025350D03*
D23*
X0336969Y0027319D03*
X0336969Y0029287D03*
X0333031Y0029287D03*
X0333031Y0027319D03*
X0333031Y0036319D03*
X0333031Y0038287D03*
X0336969Y0038287D03*
X0336969Y0036319D03*
X0257969Y0034287D03*
X0257969Y0032319D03*
X0254031Y0032319D03*
X0254031Y0034287D03*
X0254031Y0025787D03*
X0254031Y0023819D03*
X0257969Y0023819D03*
X0257969Y0025787D03*
X0158969Y0023787D03*
X0158969Y0021819D03*
X0155031Y0021819D03*
X0155031Y0023787D03*
X0155031Y0030319D03*
X0155031Y0032287D03*
X0158969Y0032287D03*
X0158969Y0030319D03*
D24*
X0059256Y0050031D03*
X0059256Y0053969D03*
X0053350Y0053969D03*
X0050756Y0053969D03*
X0050756Y0050031D03*
X0053350Y0050031D03*
X0044850Y0050031D03*
X0044850Y0053969D03*
D25*
X0046819Y0053969D03*
X0048787Y0053969D03*
X0048787Y0050031D03*
X0046819Y0050031D03*
X0055319Y0050031D03*
X0057287Y0050031D03*
X0057287Y0053969D03*
X0055319Y0053969D03*
D26*
X0068500Y0062000D03*
X0081500Y0068000D03*
X0086000Y0072500D03*
X0077000Y0073500D03*
X0073500Y0078000D03*
X0069500Y0083500D03*
X0064000Y0079000D03*
X0058500Y0080000D03*
X0056000Y0073000D03*
X0050000Y0073500D03*
X0083500Y0087000D03*
X0115500Y0084500D03*
X0115500Y0079500D03*
X0115000Y0074500D03*
X0118000Y0068500D03*
X0122000Y0074000D03*
X0126280Y0070000D03*
X0131000Y0071000D03*
X0134500Y0067500D03*
X0149740Y0050000D03*
X0143000Y0033500D03*
X0117500Y0046000D03*
X0099000Y0031098D03*
X0175000Y0033500D03*
X0211000Y0037000D03*
X0211000Y0045500D03*
X0218500Y0049500D03*
X0222500Y0053000D03*
X0230500Y0052000D03*
X0237000Y0054000D03*
X0241500Y0050000D03*
X0248500Y0049000D03*
X0241000Y0065000D03*
X0235000Y0072000D03*
X0228500Y0069500D03*
X0211000Y0060000D03*
X0199500Y0076500D03*
X0210000Y0080500D03*
X0206000Y0100500D03*
X0173000Y0084000D03*
X0125500Y0095000D03*
X0128500Y0113000D03*
X0115000Y0119500D03*
X0082500Y0121500D03*
X0129500Y0142000D03*
X0152500Y0147000D03*
X0160500Y0141000D03*
X0157000Y0136000D03*
X0164500Y0136000D03*
X0172000Y0147000D03*
X0190000Y0139500D03*
X0189000Y0127000D03*
X0180000Y0158000D03*
X0179500Y0163500D03*
X0184500Y0165500D03*
X0194000Y0165500D03*
X0200500Y0169500D03*
X0193500Y0175000D03*
X0182500Y0174500D03*
X0171000Y0170500D03*
X0158000Y0180500D03*
X0117000Y0187000D03*
X0210000Y0163500D03*
X0262000Y0163000D03*
X0279000Y0155000D03*
X0292000Y0168500D03*
X0308000Y0154500D03*
X0341000Y0086500D03*
X0327000Y0085000D03*
X0323000Y0079000D03*
X0316500Y0077500D03*
X0327500Y0071000D03*
X0333500Y0064000D03*
X0318500Y0055500D03*
X0311000Y0061500D03*
X0293500Y0070500D03*
X0302500Y0082500D03*
X0275000Y0086000D03*
X0325500Y0042000D03*
X0300000Y0034500D03*
X0387500Y0067000D03*
X0387500Y0077500D03*
D27*
X0391000Y0074000D01*
X0395000Y0074000D01*
X0394500Y0074391D02*
X0385300Y0074391D01*
X0385300Y0073393D02*
X0391000Y0073393D01*
X0391000Y0073500D02*
X0391000Y0068803D01*
X0391102Y0068421D01*
X0391300Y0068079D01*
X0391579Y0067800D01*
X0391921Y0067602D01*
X0392303Y0067500D01*
X0394500Y0067500D01*
X0394500Y0073500D01*
X0395500Y0073500D01*
X0395500Y0067500D01*
X0397697Y0067500D01*
X0398079Y0067602D01*
X0398421Y0067800D01*
X0398654Y0068033D01*
X0398500Y0007000D01*
X0111349Y0017158D01*
X0111349Y0024090D01*
X0110588Y0024851D01*
X0102412Y0024851D01*
X0101651Y0024090D01*
X0101651Y0022202D01*
X0098344Y0022202D01*
X0085846Y0034700D01*
X0100461Y0034700D01*
X0101167Y0034669D01*
X0101200Y0034700D01*
X0101246Y0034700D01*
X0101651Y0035105D01*
X0101651Y0032946D01*
X0100802Y0033795D01*
X0099633Y0034280D01*
X0098367Y0034280D01*
X0097198Y0033795D01*
X0096303Y0032900D01*
X0095819Y0031731D01*
X0095819Y0030466D01*
X0096303Y0029296D01*
X0097198Y0028402D01*
X0098367Y0027917D01*
X0099633Y0027917D01*
X0100802Y0028402D01*
X0101651Y0029250D01*
X0101651Y0027910D01*
X0102412Y0027149D01*
X0110588Y0027149D01*
X0111349Y0027910D01*
X0111349Y0033902D01*
X0111700Y0034253D01*
X0111700Y0025754D01*
X0118350Y0019105D01*
X0119404Y0018050D01*
X0153221Y0018050D01*
X0153509Y0017763D01*
X0156554Y0017763D01*
X0157000Y0018209D01*
X0157446Y0017763D01*
X0160491Y0017763D01*
X0160779Y0018050D01*
X0192187Y0018050D01*
X0192651Y0017913D01*
X0192905Y0018050D01*
X0193194Y0018050D01*
X0193537Y0018393D01*
X0194791Y0019073D01*
X0194912Y0018952D01*
X0203088Y0018952D01*
X0203849Y0019713D01*
X0203849Y0027090D01*
X0203088Y0027851D01*
X0194912Y0027851D01*
X0194151Y0027090D01*
X0194151Y0022820D01*
X0191992Y0021650D01*
X0187196Y0021650D01*
X0193246Y0027700D01*
X0194300Y0028754D01*
X0194300Y0030761D01*
X0194912Y0030149D01*
X0203088Y0030149D01*
X0203849Y0030910D01*
X0203849Y0037606D01*
X0205200Y0039227D01*
X0205200Y0032173D01*
X0205152Y0032118D01*
X0205200Y0031437D01*
X0205200Y0030754D01*
X0205251Y0030703D01*
X0205256Y0030631D01*
X0205772Y0030183D01*
X0206254Y0029700D01*
X0206327Y0029700D01*
X0217272Y0020183D01*
X0217754Y0019700D01*
X0217827Y0019700D01*
X0217881Y0019652D01*
X0218563Y0019700D01*
X0254427Y0019700D01*
X0254490Y0019763D01*
X0255554Y0019763D01*
X0256000Y0020209D01*
X0256446Y0019763D01*
X0259491Y0019763D01*
X0259665Y0019937D01*
X0287651Y0018130D01*
X0287651Y0015213D01*
X0288412Y0014452D01*
X0296588Y0014452D01*
X0297349Y0015213D01*
X0297349Y0022590D01*
X0296588Y0023351D01*
X0288412Y0023351D01*
X0287651Y0022590D01*
X0287651Y0021738D01*
X0283298Y0022019D01*
X0284564Y0022019D01*
X0288246Y0025700D01*
X0288303Y0025758D01*
X0288412Y0025649D01*
X0296588Y0025649D01*
X0297349Y0026410D01*
X0297349Y0031532D01*
X0297984Y0032017D01*
X0298198Y0031803D01*
X0299367Y0031319D01*
X0300633Y0031319D01*
X0301802Y0031803D01*
X0302697Y0032698D01*
X0303181Y0033867D01*
X0303181Y0035133D01*
X0302697Y0036302D01*
X0301802Y0037197D01*
X0300633Y0037681D01*
X0299367Y0037681D01*
X0298198Y0037197D01*
X0297303Y0036302D01*
X0297135Y0035896D01*
X0295367Y0034548D01*
X0294300Y0034548D01*
X0294300Y0037254D01*
X0299200Y0042154D01*
X0299200Y0040754D01*
X0315700Y0024254D01*
X0316754Y0023200D01*
X0333427Y0023200D01*
X0333490Y0023263D01*
X0334554Y0023263D01*
X0335000Y0023709D01*
X0335446Y0023263D01*
X0338015Y0023263D01*
X0372935Y0015236D01*
X0373010Y0015143D01*
X0373151Y0015128D01*
X0373151Y0012713D01*
X0373912Y0011952D01*
X0382088Y0011952D01*
X0382849Y0012713D01*
X0382849Y0020090D01*
X0382088Y0020851D01*
X0373912Y0020851D01*
X0373151Y0020090D01*
X0373151Y0018881D01*
X0344271Y0025519D01*
X0365564Y0025519D01*
X0373246Y0033200D01*
X0374300Y0034254D01*
X0374300Y0038281D01*
X0377847Y0039700D01*
X0378246Y0039700D01*
X0378512Y0039966D01*
X0378861Y0040106D01*
X0379018Y0040472D01*
X0379300Y0040754D01*
X0379300Y0041131D01*
X0379448Y0041476D01*
X0379300Y0041847D01*
X0379300Y0043452D01*
X0381588Y0043452D01*
X0381700Y0043564D01*
X0381700Y0039507D01*
X0378133Y0032048D01*
X0373912Y0032048D01*
X0373151Y0031287D01*
X0373151Y0023910D01*
X0373912Y0023149D01*
X0382088Y0023149D01*
X0382849Y0023910D01*
X0382849Y0031287D01*
X0382112Y0032024D01*
X0384991Y0038044D01*
X0385300Y0038353D01*
X0385300Y0038690D01*
X0385446Y0038994D01*
X0385300Y0039407D01*
X0385300Y0064701D01*
X0385698Y0064303D01*
X0386867Y0063819D01*
X0388133Y0063819D01*
X0389302Y0064303D01*
X0390197Y0065198D01*
X0390681Y0066367D01*
X0390681Y0067633D01*
X0390197Y0068802D01*
X0389302Y0069697D01*
X0388133Y0070181D01*
X0387922Y0070181D01*
X0387777Y0070472D01*
X0387472Y0070573D01*
X0387246Y0070800D01*
X0386792Y0070800D01*
X0386362Y0070943D01*
X0386075Y0070800D01*
X0385300Y0070800D01*
X0385300Y0100301D01*
X0385331Y0100335D01*
X0385300Y0101040D01*
X0385300Y0129826D01*
X0385347Y0129879D01*
X0385300Y0130562D01*
X0385300Y0164310D01*
X0385337Y0164352D01*
X0385300Y0165048D01*
X0385300Y0187746D01*
X0384246Y0188800D01*
X0382347Y0190699D01*
X0381909Y0191471D01*
X0382349Y0191910D01*
X0382349Y0199287D01*
X0381588Y0200048D01*
X0373412Y0200048D01*
X0372651Y0199287D01*
X0372651Y0191910D01*
X0373412Y0191149D01*
X0377953Y0191149D01*
X0379102Y0189124D01*
X0379102Y0188853D01*
X0379103Y0188851D01*
X0373412Y0188851D01*
X0372651Y0188090D01*
X0372651Y0180713D01*
X0373412Y0179952D01*
X0375496Y0179952D01*
X0375234Y0174181D01*
X0375200Y0174147D01*
X0375200Y0173700D01*
X0370640Y0171800D01*
X0370254Y0171800D01*
X0369979Y0171525D01*
X0369619Y0171375D01*
X0369473Y0171018D01*
X0369200Y0170746D01*
X0369200Y0170356D01*
X0369052Y0169996D01*
X0369200Y0169640D01*
X0369200Y0155746D01*
X0367200Y0153746D01*
X0367200Y0126746D01*
X0364200Y0123746D01*
X0364200Y0081746D01*
X0362254Y0079800D01*
X0361200Y0078746D01*
X0361200Y0039746D01*
X0359573Y0038119D01*
X0339253Y0038119D01*
X0339253Y0041582D01*
X0338491Y0042343D01*
X0335446Y0042343D01*
X0335000Y0041898D01*
X0334554Y0042343D01*
X0331509Y0042343D01*
X0330747Y0041582D01*
X0330747Y0038300D01*
X0322246Y0038300D01*
X0317814Y0042731D01*
X0320027Y0042731D01*
X0320177Y0042882D01*
X0320328Y0042731D01*
X0322360Y0042731D01*
X0322319Y0042633D01*
X0322319Y0041367D01*
X0322803Y0040198D01*
X0323698Y0039303D01*
X0324867Y0038819D01*
X0326133Y0038819D01*
X0327302Y0039303D01*
X0328197Y0040198D01*
X0328681Y0041367D01*
X0328681Y0042633D01*
X0328197Y0043802D01*
X0327302Y0044697D01*
X0326133Y0045181D01*
X0325707Y0045181D01*
X0323347Y0047541D01*
X0323347Y0050279D01*
X0322586Y0051040D01*
X0320328Y0051040D01*
X0320177Y0050890D01*
X0320027Y0051040D01*
X0317769Y0051040D01*
X0317618Y0050890D01*
X0317468Y0051040D01*
X0315210Y0051040D01*
X0315059Y0050890D01*
X0314909Y0051040D01*
X0312650Y0051040D01*
X0312500Y0050890D01*
X0312349Y0051040D01*
X0310091Y0051040D01*
X0309941Y0050890D01*
X0309790Y0051040D01*
X0307532Y0051040D01*
X0307382Y0050890D01*
X0307231Y0051040D01*
X0304973Y0051040D01*
X0304823Y0050890D01*
X0304672Y0051040D01*
X0302800Y0051040D01*
X0302800Y0065760D01*
X0303543Y0065760D01*
X0303543Y0070114D01*
X0303543Y0070114D01*
X0303543Y0064457D01*
X0308500Y0055500D01*
X0318500Y0055500D01*
X0313697Y0059698D02*
X0314181Y0060867D01*
X0314181Y0062133D01*
X0313697Y0063302D01*
X0313078Y0063920D01*
X0313383Y0063920D01*
X0316454Y0062501D01*
X0316754Y0062200D01*
X0317104Y0062200D01*
X0317421Y0062053D01*
X0317820Y0062200D01*
X0330802Y0062200D01*
X0330803Y0062198D01*
X0331698Y0061303D01*
X0332867Y0060819D01*
X0334133Y0060819D01*
X0335302Y0061303D01*
X0336197Y0062198D01*
X0336681Y0063367D01*
X0336681Y0064633D01*
X0336197Y0065802D01*
X0335612Y0066386D01*
X0335709Y0067164D01*
X0341746Y0073200D01*
X0342800Y0074254D01*
X0342800Y0083802D01*
X0342802Y0083803D01*
X0343697Y0084698D01*
X0344181Y0085867D01*
X0344181Y0087133D01*
X0343697Y0088302D01*
X0342802Y0089197D01*
X0341633Y0089681D01*
X0340367Y0089681D01*
X0339198Y0089197D01*
X0338303Y0088302D01*
X0337819Y0087133D01*
X0337819Y0085867D01*
X0338303Y0084698D01*
X0339198Y0083803D01*
X0339200Y0083802D01*
X0339200Y0075746D01*
X0332806Y0069352D01*
X0332306Y0068963D01*
X0332291Y0068836D01*
X0332200Y0068746D01*
X0332200Y0068112D01*
X0332041Y0066839D01*
X0331698Y0066697D01*
X0330803Y0065802D01*
X0330802Y0065800D01*
X0317896Y0065800D01*
X0317494Y0065986D01*
X0317618Y0066110D01*
X0317769Y0065960D01*
X0320027Y0065960D01*
X0320177Y0066110D01*
X0320328Y0065960D01*
X0322586Y0065960D01*
X0323347Y0066721D01*
X0323347Y0073507D01*
X0322586Y0074268D01*
X0322369Y0074268D01*
X0322378Y0074284D01*
X0322676Y0074507D01*
X0322733Y0074905D01*
X0323255Y0075819D01*
X0323633Y0075819D01*
X0324271Y0076083D01*
X0325288Y0075447D01*
X0325468Y0073467D01*
X0324803Y0072802D01*
X0324319Y0071633D01*
X0324319Y0070367D01*
X0324803Y0069198D01*
X0325698Y0068303D01*
X0326867Y0067819D01*
X0328133Y0067819D01*
X0329302Y0068303D01*
X0330197Y0069198D01*
X0330681Y0070367D01*
X0330681Y0071633D01*
X0330197Y0072802D01*
X0329302Y0073697D01*
X0329053Y0073800D01*
X0328847Y0076060D01*
X0328922Y0076178D01*
X0328781Y0076785D01*
X0328725Y0077405D01*
X0328618Y0077495D01*
X0328586Y0077631D01*
X0328058Y0077961D01*
X0327580Y0078360D01*
X0327440Y0078347D01*
X0326181Y0079134D01*
X0326181Y0079633D01*
X0325697Y0080802D01*
X0324802Y0081697D01*
X0323633Y0082181D01*
X0322367Y0082181D01*
X0321198Y0081697D01*
X0320303Y0080802D01*
X0319819Y0079633D01*
X0319819Y0078367D01*
X0320133Y0077610D01*
X0319622Y0076716D01*
X0319617Y0076713D01*
X0319681Y0076867D01*
X0319681Y0078133D01*
X0319197Y0079302D01*
X0318302Y0080197D01*
X0317133Y0080681D01*
X0315867Y0080681D01*
X0314698Y0080197D01*
X0313803Y0079302D01*
X0313319Y0078133D01*
X0313319Y0076867D01*
X0313803Y0075698D01*
X0314539Y0074963D01*
X0314539Y0074463D01*
X0314512Y0074268D01*
X0312650Y0074268D01*
X0312500Y0074118D01*
X0312349Y0074268D01*
X0310300Y0074268D01*
X0310300Y0078246D01*
X0309246Y0079300D01*
X0305681Y0082864D01*
X0305681Y0083133D01*
X0305197Y0084302D01*
X0304302Y0085197D01*
X0303133Y0085681D01*
X0301867Y0085681D01*
X0300698Y0085197D01*
X0300300Y0084799D01*
X0300300Y0185470D01*
X0300387Y0186082D01*
X0300300Y0186198D01*
X0300300Y0186344D01*
X0299863Y0186781D01*
X0297349Y0190133D01*
X0297349Y0197287D01*
X0296588Y0198048D01*
X0288412Y0198048D01*
X0287651Y0197287D01*
X0287651Y0189910D01*
X0288412Y0189149D01*
X0293587Y0189149D01*
X0295310Y0186851D01*
X0288412Y0186851D01*
X0287651Y0186090D01*
X0287651Y0178713D01*
X0288412Y0177952D01*
X0289991Y0177952D01*
X0285438Y0174800D01*
X0285254Y0174800D01*
X0284842Y0174388D01*
X0284362Y0174056D01*
X0284330Y0173875D01*
X0284200Y0173746D01*
X0284200Y0173162D01*
X0284096Y0172588D01*
X0284200Y0172438D01*
X0284200Y0147746D01*
X0282254Y0145800D01*
X0281200Y0144746D01*
X0281200Y0112998D01*
X0278484Y0111300D01*
X0278254Y0111300D01*
X0277872Y0110918D01*
X0277414Y0110631D01*
X0277362Y0110408D01*
X0277200Y0110246D01*
X0277200Y0109705D01*
X0277078Y0109178D01*
X0277200Y0108984D01*
X0277200Y0088299D01*
X0276802Y0088697D01*
X0275633Y0089181D01*
X0274367Y0089181D01*
X0274365Y0089180D01*
X0272246Y0091300D01*
X0250254Y0091300D01*
X0242254Y0083300D01*
X0233714Y0083300D01*
X0233691Y0083322D01*
X0232973Y0083300D01*
X0232254Y0083300D01*
X0232232Y0083278D01*
X0232200Y0083277D01*
X0231708Y0082754D01*
X0231200Y0082246D01*
X0231200Y0082214D01*
X0223708Y0074254D01*
X0223200Y0073746D01*
X0223200Y0073714D01*
X0223178Y0073691D01*
X0223200Y0072973D01*
X0223200Y0064768D01*
X0221591Y0064768D01*
X0221445Y0064622D01*
X0220300Y0066112D01*
X0220300Y0072746D01*
X0219246Y0073800D01*
X0213180Y0079865D01*
X0213181Y0079867D01*
X0213181Y0081133D01*
X0212697Y0082302D01*
X0211802Y0083197D01*
X0210633Y0083681D01*
X0209367Y0083681D01*
X0208198Y0083197D01*
X0207303Y0082302D01*
X0206819Y0081133D01*
X0206819Y0080147D01*
X0206800Y0080169D01*
X0206800Y0092746D01*
X0205746Y0093800D01*
X0205746Y0093800D01*
X0203849Y0095696D01*
X0203849Y0098152D01*
X0204198Y0097803D01*
X0205367Y0097319D01*
X0206633Y0097319D01*
X0207802Y0097803D01*
X0208697Y0098698D01*
X0208698Y0098700D01*
X0223496Y0098700D01*
X0224237Y0098697D01*
X0224241Y0098700D01*
X0224246Y0098700D01*
X0224770Y0099224D01*
X0278004Y0151970D01*
X0278367Y0151819D01*
X0279633Y0151819D01*
X0280802Y0152303D01*
X0281697Y0153198D01*
X0282181Y0154367D01*
X0282181Y0155633D01*
X0281697Y0156802D01*
X0280802Y0157697D01*
X0279633Y0158181D01*
X0278367Y0158181D01*
X0277198Y0157697D01*
X0276303Y0156802D01*
X0275819Y0155633D01*
X0275819Y0154873D01*
X0222759Y0102300D01*
X0208698Y0102300D01*
X0208697Y0102302D01*
X0207802Y0103197D01*
X0206633Y0103681D01*
X0205367Y0103681D01*
X0204198Y0103197D01*
X0203800Y0102799D01*
X0203800Y0103754D01*
X0205746Y0105700D01*
X0206800Y0106754D01*
X0206800Y0191246D01*
X0205746Y0192300D01*
X0203849Y0194196D01*
X0203849Y0194787D01*
X0203088Y0195548D01*
X0194998Y0195548D01*
X0191300Y0199246D01*
X0190246Y0200300D01*
X0175754Y0200300D01*
X0172254Y0196800D01*
X0171200Y0195746D01*
X0171200Y0182753D01*
X0170143Y0182753D01*
X0169500Y0182110D01*
X0168857Y0182753D01*
X0167600Y0182753D01*
X0167600Y0189370D01*
X0166370Y0190600D01*
X0166370Y0190600D01*
X0164100Y0192870D01*
X0162870Y0194100D01*
X0161237Y0194100D01*
X0161237Y0195983D01*
X0160475Y0196745D01*
X0148965Y0196745D01*
X0148204Y0195983D01*
X0148204Y0195600D01*
X0146981Y0195600D01*
X0144781Y0197800D01*
X0141219Y0197800D01*
X0138700Y0195281D01*
X0138700Y0191719D01*
X0141219Y0189200D01*
X0144781Y0189200D01*
X0146981Y0191400D01*
X0148204Y0191400D01*
X0148204Y0188017D01*
X0148965Y0187255D01*
X0160475Y0187255D01*
X0161237Y0188017D01*
X0161237Y0189793D01*
X0163400Y0187630D01*
X0163400Y0182753D01*
X0162662Y0182753D01*
X0161901Y0181991D01*
X0161901Y0179371D01*
X0161900Y0179370D01*
X0160230Y0177700D01*
X0159553Y0177700D01*
X0159802Y0177803D01*
X0160697Y0178698D01*
X0161181Y0179867D01*
X0161181Y0181133D01*
X0160697Y0182302D01*
X0159802Y0183197D01*
X0158633Y0183681D01*
X0157367Y0183681D01*
X0156198Y0183197D01*
X0155303Y0182302D01*
X0155302Y0182300D01*
X0121575Y0182300D01*
X0119835Y0185532D01*
X0120181Y0186367D01*
X0120181Y0187633D01*
X0119697Y0188802D01*
X0118802Y0189697D01*
X0117633Y0190181D01*
X0116367Y0190181D01*
X0115198Y0189697D01*
X0114303Y0188802D01*
X0113819Y0187633D01*
X0113819Y0186367D01*
X0114303Y0185198D01*
X0115198Y0184303D01*
X0116367Y0183819D01*
X0116669Y0183819D01*
X0118700Y0180046D01*
X0118700Y0179754D01*
X0119040Y0179414D01*
X0119269Y0178990D01*
X0119548Y0178906D01*
X0119754Y0178700D01*
X0120236Y0178700D01*
X0120697Y0178562D01*
X0120954Y0178700D01*
X0137662Y0178700D01*
X0137500Y0178538D01*
X0137500Y0172662D01*
X0138262Y0171900D01*
X0148138Y0171900D01*
X0148900Y0172662D01*
X0148900Y0173500D01*
X0161970Y0173500D01*
X0162717Y0174247D01*
X0165777Y0174247D01*
X0164900Y0173370D01*
X0158640Y0167110D01*
X0158640Y0162253D01*
X0157643Y0162253D01*
X0157109Y0161719D01*
X0157019Y0161874D01*
X0156740Y0162153D01*
X0156398Y0162351D01*
X0156016Y0162453D01*
X0153760Y0162453D01*
X0153760Y0158500D01*
X0152760Y0158500D01*
X0152760Y0162453D01*
X0150503Y0162453D01*
X0150122Y0162351D01*
X0149780Y0162153D01*
X0149500Y0161874D01*
X0149303Y0161532D01*
X0149201Y0161150D01*
X0149201Y0158500D01*
X0152760Y0158500D01*
X0152760Y0157500D01*
X0153760Y0157500D01*
X0153760Y0153547D01*
X0156016Y0153547D01*
X0156398Y0153649D01*
X0156740Y0153847D01*
X0157019Y0154126D01*
X0157109Y0154281D01*
X0157643Y0153747D01*
X0163838Y0153747D01*
X0164599Y0154509D01*
X0164599Y0161491D01*
X0163838Y0162253D01*
X0162840Y0162253D01*
X0162840Y0165370D01*
X0167819Y0170349D01*
X0167819Y0169867D01*
X0168303Y0168698D01*
X0169198Y0167803D01*
X0170367Y0167319D01*
X0171633Y0167319D01*
X0172802Y0167803D01*
X0173697Y0168698D01*
X0173698Y0168700D01*
X0178754Y0168700D01*
X0181320Y0166135D01*
X0181319Y0166133D01*
X0181319Y0164867D01*
X0181803Y0163698D01*
X0182698Y0162803D01*
X0183867Y0162319D01*
X0184860Y0162319D01*
X0182928Y0159245D01*
X0182697Y0159802D01*
X0181802Y0160697D01*
X0180633Y0161181D01*
X0179367Y0161181D01*
X0178198Y0160697D01*
X0177303Y0159802D01*
X0176819Y0158633D01*
X0176819Y0157367D01*
X0176970Y0157001D01*
X0172453Y0151094D01*
X0172340Y0151065D01*
X0172009Y0150513D01*
X0171755Y0150181D01*
X0171367Y0150181D01*
X0170198Y0149697D01*
X0169303Y0148802D01*
X0168819Y0147633D01*
X0168819Y0146367D01*
X0169108Y0145669D01*
X0155414Y0148277D01*
X0155197Y0148802D01*
X0154302Y0149697D01*
X0153133Y0150181D01*
X0151867Y0150181D01*
X0150698Y0149697D01*
X0149803Y0148802D01*
X0149319Y0147633D01*
X0149319Y0146367D01*
X0149803Y0145198D01*
X0150202Y0144799D01*
X0148000Y0144799D01*
X0148000Y0141240D01*
X0151953Y0141240D01*
X0151953Y0143497D01*
X0151866Y0143819D01*
X0151867Y0143819D01*
X0153133Y0143819D01*
X0154302Y0144303D01*
X0154740Y0144741D01*
X0171700Y0141510D01*
X0171700Y0115599D01*
X0169812Y0115599D01*
X0169050Y0114838D01*
X0169050Y0108643D01*
X0169693Y0108000D01*
X0169050Y0107357D01*
X0169050Y0106060D01*
X0167950Y0106060D01*
X0167950Y0107357D01*
X0167416Y0107891D01*
X0167571Y0107981D01*
X0167850Y0108260D01*
X0168047Y0108602D01*
X0168150Y0108984D01*
X0168150Y0111240D01*
X0164000Y0111240D01*
X0164000Y0112240D01*
X0168150Y0112240D01*
X0168150Y0114497D01*
X0168047Y0114878D01*
X0167850Y0115220D01*
X0167571Y0115499D01*
X0167229Y0115697D01*
X0166847Y0115799D01*
X0164000Y0115799D01*
X0164000Y0112240D01*
X0163000Y0112240D01*
X0163000Y0111240D01*
X0158850Y0111240D01*
X0158850Y0108984D01*
X0158953Y0108602D01*
X0159150Y0108260D01*
X0159429Y0107981D01*
X0159584Y0107891D01*
X0159050Y0107357D01*
X0159050Y0102800D01*
X0158200Y0102800D01*
X0158099Y0103042D01*
X0158099Y0109491D01*
X0157338Y0110253D01*
X0151143Y0110253D01*
X0150500Y0109610D01*
X0149857Y0110253D01*
X0143662Y0110253D01*
X0142901Y0109491D01*
X0142901Y0104687D01*
X0142274Y0104060D01*
X0141753Y0104060D01*
X0141753Y0105357D01*
X0141110Y0106000D01*
X0141753Y0106643D01*
X0141753Y0112838D01*
X0140991Y0113599D01*
X0134009Y0113599D01*
X0133247Y0112838D01*
X0133247Y0111705D01*
X0131683Y0111766D01*
X0131521Y0111981D01*
X0131681Y0112367D01*
X0131681Y0113633D01*
X0131197Y0114802D01*
X0130302Y0115697D01*
X0129133Y0116181D01*
X0127867Y0116181D01*
X0126698Y0115697D01*
X0125803Y0114802D01*
X0125319Y0113633D01*
X0125319Y0112367D01*
X0125803Y0111198D01*
X0126698Y0110303D01*
X0127867Y0109819D01*
X0128643Y0109819D01*
X0128936Y0109429D01*
X0128932Y0109324D01*
X0129377Y0108844D01*
X0129771Y0108321D01*
X0129874Y0108307D01*
X0129945Y0108230D01*
X0130599Y0108205D01*
X0131247Y0108114D01*
X0131331Y0108177D01*
X0133247Y0108103D01*
X0133247Y0106643D01*
X0133890Y0106000D01*
X0133247Y0105357D01*
X0133247Y0099162D01*
X0134009Y0098401D01*
X0137478Y0098401D01*
X0142200Y0089320D01*
X0142200Y0054995D01*
X0143254Y0053940D01*
X0145395Y0051800D01*
X0139880Y0051800D01*
X0139406Y0051936D01*
X0139161Y0051800D01*
X0138882Y0051800D01*
X0138533Y0051451D01*
X0133580Y0048704D01*
X0133338Y0048714D01*
X0132950Y0048355D01*
X0132488Y0048098D01*
X0132421Y0047866D01*
X0132244Y0047701D01*
X0132223Y0047173D01*
X0132077Y0046665D01*
X0132195Y0046453D01*
X0132071Y0043257D01*
X0132030Y0043214D01*
X0132042Y0042519D01*
X0132015Y0041825D01*
X0132055Y0041782D01*
X0132085Y0040040D01*
X0130269Y0040040D01*
X0130118Y0039890D01*
X0129968Y0040040D01*
X0127710Y0040040D01*
X0127559Y0039890D01*
X0127409Y0040040D01*
X0125150Y0040040D01*
X0125000Y0039890D01*
X0124849Y0040040D01*
X0122591Y0040040D01*
X0122441Y0039890D01*
X0122290Y0040040D01*
X0120032Y0040040D01*
X0119882Y0039890D01*
X0119731Y0040040D01*
X0117473Y0040040D01*
X0117323Y0039890D01*
X0117172Y0040040D01*
X0115300Y0040040D01*
X0115300Y0054760D01*
X0116043Y0054760D01*
X0116043Y0059114D01*
X0116043Y0059114D01*
X0116043Y0051457D01*
X0116500Y0051000D01*
X0116500Y0047000D01*
X0117500Y0046000D01*
X0115300Y0046433D02*
X0132194Y0046433D01*
X0132155Y0045434D02*
X0115300Y0045434D01*
X0115300Y0044436D02*
X0132116Y0044436D01*
X0132078Y0043437D02*
X0115300Y0043437D01*
X0115300Y0042439D02*
X0132039Y0042439D01*
X0132061Y0041440D02*
X0115300Y0041440D01*
X0115300Y0040442D02*
X0132078Y0040442D01*
X0133843Y0042500D02*
X0134013Y0046886D01*
X0139627Y0050000D01*
X0149740Y0050000D01*
X0144000Y0055740D01*
X0144000Y0089760D01*
X0137500Y0102260D01*
X0143020Y0102260D01*
X0146760Y0106000D01*
X0142901Y0106344D02*
X0141454Y0106344D01*
X0141753Y0107342D02*
X0142901Y0107342D01*
X0142901Y0108341D02*
X0141753Y0108341D01*
X0141753Y0109339D02*
X0142901Y0109339D01*
X0141753Y0110338D02*
X0158850Y0110338D01*
X0158850Y0109339D02*
X0158099Y0109339D01*
X0158099Y0108341D02*
X0159104Y0108341D01*
X0159050Y0107342D02*
X0158099Y0107342D01*
X0158099Y0106344D02*
X0159050Y0106344D01*
X0159050Y0105345D02*
X0158099Y0105345D01*
X0158099Y0104347D02*
X0159050Y0104347D01*
X0159050Y0103348D02*
X0158099Y0103348D01*
X0157000Y0101000D02*
X0161000Y0101000D01*
X0163500Y0104260D01*
X0173500Y0104260D01*
X0177950Y0104347D02*
X0187591Y0104347D01*
X0188660Y0105345D02*
X0177950Y0105345D01*
X0177950Y0106344D02*
X0189730Y0106344D01*
X0190200Y0106782D02*
X0183790Y0100800D01*
X0183754Y0100800D01*
X0183249Y0100295D01*
X0182727Y0099807D01*
X0182726Y0099771D01*
X0182700Y0099746D01*
X0182700Y0099031D01*
X0182675Y0098317D01*
X0182700Y0098290D01*
X0182700Y0035246D01*
X0179573Y0032119D01*
X0161253Y0032119D01*
X0161253Y0032930D01*
X0161253Y0035582D01*
X0160491Y0036343D01*
X0157446Y0036343D01*
X0157000Y0035898D01*
X0156554Y0036343D01*
X0153509Y0036343D01*
X0152747Y0035582D01*
X0152747Y0032119D01*
X0145871Y0032119D01*
X0146181Y0032867D01*
X0146181Y0034133D01*
X0145697Y0035302D01*
X0144802Y0036197D01*
X0143633Y0036681D01*
X0142367Y0036681D01*
X0141198Y0036197D01*
X0140303Y0035302D01*
X0140302Y0035300D01*
X0137088Y0035300D01*
X0135847Y0036541D01*
X0135847Y0039279D01*
X0135696Y0039430D01*
X0135643Y0042481D01*
X0135772Y0045803D01*
X0140093Y0048200D01*
X0147043Y0048200D01*
X0147043Y0048198D01*
X0147938Y0047303D01*
X0149107Y0046819D01*
X0150373Y0046819D01*
X0151542Y0047303D01*
X0152437Y0048198D01*
X0152921Y0049367D01*
X0152921Y0050633D01*
X0152437Y0051802D01*
X0151542Y0052697D01*
X0150373Y0053181D01*
X0149107Y0053181D01*
X0149105Y0053180D01*
X0145800Y0056486D01*
X0145800Y0089482D01*
X0145941Y0089929D01*
X0145800Y0090200D01*
X0145800Y0090505D01*
X0145469Y0090836D01*
X0141349Y0098759D01*
X0141753Y0099162D01*
X0141753Y0100460D01*
X0143765Y0100460D01*
X0144820Y0101514D01*
X0145053Y0101747D01*
X0149857Y0101747D01*
X0150500Y0102390D01*
X0151143Y0101747D01*
X0154739Y0101747D01*
X0155200Y0100640D01*
X0155200Y0100254D01*
X0155475Y0099979D01*
X0155625Y0099619D01*
X0155982Y0099473D01*
X0156254Y0099200D01*
X0156644Y0099200D01*
X0157004Y0099052D01*
X0157360Y0099200D01*
X0160389Y0099200D01*
X0160496Y0099118D01*
X0161118Y0099200D01*
X0161746Y0099200D01*
X0161841Y0099295D01*
X0161975Y0099313D01*
X0162356Y0099811D01*
X0162800Y0100254D01*
X0162800Y0100389D01*
X0162809Y0100401D01*
X0167188Y0100401D01*
X0167950Y0101162D01*
X0167950Y0102460D01*
X0169050Y0102460D01*
X0169050Y0101162D01*
X0169812Y0100401D01*
X0177188Y0100401D01*
X0177950Y0101162D01*
X0177950Y0107357D01*
X0177307Y0108000D01*
X0177950Y0108643D01*
X0177950Y0114838D01*
X0177188Y0115599D01*
X0175300Y0115599D01*
X0175300Y0142455D01*
X0178899Y0147853D01*
X0181406Y0150360D01*
X0181627Y0150411D01*
X0181916Y0150871D01*
X0182300Y0151254D01*
X0182300Y0151481D01*
X0190819Y0165034D01*
X0190819Y0164867D01*
X0191303Y0163698D01*
X0192198Y0162803D01*
X0192200Y0162802D01*
X0192200Y0139246D01*
X0190200Y0137246D01*
X0190200Y0106782D01*
X0190200Y0107342D02*
X0177950Y0107342D01*
X0177648Y0108341D02*
X0190200Y0108341D01*
X0190200Y0109339D02*
X0177950Y0109339D01*
X0177950Y0110338D02*
X0190200Y0110338D01*
X0190200Y0111336D02*
X0177950Y0111336D01*
X0177950Y0112335D02*
X0190200Y0112335D01*
X0190200Y0113333D02*
X0177950Y0113333D01*
X0177950Y0114332D02*
X0190200Y0114332D01*
X0190200Y0115330D02*
X0177457Y0115330D01*
X0175300Y0116329D02*
X0190200Y0116329D01*
X0190200Y0117327D02*
X0175300Y0117327D01*
X0175300Y0118326D02*
X0190200Y0118326D01*
X0190200Y0119324D02*
X0175300Y0119324D01*
X0175300Y0120323D02*
X0190200Y0120323D01*
X0190200Y0121321D02*
X0175300Y0121321D01*
X0175300Y0122320D02*
X0190200Y0122320D01*
X0190200Y0123318D02*
X0175300Y0123318D01*
X0175300Y0124317D02*
X0190200Y0124317D01*
X0190200Y0125315D02*
X0175300Y0125315D01*
X0175300Y0126314D02*
X0190200Y0126314D01*
X0190200Y0127312D02*
X0175300Y0127312D01*
X0175300Y0128311D02*
X0190200Y0128311D01*
X0190200Y0129309D02*
X0175300Y0129309D01*
X0175300Y0130308D02*
X0190200Y0130308D01*
X0190200Y0131306D02*
X0175300Y0131306D01*
X0175300Y0132305D02*
X0190200Y0132305D01*
X0190200Y0133303D02*
X0175300Y0133303D01*
X0175300Y0134302D02*
X0190200Y0134302D01*
X0190200Y0135301D02*
X0175300Y0135301D01*
X0175300Y0136299D02*
X0190200Y0136299D01*
X0190252Y0137298D02*
X0175300Y0137298D01*
X0175300Y0138296D02*
X0191250Y0138296D01*
X0190000Y0138500D02*
X0189000Y0137500D01*
X0189000Y0127000D01*
X0199000Y0127598D02*
X0199098Y0127598D01*
X0205000Y0133500D01*
X0205000Y0163000D01*
X0201598Y0159598D01*
X0199000Y0159598D01*
X0192200Y0159265D02*
X0187192Y0159265D01*
X0186565Y0158266D02*
X0192200Y0158266D01*
X0192200Y0157268D02*
X0185937Y0157268D01*
X0185310Y0156269D02*
X0192200Y0156269D01*
X0192200Y0155271D02*
X0184682Y0155271D01*
X0184054Y0154272D02*
X0192200Y0154272D01*
X0192200Y0153274D02*
X0183427Y0153274D01*
X0182799Y0152275D02*
X0192200Y0152275D01*
X0192200Y0151277D02*
X0182300Y0151277D01*
X0181324Y0150278D02*
X0192200Y0150278D01*
X0192200Y0149280D02*
X0180325Y0149280D01*
X0179327Y0148281D02*
X0192200Y0148281D01*
X0192200Y0147283D02*
X0178518Y0147283D01*
X0177853Y0146284D02*
X0192200Y0146284D01*
X0192200Y0145286D02*
X0177187Y0145286D01*
X0176521Y0144287D02*
X0192200Y0144287D01*
X0192200Y0143289D02*
X0175856Y0143289D01*
X0175300Y0142290D02*
X0192200Y0142290D01*
X0192200Y0141292D02*
X0175300Y0141292D01*
X0175300Y0140293D02*
X0192200Y0140293D01*
X0192200Y0139295D02*
X0175300Y0139295D01*
X0171700Y0139295D02*
X0151953Y0139295D01*
X0151953Y0140240D02*
X0148000Y0140240D01*
X0148000Y0141240D01*
X0147000Y0141240D01*
X0147000Y0140240D01*
X0143047Y0140240D01*
X0143047Y0137984D01*
X0143149Y0137602D01*
X0143347Y0137260D01*
X0143626Y0136981D01*
X0143781Y0136891D01*
X0143292Y0136402D01*
X0141753Y0136863D01*
X0141753Y0139357D01*
X0141219Y0139891D01*
X0141374Y0139981D01*
X0141653Y0140260D01*
X0141851Y0140602D01*
X0141953Y0140984D01*
X0141953Y0143240D01*
X0138000Y0143240D01*
X0138000Y0144240D01*
X0141953Y0144240D01*
X0141953Y0146497D01*
X0141851Y0146878D01*
X0141653Y0147220D01*
X0141374Y0147499D01*
X0141032Y0147697D01*
X0140650Y0147799D01*
X0138000Y0147799D01*
X0138000Y0144240D01*
X0137000Y0144240D01*
X0137000Y0143240D01*
X0133047Y0143240D01*
X0133047Y0140984D01*
X0133149Y0140602D01*
X0133347Y0140260D01*
X0133626Y0139981D01*
X0133781Y0139891D01*
X0133247Y0139357D01*
X0133247Y0133162D01*
X0134009Y0132401D01*
X0135700Y0132401D01*
X0135700Y0130599D01*
X0134009Y0130599D01*
X0133247Y0129838D01*
X0133247Y0123643D01*
X0133781Y0123109D01*
X0133626Y0123019D01*
X0133347Y0122740D01*
X0133149Y0122398D01*
X0133047Y0122016D01*
X0133047Y0119760D01*
X0137000Y0119760D01*
X0137000Y0118760D01*
X0133047Y0118760D01*
X0133047Y0116503D01*
X0133149Y0116122D01*
X0133347Y0115780D01*
X0133626Y0115500D01*
X0133968Y0115303D01*
X0134350Y0115201D01*
X0137000Y0115201D01*
X0137000Y0118760D01*
X0138000Y0118760D01*
X0138000Y0119760D01*
X0141953Y0119760D01*
X0141953Y0122016D01*
X0141851Y0122398D01*
X0141653Y0122740D01*
X0141374Y0123019D01*
X0141219Y0123109D01*
X0141708Y0123598D01*
X0143247Y0123137D01*
X0143247Y0120643D01*
X0143781Y0120109D01*
X0143626Y0120019D01*
X0143347Y0119740D01*
X0143149Y0119398D01*
X0143047Y0119016D01*
X0143047Y0116760D01*
X0147000Y0116760D01*
X0147000Y0115760D01*
X0143047Y0115760D01*
X0143047Y0113503D01*
X0143149Y0113122D01*
X0143347Y0112780D01*
X0143626Y0112500D01*
X0143968Y0112303D01*
X0144350Y0112201D01*
X0147000Y0112201D01*
X0147000Y0115760D01*
X0148000Y0115760D01*
X0148000Y0116760D01*
X0151953Y0116760D01*
X0151953Y0119016D01*
X0151851Y0119398D01*
X0151653Y0119740D01*
X0151374Y0120019D01*
X0151219Y0120109D01*
X0151753Y0120643D01*
X0151753Y0126838D01*
X0150991Y0127599D01*
X0149300Y0127599D01*
X0149300Y0129401D01*
X0150991Y0129401D01*
X0151753Y0130162D01*
X0151753Y0132613D01*
X0154962Y0133539D01*
X0155198Y0133303D01*
X0155768Y0133067D01*
X0155865Y0132599D01*
X0155009Y0132599D01*
X0154247Y0131838D01*
X0154247Y0125643D01*
X0154781Y0125109D01*
X0154626Y0125019D01*
X0154347Y0124740D01*
X0154149Y0124398D01*
X0154047Y0124016D01*
X0154047Y0121760D01*
X0158000Y0121760D01*
X0158000Y0120760D01*
X0154047Y0120760D01*
X0154047Y0118503D01*
X0154149Y0118122D01*
X0154347Y0117780D01*
X0154626Y0117500D01*
X0154968Y0117303D01*
X0155350Y0117201D01*
X0158000Y0117201D01*
X0158000Y0120760D01*
X0159000Y0120760D01*
X0159000Y0121760D01*
X0162953Y0121760D01*
X0162953Y0124016D01*
X0162851Y0124398D01*
X0162653Y0124740D01*
X0162374Y0125019D01*
X0162219Y0125109D01*
X0162753Y0125643D01*
X0162753Y0131838D01*
X0161991Y0132599D01*
X0159541Y0132599D01*
X0159294Y0133795D01*
X0159697Y0134198D01*
X0159698Y0134200D01*
X0161802Y0134200D01*
X0161803Y0134198D01*
X0162698Y0133303D01*
X0163867Y0132819D01*
X0165133Y0132819D01*
X0166302Y0133303D01*
X0167197Y0134198D01*
X0167681Y0135367D01*
X0167681Y0136633D01*
X0167197Y0137802D01*
X0166302Y0138697D01*
X0165133Y0139181D01*
X0163867Y0139181D01*
X0162698Y0138697D01*
X0161803Y0137802D01*
X0161802Y0137800D01*
X0159698Y0137800D01*
X0159697Y0137802D01*
X0158802Y0138697D01*
X0157633Y0139181D01*
X0156367Y0139181D01*
X0155198Y0138697D01*
X0154303Y0137802D01*
X0153971Y0137000D01*
X0151751Y0136359D01*
X0151219Y0136891D01*
X0151374Y0136981D01*
X0151653Y0137260D01*
X0151851Y0137602D01*
X0151953Y0137984D01*
X0151953Y0140240D01*
X0151953Y0141292D02*
X0171700Y0141292D01*
X0171700Y0140293D02*
X0148000Y0140293D01*
X0147500Y0140740D02*
X0153500Y0140740D01*
X0160500Y0141000D01*
X0168500Y0138500D01*
X0168500Y0122740D01*
X0163500Y0111740D01*
X0164000Y0111336D02*
X0169050Y0111336D01*
X0169050Y0110338D02*
X0168150Y0110338D01*
X0168150Y0109339D02*
X0169050Y0109339D01*
X0169352Y0108341D02*
X0167896Y0108341D01*
X0167950Y0107342D02*
X0169050Y0107342D01*
X0169050Y0106344D02*
X0167950Y0106344D01*
X0167950Y0102350D02*
X0169050Y0102350D01*
X0169050Y0101351D02*
X0167950Y0101351D01*
X0162800Y0100353D02*
X0183307Y0100353D01*
X0182700Y0099354D02*
X0162006Y0099354D01*
X0157000Y0101000D02*
X0154500Y0107000D01*
X0154240Y0106000D01*
X0154904Y0101351D02*
X0144657Y0101351D01*
X0141753Y0100353D02*
X0155200Y0100353D01*
X0156100Y0099354D02*
X0141753Y0099354D01*
X0141559Y0098356D02*
X0182677Y0098356D01*
X0182700Y0097357D02*
X0142078Y0097357D01*
X0142597Y0096359D02*
X0182700Y0096359D01*
X0182700Y0095360D02*
X0143117Y0095360D01*
X0143636Y0094362D02*
X0182700Y0094362D01*
X0182700Y0093363D02*
X0144155Y0093363D01*
X0144674Y0092365D02*
X0182700Y0092365D01*
X0182700Y0091366D02*
X0145194Y0091366D01*
X0145800Y0090368D02*
X0182700Y0090368D01*
X0182700Y0089369D02*
X0145800Y0089369D01*
X0145800Y0088370D02*
X0182700Y0088370D01*
X0182700Y0087372D02*
X0145800Y0087372D01*
X0145800Y0086373D02*
X0182700Y0086373D01*
X0182700Y0085375D02*
X0145800Y0085375D01*
X0145800Y0084376D02*
X0182700Y0084376D01*
X0182700Y0083378D02*
X0145800Y0083378D01*
X0145800Y0082379D02*
X0182700Y0082379D01*
X0182700Y0081381D02*
X0145800Y0081381D01*
X0145800Y0080382D02*
X0182700Y0080382D01*
X0182700Y0079384D02*
X0145800Y0079384D01*
X0145800Y0078385D02*
X0182700Y0078385D01*
X0182700Y0077387D02*
X0145800Y0077387D01*
X0145800Y0076388D02*
X0182700Y0076388D01*
X0182700Y0075390D02*
X0145800Y0075390D01*
X0145800Y0074391D02*
X0182700Y0074391D01*
X0182700Y0073393D02*
X0145800Y0073393D01*
X0145800Y0072394D02*
X0182700Y0072394D01*
X0182700Y0071396D02*
X0145800Y0071396D01*
X0145800Y0070397D02*
X0182700Y0070397D01*
X0182700Y0069399D02*
X0145800Y0069399D01*
X0145800Y0068400D02*
X0182700Y0068400D01*
X0182700Y0067402D02*
X0145800Y0067402D01*
X0145800Y0066403D02*
X0182700Y0066403D01*
X0182700Y0065405D02*
X0145800Y0065405D01*
X0145800Y0064406D02*
X0182700Y0064406D01*
X0182700Y0063408D02*
X0145800Y0063408D01*
X0145800Y0062409D02*
X0182700Y0062409D01*
X0182700Y0061411D02*
X0145800Y0061411D01*
X0145800Y0060412D02*
X0182700Y0060412D01*
X0182700Y0059414D02*
X0145800Y0059414D01*
X0145800Y0058415D02*
X0182700Y0058415D01*
X0182700Y0057417D02*
X0145800Y0057417D01*
X0145868Y0056418D02*
X0182700Y0056418D01*
X0182700Y0055420D02*
X0146866Y0055420D01*
X0147865Y0054421D02*
X0182700Y0054421D01*
X0182700Y0053423D02*
X0148863Y0053423D01*
X0151815Y0052424D02*
X0182700Y0052424D01*
X0182700Y0051426D02*
X0152593Y0051426D01*
X0152921Y0050427D02*
X0182700Y0050427D01*
X0182700Y0049429D02*
X0152921Y0049429D01*
X0152533Y0048430D02*
X0182700Y0048430D01*
X0182700Y0047432D02*
X0151670Y0047432D01*
X0147810Y0047432D02*
X0138707Y0047432D01*
X0136907Y0046433D02*
X0182700Y0046433D01*
X0182700Y0045434D02*
X0135758Y0045434D01*
X0135719Y0044436D02*
X0182700Y0044436D01*
X0182700Y0043437D02*
X0135680Y0043437D01*
X0135644Y0042439D02*
X0182700Y0042439D01*
X0182700Y0041440D02*
X0135661Y0041440D01*
X0135678Y0040442D02*
X0182700Y0040442D01*
X0182700Y0039443D02*
X0135696Y0039443D01*
X0135847Y0038445D02*
X0182700Y0038445D01*
X0182700Y0037446D02*
X0135847Y0037446D01*
X0135940Y0036448D02*
X0141804Y0036448D01*
X0140451Y0035449D02*
X0136939Y0035449D01*
X0136343Y0033500D02*
X0143000Y0033500D01*
X0144196Y0036448D02*
X0182700Y0036448D01*
X0182700Y0035449D02*
X0161253Y0035449D01*
X0161253Y0034451D02*
X0181905Y0034451D01*
X0180907Y0033452D02*
X0161253Y0033452D01*
X0161253Y0032454D02*
X0179908Y0032454D01*
X0180319Y0030319D02*
X0184500Y0034500D01*
X0184500Y0099000D01*
X0192000Y0106000D01*
X0192000Y0136500D01*
X0194000Y0138500D01*
X0194000Y0165500D01*
X0191742Y0163259D02*
X0189703Y0163259D01*
X0190331Y0164257D02*
X0191072Y0164257D01*
X0192200Y0162260D02*
X0189075Y0162260D01*
X0188448Y0161262D02*
X0192200Y0161262D01*
X0192200Y0160263D02*
X0187820Y0160263D01*
X0184823Y0162260D02*
X0162840Y0162260D01*
X0162840Y0163259D02*
X0182242Y0163259D01*
X0181572Y0164257D02*
X0162840Y0164257D01*
X0162840Y0165256D02*
X0181319Y0165256D01*
X0181200Y0166254D02*
X0163724Y0166254D01*
X0164723Y0167253D02*
X0180202Y0167253D01*
X0179203Y0168251D02*
X0173250Y0168251D01*
X0171000Y0170500D02*
X0179500Y0170500D01*
X0184500Y0165500D01*
X0187513Y0166539D02*
X0187197Y0167302D01*
X0186302Y0168197D01*
X0185133Y0168681D01*
X0183867Y0168681D01*
X0183865Y0168680D01*
X0180246Y0172300D01*
X0173698Y0172300D01*
X0173697Y0172302D01*
X0173484Y0172514D01*
X0174600Y0173630D01*
X0174600Y0174247D01*
X0176338Y0174247D01*
X0177099Y0175009D01*
X0177099Y0181991D01*
X0176338Y0182753D01*
X0174800Y0182753D01*
X0174800Y0194254D01*
X0175366Y0194821D01*
X0175366Y0192500D01*
X0181583Y0192500D01*
X0181583Y0191500D01*
X0182583Y0191500D01*
X0182583Y0192500D01*
X0188799Y0192500D01*
X0188799Y0195642D01*
X0188697Y0196024D01*
X0188499Y0196366D01*
X0188220Y0196645D01*
X0188125Y0196700D01*
X0188754Y0196700D01*
X0193335Y0192120D01*
X0193442Y0191808D01*
X0193842Y0191613D01*
X0194151Y0191304D01*
X0194151Y0187410D01*
X0194912Y0186649D01*
X0203088Y0186649D01*
X0203200Y0186761D01*
X0203200Y0184239D01*
X0203088Y0184351D01*
X0194912Y0184351D01*
X0194151Y0183590D01*
X0194151Y0178342D01*
X0193948Y0178181D01*
X0192867Y0178181D01*
X0191698Y0177697D01*
X0190803Y0176802D01*
X0190319Y0175633D01*
X0190319Y0174367D01*
X0190803Y0173198D01*
X0191698Y0172303D01*
X0192867Y0171819D01*
X0194133Y0171819D01*
X0195302Y0172303D01*
X0196197Y0173198D01*
X0196681Y0174367D01*
X0196681Y0175452D01*
X0203088Y0175452D01*
X0203200Y0175564D01*
X0203200Y0171294D01*
X0203197Y0171302D01*
X0202302Y0172197D01*
X0201133Y0172681D01*
X0199867Y0172681D01*
X0198698Y0172197D01*
X0197803Y0171302D01*
X0197802Y0171300D01*
X0192019Y0171300D01*
X0191827Y0171421D01*
X0191297Y0171300D01*
X0190754Y0171300D01*
X0190594Y0171140D01*
X0190373Y0171089D01*
X0190084Y0170629D01*
X0189700Y0170246D01*
X0189700Y0170019D01*
X0187513Y0166539D01*
X0187217Y0167253D02*
X0187961Y0167253D01*
X0188589Y0168251D02*
X0186170Y0168251D01*
X0183296Y0169250D02*
X0189217Y0169250D01*
X0189703Y0170248D02*
X0182297Y0170248D01*
X0181299Y0171247D02*
X0190701Y0171247D01*
X0191837Y0172245D02*
X0180300Y0172245D01*
X0177099Y0175241D02*
X0190319Y0175241D01*
X0190371Y0174242D02*
X0174600Y0174242D01*
X0174214Y0173244D02*
X0190784Y0173244D01*
X0193500Y0175000D02*
X0194098Y0176000D01*
X0199000Y0179902D01*
X0194151Y0180234D02*
X0177099Y0180234D01*
X0177099Y0181232D02*
X0194151Y0181232D01*
X0194151Y0182231D02*
X0176860Y0182231D01*
X0174800Y0183229D02*
X0194151Y0183229D01*
X0194789Y0184228D02*
X0174800Y0184228D01*
X0174800Y0185226D02*
X0203200Y0185226D01*
X0203200Y0186225D02*
X0174800Y0186225D01*
X0174800Y0187223D02*
X0176173Y0187223D01*
X0176287Y0187157D02*
X0176669Y0187055D01*
X0181583Y0187055D01*
X0181583Y0191500D01*
X0175366Y0191500D01*
X0175366Y0188358D01*
X0175468Y0187976D01*
X0175666Y0187634D01*
X0175945Y0187355D01*
X0176287Y0187157D01*
X0175403Y0188222D02*
X0174800Y0188222D01*
X0174800Y0189220D02*
X0175366Y0189220D01*
X0175366Y0190219D02*
X0174800Y0190219D01*
X0174800Y0191217D02*
X0175366Y0191217D01*
X0174800Y0192216D02*
X0181583Y0192216D01*
X0181583Y0191217D02*
X0182583Y0191217D01*
X0182583Y0191500D02*
X0182583Y0187055D01*
X0187497Y0187055D01*
X0187878Y0187157D01*
X0188220Y0187355D01*
X0188499Y0187634D01*
X0188697Y0187976D01*
X0188799Y0188358D01*
X0188799Y0191500D01*
X0182583Y0191500D01*
X0182583Y0192216D02*
X0193239Y0192216D01*
X0194151Y0191217D02*
X0188799Y0191217D01*
X0188799Y0190219D02*
X0194151Y0190219D01*
X0194151Y0189220D02*
X0188799Y0189220D01*
X0188763Y0188222D02*
X0194151Y0188222D01*
X0194338Y0187223D02*
X0187992Y0187223D01*
X0182583Y0187223D02*
X0181583Y0187223D01*
X0181583Y0188222D02*
X0182583Y0188222D01*
X0182583Y0189220D02*
X0181583Y0189220D01*
X0181583Y0190219D02*
X0182583Y0190219D01*
X0188799Y0193214D02*
X0192240Y0193214D01*
X0191242Y0194213D02*
X0188799Y0194213D01*
X0188799Y0195211D02*
X0190243Y0195211D01*
X0189245Y0196210D02*
X0188590Y0196210D01*
X0189500Y0198500D02*
X0176500Y0198500D01*
X0173000Y0195000D01*
X0173000Y0178740D01*
X0173240Y0178500D01*
X0177099Y0178237D02*
X0194018Y0178237D01*
X0194151Y0179235D02*
X0177099Y0179235D01*
X0177099Y0177238D02*
X0191239Y0177238D01*
X0190570Y0176239D02*
X0177099Y0176239D01*
X0169620Y0182231D02*
X0169380Y0182231D01*
X0167600Y0183229D02*
X0171200Y0183229D01*
X0171200Y0184228D02*
X0167600Y0184228D01*
X0167600Y0185226D02*
X0171200Y0185226D01*
X0171200Y0186225D02*
X0167600Y0186225D01*
X0167600Y0187223D02*
X0171200Y0187223D01*
X0171200Y0188222D02*
X0167600Y0188222D01*
X0167600Y0189220D02*
X0171200Y0189220D01*
X0171200Y0190219D02*
X0166751Y0190219D01*
X0165753Y0191217D02*
X0171200Y0191217D01*
X0171200Y0192216D02*
X0164754Y0192216D01*
X0164100Y0192870D02*
X0164100Y0192870D01*
X0163756Y0193214D02*
X0171200Y0193214D01*
X0171200Y0194213D02*
X0161237Y0194213D01*
X0161237Y0195211D02*
X0171200Y0195211D01*
X0171664Y0196210D02*
X0161011Y0196210D01*
X0161237Y0189220D02*
X0161810Y0189220D01*
X0161237Y0188222D02*
X0162809Y0188222D01*
X0163400Y0187223D02*
X0120181Y0187223D01*
X0120122Y0186225D02*
X0163400Y0186225D01*
X0163400Y0185226D02*
X0120000Y0185226D01*
X0120537Y0184228D02*
X0163400Y0184228D01*
X0163400Y0183229D02*
X0159724Y0183229D01*
X0160726Y0182231D02*
X0162140Y0182231D01*
X0161901Y0181232D02*
X0161140Y0181232D01*
X0161181Y0180234D02*
X0161901Y0180234D01*
X0161765Y0179235D02*
X0160919Y0179235D01*
X0160767Y0178237D02*
X0160235Y0178237D01*
X0158000Y0180500D02*
X0120500Y0180500D01*
X0117000Y0187000D01*
X0114063Y0188222D02*
X0113300Y0188222D01*
X0113300Y0189220D02*
X0114721Y0189220D01*
X0113448Y0189575D02*
X0113300Y0189945D01*
X0113300Y0190344D01*
X0113034Y0190610D01*
X0112894Y0190959D01*
X0112528Y0191116D01*
X0112246Y0191398D01*
X0111869Y0191398D01*
X0111524Y0191547D01*
X0111213Y0191422D01*
X0110588Y0192048D01*
X0102412Y0192048D01*
X0101651Y0191287D01*
X0101651Y0183910D01*
X0102412Y0183149D01*
X0109700Y0183149D01*
X0109700Y0180851D01*
X0102412Y0180851D01*
X0101651Y0180090D01*
X0101651Y0172713D01*
X0102412Y0171952D01*
X0104700Y0171952D01*
X0104700Y0171659D01*
X0100610Y0169800D01*
X0100254Y0169800D01*
X0099958Y0169504D01*
X0099576Y0169330D01*
X0099452Y0168997D01*
X0099200Y0168746D01*
X0099200Y0168326D01*
X0099053Y0167934D01*
X0099200Y0167610D01*
X0099200Y0142131D01*
X0097657Y0140202D01*
X0097200Y0139746D01*
X0097200Y0139631D01*
X0097129Y0139542D01*
X0097200Y0138900D01*
X0097200Y0117992D01*
X0088979Y0112800D01*
X0088754Y0112800D01*
X0088369Y0112415D01*
X0087908Y0112124D01*
X0087859Y0111905D01*
X0087700Y0111746D01*
X0087700Y0111201D01*
X0087580Y0110669D01*
X0087700Y0110479D01*
X0087700Y0052545D01*
X0085537Y0049300D01*
X0061343Y0049300D01*
X0061343Y0051554D01*
X0060898Y0052000D01*
X0061343Y0052446D01*
X0061343Y0055491D01*
X0060582Y0056253D01*
X0057300Y0056253D01*
X0057300Y0056254D01*
X0058080Y0057034D01*
X0058080Y0060731D01*
X0059968Y0060731D01*
X0060118Y0060882D01*
X0060269Y0060731D01*
X0062527Y0060731D01*
X0062677Y0060882D01*
X0062828Y0060731D01*
X0065086Y0060731D01*
X0065437Y0061083D01*
X0065803Y0060198D01*
X0066698Y0059303D01*
X0067867Y0058819D01*
X0069133Y0058819D01*
X0070302Y0059303D01*
X0071197Y0060198D01*
X0071681Y0061367D01*
X0071681Y0062633D01*
X0071197Y0063802D01*
X0070302Y0064697D01*
X0069133Y0065181D01*
X0067867Y0065181D01*
X0067865Y0065180D01*
X0067414Y0065631D01*
X0067414Y0065631D01*
X0066360Y0066686D01*
X0065847Y0066686D01*
X0065847Y0068279D01*
X0065086Y0069040D01*
X0062828Y0069040D01*
X0062677Y0068890D01*
X0062527Y0069040D01*
X0060269Y0069040D01*
X0060118Y0068890D01*
X0059968Y0069040D01*
X0057710Y0069040D01*
X0057559Y0068890D01*
X0057409Y0069040D01*
X0055150Y0069040D01*
X0055000Y0068890D01*
X0054849Y0069040D01*
X0052591Y0069040D01*
X0052441Y0068890D01*
X0052290Y0069040D01*
X0050032Y0069040D01*
X0049882Y0068890D01*
X0049731Y0069040D01*
X0047473Y0069040D01*
X0047323Y0068890D01*
X0047172Y0069040D01*
X0046167Y0069040D01*
X0047344Y0071657D01*
X0048198Y0070803D01*
X0049367Y0070319D01*
X0050633Y0070319D01*
X0051802Y0070803D01*
X0052697Y0071698D01*
X0052896Y0072180D01*
X0053303Y0071198D01*
X0054198Y0070303D01*
X0055367Y0069819D01*
X0056633Y0069819D01*
X0057802Y0070303D01*
X0058697Y0071198D01*
X0059181Y0072367D01*
X0059181Y0073633D01*
X0058697Y0074802D01*
X0057802Y0075697D01*
X0057800Y0075698D01*
X0057800Y0076746D01*
X0057627Y0076918D01*
X0057867Y0076819D01*
X0059133Y0076819D01*
X0060302Y0077303D01*
X0060979Y0077980D01*
X0061303Y0077198D01*
X0062198Y0076303D01*
X0063367Y0075819D01*
X0064633Y0075819D01*
X0065802Y0076303D01*
X0066697Y0077198D01*
X0067181Y0078367D01*
X0067181Y0079633D01*
X0066697Y0080802D01*
X0065802Y0081697D01*
X0064633Y0082181D01*
X0063681Y0082181D01*
X0063198Y0082757D01*
X0063198Y0083960D01*
X0065086Y0083960D01*
X0065847Y0084721D01*
X0065847Y0091507D01*
X0065086Y0092268D01*
X0063814Y0092268D01*
X0064246Y0092700D01*
X0065848Y0092700D01*
X0067700Y0091157D01*
X0067700Y0086198D01*
X0067698Y0086197D01*
X0066803Y0085302D01*
X0066319Y0084133D01*
X0066319Y0082867D01*
X0066803Y0081698D01*
X0067698Y0080803D01*
X0068867Y0080319D01*
X0070133Y0080319D01*
X0071302Y0080803D01*
X0071700Y0081201D01*
X0071700Y0080698D01*
X0071698Y0080697D01*
X0070803Y0079802D01*
X0070319Y0078633D01*
X0070319Y0077367D01*
X0070803Y0076198D01*
X0071698Y0075303D01*
X0072867Y0074819D01*
X0074103Y0074819D01*
X0073819Y0074133D01*
X0073819Y0072867D01*
X0074303Y0071698D01*
X0075198Y0070803D01*
X0076367Y0070319D01*
X0077633Y0070319D01*
X0078802Y0070803D01*
X0079697Y0071698D01*
X0079700Y0071706D01*
X0079700Y0070698D01*
X0079698Y0070697D01*
X0078803Y0069802D01*
X0078319Y0068633D01*
X0078319Y0067367D01*
X0078803Y0066198D01*
X0079698Y0065303D01*
X0080867Y0064819D01*
X0082133Y0064819D01*
X0083302Y0065303D01*
X0084197Y0066198D01*
X0084681Y0067367D01*
X0084681Y0068633D01*
X0084197Y0069802D01*
X0083302Y0070697D01*
X0083300Y0070698D01*
X0083300Y0083322D01*
X0083399Y0083819D01*
X0084133Y0083819D01*
X0085302Y0084303D01*
X0086197Y0085198D01*
X0086681Y0086367D01*
X0086681Y0087633D01*
X0086197Y0088802D01*
X0085302Y0089697D01*
X0084133Y0090181D01*
X0083543Y0090181D01*
X0083300Y0090545D01*
X0083300Y0096522D01*
X0083433Y0096754D01*
X0083300Y0097241D01*
X0083300Y0097746D01*
X0083111Y0097935D01*
X0083040Y0098193D01*
X0082602Y0098443D01*
X0082246Y0098800D01*
X0081978Y0098800D01*
X0072102Y0104443D01*
X0071746Y0104800D01*
X0071478Y0104800D01*
X0071246Y0104933D01*
X0070759Y0104800D01*
X0057254Y0104800D01*
X0056200Y0103746D01*
X0049200Y0096746D01*
X0049200Y0092268D01*
X0047473Y0092268D01*
X0047440Y0092235D01*
X0047213Y0092366D01*
X0046831Y0092468D01*
X0046043Y0092468D01*
X0045255Y0092468D01*
X0044874Y0092366D01*
X0044532Y0092169D01*
X0044252Y0091890D01*
X0044055Y0091547D01*
X0043953Y0091166D01*
X0043953Y0088114D01*
X0043953Y0085062D01*
X0044055Y0084681D01*
X0044252Y0084339D01*
X0044532Y0084060D01*
X0044874Y0083862D01*
X0045255Y0083760D01*
X0046043Y0083760D01*
X0046043Y0088114D01*
X0043953Y0088114D01*
X0046043Y0088114D01*
X0046043Y0088114D01*
X0046043Y0088114D01*
X0046000Y0088157D01*
X0046000Y0096000D01*
X0056500Y0106500D01*
X0076000Y0106500D01*
X0076000Y0115000D01*
X0082500Y0121500D01*
X0092985Y0115330D02*
X0031000Y0115330D01*
X0031000Y0114332D02*
X0091405Y0114332D01*
X0089824Y0113333D02*
X0031000Y0113333D01*
X0031000Y0112335D02*
X0088243Y0112335D01*
X0087700Y0111336D02*
X0031000Y0111336D01*
X0031000Y0110338D02*
X0087700Y0110338D01*
X0087700Y0109339D02*
X0031000Y0109339D01*
X0031000Y0108341D02*
X0087700Y0108341D01*
X0087700Y0107342D02*
X0031000Y0107342D01*
X0031000Y0106344D02*
X0087700Y0106344D01*
X0087700Y0105345D02*
X0031000Y0105345D01*
X0031000Y0104347D02*
X0056801Y0104347D01*
X0055803Y0103348D02*
X0031000Y0103348D01*
X0031000Y0102350D02*
X0054804Y0102350D01*
X0053806Y0101351D02*
X0031000Y0101351D01*
X0031000Y0100353D02*
X0052807Y0100353D01*
X0051809Y0099354D02*
X0031000Y0099354D01*
X0031000Y0098356D02*
X0050810Y0098356D01*
X0049812Y0097357D02*
X0031000Y0097357D01*
X0031000Y0096359D02*
X0049200Y0096359D01*
X0049200Y0095360D02*
X0031000Y0095360D01*
X0031000Y0094362D02*
X0049200Y0094362D01*
X0049200Y0093363D02*
X0031000Y0093363D01*
X0031000Y0092365D02*
X0044871Y0092365D01*
X0046043Y0092365D02*
X0046043Y0092365D01*
X0046043Y0092468D02*
X0046043Y0088114D01*
X0046043Y0082957D01*
X0046000Y0081500D01*
X0045000Y0078000D01*
X0040500Y0069000D01*
X0036000Y0069000D01*
X0036500Y0069399D02*
X0042381Y0069399D01*
X0041952Y0068446D02*
X0040157Y0066202D01*
X0040000Y0066046D01*
X0040000Y0068500D01*
X0036500Y0068500D01*
X0036500Y0069500D01*
X0035500Y0069500D01*
X0035500Y0075500D01*
X0033303Y0075500D01*
X0032921Y0075398D01*
X0032579Y0075200D01*
X0032300Y0074921D01*
X0032102Y0074579D01*
X0032000Y0074197D01*
X0032000Y0069500D01*
X0035500Y0069500D01*
X0035500Y0068500D01*
X0036500Y0068500D01*
X0036500Y0062500D01*
X0038697Y0062500D01*
X0039079Y0062602D01*
X0039421Y0062800D01*
X0039700Y0063079D01*
X0039700Y0056573D01*
X0042763Y0053510D01*
X0042763Y0052446D01*
X0043209Y0052000D01*
X0042763Y0051554D01*
X0042763Y0050490D01*
X0042700Y0050427D01*
X0042700Y0042029D01*
X0042677Y0041313D01*
X0042700Y0041288D01*
X0042700Y0041254D01*
X0043207Y0040748D01*
X0050200Y0033288D01*
X0050200Y0033254D01*
X0050707Y0032748D01*
X0051197Y0032225D01*
X0051231Y0032224D01*
X0051254Y0032200D01*
X0051971Y0032200D01*
X0052687Y0032177D01*
X0052712Y0032200D01*
X0083254Y0032200D01*
X0095798Y0019656D01*
X0096853Y0018602D01*
X0101651Y0018602D01*
X0101651Y0017501D01*
X0031000Y0020000D01*
X0031000Y0188090D01*
X0031890Y0187200D01*
X0037110Y0187200D01*
X0040800Y0190890D01*
X0040800Y0196110D01*
X0038762Y0198148D01*
X0125896Y0199805D01*
X0122700Y0196610D01*
X0122700Y0191390D01*
X0126390Y0187700D01*
X0131610Y0187700D01*
X0135300Y0191390D01*
X0135300Y0196610D01*
X0131989Y0199921D01*
X0218660Y0201570D01*
X0216200Y0199110D01*
X0216200Y0193890D01*
X0219890Y0190200D01*
X0225110Y0190200D01*
X0228800Y0193890D01*
X0228800Y0199110D01*
X0226197Y0201713D01*
X0302250Y0203160D01*
X0300700Y0201610D01*
X0300700Y0196390D01*
X0304390Y0192700D01*
X0309610Y0192700D01*
X0313300Y0196390D01*
X0313300Y0201610D01*
X0311573Y0203337D01*
X0399000Y0205000D01*
X0398684Y0079937D01*
X0398421Y0080200D01*
X0398079Y0080398D01*
X0397697Y0080500D01*
X0395500Y0080500D01*
X0395500Y0074500D01*
X0394500Y0074500D01*
X0394500Y0080500D01*
X0392303Y0080500D01*
X0391921Y0080398D01*
X0391579Y0080200D01*
X0391300Y0079921D01*
X0391102Y0079579D01*
X0391000Y0079197D01*
X0391000Y0074500D01*
X0394500Y0074500D01*
X0394500Y0073500D01*
X0391000Y0073500D01*
X0391000Y0072394D02*
X0385300Y0072394D01*
X0385300Y0071396D02*
X0391000Y0071396D01*
X0391000Y0070397D02*
X0387814Y0070397D01*
X0386500Y0069000D02*
X0383500Y0069000D01*
X0383500Y0039098D01*
X0378000Y0027598D01*
X0382849Y0027461D02*
X0398552Y0027461D01*
X0398549Y0026463D02*
X0382849Y0026463D01*
X0382849Y0025464D02*
X0398547Y0025464D01*
X0398544Y0024466D02*
X0382849Y0024466D01*
X0382406Y0023467D02*
X0398542Y0023467D01*
X0398539Y0022469D02*
X0357541Y0022469D01*
X0361885Y0021470D02*
X0398537Y0021470D01*
X0398534Y0020472D02*
X0382467Y0020472D01*
X0382849Y0019473D02*
X0398532Y0019473D01*
X0398529Y0018475D02*
X0382849Y0018475D01*
X0382849Y0017476D02*
X0398526Y0017476D01*
X0398524Y0016478D02*
X0382849Y0016478D01*
X0382849Y0015479D02*
X0398521Y0015479D01*
X0398519Y0014481D02*
X0382849Y0014481D01*
X0382849Y0013482D02*
X0398516Y0013482D01*
X0398514Y0012484D02*
X0382619Y0012484D01*
X0384618Y0007491D02*
X0398501Y0007491D01*
X0398504Y0008490D02*
X0356391Y0008490D01*
X0363191Y0017476D02*
X0297349Y0017476D01*
X0297349Y0016478D02*
X0367535Y0016478D01*
X0370573Y0019473D02*
X0373151Y0019473D01*
X0373533Y0020472D02*
X0366229Y0020472D01*
X0371879Y0015479D02*
X0297349Y0015479D01*
X0296616Y0014481D02*
X0373151Y0014481D01*
X0373151Y0013482D02*
X0215255Y0013482D01*
X0216939Y0020472D02*
X0203849Y0020472D01*
X0203849Y0021470D02*
X0215791Y0021470D01*
X0214643Y0022469D02*
X0203849Y0022469D01*
X0203849Y0023467D02*
X0213495Y0023467D01*
X0212346Y0024466D02*
X0203849Y0024466D01*
X0203849Y0025464D02*
X0211198Y0025464D01*
X0210050Y0026463D02*
X0203849Y0026463D01*
X0203478Y0027461D02*
X0208901Y0027461D01*
X0207753Y0028460D02*
X0194005Y0028460D01*
X0194300Y0029458D02*
X0206605Y0029458D01*
X0205456Y0030457D02*
X0203396Y0030457D01*
X0203849Y0031455D02*
X0205199Y0031455D01*
X0205200Y0032454D02*
X0203849Y0032454D01*
X0203849Y0033452D02*
X0205200Y0033452D01*
X0205200Y0034451D02*
X0203849Y0034451D01*
X0203849Y0035449D02*
X0205200Y0035449D01*
X0205200Y0036448D02*
X0203849Y0036448D01*
X0203849Y0037446D02*
X0205200Y0037446D01*
X0205200Y0038445D02*
X0204548Y0038445D01*
X0204000Y0040598D02*
X0199000Y0034598D01*
X0194604Y0030457D02*
X0194300Y0030457D01*
X0192500Y0029500D02*
X0192500Y0038500D01*
X0198500Y0044500D01*
X0198500Y0048402D01*
X0199000Y0048902D01*
X0208800Y0048430D02*
X0215500Y0048430D01*
X0215319Y0048867D02*
X0215803Y0047698D01*
X0216698Y0046803D01*
X0217867Y0046319D01*
X0219133Y0046319D01*
X0220302Y0046803D01*
X0220759Y0047260D01*
X0223125Y0046830D01*
X0223254Y0046700D01*
X0223838Y0046700D01*
X0224412Y0046596D01*
X0224562Y0046700D01*
X0224746Y0046700D01*
X0225158Y0047112D01*
X0225638Y0047444D01*
X0225670Y0047625D01*
X0227338Y0049293D01*
X0227469Y0049310D01*
X0227854Y0049809D01*
X0228023Y0049978D01*
X0228698Y0049303D01*
X0229867Y0048819D01*
X0231133Y0048819D01*
X0232302Y0049303D01*
X0233197Y0050198D01*
X0233681Y0051367D01*
X0233681Y0052633D01*
X0233197Y0053802D01*
X0232302Y0054697D01*
X0231133Y0055181D01*
X0230843Y0055181D01*
X0230612Y0056460D01*
X0231527Y0056460D01*
X0231677Y0056610D01*
X0231828Y0056460D01*
X0234086Y0056460D01*
X0234847Y0057221D01*
X0234847Y0064007D01*
X0234086Y0064768D01*
X0232814Y0064768D01*
X0233019Y0064974D01*
X0234888Y0064974D01*
X0235200Y0064662D01*
X0235200Y0056698D01*
X0235198Y0056697D01*
X0234303Y0055802D01*
X0233819Y0054633D01*
X0233819Y0053367D01*
X0234303Y0052198D01*
X0235198Y0051303D01*
X0236367Y0050819D01*
X0237633Y0050819D01*
X0238554Y0051201D01*
X0238319Y0050633D01*
X0238319Y0049367D01*
X0238803Y0048198D01*
X0239341Y0047660D01*
X0233057Y0045430D01*
X0233014Y0045448D01*
X0232670Y0045309D01*
X0232299Y0045318D01*
X0232037Y0045068D01*
X0231695Y0044947D01*
X0231675Y0044905D01*
X0230159Y0044290D01*
X0214732Y0044290D01*
X0214246Y0044423D01*
X0214012Y0044290D01*
X0213744Y0044290D01*
X0213388Y0043933D01*
X0210523Y0042300D01*
X0210254Y0042300D01*
X0209898Y0041944D01*
X0209461Y0041694D01*
X0209390Y0041435D01*
X0209200Y0041246D01*
X0209200Y0040742D01*
X0209067Y0040256D01*
X0209200Y0040023D01*
X0209200Y0039698D01*
X0209198Y0039697D01*
X0208800Y0039299D01*
X0208800Y0063037D01*
X0210545Y0064200D01*
X0213143Y0064200D01*
X0213055Y0064047D01*
X0212953Y0063666D01*
X0212953Y0060614D01*
X0212953Y0057562D01*
X0213055Y0057181D01*
X0213252Y0056839D01*
X0213532Y0056560D01*
X0213874Y0056362D01*
X0214255Y0056260D01*
X0215043Y0056260D01*
X0215043Y0060614D01*
X0212953Y0060614D01*
X0215043Y0060614D01*
X0215043Y0060614D01*
X0215043Y0060614D01*
X0214429Y0060000D01*
X0211000Y0060000D01*
X0211000Y0045500D01*
X0208800Y0045434D02*
X0232980Y0045434D01*
X0233046Y0045434D02*
X0233069Y0045434D01*
X0233000Y0043500D02*
X0230510Y0042490D01*
X0214490Y0042490D01*
X0211000Y0040500D01*
X0211000Y0037000D01*
X0208945Y0039443D02*
X0208800Y0039443D01*
X0208800Y0040442D02*
X0209118Y0040442D01*
X0209391Y0041440D02*
X0208800Y0041440D01*
X0208800Y0042439D02*
X0210767Y0042439D01*
X0212518Y0043437D02*
X0208800Y0043437D01*
X0208800Y0044436D02*
X0230520Y0044436D01*
X0233000Y0043500D02*
X0248500Y0049000D01*
X0241500Y0050000D02*
X0241500Y0064500D01*
X0241000Y0065000D01*
X0237000Y0065407D02*
X0235633Y0066774D01*
X0235633Y0071367D01*
X0235000Y0072000D01*
X0235633Y0066774D02*
X0232274Y0066774D01*
X0230500Y0065000D01*
X0230500Y0060717D01*
X0230398Y0060614D01*
X0230500Y0062717D01*
X0228000Y0060776D02*
X0227839Y0060614D01*
X0227839Y0068839D01*
X0228500Y0069500D01*
X0223200Y0069399D02*
X0220300Y0069399D01*
X0220300Y0070397D02*
X0223200Y0070397D01*
X0223200Y0071396D02*
X0220300Y0071396D01*
X0220300Y0072394D02*
X0223200Y0072394D01*
X0223187Y0073393D02*
X0219653Y0073393D01*
X0218654Y0074391D02*
X0223838Y0074391D01*
X0224777Y0075390D02*
X0217656Y0075390D01*
X0216657Y0076388D02*
X0225717Y0076388D01*
X0226657Y0077387D02*
X0215659Y0077387D01*
X0214660Y0078385D02*
X0227597Y0078385D01*
X0228537Y0079384D02*
X0213662Y0079384D01*
X0213181Y0080382D02*
X0229476Y0080382D01*
X0230416Y0081381D02*
X0213078Y0081381D01*
X0212619Y0082379D02*
X0231334Y0082379D01*
X0233000Y0081500D02*
X0243000Y0081500D01*
X0251000Y0089500D01*
X0271500Y0089500D01*
X0275000Y0086000D01*
X0277128Y0088370D02*
X0277200Y0088370D01*
X0277200Y0089369D02*
X0274177Y0089369D01*
X0273178Y0090368D02*
X0277200Y0090368D01*
X0277200Y0091366D02*
X0206800Y0091366D01*
X0206800Y0090368D02*
X0249322Y0090368D01*
X0248323Y0089369D02*
X0206800Y0089369D01*
X0206800Y0088370D02*
X0247325Y0088370D01*
X0246326Y0087372D02*
X0206800Y0087372D01*
X0206800Y0086373D02*
X0245328Y0086373D01*
X0244329Y0085375D02*
X0206800Y0085375D01*
X0206800Y0084376D02*
X0243331Y0084376D01*
X0242332Y0083378D02*
X0211365Y0083378D01*
X0208635Y0083378D02*
X0206800Y0083378D01*
X0206800Y0082379D02*
X0207381Y0082379D01*
X0206922Y0081381D02*
X0206800Y0081381D01*
X0206800Y0080382D02*
X0206819Y0080382D01*
X0205000Y0079500D02*
X0203000Y0077000D01*
X0199500Y0076500D01*
X0205000Y0079500D02*
X0204000Y0066000D01*
X0199098Y0060098D01*
X0199000Y0060098D01*
X0207000Y0064000D02*
X0207000Y0031500D01*
X0218500Y0021500D01*
X0253681Y0021500D01*
X0254031Y0021850D01*
X0254031Y0023819D02*
X0220181Y0023819D01*
X0215000Y0031000D01*
X0215043Y0031043D01*
X0215043Y0037386D01*
X0217500Y0037283D02*
X0217500Y0032000D01*
X0222213Y0025787D01*
X0254031Y0025787D01*
X0254031Y0027756D02*
X0223744Y0027756D01*
X0220000Y0033000D01*
X0220000Y0037224D01*
X0220161Y0037386D01*
X0222500Y0037165D02*
X0222500Y0033500D01*
X0224650Y0030350D01*
X0254031Y0030350D01*
X0254031Y0032319D02*
X0226681Y0032319D01*
X0225500Y0033500D01*
X0225500Y0037165D01*
X0225280Y0037386D01*
X0222720Y0037386D02*
X0222500Y0037165D01*
X0217602Y0037386D02*
X0217500Y0037283D01*
X0204000Y0040598D02*
X0204000Y0066000D01*
X0207000Y0064000D02*
X0210000Y0066000D01*
X0216000Y0066000D01*
X0217602Y0063398D01*
X0217602Y0060614D01*
X0215043Y0060614D02*
X0215043Y0056260D01*
X0215831Y0056260D01*
X0216213Y0056362D01*
X0216440Y0056493D01*
X0216473Y0056460D01*
X0218731Y0056460D01*
X0218882Y0056610D01*
X0219032Y0056460D01*
X0220920Y0056460D01*
X0220920Y0055789D01*
X0220698Y0055697D01*
X0219803Y0054802D01*
X0219319Y0053633D01*
X0219319Y0052604D01*
X0219133Y0052681D01*
X0217867Y0052681D01*
X0216698Y0052197D01*
X0215803Y0051302D01*
X0215319Y0050133D01*
X0215319Y0048867D01*
X0215319Y0049429D02*
X0208800Y0049429D01*
X0208800Y0050427D02*
X0215441Y0050427D01*
X0215927Y0051426D02*
X0208800Y0051426D01*
X0208800Y0052424D02*
X0217247Y0052424D01*
X0219319Y0053423D02*
X0208800Y0053423D01*
X0208800Y0054421D02*
X0219645Y0054421D01*
X0220421Y0055420D02*
X0208800Y0055420D01*
X0208800Y0056418D02*
X0213777Y0056418D01*
X0215043Y0056418D02*
X0215043Y0056418D01*
X0215043Y0057417D02*
X0215043Y0057417D01*
X0215043Y0058415D02*
X0215043Y0058415D01*
X0215043Y0059414D02*
X0215043Y0059414D01*
X0215043Y0060412D02*
X0215043Y0060412D01*
X0212953Y0060412D02*
X0208800Y0060412D01*
X0208800Y0059414D02*
X0212953Y0059414D01*
X0212953Y0058415D02*
X0208800Y0058415D01*
X0208800Y0057417D02*
X0212992Y0057417D01*
X0216310Y0056418D02*
X0220920Y0056418D01*
X0222720Y0054780D02*
X0222500Y0053000D01*
X0222720Y0054780D02*
X0222720Y0060614D01*
X0220161Y0060614D02*
X0220161Y0063339D01*
X0218500Y0065500D01*
X0218500Y0072000D01*
X0210000Y0080500D01*
X0205000Y0079500D02*
X0205000Y0092000D01*
X0202402Y0094598D01*
X0199000Y0094598D01*
X0202000Y0097598D01*
X0202000Y0104500D01*
X0205000Y0107500D01*
X0205000Y0133500D01*
X0206800Y0133303D02*
X0254050Y0133303D01*
X0253042Y0132305D02*
X0206800Y0132305D01*
X0206800Y0131306D02*
X0252034Y0131306D01*
X0251027Y0130308D02*
X0206800Y0130308D01*
X0206800Y0129309D02*
X0250019Y0129309D01*
X0249011Y0128311D02*
X0206800Y0128311D01*
X0206800Y0127312D02*
X0248003Y0127312D01*
X0246996Y0126314D02*
X0206800Y0126314D01*
X0206800Y0125315D02*
X0245988Y0125315D01*
X0244980Y0124317D02*
X0206800Y0124317D01*
X0206800Y0123318D02*
X0243972Y0123318D01*
X0242965Y0122320D02*
X0206800Y0122320D01*
X0206800Y0121321D02*
X0241957Y0121321D01*
X0240949Y0120323D02*
X0206800Y0120323D01*
X0206800Y0119324D02*
X0239941Y0119324D01*
X0238934Y0118326D02*
X0206800Y0118326D01*
X0206800Y0117327D02*
X0237926Y0117327D01*
X0236918Y0116329D02*
X0206800Y0116329D01*
X0206800Y0115330D02*
X0235910Y0115330D01*
X0234902Y0114332D02*
X0206800Y0114332D01*
X0206800Y0113333D02*
X0233895Y0113333D01*
X0232887Y0112335D02*
X0206800Y0112335D01*
X0206800Y0111336D02*
X0231879Y0111336D01*
X0230871Y0110338D02*
X0206800Y0110338D01*
X0206800Y0109339D02*
X0229864Y0109339D01*
X0228856Y0108341D02*
X0206800Y0108341D01*
X0206800Y0107342D02*
X0227848Y0107342D01*
X0226840Y0106344D02*
X0206389Y0106344D01*
X0205746Y0105700D02*
X0205746Y0105700D01*
X0205391Y0105345D02*
X0225833Y0105345D01*
X0224825Y0104347D02*
X0204392Y0104347D01*
X0204563Y0103348D02*
X0203800Y0103348D01*
X0206000Y0100500D02*
X0223500Y0100500D01*
X0278000Y0154500D01*
X0278500Y0154500D01*
X0279000Y0155000D01*
X0281231Y0157268D02*
X0284200Y0157268D01*
X0284200Y0158266D02*
X0237907Y0158266D01*
X0237993Y0158448D02*
X0237808Y0158056D01*
X0237487Y0157941D01*
X0237246Y0157700D01*
X0236812Y0157700D01*
X0236403Y0157554D01*
X0236095Y0157700D01*
X0214746Y0157700D01*
X0213254Y0157700D01*
X0210635Y0160320D01*
X0210633Y0160319D01*
X0209367Y0160319D01*
X0208198Y0160803D01*
X0207303Y0161698D01*
X0206819Y0162867D01*
X0206819Y0164133D01*
X0207303Y0165302D01*
X0208198Y0166197D01*
X0209367Y0166681D01*
X0210633Y0166681D01*
X0211802Y0166197D01*
X0212697Y0165302D01*
X0213181Y0164133D01*
X0213181Y0162867D01*
X0213180Y0162865D01*
X0214746Y0161300D01*
X0235361Y0161300D01*
X0237372Y0165546D01*
X0236700Y0166219D01*
X0236700Y0169781D01*
X0239219Y0172300D01*
X0242781Y0172300D01*
X0245300Y0169781D01*
X0245300Y0166219D01*
X0242781Y0163700D01*
X0240481Y0163700D01*
X0238300Y0159095D01*
X0238300Y0158754D01*
X0237993Y0158448D01*
X0238380Y0159265D02*
X0284200Y0159265D01*
X0284200Y0160263D02*
X0263706Y0160263D01*
X0263802Y0160303D02*
X0262633Y0159819D01*
X0261367Y0159819D01*
X0260198Y0160303D01*
X0259303Y0161198D01*
X0258819Y0162367D01*
X0258819Y0163633D01*
X0259303Y0164802D01*
X0260198Y0165697D01*
X0261367Y0166181D01*
X0262633Y0166181D01*
X0263802Y0165697D01*
X0264697Y0164802D01*
X0265181Y0163633D01*
X0265181Y0162367D01*
X0264697Y0161198D01*
X0263802Y0160303D01*
X0264723Y0161262D02*
X0284200Y0161262D01*
X0284200Y0162260D02*
X0265137Y0162260D01*
X0265181Y0163259D02*
X0284200Y0163259D01*
X0284200Y0164257D02*
X0264922Y0164257D01*
X0264243Y0165256D02*
X0284200Y0165256D01*
X0284200Y0166254D02*
X0245300Y0166254D01*
X0245300Y0167253D02*
X0284200Y0167253D01*
X0284200Y0168251D02*
X0245300Y0168251D01*
X0245300Y0169250D02*
X0284200Y0169250D01*
X0284200Y0170248D02*
X0244833Y0170248D01*
X0243834Y0171247D02*
X0284200Y0171247D01*
X0284200Y0172245D02*
X0242836Y0172245D01*
X0242781Y0173700D02*
X0245300Y0176219D01*
X0245300Y0179781D01*
X0242781Y0182300D01*
X0239219Y0182300D01*
X0236700Y0179781D01*
X0236700Y0176219D01*
X0239219Y0173700D01*
X0242781Y0173700D01*
X0243324Y0174242D02*
X0284632Y0174242D01*
X0284200Y0173244D02*
X0206800Y0173244D01*
X0206800Y0174242D02*
X0218676Y0174242D01*
X0219219Y0173700D02*
X0216700Y0176219D01*
X0216700Y0179781D01*
X0219219Y0182300D01*
X0222781Y0182300D01*
X0225300Y0179781D01*
X0225300Y0176219D01*
X0222781Y0173700D01*
X0219219Y0173700D01*
X0219219Y0172300D02*
X0216700Y0169781D01*
X0216700Y0166219D01*
X0219219Y0163700D01*
X0222781Y0163700D01*
X0225300Y0166219D01*
X0225300Y0169781D01*
X0222781Y0172300D01*
X0219219Y0172300D01*
X0219164Y0172245D02*
X0206800Y0172245D01*
X0206800Y0171247D02*
X0218166Y0171247D01*
X0217167Y0170248D02*
X0206800Y0170248D01*
X0206800Y0169250D02*
X0216700Y0169250D01*
X0216700Y0168251D02*
X0206800Y0168251D01*
X0206800Y0167253D02*
X0216700Y0167253D01*
X0216700Y0166254D02*
X0211663Y0166254D01*
X0212716Y0165256D02*
X0217663Y0165256D01*
X0218662Y0164257D02*
X0213129Y0164257D01*
X0213181Y0163259D02*
X0236289Y0163259D01*
X0236762Y0164257D02*
X0233338Y0164257D01*
X0232781Y0163700D02*
X0235300Y0166219D01*
X0235300Y0169781D01*
X0232781Y0172300D01*
X0229219Y0172300D01*
X0226700Y0169781D01*
X0226700Y0166219D01*
X0229219Y0163700D01*
X0232781Y0163700D01*
X0234337Y0165256D02*
X0237235Y0165256D01*
X0236700Y0166254D02*
X0235300Y0166254D01*
X0235300Y0167253D02*
X0236700Y0167253D01*
X0236700Y0168251D02*
X0235300Y0168251D01*
X0235300Y0169250D02*
X0236700Y0169250D01*
X0237167Y0170248D02*
X0234833Y0170248D01*
X0233834Y0171247D02*
X0238166Y0171247D01*
X0239164Y0172245D02*
X0232836Y0172245D01*
X0232781Y0173700D02*
X0235300Y0176219D01*
X0235300Y0179781D01*
X0232781Y0182300D01*
X0229219Y0182300D01*
X0226700Y0179781D01*
X0226700Y0176219D01*
X0229219Y0173700D01*
X0232781Y0173700D01*
X0233324Y0174242D02*
X0238676Y0174242D01*
X0237678Y0175241D02*
X0234322Y0175241D01*
X0235300Y0176239D02*
X0236700Y0176239D01*
X0236700Y0177238D02*
X0235300Y0177238D01*
X0235300Y0178237D02*
X0236700Y0178237D01*
X0236700Y0179235D02*
X0235300Y0179235D01*
X0234848Y0180234D02*
X0237152Y0180234D01*
X0238151Y0181232D02*
X0233849Y0181232D01*
X0232851Y0182231D02*
X0239149Y0182231D01*
X0242851Y0182231D02*
X0287651Y0182231D01*
X0287651Y0183229D02*
X0206800Y0183229D01*
X0206800Y0182231D02*
X0219149Y0182231D01*
X0218151Y0181232D02*
X0206800Y0181232D01*
X0206800Y0180234D02*
X0217152Y0180234D01*
X0216700Y0179235D02*
X0206800Y0179235D01*
X0206800Y0178237D02*
X0216700Y0178237D01*
X0216700Y0177238D02*
X0206800Y0177238D01*
X0206800Y0176239D02*
X0216700Y0176239D01*
X0217678Y0175241D02*
X0206800Y0175241D01*
X0203200Y0175241D02*
X0196681Y0175241D01*
X0196629Y0174242D02*
X0203200Y0174242D01*
X0203200Y0173244D02*
X0196216Y0173244D01*
X0195163Y0172245D02*
X0198815Y0172245D01*
X0200500Y0169500D02*
X0191500Y0169500D01*
X0180500Y0152000D01*
X0177500Y0149000D01*
X0173500Y0143000D01*
X0152500Y0147000D01*
X0154719Y0149280D02*
X0169781Y0149280D01*
X0169087Y0148281D02*
X0155413Y0148281D01*
X0160636Y0147283D02*
X0168819Y0147283D01*
X0168853Y0146284D02*
X0165878Y0146284D01*
X0162365Y0143289D02*
X0151953Y0143289D01*
X0151953Y0142290D02*
X0167607Y0142290D01*
X0173500Y0143000D02*
X0173500Y0111740D01*
X0169050Y0112335D02*
X0168150Y0112335D01*
X0168150Y0113333D02*
X0169050Y0113333D01*
X0169050Y0114332D02*
X0168150Y0114332D01*
X0167740Y0115330D02*
X0169543Y0115330D01*
X0171700Y0116329D02*
X0148000Y0116329D01*
X0147500Y0116260D02*
X0137500Y0119260D01*
X0131500Y0122760D01*
X0131500Y0141000D01*
X0137500Y0144000D01*
X0137500Y0143740D01*
X0147500Y0140740D01*
X0147000Y0140293D02*
X0141672Y0140293D01*
X0141753Y0139295D02*
X0143047Y0139295D01*
X0143047Y0138296D02*
X0141753Y0138296D01*
X0141753Y0137298D02*
X0143325Y0137298D01*
X0143047Y0141240D02*
X0147000Y0141240D01*
X0147000Y0144799D01*
X0144350Y0144799D01*
X0143968Y0144697D01*
X0143626Y0144499D01*
X0143347Y0144220D01*
X0143149Y0143878D01*
X0143047Y0143497D01*
X0143047Y0141240D01*
X0143047Y0141292D02*
X0141953Y0141292D01*
X0141953Y0142290D02*
X0143047Y0142290D01*
X0143047Y0143289D02*
X0138000Y0143289D01*
X0138000Y0144287D02*
X0137000Y0144287D01*
X0137000Y0144240D02*
X0137000Y0147799D01*
X0134350Y0147799D01*
X0133968Y0147697D01*
X0133626Y0147499D01*
X0133347Y0147220D01*
X0133149Y0146878D01*
X0133047Y0146497D01*
X0133047Y0144240D01*
X0137000Y0144240D01*
X0137000Y0143289D02*
X0113300Y0143289D01*
X0113300Y0144287D02*
X0133047Y0144287D01*
X0133047Y0145286D02*
X0113300Y0145286D01*
X0113300Y0146284D02*
X0133047Y0146284D01*
X0133409Y0147283D02*
X0113300Y0147283D01*
X0113300Y0148281D02*
X0149587Y0148281D01*
X0149319Y0147283D02*
X0141591Y0147283D01*
X0141953Y0146284D02*
X0149353Y0146284D01*
X0149767Y0145286D02*
X0141953Y0145286D01*
X0141953Y0144287D02*
X0143414Y0144287D01*
X0147000Y0144287D02*
X0148000Y0144287D01*
X0148000Y0143289D02*
X0147000Y0143289D01*
X0147000Y0142290D02*
X0148000Y0142290D01*
X0148000Y0141292D02*
X0147000Y0141292D01*
X0154263Y0144287D02*
X0157123Y0144287D01*
X0150281Y0149280D02*
X0113300Y0149280D01*
X0113300Y0150278D02*
X0171829Y0150278D01*
X0172593Y0151277D02*
X0113300Y0151277D01*
X0113300Y0152275D02*
X0173356Y0152275D01*
X0174120Y0153274D02*
X0113300Y0153274D01*
X0113300Y0154272D02*
X0137689Y0154272D01*
X0137500Y0154462D02*
X0138262Y0153700D01*
X0148138Y0153700D01*
X0148900Y0154462D01*
X0148900Y0160338D01*
X0148138Y0161100D01*
X0138262Y0161100D01*
X0137500Y0160338D01*
X0137500Y0154462D01*
X0137500Y0155271D02*
X0113300Y0155271D01*
X0113300Y0156269D02*
X0137500Y0156269D01*
X0137500Y0157268D02*
X0113300Y0157268D01*
X0113890Y0158016D02*
X0114271Y0157913D01*
X0118299Y0157913D01*
X0118299Y0166000D01*
X0119299Y0166000D01*
X0119299Y0157913D01*
X0123327Y0157913D01*
X0123709Y0158016D01*
X0124051Y0158213D01*
X0124330Y0158492D01*
X0124528Y0158834D01*
X0124630Y0159216D01*
X0124630Y0166000D01*
X0119299Y0166000D01*
X0119299Y0167000D01*
X0118299Y0167000D01*
X0118299Y0175087D01*
X0114271Y0175087D01*
X0113890Y0174984D01*
X0113547Y0174787D01*
X0113300Y0174539D01*
X0113300Y0189229D01*
X0113448Y0189575D01*
X0113300Y0190219D02*
X0123872Y0190219D01*
X0122873Y0191217D02*
X0112427Y0191217D01*
X0111500Y0189598D02*
X0106500Y0187598D01*
X0101651Y0187223D02*
X0037133Y0187223D01*
X0038131Y0188222D02*
X0101651Y0188222D01*
X0101651Y0189220D02*
X0039130Y0189220D01*
X0040128Y0190219D02*
X0101651Y0190219D01*
X0101651Y0191217D02*
X0040800Y0191217D01*
X0040800Y0192216D02*
X0122700Y0192216D01*
X0122700Y0193214D02*
X0040800Y0193214D01*
X0040800Y0194213D02*
X0122700Y0194213D01*
X0122700Y0195211D02*
X0040800Y0195211D01*
X0040700Y0196210D02*
X0122700Y0196210D01*
X0123299Y0197208D02*
X0039701Y0197208D01*
X0041868Y0198207D02*
X0124297Y0198207D01*
X0125296Y0199205D02*
X0094362Y0199205D01*
X0111500Y0189598D02*
X0111500Y0164000D01*
X0107098Y0159598D01*
X0106500Y0159598D01*
X0111500Y0164000D02*
X0111500Y0132000D01*
X0106500Y0127000D01*
X0106500Y0126598D01*
X0113300Y0126314D02*
X0133247Y0126314D01*
X0133247Y0127312D02*
X0113300Y0127312D01*
X0113300Y0128311D02*
X0133247Y0128311D01*
X0133247Y0129309D02*
X0113300Y0129309D01*
X0113300Y0130308D02*
X0133718Y0130308D01*
X0135700Y0131306D02*
X0113300Y0131306D01*
X0113300Y0132305D02*
X0135700Y0132305D01*
X0133247Y0133303D02*
X0113300Y0133303D01*
X0113300Y0134302D02*
X0133247Y0134302D01*
X0133247Y0135301D02*
X0113300Y0135301D01*
X0113300Y0136299D02*
X0133247Y0136299D01*
X0133247Y0137298D02*
X0113300Y0137298D01*
X0113300Y0138296D02*
X0133247Y0138296D01*
X0133247Y0139295D02*
X0113300Y0139295D01*
X0113300Y0140293D02*
X0133328Y0140293D01*
X0133047Y0141292D02*
X0113300Y0141292D01*
X0113300Y0142290D02*
X0133047Y0142290D01*
X0131500Y0141000D02*
X0129500Y0142000D01*
X0137000Y0145286D02*
X0138000Y0145286D01*
X0138000Y0146284D02*
X0137000Y0146284D01*
X0137000Y0147283D02*
X0138000Y0147283D01*
X0149500Y0154126D02*
X0149780Y0153847D01*
X0150122Y0153649D01*
X0150503Y0153547D01*
X0152760Y0153547D01*
X0152760Y0157500D01*
X0149201Y0157500D01*
X0149201Y0154850D01*
X0149303Y0154468D01*
X0149500Y0154126D01*
X0149416Y0154272D02*
X0148711Y0154272D01*
X0148900Y0155271D02*
X0149201Y0155271D01*
X0149201Y0156269D02*
X0148900Y0156269D01*
X0148900Y0157268D02*
X0149201Y0157268D01*
X0148900Y0158266D02*
X0152760Y0158266D01*
X0152760Y0157268D02*
X0153760Y0157268D01*
X0153760Y0156269D02*
X0152760Y0156269D01*
X0152760Y0155271D02*
X0153760Y0155271D01*
X0153760Y0154272D02*
X0152760Y0154272D01*
X0157103Y0154272D02*
X0157118Y0154272D01*
X0153760Y0159265D02*
X0152760Y0159265D01*
X0152760Y0160263D02*
X0153760Y0160263D01*
X0153760Y0161262D02*
X0152760Y0161262D01*
X0152760Y0162260D02*
X0153760Y0162260D01*
X0156554Y0162260D02*
X0158640Y0162260D01*
X0158640Y0163259D02*
X0148846Y0163259D01*
X0148800Y0163179D02*
X0148998Y0163521D01*
X0149100Y0163903D01*
X0149100Y0166000D01*
X0143700Y0166000D01*
X0143700Y0167000D01*
X0142700Y0167000D01*
X0142700Y0170400D01*
X0138603Y0170400D01*
X0138221Y0170298D01*
X0137879Y0170100D01*
X0137600Y0169821D01*
X0137402Y0169479D01*
X0137300Y0169097D01*
X0137300Y0167000D01*
X0142700Y0167000D01*
X0142700Y0166000D01*
X0143700Y0166000D01*
X0143700Y0162600D01*
X0147797Y0162600D01*
X0148179Y0162702D01*
X0148521Y0162900D01*
X0148800Y0163179D01*
X0149100Y0164257D02*
X0158640Y0164257D01*
X0158640Y0165256D02*
X0149100Y0165256D01*
X0149100Y0167000D02*
X0149100Y0169097D01*
X0148998Y0169479D01*
X0148800Y0169821D01*
X0148521Y0170100D01*
X0148179Y0170298D01*
X0147797Y0170400D01*
X0143700Y0170400D01*
X0143700Y0167000D01*
X0149100Y0167000D01*
X0149100Y0167253D02*
X0158783Y0167253D01*
X0158640Y0166254D02*
X0143700Y0166254D01*
X0143700Y0165256D02*
X0142700Y0165256D01*
X0142700Y0166000D02*
X0142700Y0162600D01*
X0138603Y0162600D01*
X0138221Y0162702D01*
X0137879Y0162900D01*
X0137600Y0163179D01*
X0137402Y0163521D01*
X0137300Y0163903D01*
X0137300Y0166000D01*
X0142700Y0166000D01*
X0142700Y0166254D02*
X0119299Y0166254D01*
X0119299Y0167000D02*
X0124630Y0167000D01*
X0124630Y0173784D01*
X0124528Y0174166D01*
X0124330Y0174508D01*
X0124051Y0174787D01*
X0123709Y0174984D01*
X0123327Y0175087D01*
X0119299Y0175087D01*
X0119299Y0167000D01*
X0119299Y0167253D02*
X0118299Y0167253D01*
X0118299Y0168251D02*
X0119299Y0168251D01*
X0119299Y0169250D02*
X0118299Y0169250D01*
X0118299Y0170248D02*
X0119299Y0170248D01*
X0119299Y0171247D02*
X0118299Y0171247D01*
X0118299Y0172245D02*
X0119299Y0172245D01*
X0119299Y0173244D02*
X0118299Y0173244D01*
X0118299Y0174242D02*
X0119299Y0174242D01*
X0124483Y0174242D02*
X0137500Y0174242D01*
X0137500Y0173244D02*
X0124630Y0173244D01*
X0124630Y0172245D02*
X0137916Y0172245D01*
X0138136Y0170248D02*
X0124630Y0170248D01*
X0124630Y0169250D02*
X0137341Y0169250D01*
X0137300Y0168251D02*
X0124630Y0168251D01*
X0124630Y0167253D02*
X0137300Y0167253D01*
X0137300Y0165256D02*
X0124630Y0165256D01*
X0124630Y0164257D02*
X0137300Y0164257D01*
X0137554Y0163259D02*
X0124630Y0163259D01*
X0124630Y0162260D02*
X0149966Y0162260D01*
X0149231Y0161262D02*
X0124630Y0161262D01*
X0124630Y0160263D02*
X0137500Y0160263D01*
X0137500Y0159265D02*
X0124630Y0159265D01*
X0124104Y0158266D02*
X0137500Y0158266D01*
X0142700Y0163259D02*
X0143700Y0163259D01*
X0143700Y0164257D02*
X0142700Y0164257D01*
X0142700Y0167253D02*
X0143700Y0167253D01*
X0143700Y0168251D02*
X0142700Y0168251D01*
X0142700Y0169250D02*
X0143700Y0169250D01*
X0143700Y0170248D02*
X0142700Y0170248D01*
X0148264Y0170248D02*
X0161779Y0170248D01*
X0162777Y0171247D02*
X0124630Y0171247D01*
X0119299Y0165256D02*
X0118299Y0165256D01*
X0118299Y0164257D02*
X0119299Y0164257D01*
X0119299Y0163259D02*
X0118299Y0163259D01*
X0118299Y0162260D02*
X0119299Y0162260D01*
X0119299Y0161262D02*
X0118299Y0161262D01*
X0118299Y0160263D02*
X0119299Y0160263D01*
X0119299Y0159265D02*
X0118299Y0159265D01*
X0118299Y0158266D02*
X0119299Y0158266D01*
X0113890Y0158016D02*
X0113547Y0158213D01*
X0113300Y0158461D01*
X0113300Y0086799D01*
X0113698Y0087197D01*
X0114867Y0087681D01*
X0116133Y0087681D01*
X0117262Y0087213D01*
X0117709Y0087405D01*
X0117763Y0087505D01*
X0118382Y0087693D01*
X0118976Y0087948D01*
X0119081Y0087906D01*
X0119189Y0087939D01*
X0119760Y0087635D01*
X0120361Y0087394D01*
X0120405Y0087291D01*
X0126698Y0083934D01*
X0126707Y0083937D01*
X0127354Y0083584D01*
X0128005Y0083237D01*
X0128008Y0083228D01*
X0132697Y0080670D01*
X0133231Y0080510D01*
X0133331Y0080324D01*
X0133516Y0080223D01*
X0133674Y0079688D01*
X0137045Y0073428D01*
X0137411Y0072878D01*
X0137392Y0072783D01*
X0137438Y0072697D01*
X0137248Y0072064D01*
X0136779Y0069719D01*
X0137197Y0069302D01*
X0137681Y0068133D01*
X0137681Y0066867D01*
X0137197Y0065698D01*
X0136302Y0064803D01*
X0135133Y0064319D01*
X0134743Y0064319D01*
X0134137Y0063268D01*
X0135086Y0063268D01*
X0135847Y0062507D01*
X0135847Y0055721D01*
X0135086Y0054960D01*
X0132828Y0054960D01*
X0132677Y0055110D01*
X0132527Y0054960D01*
X0130269Y0054960D01*
X0130118Y0055110D01*
X0129968Y0054960D01*
X0127710Y0054960D01*
X0127559Y0055110D01*
X0127409Y0054960D01*
X0125150Y0054960D01*
X0125000Y0055110D01*
X0124849Y0054960D01*
X0122591Y0054960D01*
X0122441Y0055110D01*
X0122290Y0054960D01*
X0120032Y0054960D01*
X0119882Y0055110D01*
X0119731Y0054960D01*
X0117473Y0054960D01*
X0117440Y0054993D01*
X0117213Y0054862D01*
X0116831Y0054760D01*
X0116043Y0054760D01*
X0116043Y0059114D01*
X0116043Y0058415D02*
X0116043Y0058415D01*
X0116043Y0057417D02*
X0116043Y0057417D01*
X0116043Y0056418D02*
X0116043Y0056418D01*
X0116043Y0055420D02*
X0116043Y0055420D01*
X0115300Y0054421D02*
X0142773Y0054421D01*
X0142200Y0055420D02*
X0135545Y0055420D01*
X0135847Y0056418D02*
X0142200Y0056418D01*
X0142200Y0057417D02*
X0135847Y0057417D01*
X0135847Y0058415D02*
X0142200Y0058415D01*
X0142200Y0059414D02*
X0135847Y0059414D01*
X0135847Y0060412D02*
X0142200Y0060412D01*
X0142200Y0061411D02*
X0135847Y0061411D01*
X0135847Y0062409D02*
X0142200Y0062409D01*
X0142200Y0063408D02*
X0134217Y0063408D01*
X0135344Y0064406D02*
X0142200Y0064406D01*
X0142200Y0065405D02*
X0136903Y0065405D01*
X0137489Y0066403D02*
X0142200Y0066403D01*
X0142200Y0067402D02*
X0137681Y0067402D01*
X0137570Y0068400D02*
X0142200Y0068400D01*
X0142200Y0069399D02*
X0137100Y0069399D01*
X0136915Y0070397D02*
X0142200Y0070397D01*
X0142200Y0071396D02*
X0137115Y0071396D01*
X0137348Y0072394D02*
X0142200Y0072394D01*
X0142200Y0073393D02*
X0137068Y0073393D01*
X0136526Y0074391D02*
X0142200Y0074391D01*
X0142200Y0075390D02*
X0135988Y0075390D01*
X0135451Y0076388D02*
X0142200Y0076388D01*
X0142200Y0077387D02*
X0134913Y0077387D01*
X0134375Y0078385D02*
X0142200Y0078385D01*
X0142200Y0079384D02*
X0133838Y0079384D01*
X0133300Y0080382D02*
X0142200Y0080382D01*
X0142200Y0081381D02*
X0131394Y0081381D01*
X0129563Y0082379D02*
X0142200Y0082379D01*
X0142200Y0083378D02*
X0127741Y0083378D01*
X0126500Y0082000D02*
X0119000Y0086000D01*
X0115500Y0084500D01*
X0116879Y0087372D02*
X0117632Y0087372D01*
X0120370Y0087372D02*
X0142200Y0087372D01*
X0142200Y0088370D02*
X0113300Y0088370D01*
X0113300Y0087372D02*
X0114121Y0087372D01*
X0113300Y0089369D02*
X0142174Y0089369D01*
X0141655Y0090368D02*
X0113300Y0090368D01*
X0113300Y0091366D02*
X0141136Y0091366D01*
X0140617Y0092365D02*
X0127363Y0092365D01*
X0127302Y0092303D02*
X0128197Y0093198D01*
X0128681Y0094367D01*
X0128681Y0095633D01*
X0128197Y0096802D01*
X0127302Y0097697D01*
X0126133Y0098181D01*
X0125154Y0098181D01*
X0124422Y0099041D01*
X0124422Y0099124D01*
X0123946Y0099600D01*
X0123509Y0100113D01*
X0123426Y0100119D01*
X0123368Y0100178D01*
X0123253Y0100178D01*
X0123253Y0101475D01*
X0122719Y0102009D01*
X0122874Y0102099D01*
X0123153Y0102378D01*
X0123351Y0102720D01*
X0123453Y0103102D01*
X0123453Y0105358D01*
X0119500Y0105358D01*
X0119500Y0106358D01*
X0123453Y0106358D01*
X0123453Y0108615D01*
X0123351Y0108996D01*
X0123153Y0109338D01*
X0122874Y0109618D01*
X0122532Y0109815D01*
X0122150Y0109917D01*
X0119500Y0109917D01*
X0119500Y0106358D01*
X0118500Y0106358D01*
X0118500Y0105358D01*
X0114547Y0105358D01*
X0114547Y0103102D01*
X0114649Y0102720D01*
X0114847Y0102378D01*
X0115126Y0102099D01*
X0115281Y0102009D01*
X0114747Y0101475D01*
X0114747Y0095280D01*
X0115509Y0094519D01*
X0122319Y0094519D01*
X0122319Y0094367D01*
X0122803Y0093198D01*
X0123698Y0092303D01*
X0124867Y0091819D01*
X0126133Y0091819D01*
X0127302Y0092303D01*
X0128265Y0093363D02*
X0140098Y0093363D01*
X0139578Y0094362D02*
X0128679Y0094362D01*
X0128681Y0095360D02*
X0139059Y0095360D01*
X0138540Y0096359D02*
X0128380Y0096359D01*
X0127642Y0097357D02*
X0138021Y0097357D01*
X0137501Y0098356D02*
X0125006Y0098356D01*
X0124191Y0099354D02*
X0133247Y0099354D01*
X0133247Y0100353D02*
X0123253Y0100353D01*
X0123253Y0101351D02*
X0133247Y0101351D01*
X0133247Y0102350D02*
X0123124Y0102350D01*
X0123453Y0103348D02*
X0133247Y0103348D01*
X0133247Y0104347D02*
X0123453Y0104347D01*
X0123453Y0105345D02*
X0133247Y0105345D01*
X0133546Y0106344D02*
X0119500Y0106344D01*
X0119000Y0105858D02*
X0115500Y0109858D01*
X0115000Y0119500D01*
X0113300Y0119324D02*
X0137000Y0119324D01*
X0137000Y0118326D02*
X0138000Y0118326D01*
X0138000Y0118760D02*
X0138000Y0115201D01*
X0140650Y0115201D01*
X0141032Y0115303D01*
X0141374Y0115500D01*
X0141653Y0115780D01*
X0141851Y0116122D01*
X0141953Y0116503D01*
X0141953Y0118760D01*
X0138000Y0118760D01*
X0138000Y0119324D02*
X0143130Y0119324D01*
X0143047Y0118326D02*
X0141953Y0118326D01*
X0141953Y0117327D02*
X0143047Y0117327D01*
X0141906Y0116329D02*
X0147000Y0116329D01*
X0147500Y0116260D02*
X0158500Y0121260D01*
X0159000Y0121321D02*
X0171700Y0121321D01*
X0171700Y0120323D02*
X0162953Y0120323D01*
X0162953Y0120760D02*
X0159000Y0120760D01*
X0159000Y0117201D01*
X0161650Y0117201D01*
X0162032Y0117303D01*
X0162374Y0117500D01*
X0162653Y0117780D01*
X0162851Y0118122D01*
X0162953Y0118503D01*
X0162953Y0120760D01*
X0162953Y0119324D02*
X0171700Y0119324D01*
X0171700Y0118326D02*
X0162905Y0118326D01*
X0162074Y0117327D02*
X0171700Y0117327D01*
X0171700Y0122320D02*
X0162953Y0122320D01*
X0162953Y0123318D02*
X0171700Y0123318D01*
X0171700Y0124317D02*
X0162872Y0124317D01*
X0162426Y0125315D02*
X0171700Y0125315D01*
X0171700Y0126314D02*
X0162753Y0126314D01*
X0162753Y0127312D02*
X0171700Y0127312D01*
X0171700Y0128311D02*
X0162753Y0128311D01*
X0162753Y0129309D02*
X0171700Y0129309D01*
X0171700Y0130308D02*
X0162753Y0130308D01*
X0162753Y0131306D02*
X0171700Y0131306D01*
X0171700Y0132305D02*
X0162285Y0132305D01*
X0162698Y0133303D02*
X0159395Y0133303D01*
X0157000Y0136000D02*
X0164500Y0136000D01*
X0166703Y0138296D02*
X0171700Y0138296D01*
X0171700Y0137298D02*
X0167406Y0137298D01*
X0167681Y0136299D02*
X0171700Y0136299D01*
X0171700Y0135301D02*
X0167653Y0135301D01*
X0167240Y0134302D02*
X0171700Y0134302D01*
X0171700Y0133303D02*
X0166302Y0133303D01*
X0162297Y0138296D02*
X0159203Y0138296D01*
X0157000Y0136000D02*
X0158500Y0128740D01*
X0154247Y0128311D02*
X0149300Y0128311D01*
X0149300Y0129309D02*
X0154247Y0129309D01*
X0154247Y0130308D02*
X0151753Y0130308D01*
X0151753Y0131306D02*
X0154247Y0131306D01*
X0154715Y0132305D02*
X0151753Y0132305D01*
X0154146Y0133303D02*
X0155198Y0133303D01*
X0157000Y0136000D02*
X0147500Y0133260D01*
X0147500Y0123740D01*
X0137500Y0126740D01*
X0137500Y0136260D01*
X0147500Y0133260D01*
X0151675Y0137298D02*
X0154094Y0137298D01*
X0154797Y0138296D02*
X0151953Y0138296D01*
X0151278Y0127312D02*
X0154247Y0127312D01*
X0154247Y0126314D02*
X0151753Y0126314D01*
X0151753Y0125315D02*
X0154574Y0125315D01*
X0154128Y0124317D02*
X0151753Y0124317D01*
X0151753Y0123318D02*
X0154047Y0123318D01*
X0154047Y0122320D02*
X0151753Y0122320D01*
X0151753Y0121321D02*
X0158000Y0121321D01*
X0158000Y0120323D02*
X0159000Y0120323D01*
X0159000Y0119324D02*
X0158000Y0119324D01*
X0158000Y0118326D02*
X0159000Y0118326D01*
X0159000Y0117327D02*
X0158000Y0117327D01*
X0159429Y0115499D02*
X0159150Y0115220D01*
X0158953Y0114878D01*
X0158850Y0114497D01*
X0158850Y0112240D01*
X0163000Y0112240D01*
X0163000Y0115799D01*
X0160153Y0115799D01*
X0159771Y0115697D01*
X0159429Y0115499D01*
X0159260Y0115330D02*
X0151953Y0115330D01*
X0151953Y0115760D02*
X0148000Y0115760D01*
X0148000Y0112201D01*
X0150650Y0112201D01*
X0151032Y0112303D01*
X0151374Y0112500D01*
X0151653Y0112780D01*
X0151851Y0113122D01*
X0151953Y0113503D01*
X0151953Y0115760D01*
X0151953Y0114332D02*
X0158850Y0114332D01*
X0158850Y0113333D02*
X0151907Y0113333D01*
X0151087Y0112335D02*
X0158850Y0112335D01*
X0163000Y0112335D02*
X0164000Y0112335D01*
X0164000Y0113333D02*
X0163000Y0113333D01*
X0163000Y0114332D02*
X0164000Y0114332D01*
X0164000Y0115330D02*
X0163000Y0115330D01*
X0154926Y0117327D02*
X0151953Y0117327D01*
X0151953Y0118326D02*
X0154095Y0118326D01*
X0154047Y0119324D02*
X0151870Y0119324D01*
X0151433Y0120323D02*
X0154047Y0120323D01*
X0148000Y0115330D02*
X0147000Y0115330D01*
X0147000Y0114332D02*
X0148000Y0114332D01*
X0148000Y0113333D02*
X0147000Y0113333D01*
X0147000Y0112335D02*
X0148000Y0112335D01*
X0143913Y0112335D02*
X0141753Y0112335D01*
X0141753Y0111336D02*
X0163000Y0111336D01*
X0150540Y0102350D02*
X0150460Y0102350D01*
X0142901Y0105345D02*
X0141753Y0105345D01*
X0141753Y0104347D02*
X0142561Y0104347D01*
X0137500Y0109740D02*
X0130760Y0110000D01*
X0128500Y0113000D01*
X0130668Y0115330D02*
X0133921Y0115330D01*
X0133094Y0116329D02*
X0113300Y0116329D01*
X0113300Y0117327D02*
X0133047Y0117327D01*
X0133047Y0118326D02*
X0113300Y0118326D01*
X0113300Y0120323D02*
X0133047Y0120323D01*
X0133047Y0121321D02*
X0113300Y0121321D01*
X0113300Y0122320D02*
X0133129Y0122320D01*
X0133571Y0123318D02*
X0113300Y0123318D01*
X0113300Y0124317D02*
X0133247Y0124317D01*
X0133247Y0125315D02*
X0113300Y0125315D01*
X0111500Y0132000D02*
X0111500Y0099000D01*
X0106598Y0094098D01*
X0106500Y0094598D01*
X0111500Y0099000D02*
X0111500Y0065500D01*
X0111500Y0036598D01*
X0106500Y0031598D01*
X0106000Y0031098D01*
X0099000Y0031098D01*
X0096118Y0032454D02*
X0088092Y0032454D01*
X0089090Y0031455D02*
X0095819Y0031455D01*
X0095823Y0030457D02*
X0090089Y0030457D01*
X0091087Y0029458D02*
X0096236Y0029458D01*
X0097140Y0028460D02*
X0092086Y0028460D01*
X0093084Y0027461D02*
X0102100Y0027461D01*
X0101651Y0028460D02*
X0100860Y0028460D01*
X0102027Y0024466D02*
X0096080Y0024466D01*
X0095081Y0025464D02*
X0111990Y0025464D01*
X0111700Y0026463D02*
X0094083Y0026463D01*
X0090989Y0024466D02*
X0031000Y0024466D01*
X0031000Y0025464D02*
X0089990Y0025464D01*
X0088992Y0026463D02*
X0044544Y0026463D01*
X0044281Y0026200D02*
X0040719Y0026200D01*
X0038200Y0028719D01*
X0038200Y0032281D01*
X0040719Y0034800D01*
X0044281Y0034800D01*
X0046800Y0032281D01*
X0046800Y0028719D01*
X0044281Y0026200D01*
X0045542Y0027461D02*
X0087993Y0027461D01*
X0086995Y0028460D02*
X0046541Y0028460D01*
X0046800Y0029458D02*
X0085996Y0029458D01*
X0084998Y0030457D02*
X0046800Y0030457D01*
X0046800Y0031455D02*
X0083999Y0031455D01*
X0084000Y0034000D02*
X0097598Y0020402D01*
X0106500Y0020402D01*
X0106500Y0021500D01*
X0111349Y0021470D02*
X0115984Y0021470D01*
X0116983Y0020472D02*
X0111349Y0020472D01*
X0111349Y0019473D02*
X0117981Y0019473D01*
X0118980Y0018475D02*
X0111349Y0018475D01*
X0111349Y0017476D02*
X0287651Y0017476D01*
X0287651Y0016478D02*
X0130574Y0016478D01*
X0121681Y0021819D02*
X0155031Y0021819D01*
X0155031Y0023787D02*
X0123713Y0023787D01*
X0118500Y0029000D01*
X0118500Y0033783D01*
X0118602Y0035886D01*
X0116043Y0035886D02*
X0116000Y0033843D01*
X0116000Y0027500D01*
X0121681Y0021819D01*
X0120150Y0019850D02*
X0155031Y0019850D01*
X0158969Y0019850D02*
X0192449Y0019850D01*
X0199000Y0023402D01*
X0194151Y0023467D02*
X0189013Y0023467D01*
X0188014Y0022469D02*
X0193502Y0022469D01*
X0194151Y0024466D02*
X0190011Y0024466D01*
X0191010Y0025464D02*
X0194151Y0025464D01*
X0194151Y0026463D02*
X0192008Y0026463D01*
X0193007Y0027461D02*
X0194522Y0027461D01*
X0192500Y0029500D02*
X0184819Y0021819D01*
X0158969Y0021819D01*
X0158969Y0023787D02*
X0183787Y0023787D01*
X0190500Y0030500D01*
X0190500Y0074402D01*
X0199000Y0083402D01*
X0206800Y0092365D02*
X0277200Y0092365D01*
X0277200Y0093363D02*
X0206183Y0093363D01*
X0205184Y0094362D02*
X0277200Y0094362D01*
X0277200Y0095360D02*
X0204185Y0095360D01*
X0203849Y0096359D02*
X0277200Y0096359D01*
X0277200Y0097357D02*
X0206725Y0097357D01*
X0205275Y0097357D02*
X0203849Y0097357D01*
X0208354Y0098356D02*
X0277200Y0098356D01*
X0277200Y0099354D02*
X0224901Y0099354D01*
X0225909Y0100353D02*
X0277200Y0100353D01*
X0277200Y0101351D02*
X0226916Y0101351D01*
X0227924Y0102350D02*
X0277200Y0102350D01*
X0277200Y0103348D02*
X0228932Y0103348D01*
X0229940Y0104347D02*
X0277200Y0104347D01*
X0277200Y0105345D02*
X0230947Y0105345D01*
X0231955Y0106344D02*
X0277200Y0106344D01*
X0277200Y0107342D02*
X0232963Y0107342D01*
X0233971Y0108341D02*
X0277200Y0108341D01*
X0277116Y0109339D02*
X0234978Y0109339D01*
X0235986Y0110338D02*
X0277292Y0110338D01*
X0278542Y0111336D02*
X0236994Y0111336D01*
X0238002Y0112335D02*
X0280139Y0112335D01*
X0281200Y0113333D02*
X0239009Y0113333D01*
X0240017Y0114332D02*
X0281200Y0114332D01*
X0281200Y0115330D02*
X0241025Y0115330D01*
X0242033Y0116329D02*
X0281200Y0116329D01*
X0281200Y0117327D02*
X0243041Y0117327D01*
X0244048Y0118326D02*
X0281200Y0118326D01*
X0281200Y0119324D02*
X0245056Y0119324D01*
X0246064Y0120323D02*
X0281200Y0120323D01*
X0281200Y0121321D02*
X0247072Y0121321D01*
X0248079Y0122320D02*
X0281200Y0122320D01*
X0281200Y0123318D02*
X0249087Y0123318D01*
X0250095Y0124317D02*
X0281200Y0124317D01*
X0281200Y0125315D02*
X0251103Y0125315D01*
X0252110Y0126314D02*
X0281200Y0126314D01*
X0281200Y0127312D02*
X0253118Y0127312D01*
X0254126Y0128311D02*
X0281200Y0128311D01*
X0281200Y0129309D02*
X0255134Y0129309D01*
X0256141Y0130308D02*
X0281200Y0130308D01*
X0281200Y0131306D02*
X0257149Y0131306D01*
X0258157Y0132305D02*
X0281200Y0132305D01*
X0281200Y0133303D02*
X0259165Y0133303D01*
X0260172Y0134302D02*
X0281200Y0134302D01*
X0281200Y0135301D02*
X0261180Y0135301D01*
X0262188Y0136299D02*
X0281200Y0136299D01*
X0281200Y0137298D02*
X0263196Y0137298D01*
X0264203Y0138296D02*
X0281200Y0138296D01*
X0281200Y0139295D02*
X0265211Y0139295D01*
X0266219Y0140293D02*
X0281200Y0140293D01*
X0281200Y0141292D02*
X0267227Y0141292D01*
X0268234Y0142290D02*
X0281200Y0142290D01*
X0281200Y0143289D02*
X0269242Y0143289D01*
X0270250Y0144287D02*
X0281200Y0144287D01*
X0281740Y0145286D02*
X0271258Y0145286D01*
X0272265Y0146284D02*
X0282739Y0146284D01*
X0283737Y0147283D02*
X0273273Y0147283D01*
X0274281Y0148281D02*
X0284200Y0148281D01*
X0284200Y0149280D02*
X0275289Y0149280D01*
X0276296Y0150278D02*
X0284200Y0150278D01*
X0284200Y0151277D02*
X0277304Y0151277D01*
X0280734Y0152275D02*
X0284200Y0152275D01*
X0284200Y0153274D02*
X0281728Y0153274D01*
X0282142Y0154272D02*
X0284200Y0154272D01*
X0284200Y0155271D02*
X0282181Y0155271D01*
X0281917Y0156269D02*
X0284200Y0156269D01*
X0276769Y0157268D02*
X0206800Y0157268D01*
X0206800Y0158266D02*
X0212688Y0158266D01*
X0211690Y0159265D02*
X0206800Y0159265D01*
X0206800Y0160263D02*
X0210691Y0160263D01*
X0207739Y0161262D02*
X0206800Y0161262D01*
X0206800Y0162260D02*
X0207070Y0162260D01*
X0206819Y0163259D02*
X0206800Y0163259D01*
X0206800Y0164257D02*
X0206871Y0164257D01*
X0206800Y0165256D02*
X0207284Y0165256D01*
X0206800Y0166254D02*
X0208337Y0166254D01*
X0210000Y0163500D02*
X0214000Y0159500D01*
X0236500Y0159500D01*
X0241000Y0169000D01*
X0241000Y0168000D01*
X0244337Y0165256D02*
X0259757Y0165256D01*
X0259078Y0164257D02*
X0243338Y0164257D01*
X0240272Y0163259D02*
X0258819Y0163259D01*
X0258863Y0162260D02*
X0239799Y0162260D01*
X0239326Y0161262D02*
X0259277Y0161262D01*
X0260294Y0160263D02*
X0238853Y0160263D01*
X0235816Y0162260D02*
X0213785Y0162260D01*
X0206800Y0156269D02*
X0276083Y0156269D01*
X0275819Y0155271D02*
X0206800Y0155271D01*
X0206800Y0154272D02*
X0275213Y0154272D01*
X0274205Y0153274D02*
X0206800Y0153274D01*
X0206800Y0152275D02*
X0273197Y0152275D01*
X0272189Y0151277D02*
X0206800Y0151277D01*
X0206800Y0150278D02*
X0271182Y0150278D01*
X0270174Y0149280D02*
X0206800Y0149280D01*
X0206800Y0148281D02*
X0269166Y0148281D01*
X0268158Y0147283D02*
X0206800Y0147283D01*
X0206800Y0146284D02*
X0267151Y0146284D01*
X0266143Y0145286D02*
X0206800Y0145286D01*
X0206800Y0144287D02*
X0265135Y0144287D01*
X0264127Y0143289D02*
X0206800Y0143289D01*
X0206800Y0142290D02*
X0263120Y0142290D01*
X0262112Y0141292D02*
X0206800Y0141292D01*
X0206800Y0140293D02*
X0261104Y0140293D01*
X0260096Y0139295D02*
X0206800Y0139295D01*
X0206800Y0138296D02*
X0259089Y0138296D01*
X0258081Y0137298D02*
X0206800Y0137298D01*
X0206800Y0136299D02*
X0257073Y0136299D01*
X0256065Y0135301D02*
X0206800Y0135301D01*
X0206800Y0134302D02*
X0255058Y0134302D01*
X0283000Y0144000D02*
X0283000Y0112000D01*
X0279000Y0109500D01*
X0279000Y0035500D01*
X0276319Y0032319D01*
X0257969Y0032319D01*
X0257969Y0030350D02*
X0278850Y0030350D01*
X0281500Y0034000D01*
X0281500Y0107500D01*
X0287000Y0112000D01*
X0287000Y0138000D01*
X0292000Y0143000D01*
X0292000Y0144402D01*
X0292500Y0148402D01*
X0286000Y0147000D02*
X0286000Y0173000D01*
X0292500Y0177500D01*
X0292500Y0182402D01*
X0287651Y0181232D02*
X0243849Y0181232D01*
X0244848Y0180234D02*
X0287651Y0180234D01*
X0287651Y0179235D02*
X0245300Y0179235D01*
X0245300Y0178237D02*
X0288128Y0178237D01*
X0288959Y0177238D02*
X0245300Y0177238D01*
X0245300Y0176239D02*
X0287517Y0176239D01*
X0286075Y0175241D02*
X0244322Y0175241D01*
X0229164Y0172245D02*
X0222836Y0172245D01*
X0223834Y0171247D02*
X0228166Y0171247D01*
X0227167Y0170248D02*
X0224833Y0170248D01*
X0225300Y0169250D02*
X0226700Y0169250D01*
X0226700Y0168251D02*
X0225300Y0168251D01*
X0225300Y0167253D02*
X0226700Y0167253D01*
X0226700Y0166254D02*
X0225300Y0166254D01*
X0224337Y0165256D02*
X0227663Y0165256D01*
X0228662Y0164257D02*
X0223338Y0164257D01*
X0223324Y0174242D02*
X0228676Y0174242D01*
X0227678Y0175241D02*
X0224322Y0175241D01*
X0225300Y0176239D02*
X0226700Y0176239D01*
X0226700Y0177238D02*
X0225300Y0177238D01*
X0225300Y0178237D02*
X0226700Y0178237D01*
X0226700Y0179235D02*
X0225300Y0179235D01*
X0224848Y0180234D02*
X0227152Y0180234D01*
X0228151Y0181232D02*
X0223849Y0181232D01*
X0222851Y0182231D02*
X0229149Y0182231D01*
X0225128Y0190219D02*
X0287651Y0190219D01*
X0287651Y0191217D02*
X0226127Y0191217D01*
X0227125Y0192216D02*
X0287651Y0192216D01*
X0287651Y0193214D02*
X0228124Y0193214D01*
X0228800Y0194213D02*
X0287651Y0194213D01*
X0287651Y0195211D02*
X0228800Y0195211D01*
X0228800Y0196210D02*
X0287651Y0196210D01*
X0287651Y0197208D02*
X0228800Y0197208D01*
X0228800Y0198207D02*
X0300700Y0198207D01*
X0300700Y0199205D02*
X0228704Y0199205D01*
X0227706Y0200204D02*
X0300700Y0200204D01*
X0300700Y0201202D02*
X0226707Y0201202D01*
X0218293Y0201202D02*
X0199348Y0201202D01*
X0194336Y0196210D02*
X0216200Y0196210D01*
X0216200Y0197208D02*
X0193337Y0197208D01*
X0192339Y0198207D02*
X0216200Y0198207D01*
X0216296Y0199205D02*
X0191340Y0199205D01*
X0190342Y0200204D02*
X0217294Y0200204D01*
X0216200Y0195211D02*
X0203425Y0195211D01*
X0203849Y0194213D02*
X0216200Y0194213D01*
X0216876Y0193214D02*
X0204831Y0193214D01*
X0205830Y0192216D02*
X0217875Y0192216D01*
X0218873Y0191217D02*
X0206800Y0191217D01*
X0206800Y0190219D02*
X0219872Y0190219D01*
X0206800Y0189220D02*
X0288341Y0189220D01*
X0287786Y0186225D02*
X0206800Y0186225D01*
X0206800Y0187223D02*
X0295031Y0187223D01*
X0294283Y0188222D02*
X0206800Y0188222D01*
X0205000Y0190500D02*
X0205000Y0163000D01*
X0203200Y0172245D02*
X0202185Y0172245D01*
X0206800Y0184228D02*
X0287651Y0184228D01*
X0287651Y0185226D02*
X0206800Y0185226D01*
X0205000Y0190500D02*
X0202402Y0193098D01*
X0199000Y0191098D01*
X0194902Y0193098D01*
X0189500Y0198500D01*
X0175658Y0200204D02*
X0146855Y0200204D01*
X0145373Y0197208D02*
X0172663Y0197208D01*
X0173661Y0198207D02*
X0133703Y0198207D01*
X0132704Y0199205D02*
X0174660Y0199205D01*
X0174800Y0194213D02*
X0175366Y0194213D01*
X0175366Y0193214D02*
X0174800Y0193214D01*
X0156276Y0183229D02*
X0121075Y0183229D01*
X0118061Y0181232D02*
X0113300Y0181232D01*
X0113300Y0180234D02*
X0118599Y0180234D01*
X0119137Y0179235D02*
X0113300Y0179235D01*
X0113300Y0178237D02*
X0137500Y0178237D01*
X0137500Y0177238D02*
X0113300Y0177238D01*
X0113300Y0176239D02*
X0137500Y0176239D01*
X0137500Y0175241D02*
X0113300Y0175241D01*
X0106500Y0176402D02*
X0106500Y0170500D01*
X0101000Y0168000D01*
X0101000Y0141500D01*
X0099000Y0139000D01*
X0099000Y0117000D01*
X0089500Y0111000D01*
X0089500Y0052000D01*
X0086500Y0047500D01*
X0056500Y0047500D01*
X0055500Y0048500D01*
X0055500Y0049850D01*
X0055319Y0050031D01*
X0053500Y0049882D02*
X0053500Y0047000D01*
X0056000Y0044500D01*
X0089000Y0044500D01*
X0092500Y0050000D01*
X0092500Y0110000D01*
X0101000Y0115000D01*
X0101000Y0137000D01*
X0106500Y0139500D01*
X0106500Y0148402D01*
X0099200Y0148281D02*
X0031000Y0148281D01*
X0031000Y0147283D02*
X0099200Y0147283D01*
X0099200Y0146284D02*
X0031000Y0146284D01*
X0031000Y0145286D02*
X0099200Y0145286D01*
X0099200Y0144287D02*
X0031000Y0144287D01*
X0031000Y0143289D02*
X0099200Y0143289D01*
X0099200Y0142290D02*
X0031000Y0142290D01*
X0031000Y0141292D02*
X0098528Y0141292D01*
X0097729Y0140293D02*
X0031000Y0140293D01*
X0031000Y0139295D02*
X0097156Y0139295D01*
X0097200Y0138296D02*
X0031000Y0138296D01*
X0031000Y0137298D02*
X0097200Y0137298D01*
X0097200Y0136299D02*
X0031000Y0136299D01*
X0031000Y0135301D02*
X0097200Y0135301D01*
X0097200Y0134302D02*
X0031000Y0134302D01*
X0031000Y0133303D02*
X0097200Y0133303D01*
X0097200Y0132305D02*
X0031000Y0132305D01*
X0031000Y0131306D02*
X0097200Y0131306D01*
X0097200Y0130308D02*
X0031000Y0130308D01*
X0031000Y0129309D02*
X0097200Y0129309D01*
X0097200Y0128311D02*
X0031000Y0128311D01*
X0031000Y0127312D02*
X0097200Y0127312D01*
X0097200Y0126314D02*
X0031000Y0126314D01*
X0031000Y0125315D02*
X0097200Y0125315D01*
X0097200Y0124317D02*
X0031000Y0124317D01*
X0031000Y0123318D02*
X0097200Y0123318D01*
X0097200Y0122320D02*
X0031000Y0122320D01*
X0031000Y0121321D02*
X0097200Y0121321D01*
X0097200Y0120323D02*
X0031000Y0120323D01*
X0031000Y0119324D02*
X0097200Y0119324D01*
X0097200Y0118326D02*
X0031000Y0118326D01*
X0031000Y0117327D02*
X0096147Y0117327D01*
X0094566Y0116329D02*
X0031000Y0116329D01*
X0051000Y0096000D02*
X0058000Y0103000D01*
X0071000Y0103000D01*
X0081500Y0097000D01*
X0081500Y0090000D01*
X0083500Y0087000D01*
X0086376Y0088370D02*
X0087700Y0088370D01*
X0087700Y0087372D02*
X0086681Y0087372D01*
X0086681Y0086373D02*
X0087700Y0086373D01*
X0087700Y0085375D02*
X0086270Y0085375D01*
X0085375Y0084376D02*
X0087700Y0084376D01*
X0087700Y0083378D02*
X0083311Y0083378D01*
X0083300Y0082379D02*
X0087700Y0082379D01*
X0087700Y0081381D02*
X0083300Y0081381D01*
X0083300Y0080382D02*
X0087700Y0080382D01*
X0087500Y0080000D02*
X0086000Y0078500D01*
X0086000Y0072500D01*
X0087700Y0072394D02*
X0083300Y0072394D01*
X0083300Y0071396D02*
X0087700Y0071396D01*
X0087700Y0070397D02*
X0083601Y0070397D01*
X0084364Y0069399D02*
X0087700Y0069399D01*
X0087700Y0068400D02*
X0084681Y0068400D01*
X0084681Y0067402D02*
X0087700Y0067402D01*
X0087700Y0066403D02*
X0084282Y0066403D01*
X0083403Y0065405D02*
X0087700Y0065405D01*
X0087700Y0064406D02*
X0070593Y0064406D01*
X0071360Y0063408D02*
X0087700Y0063408D01*
X0087700Y0062409D02*
X0071681Y0062409D01*
X0071681Y0061411D02*
X0087700Y0061411D01*
X0087700Y0060412D02*
X0071285Y0060412D01*
X0070412Y0059414D02*
X0087700Y0059414D01*
X0087700Y0058415D02*
X0058080Y0058415D01*
X0058080Y0057417D02*
X0087700Y0057417D01*
X0087700Y0056418D02*
X0057464Y0056418D01*
X0056280Y0057780D02*
X0055500Y0057000D01*
X0055500Y0054150D01*
X0055319Y0053969D01*
X0053720Y0054339D02*
X0053720Y0064886D01*
X0051161Y0064886D02*
X0051161Y0058661D01*
X0051000Y0058500D01*
X0051000Y0054213D01*
X0050756Y0053969D01*
X0049000Y0054181D02*
X0049000Y0057000D01*
X0048602Y0057398D01*
X0048602Y0064886D01*
X0046043Y0064886D02*
X0046043Y0056957D01*
X0047000Y0056000D01*
X0047000Y0054150D01*
X0046819Y0053969D01*
X0048787Y0053969D02*
X0049000Y0054181D01*
X0044850Y0053969D02*
X0041500Y0057319D01*
X0041500Y0065000D01*
X0043500Y0067500D01*
X0048000Y0077500D01*
X0048602Y0082898D01*
X0048602Y0088114D01*
X0051000Y0088276D02*
X0051000Y0096000D01*
X0053720Y0095720D02*
X0053720Y0088114D01*
X0053720Y0084220D01*
X0052000Y0082500D01*
X0052000Y0075500D01*
X0050000Y0073500D01*
X0052395Y0071396D02*
X0053221Y0071396D01*
X0054104Y0070397D02*
X0050822Y0070397D01*
X0049178Y0070397D02*
X0046778Y0070397D01*
X0046328Y0069399D02*
X0078636Y0069399D01*
X0078319Y0068400D02*
X0065726Y0068400D01*
X0065847Y0067402D02*
X0078319Y0067402D01*
X0078718Y0066403D02*
X0066642Y0066403D01*
X0067641Y0065405D02*
X0079597Y0065405D01*
X0081500Y0068000D02*
X0081500Y0083500D01*
X0079500Y0086500D01*
X0079500Y0096000D01*
X0070000Y0101000D01*
X0059000Y0101000D01*
X0053720Y0095720D01*
X0056280Y0095280D02*
X0056280Y0088114D01*
X0056500Y0087894D01*
X0056500Y0084000D01*
X0055000Y0082500D01*
X0055000Y0077000D01*
X0056000Y0076000D01*
X0056000Y0073000D01*
X0058867Y0074391D02*
X0073926Y0074391D01*
X0073819Y0073393D02*
X0059181Y0073393D01*
X0059181Y0072394D02*
X0074015Y0072394D01*
X0074605Y0071396D02*
X0058779Y0071396D01*
X0057896Y0070397D02*
X0076178Y0070397D01*
X0077822Y0070397D02*
X0079399Y0070397D01*
X0079395Y0071396D02*
X0079700Y0071396D01*
X0077000Y0073500D02*
X0077000Y0094500D01*
X0069000Y0099000D01*
X0060000Y0099000D01*
X0056280Y0095280D01*
X0058839Y0094839D02*
X0061000Y0097000D01*
X0068000Y0097000D01*
X0073500Y0093500D01*
X0073500Y0078000D01*
X0070630Y0079384D02*
X0067181Y0079384D01*
X0067181Y0078385D02*
X0070319Y0078385D01*
X0070319Y0077387D02*
X0066775Y0077387D01*
X0065887Y0076388D02*
X0070724Y0076388D01*
X0071611Y0075390D02*
X0058109Y0075390D01*
X0057800Y0076388D02*
X0062113Y0076388D01*
X0061225Y0077387D02*
X0060386Y0077387D01*
X0058500Y0080000D02*
X0058839Y0081339D01*
X0058839Y0088114D01*
X0058839Y0094839D01*
X0062000Y0093000D02*
X0063500Y0094500D01*
X0066500Y0094500D01*
X0069500Y0092000D01*
X0069500Y0083500D01*
X0066521Y0082379D02*
X0063515Y0082379D01*
X0063198Y0083378D02*
X0066319Y0083378D01*
X0066420Y0084376D02*
X0065502Y0084376D01*
X0065847Y0085375D02*
X0066876Y0085375D01*
X0067700Y0086373D02*
X0065847Y0086373D01*
X0065847Y0087372D02*
X0067700Y0087372D01*
X0067700Y0088370D02*
X0065847Y0088370D01*
X0065847Y0089369D02*
X0067700Y0089369D01*
X0067700Y0090368D02*
X0065847Y0090368D01*
X0065847Y0091366D02*
X0067449Y0091366D01*
X0066251Y0092365D02*
X0063910Y0092365D01*
X0062000Y0093000D02*
X0061398Y0088114D01*
X0061398Y0082102D01*
X0064000Y0079000D01*
X0066871Y0080382D02*
X0068714Y0080382D01*
X0070286Y0080382D02*
X0071384Y0080382D01*
X0067120Y0081381D02*
X0066118Y0081381D01*
X0051161Y0088114D02*
X0051000Y0088276D01*
X0049200Y0092365D02*
X0047216Y0092365D01*
X0046043Y0092468D02*
X0046043Y0088114D01*
X0046043Y0083760D01*
X0046802Y0083760D01*
X0046802Y0082998D01*
X0046242Y0077981D01*
X0041952Y0068446D01*
X0041915Y0068400D02*
X0040000Y0068400D01*
X0040000Y0067402D02*
X0041116Y0067402D01*
X0040317Y0066403D02*
X0040000Y0066403D01*
X0040000Y0069500D02*
X0036500Y0069500D01*
X0036500Y0075500D01*
X0038697Y0075500D01*
X0039079Y0075398D01*
X0039421Y0075200D01*
X0039700Y0074921D01*
X0039898Y0074579D01*
X0040000Y0074197D01*
X0040000Y0069500D01*
X0040000Y0070397D02*
X0042830Y0070397D01*
X0043279Y0071396D02*
X0040000Y0071396D01*
X0040000Y0072394D02*
X0043729Y0072394D01*
X0044178Y0073393D02*
X0040000Y0073393D01*
X0039948Y0074391D02*
X0044627Y0074391D01*
X0045077Y0075390D02*
X0039093Y0075390D01*
X0036500Y0075390D02*
X0035500Y0075390D01*
X0035500Y0074391D02*
X0036500Y0074391D01*
X0036500Y0073393D02*
X0035500Y0073393D01*
X0035500Y0072394D02*
X0036500Y0072394D01*
X0036500Y0071396D02*
X0035500Y0071396D01*
X0035500Y0070397D02*
X0036500Y0070397D01*
X0035500Y0069399D02*
X0031000Y0069399D01*
X0031000Y0070397D02*
X0032000Y0070397D01*
X0032000Y0071396D02*
X0031000Y0071396D01*
X0031000Y0072394D02*
X0032000Y0072394D01*
X0032000Y0073393D02*
X0031000Y0073393D01*
X0031000Y0074391D02*
X0032052Y0074391D01*
X0032907Y0075390D02*
X0031000Y0075390D01*
X0031000Y0076388D02*
X0045526Y0076388D01*
X0045975Y0077387D02*
X0031000Y0077387D01*
X0031000Y0078385D02*
X0046288Y0078385D01*
X0046399Y0079384D02*
X0031000Y0079384D01*
X0031000Y0080382D02*
X0046511Y0080382D01*
X0046622Y0081381D02*
X0031000Y0081381D01*
X0031000Y0082379D02*
X0046733Y0082379D01*
X0046802Y0083378D02*
X0031000Y0083378D01*
X0031000Y0084376D02*
X0044231Y0084376D01*
X0043953Y0085375D02*
X0031000Y0085375D01*
X0031000Y0086373D02*
X0043953Y0086373D01*
X0043953Y0087372D02*
X0031000Y0087372D01*
X0031000Y0088370D02*
X0043953Y0088370D01*
X0043953Y0089369D02*
X0031000Y0089369D01*
X0031000Y0090368D02*
X0043953Y0090368D01*
X0044006Y0091366D02*
X0031000Y0091366D01*
X0046043Y0091366D02*
X0046043Y0091366D01*
X0046043Y0090368D02*
X0046043Y0090368D01*
X0046043Y0089369D02*
X0046043Y0089369D01*
X0046043Y0088370D02*
X0046043Y0088370D01*
X0046043Y0088114D02*
X0046043Y0088114D01*
X0046043Y0087372D02*
X0046043Y0087372D01*
X0046043Y0086373D02*
X0046043Y0086373D01*
X0046043Y0085375D02*
X0046043Y0085375D01*
X0046043Y0084376D02*
X0046043Y0084376D01*
X0047227Y0071396D02*
X0047605Y0071396D01*
X0056280Y0064886D02*
X0056280Y0057780D01*
X0058080Y0059414D02*
X0066588Y0059414D01*
X0065714Y0060412D02*
X0058080Y0060412D01*
X0061343Y0055420D02*
X0087700Y0055420D01*
X0087700Y0054421D02*
X0061343Y0054421D01*
X0061343Y0053423D02*
X0087700Y0053423D01*
X0087619Y0052424D02*
X0061322Y0052424D01*
X0061343Y0051426D02*
X0086954Y0051426D01*
X0086288Y0050427D02*
X0061343Y0050427D01*
X0061343Y0049429D02*
X0085622Y0049429D01*
X0092000Y0042000D02*
X0096000Y0048500D01*
X0096000Y0107500D01*
X0106000Y0113500D01*
X0106500Y0115402D01*
X0113300Y0115330D02*
X0126332Y0115330D01*
X0125608Y0114332D02*
X0113300Y0114332D01*
X0113300Y0113333D02*
X0125319Y0113333D01*
X0125332Y0112335D02*
X0113300Y0112335D01*
X0113300Y0111336D02*
X0125746Y0111336D01*
X0126663Y0110338D02*
X0113300Y0110338D01*
X0113300Y0109339D02*
X0114848Y0109339D01*
X0114847Y0109338D02*
X0114649Y0108996D01*
X0114547Y0108615D01*
X0114547Y0106358D01*
X0118500Y0106358D01*
X0118500Y0109917D01*
X0115850Y0109917D01*
X0115468Y0109815D01*
X0115126Y0109618D01*
X0114847Y0109338D01*
X0114547Y0108341D02*
X0113300Y0108341D01*
X0113300Y0107342D02*
X0114547Y0107342D01*
X0113300Y0106344D02*
X0118500Y0106344D01*
X0118500Y0107342D02*
X0119500Y0107342D01*
X0119500Y0108341D02*
X0118500Y0108341D01*
X0118500Y0109339D02*
X0119500Y0109339D01*
X0123152Y0109339D02*
X0128933Y0109339D01*
X0129756Y0108341D02*
X0123453Y0108341D01*
X0123453Y0107342D02*
X0133247Y0107342D01*
X0133247Y0112335D02*
X0131668Y0112335D01*
X0131681Y0113333D02*
X0133743Y0113333D01*
X0131392Y0114332D02*
X0143047Y0114332D01*
X0143047Y0115330D02*
X0141079Y0115330D01*
X0141257Y0113333D02*
X0143093Y0113333D01*
X0138000Y0115330D02*
X0137000Y0115330D01*
X0137000Y0116329D02*
X0138000Y0116329D01*
X0138000Y0117327D02*
X0137000Y0117327D01*
X0141953Y0120323D02*
X0143567Y0120323D01*
X0143247Y0121321D02*
X0141953Y0121321D01*
X0141871Y0122320D02*
X0143247Y0122320D01*
X0142642Y0123318D02*
X0141428Y0123318D01*
X0114547Y0105345D02*
X0113300Y0105345D01*
X0113300Y0104347D02*
X0114547Y0104347D01*
X0114547Y0103348D02*
X0113300Y0103348D01*
X0113300Y0102350D02*
X0114875Y0102350D01*
X0114747Y0101351D02*
X0113300Y0101351D01*
X0113300Y0100353D02*
X0114747Y0100353D01*
X0114747Y0099354D02*
X0113300Y0099354D01*
X0113300Y0098356D02*
X0114747Y0098356D01*
X0114747Y0097357D02*
X0113300Y0097357D01*
X0113300Y0096359D02*
X0114747Y0096359D01*
X0114747Y0095360D02*
X0113300Y0095360D01*
X0113300Y0094362D02*
X0122321Y0094362D01*
X0122735Y0093363D02*
X0113300Y0093363D01*
X0113300Y0092365D02*
X0123637Y0092365D01*
X0125500Y0095000D02*
X0122622Y0098378D01*
X0119000Y0098378D01*
X0122125Y0086373D02*
X0142200Y0086373D01*
X0142200Y0085375D02*
X0123997Y0085375D01*
X0125869Y0084376D02*
X0142200Y0084376D01*
X0132000Y0079000D02*
X0126500Y0082000D01*
X0126500Y0079000D02*
X0118500Y0082000D01*
X0115500Y0079500D01*
X0115000Y0074500D02*
X0120500Y0078000D01*
X0122500Y0078000D01*
X0126280Y0074220D01*
X0126280Y0070000D01*
X0126280Y0059114D01*
X0128839Y0059114D02*
X0128839Y0066000D01*
X0131000Y0071000D01*
X0130500Y0075000D01*
X0126500Y0079000D01*
X0132000Y0079000D02*
X0135500Y0072500D01*
X0134500Y0067500D01*
X0131207Y0061793D01*
X0131207Y0057460D01*
X0131398Y0057000D02*
X0131398Y0059114D01*
X0131207Y0057460D02*
X0131209Y0057414D01*
X0131214Y0057367D01*
X0131222Y0057322D01*
X0131233Y0057277D01*
X0131248Y0057233D01*
X0131266Y0057190D01*
X0131287Y0057148D01*
X0131310Y0057108D01*
X0131337Y0057070D01*
X0131366Y0057034D01*
X0131398Y0057000D01*
X0123720Y0059114D02*
X0123720Y0063000D01*
X0122000Y0074000D01*
X0118000Y0068500D02*
X0118000Y0067000D01*
X0121000Y0064000D01*
X0121000Y0059586D01*
X0121161Y0059424D01*
X0121161Y0059114D01*
X0118602Y0059114D02*
X0118602Y0062398D01*
X0116000Y0064500D01*
X0113500Y0063000D01*
X0113500Y0026500D01*
X0120150Y0019850D01*
X0114986Y0022469D02*
X0111349Y0022469D01*
X0111349Y0023467D02*
X0113987Y0023467D01*
X0112989Y0024466D02*
X0110973Y0024466D01*
X0110900Y0027461D02*
X0111700Y0027461D01*
X0111700Y0028460D02*
X0111349Y0028460D01*
X0111349Y0029458D02*
X0111700Y0029458D01*
X0111700Y0030457D02*
X0111349Y0030457D01*
X0111349Y0031455D02*
X0111700Y0031455D01*
X0111700Y0032454D02*
X0111349Y0032454D01*
X0111349Y0033452D02*
X0111700Y0033452D01*
X0121000Y0033724D02*
X0121000Y0030500D01*
X0125744Y0025756D01*
X0155031Y0025756D01*
X0155031Y0028350D02*
X0126650Y0028350D01*
X0123500Y0032000D01*
X0123500Y0033665D01*
X0123720Y0035886D01*
X0123500Y0031386D01*
X0126500Y0032000D02*
X0128181Y0030319D01*
X0155031Y0030319D01*
X0152747Y0032454D02*
X0146010Y0032454D01*
X0146181Y0033452D02*
X0152747Y0033452D01*
X0152747Y0034451D02*
X0146049Y0034451D01*
X0145549Y0035449D02*
X0152747Y0035449D01*
X0158969Y0030319D02*
X0180319Y0030319D01*
X0181850Y0028350D02*
X0186500Y0033500D01*
X0186500Y0097000D01*
X0194000Y0104500D01*
X0194000Y0132500D01*
X0198500Y0137000D01*
X0198500Y0147902D01*
X0199000Y0148402D01*
X0190000Y0139500D02*
X0190000Y0138500D01*
X0173500Y0149500D02*
X0172000Y0147000D01*
X0173500Y0149500D02*
X0180000Y0158000D01*
X0177765Y0160263D02*
X0164599Y0160263D01*
X0164599Y0159265D02*
X0177081Y0159265D01*
X0176819Y0158266D02*
X0164599Y0158266D01*
X0164599Y0157268D02*
X0176860Y0157268D01*
X0176411Y0156269D02*
X0164599Y0156269D01*
X0164599Y0155271D02*
X0175647Y0155271D01*
X0174883Y0154272D02*
X0164363Y0154272D01*
X0164599Y0161262D02*
X0184196Y0161262D01*
X0183568Y0160263D02*
X0182235Y0160263D01*
X0182919Y0159265D02*
X0182940Y0159265D01*
X0168750Y0168251D02*
X0165721Y0168251D01*
X0166720Y0169250D02*
X0168075Y0169250D01*
X0167819Y0170248D02*
X0167718Y0170248D01*
X0164774Y0173244D02*
X0148900Y0173244D01*
X0148484Y0172245D02*
X0163776Y0172245D01*
X0162712Y0174242D02*
X0165773Y0174242D01*
X0160780Y0169250D02*
X0149059Y0169250D01*
X0149100Y0168251D02*
X0159782Y0168251D01*
X0149201Y0160263D02*
X0148900Y0160263D01*
X0148900Y0159265D02*
X0149201Y0159265D01*
X0113494Y0158266D02*
X0113300Y0158266D01*
X0099200Y0158266D02*
X0031000Y0158266D01*
X0031000Y0157268D02*
X0099200Y0157268D01*
X0099200Y0156269D02*
X0031000Y0156269D01*
X0031000Y0155271D02*
X0099200Y0155271D01*
X0099200Y0154272D02*
X0031000Y0154272D01*
X0031000Y0153274D02*
X0099200Y0153274D01*
X0099200Y0152275D02*
X0031000Y0152275D01*
X0031000Y0151277D02*
X0099200Y0151277D01*
X0099200Y0150278D02*
X0031000Y0150278D01*
X0031000Y0149280D02*
X0099200Y0149280D01*
X0099200Y0159265D02*
X0031000Y0159265D01*
X0031000Y0160263D02*
X0099200Y0160263D01*
X0099200Y0161262D02*
X0031000Y0161262D01*
X0031000Y0162260D02*
X0099200Y0162260D01*
X0099200Y0163259D02*
X0031000Y0163259D01*
X0031000Y0164257D02*
X0099200Y0164257D01*
X0099200Y0165256D02*
X0031000Y0165256D01*
X0031000Y0166254D02*
X0099200Y0166254D01*
X0099200Y0167253D02*
X0031000Y0167253D01*
X0031000Y0168251D02*
X0099172Y0168251D01*
X0099546Y0169250D02*
X0031000Y0169250D01*
X0031000Y0170248D02*
X0101597Y0170248D01*
X0102119Y0172245D02*
X0031000Y0172245D01*
X0031000Y0171247D02*
X0103793Y0171247D01*
X0101651Y0173244D02*
X0031000Y0173244D01*
X0031000Y0174242D02*
X0101651Y0174242D01*
X0101651Y0175241D02*
X0031000Y0175241D01*
X0031000Y0176239D02*
X0101651Y0176239D01*
X0101651Y0177238D02*
X0031000Y0177238D01*
X0031000Y0178237D02*
X0101651Y0178237D01*
X0101651Y0179235D02*
X0031000Y0179235D01*
X0031000Y0180234D02*
X0101795Y0180234D01*
X0102332Y0183229D02*
X0031000Y0183229D01*
X0031000Y0182231D02*
X0109700Y0182231D01*
X0109700Y0181232D02*
X0031000Y0181232D01*
X0031000Y0184228D02*
X0101651Y0184228D01*
X0101651Y0185226D02*
X0031000Y0185226D01*
X0031000Y0186225D02*
X0101651Y0186225D01*
X0113300Y0186225D02*
X0113878Y0186225D01*
X0113819Y0187223D02*
X0113300Y0187223D01*
X0113300Y0185226D02*
X0114292Y0185226D01*
X0113300Y0184228D02*
X0115381Y0184228D01*
X0116986Y0183229D02*
X0113300Y0183229D01*
X0113300Y0182231D02*
X0117524Y0182231D01*
X0119937Y0188222D02*
X0125869Y0188222D01*
X0124870Y0189220D02*
X0119279Y0189220D01*
X0132131Y0188222D02*
X0148204Y0188222D01*
X0148204Y0189220D02*
X0144801Y0189220D01*
X0145800Y0190219D02*
X0148204Y0190219D01*
X0148204Y0191217D02*
X0146798Y0191217D01*
X0141199Y0189220D02*
X0133130Y0189220D01*
X0134128Y0190219D02*
X0140200Y0190219D01*
X0139202Y0191217D02*
X0135127Y0191217D01*
X0135300Y0192216D02*
X0138700Y0192216D01*
X0138700Y0193214D02*
X0135300Y0193214D01*
X0135300Y0194213D02*
X0138700Y0194213D01*
X0138700Y0195211D02*
X0135300Y0195211D01*
X0135300Y0196210D02*
X0139629Y0196210D01*
X0140627Y0197208D02*
X0134701Y0197208D01*
X0146371Y0196210D02*
X0148430Y0196210D01*
X0251841Y0202201D02*
X0301291Y0202201D01*
X0300700Y0197208D02*
X0297349Y0197208D01*
X0297349Y0196210D02*
X0300881Y0196210D01*
X0301879Y0195211D02*
X0297349Y0195211D01*
X0297349Y0194213D02*
X0302878Y0194213D01*
X0303876Y0193214D02*
X0297349Y0193214D01*
X0297349Y0192216D02*
X0372651Y0192216D01*
X0372651Y0193214D02*
X0310124Y0193214D01*
X0311122Y0194213D02*
X0372651Y0194213D01*
X0372651Y0195211D02*
X0312121Y0195211D01*
X0313119Y0196210D02*
X0372651Y0196210D01*
X0372651Y0197208D02*
X0313300Y0197208D01*
X0313300Y0198207D02*
X0372651Y0198207D01*
X0372651Y0199205D02*
X0313300Y0199205D01*
X0313300Y0200204D02*
X0398988Y0200204D01*
X0398990Y0201202D02*
X0313300Y0201202D01*
X0312709Y0202201D02*
X0398993Y0202201D01*
X0398995Y0203199D02*
X0311710Y0203199D01*
X0292500Y0193598D02*
X0298500Y0185598D01*
X0298500Y0167000D01*
X0296500Y0165000D01*
X0292000Y0168500D01*
X0296500Y0165000D02*
X0292500Y0161000D01*
X0292500Y0159598D01*
X0300300Y0159265D02*
X0327411Y0159265D01*
X0327519Y0159210D02*
X0327519Y0159210D01*
X0323477Y0161269D01*
X0323477Y0161269D01*
X0320269Y0164477D01*
X0320269Y0164477D01*
X0318210Y0168519D01*
X0318210Y0168519D01*
X0317500Y0173000D01*
X0317500Y0173000D01*
X0318210Y0177481D01*
X0318210Y0177481D01*
X0320269Y0181523D01*
X0320269Y0181523D01*
X0323477Y0184731D01*
X0323477Y0184731D01*
X0327519Y0186790D01*
X0327519Y0186790D01*
X0332000Y0187500D01*
X0332000Y0187500D01*
X0336481Y0186790D01*
X0336481Y0186790D01*
X0340523Y0184731D01*
X0340523Y0184731D01*
X0343731Y0181523D01*
X0343731Y0181523D01*
X0345790Y0177481D01*
X0345790Y0177481D01*
X0346500Y0173000D01*
X0345790Y0168519D01*
X0343731Y0164477D01*
X0343731Y0164477D01*
X0340523Y0161269D01*
X0340523Y0161269D01*
X0336481Y0159210D01*
X0336481Y0159210D01*
X0332000Y0158500D01*
X0332000Y0158500D01*
X0327519Y0159210D01*
X0325451Y0160263D02*
X0300300Y0160263D01*
X0300300Y0161262D02*
X0323492Y0161262D01*
X0322486Y0162260D02*
X0300300Y0162260D01*
X0300300Y0163259D02*
X0321488Y0163259D01*
X0320489Y0164257D02*
X0300300Y0164257D01*
X0300300Y0165256D02*
X0319872Y0165256D01*
X0319364Y0166254D02*
X0300300Y0166254D01*
X0300300Y0167253D02*
X0318855Y0167253D01*
X0318346Y0168251D02*
X0300300Y0168251D01*
X0300300Y0169250D02*
X0318094Y0169250D01*
X0317936Y0170248D02*
X0300300Y0170248D01*
X0300300Y0171247D02*
X0317778Y0171247D01*
X0317620Y0172245D02*
X0300300Y0172245D01*
X0300300Y0173244D02*
X0317539Y0173244D01*
X0317697Y0174242D02*
X0300300Y0174242D01*
X0300300Y0175241D02*
X0317855Y0175241D01*
X0318013Y0176239D02*
X0300300Y0176239D01*
X0300300Y0177238D02*
X0318171Y0177238D01*
X0318595Y0178237D02*
X0300300Y0178237D01*
X0300300Y0179235D02*
X0319104Y0179235D01*
X0319612Y0180234D02*
X0300300Y0180234D01*
X0300300Y0181232D02*
X0320121Y0181232D01*
X0320977Y0182231D02*
X0300300Y0182231D01*
X0300300Y0183229D02*
X0321975Y0183229D01*
X0322974Y0184228D02*
X0300300Y0184228D01*
X0300300Y0185226D02*
X0324449Y0185226D01*
X0326409Y0186225D02*
X0300300Y0186225D01*
X0299531Y0187223D02*
X0330252Y0187223D01*
X0333748Y0187223D02*
X0372651Y0187223D01*
X0372651Y0186225D02*
X0337591Y0186225D01*
X0339551Y0185226D02*
X0372651Y0185226D01*
X0372651Y0184228D02*
X0341026Y0184228D01*
X0342025Y0183229D02*
X0372651Y0183229D01*
X0372651Y0182231D02*
X0343023Y0182231D01*
X0343879Y0181232D02*
X0372651Y0181232D01*
X0373131Y0180234D02*
X0344388Y0180234D01*
X0344896Y0179235D02*
X0375463Y0179235D01*
X0375418Y0178237D02*
X0345405Y0178237D01*
X0345829Y0177238D02*
X0375373Y0177238D01*
X0375327Y0176239D02*
X0345987Y0176239D01*
X0346145Y0175241D02*
X0375282Y0175241D01*
X0375236Y0174242D02*
X0346303Y0174242D01*
X0346461Y0173244D02*
X0374106Y0173244D01*
X0371709Y0172245D02*
X0346380Y0172245D01*
X0346222Y0171247D02*
X0369567Y0171247D01*
X0369156Y0170248D02*
X0346064Y0170248D01*
X0345906Y0169250D02*
X0369200Y0169250D01*
X0369200Y0168251D02*
X0345654Y0168251D01*
X0345790Y0168519D02*
X0345790Y0168519D01*
X0345145Y0167253D02*
X0369200Y0167253D01*
X0369200Y0166254D02*
X0344636Y0166254D01*
X0344128Y0165256D02*
X0369200Y0165256D01*
X0369200Y0164257D02*
X0343511Y0164257D01*
X0342512Y0163259D02*
X0369200Y0163259D01*
X0369200Y0162260D02*
X0341514Y0162260D01*
X0340508Y0161262D02*
X0369200Y0161262D01*
X0369200Y0160263D02*
X0338549Y0160263D01*
X0336589Y0159265D02*
X0369200Y0159265D01*
X0369200Y0158266D02*
X0362830Y0158266D01*
X0362742Y0158355D02*
X0361287Y0158957D01*
X0359713Y0158957D01*
X0358258Y0158355D01*
X0357145Y0157242D01*
X0356755Y0156300D01*
X0310698Y0156300D01*
X0310697Y0156302D01*
X0309802Y0157197D01*
X0308633Y0157681D01*
X0307367Y0157681D01*
X0306198Y0157197D01*
X0305303Y0156302D01*
X0304819Y0155133D01*
X0304819Y0153867D01*
X0305303Y0152698D01*
X0306198Y0151803D01*
X0307367Y0151319D01*
X0308633Y0151319D01*
X0309802Y0151803D01*
X0310697Y0152698D01*
X0310698Y0152700D01*
X0357203Y0152700D01*
X0358258Y0151645D01*
X0359713Y0151043D01*
X0361287Y0151043D01*
X0362742Y0151645D01*
X0363855Y0152758D01*
X0364457Y0154213D01*
X0364457Y0155787D01*
X0363855Y0157242D01*
X0362742Y0158355D01*
X0363829Y0157268D02*
X0369200Y0157268D01*
X0369200Y0156269D02*
X0364258Y0156269D01*
X0364457Y0155271D02*
X0368725Y0155271D01*
X0367727Y0154272D02*
X0364457Y0154272D01*
X0364068Y0153274D02*
X0367200Y0153274D01*
X0367200Y0152275D02*
X0363372Y0152275D01*
X0361853Y0151277D02*
X0367200Y0151277D01*
X0367200Y0150278D02*
X0300300Y0150278D01*
X0300300Y0149280D02*
X0367200Y0149280D01*
X0367200Y0148281D02*
X0300300Y0148281D01*
X0300300Y0147283D02*
X0367200Y0147283D01*
X0367200Y0146284D02*
X0300300Y0146284D01*
X0300300Y0145286D02*
X0367200Y0145286D01*
X0367200Y0144287D02*
X0300300Y0144287D01*
X0300300Y0143289D02*
X0367200Y0143289D01*
X0367200Y0142290D02*
X0300300Y0142290D01*
X0300300Y0141292D02*
X0367200Y0141292D01*
X0367200Y0140293D02*
X0300300Y0140293D01*
X0300300Y0139295D02*
X0367200Y0139295D01*
X0367200Y0138296D02*
X0300300Y0138296D01*
X0300300Y0137298D02*
X0367200Y0137298D01*
X0367200Y0136299D02*
X0300300Y0136299D01*
X0300300Y0135301D02*
X0367200Y0135301D01*
X0367200Y0134302D02*
X0300300Y0134302D01*
X0300300Y0133303D02*
X0367200Y0133303D01*
X0367200Y0132305D02*
X0300300Y0132305D01*
X0300300Y0131306D02*
X0367200Y0131306D01*
X0367200Y0130308D02*
X0300300Y0130308D01*
X0300300Y0129309D02*
X0367200Y0129309D01*
X0367200Y0128311D02*
X0300300Y0128311D01*
X0300300Y0127312D02*
X0367200Y0127312D01*
X0366768Y0126314D02*
X0300300Y0126314D01*
X0300300Y0125315D02*
X0365770Y0125315D01*
X0364771Y0124317D02*
X0300300Y0124317D01*
X0300300Y0123318D02*
X0364200Y0123318D01*
X0364200Y0122320D02*
X0300300Y0122320D01*
X0300300Y0121321D02*
X0364200Y0121321D01*
X0364200Y0120323D02*
X0300300Y0120323D01*
X0300300Y0119324D02*
X0364200Y0119324D01*
X0364200Y0118326D02*
X0300300Y0118326D01*
X0300300Y0117327D02*
X0364200Y0117327D01*
X0364200Y0116329D02*
X0300300Y0116329D01*
X0300300Y0115330D02*
X0364200Y0115330D01*
X0364200Y0114332D02*
X0300300Y0114332D01*
X0300300Y0113333D02*
X0364200Y0113333D01*
X0364200Y0112335D02*
X0300300Y0112335D01*
X0300300Y0111336D02*
X0364200Y0111336D01*
X0364200Y0110338D02*
X0300300Y0110338D01*
X0300300Y0109339D02*
X0364200Y0109339D01*
X0364200Y0108341D02*
X0300300Y0108341D01*
X0300300Y0107342D02*
X0364200Y0107342D01*
X0364200Y0106344D02*
X0300300Y0106344D01*
X0300300Y0105345D02*
X0364200Y0105345D01*
X0364200Y0104347D02*
X0300300Y0104347D01*
X0300300Y0103348D02*
X0364200Y0103348D01*
X0364200Y0102350D02*
X0300300Y0102350D01*
X0300300Y0101351D02*
X0364200Y0101351D01*
X0364200Y0100353D02*
X0300300Y0100353D01*
X0300300Y0099354D02*
X0364200Y0099354D01*
X0364200Y0098356D02*
X0300300Y0098356D01*
X0300300Y0097357D02*
X0364200Y0097357D01*
X0364200Y0096359D02*
X0300300Y0096359D01*
X0300300Y0095360D02*
X0364200Y0095360D01*
X0364200Y0094362D02*
X0300300Y0094362D01*
X0300300Y0093363D02*
X0364200Y0093363D01*
X0364200Y0092365D02*
X0300300Y0092365D01*
X0300300Y0091366D02*
X0364200Y0091366D01*
X0364200Y0090368D02*
X0300300Y0090368D01*
X0300300Y0089369D02*
X0339614Y0089369D01*
X0338372Y0088370D02*
X0300300Y0088370D01*
X0300300Y0087372D02*
X0337918Y0087372D01*
X0337819Y0086373D02*
X0300300Y0086373D01*
X0300300Y0085375D02*
X0301128Y0085375D01*
X0303872Y0085375D02*
X0338023Y0085375D01*
X0338625Y0084376D02*
X0305122Y0084376D01*
X0305580Y0083378D02*
X0339200Y0083378D01*
X0339200Y0082379D02*
X0306166Y0082379D01*
X0307165Y0081381D02*
X0320882Y0081381D01*
X0320129Y0080382D02*
X0317854Y0080382D01*
X0319115Y0079384D02*
X0319819Y0079384D01*
X0319819Y0078385D02*
X0319576Y0078385D01*
X0319681Y0077387D02*
X0320005Y0077387D01*
X0321000Y0075500D02*
X0319000Y0074000D01*
X0319000Y0070217D01*
X0318898Y0070114D01*
X0316339Y0070114D02*
X0316339Y0074339D01*
X0316500Y0075500D01*
X0316500Y0077500D01*
X0313319Y0077387D02*
X0310300Y0077387D01*
X0310300Y0076388D02*
X0313517Y0076388D01*
X0314111Y0075390D02*
X0310300Y0075390D01*
X0310300Y0074391D02*
X0314529Y0074391D01*
X0321000Y0075500D02*
X0323000Y0079000D01*
X0327000Y0076500D01*
X0327500Y0071000D01*
X0330366Y0072394D02*
X0335849Y0072394D01*
X0334850Y0071396D02*
X0330681Y0071396D01*
X0330681Y0070397D02*
X0333852Y0070397D01*
X0332853Y0069399D02*
X0330280Y0069399D01*
X0329399Y0068400D02*
X0332200Y0068400D01*
X0332111Y0067402D02*
X0323347Y0067402D01*
X0323347Y0068400D02*
X0325601Y0068400D01*
X0324720Y0069399D02*
X0323347Y0069399D01*
X0323347Y0070397D02*
X0324319Y0070397D01*
X0324319Y0071396D02*
X0323347Y0071396D01*
X0323347Y0072394D02*
X0324634Y0072394D01*
X0325394Y0073393D02*
X0323347Y0073393D01*
X0322522Y0074391D02*
X0325384Y0074391D01*
X0325293Y0075390D02*
X0323010Y0075390D01*
X0327380Y0078385D02*
X0339200Y0078385D01*
X0339200Y0077387D02*
X0328727Y0077387D01*
X0328873Y0076388D02*
X0339200Y0076388D01*
X0338844Y0075390D02*
X0328908Y0075390D01*
X0328999Y0074391D02*
X0337846Y0074391D01*
X0336847Y0073393D02*
X0329606Y0073393D01*
X0336946Y0068400D02*
X0361200Y0068400D01*
X0361200Y0067402D02*
X0335947Y0067402D01*
X0335614Y0066403D02*
X0361200Y0066403D01*
X0361200Y0065405D02*
X0336361Y0065405D01*
X0336681Y0064406D02*
X0361200Y0064406D01*
X0361200Y0063408D02*
X0336681Y0063408D01*
X0336284Y0062409D02*
X0361200Y0062409D01*
X0361200Y0061411D02*
X0335409Y0061411D01*
X0331591Y0061411D02*
X0314181Y0061411D01*
X0314067Y0062409D02*
X0316545Y0062409D01*
X0317500Y0064000D02*
X0313780Y0065720D01*
X0313780Y0070114D01*
X0311220Y0070114D02*
X0311220Y0061720D01*
X0311000Y0061500D01*
X0307819Y0061411D02*
X0302800Y0061411D01*
X0302800Y0062409D02*
X0307933Y0062409D01*
X0307819Y0062133D02*
X0307819Y0060867D01*
X0308303Y0059698D01*
X0309198Y0058803D01*
X0310367Y0058319D01*
X0311633Y0058319D01*
X0312802Y0058803D01*
X0313697Y0059698D01*
X0313412Y0059414D02*
X0361200Y0059414D01*
X0361200Y0060412D02*
X0313993Y0060412D01*
X0311865Y0058415D02*
X0361200Y0058415D01*
X0361200Y0057417D02*
X0302800Y0057417D01*
X0302800Y0058415D02*
X0310135Y0058415D01*
X0308588Y0059414D02*
X0302800Y0059414D01*
X0302800Y0060412D02*
X0308007Y0060412D01*
X0307819Y0062133D02*
X0308303Y0063302D01*
X0309198Y0064197D01*
X0309420Y0064289D01*
X0309420Y0065960D01*
X0307532Y0065960D01*
X0307382Y0066110D01*
X0307231Y0065960D01*
X0304973Y0065960D01*
X0304940Y0065993D01*
X0304713Y0065862D01*
X0304331Y0065760D01*
X0303543Y0065760D01*
X0303543Y0070114D01*
X0303543Y0069399D02*
X0303543Y0069399D01*
X0303543Y0068400D02*
X0303543Y0068400D01*
X0303543Y0067402D02*
X0303543Y0067402D01*
X0303543Y0066403D02*
X0303543Y0066403D01*
X0302800Y0065405D02*
X0309420Y0065405D01*
X0309420Y0064406D02*
X0302800Y0064406D01*
X0302800Y0063408D02*
X0308409Y0063408D01*
X0313591Y0063408D02*
X0314492Y0063408D01*
X0317500Y0064000D02*
X0333500Y0064000D01*
X0334000Y0068000D01*
X0341000Y0075000D01*
X0341000Y0086500D01*
X0343977Y0085375D02*
X0364200Y0085375D01*
X0364200Y0086373D02*
X0344181Y0086373D01*
X0344082Y0087372D02*
X0364200Y0087372D01*
X0364200Y0088370D02*
X0343628Y0088370D01*
X0342386Y0089369D02*
X0364200Y0089369D01*
X0364200Y0084376D02*
X0343375Y0084376D01*
X0342800Y0083378D02*
X0364200Y0083378D01*
X0364200Y0082379D02*
X0342800Y0082379D01*
X0342800Y0081381D02*
X0363835Y0081381D01*
X0362837Y0080382D02*
X0342800Y0080382D01*
X0342800Y0079384D02*
X0361838Y0079384D01*
X0362254Y0079800D02*
X0362254Y0079800D01*
X0361200Y0078385D02*
X0342800Y0078385D01*
X0342800Y0077387D02*
X0361200Y0077387D01*
X0361200Y0076388D02*
X0342800Y0076388D01*
X0342800Y0075390D02*
X0361200Y0075390D01*
X0361200Y0074391D02*
X0342800Y0074391D01*
X0341938Y0073393D02*
X0361200Y0073393D01*
X0361200Y0072394D02*
X0340940Y0072394D01*
X0339941Y0071396D02*
X0361200Y0071396D01*
X0361200Y0070397D02*
X0338943Y0070397D01*
X0337944Y0069399D02*
X0361200Y0069399D01*
X0368000Y0072000D02*
X0368000Y0037000D01*
X0362500Y0031500D01*
X0337213Y0031500D01*
X0336969Y0031256D01*
X0336969Y0029287D02*
X0363287Y0029287D01*
X0370500Y0036500D01*
X0370500Y0067000D01*
X0377500Y0074000D01*
X0377500Y0080902D01*
X0372000Y0076000D02*
X0372000Y0106000D01*
X0377000Y0111000D01*
X0377500Y0111402D01*
X0377500Y0115402D01*
X0385300Y0115330D02*
X0398774Y0115330D01*
X0398771Y0114332D02*
X0385300Y0114332D01*
X0385300Y0113333D02*
X0398769Y0113333D01*
X0398766Y0112335D02*
X0385300Y0112335D01*
X0385300Y0111336D02*
X0398763Y0111336D01*
X0398761Y0110338D02*
X0385300Y0110338D01*
X0385300Y0109339D02*
X0398758Y0109339D01*
X0398756Y0108341D02*
X0385300Y0108341D01*
X0385300Y0107342D02*
X0398753Y0107342D01*
X0398751Y0106344D02*
X0385300Y0106344D01*
X0385300Y0105345D02*
X0398748Y0105345D01*
X0398746Y0104347D02*
X0385300Y0104347D01*
X0385300Y0103348D02*
X0398743Y0103348D01*
X0398741Y0102350D02*
X0385300Y0102350D01*
X0385300Y0101351D02*
X0398738Y0101351D01*
X0398736Y0100353D02*
X0385330Y0100353D01*
X0385300Y0099354D02*
X0398733Y0099354D01*
X0398731Y0098356D02*
X0385300Y0098356D01*
X0385300Y0097357D02*
X0398728Y0097357D01*
X0398726Y0096359D02*
X0385300Y0096359D01*
X0385300Y0095360D02*
X0398723Y0095360D01*
X0398721Y0094362D02*
X0385300Y0094362D01*
X0385300Y0093363D02*
X0398718Y0093363D01*
X0398716Y0092365D02*
X0385300Y0092365D01*
X0385300Y0091366D02*
X0398713Y0091366D01*
X0398711Y0090368D02*
X0385300Y0090368D01*
X0385300Y0089369D02*
X0398708Y0089369D01*
X0398705Y0088370D02*
X0385300Y0088370D01*
X0385300Y0087372D02*
X0398703Y0087372D01*
X0398700Y0086373D02*
X0385300Y0086373D01*
X0385300Y0085375D02*
X0398698Y0085375D01*
X0398695Y0084376D02*
X0385300Y0084376D01*
X0385300Y0083378D02*
X0398693Y0083378D01*
X0398690Y0082379D02*
X0385300Y0082379D01*
X0385300Y0081381D02*
X0398688Y0081381D01*
X0398685Y0080382D02*
X0398106Y0080382D01*
X0395500Y0080382D02*
X0394500Y0080382D01*
X0394500Y0079384D02*
X0395500Y0079384D01*
X0395500Y0078385D02*
X0394500Y0078385D01*
X0394500Y0077387D02*
X0395500Y0077387D01*
X0395500Y0076388D02*
X0394500Y0076388D01*
X0394500Y0075390D02*
X0395500Y0075390D01*
X0395500Y0073393D02*
X0394500Y0073393D01*
X0394500Y0072394D02*
X0395500Y0072394D01*
X0395500Y0071396D02*
X0394500Y0071396D01*
X0394500Y0070397D02*
X0395500Y0070397D01*
X0395500Y0069399D02*
X0394500Y0069399D01*
X0394500Y0068400D02*
X0395500Y0068400D01*
X0398653Y0067402D02*
X0390681Y0067402D01*
X0390681Y0066403D02*
X0398650Y0066403D01*
X0398647Y0065405D02*
X0390282Y0065405D01*
X0389405Y0064406D02*
X0398645Y0064406D01*
X0398642Y0063408D02*
X0385300Y0063408D01*
X0385300Y0064406D02*
X0385595Y0064406D01*
X0385300Y0062409D02*
X0398640Y0062409D01*
X0398637Y0061411D02*
X0385300Y0061411D01*
X0385300Y0060412D02*
X0398635Y0060412D01*
X0398632Y0059414D02*
X0385300Y0059414D01*
X0385300Y0058415D02*
X0398630Y0058415D01*
X0398627Y0057417D02*
X0385300Y0057417D01*
X0385300Y0056418D02*
X0398625Y0056418D01*
X0398622Y0055420D02*
X0385300Y0055420D01*
X0385300Y0054421D02*
X0398620Y0054421D01*
X0398617Y0053423D02*
X0385300Y0053423D01*
X0385300Y0052424D02*
X0398615Y0052424D01*
X0398612Y0051426D02*
X0385300Y0051426D01*
X0385300Y0050427D02*
X0398610Y0050427D01*
X0398607Y0049429D02*
X0385300Y0049429D01*
X0385300Y0048430D02*
X0398605Y0048430D01*
X0398602Y0047432D02*
X0385300Y0047432D01*
X0385300Y0046433D02*
X0398600Y0046433D01*
X0398597Y0045434D02*
X0385300Y0045434D01*
X0385300Y0044436D02*
X0398595Y0044436D01*
X0398592Y0043437D02*
X0385300Y0043437D01*
X0385300Y0042439D02*
X0398589Y0042439D01*
X0398587Y0041440D02*
X0385300Y0041440D01*
X0385300Y0040442D02*
X0398584Y0040442D01*
X0398582Y0039443D02*
X0385300Y0039443D01*
X0385300Y0038445D02*
X0398579Y0038445D01*
X0398577Y0037446D02*
X0384705Y0037446D01*
X0384228Y0036448D02*
X0398574Y0036448D01*
X0398572Y0035449D02*
X0383750Y0035449D01*
X0383273Y0034451D02*
X0398569Y0034451D01*
X0398567Y0033452D02*
X0382795Y0033452D01*
X0382317Y0032454D02*
X0398564Y0032454D01*
X0398562Y0031455D02*
X0382680Y0031455D01*
X0382849Y0030457D02*
X0398559Y0030457D01*
X0398557Y0029458D02*
X0382849Y0029458D01*
X0382849Y0028460D02*
X0398554Y0028460D01*
X0380715Y0037446D02*
X0374300Y0037446D01*
X0374300Y0036448D02*
X0380237Y0036448D01*
X0379760Y0035449D02*
X0374300Y0035449D01*
X0374300Y0034451D02*
X0379282Y0034451D01*
X0378804Y0033452D02*
X0373498Y0033452D01*
X0372499Y0032454D02*
X0378327Y0032454D01*
X0373320Y0031455D02*
X0371501Y0031455D01*
X0370502Y0030457D02*
X0373151Y0030457D01*
X0373151Y0029458D02*
X0369504Y0029458D01*
X0368505Y0028460D02*
X0373151Y0028460D01*
X0373151Y0027461D02*
X0367507Y0027461D01*
X0366508Y0026463D02*
X0373151Y0026463D01*
X0373151Y0025464D02*
X0344508Y0025464D01*
X0341470Y0022469D02*
X0297349Y0022469D01*
X0297349Y0021470D02*
X0345814Y0021470D01*
X0350158Y0020472D02*
X0297349Y0020472D01*
X0297349Y0019473D02*
X0354503Y0019473D01*
X0358847Y0018475D02*
X0297349Y0018475D01*
X0292500Y0018902D02*
X0288949Y0019850D01*
X0257969Y0021850D01*
X0257969Y0023819D02*
X0283819Y0023819D01*
X0287500Y0027500D01*
X0287500Y0042500D01*
X0292500Y0047500D01*
X0292500Y0049402D01*
X0298500Y0044000D02*
X0298500Y0069500D01*
X0293098Y0064098D01*
X0292500Y0060598D01*
X0292500Y0069500D01*
X0293500Y0070500D01*
X0292000Y0074500D02*
X0292000Y0082902D01*
X0292500Y0082402D01*
X0287000Y0080500D02*
X0287000Y0099500D01*
X0292000Y0104500D01*
X0292000Y0114402D01*
X0292500Y0114902D01*
X0292500Y0126098D02*
X0292500Y0127500D01*
X0298500Y0133500D01*
X0298500Y0100500D01*
X0292598Y0094598D01*
X0292500Y0093598D01*
X0298500Y0100500D02*
X0298500Y0069500D01*
X0301000Y0074500D02*
X0301000Y0041500D01*
X0317500Y0025000D01*
X0332681Y0025000D01*
X0333031Y0025350D01*
X0332713Y0027000D02*
X0333031Y0027319D01*
X0332713Y0027000D02*
X0319000Y0027000D01*
X0303543Y0042457D01*
X0303543Y0046886D01*
X0306102Y0046886D02*
X0306102Y0042898D01*
X0320000Y0029000D01*
X0332744Y0029000D01*
X0333031Y0029287D01*
X0332776Y0031000D02*
X0333031Y0031256D01*
X0332776Y0031000D02*
X0321000Y0031000D01*
X0308661Y0043339D01*
X0308661Y0046886D01*
X0311220Y0046886D02*
X0311220Y0043780D01*
X0320500Y0034500D01*
X0332882Y0034500D01*
X0333031Y0034350D01*
X0333031Y0036319D02*
X0332850Y0036500D01*
X0321500Y0036500D01*
X0313780Y0044220D01*
X0313780Y0046886D01*
X0318107Y0042439D02*
X0322319Y0042439D01*
X0322319Y0041440D02*
X0319105Y0041440D01*
X0320104Y0040442D02*
X0322702Y0040442D01*
X0323558Y0039443D02*
X0321102Y0039443D01*
X0322101Y0038445D02*
X0330747Y0038445D01*
X0330747Y0039443D02*
X0327442Y0039443D01*
X0328298Y0040442D02*
X0330747Y0040442D01*
X0330747Y0041440D02*
X0328681Y0041440D01*
X0328681Y0042439D02*
X0361200Y0042439D01*
X0361200Y0043437D02*
X0328348Y0043437D01*
X0327563Y0044436D02*
X0361200Y0044436D01*
X0361200Y0045434D02*
X0325454Y0045434D01*
X0324455Y0046433D02*
X0361200Y0046433D01*
X0361200Y0047432D02*
X0323457Y0047432D01*
X0323347Y0048430D02*
X0361200Y0048430D01*
X0361200Y0049429D02*
X0323347Y0049429D01*
X0323199Y0050427D02*
X0361200Y0050427D01*
X0361200Y0051426D02*
X0302800Y0051426D01*
X0302800Y0052424D02*
X0361200Y0052424D01*
X0361200Y0053423D02*
X0302800Y0053423D01*
X0302800Y0054421D02*
X0361200Y0054421D01*
X0361200Y0055420D02*
X0302800Y0055420D01*
X0302800Y0056418D02*
X0361200Y0056418D01*
X0377500Y0059098D02*
X0379098Y0064598D01*
X0383500Y0069500D01*
X0383500Y0069000D01*
X0383500Y0069500D02*
X0383500Y0101000D01*
X0378098Y0095098D01*
X0377500Y0092098D01*
X0383500Y0101000D02*
X0383500Y0130500D01*
X0380098Y0126598D01*
X0377500Y0126598D01*
X0372000Y0123000D02*
X0372000Y0140000D01*
X0377000Y0145000D01*
X0377500Y0145902D01*
X0377500Y0148902D01*
X0385300Y0149280D02*
X0398859Y0149280D01*
X0398862Y0150278D02*
X0385300Y0150278D01*
X0385300Y0151277D02*
X0398864Y0151277D01*
X0398867Y0152275D02*
X0385300Y0152275D01*
X0385300Y0153274D02*
X0398869Y0153274D01*
X0398872Y0154272D02*
X0385300Y0154272D01*
X0385300Y0155271D02*
X0398874Y0155271D01*
X0398877Y0156269D02*
X0385300Y0156269D01*
X0385300Y0157268D02*
X0398879Y0157268D01*
X0398882Y0158266D02*
X0385300Y0158266D01*
X0385300Y0159265D02*
X0398885Y0159265D01*
X0398887Y0160263D02*
X0385300Y0160263D01*
X0385300Y0161262D02*
X0398890Y0161262D01*
X0398892Y0162260D02*
X0385300Y0162260D01*
X0385300Y0163259D02*
X0389144Y0163259D01*
X0389258Y0163145D02*
X0390713Y0162543D01*
X0392287Y0162543D01*
X0393742Y0163145D01*
X0394855Y0164258D01*
X0395457Y0165713D01*
X0395457Y0167287D01*
X0394855Y0168742D01*
X0393742Y0169855D01*
X0392287Y0170457D01*
X0390713Y0170457D01*
X0389258Y0169855D01*
X0388145Y0168742D01*
X0387543Y0167287D01*
X0387543Y0165713D01*
X0388145Y0164258D01*
X0389258Y0163145D01*
X0388146Y0164257D02*
X0385300Y0164257D01*
X0385300Y0165256D02*
X0387732Y0165256D01*
X0387543Y0166254D02*
X0385300Y0166254D01*
X0385300Y0167253D02*
X0387543Y0167253D01*
X0387942Y0168251D02*
X0385300Y0168251D01*
X0385300Y0169250D02*
X0388653Y0169250D01*
X0390208Y0170248D02*
X0385300Y0170248D01*
X0385300Y0171247D02*
X0398915Y0171247D01*
X0398917Y0172245D02*
X0385300Y0172245D01*
X0385300Y0173244D02*
X0398920Y0173244D01*
X0398922Y0174242D02*
X0385300Y0174242D01*
X0385300Y0175241D02*
X0398925Y0175241D01*
X0398927Y0176239D02*
X0385300Y0176239D01*
X0385300Y0177238D02*
X0398930Y0177238D01*
X0398932Y0178237D02*
X0385300Y0178237D01*
X0385300Y0179235D02*
X0398935Y0179235D01*
X0398937Y0180234D02*
X0385300Y0180234D01*
X0385300Y0181232D02*
X0398940Y0181232D01*
X0398943Y0182231D02*
X0385300Y0182231D01*
X0385300Y0183229D02*
X0398945Y0183229D01*
X0398948Y0184228D02*
X0385300Y0184228D01*
X0385300Y0185226D02*
X0398950Y0185226D01*
X0398953Y0186225D02*
X0385300Y0186225D01*
X0385300Y0187223D02*
X0398955Y0187223D01*
X0398958Y0188222D02*
X0384824Y0188222D01*
X0383825Y0189220D02*
X0398960Y0189220D01*
X0398963Y0190219D02*
X0382827Y0190219D01*
X0382053Y0191217D02*
X0398965Y0191217D01*
X0398968Y0192216D02*
X0382349Y0192216D01*
X0382349Y0193214D02*
X0398970Y0193214D01*
X0398973Y0194213D02*
X0382349Y0194213D01*
X0382349Y0195211D02*
X0398975Y0195211D01*
X0398978Y0196210D02*
X0382349Y0196210D01*
X0382349Y0197208D02*
X0398980Y0197208D01*
X0398983Y0198207D02*
X0382349Y0198207D01*
X0382349Y0199205D02*
X0398985Y0199205D01*
X0398998Y0204198D02*
X0356827Y0204198D01*
X0377500Y0195598D02*
X0380902Y0189598D01*
X0383500Y0187000D01*
X0383500Y0165000D01*
X0379098Y0160098D01*
X0377500Y0160098D01*
X0371000Y0155000D02*
X0371000Y0170000D01*
X0377000Y0172500D01*
X0377000Y0173402D01*
X0377500Y0184402D01*
X0372783Y0188222D02*
X0298783Y0188222D01*
X0298034Y0189220D02*
X0379047Y0189220D01*
X0378481Y0190219D02*
X0297349Y0190219D01*
X0297349Y0191217D02*
X0373344Y0191217D01*
X0392792Y0170248D02*
X0398912Y0170248D01*
X0398910Y0169250D02*
X0394347Y0169250D01*
X0395058Y0168251D02*
X0398907Y0168251D01*
X0398905Y0167253D02*
X0395457Y0167253D01*
X0395457Y0166254D02*
X0398902Y0166254D01*
X0398900Y0165256D02*
X0395268Y0165256D01*
X0394854Y0164257D02*
X0398897Y0164257D01*
X0398895Y0163259D02*
X0393856Y0163259D01*
X0383500Y0165000D02*
X0383500Y0130500D01*
X0385317Y0130308D02*
X0398811Y0130308D01*
X0398814Y0131306D02*
X0385300Y0131306D01*
X0385300Y0132305D02*
X0398816Y0132305D01*
X0398819Y0133303D02*
X0385300Y0133303D01*
X0385300Y0134302D02*
X0398821Y0134302D01*
X0398824Y0135301D02*
X0385300Y0135301D01*
X0385300Y0136299D02*
X0398827Y0136299D01*
X0398829Y0137298D02*
X0385300Y0137298D01*
X0385300Y0138296D02*
X0398832Y0138296D01*
X0398834Y0139295D02*
X0385300Y0139295D01*
X0385300Y0140293D02*
X0398837Y0140293D01*
X0398839Y0141292D02*
X0385300Y0141292D01*
X0385300Y0142290D02*
X0398842Y0142290D01*
X0398844Y0143289D02*
X0385300Y0143289D01*
X0385300Y0144287D02*
X0398847Y0144287D01*
X0398849Y0145286D02*
X0385300Y0145286D01*
X0385300Y0146284D02*
X0398852Y0146284D01*
X0398854Y0147283D02*
X0385300Y0147283D01*
X0385300Y0148281D02*
X0398857Y0148281D01*
X0371000Y0155000D02*
X0369000Y0153000D01*
X0369000Y0126000D01*
X0366000Y0123000D01*
X0366000Y0081000D01*
X0363000Y0078000D01*
X0363000Y0039000D01*
X0360319Y0036319D01*
X0336969Y0036319D01*
X0336969Y0034350D02*
X0361850Y0034350D01*
X0365500Y0038000D01*
X0365500Y0074500D01*
X0369000Y0078000D01*
X0369000Y0120000D01*
X0372000Y0123000D01*
X0385300Y0123318D02*
X0398794Y0123318D01*
X0398791Y0122320D02*
X0385300Y0122320D01*
X0385300Y0121321D02*
X0398789Y0121321D01*
X0398786Y0120323D02*
X0385300Y0120323D01*
X0385300Y0119324D02*
X0398784Y0119324D01*
X0398781Y0118326D02*
X0385300Y0118326D01*
X0385300Y0117327D02*
X0398779Y0117327D01*
X0398776Y0116329D02*
X0385300Y0116329D01*
X0385300Y0124317D02*
X0398796Y0124317D01*
X0398799Y0125315D02*
X0385300Y0125315D01*
X0385300Y0126314D02*
X0398801Y0126314D01*
X0398804Y0127312D02*
X0385300Y0127312D01*
X0385300Y0128311D02*
X0398806Y0128311D01*
X0398809Y0129309D02*
X0385300Y0129309D01*
X0359147Y0151277D02*
X0300300Y0151277D01*
X0300300Y0152275D02*
X0305726Y0152275D01*
X0305065Y0153274D02*
X0300300Y0153274D01*
X0300300Y0154272D02*
X0304819Y0154272D01*
X0304876Y0155271D02*
X0300300Y0155271D01*
X0300300Y0156269D02*
X0305290Y0156269D01*
X0306369Y0157268D02*
X0300300Y0157268D01*
X0300300Y0158266D02*
X0358170Y0158266D01*
X0357171Y0157268D02*
X0309631Y0157268D01*
X0308000Y0154500D02*
X0359500Y0154500D01*
X0360500Y0155000D01*
X0357628Y0152275D02*
X0310274Y0152275D01*
X0298500Y0167000D02*
X0298500Y0133500D01*
X0286000Y0147000D02*
X0283000Y0144000D01*
X0223817Y0103348D02*
X0207437Y0103348D01*
X0208649Y0102350D02*
X0222809Y0102350D01*
X0199000Y0104500D02*
X0199000Y0116402D01*
X0199000Y0104500D02*
X0188500Y0094000D01*
X0188500Y0031500D01*
X0182756Y0025756D01*
X0158969Y0025756D01*
X0158969Y0028350D02*
X0181850Y0028350D01*
X0175000Y0033500D02*
X0178000Y0036500D01*
X0178000Y0079000D01*
X0173000Y0084000D01*
X0199000Y0094598D02*
X0199598Y0094098D01*
X0199000Y0094598D02*
X0199402Y0095000D01*
X0186521Y0103348D02*
X0177950Y0103348D01*
X0177950Y0102350D02*
X0185451Y0102350D01*
X0184381Y0101351D02*
X0177950Y0101351D01*
X0225000Y0073000D02*
X0233000Y0081500D01*
X0225000Y0073000D02*
X0225000Y0063000D01*
X0226000Y0054894D01*
X0225280Y0060614D01*
X0228000Y0060776D02*
X0229500Y0052500D01*
X0230500Y0052000D01*
X0233354Y0053423D02*
X0233819Y0053423D01*
X0233819Y0054421D02*
X0232578Y0054421D01*
X0234145Y0055420D02*
X0230800Y0055420D01*
X0230619Y0056418D02*
X0234919Y0056418D01*
X0234847Y0057417D02*
X0235200Y0057417D01*
X0235200Y0058415D02*
X0234847Y0058415D01*
X0234847Y0059414D02*
X0235200Y0059414D01*
X0235200Y0060412D02*
X0234847Y0060412D01*
X0234847Y0061411D02*
X0235200Y0061411D01*
X0235200Y0062409D02*
X0234847Y0062409D01*
X0234847Y0063408D02*
X0235200Y0063408D01*
X0235200Y0064406D02*
X0234448Y0064406D01*
X0237000Y0065407D02*
X0237000Y0054000D01*
X0234210Y0052424D02*
X0233681Y0052424D01*
X0233681Y0051426D02*
X0235076Y0051426D01*
X0233292Y0050427D02*
X0238319Y0050427D01*
X0238319Y0049429D02*
X0232427Y0049429D01*
X0228573Y0049429D02*
X0227561Y0049429D01*
X0226476Y0048430D02*
X0238707Y0048430D01*
X0238697Y0047432D02*
X0225619Y0047432D01*
X0224000Y0048500D02*
X0218500Y0049500D01*
X0216070Y0047432D02*
X0208800Y0047432D01*
X0208800Y0046433D02*
X0217592Y0046433D01*
X0219408Y0046433D02*
X0235883Y0046433D01*
X0233000Y0043500D02*
X0232886Y0038886D01*
X0232957Y0037386D01*
X0224000Y0048500D02*
X0226500Y0051000D01*
X0226000Y0054894D01*
X0212953Y0061411D02*
X0208800Y0061411D01*
X0208800Y0062409D02*
X0212953Y0062409D01*
X0212953Y0063408D02*
X0209357Y0063408D01*
X0220300Y0066403D02*
X0223200Y0066403D01*
X0223200Y0065405D02*
X0220844Y0065405D01*
X0220300Y0067402D02*
X0223200Y0067402D01*
X0223200Y0068400D02*
X0220300Y0068400D01*
X0283500Y0077500D02*
X0287000Y0080500D01*
X0283500Y0077500D02*
X0283500Y0031000D01*
X0280756Y0027756D01*
X0257969Y0027756D01*
X0257969Y0025787D02*
X0281787Y0025787D01*
X0285500Y0029500D01*
X0285500Y0068000D01*
X0292000Y0074500D01*
X0301000Y0074500D02*
X0303000Y0076000D01*
X0305000Y0076000D01*
X0306102Y0074898D01*
X0306102Y0070114D01*
X0308500Y0070276D02*
X0308500Y0077500D01*
X0303000Y0083000D01*
X0302500Y0082500D01*
X0308163Y0080382D02*
X0315146Y0080382D01*
X0313885Y0079384D02*
X0309162Y0079384D01*
X0310160Y0078385D02*
X0313424Y0078385D01*
X0325118Y0081381D02*
X0339200Y0081381D01*
X0339200Y0080382D02*
X0325871Y0080382D01*
X0326181Y0079384D02*
X0339200Y0079384D01*
X0331404Y0066403D02*
X0323029Y0066403D01*
X0308661Y0070114D02*
X0308500Y0070276D01*
X0321457Y0046886D02*
X0325500Y0042843D01*
X0325500Y0042000D01*
X0339253Y0041440D02*
X0361200Y0041440D01*
X0361200Y0040442D02*
X0339253Y0040442D01*
X0339253Y0039443D02*
X0360898Y0039443D01*
X0359899Y0038445D02*
X0339253Y0038445D01*
X0336969Y0027319D02*
X0364819Y0027319D01*
X0372500Y0035000D01*
X0372500Y0039500D01*
X0377500Y0041500D01*
X0377500Y0047902D01*
X0377500Y0050402D01*
X0379300Y0043437D02*
X0381700Y0043437D01*
X0381700Y0042439D02*
X0379300Y0042439D01*
X0379433Y0041440D02*
X0381700Y0041440D01*
X0381700Y0040442D02*
X0379005Y0040442D01*
X0377205Y0039443D02*
X0381670Y0039443D01*
X0381192Y0038445D02*
X0374709Y0038445D01*
X0373151Y0024466D02*
X0348852Y0024466D01*
X0353197Y0023467D02*
X0373594Y0023467D01*
X0373949Y0016850D02*
X0378000Y0016402D01*
X0373949Y0016850D02*
X0336969Y0025350D01*
X0335242Y0023467D02*
X0334758Y0023467D01*
X0316487Y0023467D02*
X0286013Y0023467D01*
X0285014Y0022469D02*
X0287651Y0022469D01*
X0287011Y0024466D02*
X0315489Y0024466D01*
X0314490Y0025464D02*
X0288010Y0025464D01*
X0292500Y0030098D02*
X0298402Y0034598D01*
X0300000Y0034500D01*
X0303181Y0034451D02*
X0305504Y0034451D01*
X0306502Y0033452D02*
X0303009Y0033452D01*
X0302453Y0032454D02*
X0307501Y0032454D01*
X0308499Y0031455D02*
X0300962Y0031455D01*
X0299038Y0031455D02*
X0297349Y0031455D01*
X0297349Y0030457D02*
X0309498Y0030457D01*
X0310496Y0029458D02*
X0297349Y0029458D01*
X0297349Y0028460D02*
X0311495Y0028460D01*
X0312493Y0027461D02*
X0297349Y0027461D01*
X0297349Y0026463D02*
X0313492Y0026463D01*
X0304505Y0035449D02*
X0303050Y0035449D01*
X0303507Y0036448D02*
X0302551Y0036448D01*
X0302508Y0037446D02*
X0301199Y0037446D01*
X0301509Y0038445D02*
X0295490Y0038445D01*
X0294492Y0037446D02*
X0298801Y0037446D01*
X0297449Y0036448D02*
X0294300Y0036448D01*
X0294300Y0035449D02*
X0296549Y0035449D01*
X0296489Y0039443D02*
X0300511Y0039443D01*
X0299512Y0040442D02*
X0297488Y0040442D01*
X0298486Y0041440D02*
X0299200Y0041440D01*
X0298500Y0044000D02*
X0292500Y0038000D01*
X0292500Y0030098D01*
X0282318Y0018475D02*
X0193688Y0018475D01*
X0187028Y0014481D02*
X0288384Y0014481D01*
X0287651Y0015479D02*
X0158801Y0015479D01*
X0126500Y0032000D02*
X0126500Y0033665D01*
X0126280Y0035886D01*
X0133957Y0035886D02*
X0136343Y0033500D01*
X0133957Y0035886D02*
X0133843Y0042500D01*
X0132233Y0047432D02*
X0115300Y0047432D01*
X0115300Y0048430D02*
X0133032Y0048430D01*
X0134886Y0049429D02*
X0115300Y0049429D01*
X0115300Y0050427D02*
X0136686Y0050427D01*
X0138486Y0051426D02*
X0115300Y0051426D01*
X0115300Y0052424D02*
X0144770Y0052424D01*
X0143772Y0053423D02*
X0115300Y0053423D01*
X0106500Y0052402D02*
X0106500Y0042000D01*
X0100500Y0036500D01*
X0053500Y0036500D01*
X0047000Y0043000D01*
X0047000Y0049850D01*
X0046819Y0050031D01*
X0048787Y0050031D02*
X0049000Y0049819D01*
X0049000Y0044500D01*
X0054000Y0039500D01*
X0094500Y0039500D01*
X0100000Y0048000D01*
X0100000Y0070500D01*
X0106500Y0075500D01*
X0106500Y0083402D01*
X0087700Y0079384D02*
X0083300Y0079384D01*
X0083300Y0078385D02*
X0087700Y0078385D01*
X0087700Y0077387D02*
X0083300Y0077387D01*
X0083300Y0076388D02*
X0087700Y0076388D01*
X0087700Y0075390D02*
X0083300Y0075390D01*
X0083300Y0074391D02*
X0087700Y0074391D01*
X0087700Y0073393D02*
X0083300Y0073393D01*
X0087500Y0080000D02*
X0087500Y0095000D01*
X0076000Y0106500D01*
X0072271Y0104347D02*
X0087700Y0104347D01*
X0087700Y0103348D02*
X0074019Y0103348D01*
X0075766Y0102350D02*
X0087700Y0102350D01*
X0087700Y0101351D02*
X0077514Y0101351D01*
X0079261Y0100353D02*
X0087700Y0100353D01*
X0087700Y0099354D02*
X0081008Y0099354D01*
X0082756Y0098356D02*
X0087700Y0098356D01*
X0087700Y0097357D02*
X0083300Y0097357D01*
X0083300Y0096359D02*
X0087700Y0096359D01*
X0087700Y0095360D02*
X0083300Y0095360D01*
X0083300Y0094362D02*
X0087700Y0094362D01*
X0087700Y0093363D02*
X0083300Y0093363D01*
X0083300Y0092365D02*
X0087700Y0092365D01*
X0087700Y0091366D02*
X0083300Y0091366D01*
X0083418Y0090368D02*
X0087700Y0090368D01*
X0087700Y0089369D02*
X0085630Y0089369D01*
X0065614Y0064886D02*
X0068500Y0062000D01*
X0065614Y0064886D02*
X0063957Y0064886D01*
X0053720Y0054339D02*
X0053350Y0053969D01*
X0053350Y0050031D02*
X0053500Y0049882D01*
X0051000Y0049787D02*
X0051000Y0046000D01*
X0055000Y0042000D01*
X0092000Y0042000D01*
X0086095Y0034451D02*
X0101651Y0034451D01*
X0101651Y0033452D02*
X0101145Y0033452D01*
X0096855Y0033452D02*
X0087093Y0033452D01*
X0084000Y0034000D02*
X0052000Y0034000D01*
X0044500Y0042000D01*
X0044500Y0049681D01*
X0044850Y0050031D01*
X0042700Y0050427D02*
X0031000Y0050427D01*
X0031000Y0049429D02*
X0042700Y0049429D01*
X0042700Y0048430D02*
X0031000Y0048430D01*
X0031000Y0047432D02*
X0042700Y0047432D01*
X0042700Y0046433D02*
X0031000Y0046433D01*
X0031000Y0045434D02*
X0042700Y0045434D01*
X0042700Y0044436D02*
X0031000Y0044436D01*
X0031000Y0043437D02*
X0042700Y0043437D01*
X0042700Y0042439D02*
X0031000Y0042439D01*
X0031000Y0041440D02*
X0042681Y0041440D01*
X0043493Y0040442D02*
X0031000Y0040442D01*
X0031000Y0039443D02*
X0044429Y0039443D01*
X0045366Y0038445D02*
X0031000Y0038445D01*
X0031000Y0037446D02*
X0046302Y0037446D01*
X0047238Y0036448D02*
X0031000Y0036448D01*
X0031000Y0035449D02*
X0048174Y0035449D01*
X0049110Y0034451D02*
X0044630Y0034451D01*
X0045629Y0033452D02*
X0050046Y0033452D01*
X0050982Y0032454D02*
X0046627Y0032454D01*
X0040370Y0034451D02*
X0031000Y0034451D01*
X0031000Y0033452D02*
X0039371Y0033452D01*
X0038373Y0032454D02*
X0031000Y0032454D01*
X0031000Y0031455D02*
X0038200Y0031455D01*
X0038200Y0030457D02*
X0031000Y0030457D01*
X0031000Y0029458D02*
X0038200Y0029458D01*
X0038459Y0028460D02*
X0031000Y0028460D01*
X0031000Y0027461D02*
X0039458Y0027461D01*
X0040456Y0026463D02*
X0031000Y0026463D01*
X0031000Y0023467D02*
X0091987Y0023467D01*
X0092986Y0022469D02*
X0031000Y0022469D01*
X0031000Y0021470D02*
X0093984Y0021470D01*
X0094983Y0020472D02*
X0031000Y0020472D01*
X0045892Y0019473D02*
X0095981Y0019473D01*
X0098077Y0022469D02*
X0101651Y0022469D01*
X0101651Y0023467D02*
X0097078Y0023467D01*
X0101651Y0018475D02*
X0074119Y0018475D01*
X0121000Y0033724D02*
X0121161Y0035886D01*
X0107598Y0061598D02*
X0111500Y0065500D01*
X0106500Y0063598D02*
X0107598Y0061598D01*
X0051000Y0049787D02*
X0050756Y0050031D01*
X0042763Y0051426D02*
X0031000Y0051426D01*
X0031000Y0052424D02*
X0042785Y0052424D01*
X0042763Y0053423D02*
X0031000Y0053423D01*
X0031000Y0054421D02*
X0041852Y0054421D01*
X0040854Y0055420D02*
X0031000Y0055420D01*
X0031000Y0056418D02*
X0039855Y0056418D01*
X0039700Y0057417D02*
X0031000Y0057417D01*
X0031000Y0058415D02*
X0039700Y0058415D01*
X0039700Y0059414D02*
X0031000Y0059414D01*
X0031000Y0060412D02*
X0039700Y0060412D01*
X0039700Y0061411D02*
X0031000Y0061411D01*
X0031000Y0062409D02*
X0039700Y0062409D01*
X0036500Y0063408D02*
X0035500Y0063408D01*
X0035500Y0062500D02*
X0035500Y0068500D01*
X0032000Y0068500D01*
X0032000Y0063803D01*
X0032102Y0063421D01*
X0032300Y0063079D01*
X0032579Y0062800D01*
X0032921Y0062602D01*
X0033303Y0062500D01*
X0035500Y0062500D01*
X0035500Y0064406D02*
X0036500Y0064406D01*
X0036500Y0065405D02*
X0035500Y0065405D01*
X0035500Y0066403D02*
X0036500Y0066403D01*
X0036500Y0067402D02*
X0035500Y0067402D01*
X0035500Y0068400D02*
X0036500Y0068400D01*
X0032000Y0068400D02*
X0031000Y0068400D01*
X0031000Y0067402D02*
X0032000Y0067402D01*
X0032000Y0066403D02*
X0031000Y0066403D01*
X0031000Y0065405D02*
X0032000Y0065405D01*
X0032000Y0064406D02*
X0031000Y0064406D01*
X0031000Y0063408D02*
X0032110Y0063408D01*
X0203609Y0019473D02*
X0266851Y0019473D01*
X0271709Y0011485D02*
X0398511Y0011485D01*
X0398509Y0010487D02*
X0299936Y0010487D01*
X0328164Y0009488D02*
X0398506Y0009488D01*
X0373381Y0012484D02*
X0243482Y0012484D01*
X0368000Y0072000D02*
X0372000Y0076000D01*
X0385300Y0076388D02*
X0391000Y0076388D01*
X0391000Y0075390D02*
X0385300Y0075390D01*
X0385300Y0077387D02*
X0391000Y0077387D01*
X0391000Y0078385D02*
X0385300Y0078385D01*
X0385300Y0079384D02*
X0391050Y0079384D01*
X0391894Y0080382D02*
X0385300Y0080382D01*
X0386500Y0069000D02*
X0387500Y0067000D01*
X0390363Y0068400D02*
X0391114Y0068400D01*
X0391000Y0069399D02*
X0389600Y0069399D01*
X0031867Y0187223D02*
X0031000Y0187223D01*
D28*
X0118799Y0166500D02*
X0118799Y0132799D01*
X0115500Y0128500D01*
X0115000Y0119500D01*
X0153000Y0153000D02*
X0155000Y0151000D01*
X0165000Y0151000D01*
X0177500Y0163500D01*
X0179500Y0163500D01*
X0169500Y0174000D02*
X0168000Y0172500D01*
X0167000Y0172500D01*
X0160740Y0166240D01*
X0160740Y0158000D01*
X0153260Y0158000D02*
X0153000Y0157740D01*
X0153000Y0153000D01*
X0153000Y0158000D02*
X0148500Y0162500D01*
X0147200Y0162500D01*
X0143200Y0166500D01*
X0118799Y0166500D01*
X0143200Y0175600D02*
X0161100Y0175600D01*
X0164000Y0178500D01*
X0165760Y0178500D01*
X0165500Y0178760D01*
X0165500Y0188500D01*
X0162000Y0192000D01*
X0154720Y0192000D01*
X0153220Y0193500D01*
X0143000Y0193500D01*
X0172500Y0177760D02*
X0173240Y0178500D01*
X0172500Y0177760D02*
X0172500Y0174500D01*
X0172000Y0174000D01*
X0169500Y0174000D01*
X0182500Y0174500D02*
X0183000Y0175000D01*
X0185500Y0175000D01*
X0189000Y0178500D01*
X0189000Y0182000D01*
X0182083Y0188917D01*
X0182083Y0192000D01*
X0153260Y0158000D02*
X0153000Y0158000D01*
D29*
X0360500Y0155000D03*
X0391500Y0166500D03*
M02*
