%
M48
M72
T01C0.0236
T02C0.0354
T03C0.0360
T04C0.0400
T05C0.1102
%
T01
X9900Y3110
X11750Y4600
X14300Y3350
X14974Y5000
X17500Y3350
X21100Y3700
X21100Y4550
X21850Y4950
X22250Y5300
X23050Y5200
X23700Y5400
X24150Y5000
X24850Y4900
X24100Y6500
X23500Y7200
X22850Y6950
X21100Y6000
X19950Y7650
X21000Y8050
X20600Y10050
X17300Y8400
X13450Y6750
X13100Y7100
X12628Y7000
X12200Y7400
X11800Y6850
X11500Y7450
X11550Y7950
X11550Y8450
X12550Y9500
X12850Y11300
X11500Y11950
X8250Y12150
X12950Y14200
X15250Y14700
X16050Y14100
X15700Y13600
X16450Y13600
X17200Y14700
X19000Y13950
X18900Y12700
X18000Y15800
X17950Y16350
X18450Y16550
X19400Y16550
X20050Y16950
X19350Y17500
X18250Y17450
X17100Y17050
X15800Y18050
X11700Y18700
X21000Y16350
X26200Y16300
X27900Y15500
X29200Y16850
X30800Y15450
X34100Y8650
X32700Y8500
X32300Y7900
X31650Y7750
X32750Y7100
X33350Y6400
X31850Y5550
X31100Y6150
X29350Y7050
X30250Y8250
X27500Y8600
X32550Y4200
X30000Y3450
X38750Y6700
X38750Y7750
X8600Y7250
X8150Y6800
X7700Y7350
X7350Y7800
X6950Y8350
X6400Y7900
X5850Y8000
X5600Y7300
X5000Y7350
X6850Y6200
X8350Y8700
T02
X36050Y15500
X39150Y16650
T03
X30700Y19900
X22250Y19650
X12900Y19400
X3450Y19350
T04
X4250Y3050
X22100Y16800
X23100Y16800
X24100Y16800
X24100Y17800
X23100Y17800
X22100Y17800
X14300Y19350
T05
X33200Y17300
X26100Y7250
M30
