G75*
%MOIN*%
%OFA0B0*%
%FSLAX25Y25*%
%IPPOS*%
%LPD*%
%AMOC8*
5,1,8,0,0,1.08239X$1,22.5*
%
%ADD10C,0.00000*%
%ADD11C,0.01600*%
%ADD12C,0.00600*%
%ADD13C,0.00400*%
%ADD14R,0.00787X0.00787*%
%ADD15R,0.00984X0.00591*%
%ADD16C,0.00800*%
%ADD17R,0.03500X0.03500*%
%ADD18C,0.00200*%
%ADD19C,0.00500*%
%ADD20C,0.00100*%
D10*
X0014000Y0001800D02*
X0014000Y0206761D01*
X0386701Y0206261D01*
X0386701Y0001300D01*
X0014000Y0001800D01*
X0240488Y0067300D02*
X0240490Y0067448D01*
X0240496Y0067596D01*
X0240506Y0067744D01*
X0240520Y0067891D01*
X0240538Y0068038D01*
X0240559Y0068184D01*
X0240585Y0068330D01*
X0240615Y0068475D01*
X0240648Y0068619D01*
X0240686Y0068762D01*
X0240727Y0068904D01*
X0240772Y0069045D01*
X0240820Y0069185D01*
X0240873Y0069324D01*
X0240929Y0069461D01*
X0240989Y0069596D01*
X0241052Y0069730D01*
X0241119Y0069862D01*
X0241190Y0069992D01*
X0241264Y0070120D01*
X0241341Y0070246D01*
X0241422Y0070370D01*
X0241506Y0070492D01*
X0241593Y0070611D01*
X0241684Y0070728D01*
X0241778Y0070843D01*
X0241874Y0070955D01*
X0241974Y0071065D01*
X0242076Y0071171D01*
X0242182Y0071275D01*
X0242290Y0071376D01*
X0242401Y0071474D01*
X0242514Y0071570D01*
X0242630Y0071662D01*
X0242748Y0071751D01*
X0242869Y0071836D01*
X0242992Y0071919D01*
X0243117Y0071998D01*
X0243244Y0072074D01*
X0243373Y0072146D01*
X0243504Y0072215D01*
X0243637Y0072280D01*
X0243772Y0072341D01*
X0243908Y0072399D01*
X0244045Y0072454D01*
X0244184Y0072504D01*
X0244325Y0072551D01*
X0244466Y0072594D01*
X0244609Y0072634D01*
X0244753Y0072669D01*
X0244897Y0072701D01*
X0245043Y0072728D01*
X0245189Y0072752D01*
X0245336Y0072772D01*
X0245483Y0072788D01*
X0245630Y0072800D01*
X0245778Y0072808D01*
X0245926Y0072812D01*
X0246074Y0072812D01*
X0246222Y0072808D01*
X0246370Y0072800D01*
X0246517Y0072788D01*
X0246664Y0072772D01*
X0246811Y0072752D01*
X0246957Y0072728D01*
X0247103Y0072701D01*
X0247247Y0072669D01*
X0247391Y0072634D01*
X0247534Y0072594D01*
X0247675Y0072551D01*
X0247816Y0072504D01*
X0247955Y0072454D01*
X0248092Y0072399D01*
X0248228Y0072341D01*
X0248363Y0072280D01*
X0248496Y0072215D01*
X0248627Y0072146D01*
X0248756Y0072074D01*
X0248883Y0071998D01*
X0249008Y0071919D01*
X0249131Y0071836D01*
X0249252Y0071751D01*
X0249370Y0071662D01*
X0249486Y0071570D01*
X0249599Y0071474D01*
X0249710Y0071376D01*
X0249818Y0071275D01*
X0249924Y0071171D01*
X0250026Y0071065D01*
X0250126Y0070955D01*
X0250222Y0070843D01*
X0250316Y0070728D01*
X0250407Y0070611D01*
X0250494Y0070492D01*
X0250578Y0070370D01*
X0250659Y0070246D01*
X0250736Y0070120D01*
X0250810Y0069992D01*
X0250881Y0069862D01*
X0250948Y0069730D01*
X0251011Y0069596D01*
X0251071Y0069461D01*
X0251127Y0069324D01*
X0251180Y0069185D01*
X0251228Y0069045D01*
X0251273Y0068904D01*
X0251314Y0068762D01*
X0251352Y0068619D01*
X0251385Y0068475D01*
X0251415Y0068330D01*
X0251441Y0068184D01*
X0251462Y0068038D01*
X0251480Y0067891D01*
X0251494Y0067744D01*
X0251504Y0067596D01*
X0251510Y0067448D01*
X0251512Y0067300D01*
X0251510Y0067152D01*
X0251504Y0067004D01*
X0251494Y0066856D01*
X0251480Y0066709D01*
X0251462Y0066562D01*
X0251441Y0066416D01*
X0251415Y0066270D01*
X0251385Y0066125D01*
X0251352Y0065981D01*
X0251314Y0065838D01*
X0251273Y0065696D01*
X0251228Y0065555D01*
X0251180Y0065415D01*
X0251127Y0065276D01*
X0251071Y0065139D01*
X0251011Y0065004D01*
X0250948Y0064870D01*
X0250881Y0064738D01*
X0250810Y0064608D01*
X0250736Y0064480D01*
X0250659Y0064354D01*
X0250578Y0064230D01*
X0250494Y0064108D01*
X0250407Y0063989D01*
X0250316Y0063872D01*
X0250222Y0063757D01*
X0250126Y0063645D01*
X0250026Y0063535D01*
X0249924Y0063429D01*
X0249818Y0063325D01*
X0249710Y0063224D01*
X0249599Y0063126D01*
X0249486Y0063030D01*
X0249370Y0062938D01*
X0249252Y0062849D01*
X0249131Y0062764D01*
X0249008Y0062681D01*
X0248883Y0062602D01*
X0248756Y0062526D01*
X0248627Y0062454D01*
X0248496Y0062385D01*
X0248363Y0062320D01*
X0248228Y0062259D01*
X0248092Y0062201D01*
X0247955Y0062146D01*
X0247816Y0062096D01*
X0247675Y0062049D01*
X0247534Y0062006D01*
X0247391Y0061966D01*
X0247247Y0061931D01*
X0247103Y0061899D01*
X0246957Y0061872D01*
X0246811Y0061848D01*
X0246664Y0061828D01*
X0246517Y0061812D01*
X0246370Y0061800D01*
X0246222Y0061792D01*
X0246074Y0061788D01*
X0245926Y0061788D01*
X0245778Y0061792D01*
X0245630Y0061800D01*
X0245483Y0061812D01*
X0245336Y0061828D01*
X0245189Y0061848D01*
X0245043Y0061872D01*
X0244897Y0061899D01*
X0244753Y0061931D01*
X0244609Y0061966D01*
X0244466Y0062006D01*
X0244325Y0062049D01*
X0244184Y0062096D01*
X0244045Y0062146D01*
X0243908Y0062201D01*
X0243772Y0062259D01*
X0243637Y0062320D01*
X0243504Y0062385D01*
X0243373Y0062454D01*
X0243244Y0062526D01*
X0243117Y0062602D01*
X0242992Y0062681D01*
X0242869Y0062764D01*
X0242748Y0062849D01*
X0242630Y0062938D01*
X0242514Y0063030D01*
X0242401Y0063126D01*
X0242290Y0063224D01*
X0242182Y0063325D01*
X0242076Y0063429D01*
X0241974Y0063535D01*
X0241874Y0063645D01*
X0241778Y0063757D01*
X0241684Y0063872D01*
X0241593Y0063989D01*
X0241506Y0064108D01*
X0241422Y0064230D01*
X0241341Y0064354D01*
X0241264Y0064480D01*
X0241190Y0064608D01*
X0241119Y0064738D01*
X0241052Y0064870D01*
X0240989Y0065004D01*
X0240929Y0065139D01*
X0240873Y0065276D01*
X0240820Y0065415D01*
X0240772Y0065555D01*
X0240727Y0065696D01*
X0240686Y0065838D01*
X0240648Y0065981D01*
X0240615Y0066125D01*
X0240585Y0066270D01*
X0240559Y0066416D01*
X0240538Y0066562D01*
X0240520Y0066709D01*
X0240506Y0066856D01*
X0240496Y0067004D01*
X0240490Y0067152D01*
X0240488Y0067300D01*
X0311488Y0167800D02*
X0311490Y0167948D01*
X0311496Y0168096D01*
X0311506Y0168244D01*
X0311520Y0168391D01*
X0311538Y0168538D01*
X0311559Y0168684D01*
X0311585Y0168830D01*
X0311615Y0168975D01*
X0311648Y0169119D01*
X0311686Y0169262D01*
X0311727Y0169404D01*
X0311772Y0169545D01*
X0311820Y0169685D01*
X0311873Y0169824D01*
X0311929Y0169961D01*
X0311989Y0170096D01*
X0312052Y0170230D01*
X0312119Y0170362D01*
X0312190Y0170492D01*
X0312264Y0170620D01*
X0312341Y0170746D01*
X0312422Y0170870D01*
X0312506Y0170992D01*
X0312593Y0171111D01*
X0312684Y0171228D01*
X0312778Y0171343D01*
X0312874Y0171455D01*
X0312974Y0171565D01*
X0313076Y0171671D01*
X0313182Y0171775D01*
X0313290Y0171876D01*
X0313401Y0171974D01*
X0313514Y0172070D01*
X0313630Y0172162D01*
X0313748Y0172251D01*
X0313869Y0172336D01*
X0313992Y0172419D01*
X0314117Y0172498D01*
X0314244Y0172574D01*
X0314373Y0172646D01*
X0314504Y0172715D01*
X0314637Y0172780D01*
X0314772Y0172841D01*
X0314908Y0172899D01*
X0315045Y0172954D01*
X0315184Y0173004D01*
X0315325Y0173051D01*
X0315466Y0173094D01*
X0315609Y0173134D01*
X0315753Y0173169D01*
X0315897Y0173201D01*
X0316043Y0173228D01*
X0316189Y0173252D01*
X0316336Y0173272D01*
X0316483Y0173288D01*
X0316630Y0173300D01*
X0316778Y0173308D01*
X0316926Y0173312D01*
X0317074Y0173312D01*
X0317222Y0173308D01*
X0317370Y0173300D01*
X0317517Y0173288D01*
X0317664Y0173272D01*
X0317811Y0173252D01*
X0317957Y0173228D01*
X0318103Y0173201D01*
X0318247Y0173169D01*
X0318391Y0173134D01*
X0318534Y0173094D01*
X0318675Y0173051D01*
X0318816Y0173004D01*
X0318955Y0172954D01*
X0319092Y0172899D01*
X0319228Y0172841D01*
X0319363Y0172780D01*
X0319496Y0172715D01*
X0319627Y0172646D01*
X0319756Y0172574D01*
X0319883Y0172498D01*
X0320008Y0172419D01*
X0320131Y0172336D01*
X0320252Y0172251D01*
X0320370Y0172162D01*
X0320486Y0172070D01*
X0320599Y0171974D01*
X0320710Y0171876D01*
X0320818Y0171775D01*
X0320924Y0171671D01*
X0321026Y0171565D01*
X0321126Y0171455D01*
X0321222Y0171343D01*
X0321316Y0171228D01*
X0321407Y0171111D01*
X0321494Y0170992D01*
X0321578Y0170870D01*
X0321659Y0170746D01*
X0321736Y0170620D01*
X0321810Y0170492D01*
X0321881Y0170362D01*
X0321948Y0170230D01*
X0322011Y0170096D01*
X0322071Y0169961D01*
X0322127Y0169824D01*
X0322180Y0169685D01*
X0322228Y0169545D01*
X0322273Y0169404D01*
X0322314Y0169262D01*
X0322352Y0169119D01*
X0322385Y0168975D01*
X0322415Y0168830D01*
X0322441Y0168684D01*
X0322462Y0168538D01*
X0322480Y0168391D01*
X0322494Y0168244D01*
X0322504Y0168096D01*
X0322510Y0167948D01*
X0322512Y0167800D01*
X0322510Y0167652D01*
X0322504Y0167504D01*
X0322494Y0167356D01*
X0322480Y0167209D01*
X0322462Y0167062D01*
X0322441Y0166916D01*
X0322415Y0166770D01*
X0322385Y0166625D01*
X0322352Y0166481D01*
X0322314Y0166338D01*
X0322273Y0166196D01*
X0322228Y0166055D01*
X0322180Y0165915D01*
X0322127Y0165776D01*
X0322071Y0165639D01*
X0322011Y0165504D01*
X0321948Y0165370D01*
X0321881Y0165238D01*
X0321810Y0165108D01*
X0321736Y0164980D01*
X0321659Y0164854D01*
X0321578Y0164730D01*
X0321494Y0164608D01*
X0321407Y0164489D01*
X0321316Y0164372D01*
X0321222Y0164257D01*
X0321126Y0164145D01*
X0321026Y0164035D01*
X0320924Y0163929D01*
X0320818Y0163825D01*
X0320710Y0163724D01*
X0320599Y0163626D01*
X0320486Y0163530D01*
X0320370Y0163438D01*
X0320252Y0163349D01*
X0320131Y0163264D01*
X0320008Y0163181D01*
X0319883Y0163102D01*
X0319756Y0163026D01*
X0319627Y0162954D01*
X0319496Y0162885D01*
X0319363Y0162820D01*
X0319228Y0162759D01*
X0319092Y0162701D01*
X0318955Y0162646D01*
X0318816Y0162596D01*
X0318675Y0162549D01*
X0318534Y0162506D01*
X0318391Y0162466D01*
X0318247Y0162431D01*
X0318103Y0162399D01*
X0317957Y0162372D01*
X0317811Y0162348D01*
X0317664Y0162328D01*
X0317517Y0162312D01*
X0317370Y0162300D01*
X0317222Y0162292D01*
X0317074Y0162288D01*
X0316926Y0162288D01*
X0316778Y0162292D01*
X0316630Y0162300D01*
X0316483Y0162312D01*
X0316336Y0162328D01*
X0316189Y0162348D01*
X0316043Y0162372D01*
X0315897Y0162399D01*
X0315753Y0162431D01*
X0315609Y0162466D01*
X0315466Y0162506D01*
X0315325Y0162549D01*
X0315184Y0162596D01*
X0315045Y0162646D01*
X0314908Y0162701D01*
X0314772Y0162759D01*
X0314637Y0162820D01*
X0314504Y0162885D01*
X0314373Y0162954D01*
X0314244Y0163026D01*
X0314117Y0163102D01*
X0313992Y0163181D01*
X0313869Y0163264D01*
X0313748Y0163349D01*
X0313630Y0163438D01*
X0313514Y0163530D01*
X0313401Y0163626D01*
X0313290Y0163724D01*
X0313182Y0163825D01*
X0313076Y0163929D01*
X0312974Y0164035D01*
X0312874Y0164145D01*
X0312778Y0164257D01*
X0312684Y0164372D01*
X0312593Y0164489D01*
X0312506Y0164608D01*
X0312422Y0164730D01*
X0312341Y0164854D01*
X0312264Y0164980D01*
X0312190Y0165108D01*
X0312119Y0165238D01*
X0312052Y0165370D01*
X0311989Y0165504D01*
X0311929Y0165639D01*
X0311873Y0165776D01*
X0311820Y0165915D01*
X0311772Y0166055D01*
X0311727Y0166196D01*
X0311686Y0166338D01*
X0311648Y0166481D01*
X0311615Y0166625D01*
X0311585Y0166770D01*
X0311559Y0166916D01*
X0311538Y0167062D01*
X0311520Y0167209D01*
X0311506Y0167356D01*
X0311496Y0167504D01*
X0311490Y0167652D01*
X0311488Y0167800D01*
D11*
X0384000Y0001800D02*
X0014000Y0001800D01*
X0014000Y0011800D01*
X0384000Y0001800D01*
X0384000Y0201800D01*
X0382000Y0201800D01*
X0014000Y0201800D01*
X0014000Y0191800D01*
X0014000Y0011800D01*
X0024000Y0011800D02*
X0024000Y0191800D01*
X0014000Y0191800D02*
X0382000Y0201800D01*
D12*
X0305500Y0167800D02*
X0305503Y0168082D01*
X0305514Y0168364D01*
X0305531Y0168646D01*
X0305555Y0168927D01*
X0305586Y0169208D01*
X0305624Y0169487D01*
X0305669Y0169766D01*
X0305721Y0170044D01*
X0305779Y0170320D01*
X0305845Y0170594D01*
X0305917Y0170867D01*
X0305995Y0171138D01*
X0306080Y0171407D01*
X0306172Y0171674D01*
X0306271Y0171939D01*
X0306375Y0172201D01*
X0306487Y0172460D01*
X0306604Y0172717D01*
X0306728Y0172971D01*
X0306858Y0173221D01*
X0306994Y0173468D01*
X0307136Y0173712D01*
X0307284Y0173952D01*
X0307438Y0174189D01*
X0307598Y0174422D01*
X0307763Y0174651D01*
X0307934Y0174875D01*
X0308110Y0175096D01*
X0308292Y0175311D01*
X0308479Y0175523D01*
X0308671Y0175730D01*
X0308868Y0175932D01*
X0309070Y0176129D01*
X0309277Y0176321D01*
X0309489Y0176508D01*
X0309704Y0176690D01*
X0309925Y0176866D01*
X0310149Y0177037D01*
X0310378Y0177202D01*
X0310611Y0177362D01*
X0310848Y0177516D01*
X0311088Y0177664D01*
X0311332Y0177806D01*
X0311579Y0177942D01*
X0311829Y0178072D01*
X0312083Y0178196D01*
X0312340Y0178313D01*
X0312599Y0178425D01*
X0312861Y0178529D01*
X0313126Y0178628D01*
X0313393Y0178720D01*
X0313662Y0178805D01*
X0313933Y0178883D01*
X0314206Y0178955D01*
X0314480Y0179021D01*
X0314756Y0179079D01*
X0315034Y0179131D01*
X0315313Y0179176D01*
X0315592Y0179214D01*
X0315873Y0179245D01*
X0316154Y0179269D01*
X0316436Y0179286D01*
X0316718Y0179297D01*
X0317000Y0179300D01*
X0317282Y0179297D01*
X0317564Y0179286D01*
X0317846Y0179269D01*
X0318127Y0179245D01*
X0318408Y0179214D01*
X0318687Y0179176D01*
X0318966Y0179131D01*
X0319244Y0179079D01*
X0319520Y0179021D01*
X0319794Y0178955D01*
X0320067Y0178883D01*
X0320338Y0178805D01*
X0320607Y0178720D01*
X0320874Y0178628D01*
X0321139Y0178529D01*
X0321401Y0178425D01*
X0321660Y0178313D01*
X0321917Y0178196D01*
X0322171Y0178072D01*
X0322421Y0177942D01*
X0322668Y0177806D01*
X0322912Y0177664D01*
X0323152Y0177516D01*
X0323389Y0177362D01*
X0323622Y0177202D01*
X0323851Y0177037D01*
X0324075Y0176866D01*
X0324296Y0176690D01*
X0324511Y0176508D01*
X0324723Y0176321D01*
X0324930Y0176129D01*
X0325132Y0175932D01*
X0325329Y0175730D01*
X0325521Y0175523D01*
X0325708Y0175311D01*
X0325890Y0175096D01*
X0326066Y0174875D01*
X0326237Y0174651D01*
X0326402Y0174422D01*
X0326562Y0174189D01*
X0326716Y0173952D01*
X0326864Y0173712D01*
X0327006Y0173468D01*
X0327142Y0173221D01*
X0327272Y0172971D01*
X0327396Y0172717D01*
X0327513Y0172460D01*
X0327625Y0172201D01*
X0327729Y0171939D01*
X0327828Y0171674D01*
X0327920Y0171407D01*
X0328005Y0171138D01*
X0328083Y0170867D01*
X0328155Y0170594D01*
X0328221Y0170320D01*
X0328279Y0170044D01*
X0328331Y0169766D01*
X0328376Y0169487D01*
X0328414Y0169208D01*
X0328445Y0168927D01*
X0328469Y0168646D01*
X0328486Y0168364D01*
X0328497Y0168082D01*
X0328500Y0167800D01*
X0328497Y0167518D01*
X0328486Y0167236D01*
X0328469Y0166954D01*
X0328445Y0166673D01*
X0328414Y0166392D01*
X0328376Y0166113D01*
X0328331Y0165834D01*
X0328279Y0165556D01*
X0328221Y0165280D01*
X0328155Y0165006D01*
X0328083Y0164733D01*
X0328005Y0164462D01*
X0327920Y0164193D01*
X0327828Y0163926D01*
X0327729Y0163661D01*
X0327625Y0163399D01*
X0327513Y0163140D01*
X0327396Y0162883D01*
X0327272Y0162629D01*
X0327142Y0162379D01*
X0327006Y0162132D01*
X0326864Y0161888D01*
X0326716Y0161648D01*
X0326562Y0161411D01*
X0326402Y0161178D01*
X0326237Y0160949D01*
X0326066Y0160725D01*
X0325890Y0160504D01*
X0325708Y0160289D01*
X0325521Y0160077D01*
X0325329Y0159870D01*
X0325132Y0159668D01*
X0324930Y0159471D01*
X0324723Y0159279D01*
X0324511Y0159092D01*
X0324296Y0158910D01*
X0324075Y0158734D01*
X0323851Y0158563D01*
X0323622Y0158398D01*
X0323389Y0158238D01*
X0323152Y0158084D01*
X0322912Y0157936D01*
X0322668Y0157794D01*
X0322421Y0157658D01*
X0322171Y0157528D01*
X0321917Y0157404D01*
X0321660Y0157287D01*
X0321401Y0157175D01*
X0321139Y0157071D01*
X0320874Y0156972D01*
X0320607Y0156880D01*
X0320338Y0156795D01*
X0320067Y0156717D01*
X0319794Y0156645D01*
X0319520Y0156579D01*
X0319244Y0156521D01*
X0318966Y0156469D01*
X0318687Y0156424D01*
X0318408Y0156386D01*
X0318127Y0156355D01*
X0317846Y0156331D01*
X0317564Y0156314D01*
X0317282Y0156303D01*
X0317000Y0156300D01*
X0316718Y0156303D01*
X0316436Y0156314D01*
X0316154Y0156331D01*
X0315873Y0156355D01*
X0315592Y0156386D01*
X0315313Y0156424D01*
X0315034Y0156469D01*
X0314756Y0156521D01*
X0314480Y0156579D01*
X0314206Y0156645D01*
X0313933Y0156717D01*
X0313662Y0156795D01*
X0313393Y0156880D01*
X0313126Y0156972D01*
X0312861Y0157071D01*
X0312599Y0157175D01*
X0312340Y0157287D01*
X0312083Y0157404D01*
X0311829Y0157528D01*
X0311579Y0157658D01*
X0311332Y0157794D01*
X0311088Y0157936D01*
X0310848Y0158084D01*
X0310611Y0158238D01*
X0310378Y0158398D01*
X0310149Y0158563D01*
X0309925Y0158734D01*
X0309704Y0158910D01*
X0309489Y0159092D01*
X0309277Y0159279D01*
X0309070Y0159471D01*
X0308868Y0159668D01*
X0308671Y0159870D01*
X0308479Y0160077D01*
X0308292Y0160289D01*
X0308110Y0160504D01*
X0307934Y0160725D01*
X0307763Y0160949D01*
X0307598Y0161178D01*
X0307438Y0161411D01*
X0307284Y0161648D01*
X0307136Y0161888D01*
X0306994Y0162132D01*
X0306858Y0162379D01*
X0306728Y0162629D01*
X0306604Y0162883D01*
X0306487Y0163140D01*
X0306375Y0163399D01*
X0306271Y0163661D01*
X0306172Y0163926D01*
X0306080Y0164193D01*
X0305995Y0164462D01*
X0305917Y0164733D01*
X0305845Y0165006D01*
X0305779Y0165280D01*
X0305721Y0165556D01*
X0305669Y0165834D01*
X0305624Y0166113D01*
X0305586Y0166392D01*
X0305555Y0166673D01*
X0305531Y0166954D01*
X0305514Y0167236D01*
X0305503Y0167518D01*
X0305500Y0167800D01*
X0296500Y0188300D02*
X0294500Y0188300D01*
X0296500Y0188300D02*
X0296500Y0190300D01*
X0296500Y0196300D02*
X0296500Y0198300D01*
X0294500Y0198300D01*
X0288500Y0198300D02*
X0286500Y0198300D01*
X0286500Y0196300D01*
X0286500Y0190300D02*
X0286500Y0188300D01*
X0288500Y0188300D01*
X0211500Y0187800D02*
X0211500Y0185800D01*
X0209500Y0185800D01*
X0203500Y0185800D02*
X0201500Y0185800D01*
X0201500Y0187800D01*
X0201500Y0193800D02*
X0201500Y0195800D01*
X0203500Y0195800D01*
X0209500Y0195800D02*
X0211500Y0195800D01*
X0211500Y0193800D01*
X0133000Y0190800D02*
X0133000Y0185800D01*
X0130500Y0183300D01*
X0125500Y0183300D01*
X0123000Y0185800D01*
X0123000Y0190800D01*
X0125500Y0193300D01*
X0130500Y0193300D01*
X0133000Y0190800D01*
X0119000Y0191300D02*
X0119000Y0193300D01*
X0117000Y0193300D01*
X0111000Y0193300D02*
X0109000Y0193300D01*
X0109000Y0191300D01*
X0109000Y0185300D02*
X0109000Y0183300D01*
X0111000Y0183300D01*
X0117000Y0183300D02*
X0119000Y0183300D01*
X0119000Y0185300D01*
X0055430Y0150476D02*
X0055430Y0149408D01*
X0057565Y0147273D01*
X0059700Y0147273D02*
X0055430Y0147273D01*
X0056497Y0145098D02*
X0055430Y0144030D01*
X0055430Y0141895D01*
X0057565Y0141895D02*
X0058632Y0140827D01*
X0059700Y0141895D01*
X0059700Y0145098D01*
X0056497Y0145098D01*
X0057565Y0145098D02*
X0057565Y0141895D01*
X0059700Y0138666D02*
X0058632Y0137598D01*
X0054362Y0137598D01*
X0055430Y0136530D02*
X0055430Y0138666D01*
X0049200Y0137585D02*
X0042795Y0137585D01*
X0045997Y0134382D01*
X0045997Y0138652D01*
X0048132Y0140827D02*
X0049200Y0140827D01*
X0048132Y0140827D02*
X0043862Y0145098D01*
X0042795Y0145098D01*
X0042795Y0140827D01*
X0042795Y0147273D02*
X0042795Y0151543D01*
X0043862Y0151543D01*
X0048132Y0147273D01*
X0049200Y0147273D01*
X0055430Y0134355D02*
X0059700Y0134355D01*
X0059700Y0131153D01*
X0058632Y0130085D01*
X0055430Y0130085D01*
X0055430Y0127923D02*
X0055430Y0125788D01*
X0054362Y0126856D02*
X0058632Y0126856D01*
X0059700Y0127923D01*
X0059700Y0123626D02*
X0059700Y0121491D01*
X0059700Y0122559D02*
X0055430Y0122559D01*
X0055430Y0121491D01*
X0055430Y0119316D02*
X0059700Y0119316D01*
X0059700Y0116113D01*
X0058632Y0115045D01*
X0055430Y0115045D01*
X0056497Y0112870D02*
X0056497Y0110735D01*
X0056497Y0112870D02*
X0058632Y0112870D01*
X0059700Y0111803D01*
X0059700Y0109668D01*
X0058632Y0108600D01*
X0054362Y0108600D01*
X0053295Y0109668D01*
X0053295Y0111803D01*
X0054362Y0112870D01*
X0049200Y0112870D02*
X0049200Y0108600D01*
X0042795Y0108600D01*
X0042795Y0112870D01*
X0043862Y0115045D02*
X0048132Y0115045D01*
X0049200Y0116113D01*
X0049200Y0118248D01*
X0048132Y0119316D01*
X0049200Y0121491D02*
X0049200Y0125761D01*
X0045997Y0123626D02*
X0045997Y0121491D01*
X0043862Y0119316D02*
X0042795Y0118248D01*
X0042795Y0116113D01*
X0043862Y0115045D01*
X0045997Y0110735D02*
X0045997Y0108600D01*
X0042795Y0121491D02*
X0049200Y0121491D01*
X0052227Y0122559D02*
X0053295Y0122559D01*
X0042795Y0121491D02*
X0042795Y0125761D01*
X0042795Y0160164D02*
X0042795Y0164434D01*
X0042795Y0162299D02*
X0049200Y0162299D01*
X0048132Y0166609D02*
X0045997Y0166609D01*
X0044930Y0167677D01*
X0044930Y0169812D01*
X0045997Y0170880D01*
X0047065Y0170880D01*
X0047065Y0166609D01*
X0048132Y0166609D02*
X0049200Y0167677D01*
X0049200Y0169812D01*
X0048132Y0173055D02*
X0047065Y0174123D01*
X0047065Y0177325D01*
X0045997Y0177325D02*
X0049200Y0177325D01*
X0049200Y0174123D01*
X0048132Y0173055D01*
X0044930Y0174123D02*
X0044930Y0176258D01*
X0045997Y0177325D01*
X0044930Y0179500D02*
X0044930Y0180568D01*
X0045997Y0181636D01*
X0044930Y0182703D01*
X0045997Y0183771D01*
X0049200Y0183771D01*
X0049200Y0181636D02*
X0045997Y0181636D01*
X0044930Y0179500D02*
X0049200Y0179500D01*
X0049200Y0192391D02*
X0049200Y0196662D01*
X0049200Y0194527D02*
X0042795Y0194527D01*
X0044930Y0192391D01*
X0043862Y0198837D02*
X0042795Y0199905D01*
X0042795Y0202040D01*
X0043862Y0203107D01*
X0044930Y0203107D01*
X0049200Y0198837D01*
X0049200Y0203107D01*
X0024000Y0193300D02*
X0024000Y0191300D01*
X0024000Y0193300D02*
X0022000Y0193300D01*
X0016000Y0193300D02*
X0014000Y0193300D01*
X0014000Y0191300D01*
X0014000Y0185300D02*
X0014000Y0183300D01*
X0016000Y0183300D01*
X0022000Y0183300D02*
X0024000Y0183300D01*
X0024000Y0185300D01*
X0019000Y0085800D02*
X0004000Y0085800D01*
X0003940Y0085798D01*
X0003879Y0085793D01*
X0003820Y0085784D01*
X0003761Y0085771D01*
X0003702Y0085755D01*
X0003645Y0085735D01*
X0003590Y0085712D01*
X0003535Y0085685D01*
X0003483Y0085656D01*
X0003432Y0085623D01*
X0003383Y0085587D01*
X0003337Y0085549D01*
X0003293Y0085507D01*
X0003251Y0085463D01*
X0003213Y0085417D01*
X0003177Y0085368D01*
X0003144Y0085317D01*
X0003115Y0085265D01*
X0003088Y0085210D01*
X0003065Y0085155D01*
X0003045Y0085098D01*
X0003029Y0085039D01*
X0003016Y0084980D01*
X0003007Y0084921D01*
X0003002Y0084860D01*
X0003000Y0084800D01*
X0003000Y0074800D01*
X0003002Y0074740D01*
X0003007Y0074679D01*
X0003016Y0074620D01*
X0003029Y0074561D01*
X0003045Y0074502D01*
X0003065Y0074445D01*
X0003088Y0074390D01*
X0003115Y0074335D01*
X0003144Y0074283D01*
X0003177Y0074232D01*
X0003213Y0074183D01*
X0003251Y0074137D01*
X0003293Y0074093D01*
X0003337Y0074051D01*
X0003383Y0074013D01*
X0003432Y0073977D01*
X0003483Y0073944D01*
X0003535Y0073915D01*
X0003590Y0073888D01*
X0003645Y0073865D01*
X0003702Y0073845D01*
X0003761Y0073829D01*
X0003820Y0073816D01*
X0003879Y0073807D01*
X0003940Y0073802D01*
X0004000Y0073800D01*
X0019000Y0073800D01*
X0019060Y0073802D01*
X0019121Y0073807D01*
X0019180Y0073816D01*
X0019239Y0073829D01*
X0019298Y0073845D01*
X0019355Y0073865D01*
X0019410Y0073888D01*
X0019465Y0073915D01*
X0019517Y0073944D01*
X0019568Y0073977D01*
X0019617Y0074013D01*
X0019663Y0074051D01*
X0019707Y0074093D01*
X0019749Y0074137D01*
X0019787Y0074183D01*
X0019823Y0074232D01*
X0019856Y0074283D01*
X0019885Y0074335D01*
X0019912Y0074390D01*
X0019935Y0074445D01*
X0019955Y0074502D01*
X0019971Y0074561D01*
X0019984Y0074620D01*
X0019993Y0074679D01*
X0019998Y0074740D01*
X0020000Y0074800D01*
X0020000Y0084800D01*
X0019998Y0084860D01*
X0019993Y0084921D01*
X0019984Y0084980D01*
X0019971Y0085039D01*
X0019955Y0085098D01*
X0019935Y0085155D01*
X0019912Y0085210D01*
X0019885Y0085265D01*
X0019856Y0085317D01*
X0019823Y0085368D01*
X0019787Y0085417D01*
X0019749Y0085463D01*
X0019707Y0085507D01*
X0019663Y0085549D01*
X0019617Y0085587D01*
X0019568Y0085623D01*
X0019517Y0085656D01*
X0019465Y0085685D01*
X0019410Y0085712D01*
X0019355Y0085735D01*
X0019298Y0085755D01*
X0019239Y0085771D01*
X0019180Y0085784D01*
X0019121Y0085793D01*
X0019060Y0085798D01*
X0019000Y0085800D01*
X0030297Y0079795D02*
X0030297Y0062706D01*
X0031800Y0066500D02*
X0031802Y0066584D01*
X0031808Y0066669D01*
X0031818Y0066752D01*
X0031832Y0066836D01*
X0031849Y0066918D01*
X0031871Y0067000D01*
X0031896Y0067080D01*
X0031925Y0067159D01*
X0031958Y0067237D01*
X0031994Y0067313D01*
X0032034Y0067388D01*
X0032078Y0067460D01*
X0032124Y0067531D01*
X0032174Y0067599D01*
X0032227Y0067664D01*
X0032283Y0067727D01*
X0032342Y0067788D01*
X0032404Y0067845D01*
X0032468Y0067900D01*
X0032535Y0067951D01*
X0032604Y0068000D01*
X0032676Y0068045D01*
X0032749Y0068086D01*
X0032824Y0068124D01*
X0032901Y0068159D01*
X0032980Y0068190D01*
X0033060Y0068217D01*
X0033141Y0068240D01*
X0033223Y0068260D01*
X0033306Y0068276D01*
X0033389Y0068288D01*
X0033474Y0068296D01*
X0033558Y0068300D01*
X0033642Y0068300D01*
X0033726Y0068296D01*
X0033811Y0068288D01*
X0033894Y0068276D01*
X0033977Y0068260D01*
X0034059Y0068240D01*
X0034140Y0068217D01*
X0034220Y0068190D01*
X0034299Y0068159D01*
X0034376Y0068124D01*
X0034451Y0068086D01*
X0034524Y0068045D01*
X0034596Y0068000D01*
X0034665Y0067951D01*
X0034732Y0067900D01*
X0034796Y0067845D01*
X0034858Y0067788D01*
X0034917Y0067727D01*
X0034973Y0067664D01*
X0035026Y0067599D01*
X0035076Y0067531D01*
X0035122Y0067460D01*
X0035166Y0067388D01*
X0035206Y0067313D01*
X0035242Y0067237D01*
X0035275Y0067159D01*
X0035304Y0067080D01*
X0035329Y0067000D01*
X0035351Y0066918D01*
X0035368Y0066836D01*
X0035382Y0066752D01*
X0035392Y0066669D01*
X0035398Y0066584D01*
X0035400Y0066500D01*
X0035398Y0066416D01*
X0035392Y0066331D01*
X0035382Y0066248D01*
X0035368Y0066164D01*
X0035351Y0066082D01*
X0035329Y0066000D01*
X0035304Y0065920D01*
X0035275Y0065841D01*
X0035242Y0065763D01*
X0035206Y0065687D01*
X0035166Y0065612D01*
X0035122Y0065540D01*
X0035076Y0065469D01*
X0035026Y0065401D01*
X0034973Y0065336D01*
X0034917Y0065273D01*
X0034858Y0065212D01*
X0034796Y0065155D01*
X0034732Y0065100D01*
X0034665Y0065049D01*
X0034596Y0065000D01*
X0034524Y0064955D01*
X0034451Y0064914D01*
X0034376Y0064876D01*
X0034299Y0064841D01*
X0034220Y0064810D01*
X0034140Y0064783D01*
X0034059Y0064760D01*
X0033977Y0064740D01*
X0033894Y0064724D01*
X0033811Y0064712D01*
X0033726Y0064704D01*
X0033642Y0064700D01*
X0033558Y0064700D01*
X0033474Y0064704D01*
X0033389Y0064712D01*
X0033306Y0064724D01*
X0033223Y0064740D01*
X0033141Y0064760D01*
X0033060Y0064783D01*
X0032980Y0064810D01*
X0032901Y0064841D01*
X0032824Y0064876D01*
X0032749Y0064914D01*
X0032676Y0064955D01*
X0032604Y0065000D01*
X0032535Y0065049D01*
X0032468Y0065100D01*
X0032404Y0065155D01*
X0032342Y0065212D01*
X0032283Y0065273D01*
X0032227Y0065336D01*
X0032174Y0065401D01*
X0032124Y0065469D01*
X0032078Y0065540D01*
X0032034Y0065612D01*
X0031994Y0065687D01*
X0031958Y0065763D01*
X0031925Y0065841D01*
X0031896Y0065920D01*
X0031871Y0066000D01*
X0031849Y0066082D01*
X0031832Y0066164D01*
X0031818Y0066248D01*
X0031808Y0066331D01*
X0031802Y0066416D01*
X0031800Y0066500D01*
X0049802Y0062706D02*
X0049802Y0079795D01*
X0100297Y0048795D02*
X0100297Y0031706D01*
X0101800Y0035500D02*
X0101802Y0035584D01*
X0101808Y0035669D01*
X0101818Y0035752D01*
X0101832Y0035836D01*
X0101849Y0035918D01*
X0101871Y0036000D01*
X0101896Y0036080D01*
X0101925Y0036159D01*
X0101958Y0036237D01*
X0101994Y0036313D01*
X0102034Y0036388D01*
X0102078Y0036460D01*
X0102124Y0036531D01*
X0102174Y0036599D01*
X0102227Y0036664D01*
X0102283Y0036727D01*
X0102342Y0036788D01*
X0102404Y0036845D01*
X0102468Y0036900D01*
X0102535Y0036951D01*
X0102604Y0037000D01*
X0102676Y0037045D01*
X0102749Y0037086D01*
X0102824Y0037124D01*
X0102901Y0037159D01*
X0102980Y0037190D01*
X0103060Y0037217D01*
X0103141Y0037240D01*
X0103223Y0037260D01*
X0103306Y0037276D01*
X0103389Y0037288D01*
X0103474Y0037296D01*
X0103558Y0037300D01*
X0103642Y0037300D01*
X0103726Y0037296D01*
X0103811Y0037288D01*
X0103894Y0037276D01*
X0103977Y0037260D01*
X0104059Y0037240D01*
X0104140Y0037217D01*
X0104220Y0037190D01*
X0104299Y0037159D01*
X0104376Y0037124D01*
X0104451Y0037086D01*
X0104524Y0037045D01*
X0104596Y0037000D01*
X0104665Y0036951D01*
X0104732Y0036900D01*
X0104796Y0036845D01*
X0104858Y0036788D01*
X0104917Y0036727D01*
X0104973Y0036664D01*
X0105026Y0036599D01*
X0105076Y0036531D01*
X0105122Y0036460D01*
X0105166Y0036388D01*
X0105206Y0036313D01*
X0105242Y0036237D01*
X0105275Y0036159D01*
X0105304Y0036080D01*
X0105329Y0036000D01*
X0105351Y0035918D01*
X0105368Y0035836D01*
X0105382Y0035752D01*
X0105392Y0035669D01*
X0105398Y0035584D01*
X0105400Y0035500D01*
X0105398Y0035416D01*
X0105392Y0035331D01*
X0105382Y0035248D01*
X0105368Y0035164D01*
X0105351Y0035082D01*
X0105329Y0035000D01*
X0105304Y0034920D01*
X0105275Y0034841D01*
X0105242Y0034763D01*
X0105206Y0034687D01*
X0105166Y0034612D01*
X0105122Y0034540D01*
X0105076Y0034469D01*
X0105026Y0034401D01*
X0104973Y0034336D01*
X0104917Y0034273D01*
X0104858Y0034212D01*
X0104796Y0034155D01*
X0104732Y0034100D01*
X0104665Y0034049D01*
X0104596Y0034000D01*
X0104524Y0033955D01*
X0104451Y0033914D01*
X0104376Y0033876D01*
X0104299Y0033841D01*
X0104220Y0033810D01*
X0104140Y0033783D01*
X0104059Y0033760D01*
X0103977Y0033740D01*
X0103894Y0033724D01*
X0103811Y0033712D01*
X0103726Y0033704D01*
X0103642Y0033700D01*
X0103558Y0033700D01*
X0103474Y0033704D01*
X0103389Y0033712D01*
X0103306Y0033724D01*
X0103223Y0033740D01*
X0103141Y0033760D01*
X0103060Y0033783D01*
X0102980Y0033810D01*
X0102901Y0033841D01*
X0102824Y0033876D01*
X0102749Y0033914D01*
X0102676Y0033955D01*
X0102604Y0034000D01*
X0102535Y0034049D01*
X0102468Y0034100D01*
X0102404Y0034155D01*
X0102342Y0034212D01*
X0102283Y0034273D01*
X0102227Y0034336D01*
X0102174Y0034401D01*
X0102124Y0034469D01*
X0102078Y0034540D01*
X0102034Y0034612D01*
X0101994Y0034687D01*
X0101958Y0034763D01*
X0101925Y0034841D01*
X0101896Y0034920D01*
X0101871Y0035000D01*
X0101849Y0035082D01*
X0101832Y0035164D01*
X0101818Y0035248D01*
X0101808Y0035331D01*
X0101802Y0035416D01*
X0101800Y0035500D01*
X0119802Y0031706D02*
X0119802Y0048795D01*
X0199297Y0052295D02*
X0199297Y0035206D01*
X0200800Y0039000D02*
X0200802Y0039084D01*
X0200808Y0039169D01*
X0200818Y0039252D01*
X0200832Y0039336D01*
X0200849Y0039418D01*
X0200871Y0039500D01*
X0200896Y0039580D01*
X0200925Y0039659D01*
X0200958Y0039737D01*
X0200994Y0039813D01*
X0201034Y0039888D01*
X0201078Y0039960D01*
X0201124Y0040031D01*
X0201174Y0040099D01*
X0201227Y0040164D01*
X0201283Y0040227D01*
X0201342Y0040288D01*
X0201404Y0040345D01*
X0201468Y0040400D01*
X0201535Y0040451D01*
X0201604Y0040500D01*
X0201676Y0040545D01*
X0201749Y0040586D01*
X0201824Y0040624D01*
X0201901Y0040659D01*
X0201980Y0040690D01*
X0202060Y0040717D01*
X0202141Y0040740D01*
X0202223Y0040760D01*
X0202306Y0040776D01*
X0202389Y0040788D01*
X0202474Y0040796D01*
X0202558Y0040800D01*
X0202642Y0040800D01*
X0202726Y0040796D01*
X0202811Y0040788D01*
X0202894Y0040776D01*
X0202977Y0040760D01*
X0203059Y0040740D01*
X0203140Y0040717D01*
X0203220Y0040690D01*
X0203299Y0040659D01*
X0203376Y0040624D01*
X0203451Y0040586D01*
X0203524Y0040545D01*
X0203596Y0040500D01*
X0203665Y0040451D01*
X0203732Y0040400D01*
X0203796Y0040345D01*
X0203858Y0040288D01*
X0203917Y0040227D01*
X0203973Y0040164D01*
X0204026Y0040099D01*
X0204076Y0040031D01*
X0204122Y0039960D01*
X0204166Y0039888D01*
X0204206Y0039813D01*
X0204242Y0039737D01*
X0204275Y0039659D01*
X0204304Y0039580D01*
X0204329Y0039500D01*
X0204351Y0039418D01*
X0204368Y0039336D01*
X0204382Y0039252D01*
X0204392Y0039169D01*
X0204398Y0039084D01*
X0204400Y0039000D01*
X0204398Y0038916D01*
X0204392Y0038831D01*
X0204382Y0038748D01*
X0204368Y0038664D01*
X0204351Y0038582D01*
X0204329Y0038500D01*
X0204304Y0038420D01*
X0204275Y0038341D01*
X0204242Y0038263D01*
X0204206Y0038187D01*
X0204166Y0038112D01*
X0204122Y0038040D01*
X0204076Y0037969D01*
X0204026Y0037901D01*
X0203973Y0037836D01*
X0203917Y0037773D01*
X0203858Y0037712D01*
X0203796Y0037655D01*
X0203732Y0037600D01*
X0203665Y0037549D01*
X0203596Y0037500D01*
X0203524Y0037455D01*
X0203451Y0037414D01*
X0203376Y0037376D01*
X0203299Y0037341D01*
X0203220Y0037310D01*
X0203140Y0037283D01*
X0203059Y0037260D01*
X0202977Y0037240D01*
X0202894Y0037224D01*
X0202811Y0037212D01*
X0202726Y0037204D01*
X0202642Y0037200D01*
X0202558Y0037200D01*
X0202474Y0037204D01*
X0202389Y0037212D01*
X0202306Y0037224D01*
X0202223Y0037240D01*
X0202141Y0037260D01*
X0202060Y0037283D01*
X0201980Y0037310D01*
X0201901Y0037341D01*
X0201824Y0037376D01*
X0201749Y0037414D01*
X0201676Y0037455D01*
X0201604Y0037500D01*
X0201535Y0037549D01*
X0201468Y0037600D01*
X0201404Y0037655D01*
X0201342Y0037712D01*
X0201283Y0037773D01*
X0201227Y0037836D01*
X0201174Y0037901D01*
X0201124Y0037969D01*
X0201078Y0038040D01*
X0201034Y0038112D01*
X0200994Y0038187D01*
X0200958Y0038263D01*
X0200925Y0038341D01*
X0200896Y0038420D01*
X0200871Y0038500D01*
X0200849Y0038582D01*
X0200832Y0038664D01*
X0200818Y0038748D01*
X0200808Y0038831D01*
X0200802Y0038916D01*
X0200800Y0039000D01*
X0218802Y0035206D02*
X0218802Y0052295D01*
X0234500Y0067300D02*
X0234503Y0067582D01*
X0234514Y0067864D01*
X0234531Y0068146D01*
X0234555Y0068427D01*
X0234586Y0068708D01*
X0234624Y0068987D01*
X0234669Y0069266D01*
X0234721Y0069544D01*
X0234779Y0069820D01*
X0234845Y0070094D01*
X0234917Y0070367D01*
X0234995Y0070638D01*
X0235080Y0070907D01*
X0235172Y0071174D01*
X0235271Y0071439D01*
X0235375Y0071701D01*
X0235487Y0071960D01*
X0235604Y0072217D01*
X0235728Y0072471D01*
X0235858Y0072721D01*
X0235994Y0072968D01*
X0236136Y0073212D01*
X0236284Y0073452D01*
X0236438Y0073689D01*
X0236598Y0073922D01*
X0236763Y0074151D01*
X0236934Y0074375D01*
X0237110Y0074596D01*
X0237292Y0074811D01*
X0237479Y0075023D01*
X0237671Y0075230D01*
X0237868Y0075432D01*
X0238070Y0075629D01*
X0238277Y0075821D01*
X0238489Y0076008D01*
X0238704Y0076190D01*
X0238925Y0076366D01*
X0239149Y0076537D01*
X0239378Y0076702D01*
X0239611Y0076862D01*
X0239848Y0077016D01*
X0240088Y0077164D01*
X0240332Y0077306D01*
X0240579Y0077442D01*
X0240829Y0077572D01*
X0241083Y0077696D01*
X0241340Y0077813D01*
X0241599Y0077925D01*
X0241861Y0078029D01*
X0242126Y0078128D01*
X0242393Y0078220D01*
X0242662Y0078305D01*
X0242933Y0078383D01*
X0243206Y0078455D01*
X0243480Y0078521D01*
X0243756Y0078579D01*
X0244034Y0078631D01*
X0244313Y0078676D01*
X0244592Y0078714D01*
X0244873Y0078745D01*
X0245154Y0078769D01*
X0245436Y0078786D01*
X0245718Y0078797D01*
X0246000Y0078800D01*
X0246282Y0078797D01*
X0246564Y0078786D01*
X0246846Y0078769D01*
X0247127Y0078745D01*
X0247408Y0078714D01*
X0247687Y0078676D01*
X0247966Y0078631D01*
X0248244Y0078579D01*
X0248520Y0078521D01*
X0248794Y0078455D01*
X0249067Y0078383D01*
X0249338Y0078305D01*
X0249607Y0078220D01*
X0249874Y0078128D01*
X0250139Y0078029D01*
X0250401Y0077925D01*
X0250660Y0077813D01*
X0250917Y0077696D01*
X0251171Y0077572D01*
X0251421Y0077442D01*
X0251668Y0077306D01*
X0251912Y0077164D01*
X0252152Y0077016D01*
X0252389Y0076862D01*
X0252622Y0076702D01*
X0252851Y0076537D01*
X0253075Y0076366D01*
X0253296Y0076190D01*
X0253511Y0076008D01*
X0253723Y0075821D01*
X0253930Y0075629D01*
X0254132Y0075432D01*
X0254329Y0075230D01*
X0254521Y0075023D01*
X0254708Y0074811D01*
X0254890Y0074596D01*
X0255066Y0074375D01*
X0255237Y0074151D01*
X0255402Y0073922D01*
X0255562Y0073689D01*
X0255716Y0073452D01*
X0255864Y0073212D01*
X0256006Y0072968D01*
X0256142Y0072721D01*
X0256272Y0072471D01*
X0256396Y0072217D01*
X0256513Y0071960D01*
X0256625Y0071701D01*
X0256729Y0071439D01*
X0256828Y0071174D01*
X0256920Y0070907D01*
X0257005Y0070638D01*
X0257083Y0070367D01*
X0257155Y0070094D01*
X0257221Y0069820D01*
X0257279Y0069544D01*
X0257331Y0069266D01*
X0257376Y0068987D01*
X0257414Y0068708D01*
X0257445Y0068427D01*
X0257469Y0068146D01*
X0257486Y0067864D01*
X0257497Y0067582D01*
X0257500Y0067300D01*
X0257497Y0067018D01*
X0257486Y0066736D01*
X0257469Y0066454D01*
X0257445Y0066173D01*
X0257414Y0065892D01*
X0257376Y0065613D01*
X0257331Y0065334D01*
X0257279Y0065056D01*
X0257221Y0064780D01*
X0257155Y0064506D01*
X0257083Y0064233D01*
X0257005Y0063962D01*
X0256920Y0063693D01*
X0256828Y0063426D01*
X0256729Y0063161D01*
X0256625Y0062899D01*
X0256513Y0062640D01*
X0256396Y0062383D01*
X0256272Y0062129D01*
X0256142Y0061879D01*
X0256006Y0061632D01*
X0255864Y0061388D01*
X0255716Y0061148D01*
X0255562Y0060911D01*
X0255402Y0060678D01*
X0255237Y0060449D01*
X0255066Y0060225D01*
X0254890Y0060004D01*
X0254708Y0059789D01*
X0254521Y0059577D01*
X0254329Y0059370D01*
X0254132Y0059168D01*
X0253930Y0058971D01*
X0253723Y0058779D01*
X0253511Y0058592D01*
X0253296Y0058410D01*
X0253075Y0058234D01*
X0252851Y0058063D01*
X0252622Y0057898D01*
X0252389Y0057738D01*
X0252152Y0057584D01*
X0251912Y0057436D01*
X0251668Y0057294D01*
X0251421Y0057158D01*
X0251171Y0057028D01*
X0250917Y0056904D01*
X0250660Y0056787D01*
X0250401Y0056675D01*
X0250139Y0056571D01*
X0249874Y0056472D01*
X0249607Y0056380D01*
X0249338Y0056295D01*
X0249067Y0056217D01*
X0248794Y0056145D01*
X0248520Y0056079D01*
X0248244Y0056021D01*
X0247966Y0055969D01*
X0247687Y0055924D01*
X0247408Y0055886D01*
X0247127Y0055855D01*
X0246846Y0055831D01*
X0246564Y0055814D01*
X0246282Y0055803D01*
X0246000Y0055800D01*
X0245718Y0055803D01*
X0245436Y0055814D01*
X0245154Y0055831D01*
X0244873Y0055855D01*
X0244592Y0055886D01*
X0244313Y0055924D01*
X0244034Y0055969D01*
X0243756Y0056021D01*
X0243480Y0056079D01*
X0243206Y0056145D01*
X0242933Y0056217D01*
X0242662Y0056295D01*
X0242393Y0056380D01*
X0242126Y0056472D01*
X0241861Y0056571D01*
X0241599Y0056675D01*
X0241340Y0056787D01*
X0241083Y0056904D01*
X0240829Y0057028D01*
X0240579Y0057158D01*
X0240332Y0057294D01*
X0240088Y0057436D01*
X0239848Y0057584D01*
X0239611Y0057738D01*
X0239378Y0057898D01*
X0239149Y0058063D01*
X0238925Y0058234D01*
X0238704Y0058410D01*
X0238489Y0058592D01*
X0238277Y0058779D01*
X0238070Y0058971D01*
X0237868Y0059168D01*
X0237671Y0059370D01*
X0237479Y0059577D01*
X0237292Y0059789D01*
X0237110Y0060004D01*
X0236934Y0060225D01*
X0236763Y0060449D01*
X0236598Y0060678D01*
X0236438Y0060911D01*
X0236284Y0061148D01*
X0236136Y0061388D01*
X0235994Y0061632D01*
X0235858Y0061879D01*
X0235728Y0062129D01*
X0235604Y0062383D01*
X0235487Y0062640D01*
X0235375Y0062899D01*
X0235271Y0063161D01*
X0235172Y0063426D01*
X0235080Y0063693D01*
X0234995Y0063962D01*
X0234917Y0064233D01*
X0234845Y0064506D01*
X0234779Y0064780D01*
X0234721Y0065056D01*
X0234669Y0065334D01*
X0234624Y0065613D01*
X0234586Y0065892D01*
X0234555Y0066173D01*
X0234531Y0066454D01*
X0234514Y0066736D01*
X0234503Y0067018D01*
X0234500Y0067300D01*
X0287797Y0061795D02*
X0287797Y0044706D01*
X0289300Y0048500D02*
X0289302Y0048584D01*
X0289308Y0048669D01*
X0289318Y0048752D01*
X0289332Y0048836D01*
X0289349Y0048918D01*
X0289371Y0049000D01*
X0289396Y0049080D01*
X0289425Y0049159D01*
X0289458Y0049237D01*
X0289494Y0049313D01*
X0289534Y0049388D01*
X0289578Y0049460D01*
X0289624Y0049531D01*
X0289674Y0049599D01*
X0289727Y0049664D01*
X0289783Y0049727D01*
X0289842Y0049788D01*
X0289904Y0049845D01*
X0289968Y0049900D01*
X0290035Y0049951D01*
X0290104Y0050000D01*
X0290176Y0050045D01*
X0290249Y0050086D01*
X0290324Y0050124D01*
X0290401Y0050159D01*
X0290480Y0050190D01*
X0290560Y0050217D01*
X0290641Y0050240D01*
X0290723Y0050260D01*
X0290806Y0050276D01*
X0290889Y0050288D01*
X0290974Y0050296D01*
X0291058Y0050300D01*
X0291142Y0050300D01*
X0291226Y0050296D01*
X0291311Y0050288D01*
X0291394Y0050276D01*
X0291477Y0050260D01*
X0291559Y0050240D01*
X0291640Y0050217D01*
X0291720Y0050190D01*
X0291799Y0050159D01*
X0291876Y0050124D01*
X0291951Y0050086D01*
X0292024Y0050045D01*
X0292096Y0050000D01*
X0292165Y0049951D01*
X0292232Y0049900D01*
X0292296Y0049845D01*
X0292358Y0049788D01*
X0292417Y0049727D01*
X0292473Y0049664D01*
X0292526Y0049599D01*
X0292576Y0049531D01*
X0292622Y0049460D01*
X0292666Y0049388D01*
X0292706Y0049313D01*
X0292742Y0049237D01*
X0292775Y0049159D01*
X0292804Y0049080D01*
X0292829Y0049000D01*
X0292851Y0048918D01*
X0292868Y0048836D01*
X0292882Y0048752D01*
X0292892Y0048669D01*
X0292898Y0048584D01*
X0292900Y0048500D01*
X0292898Y0048416D01*
X0292892Y0048331D01*
X0292882Y0048248D01*
X0292868Y0048164D01*
X0292851Y0048082D01*
X0292829Y0048000D01*
X0292804Y0047920D01*
X0292775Y0047841D01*
X0292742Y0047763D01*
X0292706Y0047687D01*
X0292666Y0047612D01*
X0292622Y0047540D01*
X0292576Y0047469D01*
X0292526Y0047401D01*
X0292473Y0047336D01*
X0292417Y0047273D01*
X0292358Y0047212D01*
X0292296Y0047155D01*
X0292232Y0047100D01*
X0292165Y0047049D01*
X0292096Y0047000D01*
X0292024Y0046955D01*
X0291951Y0046914D01*
X0291876Y0046876D01*
X0291799Y0046841D01*
X0291720Y0046810D01*
X0291640Y0046783D01*
X0291559Y0046760D01*
X0291477Y0046740D01*
X0291394Y0046724D01*
X0291311Y0046712D01*
X0291226Y0046704D01*
X0291142Y0046700D01*
X0291058Y0046700D01*
X0290974Y0046704D01*
X0290889Y0046712D01*
X0290806Y0046724D01*
X0290723Y0046740D01*
X0290641Y0046760D01*
X0290560Y0046783D01*
X0290480Y0046810D01*
X0290401Y0046841D01*
X0290324Y0046876D01*
X0290249Y0046914D01*
X0290176Y0046955D01*
X0290104Y0047000D01*
X0290035Y0047049D01*
X0289968Y0047100D01*
X0289904Y0047155D01*
X0289842Y0047212D01*
X0289783Y0047273D01*
X0289727Y0047336D01*
X0289674Y0047401D01*
X0289624Y0047469D01*
X0289578Y0047540D01*
X0289534Y0047612D01*
X0289494Y0047687D01*
X0289458Y0047763D01*
X0289425Y0047841D01*
X0289396Y0047920D01*
X0289371Y0048000D01*
X0289349Y0048082D01*
X0289332Y0048164D01*
X0289318Y0048248D01*
X0289308Y0048331D01*
X0289302Y0048416D01*
X0289300Y0048500D01*
X0307302Y0044706D02*
X0307302Y0061795D01*
X0377500Y0072800D02*
X0377500Y0082800D01*
X0377502Y0082860D01*
X0377507Y0082921D01*
X0377516Y0082980D01*
X0377529Y0083039D01*
X0377545Y0083098D01*
X0377565Y0083155D01*
X0377588Y0083210D01*
X0377615Y0083265D01*
X0377644Y0083317D01*
X0377677Y0083368D01*
X0377713Y0083417D01*
X0377751Y0083463D01*
X0377793Y0083507D01*
X0377837Y0083549D01*
X0377883Y0083587D01*
X0377932Y0083623D01*
X0377983Y0083656D01*
X0378035Y0083685D01*
X0378090Y0083712D01*
X0378145Y0083735D01*
X0378202Y0083755D01*
X0378261Y0083771D01*
X0378320Y0083784D01*
X0378379Y0083793D01*
X0378440Y0083798D01*
X0378500Y0083800D01*
X0393500Y0083800D01*
X0393560Y0083798D01*
X0393621Y0083793D01*
X0393680Y0083784D01*
X0393739Y0083771D01*
X0393798Y0083755D01*
X0393855Y0083735D01*
X0393910Y0083712D01*
X0393965Y0083685D01*
X0394017Y0083656D01*
X0394068Y0083623D01*
X0394117Y0083587D01*
X0394163Y0083549D01*
X0394207Y0083507D01*
X0394249Y0083463D01*
X0394287Y0083417D01*
X0394323Y0083368D01*
X0394356Y0083317D01*
X0394385Y0083265D01*
X0394412Y0083210D01*
X0394435Y0083155D01*
X0394455Y0083098D01*
X0394471Y0083039D01*
X0394484Y0082980D01*
X0394493Y0082921D01*
X0394498Y0082860D01*
X0394500Y0082800D01*
X0394500Y0072800D01*
X0394498Y0072740D01*
X0394493Y0072679D01*
X0394484Y0072620D01*
X0394471Y0072561D01*
X0394455Y0072502D01*
X0394435Y0072445D01*
X0394412Y0072390D01*
X0394385Y0072335D01*
X0394356Y0072283D01*
X0394323Y0072232D01*
X0394287Y0072183D01*
X0394249Y0072137D01*
X0394207Y0072093D01*
X0394163Y0072051D01*
X0394117Y0072013D01*
X0394068Y0071977D01*
X0394017Y0071944D01*
X0393965Y0071915D01*
X0393910Y0071888D01*
X0393855Y0071865D01*
X0393798Y0071845D01*
X0393739Y0071829D01*
X0393680Y0071816D01*
X0393621Y0071807D01*
X0393560Y0071802D01*
X0393500Y0071800D01*
X0378500Y0071800D01*
X0378440Y0071802D01*
X0378379Y0071807D01*
X0378320Y0071816D01*
X0378261Y0071829D01*
X0378202Y0071845D01*
X0378145Y0071865D01*
X0378090Y0071888D01*
X0378035Y0071915D01*
X0377983Y0071944D01*
X0377932Y0071977D01*
X0377883Y0072013D01*
X0377837Y0072051D01*
X0377793Y0072093D01*
X0377751Y0072137D01*
X0377713Y0072183D01*
X0377677Y0072232D01*
X0377644Y0072283D01*
X0377615Y0072335D01*
X0377588Y0072390D01*
X0377565Y0072445D01*
X0377545Y0072502D01*
X0377529Y0072561D01*
X0377516Y0072620D01*
X0377507Y0072679D01*
X0377502Y0072740D01*
X0377500Y0072800D01*
X0037500Y0021300D02*
X0037500Y0016300D01*
X0035000Y0013800D01*
X0030000Y0013800D01*
X0027500Y0016300D01*
X0027500Y0021300D01*
X0030000Y0023800D01*
X0035000Y0023800D01*
X0037500Y0021300D01*
D13*
X0054511Y0020959D02*
X0054511Y0018657D01*
X0059115Y0018657D01*
X0057580Y0018657D02*
X0057580Y0020959D01*
X0056813Y0021727D01*
X0055278Y0021727D01*
X0054511Y0020959D01*
X0057580Y0020192D02*
X0059115Y0021727D01*
X0056813Y0023261D02*
X0056813Y0026331D01*
X0059115Y0025563D02*
X0054511Y0025563D01*
X0056813Y0023261D01*
X0081696Y0022104D02*
X0086300Y0022104D01*
X0086300Y0025173D01*
X0086300Y0026708D02*
X0081696Y0026708D01*
X0081696Y0029010D01*
X0082463Y0029777D01*
X0085533Y0029777D01*
X0086300Y0029010D01*
X0086300Y0026708D01*
X0083998Y0023639D02*
X0083998Y0022104D01*
X0081696Y0022104D02*
X0081696Y0025173D01*
X0086300Y0020569D02*
X0086300Y0017500D01*
X0081696Y0017500D01*
X0089532Y0020135D02*
X0089455Y0020208D01*
X0089380Y0020283D01*
X0089309Y0020361D01*
X0089240Y0020442D01*
X0089174Y0020525D01*
X0089111Y0020610D01*
X0089052Y0020698D01*
X0088995Y0020787D01*
X0088942Y0020879D01*
X0088892Y0020973D01*
X0088846Y0021068D01*
X0088803Y0021165D01*
X0088764Y0021263D01*
X0088728Y0021363D01*
X0088696Y0021464D01*
X0088668Y0021566D01*
X0088643Y0021669D01*
X0088622Y0021773D01*
X0088605Y0021878D01*
X0088591Y0021983D01*
X0088582Y0022088D01*
X0088576Y0022194D01*
X0088574Y0022300D01*
X0088576Y0022406D01*
X0088582Y0022512D01*
X0088591Y0022617D01*
X0088605Y0022722D01*
X0088622Y0022827D01*
X0088643Y0022931D01*
X0088668Y0023034D01*
X0088696Y0023136D01*
X0088728Y0023237D01*
X0088764Y0023337D01*
X0088803Y0023435D01*
X0088846Y0023532D01*
X0088892Y0023627D01*
X0088942Y0023721D01*
X0088995Y0023813D01*
X0089052Y0023902D01*
X0089111Y0023990D01*
X0089174Y0024075D01*
X0089240Y0024158D01*
X0089309Y0024239D01*
X0089380Y0024317D01*
X0089455Y0024392D01*
X0089532Y0024465D01*
X0093468Y0024465D02*
X0093545Y0024392D01*
X0093620Y0024317D01*
X0093691Y0024239D01*
X0093760Y0024158D01*
X0093826Y0024075D01*
X0093889Y0023990D01*
X0093948Y0023902D01*
X0094005Y0023813D01*
X0094058Y0023721D01*
X0094108Y0023627D01*
X0094154Y0023532D01*
X0094197Y0023435D01*
X0094236Y0023337D01*
X0094272Y0023237D01*
X0094304Y0023136D01*
X0094332Y0023034D01*
X0094357Y0022931D01*
X0094378Y0022827D01*
X0094395Y0022722D01*
X0094409Y0022617D01*
X0094418Y0022512D01*
X0094424Y0022406D01*
X0094426Y0022300D01*
X0094424Y0022194D01*
X0094418Y0022088D01*
X0094409Y0021983D01*
X0094395Y0021878D01*
X0094378Y0021773D01*
X0094357Y0021669D01*
X0094332Y0021566D01*
X0094304Y0021464D01*
X0094272Y0021363D01*
X0094236Y0021263D01*
X0094197Y0021165D01*
X0094154Y0021068D01*
X0094108Y0020973D01*
X0094058Y0020879D01*
X0094005Y0020787D01*
X0093948Y0020698D01*
X0093889Y0020610D01*
X0093826Y0020525D01*
X0093760Y0020442D01*
X0093691Y0020361D01*
X0093620Y0020283D01*
X0093545Y0020208D01*
X0093468Y0020135D01*
X0086300Y0031312D02*
X0086300Y0034381D01*
X0086300Y0032846D02*
X0081696Y0032846D01*
X0083231Y0031312D01*
X0083998Y0035916D02*
X0083998Y0038985D01*
X0085533Y0040520D02*
X0082463Y0040520D01*
X0081696Y0041287D01*
X0081696Y0042822D01*
X0082463Y0043589D01*
X0085533Y0040520D01*
X0086300Y0041287D01*
X0086300Y0042822D01*
X0085533Y0043589D01*
X0082463Y0043589D01*
X0081696Y0038218D02*
X0083998Y0035916D01*
X0086300Y0038218D02*
X0081696Y0038218D01*
X0081696Y0052000D02*
X0086300Y0052000D01*
X0086300Y0055069D01*
X0086300Y0056604D02*
X0081696Y0056604D01*
X0081696Y0059673D01*
X0081696Y0061208D02*
X0081696Y0063510D01*
X0082463Y0064277D01*
X0085533Y0064277D01*
X0086300Y0063510D01*
X0086300Y0061208D01*
X0081696Y0061208D01*
X0083998Y0058139D02*
X0083998Y0056604D01*
X0086300Y0056604D02*
X0086300Y0059673D01*
X0089532Y0058965D02*
X0089455Y0058892D01*
X0089380Y0058817D01*
X0089309Y0058739D01*
X0089240Y0058658D01*
X0089174Y0058575D01*
X0089111Y0058490D01*
X0089052Y0058402D01*
X0088995Y0058313D01*
X0088942Y0058221D01*
X0088892Y0058127D01*
X0088846Y0058032D01*
X0088803Y0057935D01*
X0088764Y0057837D01*
X0088728Y0057737D01*
X0088696Y0057636D01*
X0088668Y0057534D01*
X0088643Y0057431D01*
X0088622Y0057327D01*
X0088605Y0057222D01*
X0088591Y0057117D01*
X0088582Y0057012D01*
X0088576Y0056906D01*
X0088574Y0056800D01*
X0088576Y0056694D01*
X0088582Y0056588D01*
X0088591Y0056483D01*
X0088605Y0056378D01*
X0088622Y0056273D01*
X0088643Y0056169D01*
X0088668Y0056066D01*
X0088696Y0055964D01*
X0088728Y0055863D01*
X0088764Y0055763D01*
X0088803Y0055665D01*
X0088846Y0055568D01*
X0088892Y0055473D01*
X0088942Y0055379D01*
X0088995Y0055287D01*
X0089052Y0055198D01*
X0089111Y0055110D01*
X0089174Y0055025D01*
X0089240Y0054942D01*
X0089309Y0054861D01*
X0089380Y0054783D01*
X0089455Y0054708D01*
X0089532Y0054635D01*
X0093468Y0054635D02*
X0093545Y0054708D01*
X0093620Y0054783D01*
X0093691Y0054861D01*
X0093760Y0054942D01*
X0093826Y0055025D01*
X0093889Y0055110D01*
X0093948Y0055198D01*
X0094005Y0055287D01*
X0094058Y0055379D01*
X0094108Y0055473D01*
X0094154Y0055568D01*
X0094197Y0055665D01*
X0094236Y0055763D01*
X0094272Y0055863D01*
X0094304Y0055964D01*
X0094332Y0056066D01*
X0094357Y0056169D01*
X0094378Y0056273D01*
X0094395Y0056378D01*
X0094409Y0056483D01*
X0094418Y0056588D01*
X0094424Y0056694D01*
X0094426Y0056800D01*
X0094424Y0056906D01*
X0094418Y0057012D01*
X0094409Y0057117D01*
X0094395Y0057222D01*
X0094378Y0057327D01*
X0094357Y0057431D01*
X0094332Y0057534D01*
X0094304Y0057636D01*
X0094272Y0057737D01*
X0094236Y0057837D01*
X0094197Y0057935D01*
X0094154Y0058032D01*
X0094108Y0058127D01*
X0094058Y0058221D01*
X0094005Y0058313D01*
X0093948Y0058402D01*
X0093889Y0058490D01*
X0093826Y0058575D01*
X0093760Y0058658D01*
X0093691Y0058739D01*
X0093620Y0058817D01*
X0093545Y0058892D01*
X0093468Y0058965D01*
X0086300Y0065812D02*
X0086300Y0068881D01*
X0086300Y0067346D02*
X0081696Y0067346D01*
X0083231Y0065812D01*
X0083998Y0070416D02*
X0083998Y0073485D01*
X0083231Y0075020D02*
X0081696Y0076554D01*
X0086300Y0076554D01*
X0086300Y0075020D02*
X0086300Y0078089D01*
X0086300Y0072718D02*
X0081696Y0072718D01*
X0083998Y0070416D01*
X0081696Y0084000D02*
X0086300Y0084000D01*
X0086300Y0087069D01*
X0086300Y0088604D02*
X0081696Y0088604D01*
X0081696Y0091673D01*
X0081696Y0093208D02*
X0081696Y0095510D01*
X0082463Y0096277D01*
X0085533Y0096277D01*
X0086300Y0095510D01*
X0086300Y0093208D01*
X0081696Y0093208D01*
X0083998Y0090139D02*
X0083998Y0088604D01*
X0086300Y0088604D02*
X0086300Y0091673D01*
X0089532Y0090965D02*
X0089455Y0090892D01*
X0089380Y0090817D01*
X0089309Y0090739D01*
X0089240Y0090658D01*
X0089174Y0090575D01*
X0089111Y0090490D01*
X0089052Y0090402D01*
X0088995Y0090313D01*
X0088942Y0090221D01*
X0088892Y0090127D01*
X0088846Y0090032D01*
X0088803Y0089935D01*
X0088764Y0089837D01*
X0088728Y0089737D01*
X0088696Y0089636D01*
X0088668Y0089534D01*
X0088643Y0089431D01*
X0088622Y0089327D01*
X0088605Y0089222D01*
X0088591Y0089117D01*
X0088582Y0089012D01*
X0088576Y0088906D01*
X0088574Y0088800D01*
X0088576Y0088694D01*
X0088582Y0088588D01*
X0088591Y0088483D01*
X0088605Y0088378D01*
X0088622Y0088273D01*
X0088643Y0088169D01*
X0088668Y0088066D01*
X0088696Y0087964D01*
X0088728Y0087863D01*
X0088764Y0087763D01*
X0088803Y0087665D01*
X0088846Y0087568D01*
X0088892Y0087473D01*
X0088942Y0087379D01*
X0088995Y0087287D01*
X0089052Y0087198D01*
X0089111Y0087110D01*
X0089174Y0087025D01*
X0089240Y0086942D01*
X0089309Y0086861D01*
X0089380Y0086783D01*
X0089455Y0086708D01*
X0089532Y0086635D01*
X0093468Y0086635D02*
X0093545Y0086708D01*
X0093620Y0086783D01*
X0093691Y0086861D01*
X0093760Y0086942D01*
X0093826Y0087025D01*
X0093889Y0087110D01*
X0093948Y0087198D01*
X0094005Y0087287D01*
X0094058Y0087379D01*
X0094108Y0087473D01*
X0094154Y0087568D01*
X0094197Y0087665D01*
X0094236Y0087763D01*
X0094272Y0087863D01*
X0094304Y0087964D01*
X0094332Y0088066D01*
X0094357Y0088169D01*
X0094378Y0088273D01*
X0094395Y0088378D01*
X0094409Y0088483D01*
X0094418Y0088588D01*
X0094424Y0088694D01*
X0094426Y0088800D01*
X0094424Y0088906D01*
X0094418Y0089012D01*
X0094409Y0089117D01*
X0094395Y0089222D01*
X0094378Y0089327D01*
X0094357Y0089431D01*
X0094332Y0089534D01*
X0094304Y0089636D01*
X0094272Y0089737D01*
X0094236Y0089837D01*
X0094197Y0089935D01*
X0094154Y0090032D01*
X0094108Y0090127D01*
X0094058Y0090221D01*
X0094005Y0090313D01*
X0093948Y0090402D01*
X0093889Y0090490D01*
X0093826Y0090575D01*
X0093760Y0090658D01*
X0093691Y0090739D01*
X0093620Y0090817D01*
X0093545Y0090892D01*
X0093468Y0090965D01*
X0086300Y0097812D02*
X0086300Y0100881D01*
X0086300Y0099346D02*
X0081696Y0099346D01*
X0083231Y0097812D01*
X0083998Y0102416D02*
X0083998Y0105485D01*
X0082463Y0107020D02*
X0081696Y0107787D01*
X0081696Y0109322D01*
X0082463Y0110089D01*
X0083231Y0110089D01*
X0086300Y0107020D01*
X0086300Y0110089D01*
X0086300Y0104718D02*
X0081696Y0104718D01*
X0083998Y0102416D01*
X0109196Y0099816D02*
X0109963Y0100583D01*
X0113033Y0097514D01*
X0113800Y0098281D01*
X0113800Y0099816D01*
X0113033Y0100583D01*
X0109963Y0100583D01*
X0109196Y0099816D02*
X0109196Y0098281D01*
X0109963Y0097514D01*
X0113033Y0097514D01*
X0112696Y0096767D02*
X0113463Y0096000D01*
X0116533Y0096000D01*
X0117300Y0096767D01*
X0117300Y0098302D01*
X0116533Y0099069D01*
X0116533Y0100604D02*
X0117300Y0100604D01*
X0116533Y0100604D02*
X0113463Y0103673D01*
X0112696Y0103673D01*
X0112696Y0100604D01*
X0113463Y0099069D02*
X0112696Y0098302D01*
X0112696Y0096767D01*
X0113800Y0095980D02*
X0113800Y0092910D01*
X0113800Y0094445D02*
X0109196Y0094445D01*
X0110731Y0092910D01*
X0109963Y0091376D02*
X0109196Y0090608D01*
X0109196Y0089074D01*
X0109963Y0088306D01*
X0113033Y0088306D01*
X0113800Y0089074D01*
X0113800Y0090608D01*
X0113033Y0091376D01*
X0131492Y0091767D02*
X0132259Y0091000D01*
X0133794Y0091000D01*
X0134561Y0091767D01*
X0136096Y0091000D02*
X0139165Y0091000D01*
X0137631Y0091000D02*
X0137631Y0095604D01*
X0136096Y0094069D01*
X0134561Y0094837D02*
X0133794Y0095604D01*
X0132259Y0095604D01*
X0131492Y0094837D01*
X0131492Y0091767D01*
X0138696Y0098000D02*
X0138696Y0100302D01*
X0139463Y0101069D01*
X0140998Y0101069D01*
X0141765Y0100302D01*
X0141765Y0098000D01*
X0141765Y0099535D02*
X0143300Y0101069D01*
X0143300Y0102604D02*
X0140231Y0105673D01*
X0139463Y0105673D01*
X0138696Y0104906D01*
X0138696Y0103371D01*
X0139463Y0102604D01*
X0143300Y0102604D02*
X0143300Y0105673D01*
X0148696Y0104139D02*
X0153300Y0104139D01*
X0153300Y0105673D02*
X0153300Y0102604D01*
X0153300Y0101069D02*
X0151765Y0099535D01*
X0151765Y0100302D02*
X0151765Y0098000D01*
X0153300Y0098000D02*
X0148696Y0098000D01*
X0148696Y0100302D01*
X0149463Y0101069D01*
X0150998Y0101069D01*
X0151765Y0100302D01*
X0150231Y0102604D02*
X0148696Y0104139D01*
X0143300Y0098000D02*
X0138696Y0098000D01*
X0126533Y0110000D02*
X0127300Y0110767D01*
X0127300Y0112302D01*
X0126533Y0113069D01*
X0124998Y0114604D02*
X0124998Y0117673D01*
X0122696Y0116906D02*
X0124998Y0114604D01*
X0123463Y0113069D02*
X0122696Y0112302D01*
X0122696Y0110767D01*
X0123463Y0110000D01*
X0126533Y0110000D01*
X0117300Y0113767D02*
X0117300Y0115302D01*
X0116533Y0116069D01*
X0116533Y0117604D02*
X0114998Y0117604D01*
X0114998Y0119906D01*
X0115765Y0120673D01*
X0116533Y0120673D01*
X0117300Y0119906D01*
X0117300Y0118371D01*
X0116533Y0117604D01*
X0114998Y0117604D02*
X0113463Y0119139D01*
X0112696Y0120673D01*
X0113463Y0116069D02*
X0112696Y0115302D01*
X0112696Y0113767D01*
X0113463Y0113000D01*
X0116533Y0113000D01*
X0117300Y0113767D01*
X0122696Y0116906D02*
X0127300Y0116906D01*
X0126533Y0127000D02*
X0127300Y0127767D01*
X0127300Y0129302D01*
X0126533Y0130069D01*
X0127300Y0131604D02*
X0124231Y0134673D01*
X0123463Y0134673D01*
X0122696Y0133906D01*
X0122696Y0132371D01*
X0123463Y0131604D01*
X0123463Y0130069D02*
X0122696Y0129302D01*
X0122696Y0127767D01*
X0123463Y0127000D01*
X0126533Y0127000D01*
X0128463Y0130792D02*
X0131533Y0130792D01*
X0132300Y0131559D01*
X0132300Y0133094D01*
X0131533Y0133861D01*
X0131533Y0135396D02*
X0132300Y0136163D01*
X0132300Y0137698D01*
X0131533Y0138465D01*
X0130765Y0138465D01*
X0129998Y0137698D01*
X0129998Y0136931D01*
X0129998Y0137698D02*
X0129231Y0138465D01*
X0128463Y0138465D01*
X0127696Y0137698D01*
X0127696Y0136163D01*
X0128463Y0135396D01*
X0127300Y0134673D02*
X0127300Y0131604D01*
X0127696Y0131559D02*
X0128463Y0130792D01*
X0127696Y0131559D02*
X0127696Y0133094D01*
X0128463Y0133861D01*
X0148696Y0123465D02*
X0148696Y0120396D01*
X0150998Y0120396D01*
X0150231Y0121931D01*
X0150231Y0122698D01*
X0150998Y0123465D01*
X0152533Y0123465D01*
X0153300Y0122698D01*
X0153300Y0121163D01*
X0152533Y0120396D01*
X0152533Y0118861D02*
X0153300Y0118094D01*
X0153300Y0116559D01*
X0152533Y0115792D01*
X0149463Y0115792D01*
X0148696Y0116559D01*
X0148696Y0118094D01*
X0149463Y0118861D01*
X0174196Y0117000D02*
X0178800Y0117000D01*
X0178800Y0120069D01*
X0178800Y0121604D02*
X0178800Y0124673D01*
X0178800Y0126208D02*
X0174196Y0126208D01*
X0174196Y0128510D01*
X0174963Y0129277D01*
X0178033Y0129277D01*
X0178800Y0128510D01*
X0178800Y0126208D01*
X0174196Y0124673D02*
X0174196Y0121604D01*
X0178800Y0121604D01*
X0176498Y0121604D02*
X0176498Y0123139D01*
X0182032Y0123965D02*
X0181955Y0123892D01*
X0181880Y0123817D01*
X0181809Y0123739D01*
X0181740Y0123658D01*
X0181674Y0123575D01*
X0181611Y0123490D01*
X0181552Y0123402D01*
X0181495Y0123313D01*
X0181442Y0123221D01*
X0181392Y0123127D01*
X0181346Y0123032D01*
X0181303Y0122935D01*
X0181264Y0122837D01*
X0181228Y0122737D01*
X0181196Y0122636D01*
X0181168Y0122534D01*
X0181143Y0122431D01*
X0181122Y0122327D01*
X0181105Y0122222D01*
X0181091Y0122117D01*
X0181082Y0122012D01*
X0181076Y0121906D01*
X0181074Y0121800D01*
X0181076Y0121694D01*
X0181082Y0121588D01*
X0181091Y0121483D01*
X0181105Y0121378D01*
X0181122Y0121273D01*
X0181143Y0121169D01*
X0181168Y0121066D01*
X0181196Y0120964D01*
X0181228Y0120863D01*
X0181264Y0120763D01*
X0181303Y0120665D01*
X0181346Y0120568D01*
X0181392Y0120473D01*
X0181442Y0120379D01*
X0181495Y0120287D01*
X0181552Y0120198D01*
X0181611Y0120110D01*
X0181674Y0120025D01*
X0181740Y0119942D01*
X0181809Y0119861D01*
X0181880Y0119783D01*
X0181955Y0119708D01*
X0182032Y0119635D01*
X0185968Y0119635D02*
X0186045Y0119708D01*
X0186120Y0119783D01*
X0186191Y0119861D01*
X0186260Y0119942D01*
X0186326Y0120025D01*
X0186389Y0120110D01*
X0186448Y0120198D01*
X0186505Y0120287D01*
X0186558Y0120379D01*
X0186608Y0120473D01*
X0186654Y0120568D01*
X0186697Y0120665D01*
X0186736Y0120763D01*
X0186772Y0120863D01*
X0186804Y0120964D01*
X0186832Y0121066D01*
X0186857Y0121169D01*
X0186878Y0121273D01*
X0186895Y0121378D01*
X0186909Y0121483D01*
X0186918Y0121588D01*
X0186924Y0121694D01*
X0186926Y0121800D01*
X0186924Y0121906D01*
X0186918Y0122012D01*
X0186909Y0122117D01*
X0186895Y0122222D01*
X0186878Y0122327D01*
X0186857Y0122431D01*
X0186832Y0122534D01*
X0186804Y0122636D01*
X0186772Y0122737D01*
X0186736Y0122837D01*
X0186697Y0122935D01*
X0186654Y0123032D01*
X0186608Y0123127D01*
X0186558Y0123221D01*
X0186505Y0123313D01*
X0186448Y0123402D01*
X0186389Y0123490D01*
X0186326Y0123575D01*
X0186260Y0123658D01*
X0186191Y0123739D01*
X0186120Y0123817D01*
X0186045Y0123892D01*
X0185968Y0123965D01*
X0178800Y0130812D02*
X0178800Y0133881D01*
X0178800Y0132346D02*
X0174196Y0132346D01*
X0175731Y0130812D01*
X0176498Y0135416D02*
X0176498Y0138485D01*
X0175731Y0140020D02*
X0176498Y0140787D01*
X0176498Y0143089D01*
X0174963Y0143089D02*
X0174196Y0142322D01*
X0174196Y0140787D01*
X0174963Y0140020D01*
X0175731Y0140020D01*
X0178033Y0140020D02*
X0178800Y0140787D01*
X0178800Y0142322D01*
X0178033Y0143089D01*
X0174963Y0143089D01*
X0174196Y0137718D02*
X0176498Y0135416D01*
X0178800Y0137718D02*
X0174196Y0137718D01*
X0174196Y0149000D02*
X0178800Y0149000D01*
X0178800Y0152069D01*
X0178800Y0153604D02*
X0178800Y0156673D01*
X0178800Y0158208D02*
X0174196Y0158208D01*
X0174196Y0160510D01*
X0174963Y0161277D01*
X0178033Y0161277D01*
X0178800Y0160510D01*
X0178800Y0158208D01*
X0174196Y0156673D02*
X0174196Y0153604D01*
X0178800Y0153604D01*
X0176498Y0153604D02*
X0176498Y0155139D01*
X0182032Y0155965D02*
X0181955Y0155892D01*
X0181880Y0155817D01*
X0181809Y0155739D01*
X0181740Y0155658D01*
X0181674Y0155575D01*
X0181611Y0155490D01*
X0181552Y0155402D01*
X0181495Y0155313D01*
X0181442Y0155221D01*
X0181392Y0155127D01*
X0181346Y0155032D01*
X0181303Y0154935D01*
X0181264Y0154837D01*
X0181228Y0154737D01*
X0181196Y0154636D01*
X0181168Y0154534D01*
X0181143Y0154431D01*
X0181122Y0154327D01*
X0181105Y0154222D01*
X0181091Y0154117D01*
X0181082Y0154012D01*
X0181076Y0153906D01*
X0181074Y0153800D01*
X0181076Y0153694D01*
X0181082Y0153588D01*
X0181091Y0153483D01*
X0181105Y0153378D01*
X0181122Y0153273D01*
X0181143Y0153169D01*
X0181168Y0153066D01*
X0181196Y0152964D01*
X0181228Y0152863D01*
X0181264Y0152763D01*
X0181303Y0152665D01*
X0181346Y0152568D01*
X0181392Y0152473D01*
X0181442Y0152379D01*
X0181495Y0152287D01*
X0181552Y0152198D01*
X0181611Y0152110D01*
X0181674Y0152025D01*
X0181740Y0151942D01*
X0181809Y0151861D01*
X0181880Y0151783D01*
X0181955Y0151708D01*
X0182032Y0151635D01*
X0185968Y0151635D02*
X0186045Y0151708D01*
X0186120Y0151783D01*
X0186191Y0151861D01*
X0186260Y0151942D01*
X0186326Y0152025D01*
X0186389Y0152110D01*
X0186448Y0152198D01*
X0186505Y0152287D01*
X0186558Y0152379D01*
X0186608Y0152473D01*
X0186654Y0152568D01*
X0186697Y0152665D01*
X0186736Y0152763D01*
X0186772Y0152863D01*
X0186804Y0152964D01*
X0186832Y0153066D01*
X0186857Y0153169D01*
X0186878Y0153273D01*
X0186895Y0153378D01*
X0186909Y0153483D01*
X0186918Y0153588D01*
X0186924Y0153694D01*
X0186926Y0153800D01*
X0186924Y0153906D01*
X0186918Y0154012D01*
X0186909Y0154117D01*
X0186895Y0154222D01*
X0186878Y0154327D01*
X0186857Y0154431D01*
X0186832Y0154534D01*
X0186804Y0154636D01*
X0186772Y0154737D01*
X0186736Y0154837D01*
X0186697Y0154935D01*
X0186654Y0155032D01*
X0186608Y0155127D01*
X0186558Y0155221D01*
X0186505Y0155313D01*
X0186448Y0155402D01*
X0186389Y0155490D01*
X0186326Y0155575D01*
X0186260Y0155658D01*
X0186191Y0155739D01*
X0186120Y0155817D01*
X0186045Y0155892D01*
X0185968Y0155965D01*
X0178800Y0162812D02*
X0178800Y0165881D01*
X0178800Y0164346D02*
X0174196Y0164346D01*
X0175731Y0162812D01*
X0176498Y0167416D02*
X0174196Y0167416D01*
X0174196Y0170485D01*
X0174963Y0172020D02*
X0174196Y0172787D01*
X0174196Y0174322D01*
X0174963Y0175089D01*
X0178033Y0172020D01*
X0178800Y0172787D01*
X0178800Y0174322D01*
X0178033Y0175089D01*
X0174963Y0175089D01*
X0174196Y0176500D02*
X0178800Y0176500D01*
X0178800Y0179569D01*
X0178800Y0181104D02*
X0178800Y0184173D01*
X0178800Y0185708D02*
X0178800Y0188010D01*
X0178033Y0188777D01*
X0174963Y0188777D01*
X0174196Y0188010D01*
X0174196Y0185708D01*
X0178800Y0185708D01*
X0176498Y0182639D02*
X0176498Y0181104D01*
X0174196Y0181104D02*
X0178800Y0181104D01*
X0174196Y0181104D02*
X0174196Y0184173D01*
X0175731Y0190312D02*
X0174196Y0191846D01*
X0178800Y0191846D01*
X0178800Y0190312D02*
X0178800Y0193381D01*
X0178033Y0194916D02*
X0178800Y0195683D01*
X0178800Y0197218D01*
X0178033Y0197985D01*
X0176498Y0197985D01*
X0175731Y0197218D01*
X0175731Y0196450D01*
X0176498Y0194916D01*
X0174196Y0194916D01*
X0174196Y0197985D01*
X0175731Y0199520D02*
X0174196Y0201054D01*
X0178800Y0201054D01*
X0178800Y0199520D02*
X0178800Y0202589D01*
X0160442Y0183104D02*
X0158908Y0181569D01*
X0160442Y0183104D02*
X0160442Y0178500D01*
X0158908Y0178500D02*
X0161977Y0178500D01*
X0157373Y0178500D02*
X0154304Y0178500D01*
X0155839Y0178500D02*
X0155839Y0183104D01*
X0154304Y0181569D01*
X0152769Y0182337D02*
X0152002Y0183104D01*
X0150467Y0183104D01*
X0149700Y0182337D01*
X0149700Y0179267D01*
X0150467Y0178500D01*
X0152002Y0178500D01*
X0152769Y0179267D01*
X0174963Y0172020D02*
X0178033Y0172020D01*
X0178033Y0170485D02*
X0178800Y0169718D01*
X0178800Y0168183D01*
X0178033Y0167416D01*
X0176498Y0167416D02*
X0175731Y0168950D01*
X0175731Y0169718D01*
X0176498Y0170485D01*
X0178033Y0170485D01*
X0182032Y0179135D02*
X0181955Y0179208D01*
X0181880Y0179283D01*
X0181809Y0179361D01*
X0181740Y0179442D01*
X0181674Y0179525D01*
X0181611Y0179610D01*
X0181552Y0179698D01*
X0181495Y0179787D01*
X0181442Y0179879D01*
X0181392Y0179973D01*
X0181346Y0180068D01*
X0181303Y0180165D01*
X0181264Y0180263D01*
X0181228Y0180363D01*
X0181196Y0180464D01*
X0181168Y0180566D01*
X0181143Y0180669D01*
X0181122Y0180773D01*
X0181105Y0180878D01*
X0181091Y0180983D01*
X0181082Y0181088D01*
X0181076Y0181194D01*
X0181074Y0181300D01*
X0181076Y0181406D01*
X0181082Y0181512D01*
X0181091Y0181617D01*
X0181105Y0181722D01*
X0181122Y0181827D01*
X0181143Y0181931D01*
X0181168Y0182034D01*
X0181196Y0182136D01*
X0181228Y0182237D01*
X0181264Y0182337D01*
X0181303Y0182435D01*
X0181346Y0182532D01*
X0181392Y0182627D01*
X0181442Y0182721D01*
X0181495Y0182813D01*
X0181552Y0182902D01*
X0181611Y0182990D01*
X0181674Y0183075D01*
X0181740Y0183158D01*
X0181809Y0183239D01*
X0181880Y0183317D01*
X0181955Y0183392D01*
X0182032Y0183465D01*
X0185968Y0183465D02*
X0186045Y0183392D01*
X0186120Y0183317D01*
X0186191Y0183239D01*
X0186260Y0183158D01*
X0186326Y0183075D01*
X0186389Y0182990D01*
X0186448Y0182902D01*
X0186505Y0182813D01*
X0186558Y0182721D01*
X0186608Y0182627D01*
X0186654Y0182532D01*
X0186697Y0182435D01*
X0186736Y0182337D01*
X0186772Y0182237D01*
X0186804Y0182136D01*
X0186832Y0182034D01*
X0186857Y0181931D01*
X0186878Y0181827D01*
X0186895Y0181722D01*
X0186909Y0181617D01*
X0186918Y0181512D01*
X0186924Y0181406D01*
X0186926Y0181300D01*
X0186924Y0181194D01*
X0186918Y0181088D01*
X0186909Y0180983D01*
X0186895Y0180878D01*
X0186878Y0180773D01*
X0186857Y0180669D01*
X0186832Y0180566D01*
X0186804Y0180464D01*
X0186772Y0180363D01*
X0186736Y0180263D01*
X0186697Y0180165D01*
X0186654Y0180068D01*
X0186608Y0179973D01*
X0186558Y0179879D01*
X0186505Y0179787D01*
X0186448Y0179698D01*
X0186389Y0179610D01*
X0186326Y0179525D01*
X0186260Y0179442D01*
X0186191Y0179361D01*
X0186120Y0179283D01*
X0186045Y0179208D01*
X0185968Y0179135D01*
X0149477Y0161837D02*
X0148710Y0162604D01*
X0147175Y0162604D01*
X0146408Y0161837D01*
X0149477Y0161837D02*
X0149477Y0161069D01*
X0146408Y0158000D01*
X0149477Y0158000D01*
X0144873Y0158000D02*
X0141804Y0158000D01*
X0143339Y0158000D02*
X0143339Y0162604D01*
X0141804Y0161069D01*
X0140269Y0161837D02*
X0139502Y0162604D01*
X0137967Y0162604D01*
X0137200Y0161837D01*
X0137200Y0158767D01*
X0137967Y0158000D01*
X0139502Y0158000D01*
X0140269Y0158767D01*
X0093468Y0153965D02*
X0093545Y0153892D01*
X0093620Y0153817D01*
X0093691Y0153739D01*
X0093760Y0153658D01*
X0093826Y0153575D01*
X0093889Y0153490D01*
X0093948Y0153402D01*
X0094005Y0153313D01*
X0094058Y0153221D01*
X0094108Y0153127D01*
X0094154Y0153032D01*
X0094197Y0152935D01*
X0094236Y0152837D01*
X0094272Y0152737D01*
X0094304Y0152636D01*
X0094332Y0152534D01*
X0094357Y0152431D01*
X0094378Y0152327D01*
X0094395Y0152222D01*
X0094409Y0152117D01*
X0094418Y0152012D01*
X0094424Y0151906D01*
X0094426Y0151800D01*
X0094424Y0151694D01*
X0094418Y0151588D01*
X0094409Y0151483D01*
X0094395Y0151378D01*
X0094378Y0151273D01*
X0094357Y0151169D01*
X0094332Y0151066D01*
X0094304Y0150964D01*
X0094272Y0150863D01*
X0094236Y0150763D01*
X0094197Y0150665D01*
X0094154Y0150568D01*
X0094108Y0150473D01*
X0094058Y0150379D01*
X0094005Y0150287D01*
X0093948Y0150198D01*
X0093889Y0150110D01*
X0093826Y0150025D01*
X0093760Y0149942D01*
X0093691Y0149861D01*
X0093620Y0149783D01*
X0093545Y0149708D01*
X0093468Y0149635D01*
X0089532Y0149635D02*
X0089455Y0149708D01*
X0089380Y0149783D01*
X0089309Y0149861D01*
X0089240Y0149942D01*
X0089174Y0150025D01*
X0089111Y0150110D01*
X0089052Y0150198D01*
X0088995Y0150287D01*
X0088942Y0150379D01*
X0088892Y0150473D01*
X0088846Y0150568D01*
X0088803Y0150665D01*
X0088764Y0150763D01*
X0088728Y0150863D01*
X0088696Y0150964D01*
X0088668Y0151066D01*
X0088643Y0151169D01*
X0088622Y0151273D01*
X0088605Y0151378D01*
X0088591Y0151483D01*
X0088582Y0151588D01*
X0088576Y0151694D01*
X0088574Y0151800D01*
X0088576Y0151906D01*
X0088582Y0152012D01*
X0088591Y0152117D01*
X0088605Y0152222D01*
X0088622Y0152327D01*
X0088643Y0152431D01*
X0088668Y0152534D01*
X0088696Y0152636D01*
X0088728Y0152737D01*
X0088764Y0152837D01*
X0088803Y0152935D01*
X0088846Y0153032D01*
X0088892Y0153127D01*
X0088942Y0153221D01*
X0088995Y0153313D01*
X0089052Y0153402D01*
X0089111Y0153490D01*
X0089174Y0153575D01*
X0089240Y0153658D01*
X0089309Y0153739D01*
X0089380Y0153817D01*
X0089455Y0153892D01*
X0089532Y0153965D01*
X0086300Y0154673D02*
X0086300Y0151604D01*
X0081696Y0151604D01*
X0081696Y0154673D01*
X0081696Y0156208D02*
X0081696Y0158510D01*
X0082463Y0159277D01*
X0085533Y0159277D01*
X0086300Y0158510D01*
X0086300Y0156208D01*
X0081696Y0156208D01*
X0083998Y0153139D02*
X0083998Y0151604D01*
X0086300Y0150069D02*
X0086300Y0147000D01*
X0081696Y0147000D01*
X0082463Y0142589D02*
X0083231Y0142589D01*
X0083998Y0141822D01*
X0084765Y0142589D01*
X0085533Y0142589D01*
X0086300Y0141822D01*
X0086300Y0140287D01*
X0085533Y0139520D01*
X0083998Y0141054D02*
X0083998Y0141822D01*
X0082463Y0142589D02*
X0081696Y0141822D01*
X0081696Y0140287D01*
X0082463Y0139520D01*
X0083998Y0137985D02*
X0083998Y0134916D01*
X0081696Y0137218D01*
X0086300Y0137218D01*
X0086300Y0133381D02*
X0086300Y0130312D01*
X0086300Y0131846D02*
X0081696Y0131846D01*
X0083231Y0130312D01*
X0082463Y0128777D02*
X0081696Y0128010D01*
X0081696Y0125708D01*
X0086300Y0125708D01*
X0086300Y0128010D01*
X0085533Y0128777D01*
X0082463Y0128777D01*
X0081696Y0124173D02*
X0081696Y0121104D01*
X0086300Y0121104D01*
X0086300Y0124173D01*
X0083998Y0122639D02*
X0083998Y0121104D01*
X0086300Y0119569D02*
X0086300Y0116500D01*
X0081696Y0116500D01*
X0089532Y0119135D02*
X0089455Y0119208D01*
X0089380Y0119283D01*
X0089309Y0119361D01*
X0089240Y0119442D01*
X0089174Y0119525D01*
X0089111Y0119610D01*
X0089052Y0119698D01*
X0088995Y0119787D01*
X0088942Y0119879D01*
X0088892Y0119973D01*
X0088846Y0120068D01*
X0088803Y0120165D01*
X0088764Y0120263D01*
X0088728Y0120363D01*
X0088696Y0120464D01*
X0088668Y0120566D01*
X0088643Y0120669D01*
X0088622Y0120773D01*
X0088605Y0120878D01*
X0088591Y0120983D01*
X0088582Y0121088D01*
X0088576Y0121194D01*
X0088574Y0121300D01*
X0088576Y0121406D01*
X0088582Y0121512D01*
X0088591Y0121617D01*
X0088605Y0121722D01*
X0088622Y0121827D01*
X0088643Y0121931D01*
X0088668Y0122034D01*
X0088696Y0122136D01*
X0088728Y0122237D01*
X0088764Y0122337D01*
X0088803Y0122435D01*
X0088846Y0122532D01*
X0088892Y0122627D01*
X0088942Y0122721D01*
X0088995Y0122813D01*
X0089052Y0122902D01*
X0089111Y0122990D01*
X0089174Y0123075D01*
X0089240Y0123158D01*
X0089309Y0123239D01*
X0089380Y0123317D01*
X0089455Y0123392D01*
X0089532Y0123465D01*
X0093468Y0123465D02*
X0093545Y0123392D01*
X0093620Y0123317D01*
X0093691Y0123239D01*
X0093760Y0123158D01*
X0093826Y0123075D01*
X0093889Y0122990D01*
X0093948Y0122902D01*
X0094005Y0122813D01*
X0094058Y0122721D01*
X0094108Y0122627D01*
X0094154Y0122532D01*
X0094197Y0122435D01*
X0094236Y0122337D01*
X0094272Y0122237D01*
X0094304Y0122136D01*
X0094332Y0122034D01*
X0094357Y0121931D01*
X0094378Y0121827D01*
X0094395Y0121722D01*
X0094409Y0121617D01*
X0094418Y0121512D01*
X0094424Y0121406D01*
X0094426Y0121300D01*
X0094424Y0121194D01*
X0094418Y0121088D01*
X0094409Y0120983D01*
X0094395Y0120878D01*
X0094378Y0120773D01*
X0094357Y0120669D01*
X0094332Y0120566D01*
X0094304Y0120464D01*
X0094272Y0120363D01*
X0094236Y0120263D01*
X0094197Y0120165D01*
X0094154Y0120068D01*
X0094108Y0119973D01*
X0094058Y0119879D01*
X0094005Y0119787D01*
X0093948Y0119698D01*
X0093889Y0119610D01*
X0093826Y0119525D01*
X0093760Y0119442D01*
X0093691Y0119361D01*
X0093620Y0119283D01*
X0093545Y0119208D01*
X0093468Y0119135D01*
X0086300Y0160812D02*
X0086300Y0163881D01*
X0086300Y0162346D02*
X0081696Y0162346D01*
X0083231Y0160812D01*
X0083998Y0165416D02*
X0083998Y0168485D01*
X0083998Y0170020D02*
X0083998Y0173089D01*
X0081696Y0172322D02*
X0083998Y0170020D01*
X0086300Y0172322D02*
X0081696Y0172322D01*
X0081696Y0174000D02*
X0086300Y0174000D01*
X0086300Y0177069D01*
X0086300Y0178604D02*
X0081696Y0178604D01*
X0081696Y0181673D01*
X0081696Y0183208D02*
X0081696Y0185510D01*
X0082463Y0186277D01*
X0085533Y0186277D01*
X0086300Y0185510D01*
X0086300Y0183208D01*
X0081696Y0183208D01*
X0083998Y0180139D02*
X0083998Y0178604D01*
X0086300Y0178604D02*
X0086300Y0181673D01*
X0089532Y0180965D02*
X0089455Y0180892D01*
X0089380Y0180817D01*
X0089309Y0180739D01*
X0089240Y0180658D01*
X0089174Y0180575D01*
X0089111Y0180490D01*
X0089052Y0180402D01*
X0088995Y0180313D01*
X0088942Y0180221D01*
X0088892Y0180127D01*
X0088846Y0180032D01*
X0088803Y0179935D01*
X0088764Y0179837D01*
X0088728Y0179737D01*
X0088696Y0179636D01*
X0088668Y0179534D01*
X0088643Y0179431D01*
X0088622Y0179327D01*
X0088605Y0179222D01*
X0088591Y0179117D01*
X0088582Y0179012D01*
X0088576Y0178906D01*
X0088574Y0178800D01*
X0088576Y0178694D01*
X0088582Y0178588D01*
X0088591Y0178483D01*
X0088605Y0178378D01*
X0088622Y0178273D01*
X0088643Y0178169D01*
X0088668Y0178066D01*
X0088696Y0177964D01*
X0088728Y0177863D01*
X0088764Y0177763D01*
X0088803Y0177665D01*
X0088846Y0177568D01*
X0088892Y0177473D01*
X0088942Y0177379D01*
X0088995Y0177287D01*
X0089052Y0177198D01*
X0089111Y0177110D01*
X0089174Y0177025D01*
X0089240Y0176942D01*
X0089309Y0176861D01*
X0089380Y0176783D01*
X0089455Y0176708D01*
X0089532Y0176635D01*
X0093468Y0176635D02*
X0093545Y0176708D01*
X0093620Y0176783D01*
X0093691Y0176861D01*
X0093760Y0176942D01*
X0093826Y0177025D01*
X0093889Y0177110D01*
X0093948Y0177198D01*
X0094005Y0177287D01*
X0094058Y0177379D01*
X0094108Y0177473D01*
X0094154Y0177568D01*
X0094197Y0177665D01*
X0094236Y0177763D01*
X0094272Y0177863D01*
X0094304Y0177964D01*
X0094332Y0178066D01*
X0094357Y0178169D01*
X0094378Y0178273D01*
X0094395Y0178378D01*
X0094409Y0178483D01*
X0094418Y0178588D01*
X0094424Y0178694D01*
X0094426Y0178800D01*
X0094424Y0178906D01*
X0094418Y0179012D01*
X0094409Y0179117D01*
X0094395Y0179222D01*
X0094378Y0179327D01*
X0094357Y0179431D01*
X0094332Y0179534D01*
X0094304Y0179636D01*
X0094272Y0179737D01*
X0094236Y0179837D01*
X0094197Y0179935D01*
X0094154Y0180032D01*
X0094108Y0180127D01*
X0094058Y0180221D01*
X0094005Y0180313D01*
X0093948Y0180402D01*
X0093889Y0180490D01*
X0093826Y0180575D01*
X0093760Y0180658D01*
X0093691Y0180739D01*
X0093620Y0180817D01*
X0093545Y0180892D01*
X0093468Y0180965D01*
X0086300Y0187812D02*
X0086300Y0190881D01*
X0086300Y0189346D02*
X0081696Y0189346D01*
X0083231Y0187812D01*
X0083998Y0192416D02*
X0083998Y0195485D01*
X0083998Y0197020D02*
X0083231Y0198554D01*
X0083231Y0199322D01*
X0083998Y0200089D01*
X0085533Y0200089D01*
X0086300Y0199322D01*
X0086300Y0197787D01*
X0085533Y0197020D01*
X0083998Y0197020D02*
X0081696Y0197020D01*
X0081696Y0200089D01*
X0081696Y0194718D02*
X0083998Y0192416D01*
X0086300Y0194718D02*
X0081696Y0194718D01*
X0081696Y0167718D02*
X0083998Y0165416D01*
X0086300Y0167718D02*
X0081696Y0167718D01*
X0174196Y0109322D02*
X0174963Y0110089D01*
X0175731Y0110089D01*
X0176498Y0109322D01*
X0176498Y0107787D01*
X0175731Y0107020D01*
X0174963Y0107020D01*
X0174196Y0107787D01*
X0174196Y0109322D01*
X0176498Y0109322D02*
X0177265Y0110089D01*
X0178033Y0110089D01*
X0178800Y0109322D01*
X0178800Y0107787D01*
X0178033Y0107020D01*
X0177265Y0107020D01*
X0176498Y0107787D01*
X0176498Y0105485D02*
X0176498Y0102416D01*
X0174196Y0104718D01*
X0178800Y0104718D01*
X0178800Y0100881D02*
X0178800Y0097812D01*
X0178800Y0099346D02*
X0174196Y0099346D01*
X0175731Y0097812D01*
X0174963Y0096277D02*
X0174196Y0095510D01*
X0174196Y0093208D01*
X0178800Y0093208D01*
X0178800Y0095510D01*
X0178033Y0096277D01*
X0174963Y0096277D01*
X0174196Y0091673D02*
X0174196Y0088604D01*
X0178800Y0088604D01*
X0178800Y0091673D01*
X0176498Y0090139D02*
X0176498Y0088604D01*
X0178800Y0087069D02*
X0178800Y0084000D01*
X0174196Y0084000D01*
X0182032Y0086635D02*
X0181955Y0086708D01*
X0181880Y0086783D01*
X0181809Y0086861D01*
X0181740Y0086942D01*
X0181674Y0087025D01*
X0181611Y0087110D01*
X0181552Y0087198D01*
X0181495Y0087287D01*
X0181442Y0087379D01*
X0181392Y0087473D01*
X0181346Y0087568D01*
X0181303Y0087665D01*
X0181264Y0087763D01*
X0181228Y0087863D01*
X0181196Y0087964D01*
X0181168Y0088066D01*
X0181143Y0088169D01*
X0181122Y0088273D01*
X0181105Y0088378D01*
X0181091Y0088483D01*
X0181082Y0088588D01*
X0181076Y0088694D01*
X0181074Y0088800D01*
X0181076Y0088906D01*
X0181082Y0089012D01*
X0181091Y0089117D01*
X0181105Y0089222D01*
X0181122Y0089327D01*
X0181143Y0089431D01*
X0181168Y0089534D01*
X0181196Y0089636D01*
X0181228Y0089737D01*
X0181264Y0089837D01*
X0181303Y0089935D01*
X0181346Y0090032D01*
X0181392Y0090127D01*
X0181442Y0090221D01*
X0181495Y0090313D01*
X0181552Y0090402D01*
X0181611Y0090490D01*
X0181674Y0090575D01*
X0181740Y0090658D01*
X0181809Y0090739D01*
X0181880Y0090817D01*
X0181955Y0090892D01*
X0182032Y0090965D01*
X0185968Y0090965D02*
X0186045Y0090892D01*
X0186120Y0090817D01*
X0186191Y0090739D01*
X0186260Y0090658D01*
X0186326Y0090575D01*
X0186389Y0090490D01*
X0186448Y0090402D01*
X0186505Y0090313D01*
X0186558Y0090221D01*
X0186608Y0090127D01*
X0186654Y0090032D01*
X0186697Y0089935D01*
X0186736Y0089837D01*
X0186772Y0089737D01*
X0186804Y0089636D01*
X0186832Y0089534D01*
X0186857Y0089431D01*
X0186878Y0089327D01*
X0186895Y0089222D01*
X0186909Y0089117D01*
X0186918Y0089012D01*
X0186924Y0088906D01*
X0186926Y0088800D01*
X0186924Y0088694D01*
X0186918Y0088588D01*
X0186909Y0088483D01*
X0186895Y0088378D01*
X0186878Y0088273D01*
X0186857Y0088169D01*
X0186832Y0088066D01*
X0186804Y0087964D01*
X0186772Y0087863D01*
X0186736Y0087763D01*
X0186697Y0087665D01*
X0186654Y0087568D01*
X0186608Y0087473D01*
X0186558Y0087379D01*
X0186505Y0087287D01*
X0186448Y0087198D01*
X0186389Y0087110D01*
X0186326Y0087025D01*
X0186260Y0086942D01*
X0186191Y0086861D01*
X0186120Y0086783D01*
X0186045Y0086708D01*
X0185968Y0086635D01*
X0174963Y0076589D02*
X0174196Y0076589D01*
X0174196Y0073520D01*
X0174196Y0071218D02*
X0176498Y0068916D01*
X0176498Y0071985D01*
X0178033Y0073520D02*
X0178800Y0073520D01*
X0178033Y0073520D02*
X0174963Y0076589D01*
X0174196Y0071218D02*
X0178800Y0071218D01*
X0178800Y0067381D02*
X0178800Y0064312D01*
X0178800Y0065846D02*
X0174196Y0065846D01*
X0175731Y0064312D01*
X0174963Y0062777D02*
X0174196Y0062010D01*
X0174196Y0059708D01*
X0178800Y0059708D01*
X0178800Y0062010D01*
X0178033Y0062777D01*
X0174963Y0062777D01*
X0174196Y0058173D02*
X0174196Y0055104D01*
X0178800Y0055104D01*
X0178800Y0058173D01*
X0176498Y0056639D02*
X0176498Y0055104D01*
X0178800Y0053569D02*
X0178800Y0050500D01*
X0174196Y0050500D01*
X0182032Y0053135D02*
X0181955Y0053208D01*
X0181880Y0053283D01*
X0181809Y0053361D01*
X0181740Y0053442D01*
X0181674Y0053525D01*
X0181611Y0053610D01*
X0181552Y0053698D01*
X0181495Y0053787D01*
X0181442Y0053879D01*
X0181392Y0053973D01*
X0181346Y0054068D01*
X0181303Y0054165D01*
X0181264Y0054263D01*
X0181228Y0054363D01*
X0181196Y0054464D01*
X0181168Y0054566D01*
X0181143Y0054669D01*
X0181122Y0054773D01*
X0181105Y0054878D01*
X0181091Y0054983D01*
X0181082Y0055088D01*
X0181076Y0055194D01*
X0181074Y0055300D01*
X0181076Y0055406D01*
X0181082Y0055512D01*
X0181091Y0055617D01*
X0181105Y0055722D01*
X0181122Y0055827D01*
X0181143Y0055931D01*
X0181168Y0056034D01*
X0181196Y0056136D01*
X0181228Y0056237D01*
X0181264Y0056337D01*
X0181303Y0056435D01*
X0181346Y0056532D01*
X0181392Y0056627D01*
X0181442Y0056721D01*
X0181495Y0056813D01*
X0181552Y0056902D01*
X0181611Y0056990D01*
X0181674Y0057075D01*
X0181740Y0057158D01*
X0181809Y0057239D01*
X0181880Y0057317D01*
X0181955Y0057392D01*
X0182032Y0057465D01*
X0185968Y0057465D02*
X0186045Y0057392D01*
X0186120Y0057317D01*
X0186191Y0057239D01*
X0186260Y0057158D01*
X0186326Y0057075D01*
X0186389Y0056990D01*
X0186448Y0056902D01*
X0186505Y0056813D01*
X0186558Y0056721D01*
X0186608Y0056627D01*
X0186654Y0056532D01*
X0186697Y0056435D01*
X0186736Y0056337D01*
X0186772Y0056237D01*
X0186804Y0056136D01*
X0186832Y0056034D01*
X0186857Y0055931D01*
X0186878Y0055827D01*
X0186895Y0055722D01*
X0186909Y0055617D01*
X0186918Y0055512D01*
X0186924Y0055406D01*
X0186926Y0055300D01*
X0186924Y0055194D01*
X0186918Y0055088D01*
X0186909Y0054983D01*
X0186895Y0054878D01*
X0186878Y0054773D01*
X0186857Y0054669D01*
X0186832Y0054566D01*
X0186804Y0054464D01*
X0186772Y0054363D01*
X0186736Y0054263D01*
X0186697Y0054165D01*
X0186654Y0054068D01*
X0186608Y0053973D01*
X0186558Y0053879D01*
X0186505Y0053787D01*
X0186448Y0053698D01*
X0186389Y0053610D01*
X0186326Y0053525D01*
X0186260Y0053442D01*
X0186191Y0053361D01*
X0186120Y0053283D01*
X0186045Y0053208D01*
X0185968Y0053135D01*
X0178033Y0042089D02*
X0177265Y0042089D01*
X0176498Y0041322D01*
X0176498Y0039020D01*
X0178033Y0039020D01*
X0178800Y0039787D01*
X0178800Y0041322D01*
X0178033Y0042089D01*
X0176498Y0039020D02*
X0174963Y0040554D01*
X0174196Y0042089D01*
X0176498Y0037485D02*
X0176498Y0034416D01*
X0174196Y0036718D01*
X0178800Y0036718D01*
X0178800Y0032881D02*
X0178800Y0029812D01*
X0178800Y0031346D02*
X0174196Y0031346D01*
X0175731Y0029812D01*
X0174963Y0028277D02*
X0174196Y0027510D01*
X0174196Y0025208D01*
X0178800Y0025208D01*
X0178800Y0027510D01*
X0178033Y0028277D01*
X0174963Y0028277D01*
X0174196Y0023673D02*
X0174196Y0020604D01*
X0178800Y0020604D01*
X0178800Y0023673D01*
X0176498Y0022139D02*
X0176498Y0020604D01*
X0178800Y0019069D02*
X0178800Y0016000D01*
X0174196Y0016000D01*
X0182032Y0018635D02*
X0181955Y0018708D01*
X0181880Y0018783D01*
X0181809Y0018861D01*
X0181740Y0018942D01*
X0181674Y0019025D01*
X0181611Y0019110D01*
X0181552Y0019198D01*
X0181495Y0019287D01*
X0181442Y0019379D01*
X0181392Y0019473D01*
X0181346Y0019568D01*
X0181303Y0019665D01*
X0181264Y0019763D01*
X0181228Y0019863D01*
X0181196Y0019964D01*
X0181168Y0020066D01*
X0181143Y0020169D01*
X0181122Y0020273D01*
X0181105Y0020378D01*
X0181091Y0020483D01*
X0181082Y0020588D01*
X0181076Y0020694D01*
X0181074Y0020800D01*
X0181076Y0020906D01*
X0181082Y0021012D01*
X0181091Y0021117D01*
X0181105Y0021222D01*
X0181122Y0021327D01*
X0181143Y0021431D01*
X0181168Y0021534D01*
X0181196Y0021636D01*
X0181228Y0021737D01*
X0181264Y0021837D01*
X0181303Y0021935D01*
X0181346Y0022032D01*
X0181392Y0022127D01*
X0181442Y0022221D01*
X0181495Y0022313D01*
X0181552Y0022402D01*
X0181611Y0022490D01*
X0181674Y0022575D01*
X0181740Y0022658D01*
X0181809Y0022739D01*
X0181880Y0022817D01*
X0181955Y0022892D01*
X0182032Y0022965D01*
X0185968Y0022965D02*
X0186045Y0022892D01*
X0186120Y0022817D01*
X0186191Y0022739D01*
X0186260Y0022658D01*
X0186326Y0022575D01*
X0186389Y0022490D01*
X0186448Y0022402D01*
X0186505Y0022313D01*
X0186558Y0022221D01*
X0186608Y0022127D01*
X0186654Y0022032D01*
X0186697Y0021935D01*
X0186736Y0021837D01*
X0186772Y0021737D01*
X0186804Y0021636D01*
X0186832Y0021534D01*
X0186857Y0021431D01*
X0186878Y0021327D01*
X0186895Y0021222D01*
X0186909Y0021117D01*
X0186918Y0021012D01*
X0186924Y0020906D01*
X0186926Y0020800D01*
X0186924Y0020694D01*
X0186918Y0020588D01*
X0186909Y0020483D01*
X0186895Y0020378D01*
X0186878Y0020273D01*
X0186857Y0020169D01*
X0186832Y0020066D01*
X0186804Y0019964D01*
X0186772Y0019863D01*
X0186736Y0019763D01*
X0186697Y0019665D01*
X0186654Y0019568D01*
X0186608Y0019473D01*
X0186558Y0019379D01*
X0186505Y0019287D01*
X0186448Y0019198D01*
X0186389Y0019110D01*
X0186326Y0019025D01*
X0186260Y0018942D01*
X0186191Y0018861D01*
X0186120Y0018783D01*
X0186045Y0018708D01*
X0185968Y0018635D01*
X0151115Y0019227D02*
X0149580Y0017692D01*
X0149580Y0018459D02*
X0149580Y0016157D01*
X0151115Y0016157D02*
X0146511Y0016157D01*
X0146511Y0018459D01*
X0147278Y0019227D01*
X0148813Y0019227D01*
X0149580Y0018459D01*
X0148813Y0020761D02*
X0146511Y0020761D01*
X0146511Y0023831D01*
X0148046Y0023063D02*
X0148813Y0023831D01*
X0150348Y0023831D01*
X0151115Y0023063D01*
X0151115Y0021529D01*
X0150348Y0020761D01*
X0148813Y0020761D02*
X0148046Y0022296D01*
X0148046Y0023063D01*
X0239011Y0021331D02*
X0239778Y0019796D01*
X0241313Y0018261D01*
X0241313Y0020563D01*
X0242080Y0021331D01*
X0242848Y0021331D01*
X0243615Y0020563D01*
X0243615Y0019029D01*
X0242848Y0018261D01*
X0241313Y0018261D01*
X0241313Y0016727D02*
X0242080Y0015959D01*
X0242080Y0013657D01*
X0243615Y0013657D02*
X0239011Y0013657D01*
X0239011Y0015959D01*
X0239778Y0016727D01*
X0241313Y0016727D01*
X0242080Y0015192D02*
X0243615Y0016727D01*
X0267696Y0018604D02*
X0272300Y0018604D01*
X0272300Y0021673D01*
X0272300Y0023208D02*
X0272300Y0025510D01*
X0271533Y0026277D01*
X0268463Y0026277D01*
X0267696Y0025510D01*
X0267696Y0023208D01*
X0272300Y0023208D01*
X0269998Y0020139D02*
X0269998Y0018604D01*
X0267696Y0018604D02*
X0267696Y0021673D01*
X0275532Y0020965D02*
X0275455Y0020892D01*
X0275380Y0020817D01*
X0275309Y0020739D01*
X0275240Y0020658D01*
X0275174Y0020575D01*
X0275111Y0020490D01*
X0275052Y0020402D01*
X0274995Y0020313D01*
X0274942Y0020221D01*
X0274892Y0020127D01*
X0274846Y0020032D01*
X0274803Y0019935D01*
X0274764Y0019837D01*
X0274728Y0019737D01*
X0274696Y0019636D01*
X0274668Y0019534D01*
X0274643Y0019431D01*
X0274622Y0019327D01*
X0274605Y0019222D01*
X0274591Y0019117D01*
X0274582Y0019012D01*
X0274576Y0018906D01*
X0274574Y0018800D01*
X0274576Y0018694D01*
X0274582Y0018588D01*
X0274591Y0018483D01*
X0274605Y0018378D01*
X0274622Y0018273D01*
X0274643Y0018169D01*
X0274668Y0018066D01*
X0274696Y0017964D01*
X0274728Y0017863D01*
X0274764Y0017763D01*
X0274803Y0017665D01*
X0274846Y0017568D01*
X0274892Y0017473D01*
X0274942Y0017379D01*
X0274995Y0017287D01*
X0275052Y0017198D01*
X0275111Y0017110D01*
X0275174Y0017025D01*
X0275240Y0016942D01*
X0275309Y0016861D01*
X0275380Y0016783D01*
X0275455Y0016708D01*
X0275532Y0016635D01*
X0279468Y0016635D02*
X0279545Y0016708D01*
X0279620Y0016783D01*
X0279691Y0016861D01*
X0279760Y0016942D01*
X0279826Y0017025D01*
X0279889Y0017110D01*
X0279948Y0017198D01*
X0280005Y0017287D01*
X0280058Y0017379D01*
X0280108Y0017473D01*
X0280154Y0017568D01*
X0280197Y0017665D01*
X0280236Y0017763D01*
X0280272Y0017863D01*
X0280304Y0017964D01*
X0280332Y0018066D01*
X0280357Y0018169D01*
X0280378Y0018273D01*
X0280395Y0018378D01*
X0280409Y0018483D01*
X0280418Y0018588D01*
X0280424Y0018694D01*
X0280426Y0018800D01*
X0280424Y0018906D01*
X0280418Y0019012D01*
X0280409Y0019117D01*
X0280395Y0019222D01*
X0280378Y0019327D01*
X0280357Y0019431D01*
X0280332Y0019534D01*
X0280304Y0019636D01*
X0280272Y0019737D01*
X0280236Y0019837D01*
X0280197Y0019935D01*
X0280154Y0020032D01*
X0280108Y0020127D01*
X0280058Y0020221D01*
X0280005Y0020313D01*
X0279948Y0020402D01*
X0279889Y0020490D01*
X0279826Y0020575D01*
X0279760Y0020658D01*
X0279691Y0020739D01*
X0279620Y0020817D01*
X0279545Y0020892D01*
X0279468Y0020965D01*
X0272300Y0017069D02*
X0272300Y0014000D01*
X0267696Y0014000D01*
X0269231Y0027812D02*
X0267696Y0029346D01*
X0272300Y0029346D01*
X0272300Y0027812D02*
X0272300Y0030881D01*
X0271533Y0032416D02*
X0272300Y0033183D01*
X0272300Y0034718D01*
X0271533Y0035485D01*
X0269998Y0035485D01*
X0269231Y0034718D01*
X0269231Y0033950D01*
X0269998Y0032416D01*
X0267696Y0032416D01*
X0267696Y0035485D01*
X0268463Y0037020D02*
X0267696Y0037787D01*
X0267696Y0039322D01*
X0268463Y0040089D01*
X0269231Y0040089D01*
X0272300Y0037020D01*
X0272300Y0040089D01*
X0272300Y0051000D02*
X0267696Y0051000D01*
X0272300Y0051000D02*
X0272300Y0054069D01*
X0272300Y0055604D02*
X0267696Y0055604D01*
X0267696Y0058673D01*
X0267696Y0060208D02*
X0267696Y0062510D01*
X0268463Y0063277D01*
X0271533Y0063277D01*
X0272300Y0062510D01*
X0272300Y0060208D01*
X0267696Y0060208D01*
X0272300Y0058673D02*
X0272300Y0055604D01*
X0269998Y0055604D02*
X0269998Y0057139D01*
X0275532Y0057965D02*
X0275455Y0057892D01*
X0275380Y0057817D01*
X0275309Y0057739D01*
X0275240Y0057658D01*
X0275174Y0057575D01*
X0275111Y0057490D01*
X0275052Y0057402D01*
X0274995Y0057313D01*
X0274942Y0057221D01*
X0274892Y0057127D01*
X0274846Y0057032D01*
X0274803Y0056935D01*
X0274764Y0056837D01*
X0274728Y0056737D01*
X0274696Y0056636D01*
X0274668Y0056534D01*
X0274643Y0056431D01*
X0274622Y0056327D01*
X0274605Y0056222D01*
X0274591Y0056117D01*
X0274582Y0056012D01*
X0274576Y0055906D01*
X0274574Y0055800D01*
X0274576Y0055694D01*
X0274582Y0055588D01*
X0274591Y0055483D01*
X0274605Y0055378D01*
X0274622Y0055273D01*
X0274643Y0055169D01*
X0274668Y0055066D01*
X0274696Y0054964D01*
X0274728Y0054863D01*
X0274764Y0054763D01*
X0274803Y0054665D01*
X0274846Y0054568D01*
X0274892Y0054473D01*
X0274942Y0054379D01*
X0274995Y0054287D01*
X0275052Y0054198D01*
X0275111Y0054110D01*
X0275174Y0054025D01*
X0275240Y0053942D01*
X0275309Y0053861D01*
X0275380Y0053783D01*
X0275455Y0053708D01*
X0275532Y0053635D01*
X0279468Y0053635D02*
X0279545Y0053708D01*
X0279620Y0053783D01*
X0279691Y0053861D01*
X0279760Y0053942D01*
X0279826Y0054025D01*
X0279889Y0054110D01*
X0279948Y0054198D01*
X0280005Y0054287D01*
X0280058Y0054379D01*
X0280108Y0054473D01*
X0280154Y0054568D01*
X0280197Y0054665D01*
X0280236Y0054763D01*
X0280272Y0054863D01*
X0280304Y0054964D01*
X0280332Y0055066D01*
X0280357Y0055169D01*
X0280378Y0055273D01*
X0280395Y0055378D01*
X0280409Y0055483D01*
X0280418Y0055588D01*
X0280424Y0055694D01*
X0280426Y0055800D01*
X0280424Y0055906D01*
X0280418Y0056012D01*
X0280409Y0056117D01*
X0280395Y0056222D01*
X0280378Y0056327D01*
X0280357Y0056431D01*
X0280332Y0056534D01*
X0280304Y0056636D01*
X0280272Y0056737D01*
X0280236Y0056837D01*
X0280197Y0056935D01*
X0280154Y0057032D01*
X0280108Y0057127D01*
X0280058Y0057221D01*
X0280005Y0057313D01*
X0279948Y0057402D01*
X0279889Y0057490D01*
X0279826Y0057575D01*
X0279760Y0057658D01*
X0279691Y0057739D01*
X0279620Y0057817D01*
X0279545Y0057892D01*
X0279468Y0057965D01*
X0272300Y0064812D02*
X0272300Y0067881D01*
X0272300Y0066346D02*
X0267696Y0066346D01*
X0269231Y0064812D01*
X0269998Y0069416D02*
X0269231Y0070950D01*
X0269231Y0071718D01*
X0269998Y0072485D01*
X0271533Y0072485D01*
X0272300Y0071718D01*
X0272300Y0070183D01*
X0271533Y0069416D01*
X0269998Y0069416D02*
X0267696Y0069416D01*
X0267696Y0072485D01*
X0268463Y0074020D02*
X0267696Y0074787D01*
X0267696Y0076322D01*
X0268463Y0077089D01*
X0269231Y0077089D01*
X0269998Y0076322D01*
X0270765Y0077089D01*
X0271533Y0077089D01*
X0272300Y0076322D01*
X0272300Y0074787D01*
X0271533Y0074020D01*
X0269998Y0075554D02*
X0269998Y0076322D01*
X0267696Y0083500D02*
X0272300Y0083500D01*
X0272300Y0086569D01*
X0272300Y0088104D02*
X0267696Y0088104D01*
X0267696Y0091173D01*
X0267696Y0092708D02*
X0267696Y0095010D01*
X0268463Y0095777D01*
X0271533Y0095777D01*
X0272300Y0095010D01*
X0272300Y0092708D01*
X0267696Y0092708D01*
X0272300Y0091173D02*
X0272300Y0088104D01*
X0269998Y0088104D02*
X0269998Y0089639D01*
X0275532Y0090465D02*
X0275455Y0090392D01*
X0275380Y0090317D01*
X0275309Y0090239D01*
X0275240Y0090158D01*
X0275174Y0090075D01*
X0275111Y0089990D01*
X0275052Y0089902D01*
X0274995Y0089813D01*
X0274942Y0089721D01*
X0274892Y0089627D01*
X0274846Y0089532D01*
X0274803Y0089435D01*
X0274764Y0089337D01*
X0274728Y0089237D01*
X0274696Y0089136D01*
X0274668Y0089034D01*
X0274643Y0088931D01*
X0274622Y0088827D01*
X0274605Y0088722D01*
X0274591Y0088617D01*
X0274582Y0088512D01*
X0274576Y0088406D01*
X0274574Y0088300D01*
X0274576Y0088194D01*
X0274582Y0088088D01*
X0274591Y0087983D01*
X0274605Y0087878D01*
X0274622Y0087773D01*
X0274643Y0087669D01*
X0274668Y0087566D01*
X0274696Y0087464D01*
X0274728Y0087363D01*
X0274764Y0087263D01*
X0274803Y0087165D01*
X0274846Y0087068D01*
X0274892Y0086973D01*
X0274942Y0086879D01*
X0274995Y0086787D01*
X0275052Y0086698D01*
X0275111Y0086610D01*
X0275174Y0086525D01*
X0275240Y0086442D01*
X0275309Y0086361D01*
X0275380Y0086283D01*
X0275455Y0086208D01*
X0275532Y0086135D01*
X0279468Y0086135D02*
X0279545Y0086208D01*
X0279620Y0086283D01*
X0279691Y0086361D01*
X0279760Y0086442D01*
X0279826Y0086525D01*
X0279889Y0086610D01*
X0279948Y0086698D01*
X0280005Y0086787D01*
X0280058Y0086879D01*
X0280108Y0086973D01*
X0280154Y0087068D01*
X0280197Y0087165D01*
X0280236Y0087263D01*
X0280272Y0087363D01*
X0280304Y0087464D01*
X0280332Y0087566D01*
X0280357Y0087669D01*
X0280378Y0087773D01*
X0280395Y0087878D01*
X0280409Y0087983D01*
X0280418Y0088088D01*
X0280424Y0088194D01*
X0280426Y0088300D01*
X0280424Y0088406D01*
X0280418Y0088512D01*
X0280409Y0088617D01*
X0280395Y0088722D01*
X0280378Y0088827D01*
X0280357Y0088931D01*
X0280332Y0089034D01*
X0280304Y0089136D01*
X0280272Y0089237D01*
X0280236Y0089337D01*
X0280197Y0089435D01*
X0280154Y0089532D01*
X0280108Y0089627D01*
X0280058Y0089721D01*
X0280005Y0089813D01*
X0279948Y0089902D01*
X0279889Y0089990D01*
X0279826Y0090075D01*
X0279760Y0090158D01*
X0279691Y0090239D01*
X0279620Y0090317D01*
X0279545Y0090392D01*
X0279468Y0090465D01*
X0272300Y0097312D02*
X0272300Y0100381D01*
X0272300Y0098846D02*
X0267696Y0098846D01*
X0269231Y0097312D01*
X0269998Y0101916D02*
X0269231Y0103450D01*
X0269231Y0104218D01*
X0269998Y0104985D01*
X0271533Y0104985D01*
X0272300Y0104218D01*
X0272300Y0102683D01*
X0271533Y0101916D01*
X0269998Y0101916D02*
X0267696Y0101916D01*
X0267696Y0104985D01*
X0269998Y0106520D02*
X0269998Y0109589D01*
X0267696Y0108822D02*
X0269998Y0106520D01*
X0272300Y0108822D02*
X0267696Y0108822D01*
X0267696Y0117500D02*
X0272300Y0117500D01*
X0272300Y0120569D01*
X0272300Y0122104D02*
X0267696Y0122104D01*
X0267696Y0125173D01*
X0267696Y0126708D02*
X0267696Y0129010D01*
X0268463Y0129777D01*
X0271533Y0129777D01*
X0272300Y0129010D01*
X0272300Y0126708D01*
X0267696Y0126708D01*
X0272300Y0125173D02*
X0272300Y0122104D01*
X0269998Y0122104D02*
X0269998Y0123639D01*
X0275532Y0124465D02*
X0275455Y0124392D01*
X0275380Y0124317D01*
X0275309Y0124239D01*
X0275240Y0124158D01*
X0275174Y0124075D01*
X0275111Y0123990D01*
X0275052Y0123902D01*
X0274995Y0123813D01*
X0274942Y0123721D01*
X0274892Y0123627D01*
X0274846Y0123532D01*
X0274803Y0123435D01*
X0274764Y0123337D01*
X0274728Y0123237D01*
X0274696Y0123136D01*
X0274668Y0123034D01*
X0274643Y0122931D01*
X0274622Y0122827D01*
X0274605Y0122722D01*
X0274591Y0122617D01*
X0274582Y0122512D01*
X0274576Y0122406D01*
X0274574Y0122300D01*
X0274576Y0122194D01*
X0274582Y0122088D01*
X0274591Y0121983D01*
X0274605Y0121878D01*
X0274622Y0121773D01*
X0274643Y0121669D01*
X0274668Y0121566D01*
X0274696Y0121464D01*
X0274728Y0121363D01*
X0274764Y0121263D01*
X0274803Y0121165D01*
X0274846Y0121068D01*
X0274892Y0120973D01*
X0274942Y0120879D01*
X0274995Y0120787D01*
X0275052Y0120698D01*
X0275111Y0120610D01*
X0275174Y0120525D01*
X0275240Y0120442D01*
X0275309Y0120361D01*
X0275380Y0120283D01*
X0275455Y0120208D01*
X0275532Y0120135D01*
X0279468Y0120135D02*
X0279545Y0120208D01*
X0279620Y0120283D01*
X0279691Y0120361D01*
X0279760Y0120442D01*
X0279826Y0120525D01*
X0279889Y0120610D01*
X0279948Y0120698D01*
X0280005Y0120787D01*
X0280058Y0120879D01*
X0280108Y0120973D01*
X0280154Y0121068D01*
X0280197Y0121165D01*
X0280236Y0121263D01*
X0280272Y0121363D01*
X0280304Y0121464D01*
X0280332Y0121566D01*
X0280357Y0121669D01*
X0280378Y0121773D01*
X0280395Y0121878D01*
X0280409Y0121983D01*
X0280418Y0122088D01*
X0280424Y0122194D01*
X0280426Y0122300D01*
X0280424Y0122406D01*
X0280418Y0122512D01*
X0280409Y0122617D01*
X0280395Y0122722D01*
X0280378Y0122827D01*
X0280357Y0122931D01*
X0280332Y0123034D01*
X0280304Y0123136D01*
X0280272Y0123237D01*
X0280236Y0123337D01*
X0280197Y0123435D01*
X0280154Y0123532D01*
X0280108Y0123627D01*
X0280058Y0123721D01*
X0280005Y0123813D01*
X0279948Y0123902D01*
X0279889Y0123990D01*
X0279826Y0124075D01*
X0279760Y0124158D01*
X0279691Y0124239D01*
X0279620Y0124317D01*
X0279545Y0124392D01*
X0279468Y0124465D01*
X0272300Y0131312D02*
X0272300Y0134381D01*
X0272300Y0132846D02*
X0267696Y0132846D01*
X0269231Y0131312D01*
X0269998Y0135916D02*
X0269231Y0137450D01*
X0269231Y0138218D01*
X0269998Y0138985D01*
X0271533Y0138985D01*
X0272300Y0138218D01*
X0272300Y0136683D01*
X0271533Y0135916D01*
X0269998Y0135916D02*
X0267696Y0135916D01*
X0267696Y0138985D01*
X0267696Y0140520D02*
X0269998Y0140520D01*
X0269231Y0142054D01*
X0269231Y0142822D01*
X0269998Y0143589D01*
X0271533Y0143589D01*
X0272300Y0142822D01*
X0272300Y0141287D01*
X0271533Y0140520D01*
X0267696Y0140520D02*
X0267696Y0143589D01*
X0267696Y0151000D02*
X0272300Y0151000D01*
X0272300Y0154069D01*
X0272300Y0155604D02*
X0272300Y0158673D01*
X0272300Y0160208D02*
X0267696Y0160208D01*
X0267696Y0162510D01*
X0268463Y0163277D01*
X0271533Y0163277D01*
X0272300Y0162510D01*
X0272300Y0160208D01*
X0267696Y0158673D02*
X0267696Y0155604D01*
X0272300Y0155604D01*
X0269998Y0155604D02*
X0269998Y0157139D01*
X0275532Y0157965D02*
X0275455Y0157892D01*
X0275380Y0157817D01*
X0275309Y0157739D01*
X0275240Y0157658D01*
X0275174Y0157575D01*
X0275111Y0157490D01*
X0275052Y0157402D01*
X0274995Y0157313D01*
X0274942Y0157221D01*
X0274892Y0157127D01*
X0274846Y0157032D01*
X0274803Y0156935D01*
X0274764Y0156837D01*
X0274728Y0156737D01*
X0274696Y0156636D01*
X0274668Y0156534D01*
X0274643Y0156431D01*
X0274622Y0156327D01*
X0274605Y0156222D01*
X0274591Y0156117D01*
X0274582Y0156012D01*
X0274576Y0155906D01*
X0274574Y0155800D01*
X0274576Y0155694D01*
X0274582Y0155588D01*
X0274591Y0155483D01*
X0274605Y0155378D01*
X0274622Y0155273D01*
X0274643Y0155169D01*
X0274668Y0155066D01*
X0274696Y0154964D01*
X0274728Y0154863D01*
X0274764Y0154763D01*
X0274803Y0154665D01*
X0274846Y0154568D01*
X0274892Y0154473D01*
X0274942Y0154379D01*
X0274995Y0154287D01*
X0275052Y0154198D01*
X0275111Y0154110D01*
X0275174Y0154025D01*
X0275240Y0153942D01*
X0275309Y0153861D01*
X0275380Y0153783D01*
X0275455Y0153708D01*
X0275532Y0153635D01*
X0279468Y0153635D02*
X0279545Y0153708D01*
X0279620Y0153783D01*
X0279691Y0153861D01*
X0279760Y0153942D01*
X0279826Y0154025D01*
X0279889Y0154110D01*
X0279948Y0154198D01*
X0280005Y0154287D01*
X0280058Y0154379D01*
X0280108Y0154473D01*
X0280154Y0154568D01*
X0280197Y0154665D01*
X0280236Y0154763D01*
X0280272Y0154863D01*
X0280304Y0154964D01*
X0280332Y0155066D01*
X0280357Y0155169D01*
X0280378Y0155273D01*
X0280395Y0155378D01*
X0280409Y0155483D01*
X0280418Y0155588D01*
X0280424Y0155694D01*
X0280426Y0155800D01*
X0280424Y0155906D01*
X0280418Y0156012D01*
X0280409Y0156117D01*
X0280395Y0156222D01*
X0280378Y0156327D01*
X0280357Y0156431D01*
X0280332Y0156534D01*
X0280304Y0156636D01*
X0280272Y0156737D01*
X0280236Y0156837D01*
X0280197Y0156935D01*
X0280154Y0157032D01*
X0280108Y0157127D01*
X0280058Y0157221D01*
X0280005Y0157313D01*
X0279948Y0157402D01*
X0279889Y0157490D01*
X0279826Y0157575D01*
X0279760Y0157658D01*
X0279691Y0157739D01*
X0279620Y0157817D01*
X0279545Y0157892D01*
X0279468Y0157965D01*
X0272300Y0164812D02*
X0272300Y0167881D01*
X0272300Y0166346D02*
X0267696Y0166346D01*
X0269231Y0164812D01*
X0269998Y0169416D02*
X0269231Y0170950D01*
X0269231Y0171718D01*
X0269998Y0172485D01*
X0271533Y0172485D01*
X0272300Y0171718D01*
X0272300Y0170183D01*
X0271533Y0169416D01*
X0269998Y0169416D02*
X0267696Y0169416D01*
X0267696Y0172485D01*
X0269998Y0174020D02*
X0269998Y0176322D01*
X0270765Y0177089D01*
X0271533Y0177089D01*
X0272300Y0176322D01*
X0272300Y0174787D01*
X0271533Y0174020D01*
X0269998Y0174020D01*
X0268463Y0175554D01*
X0267696Y0177089D01*
X0267696Y0180500D02*
X0272300Y0180500D01*
X0272300Y0183569D01*
X0272300Y0185104D02*
X0267696Y0185104D01*
X0267696Y0188173D01*
X0267696Y0189708D02*
X0267696Y0192010D01*
X0268463Y0192777D01*
X0271533Y0192777D01*
X0272300Y0192010D01*
X0272300Y0189708D01*
X0267696Y0189708D01*
X0269998Y0186639D02*
X0269998Y0185104D01*
X0272300Y0185104D02*
X0272300Y0188173D01*
X0275532Y0187465D02*
X0275455Y0187392D01*
X0275380Y0187317D01*
X0275309Y0187239D01*
X0275240Y0187158D01*
X0275174Y0187075D01*
X0275111Y0186990D01*
X0275052Y0186902D01*
X0274995Y0186813D01*
X0274942Y0186721D01*
X0274892Y0186627D01*
X0274846Y0186532D01*
X0274803Y0186435D01*
X0274764Y0186337D01*
X0274728Y0186237D01*
X0274696Y0186136D01*
X0274668Y0186034D01*
X0274643Y0185931D01*
X0274622Y0185827D01*
X0274605Y0185722D01*
X0274591Y0185617D01*
X0274582Y0185512D01*
X0274576Y0185406D01*
X0274574Y0185300D01*
X0274576Y0185194D01*
X0274582Y0185088D01*
X0274591Y0184983D01*
X0274605Y0184878D01*
X0274622Y0184773D01*
X0274643Y0184669D01*
X0274668Y0184566D01*
X0274696Y0184464D01*
X0274728Y0184363D01*
X0274764Y0184263D01*
X0274803Y0184165D01*
X0274846Y0184068D01*
X0274892Y0183973D01*
X0274942Y0183879D01*
X0274995Y0183787D01*
X0275052Y0183698D01*
X0275111Y0183610D01*
X0275174Y0183525D01*
X0275240Y0183442D01*
X0275309Y0183361D01*
X0275380Y0183283D01*
X0275455Y0183208D01*
X0275532Y0183135D01*
X0279468Y0183135D02*
X0279545Y0183208D01*
X0279620Y0183283D01*
X0279691Y0183361D01*
X0279760Y0183442D01*
X0279826Y0183525D01*
X0279889Y0183610D01*
X0279948Y0183698D01*
X0280005Y0183787D01*
X0280058Y0183879D01*
X0280108Y0183973D01*
X0280154Y0184068D01*
X0280197Y0184165D01*
X0280236Y0184263D01*
X0280272Y0184363D01*
X0280304Y0184464D01*
X0280332Y0184566D01*
X0280357Y0184669D01*
X0280378Y0184773D01*
X0280395Y0184878D01*
X0280409Y0184983D01*
X0280418Y0185088D01*
X0280424Y0185194D01*
X0280426Y0185300D01*
X0280424Y0185406D01*
X0280418Y0185512D01*
X0280409Y0185617D01*
X0280395Y0185722D01*
X0280378Y0185827D01*
X0280357Y0185931D01*
X0280332Y0186034D01*
X0280304Y0186136D01*
X0280272Y0186237D01*
X0280236Y0186337D01*
X0280197Y0186435D01*
X0280154Y0186532D01*
X0280108Y0186627D01*
X0280058Y0186721D01*
X0280005Y0186813D01*
X0279948Y0186902D01*
X0279889Y0186990D01*
X0279826Y0187075D01*
X0279760Y0187158D01*
X0279691Y0187239D01*
X0279620Y0187317D01*
X0279545Y0187392D01*
X0279468Y0187465D01*
X0272300Y0194312D02*
X0272300Y0197381D01*
X0272300Y0195846D02*
X0267696Y0195846D01*
X0269231Y0194312D01*
X0269998Y0198916D02*
X0269231Y0200450D01*
X0269231Y0201218D01*
X0269998Y0201985D01*
X0271533Y0201985D01*
X0272300Y0201218D01*
X0272300Y0199683D01*
X0271533Y0198916D01*
X0269998Y0198916D02*
X0267696Y0198916D01*
X0267696Y0201985D01*
X0267696Y0203520D02*
X0267696Y0206589D01*
X0268463Y0206589D01*
X0271533Y0203520D01*
X0272300Y0203520D01*
X0352696Y0204985D02*
X0353463Y0203450D01*
X0354998Y0201916D01*
X0354998Y0204218D01*
X0355765Y0204985D01*
X0356533Y0204985D01*
X0357300Y0204218D01*
X0357300Y0202683D01*
X0356533Y0201916D01*
X0354998Y0201916D01*
X0357300Y0200381D02*
X0357300Y0197312D01*
X0357300Y0198846D02*
X0352696Y0198846D01*
X0354231Y0197312D01*
X0353463Y0195777D02*
X0352696Y0195010D01*
X0352696Y0192708D01*
X0357300Y0192708D01*
X0357300Y0195010D01*
X0356533Y0195777D01*
X0353463Y0195777D01*
X0352696Y0191173D02*
X0352696Y0188104D01*
X0357300Y0188104D01*
X0357300Y0191173D01*
X0354998Y0189639D02*
X0354998Y0188104D01*
X0357300Y0186569D02*
X0357300Y0183500D01*
X0352696Y0183500D01*
X0353463Y0179089D02*
X0352696Y0178322D01*
X0352696Y0176787D01*
X0353463Y0176020D01*
X0352696Y0174485D02*
X0353463Y0172950D01*
X0354998Y0171416D01*
X0354998Y0173718D01*
X0355765Y0174485D01*
X0356533Y0174485D01*
X0357300Y0173718D01*
X0357300Y0172183D01*
X0356533Y0171416D01*
X0354998Y0171416D01*
X0357300Y0169881D02*
X0357300Y0166812D01*
X0357300Y0168346D02*
X0352696Y0168346D01*
X0354231Y0166812D01*
X0353463Y0165277D02*
X0352696Y0164510D01*
X0352696Y0162208D01*
X0357300Y0162208D01*
X0357300Y0164510D01*
X0356533Y0165277D01*
X0353463Y0165277D01*
X0352696Y0160673D02*
X0352696Y0157604D01*
X0357300Y0157604D01*
X0357300Y0160673D01*
X0354998Y0159139D02*
X0354998Y0157604D01*
X0357300Y0156069D02*
X0357300Y0153000D01*
X0352696Y0153000D01*
X0360532Y0155635D02*
X0360455Y0155708D01*
X0360380Y0155783D01*
X0360309Y0155861D01*
X0360240Y0155942D01*
X0360174Y0156025D01*
X0360111Y0156110D01*
X0360052Y0156198D01*
X0359995Y0156287D01*
X0359942Y0156379D01*
X0359892Y0156473D01*
X0359846Y0156568D01*
X0359803Y0156665D01*
X0359764Y0156763D01*
X0359728Y0156863D01*
X0359696Y0156964D01*
X0359668Y0157066D01*
X0359643Y0157169D01*
X0359622Y0157273D01*
X0359605Y0157378D01*
X0359591Y0157483D01*
X0359582Y0157588D01*
X0359576Y0157694D01*
X0359574Y0157800D01*
X0359576Y0157906D01*
X0359582Y0158012D01*
X0359591Y0158117D01*
X0359605Y0158222D01*
X0359622Y0158327D01*
X0359643Y0158431D01*
X0359668Y0158534D01*
X0359696Y0158636D01*
X0359728Y0158737D01*
X0359764Y0158837D01*
X0359803Y0158935D01*
X0359846Y0159032D01*
X0359892Y0159127D01*
X0359942Y0159221D01*
X0359995Y0159313D01*
X0360052Y0159402D01*
X0360111Y0159490D01*
X0360174Y0159575D01*
X0360240Y0159658D01*
X0360309Y0159739D01*
X0360380Y0159817D01*
X0360455Y0159892D01*
X0360532Y0159965D01*
X0364468Y0159965D02*
X0364545Y0159892D01*
X0364620Y0159817D01*
X0364691Y0159739D01*
X0364760Y0159658D01*
X0364826Y0159575D01*
X0364889Y0159490D01*
X0364948Y0159402D01*
X0365005Y0159313D01*
X0365058Y0159221D01*
X0365108Y0159127D01*
X0365154Y0159032D01*
X0365197Y0158935D01*
X0365236Y0158837D01*
X0365272Y0158737D01*
X0365304Y0158636D01*
X0365332Y0158534D01*
X0365357Y0158431D01*
X0365378Y0158327D01*
X0365395Y0158222D01*
X0365409Y0158117D01*
X0365418Y0158012D01*
X0365424Y0157906D01*
X0365426Y0157800D01*
X0365424Y0157694D01*
X0365418Y0157588D01*
X0365409Y0157483D01*
X0365395Y0157378D01*
X0365378Y0157273D01*
X0365357Y0157169D01*
X0365332Y0157066D01*
X0365304Y0156964D01*
X0365272Y0156863D01*
X0365236Y0156763D01*
X0365197Y0156665D01*
X0365154Y0156568D01*
X0365108Y0156473D01*
X0365058Y0156379D01*
X0365005Y0156287D01*
X0364948Y0156198D01*
X0364889Y0156110D01*
X0364826Y0156025D01*
X0364760Y0155942D01*
X0364691Y0155861D01*
X0364620Y0155783D01*
X0364545Y0155708D01*
X0364468Y0155635D01*
X0357300Y0144589D02*
X0357300Y0141520D01*
X0357300Y0143054D02*
X0352696Y0143054D01*
X0354231Y0141520D01*
X0355765Y0139985D02*
X0354998Y0139218D01*
X0354998Y0136916D01*
X0356533Y0136916D01*
X0357300Y0137683D01*
X0357300Y0139218D01*
X0356533Y0139985D01*
X0355765Y0139985D01*
X0353463Y0138450D02*
X0354998Y0136916D01*
X0353463Y0138450D02*
X0352696Y0139985D01*
X0357300Y0135381D02*
X0357300Y0132312D01*
X0357300Y0133846D02*
X0352696Y0133846D01*
X0354231Y0132312D01*
X0353463Y0130777D02*
X0356533Y0130777D01*
X0357300Y0130010D01*
X0357300Y0127708D01*
X0352696Y0127708D01*
X0352696Y0130010D01*
X0353463Y0130777D01*
X0352696Y0126173D02*
X0352696Y0123104D01*
X0357300Y0123104D01*
X0357300Y0126173D01*
X0354998Y0124639D02*
X0354998Y0123104D01*
X0357300Y0121569D02*
X0357300Y0118500D01*
X0352696Y0118500D01*
X0360532Y0121135D02*
X0360455Y0121208D01*
X0360380Y0121283D01*
X0360309Y0121361D01*
X0360240Y0121442D01*
X0360174Y0121525D01*
X0360111Y0121610D01*
X0360052Y0121698D01*
X0359995Y0121787D01*
X0359942Y0121879D01*
X0359892Y0121973D01*
X0359846Y0122068D01*
X0359803Y0122165D01*
X0359764Y0122263D01*
X0359728Y0122363D01*
X0359696Y0122464D01*
X0359668Y0122566D01*
X0359643Y0122669D01*
X0359622Y0122773D01*
X0359605Y0122878D01*
X0359591Y0122983D01*
X0359582Y0123088D01*
X0359576Y0123194D01*
X0359574Y0123300D01*
X0359576Y0123406D01*
X0359582Y0123512D01*
X0359591Y0123617D01*
X0359605Y0123722D01*
X0359622Y0123827D01*
X0359643Y0123931D01*
X0359668Y0124034D01*
X0359696Y0124136D01*
X0359728Y0124237D01*
X0359764Y0124337D01*
X0359803Y0124435D01*
X0359846Y0124532D01*
X0359892Y0124627D01*
X0359942Y0124721D01*
X0359995Y0124813D01*
X0360052Y0124902D01*
X0360111Y0124990D01*
X0360174Y0125075D01*
X0360240Y0125158D01*
X0360309Y0125239D01*
X0360380Y0125317D01*
X0360455Y0125392D01*
X0360532Y0125465D01*
X0364468Y0125465D02*
X0364545Y0125392D01*
X0364620Y0125317D01*
X0364691Y0125239D01*
X0364760Y0125158D01*
X0364826Y0125075D01*
X0364889Y0124990D01*
X0364948Y0124902D01*
X0365005Y0124813D01*
X0365058Y0124721D01*
X0365108Y0124627D01*
X0365154Y0124532D01*
X0365197Y0124435D01*
X0365236Y0124337D01*
X0365272Y0124237D01*
X0365304Y0124136D01*
X0365332Y0124034D01*
X0365357Y0123931D01*
X0365378Y0123827D01*
X0365395Y0123722D01*
X0365409Y0123617D01*
X0365418Y0123512D01*
X0365424Y0123406D01*
X0365426Y0123300D01*
X0365424Y0123194D01*
X0365418Y0123088D01*
X0365409Y0122983D01*
X0365395Y0122878D01*
X0365378Y0122773D01*
X0365357Y0122669D01*
X0365332Y0122566D01*
X0365304Y0122464D01*
X0365272Y0122363D01*
X0365236Y0122263D01*
X0365197Y0122165D01*
X0365154Y0122068D01*
X0365108Y0121973D01*
X0365058Y0121879D01*
X0365005Y0121787D01*
X0364948Y0121698D01*
X0364889Y0121610D01*
X0364826Y0121525D01*
X0364760Y0121442D01*
X0364691Y0121361D01*
X0364620Y0121283D01*
X0364545Y0121208D01*
X0364468Y0121135D01*
X0356533Y0110589D02*
X0353463Y0110589D01*
X0356533Y0107520D01*
X0357300Y0108287D01*
X0357300Y0109822D01*
X0356533Y0110589D01*
X0356533Y0107520D02*
X0353463Y0107520D01*
X0352696Y0108287D01*
X0352696Y0109822D01*
X0353463Y0110589D01*
X0352696Y0105985D02*
X0353463Y0104450D01*
X0354998Y0102916D01*
X0354998Y0105218D01*
X0355765Y0105985D01*
X0356533Y0105985D01*
X0357300Y0105218D01*
X0357300Y0103683D01*
X0356533Y0102916D01*
X0354998Y0102916D01*
X0357300Y0101381D02*
X0357300Y0098312D01*
X0357300Y0099846D02*
X0352696Y0099846D01*
X0354231Y0098312D01*
X0353463Y0096777D02*
X0352696Y0096010D01*
X0352696Y0093708D01*
X0357300Y0093708D01*
X0357300Y0096010D01*
X0356533Y0096777D01*
X0353463Y0096777D01*
X0352696Y0092173D02*
X0352696Y0089104D01*
X0357300Y0089104D01*
X0357300Y0092173D01*
X0354998Y0090639D02*
X0354998Y0089104D01*
X0357300Y0087569D02*
X0357300Y0084500D01*
X0352696Y0084500D01*
X0353463Y0077089D02*
X0352696Y0076322D01*
X0352696Y0074787D01*
X0353463Y0074020D01*
X0354231Y0074020D01*
X0354998Y0074787D01*
X0354998Y0077089D01*
X0356533Y0077089D02*
X0353463Y0077089D01*
X0356533Y0077089D02*
X0357300Y0076322D01*
X0357300Y0074787D01*
X0356533Y0074020D01*
X0356533Y0072485D02*
X0357300Y0071718D01*
X0357300Y0070183D01*
X0356533Y0069416D01*
X0354998Y0069416D02*
X0354231Y0070950D01*
X0354231Y0071718D01*
X0354998Y0072485D01*
X0356533Y0072485D01*
X0354998Y0069416D02*
X0352696Y0069416D01*
X0352696Y0072485D01*
X0352696Y0066346D02*
X0357300Y0066346D01*
X0357300Y0064812D02*
X0357300Y0067881D01*
X0354231Y0064812D02*
X0352696Y0066346D01*
X0353463Y0063277D02*
X0352696Y0062510D01*
X0352696Y0060208D01*
X0357300Y0060208D01*
X0357300Y0062510D01*
X0356533Y0063277D01*
X0353463Y0063277D01*
X0352696Y0058673D02*
X0352696Y0055604D01*
X0357300Y0055604D01*
X0357300Y0058673D01*
X0354998Y0057139D02*
X0354998Y0055604D01*
X0357300Y0054069D02*
X0357300Y0051000D01*
X0352696Y0051000D01*
X0360532Y0053635D02*
X0360455Y0053708D01*
X0360380Y0053783D01*
X0360309Y0053861D01*
X0360240Y0053942D01*
X0360174Y0054025D01*
X0360111Y0054110D01*
X0360052Y0054198D01*
X0359995Y0054287D01*
X0359942Y0054379D01*
X0359892Y0054473D01*
X0359846Y0054568D01*
X0359803Y0054665D01*
X0359764Y0054763D01*
X0359728Y0054863D01*
X0359696Y0054964D01*
X0359668Y0055066D01*
X0359643Y0055169D01*
X0359622Y0055273D01*
X0359605Y0055378D01*
X0359591Y0055483D01*
X0359582Y0055588D01*
X0359576Y0055694D01*
X0359574Y0055800D01*
X0359576Y0055906D01*
X0359582Y0056012D01*
X0359591Y0056117D01*
X0359605Y0056222D01*
X0359622Y0056327D01*
X0359643Y0056431D01*
X0359668Y0056534D01*
X0359696Y0056636D01*
X0359728Y0056737D01*
X0359764Y0056837D01*
X0359803Y0056935D01*
X0359846Y0057032D01*
X0359892Y0057127D01*
X0359942Y0057221D01*
X0359995Y0057313D01*
X0360052Y0057402D01*
X0360111Y0057490D01*
X0360174Y0057575D01*
X0360240Y0057658D01*
X0360309Y0057739D01*
X0360380Y0057817D01*
X0360455Y0057892D01*
X0360532Y0057965D01*
X0364468Y0057965D02*
X0364545Y0057892D01*
X0364620Y0057817D01*
X0364691Y0057739D01*
X0364760Y0057658D01*
X0364826Y0057575D01*
X0364889Y0057490D01*
X0364948Y0057402D01*
X0365005Y0057313D01*
X0365058Y0057221D01*
X0365108Y0057127D01*
X0365154Y0057032D01*
X0365197Y0056935D01*
X0365236Y0056837D01*
X0365272Y0056737D01*
X0365304Y0056636D01*
X0365332Y0056534D01*
X0365357Y0056431D01*
X0365378Y0056327D01*
X0365395Y0056222D01*
X0365409Y0056117D01*
X0365418Y0056012D01*
X0365424Y0055906D01*
X0365426Y0055800D01*
X0365424Y0055694D01*
X0365418Y0055588D01*
X0365409Y0055483D01*
X0365395Y0055378D01*
X0365378Y0055273D01*
X0365357Y0055169D01*
X0365332Y0055066D01*
X0365304Y0054964D01*
X0365272Y0054863D01*
X0365236Y0054763D01*
X0365197Y0054665D01*
X0365154Y0054568D01*
X0365108Y0054473D01*
X0365058Y0054379D01*
X0365005Y0054287D01*
X0364948Y0054198D01*
X0364889Y0054110D01*
X0364826Y0054025D01*
X0364760Y0053942D01*
X0364691Y0053861D01*
X0364620Y0053783D01*
X0364545Y0053708D01*
X0364468Y0053635D01*
X0356533Y0039589D02*
X0357300Y0038822D01*
X0357300Y0037287D01*
X0356533Y0036520D01*
X0355765Y0036520D01*
X0354998Y0037287D01*
X0354998Y0038822D01*
X0355765Y0039589D01*
X0356533Y0039589D01*
X0354998Y0038822D02*
X0354231Y0039589D01*
X0353463Y0039589D01*
X0352696Y0038822D01*
X0352696Y0037287D01*
X0353463Y0036520D01*
X0354231Y0036520D01*
X0354998Y0037287D01*
X0354998Y0034985D02*
X0356533Y0034985D01*
X0357300Y0034218D01*
X0357300Y0032683D01*
X0356533Y0031916D01*
X0354998Y0031916D02*
X0354231Y0033450D01*
X0354231Y0034218D01*
X0354998Y0034985D01*
X0352696Y0034985D02*
X0352696Y0031916D01*
X0354998Y0031916D01*
X0357300Y0030381D02*
X0357300Y0027312D01*
X0357300Y0028846D02*
X0352696Y0028846D01*
X0354231Y0027312D01*
X0353463Y0025777D02*
X0356533Y0025777D01*
X0357300Y0025010D01*
X0357300Y0022708D01*
X0352696Y0022708D01*
X0352696Y0025010D01*
X0353463Y0025777D01*
X0352696Y0021173D02*
X0352696Y0018104D01*
X0357300Y0018104D01*
X0357300Y0021173D01*
X0354998Y0019639D02*
X0354998Y0018104D01*
X0357300Y0016569D02*
X0357300Y0013500D01*
X0352696Y0013500D01*
X0360532Y0016135D02*
X0360455Y0016208D01*
X0360380Y0016283D01*
X0360309Y0016361D01*
X0360240Y0016442D01*
X0360174Y0016525D01*
X0360111Y0016610D01*
X0360052Y0016698D01*
X0359995Y0016787D01*
X0359942Y0016879D01*
X0359892Y0016973D01*
X0359846Y0017068D01*
X0359803Y0017165D01*
X0359764Y0017263D01*
X0359728Y0017363D01*
X0359696Y0017464D01*
X0359668Y0017566D01*
X0359643Y0017669D01*
X0359622Y0017773D01*
X0359605Y0017878D01*
X0359591Y0017983D01*
X0359582Y0018088D01*
X0359576Y0018194D01*
X0359574Y0018300D01*
X0359576Y0018406D01*
X0359582Y0018512D01*
X0359591Y0018617D01*
X0359605Y0018722D01*
X0359622Y0018827D01*
X0359643Y0018931D01*
X0359668Y0019034D01*
X0359696Y0019136D01*
X0359728Y0019237D01*
X0359764Y0019337D01*
X0359803Y0019435D01*
X0359846Y0019532D01*
X0359892Y0019627D01*
X0359942Y0019721D01*
X0359995Y0019813D01*
X0360052Y0019902D01*
X0360111Y0019990D01*
X0360174Y0020075D01*
X0360240Y0020158D01*
X0360309Y0020239D01*
X0360380Y0020317D01*
X0360455Y0020392D01*
X0360532Y0020465D01*
X0364468Y0020465D02*
X0364545Y0020392D01*
X0364620Y0020317D01*
X0364691Y0020239D01*
X0364760Y0020158D01*
X0364826Y0020075D01*
X0364889Y0019990D01*
X0364948Y0019902D01*
X0365005Y0019813D01*
X0365058Y0019721D01*
X0365108Y0019627D01*
X0365154Y0019532D01*
X0365197Y0019435D01*
X0365236Y0019337D01*
X0365272Y0019237D01*
X0365304Y0019136D01*
X0365332Y0019034D01*
X0365357Y0018931D01*
X0365378Y0018827D01*
X0365395Y0018722D01*
X0365409Y0018617D01*
X0365418Y0018512D01*
X0365424Y0018406D01*
X0365426Y0018300D01*
X0365424Y0018194D01*
X0365418Y0018088D01*
X0365409Y0017983D01*
X0365395Y0017878D01*
X0365378Y0017773D01*
X0365357Y0017669D01*
X0365332Y0017566D01*
X0365304Y0017464D01*
X0365272Y0017363D01*
X0365236Y0017263D01*
X0365197Y0017165D01*
X0365154Y0017068D01*
X0365108Y0016973D01*
X0365058Y0016879D01*
X0365005Y0016787D01*
X0364948Y0016698D01*
X0364889Y0016610D01*
X0364826Y0016525D01*
X0364760Y0016442D01*
X0364691Y0016361D01*
X0364620Y0016283D01*
X0364545Y0016208D01*
X0364468Y0016135D01*
X0325115Y0016227D02*
X0323580Y0014692D01*
X0323580Y0015459D02*
X0323580Y0013157D01*
X0325115Y0013157D02*
X0320511Y0013157D01*
X0320511Y0015459D01*
X0321278Y0016227D01*
X0322813Y0016227D01*
X0323580Y0015459D01*
X0324348Y0017761D02*
X0325115Y0017761D01*
X0324348Y0017761D02*
X0321278Y0020831D01*
X0320511Y0020831D01*
X0320511Y0017761D01*
X0360532Y0087135D02*
X0360455Y0087208D01*
X0360380Y0087283D01*
X0360309Y0087361D01*
X0360240Y0087442D01*
X0360174Y0087525D01*
X0360111Y0087610D01*
X0360052Y0087698D01*
X0359995Y0087787D01*
X0359942Y0087879D01*
X0359892Y0087973D01*
X0359846Y0088068D01*
X0359803Y0088165D01*
X0359764Y0088263D01*
X0359728Y0088363D01*
X0359696Y0088464D01*
X0359668Y0088566D01*
X0359643Y0088669D01*
X0359622Y0088773D01*
X0359605Y0088878D01*
X0359591Y0088983D01*
X0359582Y0089088D01*
X0359576Y0089194D01*
X0359574Y0089300D01*
X0359576Y0089406D01*
X0359582Y0089512D01*
X0359591Y0089617D01*
X0359605Y0089722D01*
X0359622Y0089827D01*
X0359643Y0089931D01*
X0359668Y0090034D01*
X0359696Y0090136D01*
X0359728Y0090237D01*
X0359764Y0090337D01*
X0359803Y0090435D01*
X0359846Y0090532D01*
X0359892Y0090627D01*
X0359942Y0090721D01*
X0359995Y0090813D01*
X0360052Y0090902D01*
X0360111Y0090990D01*
X0360174Y0091075D01*
X0360240Y0091158D01*
X0360309Y0091239D01*
X0360380Y0091317D01*
X0360455Y0091392D01*
X0360532Y0091465D01*
X0364468Y0091465D02*
X0364545Y0091392D01*
X0364620Y0091317D01*
X0364691Y0091239D01*
X0364760Y0091158D01*
X0364826Y0091075D01*
X0364889Y0090990D01*
X0364948Y0090902D01*
X0365005Y0090813D01*
X0365058Y0090721D01*
X0365108Y0090627D01*
X0365154Y0090532D01*
X0365197Y0090435D01*
X0365236Y0090337D01*
X0365272Y0090237D01*
X0365304Y0090136D01*
X0365332Y0090034D01*
X0365357Y0089931D01*
X0365378Y0089827D01*
X0365395Y0089722D01*
X0365409Y0089617D01*
X0365418Y0089512D01*
X0365424Y0089406D01*
X0365426Y0089300D01*
X0365424Y0089194D01*
X0365418Y0089088D01*
X0365409Y0088983D01*
X0365395Y0088878D01*
X0365378Y0088773D01*
X0365357Y0088669D01*
X0365332Y0088566D01*
X0365304Y0088464D01*
X0365272Y0088363D01*
X0365236Y0088263D01*
X0365197Y0088165D01*
X0365154Y0088068D01*
X0365108Y0087973D01*
X0365058Y0087879D01*
X0365005Y0087787D01*
X0364948Y0087698D01*
X0364889Y0087610D01*
X0364826Y0087525D01*
X0364760Y0087442D01*
X0364691Y0087361D01*
X0364620Y0087283D01*
X0364545Y0087208D01*
X0364468Y0087135D01*
X0357300Y0176020D02*
X0354231Y0179089D01*
X0353463Y0179089D01*
X0357300Y0179089D02*
X0357300Y0176020D01*
X0360532Y0186135D02*
X0360455Y0186208D01*
X0360380Y0186283D01*
X0360309Y0186361D01*
X0360240Y0186442D01*
X0360174Y0186525D01*
X0360111Y0186610D01*
X0360052Y0186698D01*
X0359995Y0186787D01*
X0359942Y0186879D01*
X0359892Y0186973D01*
X0359846Y0187068D01*
X0359803Y0187165D01*
X0359764Y0187263D01*
X0359728Y0187363D01*
X0359696Y0187464D01*
X0359668Y0187566D01*
X0359643Y0187669D01*
X0359622Y0187773D01*
X0359605Y0187878D01*
X0359591Y0187983D01*
X0359582Y0188088D01*
X0359576Y0188194D01*
X0359574Y0188300D01*
X0359576Y0188406D01*
X0359582Y0188512D01*
X0359591Y0188617D01*
X0359605Y0188722D01*
X0359622Y0188827D01*
X0359643Y0188931D01*
X0359668Y0189034D01*
X0359696Y0189136D01*
X0359728Y0189237D01*
X0359764Y0189337D01*
X0359803Y0189435D01*
X0359846Y0189532D01*
X0359892Y0189627D01*
X0359942Y0189721D01*
X0359995Y0189813D01*
X0360052Y0189902D01*
X0360111Y0189990D01*
X0360174Y0190075D01*
X0360240Y0190158D01*
X0360309Y0190239D01*
X0360380Y0190317D01*
X0360455Y0190392D01*
X0360532Y0190465D01*
X0364468Y0190465D02*
X0364545Y0190392D01*
X0364620Y0190317D01*
X0364691Y0190239D01*
X0364760Y0190158D01*
X0364826Y0190075D01*
X0364889Y0189990D01*
X0364948Y0189902D01*
X0365005Y0189813D01*
X0365058Y0189721D01*
X0365108Y0189627D01*
X0365154Y0189532D01*
X0365197Y0189435D01*
X0365236Y0189337D01*
X0365272Y0189237D01*
X0365304Y0189136D01*
X0365332Y0189034D01*
X0365357Y0188931D01*
X0365378Y0188827D01*
X0365395Y0188722D01*
X0365409Y0188617D01*
X0365418Y0188512D01*
X0365424Y0188406D01*
X0365426Y0188300D01*
X0365424Y0188194D01*
X0365418Y0188088D01*
X0365409Y0187983D01*
X0365395Y0187878D01*
X0365378Y0187773D01*
X0365357Y0187669D01*
X0365332Y0187566D01*
X0365304Y0187464D01*
X0365272Y0187363D01*
X0365236Y0187263D01*
X0365197Y0187165D01*
X0365154Y0187068D01*
X0365108Y0186973D01*
X0365058Y0186879D01*
X0365005Y0186787D01*
X0364948Y0186698D01*
X0364889Y0186610D01*
X0364826Y0186525D01*
X0364760Y0186442D01*
X0364691Y0186361D01*
X0364620Y0186283D01*
X0364545Y0186208D01*
X0364468Y0186135D01*
X0356533Y0206520D02*
X0357300Y0207287D01*
X0357300Y0208822D01*
X0356533Y0209589D01*
X0355765Y0209589D01*
X0354998Y0208822D01*
X0354998Y0208054D01*
X0354998Y0208822D02*
X0354231Y0209589D01*
X0353463Y0209589D01*
X0352696Y0208822D01*
X0352696Y0207287D01*
X0353463Y0206520D01*
D14*
X0362500Y0188300D03*
X0362500Y0157800D03*
X0362500Y0123300D03*
X0362500Y0089300D03*
X0362500Y0055800D03*
X0362500Y0018300D03*
X0277500Y0018800D03*
X0277500Y0055800D03*
X0277500Y0088300D03*
X0277500Y0122300D03*
X0277500Y0155800D03*
X0277500Y0185300D03*
X0184000Y0181300D03*
X0184000Y0153800D03*
X0184000Y0121800D03*
X0184000Y0088800D03*
X0184000Y0055300D03*
X0184000Y0020800D03*
X0091500Y0022300D03*
X0091500Y0056800D03*
X0091500Y0088800D03*
X0091500Y0121300D03*
X0091500Y0151800D03*
X0091500Y0178800D03*
D15*
X0093764Y0180867D03*
X0093764Y0153867D03*
X0093764Y0123367D03*
X0093764Y0090867D03*
X0093764Y0058867D03*
X0093764Y0024367D03*
X0186264Y0022867D03*
X0186264Y0057367D03*
X0186264Y0090867D03*
X0186264Y0123867D03*
X0186264Y0155867D03*
X0186264Y0183367D03*
X0279764Y0187367D03*
X0279764Y0157867D03*
X0279764Y0124367D03*
X0279764Y0090367D03*
X0279764Y0057867D03*
X0279764Y0020867D03*
X0364764Y0020367D03*
X0364764Y0057867D03*
X0364764Y0091367D03*
X0364764Y0125367D03*
X0364764Y0159867D03*
X0364764Y0190367D03*
D16*
X0311094Y0167800D02*
X0311096Y0167953D01*
X0311102Y0168107D01*
X0311112Y0168260D01*
X0311126Y0168412D01*
X0311144Y0168565D01*
X0311166Y0168716D01*
X0311191Y0168867D01*
X0311221Y0169018D01*
X0311255Y0169168D01*
X0311292Y0169316D01*
X0311333Y0169464D01*
X0311378Y0169610D01*
X0311427Y0169756D01*
X0311480Y0169900D01*
X0311536Y0170042D01*
X0311596Y0170183D01*
X0311660Y0170323D01*
X0311727Y0170461D01*
X0311798Y0170597D01*
X0311873Y0170731D01*
X0311950Y0170863D01*
X0312032Y0170993D01*
X0312116Y0171121D01*
X0312204Y0171247D01*
X0312295Y0171370D01*
X0312389Y0171491D01*
X0312487Y0171609D01*
X0312587Y0171725D01*
X0312691Y0171838D01*
X0312797Y0171949D01*
X0312906Y0172057D01*
X0313018Y0172162D01*
X0313132Y0172263D01*
X0313250Y0172362D01*
X0313369Y0172458D01*
X0313491Y0172551D01*
X0313616Y0172640D01*
X0313743Y0172727D01*
X0313872Y0172809D01*
X0314003Y0172889D01*
X0314136Y0172965D01*
X0314271Y0173038D01*
X0314408Y0173107D01*
X0314547Y0173172D01*
X0314687Y0173234D01*
X0314829Y0173292D01*
X0314972Y0173347D01*
X0315117Y0173398D01*
X0315263Y0173445D01*
X0315410Y0173488D01*
X0315558Y0173527D01*
X0315707Y0173563D01*
X0315857Y0173594D01*
X0316008Y0173622D01*
X0316159Y0173646D01*
X0316312Y0173666D01*
X0316464Y0173682D01*
X0316617Y0173694D01*
X0316770Y0173702D01*
X0316923Y0173706D01*
X0317077Y0173706D01*
X0317230Y0173702D01*
X0317383Y0173694D01*
X0317536Y0173682D01*
X0317688Y0173666D01*
X0317841Y0173646D01*
X0317992Y0173622D01*
X0318143Y0173594D01*
X0318293Y0173563D01*
X0318442Y0173527D01*
X0318590Y0173488D01*
X0318737Y0173445D01*
X0318883Y0173398D01*
X0319028Y0173347D01*
X0319171Y0173292D01*
X0319313Y0173234D01*
X0319453Y0173172D01*
X0319592Y0173107D01*
X0319729Y0173038D01*
X0319864Y0172965D01*
X0319997Y0172889D01*
X0320128Y0172809D01*
X0320257Y0172727D01*
X0320384Y0172640D01*
X0320509Y0172551D01*
X0320631Y0172458D01*
X0320750Y0172362D01*
X0320868Y0172263D01*
X0320982Y0172162D01*
X0321094Y0172057D01*
X0321203Y0171949D01*
X0321309Y0171838D01*
X0321413Y0171725D01*
X0321513Y0171609D01*
X0321611Y0171491D01*
X0321705Y0171370D01*
X0321796Y0171247D01*
X0321884Y0171121D01*
X0321968Y0170993D01*
X0322050Y0170863D01*
X0322127Y0170731D01*
X0322202Y0170597D01*
X0322273Y0170461D01*
X0322340Y0170323D01*
X0322404Y0170183D01*
X0322464Y0170042D01*
X0322520Y0169900D01*
X0322573Y0169756D01*
X0322622Y0169610D01*
X0322667Y0169464D01*
X0322708Y0169316D01*
X0322745Y0169168D01*
X0322779Y0169018D01*
X0322809Y0168867D01*
X0322834Y0168716D01*
X0322856Y0168565D01*
X0322874Y0168412D01*
X0322888Y0168260D01*
X0322898Y0168107D01*
X0322904Y0167953D01*
X0322906Y0167800D01*
X0322904Y0167647D01*
X0322898Y0167493D01*
X0322888Y0167340D01*
X0322874Y0167188D01*
X0322856Y0167035D01*
X0322834Y0166884D01*
X0322809Y0166733D01*
X0322779Y0166582D01*
X0322745Y0166432D01*
X0322708Y0166284D01*
X0322667Y0166136D01*
X0322622Y0165990D01*
X0322573Y0165844D01*
X0322520Y0165700D01*
X0322464Y0165558D01*
X0322404Y0165417D01*
X0322340Y0165277D01*
X0322273Y0165139D01*
X0322202Y0165003D01*
X0322127Y0164869D01*
X0322050Y0164737D01*
X0321968Y0164607D01*
X0321884Y0164479D01*
X0321796Y0164353D01*
X0321705Y0164230D01*
X0321611Y0164109D01*
X0321513Y0163991D01*
X0321413Y0163875D01*
X0321309Y0163762D01*
X0321203Y0163651D01*
X0321094Y0163543D01*
X0320982Y0163438D01*
X0320868Y0163337D01*
X0320750Y0163238D01*
X0320631Y0163142D01*
X0320509Y0163049D01*
X0320384Y0162960D01*
X0320257Y0162873D01*
X0320128Y0162791D01*
X0319997Y0162711D01*
X0319864Y0162635D01*
X0319729Y0162562D01*
X0319592Y0162493D01*
X0319453Y0162428D01*
X0319313Y0162366D01*
X0319171Y0162308D01*
X0319028Y0162253D01*
X0318883Y0162202D01*
X0318737Y0162155D01*
X0318590Y0162112D01*
X0318442Y0162073D01*
X0318293Y0162037D01*
X0318143Y0162006D01*
X0317992Y0161978D01*
X0317841Y0161954D01*
X0317688Y0161934D01*
X0317536Y0161918D01*
X0317383Y0161906D01*
X0317230Y0161898D01*
X0317077Y0161894D01*
X0316923Y0161894D01*
X0316770Y0161898D01*
X0316617Y0161906D01*
X0316464Y0161918D01*
X0316312Y0161934D01*
X0316159Y0161954D01*
X0316008Y0161978D01*
X0315857Y0162006D01*
X0315707Y0162037D01*
X0315558Y0162073D01*
X0315410Y0162112D01*
X0315263Y0162155D01*
X0315117Y0162202D01*
X0314972Y0162253D01*
X0314829Y0162308D01*
X0314687Y0162366D01*
X0314547Y0162428D01*
X0314408Y0162493D01*
X0314271Y0162562D01*
X0314136Y0162635D01*
X0314003Y0162711D01*
X0313872Y0162791D01*
X0313743Y0162873D01*
X0313616Y0162960D01*
X0313491Y0163049D01*
X0313369Y0163142D01*
X0313250Y0163238D01*
X0313132Y0163337D01*
X0313018Y0163438D01*
X0312906Y0163543D01*
X0312797Y0163651D01*
X0312691Y0163762D01*
X0312587Y0163875D01*
X0312487Y0163991D01*
X0312389Y0164109D01*
X0312295Y0164230D01*
X0312204Y0164353D01*
X0312116Y0164479D01*
X0312032Y0164607D01*
X0311950Y0164737D01*
X0311873Y0164869D01*
X0311798Y0165003D01*
X0311727Y0165139D01*
X0311660Y0165277D01*
X0311596Y0165417D01*
X0311536Y0165558D01*
X0311480Y0165700D01*
X0311427Y0165844D01*
X0311378Y0165990D01*
X0311333Y0166136D01*
X0311292Y0166284D01*
X0311255Y0166432D01*
X0311221Y0166582D01*
X0311191Y0166733D01*
X0311166Y0166884D01*
X0311144Y0167035D01*
X0311126Y0167188D01*
X0311112Y0167340D01*
X0311102Y0167493D01*
X0311096Y0167647D01*
X0311094Y0167800D01*
X0240094Y0067300D02*
X0240096Y0067453D01*
X0240102Y0067607D01*
X0240112Y0067760D01*
X0240126Y0067912D01*
X0240144Y0068065D01*
X0240166Y0068216D01*
X0240191Y0068367D01*
X0240221Y0068518D01*
X0240255Y0068668D01*
X0240292Y0068816D01*
X0240333Y0068964D01*
X0240378Y0069110D01*
X0240427Y0069256D01*
X0240480Y0069400D01*
X0240536Y0069542D01*
X0240596Y0069683D01*
X0240660Y0069823D01*
X0240727Y0069961D01*
X0240798Y0070097D01*
X0240873Y0070231D01*
X0240950Y0070363D01*
X0241032Y0070493D01*
X0241116Y0070621D01*
X0241204Y0070747D01*
X0241295Y0070870D01*
X0241389Y0070991D01*
X0241487Y0071109D01*
X0241587Y0071225D01*
X0241691Y0071338D01*
X0241797Y0071449D01*
X0241906Y0071557D01*
X0242018Y0071662D01*
X0242132Y0071763D01*
X0242250Y0071862D01*
X0242369Y0071958D01*
X0242491Y0072051D01*
X0242616Y0072140D01*
X0242743Y0072227D01*
X0242872Y0072309D01*
X0243003Y0072389D01*
X0243136Y0072465D01*
X0243271Y0072538D01*
X0243408Y0072607D01*
X0243547Y0072672D01*
X0243687Y0072734D01*
X0243829Y0072792D01*
X0243972Y0072847D01*
X0244117Y0072898D01*
X0244263Y0072945D01*
X0244410Y0072988D01*
X0244558Y0073027D01*
X0244707Y0073063D01*
X0244857Y0073094D01*
X0245008Y0073122D01*
X0245159Y0073146D01*
X0245312Y0073166D01*
X0245464Y0073182D01*
X0245617Y0073194D01*
X0245770Y0073202D01*
X0245923Y0073206D01*
X0246077Y0073206D01*
X0246230Y0073202D01*
X0246383Y0073194D01*
X0246536Y0073182D01*
X0246688Y0073166D01*
X0246841Y0073146D01*
X0246992Y0073122D01*
X0247143Y0073094D01*
X0247293Y0073063D01*
X0247442Y0073027D01*
X0247590Y0072988D01*
X0247737Y0072945D01*
X0247883Y0072898D01*
X0248028Y0072847D01*
X0248171Y0072792D01*
X0248313Y0072734D01*
X0248453Y0072672D01*
X0248592Y0072607D01*
X0248729Y0072538D01*
X0248864Y0072465D01*
X0248997Y0072389D01*
X0249128Y0072309D01*
X0249257Y0072227D01*
X0249384Y0072140D01*
X0249509Y0072051D01*
X0249631Y0071958D01*
X0249750Y0071862D01*
X0249868Y0071763D01*
X0249982Y0071662D01*
X0250094Y0071557D01*
X0250203Y0071449D01*
X0250309Y0071338D01*
X0250413Y0071225D01*
X0250513Y0071109D01*
X0250611Y0070991D01*
X0250705Y0070870D01*
X0250796Y0070747D01*
X0250884Y0070621D01*
X0250968Y0070493D01*
X0251050Y0070363D01*
X0251127Y0070231D01*
X0251202Y0070097D01*
X0251273Y0069961D01*
X0251340Y0069823D01*
X0251404Y0069683D01*
X0251464Y0069542D01*
X0251520Y0069400D01*
X0251573Y0069256D01*
X0251622Y0069110D01*
X0251667Y0068964D01*
X0251708Y0068816D01*
X0251745Y0068668D01*
X0251779Y0068518D01*
X0251809Y0068367D01*
X0251834Y0068216D01*
X0251856Y0068065D01*
X0251874Y0067912D01*
X0251888Y0067760D01*
X0251898Y0067607D01*
X0251904Y0067453D01*
X0251906Y0067300D01*
X0251904Y0067147D01*
X0251898Y0066993D01*
X0251888Y0066840D01*
X0251874Y0066688D01*
X0251856Y0066535D01*
X0251834Y0066384D01*
X0251809Y0066233D01*
X0251779Y0066082D01*
X0251745Y0065932D01*
X0251708Y0065784D01*
X0251667Y0065636D01*
X0251622Y0065490D01*
X0251573Y0065344D01*
X0251520Y0065200D01*
X0251464Y0065058D01*
X0251404Y0064917D01*
X0251340Y0064777D01*
X0251273Y0064639D01*
X0251202Y0064503D01*
X0251127Y0064369D01*
X0251050Y0064237D01*
X0250968Y0064107D01*
X0250884Y0063979D01*
X0250796Y0063853D01*
X0250705Y0063730D01*
X0250611Y0063609D01*
X0250513Y0063491D01*
X0250413Y0063375D01*
X0250309Y0063262D01*
X0250203Y0063151D01*
X0250094Y0063043D01*
X0249982Y0062938D01*
X0249868Y0062837D01*
X0249750Y0062738D01*
X0249631Y0062642D01*
X0249509Y0062549D01*
X0249384Y0062460D01*
X0249257Y0062373D01*
X0249128Y0062291D01*
X0248997Y0062211D01*
X0248864Y0062135D01*
X0248729Y0062062D01*
X0248592Y0061993D01*
X0248453Y0061928D01*
X0248313Y0061866D01*
X0248171Y0061808D01*
X0248028Y0061753D01*
X0247883Y0061702D01*
X0247737Y0061655D01*
X0247590Y0061612D01*
X0247442Y0061573D01*
X0247293Y0061537D01*
X0247143Y0061506D01*
X0246992Y0061478D01*
X0246841Y0061454D01*
X0246688Y0061434D01*
X0246536Y0061418D01*
X0246383Y0061406D01*
X0246230Y0061398D01*
X0246077Y0061394D01*
X0245923Y0061394D01*
X0245770Y0061398D01*
X0245617Y0061406D01*
X0245464Y0061418D01*
X0245312Y0061434D01*
X0245159Y0061454D01*
X0245008Y0061478D01*
X0244857Y0061506D01*
X0244707Y0061537D01*
X0244558Y0061573D01*
X0244410Y0061612D01*
X0244263Y0061655D01*
X0244117Y0061702D01*
X0243972Y0061753D01*
X0243829Y0061808D01*
X0243687Y0061866D01*
X0243547Y0061928D01*
X0243408Y0061993D01*
X0243271Y0062062D01*
X0243136Y0062135D01*
X0243003Y0062211D01*
X0242872Y0062291D01*
X0242743Y0062373D01*
X0242616Y0062460D01*
X0242491Y0062549D01*
X0242369Y0062642D01*
X0242250Y0062738D01*
X0242132Y0062837D01*
X0242018Y0062938D01*
X0241906Y0063043D01*
X0241797Y0063151D01*
X0241691Y0063262D01*
X0241587Y0063375D01*
X0241487Y0063491D01*
X0241389Y0063609D01*
X0241295Y0063730D01*
X0241204Y0063853D01*
X0241116Y0063979D01*
X0241032Y0064107D01*
X0240950Y0064237D01*
X0240873Y0064369D01*
X0240798Y0064503D01*
X0240727Y0064639D01*
X0240660Y0064777D01*
X0240596Y0064917D01*
X0240536Y0065058D01*
X0240480Y0065200D01*
X0240427Y0065344D01*
X0240378Y0065490D01*
X0240333Y0065636D01*
X0240292Y0065784D01*
X0240255Y0065932D01*
X0240221Y0066082D01*
X0240191Y0066233D01*
X0240166Y0066384D01*
X0240144Y0066535D01*
X0240126Y0066688D01*
X0240112Y0066840D01*
X0240102Y0066993D01*
X0240096Y0067147D01*
X0240094Y0067300D01*
X0235280Y0047402D02*
X0257720Y0047402D01*
X0316780Y0046902D02*
X0339220Y0046902D01*
X0339220Y0008698D02*
X0316780Y0008698D01*
X0257720Y0009198D02*
X0235280Y0009198D01*
X0165220Y0011698D02*
X0142780Y0011698D01*
X0073220Y0014198D02*
X0050780Y0014198D01*
X0050780Y0052402D02*
X0073220Y0052402D01*
X0142780Y0049902D02*
X0165220Y0049902D01*
X0122500Y0148400D02*
X0109500Y0148400D01*
X0109500Y0174200D01*
X0122500Y0174200D01*
X0122500Y0148400D01*
D17*
X0069250Y0018050D03*
X0161250Y0015550D03*
X0253750Y0013050D03*
X0335250Y0012550D03*
D18*
X0284900Y0033400D02*
X0282698Y0033400D01*
X0283432Y0034134D01*
X0282698Y0034868D01*
X0284900Y0034868D01*
X0284900Y0035610D02*
X0282698Y0035610D01*
X0283432Y0036344D01*
X0282698Y0037078D01*
X0284900Y0037078D01*
X0284900Y0037820D02*
X0284533Y0037820D01*
X0283065Y0039288D01*
X0282698Y0039288D01*
X0282698Y0037820D01*
X0283799Y0040030D02*
X0283799Y0041498D01*
X0283799Y0042240D02*
X0283799Y0043707D01*
X0283065Y0044449D02*
X0284533Y0044449D01*
X0284900Y0044816D01*
X0284900Y0045550D01*
X0284533Y0045917D01*
X0284533Y0046659D02*
X0284900Y0047026D01*
X0284900Y0047760D01*
X0284533Y0048127D01*
X0283799Y0048127D01*
X0283432Y0047760D01*
X0283432Y0047393D01*
X0283799Y0046659D01*
X0282698Y0046659D01*
X0282698Y0048127D01*
X0283065Y0048869D02*
X0283432Y0048869D01*
X0283799Y0049236D01*
X0283799Y0050337D01*
X0283065Y0050337D02*
X0282698Y0049970D01*
X0282698Y0049236D01*
X0283065Y0048869D01*
X0284533Y0048869D02*
X0284900Y0049236D01*
X0284900Y0049970D01*
X0284533Y0050337D01*
X0283065Y0050337D01*
X0282698Y0051079D02*
X0283799Y0051079D01*
X0283432Y0051813D01*
X0283432Y0052180D01*
X0283799Y0052547D01*
X0284533Y0052547D01*
X0284900Y0052180D01*
X0284900Y0051446D01*
X0284533Y0051079D01*
X0282698Y0051079D02*
X0282698Y0052547D01*
X0282698Y0053289D02*
X0283432Y0054023D01*
X0282698Y0054757D01*
X0284900Y0054757D01*
X0284900Y0053289D02*
X0282698Y0053289D01*
X0282698Y0055499D02*
X0282698Y0056967D01*
X0282698Y0056233D02*
X0284900Y0056233D01*
X0284533Y0057709D02*
X0284900Y0058076D01*
X0284900Y0058810D01*
X0284533Y0059177D01*
X0284900Y0059919D02*
X0282698Y0061386D01*
X0283065Y0062128D02*
X0284533Y0062128D01*
X0284900Y0062495D01*
X0284900Y0063229D01*
X0284533Y0063596D01*
X0283065Y0063596D02*
X0282698Y0063229D01*
X0282698Y0062495D01*
X0283065Y0062128D01*
X0284900Y0061386D02*
X0282698Y0059919D01*
X0283065Y0059177D02*
X0282698Y0058810D01*
X0282698Y0058076D01*
X0283065Y0057709D01*
X0284533Y0057709D01*
X0282698Y0064338D02*
X0282698Y0065806D01*
X0282698Y0065072D02*
X0284900Y0065072D01*
X0283799Y0066548D02*
X0283799Y0068016D01*
X0282698Y0068758D02*
X0284900Y0070226D01*
X0282698Y0070226D01*
X0282698Y0070968D02*
X0282698Y0072069D01*
X0283065Y0072436D01*
X0284533Y0072436D01*
X0284900Y0072069D01*
X0284900Y0070968D01*
X0282698Y0070968D01*
X0282698Y0068758D02*
X0284900Y0068758D01*
X0283065Y0045917D02*
X0282698Y0045550D01*
X0282698Y0044816D01*
X0283065Y0044449D01*
X0282698Y0043707D02*
X0284900Y0043707D01*
X0284900Y0042240D02*
X0282698Y0042240D01*
X0282698Y0041131D02*
X0283799Y0040030D01*
X0284900Y0041131D02*
X0282698Y0041131D01*
X0196400Y0040470D02*
X0196033Y0040837D01*
X0194565Y0040837D01*
X0194198Y0040470D01*
X0194198Y0039736D01*
X0194565Y0039369D01*
X0194932Y0039369D01*
X0195299Y0039736D01*
X0195299Y0040837D01*
X0195299Y0041579D02*
X0194932Y0042313D01*
X0194932Y0042680D01*
X0195299Y0043047D01*
X0196033Y0043047D01*
X0196400Y0042680D01*
X0196400Y0041946D01*
X0196033Y0041579D01*
X0195299Y0041579D02*
X0194198Y0041579D01*
X0194198Y0043047D01*
X0194198Y0043789D02*
X0194932Y0044523D01*
X0194198Y0045257D01*
X0196400Y0045257D01*
X0196400Y0043789D02*
X0194198Y0043789D01*
X0194198Y0045999D02*
X0194198Y0047467D01*
X0194198Y0046733D02*
X0196400Y0046733D01*
X0196033Y0048209D02*
X0194565Y0048209D01*
X0194198Y0048576D01*
X0194198Y0049310D01*
X0194565Y0049677D01*
X0194198Y0050419D02*
X0196400Y0051886D01*
X0196033Y0052628D02*
X0196400Y0052995D01*
X0196400Y0053729D01*
X0196033Y0054096D01*
X0196033Y0052628D02*
X0194565Y0052628D01*
X0194198Y0052995D01*
X0194198Y0053729D01*
X0194565Y0054096D01*
X0194198Y0054838D02*
X0194198Y0056306D01*
X0194198Y0055572D02*
X0196400Y0055572D01*
X0195299Y0057048D02*
X0195299Y0058516D01*
X0196400Y0059258D02*
X0194198Y0059258D01*
X0196400Y0060726D01*
X0194198Y0060726D01*
X0194198Y0061468D02*
X0194198Y0062569D01*
X0194565Y0062936D01*
X0196033Y0062936D01*
X0196400Y0062569D01*
X0196400Y0061468D01*
X0194198Y0061468D01*
X0194198Y0051886D02*
X0196400Y0050419D01*
X0196033Y0049677D02*
X0196400Y0049310D01*
X0196400Y0048576D01*
X0196033Y0048209D01*
X0196400Y0040470D02*
X0196400Y0039736D01*
X0196033Y0039369D01*
X0196033Y0038627D02*
X0196400Y0038260D01*
X0196400Y0037526D01*
X0196033Y0037159D01*
X0195299Y0037159D02*
X0194932Y0037893D01*
X0194932Y0038260D01*
X0195299Y0038627D01*
X0196033Y0038627D01*
X0195299Y0037159D02*
X0194198Y0037159D01*
X0194198Y0038627D01*
X0194565Y0036417D02*
X0194198Y0036050D01*
X0194198Y0035316D01*
X0194565Y0034949D01*
X0196033Y0034949D01*
X0196400Y0035316D01*
X0196400Y0036050D01*
X0196033Y0036417D01*
X0196400Y0034207D02*
X0194198Y0034207D01*
X0195299Y0034207D02*
X0195299Y0032740D01*
X0195299Y0031998D02*
X0195299Y0030530D01*
X0194198Y0031631D01*
X0196400Y0031631D01*
X0196400Y0032740D02*
X0194198Y0032740D01*
X0194198Y0029788D02*
X0194565Y0029788D01*
X0196033Y0028320D01*
X0196400Y0028320D01*
X0196400Y0027578D02*
X0194198Y0027578D01*
X0194932Y0026844D01*
X0194198Y0026110D01*
X0196400Y0026110D01*
X0196400Y0025368D02*
X0194198Y0025368D01*
X0194932Y0024634D01*
X0194198Y0023900D01*
X0196400Y0023900D01*
X0194198Y0028320D02*
X0194198Y0029788D01*
X0097400Y0029240D02*
X0095198Y0029240D01*
X0096299Y0029240D02*
X0096299Y0030707D01*
X0095565Y0031449D02*
X0097033Y0031449D01*
X0097400Y0031816D01*
X0097400Y0032550D01*
X0097033Y0032917D01*
X0097033Y0033659D02*
X0097400Y0034026D01*
X0097400Y0034760D01*
X0097033Y0035127D01*
X0096299Y0035127D01*
X0095932Y0034760D01*
X0095932Y0034393D01*
X0096299Y0033659D01*
X0095198Y0033659D01*
X0095198Y0035127D01*
X0095565Y0035869D02*
X0095198Y0036236D01*
X0095198Y0036970D01*
X0095565Y0037337D01*
X0097033Y0037337D01*
X0097400Y0036970D01*
X0097400Y0036236D01*
X0097033Y0035869D01*
X0096299Y0036236D02*
X0096299Y0037337D01*
X0096299Y0038079D02*
X0095932Y0038813D01*
X0095932Y0039180D01*
X0096299Y0039547D01*
X0097033Y0039547D01*
X0097400Y0039180D01*
X0097400Y0038446D01*
X0097033Y0038079D01*
X0096299Y0038079D02*
X0095198Y0038079D01*
X0095198Y0039547D01*
X0095198Y0040289D02*
X0095932Y0041023D01*
X0095198Y0041757D01*
X0097400Y0041757D01*
X0097400Y0040289D02*
X0095198Y0040289D01*
X0095198Y0042499D02*
X0095198Y0043967D01*
X0095198Y0043233D02*
X0097400Y0043233D01*
X0097033Y0044709D02*
X0097400Y0045076D01*
X0097400Y0045810D01*
X0097033Y0046177D01*
X0097400Y0046919D02*
X0095198Y0048386D01*
X0095565Y0049128D02*
X0095198Y0049495D01*
X0095198Y0050229D01*
X0095565Y0050596D01*
X0095198Y0051338D02*
X0095198Y0052806D01*
X0095198Y0052072D02*
X0097400Y0052072D01*
X0097033Y0050596D02*
X0097400Y0050229D01*
X0097400Y0049495D01*
X0097033Y0049128D01*
X0095565Y0049128D01*
X0097400Y0048386D02*
X0095198Y0046919D01*
X0095565Y0046177D02*
X0095198Y0045810D01*
X0095198Y0045076D01*
X0095565Y0044709D01*
X0097033Y0044709D01*
X0096299Y0036236D02*
X0095932Y0035869D01*
X0095565Y0035869D01*
X0095565Y0032917D02*
X0095198Y0032550D01*
X0095198Y0031816D01*
X0095565Y0031449D01*
X0095198Y0030707D02*
X0097400Y0030707D01*
X0096299Y0028498D02*
X0096299Y0027030D01*
X0095198Y0028131D01*
X0097400Y0028131D01*
X0095565Y0026288D02*
X0095198Y0026288D01*
X0095198Y0024820D01*
X0095198Y0024078D02*
X0097400Y0024078D01*
X0097400Y0024820D02*
X0097033Y0024820D01*
X0095565Y0026288D01*
X0095198Y0024078D02*
X0095932Y0023344D01*
X0095198Y0022610D01*
X0097400Y0022610D01*
X0097400Y0021868D02*
X0095198Y0021868D01*
X0095932Y0021134D01*
X0095198Y0020400D01*
X0097400Y0020400D01*
X0096299Y0053548D02*
X0096299Y0055016D01*
X0095198Y0055758D02*
X0097400Y0057226D01*
X0095198Y0057226D01*
X0095198Y0057968D02*
X0095198Y0059069D01*
X0095565Y0059436D01*
X0097033Y0059436D01*
X0097400Y0059069D01*
X0097400Y0057968D01*
X0095198Y0057968D01*
X0095198Y0055758D02*
X0097400Y0055758D01*
X0027400Y0055820D02*
X0027033Y0055820D01*
X0025565Y0057288D01*
X0025198Y0057288D01*
X0025198Y0055820D01*
X0025198Y0055078D02*
X0027400Y0055078D01*
X0027400Y0053610D02*
X0025198Y0053610D01*
X0025932Y0054344D01*
X0025198Y0055078D01*
X0025198Y0052868D02*
X0027400Y0052868D01*
X0027400Y0051400D02*
X0025198Y0051400D01*
X0025932Y0052134D01*
X0025198Y0052868D01*
X0026299Y0058030D02*
X0026299Y0059498D01*
X0026299Y0060240D02*
X0026299Y0061707D01*
X0025565Y0062449D02*
X0027033Y0062449D01*
X0027400Y0062816D01*
X0027400Y0063550D01*
X0027033Y0063917D01*
X0027033Y0064659D02*
X0027400Y0065026D01*
X0027400Y0065760D01*
X0027033Y0066127D01*
X0026299Y0066127D01*
X0025932Y0065760D01*
X0025932Y0065393D01*
X0026299Y0064659D01*
X0025198Y0064659D01*
X0025198Y0066127D01*
X0025565Y0066869D02*
X0025932Y0066869D01*
X0026299Y0067236D01*
X0026299Y0068337D01*
X0025565Y0068337D02*
X0025198Y0067970D01*
X0025198Y0067236D01*
X0025565Y0066869D01*
X0027033Y0066869D02*
X0027400Y0067236D01*
X0027400Y0067970D01*
X0027033Y0068337D01*
X0025565Y0068337D01*
X0025198Y0069079D02*
X0026299Y0069079D01*
X0025932Y0069813D01*
X0025932Y0070180D01*
X0026299Y0070547D01*
X0027033Y0070547D01*
X0027400Y0070180D01*
X0027400Y0069446D01*
X0027033Y0069079D01*
X0025198Y0069079D02*
X0025198Y0070547D01*
X0025198Y0071289D02*
X0025932Y0072023D01*
X0025198Y0072757D01*
X0027400Y0072757D01*
X0027400Y0071289D02*
X0025198Y0071289D01*
X0025198Y0073499D02*
X0025198Y0074967D01*
X0025198Y0074233D02*
X0027400Y0074233D01*
X0027033Y0075709D02*
X0027400Y0076076D01*
X0027400Y0076810D01*
X0027033Y0077177D01*
X0027400Y0077919D02*
X0025198Y0079386D01*
X0025565Y0080128D02*
X0027033Y0080128D01*
X0027400Y0080495D01*
X0027400Y0081229D01*
X0027033Y0081596D01*
X0025565Y0081596D02*
X0025198Y0081229D01*
X0025198Y0080495D01*
X0025565Y0080128D01*
X0027400Y0079386D02*
X0025198Y0077919D01*
X0025565Y0077177D02*
X0025198Y0076810D01*
X0025198Y0076076D01*
X0025565Y0075709D01*
X0027033Y0075709D01*
X0025198Y0082338D02*
X0025198Y0083806D01*
X0025198Y0083072D02*
X0027400Y0083072D01*
X0026299Y0084548D02*
X0026299Y0086016D01*
X0025198Y0086758D02*
X0027400Y0088226D01*
X0025198Y0088226D01*
X0025198Y0088968D02*
X0025198Y0090069D01*
X0025565Y0090436D01*
X0027033Y0090436D01*
X0027400Y0090069D01*
X0027400Y0088968D01*
X0025198Y0088968D01*
X0025198Y0086758D02*
X0027400Y0086758D01*
X0025565Y0063917D02*
X0025198Y0063550D01*
X0025198Y0062816D01*
X0025565Y0062449D01*
X0025198Y0061707D02*
X0027400Y0061707D01*
X0027400Y0060240D02*
X0025198Y0060240D01*
X0025198Y0059131D02*
X0026299Y0058030D01*
X0027400Y0059131D02*
X0025198Y0059131D01*
D19*
X0028951Y0030754D02*
X0030453Y0030754D01*
X0029702Y0030754D02*
X0029702Y0027001D01*
X0028951Y0026250D01*
X0028201Y0026250D01*
X0027450Y0027001D01*
X0032054Y0027751D02*
X0034306Y0027751D01*
X0035056Y0028502D01*
X0035056Y0030003D01*
X0034306Y0030754D01*
X0032054Y0030754D01*
X0032054Y0026250D01*
X0036658Y0026250D02*
X0039660Y0029253D01*
X0039660Y0030003D01*
X0038910Y0030754D01*
X0037408Y0030754D01*
X0036658Y0030003D01*
X0036658Y0026250D02*
X0039660Y0026250D01*
X0015460Y0087050D02*
X0012458Y0087050D01*
X0013959Y0087050D02*
X0013959Y0091554D01*
X0012458Y0090053D01*
X0010856Y0091554D02*
X0009355Y0091554D01*
X0010106Y0091554D02*
X0010106Y0087801D01*
X0009355Y0087050D01*
X0008605Y0087050D01*
X0007854Y0087801D01*
X0006253Y0087801D02*
X0005502Y0087050D01*
X0004001Y0087050D01*
X0003250Y0087801D01*
X0004001Y0089302D02*
X0003250Y0090053D01*
X0003250Y0090803D01*
X0004001Y0091554D01*
X0005502Y0091554D01*
X0006253Y0090803D01*
X0005502Y0089302D02*
X0006253Y0088551D01*
X0006253Y0087801D01*
X0005502Y0089302D02*
X0004001Y0089302D01*
X0144051Y0180894D02*
X0162752Y0180894D01*
X0162752Y0192509D01*
X0144051Y0192509D01*
X0144051Y0186997D01*
X0144051Y0180894D01*
X0135160Y0195750D02*
X0132158Y0195750D01*
X0133659Y0195750D02*
X0133659Y0200254D01*
X0132158Y0198753D01*
X0130556Y0199503D02*
X0130556Y0198002D01*
X0129806Y0197251D01*
X0127554Y0197251D01*
X0127554Y0195750D02*
X0127554Y0200254D01*
X0129806Y0200254D01*
X0130556Y0199503D01*
X0126064Y0198303D02*
X0126064Y0197553D01*
X0125314Y0196802D01*
X0126064Y0196051D01*
X0126064Y0195301D01*
X0125314Y0194550D01*
X0123812Y0194550D01*
X0123062Y0195301D01*
X0123701Y0195750D02*
X0122950Y0196501D01*
X0123701Y0195750D02*
X0124451Y0195750D01*
X0125202Y0196501D01*
X0125202Y0200254D01*
X0124451Y0200254D02*
X0125953Y0200254D01*
X0125314Y0199054D02*
X0126064Y0198303D01*
X0125314Y0199054D02*
X0123812Y0199054D01*
X0123062Y0198303D01*
X0121460Y0198303D02*
X0120710Y0199054D01*
X0118458Y0199054D01*
X0118458Y0194550D01*
X0120710Y0194550D01*
X0121460Y0195301D01*
X0121460Y0198303D01*
X0124563Y0196802D02*
X0125314Y0196802D01*
X0116856Y0196802D02*
X0113854Y0196802D01*
X0113854Y0197553D02*
X0115355Y0199054D01*
X0116856Y0197553D01*
X0116856Y0194550D01*
X0113854Y0194550D02*
X0113854Y0197553D01*
X0112253Y0198303D02*
X0112253Y0196802D01*
X0111502Y0196051D01*
X0109250Y0196051D01*
X0109250Y0194550D02*
X0109250Y0199054D01*
X0111502Y0199054D01*
X0112253Y0198303D01*
X0031064Y0196802D02*
X0028062Y0196802D01*
X0030314Y0199054D01*
X0030314Y0194550D01*
X0026460Y0195301D02*
X0026460Y0198303D01*
X0025710Y0199054D01*
X0023458Y0199054D01*
X0023458Y0194550D01*
X0025710Y0194550D01*
X0026460Y0195301D01*
X0021856Y0194550D02*
X0021856Y0197553D01*
X0020355Y0199054D01*
X0018854Y0197553D01*
X0018854Y0194550D01*
X0018854Y0196802D02*
X0021856Y0196802D01*
X0017253Y0196802D02*
X0016502Y0196051D01*
X0014250Y0196051D01*
X0014250Y0194550D02*
X0014250Y0199054D01*
X0016502Y0199054D01*
X0017253Y0198303D01*
X0017253Y0196802D01*
X0201750Y0197050D02*
X0201750Y0201554D01*
X0204002Y0201554D01*
X0204753Y0200803D01*
X0204753Y0199302D01*
X0204002Y0198551D01*
X0201750Y0198551D01*
X0206354Y0199302D02*
X0209356Y0199302D01*
X0209356Y0200053D02*
X0209356Y0197050D01*
X0210958Y0197050D02*
X0213210Y0197050D01*
X0213960Y0197801D01*
X0213960Y0200803D01*
X0213210Y0201554D01*
X0210958Y0201554D01*
X0210958Y0197050D01*
X0209356Y0200053D02*
X0207855Y0201554D01*
X0206354Y0200053D01*
X0206354Y0197050D01*
X0215562Y0197050D02*
X0218564Y0200053D01*
X0218564Y0200803D01*
X0217814Y0201554D01*
X0216312Y0201554D01*
X0215562Y0200803D01*
X0215562Y0197050D02*
X0218564Y0197050D01*
X0286750Y0199550D02*
X0286750Y0204054D01*
X0289002Y0204054D01*
X0289753Y0203303D01*
X0289753Y0201802D01*
X0289002Y0201051D01*
X0286750Y0201051D01*
X0291354Y0201802D02*
X0294356Y0201802D01*
X0294356Y0202553D02*
X0294356Y0199550D01*
X0295958Y0199550D02*
X0298210Y0199550D01*
X0298960Y0200301D01*
X0298960Y0203303D01*
X0298210Y0204054D01*
X0295958Y0204054D01*
X0295958Y0199550D01*
X0294356Y0202553D02*
X0292855Y0204054D01*
X0291354Y0202553D01*
X0291354Y0199550D01*
X0300562Y0199550D02*
X0303564Y0199550D01*
X0302063Y0199550D02*
X0302063Y0204054D01*
X0300562Y0202553D01*
X0381689Y0070554D02*
X0380938Y0069803D01*
X0380938Y0069053D01*
X0381689Y0068302D01*
X0383190Y0068302D01*
X0383941Y0067551D01*
X0383941Y0066801D01*
X0383190Y0066050D01*
X0381689Y0066050D01*
X0380938Y0066801D01*
X0383941Y0069803D02*
X0383190Y0070554D01*
X0381689Y0070554D01*
X0387043Y0070554D02*
X0388545Y0070554D01*
X0387794Y0070554D02*
X0387794Y0066801D01*
X0387043Y0066050D01*
X0386293Y0066050D01*
X0385542Y0066801D01*
X0390146Y0066050D02*
X0393149Y0069053D01*
X0393149Y0069803D01*
X0392398Y0070554D01*
X0390897Y0070554D01*
X0390146Y0069803D01*
X0390146Y0066050D02*
X0393149Y0066050D01*
D20*
X0098200Y0158350D02*
X0098200Y0158851D01*
X0097950Y0159101D01*
X0096699Y0159101D01*
X0097199Y0159573D02*
X0096699Y0160074D01*
X0098200Y0160074D01*
X0098200Y0160574D02*
X0098200Y0159573D01*
X0098200Y0158350D02*
X0097950Y0158100D01*
X0096699Y0158100D01*
M02*
