G75*
%MOIN*%
%OFA0B0*%
%FSLAX25Y25*%
%IPPOS*%
%LPD*%
%AMOC8*
5,1,8,0,0,1.08239X$1,22.5*
%
%ADD10C,0.00000*%
%ADD11C,0.00600*%
%ADD12C,0.00500*%
%ADD13C,0.00800*%
%ADD14C,0.00400*%
%ADD15C,0.00700*%
D10*
X0014000Y0001800D02*
X0014000Y0206761D01*
X0386701Y0206261D01*
X0386701Y0001300D01*
X0014000Y0001800D01*
X0240488Y0067300D02*
X0240490Y0067448D01*
X0240496Y0067596D01*
X0240506Y0067744D01*
X0240520Y0067891D01*
X0240538Y0068038D01*
X0240559Y0068184D01*
X0240585Y0068330D01*
X0240615Y0068475D01*
X0240648Y0068619D01*
X0240686Y0068762D01*
X0240727Y0068904D01*
X0240772Y0069045D01*
X0240820Y0069185D01*
X0240873Y0069324D01*
X0240929Y0069461D01*
X0240989Y0069596D01*
X0241052Y0069730D01*
X0241119Y0069862D01*
X0241190Y0069992D01*
X0241264Y0070120D01*
X0241341Y0070246D01*
X0241422Y0070370D01*
X0241506Y0070492D01*
X0241593Y0070611D01*
X0241684Y0070728D01*
X0241778Y0070843D01*
X0241874Y0070955D01*
X0241974Y0071065D01*
X0242076Y0071171D01*
X0242182Y0071275D01*
X0242290Y0071376D01*
X0242401Y0071474D01*
X0242514Y0071570D01*
X0242630Y0071662D01*
X0242748Y0071751D01*
X0242869Y0071836D01*
X0242992Y0071919D01*
X0243117Y0071998D01*
X0243244Y0072074D01*
X0243373Y0072146D01*
X0243504Y0072215D01*
X0243637Y0072280D01*
X0243772Y0072341D01*
X0243908Y0072399D01*
X0244045Y0072454D01*
X0244184Y0072504D01*
X0244325Y0072551D01*
X0244466Y0072594D01*
X0244609Y0072634D01*
X0244753Y0072669D01*
X0244897Y0072701D01*
X0245043Y0072728D01*
X0245189Y0072752D01*
X0245336Y0072772D01*
X0245483Y0072788D01*
X0245630Y0072800D01*
X0245778Y0072808D01*
X0245926Y0072812D01*
X0246074Y0072812D01*
X0246222Y0072808D01*
X0246370Y0072800D01*
X0246517Y0072788D01*
X0246664Y0072772D01*
X0246811Y0072752D01*
X0246957Y0072728D01*
X0247103Y0072701D01*
X0247247Y0072669D01*
X0247391Y0072634D01*
X0247534Y0072594D01*
X0247675Y0072551D01*
X0247816Y0072504D01*
X0247955Y0072454D01*
X0248092Y0072399D01*
X0248228Y0072341D01*
X0248363Y0072280D01*
X0248496Y0072215D01*
X0248627Y0072146D01*
X0248756Y0072074D01*
X0248883Y0071998D01*
X0249008Y0071919D01*
X0249131Y0071836D01*
X0249252Y0071751D01*
X0249370Y0071662D01*
X0249486Y0071570D01*
X0249599Y0071474D01*
X0249710Y0071376D01*
X0249818Y0071275D01*
X0249924Y0071171D01*
X0250026Y0071065D01*
X0250126Y0070955D01*
X0250222Y0070843D01*
X0250316Y0070728D01*
X0250407Y0070611D01*
X0250494Y0070492D01*
X0250578Y0070370D01*
X0250659Y0070246D01*
X0250736Y0070120D01*
X0250810Y0069992D01*
X0250881Y0069862D01*
X0250948Y0069730D01*
X0251011Y0069596D01*
X0251071Y0069461D01*
X0251127Y0069324D01*
X0251180Y0069185D01*
X0251228Y0069045D01*
X0251273Y0068904D01*
X0251314Y0068762D01*
X0251352Y0068619D01*
X0251385Y0068475D01*
X0251415Y0068330D01*
X0251441Y0068184D01*
X0251462Y0068038D01*
X0251480Y0067891D01*
X0251494Y0067744D01*
X0251504Y0067596D01*
X0251510Y0067448D01*
X0251512Y0067300D01*
X0251510Y0067152D01*
X0251504Y0067004D01*
X0251494Y0066856D01*
X0251480Y0066709D01*
X0251462Y0066562D01*
X0251441Y0066416D01*
X0251415Y0066270D01*
X0251385Y0066125D01*
X0251352Y0065981D01*
X0251314Y0065838D01*
X0251273Y0065696D01*
X0251228Y0065555D01*
X0251180Y0065415D01*
X0251127Y0065276D01*
X0251071Y0065139D01*
X0251011Y0065004D01*
X0250948Y0064870D01*
X0250881Y0064738D01*
X0250810Y0064608D01*
X0250736Y0064480D01*
X0250659Y0064354D01*
X0250578Y0064230D01*
X0250494Y0064108D01*
X0250407Y0063989D01*
X0250316Y0063872D01*
X0250222Y0063757D01*
X0250126Y0063645D01*
X0250026Y0063535D01*
X0249924Y0063429D01*
X0249818Y0063325D01*
X0249710Y0063224D01*
X0249599Y0063126D01*
X0249486Y0063030D01*
X0249370Y0062938D01*
X0249252Y0062849D01*
X0249131Y0062764D01*
X0249008Y0062681D01*
X0248883Y0062602D01*
X0248756Y0062526D01*
X0248627Y0062454D01*
X0248496Y0062385D01*
X0248363Y0062320D01*
X0248228Y0062259D01*
X0248092Y0062201D01*
X0247955Y0062146D01*
X0247816Y0062096D01*
X0247675Y0062049D01*
X0247534Y0062006D01*
X0247391Y0061966D01*
X0247247Y0061931D01*
X0247103Y0061899D01*
X0246957Y0061872D01*
X0246811Y0061848D01*
X0246664Y0061828D01*
X0246517Y0061812D01*
X0246370Y0061800D01*
X0246222Y0061792D01*
X0246074Y0061788D01*
X0245926Y0061788D01*
X0245778Y0061792D01*
X0245630Y0061800D01*
X0245483Y0061812D01*
X0245336Y0061828D01*
X0245189Y0061848D01*
X0245043Y0061872D01*
X0244897Y0061899D01*
X0244753Y0061931D01*
X0244609Y0061966D01*
X0244466Y0062006D01*
X0244325Y0062049D01*
X0244184Y0062096D01*
X0244045Y0062146D01*
X0243908Y0062201D01*
X0243772Y0062259D01*
X0243637Y0062320D01*
X0243504Y0062385D01*
X0243373Y0062454D01*
X0243244Y0062526D01*
X0243117Y0062602D01*
X0242992Y0062681D01*
X0242869Y0062764D01*
X0242748Y0062849D01*
X0242630Y0062938D01*
X0242514Y0063030D01*
X0242401Y0063126D01*
X0242290Y0063224D01*
X0242182Y0063325D01*
X0242076Y0063429D01*
X0241974Y0063535D01*
X0241874Y0063645D01*
X0241778Y0063757D01*
X0241684Y0063872D01*
X0241593Y0063989D01*
X0241506Y0064108D01*
X0241422Y0064230D01*
X0241341Y0064354D01*
X0241264Y0064480D01*
X0241190Y0064608D01*
X0241119Y0064738D01*
X0241052Y0064870D01*
X0240989Y0065004D01*
X0240929Y0065139D01*
X0240873Y0065276D01*
X0240820Y0065415D01*
X0240772Y0065555D01*
X0240727Y0065696D01*
X0240686Y0065838D01*
X0240648Y0065981D01*
X0240615Y0066125D01*
X0240585Y0066270D01*
X0240559Y0066416D01*
X0240538Y0066562D01*
X0240520Y0066709D01*
X0240506Y0066856D01*
X0240496Y0067004D01*
X0240490Y0067152D01*
X0240488Y0067300D01*
X0311488Y0167800D02*
X0311490Y0167948D01*
X0311496Y0168096D01*
X0311506Y0168244D01*
X0311520Y0168391D01*
X0311538Y0168538D01*
X0311559Y0168684D01*
X0311585Y0168830D01*
X0311615Y0168975D01*
X0311648Y0169119D01*
X0311686Y0169262D01*
X0311727Y0169404D01*
X0311772Y0169545D01*
X0311820Y0169685D01*
X0311873Y0169824D01*
X0311929Y0169961D01*
X0311989Y0170096D01*
X0312052Y0170230D01*
X0312119Y0170362D01*
X0312190Y0170492D01*
X0312264Y0170620D01*
X0312341Y0170746D01*
X0312422Y0170870D01*
X0312506Y0170992D01*
X0312593Y0171111D01*
X0312684Y0171228D01*
X0312778Y0171343D01*
X0312874Y0171455D01*
X0312974Y0171565D01*
X0313076Y0171671D01*
X0313182Y0171775D01*
X0313290Y0171876D01*
X0313401Y0171974D01*
X0313514Y0172070D01*
X0313630Y0172162D01*
X0313748Y0172251D01*
X0313869Y0172336D01*
X0313992Y0172419D01*
X0314117Y0172498D01*
X0314244Y0172574D01*
X0314373Y0172646D01*
X0314504Y0172715D01*
X0314637Y0172780D01*
X0314772Y0172841D01*
X0314908Y0172899D01*
X0315045Y0172954D01*
X0315184Y0173004D01*
X0315325Y0173051D01*
X0315466Y0173094D01*
X0315609Y0173134D01*
X0315753Y0173169D01*
X0315897Y0173201D01*
X0316043Y0173228D01*
X0316189Y0173252D01*
X0316336Y0173272D01*
X0316483Y0173288D01*
X0316630Y0173300D01*
X0316778Y0173308D01*
X0316926Y0173312D01*
X0317074Y0173312D01*
X0317222Y0173308D01*
X0317370Y0173300D01*
X0317517Y0173288D01*
X0317664Y0173272D01*
X0317811Y0173252D01*
X0317957Y0173228D01*
X0318103Y0173201D01*
X0318247Y0173169D01*
X0318391Y0173134D01*
X0318534Y0173094D01*
X0318675Y0173051D01*
X0318816Y0173004D01*
X0318955Y0172954D01*
X0319092Y0172899D01*
X0319228Y0172841D01*
X0319363Y0172780D01*
X0319496Y0172715D01*
X0319627Y0172646D01*
X0319756Y0172574D01*
X0319883Y0172498D01*
X0320008Y0172419D01*
X0320131Y0172336D01*
X0320252Y0172251D01*
X0320370Y0172162D01*
X0320486Y0172070D01*
X0320599Y0171974D01*
X0320710Y0171876D01*
X0320818Y0171775D01*
X0320924Y0171671D01*
X0321026Y0171565D01*
X0321126Y0171455D01*
X0321222Y0171343D01*
X0321316Y0171228D01*
X0321407Y0171111D01*
X0321494Y0170992D01*
X0321578Y0170870D01*
X0321659Y0170746D01*
X0321736Y0170620D01*
X0321810Y0170492D01*
X0321881Y0170362D01*
X0321948Y0170230D01*
X0322011Y0170096D01*
X0322071Y0169961D01*
X0322127Y0169824D01*
X0322180Y0169685D01*
X0322228Y0169545D01*
X0322273Y0169404D01*
X0322314Y0169262D01*
X0322352Y0169119D01*
X0322385Y0168975D01*
X0322415Y0168830D01*
X0322441Y0168684D01*
X0322462Y0168538D01*
X0322480Y0168391D01*
X0322494Y0168244D01*
X0322504Y0168096D01*
X0322510Y0167948D01*
X0322512Y0167800D01*
X0322510Y0167652D01*
X0322504Y0167504D01*
X0322494Y0167356D01*
X0322480Y0167209D01*
X0322462Y0167062D01*
X0322441Y0166916D01*
X0322415Y0166770D01*
X0322385Y0166625D01*
X0322352Y0166481D01*
X0322314Y0166338D01*
X0322273Y0166196D01*
X0322228Y0166055D01*
X0322180Y0165915D01*
X0322127Y0165776D01*
X0322071Y0165639D01*
X0322011Y0165504D01*
X0321948Y0165370D01*
X0321881Y0165238D01*
X0321810Y0165108D01*
X0321736Y0164980D01*
X0321659Y0164854D01*
X0321578Y0164730D01*
X0321494Y0164608D01*
X0321407Y0164489D01*
X0321316Y0164372D01*
X0321222Y0164257D01*
X0321126Y0164145D01*
X0321026Y0164035D01*
X0320924Y0163929D01*
X0320818Y0163825D01*
X0320710Y0163724D01*
X0320599Y0163626D01*
X0320486Y0163530D01*
X0320370Y0163438D01*
X0320252Y0163349D01*
X0320131Y0163264D01*
X0320008Y0163181D01*
X0319883Y0163102D01*
X0319756Y0163026D01*
X0319627Y0162954D01*
X0319496Y0162885D01*
X0319363Y0162820D01*
X0319228Y0162759D01*
X0319092Y0162701D01*
X0318955Y0162646D01*
X0318816Y0162596D01*
X0318675Y0162549D01*
X0318534Y0162506D01*
X0318391Y0162466D01*
X0318247Y0162431D01*
X0318103Y0162399D01*
X0317957Y0162372D01*
X0317811Y0162348D01*
X0317664Y0162328D01*
X0317517Y0162312D01*
X0317370Y0162300D01*
X0317222Y0162292D01*
X0317074Y0162288D01*
X0316926Y0162288D01*
X0316778Y0162292D01*
X0316630Y0162300D01*
X0316483Y0162312D01*
X0316336Y0162328D01*
X0316189Y0162348D01*
X0316043Y0162372D01*
X0315897Y0162399D01*
X0315753Y0162431D01*
X0315609Y0162466D01*
X0315466Y0162506D01*
X0315325Y0162549D01*
X0315184Y0162596D01*
X0315045Y0162646D01*
X0314908Y0162701D01*
X0314772Y0162759D01*
X0314637Y0162820D01*
X0314504Y0162885D01*
X0314373Y0162954D01*
X0314244Y0163026D01*
X0314117Y0163102D01*
X0313992Y0163181D01*
X0313869Y0163264D01*
X0313748Y0163349D01*
X0313630Y0163438D01*
X0313514Y0163530D01*
X0313401Y0163626D01*
X0313290Y0163724D01*
X0313182Y0163825D01*
X0313076Y0163929D01*
X0312974Y0164035D01*
X0312874Y0164145D01*
X0312778Y0164257D01*
X0312684Y0164372D01*
X0312593Y0164489D01*
X0312506Y0164608D01*
X0312422Y0164730D01*
X0312341Y0164854D01*
X0312264Y0164980D01*
X0312190Y0165108D01*
X0312119Y0165238D01*
X0312052Y0165370D01*
X0311989Y0165504D01*
X0311929Y0165639D01*
X0311873Y0165776D01*
X0311820Y0165915D01*
X0311772Y0166055D01*
X0311727Y0166196D01*
X0311686Y0166338D01*
X0311648Y0166481D01*
X0311615Y0166625D01*
X0311585Y0166770D01*
X0311559Y0166916D01*
X0311538Y0167062D01*
X0311520Y0167209D01*
X0311506Y0167356D01*
X0311496Y0167504D01*
X0311490Y0167652D01*
X0311488Y0167800D01*
D11*
X0231000Y0160300D02*
X0231000Y0175300D01*
X0228500Y0177800D01*
X0223500Y0177800D01*
X0221000Y0175300D01*
X0221000Y0160300D01*
X0218500Y0157800D01*
X0213500Y0157800D01*
X0211000Y0160300D01*
X0208500Y0157800D01*
X0203500Y0157800D01*
X0201000Y0160300D01*
X0201000Y0175300D01*
X0203500Y0177800D01*
X0208500Y0177800D01*
X0211000Y0175300D01*
X0211000Y0160300D01*
X0221000Y0160300D02*
X0223500Y0157800D01*
X0228500Y0157800D01*
X0231000Y0160300D01*
X0221000Y0175300D02*
X0218500Y0177800D01*
X0213500Y0177800D01*
X0211000Y0175300D01*
X0164559Y0145859D02*
X0113394Y0145859D01*
X0110441Y0142906D01*
X0110441Y0091741D01*
X0164559Y0091741D01*
X0164559Y0145859D01*
X0115846Y0136517D02*
X0115848Y0136642D01*
X0115854Y0136767D01*
X0115864Y0136891D01*
X0115878Y0137015D01*
X0115895Y0137139D01*
X0115917Y0137262D01*
X0115943Y0137384D01*
X0115972Y0137506D01*
X0116005Y0137626D01*
X0116043Y0137745D01*
X0116083Y0137864D01*
X0116128Y0137980D01*
X0116176Y0138095D01*
X0116228Y0138209D01*
X0116284Y0138321D01*
X0116343Y0138431D01*
X0116405Y0138539D01*
X0116471Y0138646D01*
X0116540Y0138750D01*
X0116613Y0138851D01*
X0116688Y0138951D01*
X0116767Y0139048D01*
X0116849Y0139142D01*
X0116934Y0139234D01*
X0117021Y0139323D01*
X0117112Y0139409D01*
X0117205Y0139492D01*
X0117301Y0139573D01*
X0117399Y0139650D01*
X0117499Y0139724D01*
X0117602Y0139795D01*
X0117707Y0139862D01*
X0117815Y0139927D01*
X0117924Y0139987D01*
X0118035Y0140045D01*
X0118148Y0140098D01*
X0118262Y0140148D01*
X0118378Y0140195D01*
X0118495Y0140237D01*
X0118614Y0140276D01*
X0118734Y0140312D01*
X0118855Y0140343D01*
X0118977Y0140371D01*
X0119099Y0140394D01*
X0119223Y0140414D01*
X0119347Y0140430D01*
X0119471Y0140442D01*
X0119596Y0140450D01*
X0119721Y0140454D01*
X0119845Y0140454D01*
X0119970Y0140450D01*
X0120095Y0140442D01*
X0120219Y0140430D01*
X0120343Y0140414D01*
X0120467Y0140394D01*
X0120589Y0140371D01*
X0120711Y0140343D01*
X0120832Y0140312D01*
X0120952Y0140276D01*
X0121071Y0140237D01*
X0121188Y0140195D01*
X0121304Y0140148D01*
X0121418Y0140098D01*
X0121531Y0140045D01*
X0121642Y0139987D01*
X0121752Y0139927D01*
X0121859Y0139862D01*
X0121964Y0139795D01*
X0122067Y0139724D01*
X0122167Y0139650D01*
X0122265Y0139573D01*
X0122361Y0139492D01*
X0122454Y0139409D01*
X0122545Y0139323D01*
X0122632Y0139234D01*
X0122717Y0139142D01*
X0122799Y0139048D01*
X0122878Y0138951D01*
X0122953Y0138851D01*
X0123026Y0138750D01*
X0123095Y0138646D01*
X0123161Y0138539D01*
X0123223Y0138431D01*
X0123282Y0138321D01*
X0123338Y0138209D01*
X0123390Y0138095D01*
X0123438Y0137980D01*
X0123483Y0137864D01*
X0123523Y0137745D01*
X0123561Y0137626D01*
X0123594Y0137506D01*
X0123623Y0137384D01*
X0123649Y0137262D01*
X0123671Y0137139D01*
X0123688Y0137015D01*
X0123702Y0136891D01*
X0123712Y0136767D01*
X0123718Y0136642D01*
X0123720Y0136517D01*
X0123718Y0136392D01*
X0123712Y0136267D01*
X0123702Y0136143D01*
X0123688Y0136019D01*
X0123671Y0135895D01*
X0123649Y0135772D01*
X0123623Y0135650D01*
X0123594Y0135528D01*
X0123561Y0135408D01*
X0123523Y0135289D01*
X0123483Y0135170D01*
X0123438Y0135054D01*
X0123390Y0134939D01*
X0123338Y0134825D01*
X0123282Y0134713D01*
X0123223Y0134603D01*
X0123161Y0134495D01*
X0123095Y0134388D01*
X0123026Y0134284D01*
X0122953Y0134183D01*
X0122878Y0134083D01*
X0122799Y0133986D01*
X0122717Y0133892D01*
X0122632Y0133800D01*
X0122545Y0133711D01*
X0122454Y0133625D01*
X0122361Y0133542D01*
X0122265Y0133461D01*
X0122167Y0133384D01*
X0122067Y0133310D01*
X0121964Y0133239D01*
X0121859Y0133172D01*
X0121751Y0133107D01*
X0121642Y0133047D01*
X0121531Y0132989D01*
X0121418Y0132936D01*
X0121304Y0132886D01*
X0121188Y0132839D01*
X0121071Y0132797D01*
X0120952Y0132758D01*
X0120832Y0132722D01*
X0120711Y0132691D01*
X0120589Y0132663D01*
X0120467Y0132640D01*
X0120343Y0132620D01*
X0120219Y0132604D01*
X0120095Y0132592D01*
X0119970Y0132584D01*
X0119845Y0132580D01*
X0119721Y0132580D01*
X0119596Y0132584D01*
X0119471Y0132592D01*
X0119347Y0132604D01*
X0119223Y0132620D01*
X0119099Y0132640D01*
X0118977Y0132663D01*
X0118855Y0132691D01*
X0118734Y0132722D01*
X0118614Y0132758D01*
X0118495Y0132797D01*
X0118378Y0132839D01*
X0118262Y0132886D01*
X0118148Y0132936D01*
X0118035Y0132989D01*
X0117924Y0133047D01*
X0117814Y0133107D01*
X0117707Y0133172D01*
X0117602Y0133239D01*
X0117499Y0133310D01*
X0117399Y0133384D01*
X0117301Y0133461D01*
X0117205Y0133542D01*
X0117112Y0133625D01*
X0117021Y0133711D01*
X0116934Y0133800D01*
X0116849Y0133892D01*
X0116767Y0133986D01*
X0116688Y0134083D01*
X0116613Y0134183D01*
X0116540Y0134284D01*
X0116471Y0134388D01*
X0116405Y0134495D01*
X0116343Y0134603D01*
X0116284Y0134713D01*
X0116228Y0134825D01*
X0116176Y0134939D01*
X0116128Y0135054D01*
X0116083Y0135170D01*
X0116043Y0135289D01*
X0116005Y0135408D01*
X0115972Y0135528D01*
X0115943Y0135650D01*
X0115917Y0135772D01*
X0115895Y0135895D01*
X0115878Y0136019D01*
X0115864Y0136143D01*
X0115854Y0136267D01*
X0115848Y0136392D01*
X0115846Y0136517D01*
X0019000Y0071300D02*
X0004000Y0071300D01*
X0003940Y0071298D01*
X0003879Y0071293D01*
X0003820Y0071284D01*
X0003761Y0071271D01*
X0003702Y0071255D01*
X0003645Y0071235D01*
X0003590Y0071212D01*
X0003535Y0071185D01*
X0003483Y0071156D01*
X0003432Y0071123D01*
X0003383Y0071087D01*
X0003337Y0071049D01*
X0003293Y0071007D01*
X0003251Y0070963D01*
X0003213Y0070917D01*
X0003177Y0070868D01*
X0003144Y0070817D01*
X0003115Y0070765D01*
X0003088Y0070710D01*
X0003065Y0070655D01*
X0003045Y0070598D01*
X0003029Y0070539D01*
X0003016Y0070480D01*
X0003007Y0070421D01*
X0003002Y0070360D01*
X0003000Y0070300D01*
X0003000Y0060300D01*
X0003002Y0060240D01*
X0003007Y0060179D01*
X0003016Y0060120D01*
X0003029Y0060061D01*
X0003045Y0060002D01*
X0003065Y0059945D01*
X0003088Y0059890D01*
X0003115Y0059835D01*
X0003144Y0059783D01*
X0003177Y0059732D01*
X0003213Y0059683D01*
X0003251Y0059637D01*
X0003293Y0059593D01*
X0003337Y0059551D01*
X0003383Y0059513D01*
X0003432Y0059477D01*
X0003483Y0059444D01*
X0003535Y0059415D01*
X0003590Y0059388D01*
X0003645Y0059365D01*
X0003702Y0059345D01*
X0003761Y0059329D01*
X0003820Y0059316D01*
X0003879Y0059307D01*
X0003940Y0059302D01*
X0004000Y0059300D01*
X0019000Y0059300D01*
X0019060Y0059302D01*
X0019121Y0059307D01*
X0019180Y0059316D01*
X0019239Y0059329D01*
X0019298Y0059345D01*
X0019355Y0059365D01*
X0019410Y0059388D01*
X0019465Y0059415D01*
X0019517Y0059444D01*
X0019568Y0059477D01*
X0019617Y0059513D01*
X0019663Y0059551D01*
X0019707Y0059593D01*
X0019749Y0059637D01*
X0019787Y0059683D01*
X0019823Y0059732D01*
X0019856Y0059783D01*
X0019885Y0059835D01*
X0019912Y0059890D01*
X0019935Y0059945D01*
X0019955Y0060002D01*
X0019971Y0060061D01*
X0019984Y0060120D01*
X0019993Y0060179D01*
X0019998Y0060240D01*
X0020000Y0060300D01*
X0020000Y0070300D01*
X0019998Y0070360D01*
X0019993Y0070421D01*
X0019984Y0070480D01*
X0019971Y0070539D01*
X0019955Y0070598D01*
X0019935Y0070655D01*
X0019912Y0070710D01*
X0019885Y0070765D01*
X0019856Y0070817D01*
X0019823Y0070868D01*
X0019787Y0070917D01*
X0019749Y0070963D01*
X0019707Y0071007D01*
X0019663Y0071049D01*
X0019617Y0071087D01*
X0019568Y0071123D01*
X0019517Y0071156D01*
X0019465Y0071185D01*
X0019410Y0071212D01*
X0019355Y0071235D01*
X0019298Y0071255D01*
X0019239Y0071271D01*
X0019180Y0071284D01*
X0019121Y0071293D01*
X0019060Y0071298D01*
X0019000Y0071300D01*
X0377500Y0067300D02*
X0377500Y0057300D01*
X0377502Y0057240D01*
X0377507Y0057179D01*
X0377516Y0057120D01*
X0377529Y0057061D01*
X0377545Y0057002D01*
X0377565Y0056945D01*
X0377588Y0056890D01*
X0377615Y0056835D01*
X0377644Y0056783D01*
X0377677Y0056732D01*
X0377713Y0056683D01*
X0377751Y0056637D01*
X0377793Y0056593D01*
X0377837Y0056551D01*
X0377883Y0056513D01*
X0377932Y0056477D01*
X0377983Y0056444D01*
X0378035Y0056415D01*
X0378090Y0056388D01*
X0378145Y0056365D01*
X0378202Y0056345D01*
X0378261Y0056329D01*
X0378320Y0056316D01*
X0378379Y0056307D01*
X0378440Y0056302D01*
X0378500Y0056300D01*
X0393500Y0056300D01*
X0393560Y0056302D01*
X0393621Y0056307D01*
X0393680Y0056316D01*
X0393739Y0056329D01*
X0393798Y0056345D01*
X0393855Y0056365D01*
X0393910Y0056388D01*
X0393965Y0056415D01*
X0394017Y0056444D01*
X0394068Y0056477D01*
X0394117Y0056513D01*
X0394163Y0056551D01*
X0394207Y0056593D01*
X0394249Y0056637D01*
X0394287Y0056683D01*
X0394323Y0056732D01*
X0394356Y0056783D01*
X0394385Y0056835D01*
X0394412Y0056890D01*
X0394435Y0056945D01*
X0394455Y0057002D01*
X0394471Y0057061D01*
X0394484Y0057120D01*
X0394493Y0057179D01*
X0394498Y0057240D01*
X0394500Y0057300D01*
X0394500Y0067300D01*
X0394498Y0067360D01*
X0394493Y0067421D01*
X0394484Y0067480D01*
X0394471Y0067539D01*
X0394455Y0067598D01*
X0394435Y0067655D01*
X0394412Y0067710D01*
X0394385Y0067765D01*
X0394356Y0067817D01*
X0394323Y0067868D01*
X0394287Y0067917D01*
X0394249Y0067963D01*
X0394207Y0068007D01*
X0394163Y0068049D01*
X0394117Y0068087D01*
X0394068Y0068123D01*
X0394017Y0068156D01*
X0393965Y0068185D01*
X0393910Y0068212D01*
X0393855Y0068235D01*
X0393798Y0068255D01*
X0393739Y0068271D01*
X0393680Y0068284D01*
X0393621Y0068293D01*
X0393560Y0068298D01*
X0393500Y0068300D01*
X0378500Y0068300D01*
X0378440Y0068298D01*
X0378379Y0068293D01*
X0378320Y0068284D01*
X0378261Y0068271D01*
X0378202Y0068255D01*
X0378145Y0068235D01*
X0378090Y0068212D01*
X0378035Y0068185D01*
X0377983Y0068156D01*
X0377932Y0068123D01*
X0377883Y0068087D01*
X0377837Y0068049D01*
X0377793Y0068007D01*
X0377751Y0067963D01*
X0377713Y0067917D01*
X0377677Y0067868D01*
X0377644Y0067817D01*
X0377615Y0067765D01*
X0377588Y0067710D01*
X0377565Y0067655D01*
X0377545Y0067598D01*
X0377529Y0067539D01*
X0377516Y0067480D01*
X0377507Y0067421D01*
X0377502Y0067360D01*
X0377500Y0067300D01*
D12*
X0382790Y0069550D02*
X0382790Y0074054D01*
X0385042Y0071802D01*
X0382040Y0071802D01*
X0386644Y0074054D02*
X0388145Y0074054D01*
X0387394Y0074054D02*
X0387394Y0070301D01*
X0388145Y0069550D01*
X0388895Y0069550D01*
X0389646Y0070301D01*
X0391247Y0070301D02*
X0391998Y0069550D01*
X0393499Y0069550D01*
X0394250Y0070301D01*
X0393499Y0071802D02*
X0391998Y0071802D01*
X0391247Y0071051D01*
X0391247Y0070301D01*
X0393499Y0071802D02*
X0394250Y0072553D01*
X0394250Y0073303D01*
X0393499Y0074054D01*
X0391998Y0074054D01*
X0391247Y0073303D01*
X0230750Y0180550D02*
X0229249Y0180550D01*
X0229999Y0180550D02*
X0229999Y0185054D01*
X0229249Y0185054D02*
X0230750Y0185054D01*
X0227681Y0184303D02*
X0227681Y0181301D01*
X0226930Y0180550D01*
X0225429Y0180550D01*
X0224678Y0181301D01*
X0223077Y0181301D02*
X0222326Y0180550D01*
X0220825Y0180550D01*
X0220074Y0181301D01*
X0220074Y0182051D01*
X0220825Y0182802D01*
X0222326Y0182802D01*
X0223077Y0183553D01*
X0223077Y0184303D01*
X0222326Y0185054D01*
X0220825Y0185054D01*
X0220074Y0184303D01*
X0218473Y0185054D02*
X0216221Y0185054D01*
X0215470Y0184303D01*
X0215470Y0182802D01*
X0216221Y0182051D01*
X0218473Y0182051D01*
X0218473Y0180550D02*
X0218473Y0185054D01*
X0224678Y0184303D02*
X0225429Y0185054D01*
X0226930Y0185054D01*
X0227681Y0184303D01*
X0016562Y0057303D02*
X0015811Y0058054D01*
X0014310Y0058054D01*
X0013559Y0057303D01*
X0014310Y0055802D02*
X0013559Y0055051D01*
X0013559Y0054301D01*
X0014310Y0053550D01*
X0015811Y0053550D01*
X0016562Y0054301D01*
X0015811Y0055802D02*
X0014310Y0055802D01*
X0015811Y0055802D02*
X0016562Y0056553D01*
X0016562Y0057303D01*
X0011958Y0054301D02*
X0011207Y0053550D01*
X0010457Y0053550D01*
X0009706Y0054301D01*
X0009706Y0058054D01*
X0010457Y0058054D02*
X0008955Y0058054D01*
X0007354Y0057303D02*
X0006603Y0058054D01*
X0005102Y0058054D01*
X0004351Y0057303D01*
X0004351Y0056553D01*
X0005102Y0055802D01*
X0004351Y0055051D01*
X0004351Y0054301D01*
X0005102Y0053550D01*
X0006603Y0053550D01*
X0007354Y0054301D01*
X0005853Y0055802D02*
X0005102Y0055802D01*
X0144982Y0049256D02*
X0146250Y0049256D01*
X0145616Y0049256D02*
X0145616Y0051158D01*
X0146250Y0050524D01*
X0147192Y0050841D02*
X0147192Y0051158D01*
X0147192Y0050841D02*
X0147826Y0050207D01*
X0147826Y0049256D01*
X0147826Y0050207D02*
X0148460Y0050841D01*
X0148460Y0051158D01*
D13*
X0156736Y0052107D02*
X0156736Y0053288D01*
X0156736Y0052107D02*
X0136264Y0052107D01*
X0136264Y0053288D01*
X0136264Y0064312D02*
X0136264Y0065493D01*
X0156736Y0065493D01*
X0156736Y0064312D01*
D14*
X0144508Y0064035D02*
X0142206Y0064035D01*
X0141439Y0064802D01*
X0141439Y0066337D01*
X0142206Y0067104D01*
X0144508Y0067104D01*
X0144508Y0062500D01*
X0142973Y0064035D02*
X0141439Y0062500D01*
X0139904Y0063267D02*
X0139904Y0064035D01*
X0139137Y0064802D01*
X0137602Y0064802D01*
X0136835Y0064035D01*
X0136835Y0063267D01*
X0137602Y0062500D01*
X0139137Y0062500D01*
X0139904Y0063267D01*
X0139137Y0064802D02*
X0139904Y0065569D01*
X0139904Y0066337D01*
X0139137Y0067104D01*
X0137602Y0067104D01*
X0136835Y0066337D01*
X0136835Y0065569D01*
X0137602Y0064802D01*
X0137037Y0063173D02*
X0136269Y0063173D01*
X0135502Y0062406D01*
X0134735Y0063173D01*
X0133967Y0063173D01*
X0133200Y0062406D01*
X0133200Y0060871D01*
X0133967Y0060104D01*
X0133200Y0058569D02*
X0134735Y0057035D01*
X0134735Y0057802D02*
X0134735Y0055500D01*
X0134300Y0055337D02*
X0134300Y0052267D01*
X0133533Y0051500D01*
X0131998Y0051500D01*
X0131231Y0052267D01*
X0129696Y0052267D02*
X0128929Y0051500D01*
X0127394Y0051500D01*
X0126627Y0052267D01*
X0126627Y0055337D01*
X0127394Y0056104D01*
X0128929Y0056104D01*
X0129696Y0055337D01*
X0129696Y0054569D01*
X0128929Y0053802D01*
X0126627Y0053802D01*
X0131231Y0055337D02*
X0131998Y0056104D01*
X0133533Y0056104D01*
X0134300Y0055337D01*
X0133200Y0055500D02*
X0137804Y0055500D01*
X0137804Y0057802D01*
X0137037Y0058569D01*
X0135502Y0058569D01*
X0134735Y0057802D01*
X0137037Y0060104D02*
X0137804Y0060871D01*
X0137804Y0062406D01*
X0137037Y0063173D01*
X0135502Y0062406D02*
X0135502Y0061639D01*
X0146602Y0041104D02*
X0145835Y0040337D01*
X0145835Y0039569D01*
X0146602Y0038802D01*
X0148137Y0038802D01*
X0148904Y0039569D01*
X0148904Y0040337D01*
X0148137Y0041104D01*
X0146602Y0041104D01*
X0146602Y0038802D02*
X0145835Y0038035D01*
X0145835Y0037267D01*
X0146602Y0036500D01*
X0148137Y0036500D01*
X0148904Y0037267D01*
X0148904Y0038035D01*
X0148137Y0038802D01*
X0150439Y0040337D02*
X0151206Y0041104D01*
X0152741Y0041104D01*
X0153508Y0040337D01*
X0153508Y0037267D01*
X0152741Y0036500D01*
X0151206Y0036500D01*
X0150439Y0037267D01*
X0241335Y0181500D02*
X0244404Y0181500D01*
X0241335Y0184569D01*
X0241335Y0185337D01*
X0242102Y0186104D01*
X0243637Y0186104D01*
X0244404Y0185337D01*
X0247473Y0186104D02*
X0247473Y0181500D01*
X0245939Y0181500D02*
X0249008Y0181500D01*
X0250543Y0181500D02*
X0252077Y0183035D01*
X0251310Y0183035D02*
X0253612Y0183035D01*
X0253612Y0181500D02*
X0253612Y0186104D01*
X0251310Y0186104D01*
X0250543Y0185337D01*
X0250543Y0183802D01*
X0251310Y0183035D01*
X0249008Y0184569D02*
X0247473Y0186104D01*
X0201612Y0186604D02*
X0201612Y0182000D01*
X0201612Y0183535D02*
X0199310Y0183535D01*
X0198543Y0184302D01*
X0198543Y0185837D01*
X0199310Y0186604D01*
X0201612Y0186604D01*
X0197008Y0185069D02*
X0195473Y0186604D01*
X0195473Y0182000D01*
X0193939Y0182000D02*
X0197008Y0182000D01*
X0198543Y0182000D02*
X0200077Y0183535D01*
X0192404Y0185069D02*
X0190869Y0186604D01*
X0190869Y0182000D01*
X0189335Y0182000D02*
X0192404Y0182000D01*
X0144800Y0193500D02*
X0144800Y0198104D01*
X0142498Y0198104D01*
X0141731Y0197337D01*
X0141731Y0195802D01*
X0142498Y0195035D01*
X0144800Y0195035D01*
X0143265Y0195035D02*
X0141731Y0193500D01*
X0140196Y0193500D02*
X0137127Y0193500D01*
X0138661Y0193500D02*
X0138661Y0198104D01*
X0140196Y0196569D01*
X0135592Y0197337D02*
X0134825Y0198104D01*
X0133290Y0198104D01*
X0132523Y0197337D01*
X0135592Y0194267D01*
X0134825Y0193500D01*
X0133290Y0193500D01*
X0132523Y0194267D01*
X0132523Y0197337D01*
X0135592Y0197337D02*
X0135592Y0194267D01*
X0039800Y0193535D02*
X0037498Y0193535D01*
X0036731Y0194302D01*
X0036731Y0195837D01*
X0037498Y0196604D01*
X0039800Y0196604D01*
X0039800Y0192000D01*
X0038265Y0193535D02*
X0036731Y0192000D01*
X0035196Y0192767D02*
X0034429Y0192000D01*
X0032894Y0192000D01*
X0032127Y0192767D01*
X0032127Y0195837D01*
X0032894Y0196604D01*
X0034429Y0196604D01*
X0035196Y0195837D01*
X0035196Y0195069D01*
X0034429Y0194302D01*
X0032127Y0194302D01*
D15*
X0115943Y0083955D02*
X0118045Y0083955D01*
X0119096Y0082904D01*
X0121337Y0082904D02*
X0122388Y0083955D01*
X0124490Y0083955D01*
X0125541Y0082904D01*
X0125541Y0081854D01*
X0124490Y0080803D01*
X0122388Y0080803D01*
X0121337Y0079752D01*
X0121337Y0078701D01*
X0122388Y0077650D01*
X0124490Y0077650D01*
X0125541Y0078701D01*
X0127783Y0078701D02*
X0127783Y0083955D01*
X0131987Y0083955D02*
X0131987Y0078701D01*
X0130936Y0077650D01*
X0128834Y0077650D01*
X0127783Y0078701D01*
X0123439Y0076599D02*
X0123439Y0085006D01*
X0115943Y0083955D02*
X0114892Y0082904D01*
X0114892Y0081854D01*
X0119096Y0077650D01*
X0114892Y0077650D01*
M02*
