G75*
%MOIN*%
%OFA0B0*%
%FSLAX25Y25*%
%IPPOS*%
%LPD*%
%AMOC8*
5,1,8,0,0,1.08239X$1,22.5*
%
%ADD10C,0.00000*%
%ADD11OC8,0.06600*%
%ADD12C,0.06600*%
%ADD13R,0.06506X0.01663*%
%ADD14R,0.01663X0.06506*%
%ADD15R,0.08868X0.06112*%
%ADD16C,0.04756*%
D10*
X0001500Y0001500D02*
X0001500Y0296461D01*
X0305201Y0296461D01*
X0305201Y0001500D01*
X0001500Y0001500D01*
D11*
X0098500Y0105500D03*
X0098500Y0115500D03*
X0108500Y0115500D03*
X0108500Y0105500D03*
X0118500Y0105500D03*
X0118500Y0115500D03*
D12*
X0020000Y0118500D02*
X0014000Y0118500D01*
X0014000Y0108500D02*
X0020000Y0108500D01*
X0020000Y0098500D02*
X0014000Y0098500D01*
X0014000Y0088500D02*
X0020000Y0088500D01*
X0020000Y0078500D02*
X0014000Y0078500D01*
X0014000Y0068500D02*
X0020000Y0068500D01*
X0020000Y0058500D02*
X0014000Y0058500D01*
X0014000Y0048500D02*
X0020000Y0048500D01*
X0020000Y0038500D02*
X0014000Y0038500D01*
X0014000Y0028500D02*
X0020000Y0028500D01*
X0032000Y0017500D02*
X0032000Y0011500D01*
X0042000Y0011500D02*
X0042000Y0017500D01*
X0052000Y0017500D02*
X0052000Y0011500D01*
X0062000Y0011500D02*
X0062000Y0017500D01*
X0072000Y0017500D02*
X0072000Y0011500D01*
X0082000Y0011500D02*
X0082000Y0017500D01*
X0092000Y0017500D02*
X0092000Y0011500D01*
X0102000Y0011500D02*
X0102000Y0017500D01*
X0112000Y0017500D02*
X0112000Y0011500D01*
X0122000Y0011500D02*
X0122000Y0017500D01*
X0132000Y0017500D02*
X0132000Y0011500D01*
X0142000Y0011500D02*
X0142000Y0017500D01*
X0152000Y0017500D02*
X0152000Y0011500D01*
X0162000Y0011500D02*
X0162000Y0017500D01*
X0172000Y0017500D02*
X0172000Y0011500D01*
X0182000Y0011500D02*
X0182000Y0017500D01*
X0192000Y0017500D02*
X0192000Y0011500D01*
X0202000Y0011500D02*
X0202000Y0017500D01*
X0212000Y0017500D02*
X0212000Y0011500D01*
X0222000Y0011500D02*
X0222000Y0017500D01*
X0232000Y0017500D02*
X0232000Y0011500D01*
X0242000Y0011500D02*
X0242000Y0017500D01*
X0252000Y0017500D02*
X0252000Y0011500D01*
X0262000Y0011500D02*
X0262000Y0017500D01*
X0272000Y0017500D02*
X0272000Y0011500D01*
X0284000Y0027500D02*
X0290000Y0027500D01*
X0290000Y0037500D02*
X0284000Y0037500D01*
X0284000Y0047500D02*
X0290000Y0047500D01*
X0290000Y0057500D02*
X0284000Y0057500D01*
X0284000Y0067500D02*
X0290000Y0067500D01*
X0290000Y0077500D02*
X0284000Y0077500D01*
X0284000Y0087500D02*
X0290000Y0087500D01*
X0290000Y0097500D02*
X0284000Y0097500D01*
X0284000Y0107500D02*
X0290000Y0107500D01*
X0290000Y0117500D02*
X0284000Y0117500D01*
X0284000Y0127500D02*
X0290000Y0127500D01*
X0290000Y0137500D02*
X0284000Y0137500D01*
X0284000Y0147500D02*
X0290000Y0147500D01*
X0290000Y0157500D02*
X0284000Y0157500D01*
X0284000Y0167500D02*
X0290000Y0167500D01*
X0290000Y0177500D02*
X0284000Y0177500D01*
X0284000Y0187500D02*
X0290000Y0187500D01*
X0290000Y0197500D02*
X0284000Y0197500D01*
X0284000Y0207500D02*
X0290000Y0207500D01*
X0290000Y0217500D02*
X0284000Y0217500D01*
X0284000Y0227500D02*
X0290000Y0227500D01*
X0290000Y0237500D02*
X0284000Y0237500D01*
X0284000Y0247500D02*
X0290000Y0247500D01*
X0290000Y0257500D02*
X0284000Y0257500D01*
X0284000Y0267500D02*
X0290000Y0267500D01*
X0271000Y0276500D02*
X0271000Y0282500D01*
X0261000Y0282500D02*
X0261000Y0276500D01*
X0251000Y0276500D02*
X0251000Y0282500D01*
X0241000Y0282500D02*
X0241000Y0276500D01*
X0231000Y0276500D02*
X0231000Y0282500D01*
X0221000Y0282500D02*
X0221000Y0276500D01*
X0211000Y0276500D02*
X0211000Y0282500D01*
X0201000Y0282500D02*
X0201000Y0276500D01*
X0191000Y0276500D02*
X0191000Y0282500D01*
X0181000Y0282500D02*
X0181000Y0276500D01*
X0171000Y0276500D02*
X0171000Y0282500D01*
X0161000Y0282500D02*
X0161000Y0276500D01*
X0151000Y0276500D02*
X0151000Y0282500D01*
X0141000Y0282500D02*
X0141000Y0276500D01*
X0131000Y0276500D02*
X0131000Y0282500D01*
X0121000Y0282500D02*
X0121000Y0276500D01*
X0111000Y0276500D02*
X0111000Y0282500D01*
X0101000Y0282500D02*
X0101000Y0276500D01*
X0091000Y0276500D02*
X0091000Y0282500D01*
X0081000Y0282500D02*
X0081000Y0276500D01*
X0071000Y0276500D02*
X0071000Y0282500D01*
X0061000Y0282500D02*
X0061000Y0276500D01*
X0051000Y0276500D02*
X0051000Y0282500D01*
X0041000Y0282500D02*
X0041000Y0276500D01*
X0031000Y0276500D02*
X0031000Y0282500D01*
X0020000Y0268500D02*
X0014000Y0268500D01*
X0014000Y0258500D02*
X0020000Y0258500D01*
X0020000Y0248500D02*
X0014000Y0248500D01*
X0014000Y0238500D02*
X0020000Y0238500D01*
X0020000Y0228500D02*
X0014000Y0228500D01*
X0014000Y0218500D02*
X0020000Y0218500D01*
X0020000Y0208500D02*
X0014000Y0208500D01*
X0014000Y0198500D02*
X0020000Y0198500D01*
X0020000Y0188500D02*
X0014000Y0188500D01*
X0014000Y0178500D02*
X0020000Y0178500D01*
X0020000Y0168500D02*
X0014000Y0168500D01*
X0014000Y0158500D02*
X0020000Y0158500D01*
X0020000Y0148500D02*
X0014000Y0148500D01*
X0014000Y0138500D02*
X0020000Y0138500D01*
X0020000Y0128500D02*
X0014000Y0128500D01*
D13*
X0123988Y0128878D03*
X0123988Y0130846D03*
X0123988Y0132815D03*
X0123988Y0134783D03*
X0123988Y0136752D03*
X0123988Y0138720D03*
X0123988Y0140689D03*
X0123988Y0142657D03*
X0123988Y0144626D03*
X0123988Y0146594D03*
X0123988Y0148563D03*
X0123988Y0150531D03*
X0123988Y0152500D03*
X0123988Y0154469D03*
X0123988Y0156437D03*
X0123988Y0158406D03*
X0123988Y0160374D03*
X0123988Y0162343D03*
X0123988Y0164311D03*
X0123988Y0166280D03*
X0123988Y0168248D03*
X0123988Y0170217D03*
X0123988Y0172185D03*
X0123988Y0174154D03*
X0123988Y0176122D03*
X0185012Y0176122D03*
X0185012Y0174154D03*
X0185012Y0172185D03*
X0185012Y0170217D03*
X0185012Y0168248D03*
X0185012Y0166280D03*
X0185012Y0164311D03*
X0185012Y0162343D03*
X0185012Y0160374D03*
X0185012Y0158406D03*
X0185012Y0156437D03*
X0185012Y0154469D03*
X0185012Y0152500D03*
X0185012Y0150531D03*
X0185012Y0148563D03*
X0185012Y0146594D03*
X0185012Y0144626D03*
X0185012Y0142657D03*
X0185012Y0140689D03*
X0185012Y0138720D03*
X0185012Y0136752D03*
X0185012Y0134783D03*
X0185012Y0132815D03*
X0185012Y0130846D03*
X0185012Y0128878D03*
D14*
X0178122Y0121988D03*
X0176154Y0121988D03*
X0174185Y0121988D03*
X0172217Y0121988D03*
X0170248Y0121988D03*
X0168280Y0121988D03*
X0166311Y0121988D03*
X0164343Y0121988D03*
X0162374Y0121988D03*
X0160406Y0121988D03*
X0158437Y0121988D03*
X0156469Y0121988D03*
X0154500Y0121988D03*
X0152531Y0121988D03*
X0150563Y0121988D03*
X0148594Y0121988D03*
X0146626Y0121988D03*
X0144657Y0121988D03*
X0142689Y0121988D03*
X0140720Y0121988D03*
X0138752Y0121988D03*
X0136783Y0121988D03*
X0134815Y0121988D03*
X0132846Y0121988D03*
X0130878Y0121988D03*
X0130878Y0183012D03*
X0132846Y0183012D03*
X0134815Y0183012D03*
X0136783Y0183012D03*
X0138752Y0183012D03*
X0140720Y0183012D03*
X0142689Y0183012D03*
X0144657Y0183012D03*
X0146626Y0183012D03*
X0148594Y0183012D03*
X0150563Y0183012D03*
X0152531Y0183012D03*
X0154500Y0183012D03*
X0156469Y0183012D03*
X0158437Y0183012D03*
X0160406Y0183012D03*
X0162374Y0183012D03*
X0164343Y0183012D03*
X0166311Y0183012D03*
X0168280Y0183012D03*
X0170248Y0183012D03*
X0172217Y0183012D03*
X0174185Y0183012D03*
X0176154Y0183012D03*
X0178122Y0183012D03*
D15*
G36*
X0120182Y0197161D02*
X0112919Y0202246D01*
X0116424Y0207253D01*
X0123687Y0202168D01*
X0120182Y0197161D01*
G37*
G36*
X0110020Y0182649D02*
X0102757Y0187734D01*
X0106262Y0192741D01*
X0113525Y0187656D01*
X0110020Y0182649D01*
G37*
G36*
X0080995Y0202972D02*
X0073732Y0208057D01*
X0077237Y0213064D01*
X0084500Y0207979D01*
X0080995Y0202972D01*
G37*
G36*
X0091157Y0217485D02*
X0083894Y0222570D01*
X0087399Y0227577D01*
X0094662Y0222492D01*
X0091157Y0217485D01*
G37*
D16*
X0121000Y0189000D03*
X0133500Y0171500D03*
X0149500Y0176500D03*
X0165500Y0162500D03*
X0175500Y0148500D03*
X0170500Y0143500D03*
X0155500Y0134500D03*
X0149500Y0152500D03*
X0133500Y0151500D03*
X0133500Y0143500D03*
X0118500Y0124500D03*
X0081724Y0116080D03*
X0109912Y0051976D03*
X0146000Y0026000D03*
X0198769Y0047183D03*
X0100500Y0180500D03*
X0081967Y0180604D03*
M02*
