G75*
%MOIN*%
%OFA0B0*%
%FSLAX25Y25*%
%IPPOS*%
%LPD*%
%AMOC8*
5,1,8,0,0,1.08239X$1,22.5*
%
%ADD10C,0.00000*%
%ADD11C,0.00400*%
%ADD12C,0.00800*%
%ADD13C,0.00500*%
D10*
X0001500Y0001500D02*
X0001500Y0296461D01*
X0305201Y0296461D01*
X0305201Y0001500D01*
X0001500Y0001500D01*
D11*
X0123700Y0095259D02*
X0123700Y0096794D01*
X0124467Y0097561D01*
X0123700Y0099096D02*
X0126769Y0102165D01*
X0127537Y0102165D01*
X0128304Y0101398D01*
X0128304Y0099863D01*
X0127537Y0099096D01*
X0127537Y0097561D02*
X0128304Y0096794D01*
X0128304Y0095259D01*
X0127537Y0094492D01*
X0124467Y0094492D01*
X0123700Y0095259D01*
X0123700Y0099096D02*
X0123700Y0102165D01*
X0134700Y0101398D02*
X0134700Y0099863D01*
X0135467Y0099096D01*
X0138537Y0102165D01*
X0135467Y0102165D01*
X0134700Y0101398D01*
X0135467Y0099096D02*
X0138537Y0099096D01*
X0139304Y0099863D01*
X0139304Y0101398D01*
X0138537Y0102165D01*
X0134700Y0097561D02*
X0134700Y0094492D01*
X0134700Y0096027D02*
X0139304Y0096027D01*
X0137769Y0094492D01*
X0138537Y0092957D02*
X0139304Y0092190D01*
X0139304Y0090656D01*
X0138537Y0089888D01*
X0135467Y0089888D01*
X0134700Y0090656D01*
X0134700Y0092190D01*
X0135467Y0092957D01*
X0156700Y0095259D02*
X0156700Y0096794D01*
X0157467Y0097561D01*
X0159002Y0099096D02*
X0159002Y0102165D01*
X0160700Y0100606D02*
X0160700Y0099071D01*
X0161467Y0098304D01*
X0160537Y0097561D02*
X0161304Y0096794D01*
X0161304Y0095259D01*
X0160537Y0094492D01*
X0157467Y0094492D01*
X0156700Y0095259D01*
X0160700Y0096002D02*
X0161467Y0096769D01*
X0160700Y0096002D02*
X0160700Y0094467D01*
X0161467Y0093700D01*
X0164537Y0093700D01*
X0165304Y0094467D01*
X0165304Y0096002D01*
X0164537Y0096769D01*
X0164537Y0098304D02*
X0165304Y0099071D01*
X0165304Y0100606D01*
X0164537Y0101373D01*
X0163769Y0101373D01*
X0163002Y0100606D01*
X0162235Y0101373D01*
X0161467Y0101373D01*
X0160700Y0100606D01*
X0161304Y0101398D02*
X0156700Y0101398D01*
X0159002Y0099096D02*
X0161304Y0101398D01*
X0163002Y0100606D02*
X0163002Y0099839D01*
X0167700Y0099863D02*
X0167700Y0101398D01*
X0168467Y0102165D01*
X0169235Y0102165D01*
X0170002Y0101398D01*
X0170002Y0099096D01*
X0168467Y0099096D01*
X0167700Y0099863D01*
X0168467Y0097561D02*
X0167700Y0096794D01*
X0167700Y0095259D01*
X0168467Y0094492D01*
X0171537Y0094492D01*
X0172304Y0095259D01*
X0172304Y0096794D01*
X0171537Y0097561D01*
X0170002Y0099096D02*
X0171537Y0100631D01*
X0172304Y0102165D01*
X0172467Y0114700D02*
X0171700Y0115467D01*
X0171700Y0117002D01*
X0172467Y0117769D01*
X0172467Y0119304D02*
X0171700Y0120071D01*
X0171700Y0121606D01*
X0172467Y0122373D01*
X0174002Y0122373D01*
X0174769Y0121606D01*
X0174769Y0120839D01*
X0174002Y0119304D01*
X0176304Y0119304D01*
X0176304Y0122373D01*
X0175868Y0124393D02*
X0174333Y0124393D01*
X0173566Y0125160D01*
X0172031Y0124393D02*
X0168962Y0124393D01*
X0167428Y0124393D02*
X0167428Y0125160D01*
X0164358Y0128230D01*
X0164358Y0128997D01*
X0167428Y0128997D01*
X0165304Y0126977D02*
X0165304Y0123908D01*
X0163002Y0123908D01*
X0163769Y0125442D01*
X0163769Y0126210D01*
X0163002Y0126977D01*
X0161467Y0126977D01*
X0160700Y0126210D01*
X0160700Y0124675D01*
X0161467Y0123908D01*
X0160700Y0122373D02*
X0160700Y0119304D01*
X0160700Y0120839D02*
X0165304Y0120839D01*
X0163769Y0119304D01*
X0164537Y0117769D02*
X0165304Y0117002D01*
X0165304Y0115467D01*
X0164537Y0114700D01*
X0161467Y0114700D01*
X0160700Y0115467D01*
X0160700Y0117002D01*
X0161467Y0117769D01*
X0154304Y0117002D02*
X0154304Y0115467D01*
X0153537Y0114700D01*
X0150467Y0114700D01*
X0149700Y0115467D01*
X0149700Y0117002D01*
X0150467Y0117769D01*
X0150467Y0119304D02*
X0149700Y0119304D01*
X0150467Y0119304D02*
X0153537Y0122373D01*
X0154304Y0122373D01*
X0154304Y0119304D01*
X0153537Y0117769D02*
X0154304Y0117002D01*
X0148197Y0124314D02*
X0146663Y0124314D01*
X0145895Y0125081D01*
X0144361Y0124314D02*
X0141291Y0124314D01*
X0141002Y0123908D02*
X0141002Y0126210D01*
X0140235Y0126977D01*
X0139467Y0126977D01*
X0138700Y0126210D01*
X0138700Y0124675D01*
X0139467Y0123908D01*
X0141002Y0123908D01*
X0142537Y0125442D01*
X0143304Y0126977D01*
X0144361Y0127383D02*
X0142826Y0128918D01*
X0142826Y0124314D01*
X0143304Y0120839D02*
X0138700Y0120839D01*
X0138700Y0122373D02*
X0138700Y0119304D01*
X0139467Y0117769D02*
X0138700Y0117002D01*
X0138700Y0115467D01*
X0139467Y0114700D01*
X0142537Y0114700D01*
X0143304Y0115467D01*
X0143304Y0117002D01*
X0142537Y0117769D01*
X0141769Y0119304D02*
X0143304Y0120839D01*
X0148197Y0124314D02*
X0148965Y0125081D01*
X0148965Y0128151D01*
X0148197Y0128918D01*
X0146663Y0128918D01*
X0145895Y0128151D01*
X0147967Y0142700D02*
X0147200Y0143467D01*
X0147200Y0145002D01*
X0147967Y0145769D01*
X0147967Y0147304D02*
X0147200Y0148071D01*
X0147200Y0149606D01*
X0147967Y0150373D01*
X0148735Y0150373D01*
X0149502Y0149606D01*
X0149502Y0148071D01*
X0150269Y0147304D01*
X0151037Y0147304D01*
X0151804Y0148071D01*
X0151804Y0149606D01*
X0151037Y0150373D01*
X0150269Y0150373D01*
X0149502Y0149606D01*
X0149502Y0148071D02*
X0148735Y0147304D01*
X0147967Y0147304D01*
X0151037Y0145769D02*
X0151804Y0145002D01*
X0151804Y0143467D01*
X0151037Y0142700D01*
X0147967Y0142700D01*
X0162200Y0143467D02*
X0162200Y0145002D01*
X0162967Y0145769D01*
X0162200Y0147304D02*
X0162200Y0150373D01*
X0162200Y0148839D02*
X0166804Y0148839D01*
X0165269Y0147304D01*
X0166037Y0145769D02*
X0166804Y0145002D01*
X0166804Y0143467D01*
X0166037Y0142700D01*
X0162967Y0142700D01*
X0162200Y0143467D01*
X0164502Y0151908D02*
X0164502Y0154977D01*
X0162200Y0154210D02*
X0166804Y0154210D01*
X0164502Y0151908D01*
X0168894Y0160200D02*
X0168127Y0160967D01*
X0168127Y0164037D01*
X0168894Y0164804D01*
X0170429Y0164804D01*
X0171196Y0164037D01*
X0171196Y0163269D01*
X0170429Y0162502D01*
X0168127Y0162502D01*
X0168894Y0160200D02*
X0170429Y0160200D01*
X0171196Y0160967D01*
X0172731Y0160967D02*
X0173498Y0160200D01*
X0175033Y0160200D01*
X0175800Y0160967D01*
X0175800Y0164037D01*
X0175033Y0164804D01*
X0173498Y0164804D01*
X0172731Y0164037D01*
X0188127Y0148804D02*
X0191196Y0148804D01*
X0191196Y0146502D01*
X0189661Y0147269D01*
X0188894Y0147269D01*
X0188127Y0146502D01*
X0188127Y0144967D01*
X0188894Y0144200D01*
X0190429Y0144200D01*
X0191196Y0144967D01*
X0192731Y0144200D02*
X0194265Y0145735D01*
X0193498Y0145735D02*
X0195800Y0145735D01*
X0195800Y0144200D02*
X0195800Y0148804D01*
X0193498Y0148804D01*
X0192731Y0148037D01*
X0192731Y0146502D01*
X0193498Y0145735D01*
X0204700Y0153467D02*
X0204700Y0155002D01*
X0205467Y0155769D01*
X0204700Y0157304D02*
X0204700Y0160373D01*
X0204700Y0158839D02*
X0209304Y0158839D01*
X0207769Y0157304D01*
X0208537Y0155769D02*
X0209304Y0155002D01*
X0209304Y0153467D01*
X0208537Y0152700D01*
X0205467Y0152700D01*
X0204700Y0153467D01*
X0205467Y0161908D02*
X0204700Y0162675D01*
X0204700Y0164210D01*
X0205467Y0164977D01*
X0208537Y0164977D01*
X0209304Y0164210D01*
X0209304Y0162675D01*
X0208537Y0161908D01*
X0207769Y0161908D01*
X0207002Y0162675D01*
X0207002Y0164977D01*
X0207533Y0176700D02*
X0205998Y0176700D01*
X0205231Y0177467D01*
X0203696Y0176700D02*
X0200627Y0176700D01*
X0202161Y0176700D02*
X0202161Y0181304D01*
X0203696Y0179769D01*
X0205231Y0180537D02*
X0205998Y0181304D01*
X0207533Y0181304D01*
X0208300Y0180537D01*
X0208300Y0177467D01*
X0207533Y0176700D01*
X0199092Y0177467D02*
X0199092Y0178235D01*
X0198325Y0179002D01*
X0196790Y0179002D01*
X0196023Y0178235D01*
X0196023Y0177467D01*
X0196790Y0176700D01*
X0198325Y0176700D01*
X0199092Y0177467D01*
X0198325Y0179002D02*
X0199092Y0179769D01*
X0199092Y0180537D01*
X0198325Y0181304D01*
X0196790Y0181304D01*
X0196023Y0180537D01*
X0196023Y0179769D01*
X0196790Y0179002D01*
X0206394Y0188200D02*
X0206394Y0192804D01*
X0208696Y0190502D01*
X0205627Y0190502D01*
X0210231Y0190502D02*
X0210998Y0189735D01*
X0213300Y0189735D01*
X0211765Y0189735D02*
X0210231Y0188200D01*
X0210231Y0190502D02*
X0210231Y0192037D01*
X0210998Y0192804D01*
X0213300Y0192804D01*
X0213300Y0188200D01*
X0213137Y0139304D02*
X0211602Y0139304D01*
X0210835Y0138537D01*
X0210835Y0137769D01*
X0211602Y0137002D01*
X0210835Y0136235D01*
X0210835Y0135467D01*
X0211602Y0134700D01*
X0213137Y0134700D01*
X0213904Y0135467D01*
X0215439Y0134700D02*
X0216973Y0136235D01*
X0216206Y0136235D02*
X0218508Y0136235D01*
X0218508Y0134700D02*
X0218508Y0139304D01*
X0216206Y0139304D01*
X0215439Y0138537D01*
X0215439Y0137002D01*
X0216206Y0136235D01*
X0213904Y0138537D02*
X0213137Y0139304D01*
X0212369Y0137002D02*
X0211602Y0137002D01*
X0187304Y0126210D02*
X0187304Y0124675D01*
X0186537Y0123908D01*
X0185002Y0125442D02*
X0185002Y0126210D01*
X0184235Y0126977D01*
X0183467Y0126977D01*
X0182700Y0126210D01*
X0182700Y0124675D01*
X0183467Y0123908D01*
X0182700Y0122373D02*
X0182700Y0119304D01*
X0182700Y0120839D02*
X0187304Y0120839D01*
X0185769Y0119304D01*
X0186537Y0117769D02*
X0187304Y0117002D01*
X0187304Y0115467D01*
X0186537Y0114700D01*
X0183467Y0114700D01*
X0182700Y0115467D01*
X0182700Y0117002D01*
X0183467Y0117769D01*
X0176304Y0117002D02*
X0176304Y0115467D01*
X0175537Y0114700D01*
X0172467Y0114700D01*
X0175537Y0117769D02*
X0176304Y0117002D01*
X0175868Y0124393D02*
X0176635Y0125160D01*
X0176635Y0128230D01*
X0175868Y0128997D01*
X0174333Y0128997D01*
X0173566Y0128230D01*
X0172031Y0127462D02*
X0170497Y0128997D01*
X0170497Y0124393D01*
X0185002Y0126210D02*
X0185769Y0126977D01*
X0186537Y0126977D01*
X0187304Y0126210D01*
X0151804Y0159656D02*
X0151804Y0161190D01*
X0151037Y0161957D01*
X0151037Y0162700D02*
X0147967Y0162700D01*
X0147200Y0163467D01*
X0147200Y0165002D01*
X0147967Y0165769D01*
X0147200Y0165027D02*
X0151804Y0165027D01*
X0150269Y0163492D01*
X0151037Y0162700D02*
X0151804Y0163467D01*
X0151804Y0165002D01*
X0151037Y0165769D01*
X0150269Y0167304D02*
X0151804Y0168839D01*
X0147200Y0168839D01*
X0147200Y0168096D02*
X0150269Y0171165D01*
X0151037Y0171165D01*
X0151804Y0170398D01*
X0151804Y0168863D01*
X0151037Y0168096D01*
X0150269Y0171908D02*
X0151804Y0173442D01*
X0147200Y0173442D01*
X0147200Y0171908D02*
X0147200Y0174977D01*
X0147200Y0171165D02*
X0147200Y0168096D01*
X0147200Y0167304D02*
X0147200Y0170373D01*
X0147200Y0166561D02*
X0147200Y0163492D01*
X0147967Y0161957D02*
X0147200Y0161190D01*
X0147200Y0159656D01*
X0147967Y0158888D01*
X0151037Y0158888D01*
X0151804Y0159656D01*
X0101300Y0161700D02*
X0101300Y0166304D01*
X0098998Y0166304D01*
X0098231Y0165537D01*
X0098231Y0164002D01*
X0098998Y0163235D01*
X0101300Y0163235D01*
X0099765Y0163235D02*
X0098231Y0161700D01*
X0096696Y0161700D02*
X0093627Y0164769D01*
X0093627Y0165537D01*
X0094394Y0166304D01*
X0095929Y0166304D01*
X0096696Y0165537D01*
X0096696Y0161700D02*
X0093627Y0161700D01*
X0095161Y0153304D02*
X0095161Y0148700D01*
X0093627Y0148700D02*
X0096696Y0148700D01*
X0098231Y0148700D02*
X0099765Y0150235D01*
X0098998Y0150235D02*
X0101300Y0150235D01*
X0101300Y0148700D02*
X0101300Y0153304D01*
X0098998Y0153304D01*
X0098231Y0152537D01*
X0098231Y0151002D01*
X0098998Y0150235D01*
X0096696Y0151769D02*
X0095161Y0153304D01*
D12*
X0207264Y0151988D02*
X0207264Y0150807D01*
X0227736Y0150807D01*
X0227736Y0151988D01*
X0227736Y0163012D02*
X0227736Y0164193D01*
X0207264Y0164193D01*
X0207264Y0163012D01*
D13*
X0215982Y0165144D02*
X0217250Y0165144D01*
X0216616Y0165144D02*
X0216616Y0167045D01*
X0217250Y0166411D01*
X0218192Y0166728D02*
X0218192Y0167045D01*
X0218192Y0166728D02*
X0218826Y0166095D01*
X0218826Y0165144D01*
X0218826Y0166095D02*
X0219460Y0166728D01*
X0219460Y0167045D01*
M02*
