G75*
%MOIN*%
%OFA0B0*%
%FSLAX25Y25*%
%IPPOS*%
%LPD*%
%AMOC8*
5,1,8,0,0,1.08239X$1,22.5*
%
%ADD10C,0.00000*%
%ADD11R,0.05118X0.05906*%
%ADD12R,0.05906X0.05118*%
%ADD13OC8,0.06000*%
%ADD14C,0.06000*%
%ADD15R,0.05118X0.06299*%
%ADD16R,0.06693X0.09449*%
%ADD17C,0.04156*%
%ADD18C,0.01000*%
%ADD19C,0.01600*%
D10*
X0001500Y0001500D02*
X0001500Y0296461D01*
X0305201Y0296461D01*
X0305201Y0001500D01*
X0001500Y0001500D01*
D11*
X0141217Y0134114D03*
X0148697Y0134114D03*
X0164283Y0134193D03*
X0171764Y0134193D03*
X0189760Y0139000D03*
X0197240Y0139000D03*
X0174740Y0155000D03*
X0167260Y0155000D03*
X0199760Y0171500D03*
X0207240Y0171500D03*
X0207260Y0183000D03*
X0214740Y0183000D03*
D12*
X0199500Y0161240D03*
X0199500Y0153760D03*
X0177500Y0123240D03*
X0177500Y0115760D03*
X0166500Y0115760D03*
X0166500Y0123240D03*
X0155500Y0123240D03*
X0155500Y0115760D03*
X0144500Y0115760D03*
X0144500Y0123240D03*
X0133500Y0123240D03*
X0133500Y0115760D03*
X0133500Y0102240D03*
X0133500Y0094760D03*
X0144500Y0094760D03*
X0144500Y0102240D03*
X0155500Y0102240D03*
X0155500Y0094760D03*
X0166500Y0094760D03*
X0166500Y0102240D03*
X0177500Y0102240D03*
X0177500Y0094760D03*
X0157000Y0143760D03*
X0157000Y0151240D03*
X0157000Y0163760D03*
X0157000Y0171240D03*
X0142000Y0171240D03*
X0142000Y0163760D03*
X0142000Y0151240D03*
X0142000Y0143760D03*
D13*
X0118500Y0115500D03*
X0118500Y0105500D03*
X0108500Y0105500D03*
X0108500Y0115500D03*
X0098500Y0115500D03*
X0098500Y0105500D03*
D14*
X0020000Y0108500D02*
X0014000Y0108500D01*
X0014000Y0098500D02*
X0020000Y0098500D01*
X0020000Y0088500D02*
X0014000Y0088500D01*
X0014000Y0078500D02*
X0020000Y0078500D01*
X0020000Y0068500D02*
X0014000Y0068500D01*
X0014000Y0058500D02*
X0020000Y0058500D01*
X0020000Y0048500D02*
X0014000Y0048500D01*
X0014000Y0038500D02*
X0020000Y0038500D01*
X0020000Y0028500D02*
X0014000Y0028500D01*
X0032000Y0017500D02*
X0032000Y0011500D01*
X0042000Y0011500D02*
X0042000Y0017500D01*
X0052000Y0017500D02*
X0052000Y0011500D01*
X0062000Y0011500D02*
X0062000Y0017500D01*
X0072000Y0017500D02*
X0072000Y0011500D01*
X0082000Y0011500D02*
X0082000Y0017500D01*
X0092000Y0017500D02*
X0092000Y0011500D01*
X0102000Y0011500D02*
X0102000Y0017500D01*
X0112000Y0017500D02*
X0112000Y0011500D01*
X0122000Y0011500D02*
X0122000Y0017500D01*
X0132000Y0017500D02*
X0132000Y0011500D01*
X0142000Y0011500D02*
X0142000Y0017500D01*
X0152000Y0017500D02*
X0152000Y0011500D01*
X0162000Y0011500D02*
X0162000Y0017500D01*
X0172000Y0017500D02*
X0172000Y0011500D01*
X0182000Y0011500D02*
X0182000Y0017500D01*
X0192000Y0017500D02*
X0192000Y0011500D01*
X0202000Y0011500D02*
X0202000Y0017500D01*
X0212000Y0017500D02*
X0212000Y0011500D01*
X0222000Y0011500D02*
X0222000Y0017500D01*
X0232000Y0017500D02*
X0232000Y0011500D01*
X0242000Y0011500D02*
X0242000Y0017500D01*
X0252000Y0017500D02*
X0252000Y0011500D01*
X0262000Y0011500D02*
X0262000Y0017500D01*
X0272000Y0017500D02*
X0272000Y0011500D01*
X0284000Y0027500D02*
X0290000Y0027500D01*
X0290000Y0037500D02*
X0284000Y0037500D01*
X0284000Y0047500D02*
X0290000Y0047500D01*
X0290000Y0057500D02*
X0284000Y0057500D01*
X0284000Y0067500D02*
X0290000Y0067500D01*
X0290000Y0077500D02*
X0284000Y0077500D01*
X0284000Y0087500D02*
X0290000Y0087500D01*
X0290000Y0097500D02*
X0284000Y0097500D01*
X0284000Y0107500D02*
X0290000Y0107500D01*
X0290000Y0117500D02*
X0284000Y0117500D01*
X0284000Y0127500D02*
X0290000Y0127500D01*
X0290000Y0137500D02*
X0284000Y0137500D01*
X0284000Y0147500D02*
X0290000Y0147500D01*
X0290000Y0157500D02*
X0284000Y0157500D01*
X0284000Y0167500D02*
X0290000Y0167500D01*
X0290000Y0177500D02*
X0284000Y0177500D01*
X0284000Y0187500D02*
X0290000Y0187500D01*
X0290000Y0197500D02*
X0284000Y0197500D01*
X0284000Y0207500D02*
X0290000Y0207500D01*
X0290000Y0217500D02*
X0284000Y0217500D01*
X0284000Y0227500D02*
X0290000Y0227500D01*
X0290000Y0237500D02*
X0284000Y0237500D01*
X0284000Y0247500D02*
X0290000Y0247500D01*
X0290000Y0257500D02*
X0284000Y0257500D01*
X0284000Y0267500D02*
X0290000Y0267500D01*
X0271000Y0276500D02*
X0271000Y0282500D01*
X0261000Y0282500D02*
X0261000Y0276500D01*
X0251000Y0276500D02*
X0251000Y0282500D01*
X0241000Y0282500D02*
X0241000Y0276500D01*
X0231000Y0276500D02*
X0231000Y0282500D01*
X0221000Y0282500D02*
X0221000Y0276500D01*
X0211000Y0276500D02*
X0211000Y0282500D01*
X0201000Y0282500D02*
X0201000Y0276500D01*
X0191000Y0276500D02*
X0191000Y0282500D01*
X0181000Y0282500D02*
X0181000Y0276500D01*
X0171000Y0276500D02*
X0171000Y0282500D01*
X0161000Y0282500D02*
X0161000Y0276500D01*
X0151000Y0276500D02*
X0151000Y0282500D01*
X0141000Y0282500D02*
X0141000Y0276500D01*
X0131000Y0276500D02*
X0131000Y0282500D01*
X0121000Y0282500D02*
X0121000Y0276500D01*
X0111000Y0276500D02*
X0111000Y0282500D01*
X0101000Y0282500D02*
X0101000Y0276500D01*
X0091000Y0276500D02*
X0091000Y0282500D01*
X0081000Y0282500D02*
X0081000Y0276500D01*
X0071000Y0276500D02*
X0071000Y0282500D01*
X0061000Y0282500D02*
X0061000Y0276500D01*
X0051000Y0276500D02*
X0051000Y0282500D01*
X0041000Y0282500D02*
X0041000Y0276500D01*
X0031000Y0276500D02*
X0031000Y0282500D01*
X0020000Y0268500D02*
X0014000Y0268500D01*
X0014000Y0258500D02*
X0020000Y0258500D01*
X0020000Y0248500D02*
X0014000Y0248500D01*
X0014000Y0238500D02*
X0020000Y0238500D01*
X0020000Y0228500D02*
X0014000Y0228500D01*
X0014000Y0218500D02*
X0020000Y0218500D01*
X0020000Y0208500D02*
X0014000Y0208500D01*
X0014000Y0198500D02*
X0020000Y0198500D01*
X0020000Y0188500D02*
X0014000Y0188500D01*
X0014000Y0178500D02*
X0020000Y0178500D01*
X0020000Y0168500D02*
X0014000Y0168500D01*
X0014000Y0158500D02*
X0020000Y0158500D01*
X0020000Y0148500D02*
X0014000Y0148500D01*
X0014000Y0138500D02*
X0020000Y0138500D01*
X0020000Y0128500D02*
X0014000Y0128500D01*
X0014000Y0118500D02*
X0020000Y0118500D01*
D15*
X0092760Y0143500D03*
X0100240Y0143500D03*
X0100240Y0156500D03*
X0092760Y0156500D03*
X0210760Y0144500D03*
X0218240Y0144500D03*
D16*
X0224783Y0157500D03*
X0210217Y0157500D03*
D17*
X0175500Y0148500D03*
X0170500Y0143500D03*
X0155500Y0134500D03*
X0149500Y0152500D03*
X0133500Y0151500D03*
X0133500Y0143500D03*
X0118500Y0124500D03*
X0081724Y0116080D03*
X0133500Y0171500D03*
X0149500Y0176500D03*
X0165500Y0162500D03*
X0121000Y0189000D03*
X0100500Y0180500D03*
X0081967Y0180604D03*
X0109912Y0051976D03*
X0146000Y0026000D03*
X0198769Y0047183D03*
D18*
X0177586Y0026000D01*
X0146000Y0026000D01*
X0120024Y0051976D01*
X0109912Y0051976D01*
X0109912Y0085912D01*
X0126240Y0102240D01*
X0133500Y0102240D01*
X0144500Y0102240D01*
X0155500Y0102240D01*
X0166500Y0102240D01*
X0177500Y0102240D01*
X0177760Y0102500D01*
X0183500Y0102500D01*
X0184500Y0103500D01*
X0184500Y0113500D01*
X0182240Y0115760D01*
X0177500Y0115760D01*
X0166500Y0115760D01*
X0155500Y0115760D01*
X0144500Y0115760D01*
X0133500Y0115760D01*
X0129247Y0115330D02*
X0122800Y0115330D01*
X0122800Y0114332D02*
X0129247Y0114332D01*
X0129247Y0113333D02*
X0122414Y0113333D01*
X0122800Y0113719D02*
X0120281Y0111200D01*
X0116719Y0111200D01*
X0114200Y0113719D01*
X0114200Y0117281D01*
X0116719Y0119800D01*
X0120281Y0119800D01*
X0122800Y0117281D01*
X0122800Y0113719D01*
X0121416Y0112335D02*
X0129575Y0112335D01*
X0129247Y0112662D02*
X0130009Y0111901D01*
X0136991Y0111901D01*
X0137753Y0112662D01*
X0137753Y0113960D01*
X0140247Y0113960D01*
X0140247Y0112662D01*
X0141009Y0111901D01*
X0147991Y0111901D01*
X0148753Y0112662D01*
X0148753Y0113960D01*
X0151247Y0113960D01*
X0151247Y0112662D01*
X0152009Y0111901D01*
X0158991Y0111901D01*
X0159753Y0112662D01*
X0159753Y0113960D01*
X0162247Y0113960D01*
X0162247Y0112662D01*
X0163009Y0111901D01*
X0169991Y0111901D01*
X0170753Y0112662D01*
X0170753Y0113960D01*
X0173247Y0113960D01*
X0173247Y0112662D01*
X0174009Y0111901D01*
X0180991Y0111901D01*
X0181753Y0112662D01*
X0181753Y0113702D01*
X0182700Y0112754D01*
X0182700Y0104300D01*
X0181753Y0104300D01*
X0181753Y0105338D01*
X0180991Y0106099D01*
X0174009Y0106099D01*
X0173247Y0105338D01*
X0173247Y0104040D01*
X0170753Y0104040D01*
X0170753Y0105338D01*
X0169991Y0106099D01*
X0163009Y0106099D01*
X0162247Y0105338D01*
X0162247Y0104040D01*
X0159753Y0104040D01*
X0159753Y0105338D01*
X0158991Y0106099D01*
X0152009Y0106099D01*
X0151247Y0105338D01*
X0151247Y0104040D01*
X0148753Y0104040D01*
X0148753Y0105338D01*
X0147991Y0106099D01*
X0141009Y0106099D01*
X0140247Y0105338D01*
X0140247Y0104040D01*
X0137753Y0104040D01*
X0137753Y0105338D01*
X0136991Y0106099D01*
X0130009Y0106099D01*
X0129247Y0105338D01*
X0129247Y0104040D01*
X0125495Y0104040D01*
X0124440Y0102986D01*
X0124440Y0102986D01*
X0109167Y0087712D01*
X0108112Y0086658D01*
X0108112Y0054887D01*
X0107999Y0054840D01*
X0107049Y0053890D01*
X0106535Y0052648D01*
X0106535Y0051305D01*
X0107049Y0050063D01*
X0107999Y0049113D01*
X0109241Y0048599D01*
X0110584Y0048599D01*
X0111826Y0049113D01*
X0112776Y0050063D01*
X0112823Y0050176D01*
X0119278Y0050176D01*
X0142669Y0026785D01*
X0142622Y0026672D01*
X0142622Y0025328D01*
X0143136Y0024087D01*
X0144087Y0023136D01*
X0145328Y0022622D01*
X0146672Y0022622D01*
X0147913Y0023136D01*
X0148864Y0024087D01*
X0148911Y0024200D01*
X0178332Y0024200D01*
X0197983Y0043852D01*
X0198097Y0043805D01*
X0199441Y0043805D01*
X0200682Y0044319D01*
X0201632Y0045269D01*
X0202147Y0046511D01*
X0202147Y0047854D01*
X0201632Y0049096D01*
X0200682Y0050046D01*
X0199441Y0050560D01*
X0198097Y0050560D01*
X0196855Y0050046D01*
X0195905Y0049096D01*
X0195391Y0047854D01*
X0195391Y0046511D01*
X0195438Y0046397D01*
X0176841Y0027800D01*
X0148911Y0027800D01*
X0148864Y0027913D01*
X0147913Y0028864D01*
X0146672Y0029378D01*
X0145328Y0029378D01*
X0145215Y0029331D01*
X0120769Y0053776D01*
X0112823Y0053776D01*
X0112776Y0053890D01*
X0111826Y0054840D01*
X0111712Y0054887D01*
X0111712Y0085167D01*
X0126986Y0100440D01*
X0129247Y0100440D01*
X0129247Y0099143D01*
X0129781Y0098609D01*
X0129626Y0098519D01*
X0129347Y0098240D01*
X0129149Y0097898D01*
X0129047Y0097516D01*
X0129047Y0095260D01*
X0133000Y0095260D01*
X0133000Y0094260D01*
X0129047Y0094260D01*
X0129047Y0092003D01*
X0129149Y0091622D01*
X0129347Y0091280D01*
X0129626Y0091000D01*
X0129968Y0090803D01*
X0130350Y0090701D01*
X0133000Y0090701D01*
X0133000Y0094260D01*
X0134000Y0094260D01*
X0134000Y0095260D01*
X0137953Y0095260D01*
X0137953Y0097516D01*
X0137851Y0097898D01*
X0137653Y0098240D01*
X0137374Y0098519D01*
X0137219Y0098609D01*
X0137753Y0099143D01*
X0137753Y0100440D01*
X0140247Y0100440D01*
X0140247Y0099143D01*
X0140781Y0098609D01*
X0140626Y0098519D01*
X0140347Y0098240D01*
X0140149Y0097898D01*
X0140047Y0097516D01*
X0140047Y0095260D01*
X0144000Y0095260D01*
X0144000Y0094260D01*
X0140047Y0094260D01*
X0140047Y0092003D01*
X0140149Y0091622D01*
X0140347Y0091280D01*
X0140626Y0091000D01*
X0140968Y0090803D01*
X0141350Y0090701D01*
X0144000Y0090701D01*
X0144000Y0094260D01*
X0145000Y0094260D01*
X0145000Y0095260D01*
X0148953Y0095260D01*
X0148953Y0097516D01*
X0148851Y0097898D01*
X0148653Y0098240D01*
X0148374Y0098519D01*
X0148219Y0098609D01*
X0148753Y0099143D01*
X0148753Y0100440D01*
X0151247Y0100440D01*
X0151247Y0099143D01*
X0151781Y0098609D01*
X0151626Y0098519D01*
X0151347Y0098240D01*
X0151149Y0097898D01*
X0151047Y0097516D01*
X0151047Y0095260D01*
X0155000Y0095260D01*
X0155000Y0094260D01*
X0151047Y0094260D01*
X0151047Y0092003D01*
X0151149Y0091622D01*
X0151347Y0091280D01*
X0151626Y0091000D01*
X0151968Y0090803D01*
X0152350Y0090701D01*
X0155000Y0090701D01*
X0155000Y0094260D01*
X0156000Y0094260D01*
X0156000Y0095260D01*
X0159953Y0095260D01*
X0159953Y0097516D01*
X0159851Y0097898D01*
X0159653Y0098240D01*
X0159374Y0098519D01*
X0159219Y0098609D01*
X0159753Y0099143D01*
X0159753Y0100440D01*
X0162247Y0100440D01*
X0162247Y0099143D01*
X0162781Y0098609D01*
X0162626Y0098519D01*
X0162347Y0098240D01*
X0162149Y0097898D01*
X0162047Y0097516D01*
X0162047Y0095260D01*
X0166000Y0095260D01*
X0166000Y0094260D01*
X0162047Y0094260D01*
X0162047Y0092003D01*
X0162149Y0091622D01*
X0162347Y0091280D01*
X0162626Y0091000D01*
X0162968Y0090803D01*
X0163350Y0090701D01*
X0166000Y0090701D01*
X0166000Y0094260D01*
X0167000Y0094260D01*
X0167000Y0095260D01*
X0170953Y0095260D01*
X0170953Y0097516D01*
X0170851Y0097898D01*
X0170653Y0098240D01*
X0170374Y0098519D01*
X0170219Y0098609D01*
X0170753Y0099143D01*
X0170753Y0100440D01*
X0173247Y0100440D01*
X0173247Y0099143D01*
X0173781Y0098609D01*
X0173626Y0098519D01*
X0173347Y0098240D01*
X0173149Y0097898D01*
X0173047Y0097516D01*
X0173047Y0095260D01*
X0177000Y0095260D01*
X0177000Y0094260D01*
X0173047Y0094260D01*
X0173047Y0092003D01*
X0173149Y0091622D01*
X0173347Y0091280D01*
X0173626Y0091000D01*
X0173968Y0090803D01*
X0174350Y0090701D01*
X0177000Y0090701D01*
X0177000Y0094260D01*
X0178000Y0094260D01*
X0178000Y0095260D01*
X0181953Y0095260D01*
X0181953Y0097516D01*
X0181851Y0097898D01*
X0181653Y0098240D01*
X0181374Y0098519D01*
X0181219Y0098609D01*
X0181753Y0099143D01*
X0181753Y0100700D01*
X0184246Y0100700D01*
X0185300Y0101754D01*
X0186300Y0102754D01*
X0186300Y0114246D01*
X0185246Y0115300D01*
X0182986Y0117560D01*
X0181753Y0117560D01*
X0181753Y0118857D01*
X0181219Y0119391D01*
X0181374Y0119481D01*
X0181653Y0119760D01*
X0181851Y0120102D01*
X0181953Y0120484D01*
X0181953Y0122740D01*
X0178000Y0122740D01*
X0178000Y0123740D01*
X0181953Y0123740D01*
X0181953Y0125997D01*
X0181851Y0126378D01*
X0181653Y0126720D01*
X0181374Y0126999D01*
X0181032Y0127197D01*
X0180650Y0127299D01*
X0178000Y0127299D01*
X0178000Y0123740D01*
X0177000Y0123740D01*
X0177000Y0122740D01*
X0173047Y0122740D01*
X0173047Y0120484D01*
X0173149Y0120102D01*
X0173347Y0119760D01*
X0173626Y0119481D01*
X0173781Y0119391D01*
X0173247Y0118857D01*
X0173247Y0117560D01*
X0170753Y0117560D01*
X0170753Y0118857D01*
X0170219Y0119391D01*
X0170374Y0119481D01*
X0170653Y0119760D01*
X0170851Y0120102D01*
X0170953Y0120484D01*
X0170953Y0122740D01*
X0167000Y0122740D01*
X0167000Y0123740D01*
X0170953Y0123740D01*
X0170953Y0125997D01*
X0170851Y0126378D01*
X0170653Y0126720D01*
X0170374Y0126999D01*
X0170032Y0127197D01*
X0169650Y0127299D01*
X0167000Y0127299D01*
X0167000Y0123740D01*
X0166000Y0123740D01*
X0166000Y0122740D01*
X0162047Y0122740D01*
X0162047Y0120484D01*
X0162149Y0120102D01*
X0162347Y0119760D01*
X0162626Y0119481D01*
X0162781Y0119391D01*
X0162247Y0118857D01*
X0162247Y0117560D01*
X0159753Y0117560D01*
X0159753Y0118857D01*
X0159219Y0119391D01*
X0159374Y0119481D01*
X0159653Y0119760D01*
X0159851Y0120102D01*
X0159953Y0120484D01*
X0159953Y0122740D01*
X0156000Y0122740D01*
X0156000Y0123740D01*
X0159953Y0123740D01*
X0159953Y0125997D01*
X0159851Y0126378D01*
X0159653Y0126720D01*
X0159374Y0126999D01*
X0159032Y0127197D01*
X0158650Y0127299D01*
X0156000Y0127299D01*
X0156000Y0123740D01*
X0155000Y0123740D01*
X0155000Y0122740D01*
X0151047Y0122740D01*
X0151047Y0120484D01*
X0151149Y0120102D01*
X0151347Y0119760D01*
X0151626Y0119481D01*
X0151781Y0119391D01*
X0151247Y0118857D01*
X0151247Y0117560D01*
X0148753Y0117560D01*
X0148753Y0118857D01*
X0148219Y0119391D01*
X0148374Y0119481D01*
X0148653Y0119760D01*
X0148851Y0120102D01*
X0148953Y0120484D01*
X0148953Y0122740D01*
X0145000Y0122740D01*
X0145000Y0123740D01*
X0148953Y0123740D01*
X0148953Y0125997D01*
X0148851Y0126378D01*
X0148653Y0126720D01*
X0148374Y0126999D01*
X0148032Y0127197D01*
X0147650Y0127299D01*
X0145000Y0127299D01*
X0145000Y0123740D01*
X0144000Y0123740D01*
X0144000Y0122740D01*
X0140047Y0122740D01*
X0140047Y0120484D01*
X0140149Y0120102D01*
X0140347Y0119760D01*
X0140626Y0119481D01*
X0140781Y0119391D01*
X0140247Y0118857D01*
X0140247Y0117560D01*
X0137753Y0117560D01*
X0137753Y0118857D01*
X0137219Y0119391D01*
X0137374Y0119481D01*
X0137653Y0119760D01*
X0137851Y0120102D01*
X0137953Y0120484D01*
X0137953Y0122740D01*
X0134000Y0122740D01*
X0134000Y0123740D01*
X0137953Y0123740D01*
X0137953Y0125997D01*
X0137851Y0126378D01*
X0137653Y0126720D01*
X0137374Y0126999D01*
X0137032Y0127197D01*
X0136650Y0127299D01*
X0134000Y0127299D01*
X0134000Y0123740D01*
X0133000Y0123740D01*
X0133000Y0122740D01*
X0129047Y0122740D01*
X0129047Y0120484D01*
X0129149Y0120102D01*
X0129347Y0119760D01*
X0129626Y0119481D01*
X0129781Y0119391D01*
X0129247Y0118857D01*
X0129247Y0112662D01*
X0129247Y0116329D02*
X0122800Y0116329D01*
X0122754Y0117327D02*
X0129247Y0117327D01*
X0129247Y0118326D02*
X0121755Y0118326D01*
X0120757Y0119324D02*
X0129714Y0119324D01*
X0129090Y0120323D02*
X0023899Y0120323D01*
X0023645Y0120936D02*
X0022436Y0122145D01*
X0020855Y0122800D01*
X0013145Y0122800D01*
X0011564Y0122145D01*
X0010355Y0120936D01*
X0009700Y0119355D01*
X0009700Y0117645D01*
X0010355Y0116064D01*
X0011564Y0114855D01*
X0013145Y0114200D01*
X0020855Y0114200D01*
X0022436Y0114855D01*
X0023645Y0116064D01*
X0024300Y0117645D01*
X0024300Y0119355D01*
X0023645Y0120936D01*
X0023260Y0121321D02*
X0117347Y0121321D01*
X0117828Y0121122D02*
X0119172Y0121122D01*
X0120413Y0121636D01*
X0121364Y0122587D01*
X0121878Y0123828D01*
X0121878Y0125172D01*
X0121364Y0126413D01*
X0120413Y0127364D01*
X0119172Y0127878D01*
X0117828Y0127878D01*
X0116587Y0127364D01*
X0115636Y0126413D01*
X0115589Y0126300D01*
X0041746Y0126300D01*
X0022813Y0145232D01*
X0023645Y0146064D01*
X0023702Y0146200D01*
X0031254Y0146200D01*
X0035754Y0141700D01*
X0088901Y0141700D01*
X0088901Y0139812D01*
X0089662Y0139050D01*
X0095857Y0139050D01*
X0096500Y0139693D01*
X0097143Y0139050D01*
X0102921Y0139050D01*
X0114038Y0130157D01*
X0114495Y0129700D01*
X0114609Y0129700D01*
X0114698Y0129629D01*
X0115340Y0129700D01*
X0133246Y0129700D01*
X0136246Y0132700D01*
X0137357Y0132700D01*
X0137357Y0130623D01*
X0138119Y0129861D01*
X0144314Y0129861D01*
X0144848Y0130395D01*
X0144938Y0130240D01*
X0145217Y0129961D01*
X0145559Y0129764D01*
X0145940Y0129661D01*
X0148197Y0129661D01*
X0148197Y0133614D01*
X0149197Y0133614D01*
X0149197Y0134614D01*
X0152756Y0134614D01*
X0152756Y0137264D01*
X0152654Y0137646D01*
X0152456Y0137988D01*
X0152177Y0138267D01*
X0151835Y0138465D01*
X0151453Y0138567D01*
X0149197Y0138567D01*
X0149197Y0134614D01*
X0148197Y0134614D01*
X0148197Y0138567D01*
X0145940Y0138567D01*
X0145559Y0138465D01*
X0145217Y0138267D01*
X0144938Y0137988D01*
X0144848Y0137833D01*
X0144314Y0138367D01*
X0138119Y0138367D01*
X0137357Y0137605D01*
X0137357Y0136300D01*
X0134754Y0136300D01*
X0133700Y0135246D01*
X0131754Y0133300D01*
X0115872Y0133300D01*
X0104099Y0142718D01*
X0104099Y0147188D01*
X0103338Y0147950D01*
X0102040Y0147950D01*
X0102040Y0152050D01*
X0103338Y0152050D01*
X0104099Y0152812D01*
X0104099Y0160188D01*
X0103338Y0160950D01*
X0102040Y0160950D01*
X0102040Y0177482D01*
X0102413Y0177636D01*
X0103364Y0178587D01*
X0103878Y0179828D01*
X0103878Y0181172D01*
X0103364Y0182413D01*
X0102413Y0183364D01*
X0101172Y0183878D01*
X0099828Y0183878D01*
X0098587Y0183364D01*
X0097636Y0182413D01*
X0097122Y0181172D01*
X0097122Y0179828D01*
X0097636Y0178587D01*
X0098440Y0177783D01*
X0098440Y0160950D01*
X0097143Y0160950D01*
X0096500Y0160307D01*
X0095857Y0160950D01*
X0089662Y0160950D01*
X0088901Y0160188D01*
X0088901Y0158300D01*
X0073246Y0158300D01*
X0068800Y0162746D01*
X0068800Y0165853D01*
X0080502Y0177555D01*
X0081295Y0177227D01*
X0082639Y0177227D01*
X0083881Y0177741D01*
X0084831Y0178691D01*
X0085345Y0179933D01*
X0085345Y0181276D01*
X0084831Y0182518D01*
X0083881Y0183468D01*
X0082639Y0183982D01*
X0081295Y0183982D01*
X0080054Y0183468D01*
X0079104Y0182518D01*
X0078589Y0181276D01*
X0078589Y0180734D01*
X0065200Y0167345D01*
X0065200Y0161254D01*
X0071754Y0154700D01*
X0088901Y0154700D01*
X0088901Y0152812D01*
X0089662Y0152050D01*
X0095857Y0152050D01*
X0096500Y0152693D01*
X0097143Y0152050D01*
X0098440Y0152050D01*
X0098440Y0147950D01*
X0097143Y0147950D01*
X0096500Y0147307D01*
X0095857Y0147950D01*
X0089662Y0147950D01*
X0088901Y0147188D01*
X0088901Y0145300D01*
X0037246Y0145300D01*
X0033800Y0148746D01*
X0032746Y0149800D01*
X0024116Y0149800D01*
X0023645Y0150936D01*
X0022436Y0152145D01*
X0020855Y0152800D01*
X0013145Y0152800D01*
X0011564Y0152145D01*
X0010355Y0150936D01*
X0009700Y0149355D01*
X0009700Y0147645D01*
X0010355Y0146064D01*
X0011564Y0144855D01*
X0013145Y0144200D01*
X0018754Y0144200D01*
X0020154Y0142800D01*
X0013145Y0142800D01*
X0011564Y0142145D01*
X0010355Y0140936D01*
X0009700Y0139355D01*
X0009700Y0137645D01*
X0010355Y0136064D01*
X0011564Y0134855D01*
X0013145Y0134200D01*
X0020855Y0134200D01*
X0022436Y0134855D01*
X0023645Y0136064D01*
X0024300Y0137645D01*
X0024300Y0138654D01*
X0040254Y0122700D01*
X0115589Y0122700D01*
X0115636Y0122587D01*
X0116587Y0121636D01*
X0117828Y0121122D01*
X0119653Y0121321D02*
X0129047Y0121321D01*
X0129047Y0122320D02*
X0121097Y0122320D01*
X0121667Y0123318D02*
X0133000Y0123318D01*
X0133000Y0123740D02*
X0129047Y0123740D01*
X0129047Y0125997D01*
X0129149Y0126378D01*
X0129347Y0126720D01*
X0129626Y0126999D01*
X0129968Y0127197D01*
X0130350Y0127299D01*
X0133000Y0127299D01*
X0133000Y0123740D01*
X0133000Y0124317D02*
X0134000Y0124317D01*
X0134000Y0125315D02*
X0133000Y0125315D01*
X0133000Y0126314D02*
X0134000Y0126314D01*
X0134000Y0123318D02*
X0144000Y0123318D01*
X0144000Y0123740D02*
X0140047Y0123740D01*
X0140047Y0125997D01*
X0140149Y0126378D01*
X0140347Y0126720D01*
X0140626Y0126999D01*
X0140968Y0127197D01*
X0141350Y0127299D01*
X0144000Y0127299D01*
X0144000Y0123740D01*
X0144000Y0124317D02*
X0145000Y0124317D01*
X0145000Y0125315D02*
X0144000Y0125315D01*
X0144000Y0126314D02*
X0145000Y0126314D01*
X0145000Y0123318D02*
X0155000Y0123318D01*
X0155000Y0123740D02*
X0151047Y0123740D01*
X0151047Y0125997D01*
X0151149Y0126378D01*
X0151347Y0126720D01*
X0151626Y0126999D01*
X0151968Y0127197D01*
X0152350Y0127299D01*
X0155000Y0127299D01*
X0155000Y0123740D01*
X0154697Y0124043D02*
X0155500Y0123240D01*
X0155500Y0134500D01*
X0155114Y0134114D01*
X0148697Y0134114D01*
X0149197Y0134302D02*
X0160424Y0134302D01*
X0160424Y0135301D02*
X0152756Y0135301D01*
X0152756Y0136299D02*
X0160424Y0136299D01*
X0160424Y0137298D02*
X0152747Y0137298D01*
X0152127Y0138296D02*
X0161036Y0138296D01*
X0161186Y0138446D02*
X0160424Y0137684D01*
X0160424Y0130702D01*
X0161186Y0129940D01*
X0167381Y0129940D01*
X0167915Y0130474D01*
X0168004Y0130319D01*
X0168284Y0130040D01*
X0168626Y0129842D01*
X0169007Y0129740D01*
X0171264Y0129740D01*
X0171264Y0133693D01*
X0172264Y0133693D01*
X0172264Y0134693D01*
X0175823Y0134693D01*
X0175823Y0137343D01*
X0175721Y0137725D01*
X0175523Y0138067D01*
X0175244Y0138346D01*
X0174902Y0138543D01*
X0174520Y0138646D01*
X0172264Y0138646D01*
X0172264Y0134693D01*
X0171264Y0134693D01*
X0171264Y0138646D01*
X0170191Y0138646D01*
X0170300Y0138754D01*
X0170300Y0139075D01*
X0170823Y0140122D01*
X0171172Y0140122D01*
X0172413Y0140636D01*
X0173364Y0141587D01*
X0173878Y0142828D01*
X0173878Y0144172D01*
X0173364Y0145413D01*
X0172413Y0146364D01*
X0171172Y0146878D01*
X0169888Y0146878D01*
X0172278Y0149549D01*
X0172122Y0149172D01*
X0172122Y0147828D01*
X0172636Y0146587D01*
X0173587Y0145636D01*
X0174828Y0145122D01*
X0176172Y0145122D01*
X0177413Y0145636D01*
X0178364Y0146587D01*
X0178878Y0147828D01*
X0178878Y0149172D01*
X0178364Y0150413D01*
X0177934Y0150843D01*
X0178599Y0151509D01*
X0178599Y0158491D01*
X0177838Y0159253D01*
X0176300Y0159253D01*
X0176300Y0168246D01*
X0175246Y0169300D01*
X0171505Y0173040D01*
X0161253Y0173040D01*
X0161253Y0174338D01*
X0160491Y0175099D01*
X0153509Y0175099D01*
X0152747Y0174338D01*
X0152747Y0173040D01*
X0151300Y0173040D01*
X0151300Y0173589D01*
X0151413Y0173636D01*
X0152364Y0174587D01*
X0152878Y0175828D01*
X0152878Y0177172D01*
X0152364Y0178413D01*
X0151413Y0179364D01*
X0150172Y0179878D01*
X0148828Y0179878D01*
X0147587Y0179364D01*
X0146636Y0178413D01*
X0146122Y0177172D01*
X0146122Y0175828D01*
X0146636Y0174587D01*
X0147587Y0173636D01*
X0147700Y0173589D01*
X0147700Y0173040D01*
X0146253Y0173040D01*
X0146253Y0174338D01*
X0145491Y0175099D01*
X0138509Y0175099D01*
X0137747Y0174338D01*
X0137747Y0173300D01*
X0136411Y0173300D01*
X0136364Y0173413D01*
X0135413Y0174364D01*
X0134172Y0174878D01*
X0132828Y0174878D01*
X0131587Y0174364D01*
X0130636Y0173413D01*
X0130122Y0172172D01*
X0130122Y0170828D01*
X0130636Y0169587D01*
X0131587Y0168636D01*
X0132828Y0168122D01*
X0134172Y0168122D01*
X0135413Y0168636D01*
X0136364Y0169587D01*
X0136411Y0169700D01*
X0137747Y0169700D01*
X0137747Y0168143D01*
X0138281Y0167609D01*
X0138126Y0167519D01*
X0137847Y0167240D01*
X0137649Y0166898D01*
X0137547Y0166516D01*
X0137547Y0164260D01*
X0141500Y0164260D01*
X0141500Y0163260D01*
X0137547Y0163260D01*
X0137547Y0161003D01*
X0137649Y0160622D01*
X0137847Y0160280D01*
X0138126Y0160000D01*
X0138468Y0159803D01*
X0138850Y0159701D01*
X0141500Y0159701D01*
X0141500Y0163260D01*
X0142500Y0163260D01*
X0142500Y0164260D01*
X0146453Y0164260D01*
X0146453Y0166516D01*
X0146351Y0166898D01*
X0146153Y0167240D01*
X0145874Y0167519D01*
X0145719Y0167609D01*
X0146253Y0168143D01*
X0146253Y0169440D01*
X0152747Y0169440D01*
X0152747Y0168143D01*
X0153281Y0167609D01*
X0153126Y0167519D01*
X0152847Y0167240D01*
X0152649Y0166898D01*
X0152547Y0166516D01*
X0152547Y0164260D01*
X0156500Y0164260D01*
X0156500Y0163260D01*
X0152547Y0163260D01*
X0152547Y0161003D01*
X0152649Y0160622D01*
X0152847Y0160280D01*
X0153126Y0160000D01*
X0153468Y0159803D01*
X0153850Y0159701D01*
X0156500Y0159701D01*
X0156500Y0163260D01*
X0157500Y0163260D01*
X0157500Y0164260D01*
X0161453Y0164260D01*
X0161453Y0166516D01*
X0161351Y0166898D01*
X0161153Y0167240D01*
X0160874Y0167519D01*
X0160719Y0167609D01*
X0161253Y0168143D01*
X0161253Y0169440D01*
X0170014Y0169440D01*
X0172700Y0166754D01*
X0172700Y0159253D01*
X0171643Y0159253D01*
X0171109Y0158719D01*
X0171019Y0158874D01*
X0170740Y0159153D01*
X0170398Y0159351D01*
X0170016Y0159453D01*
X0167760Y0159453D01*
X0167760Y0155500D01*
X0166760Y0155500D01*
X0166760Y0159453D01*
X0164503Y0159453D01*
X0164122Y0159351D01*
X0163780Y0159153D01*
X0163500Y0158874D01*
X0163303Y0158532D01*
X0163201Y0158150D01*
X0163201Y0155500D01*
X0166760Y0155500D01*
X0166760Y0154500D01*
X0167760Y0154500D01*
X0167760Y0150547D01*
X0168341Y0150547D01*
X0165435Y0147300D01*
X0161754Y0147300D01*
X0161253Y0146798D01*
X0161253Y0146857D01*
X0160719Y0147391D01*
X0160874Y0147481D01*
X0161153Y0147760D01*
X0161351Y0148102D01*
X0161453Y0148484D01*
X0161453Y0150740D01*
X0157500Y0150740D01*
X0157500Y0151740D01*
X0161453Y0151740D01*
X0161453Y0153997D01*
X0161351Y0154378D01*
X0161153Y0154720D01*
X0160874Y0154999D01*
X0160532Y0155197D01*
X0160150Y0155299D01*
X0157500Y0155299D01*
X0157500Y0151740D01*
X0156500Y0151740D01*
X0156500Y0150740D01*
X0152547Y0150740D01*
X0152547Y0148484D01*
X0152649Y0148102D01*
X0152847Y0147760D01*
X0153126Y0147481D01*
X0153281Y0147391D01*
X0152747Y0146857D01*
X0152747Y0145560D01*
X0146253Y0145560D01*
X0146253Y0146857D01*
X0145719Y0147391D01*
X0145874Y0147481D01*
X0146153Y0147760D01*
X0146351Y0148102D01*
X0146453Y0148484D01*
X0146453Y0150740D01*
X0142500Y0150740D01*
X0142500Y0151740D01*
X0146453Y0151740D01*
X0146453Y0153997D01*
X0146351Y0154378D01*
X0146153Y0154720D01*
X0145874Y0154999D01*
X0145532Y0155197D01*
X0145150Y0155299D01*
X0142500Y0155299D01*
X0142500Y0151740D01*
X0141500Y0151740D01*
X0141500Y0150740D01*
X0137547Y0150740D01*
X0137547Y0148484D01*
X0137649Y0148102D01*
X0137847Y0147760D01*
X0138126Y0147481D01*
X0138281Y0147391D01*
X0137747Y0146857D01*
X0137747Y0145560D01*
X0136217Y0145560D01*
X0135413Y0146364D01*
X0134172Y0146878D01*
X0132828Y0146878D01*
X0131587Y0146364D01*
X0130636Y0145413D01*
X0130122Y0144172D01*
X0130122Y0142828D01*
X0130636Y0141587D01*
X0131587Y0140636D01*
X0132828Y0140122D01*
X0134172Y0140122D01*
X0135413Y0140636D01*
X0136364Y0141587D01*
X0136518Y0141960D01*
X0137747Y0141960D01*
X0137747Y0140662D01*
X0138509Y0139901D01*
X0145491Y0139901D01*
X0146253Y0140662D01*
X0146253Y0141960D01*
X0152747Y0141960D01*
X0152747Y0140662D01*
X0153509Y0139901D01*
X0160491Y0139901D01*
X0161253Y0140662D01*
X0161253Y0141960D01*
X0161505Y0141960D01*
X0163246Y0143700D01*
X0165552Y0143700D01*
X0165596Y0143661D01*
X0166290Y0143700D01*
X0166986Y0143700D01*
X0167027Y0143741D01*
X0167084Y0143744D01*
X0167122Y0143786D01*
X0167122Y0142828D01*
X0167589Y0141702D01*
X0167388Y0141300D01*
X0164754Y0141300D01*
X0163700Y0140246D01*
X0162483Y0139029D01*
X0162483Y0138446D01*
X0161186Y0138446D01*
X0162749Y0139295D02*
X0108378Y0139295D01*
X0107130Y0140293D02*
X0132415Y0140293D01*
X0130931Y0141292D02*
X0105882Y0141292D01*
X0104634Y0142290D02*
X0130345Y0142290D01*
X0130122Y0143289D02*
X0104099Y0143289D01*
X0104099Y0144287D02*
X0130170Y0144287D01*
X0130583Y0145286D02*
X0104099Y0145286D01*
X0104099Y0146284D02*
X0131507Y0146284D01*
X0133760Y0143760D02*
X0142000Y0143760D01*
X0157000Y0143760D01*
X0160760Y0143760D01*
X0162500Y0145500D01*
X0166240Y0145500D01*
X0174740Y0155000D01*
X0174740Y0149260D01*
X0175500Y0148500D01*
X0178652Y0147283D02*
X0188200Y0147283D01*
X0188200Y0148281D02*
X0178878Y0148281D01*
X0178833Y0149280D02*
X0188200Y0149280D01*
X0188200Y0149746D02*
X0188200Y0143253D01*
X0186662Y0143253D01*
X0185901Y0142491D01*
X0185901Y0135509D01*
X0186662Y0134747D01*
X0192857Y0134747D01*
X0193500Y0135390D01*
X0194143Y0134747D01*
X0200338Y0134747D01*
X0201099Y0135509D01*
X0201099Y0142491D01*
X0201068Y0142522D01*
X0201246Y0142700D01*
X0206901Y0142700D01*
X0206901Y0140812D01*
X0207662Y0140050D01*
X0208960Y0140050D01*
X0208960Y0129495D01*
X0213200Y0125254D01*
X0214254Y0124200D01*
X0266246Y0124200D01*
X0279700Y0137654D01*
X0279700Y0136645D01*
X0280355Y0135064D01*
X0281564Y0133855D01*
X0283145Y0133200D01*
X0290855Y0133200D01*
X0292436Y0133855D01*
X0293645Y0135064D01*
X0294300Y0136645D01*
X0294300Y0138355D01*
X0293645Y0139936D01*
X0292436Y0141145D01*
X0290855Y0141800D01*
X0283846Y0141800D01*
X0285246Y0143200D01*
X0290855Y0143200D01*
X0292436Y0143855D01*
X0293645Y0145064D01*
X0294300Y0146645D01*
X0294300Y0148355D01*
X0293645Y0149936D01*
X0292436Y0151145D01*
X0290855Y0151800D01*
X0283846Y0151800D01*
X0285246Y0153200D01*
X0290855Y0153200D01*
X0292436Y0153855D01*
X0293645Y0155064D01*
X0294300Y0156645D01*
X0294300Y0158355D01*
X0293645Y0159936D01*
X0292436Y0161145D01*
X0290855Y0161800D01*
X0285246Y0161800D01*
X0284046Y0163000D01*
X0286500Y0163000D01*
X0286500Y0167000D01*
X0280046Y0167000D01*
X0262246Y0184800D01*
X0218599Y0184800D01*
X0218599Y0186491D01*
X0217838Y0187253D01*
X0211643Y0187253D01*
X0211000Y0186610D01*
X0210357Y0187253D01*
X0204162Y0187253D01*
X0203401Y0186491D01*
X0203401Y0179509D01*
X0204162Y0178747D01*
X0205460Y0178747D01*
X0205460Y0175753D01*
X0204143Y0175753D01*
X0203609Y0175219D01*
X0203519Y0175374D01*
X0203240Y0175653D01*
X0202898Y0175851D01*
X0202516Y0175953D01*
X0200260Y0175953D01*
X0200260Y0172000D01*
X0199260Y0172000D01*
X0199260Y0175953D01*
X0197003Y0175953D01*
X0196622Y0175851D01*
X0196280Y0175653D01*
X0196000Y0175374D01*
X0195803Y0175032D01*
X0195701Y0174650D01*
X0195701Y0172000D01*
X0199260Y0172000D01*
X0199260Y0171000D01*
X0200260Y0171000D01*
X0200260Y0167047D01*
X0202516Y0167047D01*
X0202898Y0167149D01*
X0203240Y0167347D01*
X0203519Y0167626D01*
X0203609Y0167781D01*
X0204143Y0167247D01*
X0210338Y0167247D01*
X0211099Y0168009D01*
X0211099Y0169700D01*
X0219754Y0169700D01*
X0222700Y0166754D01*
X0222700Y0163524D01*
X0220899Y0163524D01*
X0220137Y0162763D01*
X0220137Y0152237D01*
X0220899Y0151476D01*
X0228668Y0151476D01*
X0229430Y0152237D01*
X0229430Y0162763D01*
X0228668Y0163524D01*
X0226300Y0163524D01*
X0226300Y0168246D01*
X0225246Y0169300D01*
X0221246Y0173300D01*
X0211099Y0173300D01*
X0211099Y0174991D01*
X0210338Y0175753D01*
X0209060Y0175753D01*
X0209060Y0178747D01*
X0210357Y0178747D01*
X0211000Y0179390D01*
X0211643Y0178747D01*
X0217838Y0178747D01*
X0218599Y0179509D01*
X0218599Y0181200D01*
X0260754Y0181200D01*
X0281187Y0160768D01*
X0280355Y0159936D01*
X0279700Y0158355D01*
X0279700Y0156645D01*
X0280355Y0155064D01*
X0281187Y0154232D01*
X0258754Y0131800D01*
X0222746Y0131800D01*
X0220040Y0134505D01*
X0220040Y0140050D01*
X0221338Y0140050D01*
X0222099Y0140812D01*
X0222099Y0148188D01*
X0221338Y0148950D01*
X0215143Y0148950D01*
X0214500Y0148307D01*
X0213857Y0148950D01*
X0207662Y0148950D01*
X0206901Y0148188D01*
X0206901Y0146300D01*
X0199754Y0146300D01*
X0198700Y0145246D01*
X0196707Y0143253D01*
X0194143Y0143253D01*
X0193500Y0142610D01*
X0192857Y0143253D01*
X0191800Y0143253D01*
X0191800Y0148254D01*
X0195247Y0151702D01*
X0195247Y0150662D01*
X0196009Y0149901D01*
X0202991Y0149901D01*
X0203753Y0150662D01*
X0203753Y0151700D01*
X0205246Y0151700D01*
X0205676Y0152131D01*
X0206332Y0151476D01*
X0214101Y0151476D01*
X0214863Y0152237D01*
X0214863Y0162763D01*
X0214101Y0163524D01*
X0206332Y0163524D01*
X0205570Y0162763D01*
X0205570Y0157116D01*
X0203754Y0155300D01*
X0203753Y0155300D01*
X0203753Y0156857D01*
X0203219Y0157391D01*
X0203374Y0157481D01*
X0203653Y0157760D01*
X0203851Y0158102D01*
X0203953Y0158484D01*
X0203953Y0160740D01*
X0200000Y0160740D01*
X0200000Y0161740D01*
X0203953Y0161740D01*
X0203953Y0163997D01*
X0203851Y0164378D01*
X0203653Y0164720D01*
X0203374Y0164999D01*
X0203032Y0165197D01*
X0202650Y0165299D01*
X0200000Y0165299D01*
X0200000Y0161740D01*
X0199000Y0161740D01*
X0199000Y0160740D01*
X0195047Y0160740D01*
X0195047Y0158484D01*
X0195149Y0158102D01*
X0195347Y0157760D01*
X0195626Y0157481D01*
X0195781Y0157391D01*
X0195247Y0156857D01*
X0195247Y0155560D01*
X0194014Y0155560D01*
X0188200Y0149746D01*
X0188733Y0150278D02*
X0178420Y0150278D01*
X0178367Y0151277D02*
X0189731Y0151277D01*
X0190730Y0152275D02*
X0178599Y0152275D01*
X0178599Y0153274D02*
X0191728Y0153274D01*
X0192727Y0154272D02*
X0178599Y0154272D01*
X0178599Y0155271D02*
X0193725Y0155271D01*
X0195247Y0156269D02*
X0178599Y0156269D01*
X0178599Y0157268D02*
X0195658Y0157268D01*
X0195105Y0158266D02*
X0178599Y0158266D01*
X0176300Y0159265D02*
X0195047Y0159265D01*
X0195047Y0160263D02*
X0176300Y0160263D01*
X0176300Y0161262D02*
X0199000Y0161262D01*
X0199000Y0161740D02*
X0195047Y0161740D01*
X0195047Y0163997D01*
X0195149Y0164378D01*
X0195347Y0164720D01*
X0195626Y0164999D01*
X0195968Y0165197D01*
X0196350Y0165299D01*
X0199000Y0165299D01*
X0199000Y0161740D01*
X0199000Y0162260D02*
X0200000Y0162260D01*
X0200000Y0161262D02*
X0205570Y0161262D01*
X0205570Y0162260D02*
X0203953Y0162260D01*
X0203953Y0163259D02*
X0206066Y0163259D01*
X0203883Y0164257D02*
X0222700Y0164257D01*
X0222700Y0165256D02*
X0202812Y0165256D01*
X0203077Y0167253D02*
X0204137Y0167253D01*
X0200260Y0167253D02*
X0199260Y0167253D01*
X0199260Y0167047D02*
X0199260Y0171000D01*
X0195701Y0171000D01*
X0195701Y0168350D01*
X0195803Y0167968D01*
X0196000Y0167626D01*
X0196280Y0167347D01*
X0196622Y0167149D01*
X0197003Y0167047D01*
X0199260Y0167047D01*
X0199260Y0168251D02*
X0200260Y0168251D01*
X0200260Y0169250D02*
X0199260Y0169250D01*
X0199260Y0170248D02*
X0200260Y0170248D01*
X0199500Y0171240D02*
X0199760Y0171500D01*
X0199500Y0171240D02*
X0199500Y0161240D01*
X0199000Y0163259D02*
X0200000Y0163259D01*
X0200000Y0164257D02*
X0199000Y0164257D01*
X0199000Y0165256D02*
X0200000Y0165256D01*
X0196188Y0165256D02*
X0176300Y0165256D01*
X0176300Y0166254D02*
X0222700Y0166254D01*
X0222202Y0167253D02*
X0210343Y0167253D01*
X0211099Y0168251D02*
X0221203Y0168251D01*
X0220205Y0169250D02*
X0211099Y0169250D01*
X0207260Y0171520D02*
X0207240Y0171500D01*
X0220500Y0171500D01*
X0224500Y0167500D01*
X0224500Y0157783D01*
X0224783Y0157500D01*
X0229430Y0157268D02*
X0279700Y0157268D01*
X0279700Y0158266D02*
X0229430Y0158266D01*
X0229430Y0159265D02*
X0280077Y0159265D01*
X0280682Y0160263D02*
X0229430Y0160263D01*
X0229430Y0161262D02*
X0280693Y0161262D01*
X0279694Y0162260D02*
X0229430Y0162260D01*
X0228934Y0163259D02*
X0278696Y0163259D01*
X0277697Y0164257D02*
X0226300Y0164257D01*
X0226300Y0165256D02*
X0276699Y0165256D01*
X0275700Y0166254D02*
X0226300Y0166254D01*
X0226300Y0167253D02*
X0274702Y0167253D01*
X0273703Y0168251D02*
X0226294Y0168251D01*
X0225296Y0169250D02*
X0272705Y0169250D01*
X0271706Y0170248D02*
X0224297Y0170248D01*
X0223299Y0171247D02*
X0270707Y0171247D01*
X0269709Y0172245D02*
X0222300Y0172245D01*
X0221302Y0173244D02*
X0268710Y0173244D01*
X0267712Y0174242D02*
X0211099Y0174242D01*
X0210849Y0175241D02*
X0266713Y0175241D01*
X0265715Y0176239D02*
X0209060Y0176239D01*
X0209060Y0177238D02*
X0264716Y0177238D01*
X0263718Y0178237D02*
X0209060Y0178237D01*
X0210845Y0179235D02*
X0211155Y0179235D01*
X0214740Y0183000D02*
X0261500Y0183000D01*
X0287000Y0157500D01*
X0259500Y0130000D01*
X0222000Y0130000D01*
X0218240Y0133760D01*
X0218240Y0144500D01*
X0222099Y0144287D02*
X0271242Y0144287D01*
X0272240Y0145286D02*
X0222099Y0145286D01*
X0222099Y0146284D02*
X0273239Y0146284D01*
X0274237Y0147283D02*
X0222099Y0147283D01*
X0222006Y0148281D02*
X0275236Y0148281D01*
X0276234Y0149280D02*
X0192825Y0149280D01*
X0193824Y0150278D02*
X0195631Y0150278D01*
X0195247Y0151277D02*
X0194822Y0151277D01*
X0194760Y0153760D02*
X0190000Y0149000D01*
X0190000Y0139240D01*
X0189760Y0139000D01*
X0185901Y0139295D02*
X0170410Y0139295D01*
X0171264Y0138296D02*
X0172264Y0138296D01*
X0172264Y0137298D02*
X0171264Y0137298D01*
X0171264Y0136299D02*
X0172264Y0136299D01*
X0172264Y0135301D02*
X0171264Y0135301D01*
X0171764Y0134193D02*
X0175807Y0134193D01*
X0177500Y0132500D01*
X0177500Y0123240D01*
X0166500Y0123240D01*
X0155500Y0123240D01*
X0144500Y0123240D01*
X0133500Y0123240D01*
X0137953Y0122320D02*
X0140047Y0122320D01*
X0140047Y0121321D02*
X0137953Y0121321D01*
X0137910Y0120323D02*
X0140090Y0120323D01*
X0140714Y0119324D02*
X0137286Y0119324D01*
X0137753Y0118326D02*
X0140247Y0118326D01*
X0140247Y0113333D02*
X0137753Y0113333D01*
X0137425Y0112335D02*
X0140575Y0112335D01*
X0140255Y0105345D02*
X0137745Y0105345D01*
X0137753Y0104347D02*
X0140247Y0104347D01*
X0140247Y0100353D02*
X0137753Y0100353D01*
X0137753Y0099354D02*
X0140247Y0099354D01*
X0140463Y0098356D02*
X0137537Y0098356D01*
X0137953Y0097357D02*
X0140047Y0097357D01*
X0140047Y0096359D02*
X0137953Y0096359D01*
X0137953Y0095360D02*
X0140047Y0095360D01*
X0140047Y0093363D02*
X0137953Y0093363D01*
X0137953Y0094260D02*
X0137953Y0092003D01*
X0137851Y0091622D01*
X0137653Y0091280D01*
X0137374Y0091000D01*
X0137032Y0090803D01*
X0136650Y0090701D01*
X0134000Y0090701D01*
X0134000Y0094260D01*
X0137953Y0094260D01*
X0137953Y0092365D02*
X0140047Y0092365D01*
X0140297Y0091366D02*
X0137703Y0091366D01*
X0134000Y0091366D02*
X0133000Y0091366D01*
X0133000Y0092365D02*
X0134000Y0092365D01*
X0134000Y0093363D02*
X0133000Y0093363D01*
X0133000Y0094362D02*
X0120907Y0094362D01*
X0121906Y0095360D02*
X0129047Y0095360D01*
X0129047Y0096359D02*
X0122904Y0096359D01*
X0123903Y0097357D02*
X0129047Y0097357D01*
X0129463Y0098356D02*
X0124901Y0098356D01*
X0125900Y0099354D02*
X0129247Y0099354D01*
X0129247Y0100353D02*
X0126898Y0100353D01*
X0124803Y0103348D02*
X0122429Y0103348D01*
X0122800Y0103719D02*
X0120281Y0101200D01*
X0116719Y0101200D01*
X0114200Y0103719D01*
X0114200Y0107281D01*
X0116719Y0109800D01*
X0120281Y0109800D01*
X0122800Y0107281D01*
X0122800Y0103719D01*
X0122800Y0104347D02*
X0129247Y0104347D01*
X0129255Y0105345D02*
X0122800Y0105345D01*
X0122800Y0106344D02*
X0182700Y0106344D01*
X0182700Y0107342D02*
X0122739Y0107342D01*
X0121740Y0108341D02*
X0182700Y0108341D01*
X0182700Y0109339D02*
X0120742Y0109339D01*
X0120417Y0111336D02*
X0182700Y0111336D01*
X0182700Y0110338D02*
X0023893Y0110338D01*
X0023645Y0110936D02*
X0022436Y0112145D01*
X0020855Y0112800D01*
X0013145Y0112800D01*
X0011564Y0112145D01*
X0010355Y0110936D01*
X0009700Y0109355D01*
X0009700Y0107645D01*
X0010355Y0106064D01*
X0011564Y0104855D01*
X0013145Y0104200D01*
X0020855Y0104200D01*
X0022436Y0104855D01*
X0023645Y0106064D01*
X0024300Y0107645D01*
X0024300Y0109355D01*
X0023645Y0110936D01*
X0023245Y0111336D02*
X0096583Y0111336D01*
X0096719Y0111200D02*
X0100281Y0111200D01*
X0102800Y0113719D01*
X0102800Y0117281D01*
X0100281Y0119800D01*
X0096719Y0119800D01*
X0094219Y0117300D01*
X0084875Y0117300D01*
X0084588Y0117993D01*
X0083638Y0118943D01*
X0082396Y0119458D01*
X0081052Y0119458D01*
X0079811Y0118943D01*
X0078861Y0117993D01*
X0078346Y0116752D01*
X0078346Y0115408D01*
X0078861Y0114166D01*
X0079811Y0113216D01*
X0081052Y0112702D01*
X0082396Y0112702D01*
X0083638Y0113216D01*
X0084122Y0113700D01*
X0094219Y0113700D01*
X0096719Y0111200D01*
X0096719Y0109800D02*
X0094200Y0107281D01*
X0094200Y0103719D01*
X0096719Y0101200D01*
X0100281Y0101200D01*
X0102800Y0103719D01*
X0102800Y0107281D01*
X0100281Y0109800D01*
X0096719Y0109800D01*
X0096258Y0109339D02*
X0024300Y0109339D01*
X0024300Y0108341D02*
X0095260Y0108341D01*
X0094261Y0107342D02*
X0024175Y0107342D01*
X0023761Y0106344D02*
X0094200Y0106344D01*
X0094200Y0105345D02*
X0022926Y0105345D01*
X0021209Y0104347D02*
X0094200Y0104347D01*
X0094571Y0103348D02*
X0003500Y0103348D01*
X0003500Y0102350D02*
X0012057Y0102350D01*
X0011564Y0102145D02*
X0010355Y0100936D01*
X0009700Y0099355D01*
X0009700Y0097645D01*
X0010355Y0096064D01*
X0011564Y0094855D01*
X0013145Y0094200D01*
X0020855Y0094200D01*
X0022436Y0094855D01*
X0023645Y0096064D01*
X0024300Y0097645D01*
X0024300Y0099355D01*
X0023645Y0100936D01*
X0022436Y0102145D01*
X0020855Y0102800D01*
X0013145Y0102800D01*
X0011564Y0102145D01*
X0010770Y0101351D02*
X0003500Y0101351D01*
X0003500Y0100353D02*
X0010113Y0100353D01*
X0009700Y0099354D02*
X0003500Y0099354D01*
X0003500Y0098356D02*
X0009700Y0098356D01*
X0009819Y0097357D02*
X0003500Y0097357D01*
X0003500Y0096359D02*
X0010233Y0096359D01*
X0011059Y0095360D02*
X0003500Y0095360D01*
X0003500Y0094362D02*
X0012755Y0094362D01*
X0013145Y0092800D02*
X0011564Y0092145D01*
X0010355Y0090936D01*
X0009700Y0089355D01*
X0009700Y0087645D01*
X0010355Y0086064D01*
X0011564Y0084855D01*
X0013145Y0084200D01*
X0020855Y0084200D01*
X0022436Y0084855D01*
X0023645Y0086064D01*
X0024300Y0087645D01*
X0024300Y0089355D01*
X0023645Y0090936D01*
X0022436Y0092145D01*
X0020855Y0092800D01*
X0013145Y0092800D01*
X0012093Y0092365D02*
X0003500Y0092365D01*
X0003500Y0093363D02*
X0114817Y0093363D01*
X0113819Y0092365D02*
X0021907Y0092365D01*
X0023215Y0091366D02*
X0112820Y0091366D01*
X0111822Y0090368D02*
X0023881Y0090368D01*
X0024294Y0089369D02*
X0110823Y0089369D01*
X0109825Y0088370D02*
X0024300Y0088370D01*
X0024187Y0087372D02*
X0108826Y0087372D01*
X0109167Y0087712D02*
X0109167Y0087712D01*
X0108112Y0086373D02*
X0023773Y0086373D01*
X0022956Y0085375D02*
X0108112Y0085375D01*
X0108112Y0084376D02*
X0021281Y0084376D01*
X0020855Y0082800D02*
X0022436Y0082145D01*
X0023645Y0080936D01*
X0024300Y0079355D01*
X0024300Y0077645D01*
X0023645Y0076064D01*
X0022436Y0074855D01*
X0020855Y0074200D01*
X0013145Y0074200D01*
X0011564Y0074855D01*
X0010355Y0076064D01*
X0009700Y0077645D01*
X0009700Y0079355D01*
X0010355Y0080936D01*
X0011564Y0082145D01*
X0013145Y0082800D01*
X0020855Y0082800D01*
X0021871Y0082379D02*
X0108112Y0082379D01*
X0108112Y0081381D02*
X0023200Y0081381D01*
X0023875Y0080382D02*
X0108112Y0080382D01*
X0108112Y0079384D02*
X0024288Y0079384D01*
X0024300Y0078385D02*
X0108112Y0078385D01*
X0108112Y0077387D02*
X0024193Y0077387D01*
X0023780Y0076388D02*
X0108112Y0076388D01*
X0108112Y0075390D02*
X0022971Y0075390D01*
X0021317Y0074391D02*
X0108112Y0074391D01*
X0108112Y0073393D02*
X0003500Y0073393D01*
X0003500Y0074391D02*
X0012683Y0074391D01*
X0013145Y0072800D02*
X0011564Y0072145D01*
X0010355Y0070936D01*
X0009700Y0069355D01*
X0009700Y0067645D01*
X0010355Y0066064D01*
X0011564Y0064855D01*
X0013145Y0064200D01*
X0020855Y0064200D01*
X0022436Y0064855D01*
X0023645Y0066064D01*
X0024300Y0067645D01*
X0024300Y0069355D01*
X0023645Y0070936D01*
X0022436Y0072145D01*
X0020855Y0072800D01*
X0013145Y0072800D01*
X0012165Y0072394D02*
X0003500Y0072394D01*
X0003500Y0071396D02*
X0010815Y0071396D01*
X0010132Y0070397D02*
X0003500Y0070397D01*
X0003500Y0069399D02*
X0009718Y0069399D01*
X0009700Y0068400D02*
X0003500Y0068400D01*
X0003500Y0067402D02*
X0009801Y0067402D01*
X0010214Y0066403D02*
X0003500Y0066403D01*
X0003500Y0065405D02*
X0011014Y0065405D01*
X0012647Y0064406D02*
X0003500Y0064406D01*
X0003500Y0063408D02*
X0108112Y0063408D01*
X0108112Y0064406D02*
X0021353Y0064406D01*
X0020855Y0062800D02*
X0022436Y0062145D01*
X0023645Y0060936D01*
X0024300Y0059355D01*
X0024300Y0057645D01*
X0023645Y0056064D01*
X0022436Y0054855D01*
X0020855Y0054200D01*
X0013145Y0054200D01*
X0011564Y0054855D01*
X0010355Y0056064D01*
X0009700Y0057645D01*
X0009700Y0059355D01*
X0010355Y0060936D01*
X0011564Y0062145D01*
X0013145Y0062800D01*
X0020855Y0062800D01*
X0021799Y0062409D02*
X0108112Y0062409D01*
X0108112Y0061411D02*
X0023170Y0061411D01*
X0023862Y0060412D02*
X0108112Y0060412D01*
X0108112Y0059414D02*
X0024276Y0059414D01*
X0024300Y0058415D02*
X0108112Y0058415D01*
X0108112Y0057417D02*
X0024206Y0057417D01*
X0023792Y0056418D02*
X0108112Y0056418D01*
X0108112Y0055420D02*
X0023001Y0055420D01*
X0021389Y0054421D02*
X0107580Y0054421D01*
X0106855Y0053423D02*
X0003500Y0053423D01*
X0003500Y0054421D02*
X0012611Y0054421D01*
X0013145Y0052800D02*
X0011564Y0052145D01*
X0010355Y0050936D01*
X0009700Y0049355D01*
X0009700Y0047645D01*
X0010355Y0046064D01*
X0011564Y0044855D01*
X0013145Y0044200D01*
X0020855Y0044200D01*
X0022436Y0044855D01*
X0023645Y0046064D01*
X0024300Y0047645D01*
X0024300Y0049355D01*
X0023645Y0050936D01*
X0022436Y0052145D01*
X0020855Y0052800D01*
X0013145Y0052800D01*
X0012237Y0052424D02*
X0003500Y0052424D01*
X0003500Y0051426D02*
X0010844Y0051426D01*
X0010144Y0050427D02*
X0003500Y0050427D01*
X0003500Y0049429D02*
X0009730Y0049429D01*
X0009700Y0048430D02*
X0003500Y0048430D01*
X0003500Y0047432D02*
X0009788Y0047432D01*
X0010202Y0046433D02*
X0003500Y0046433D01*
X0003500Y0045434D02*
X0010984Y0045434D01*
X0012575Y0044436D02*
X0003500Y0044436D01*
X0003500Y0043437D02*
X0126017Y0043437D01*
X0127015Y0042439D02*
X0021727Y0042439D01*
X0022436Y0042145D02*
X0020855Y0042800D01*
X0013145Y0042800D01*
X0011564Y0042145D01*
X0010355Y0040936D01*
X0009700Y0039355D01*
X0009700Y0037645D01*
X0010355Y0036064D01*
X0011564Y0034855D01*
X0013145Y0034200D01*
X0020855Y0034200D01*
X0022436Y0034855D01*
X0023645Y0036064D01*
X0024300Y0037645D01*
X0024300Y0039355D01*
X0023645Y0040936D01*
X0022436Y0042145D01*
X0023141Y0041440D02*
X0128014Y0041440D01*
X0129012Y0040442D02*
X0023850Y0040442D01*
X0024263Y0039443D02*
X0130011Y0039443D01*
X0131009Y0038445D02*
X0024300Y0038445D01*
X0024218Y0037446D02*
X0132008Y0037446D01*
X0133007Y0036448D02*
X0023804Y0036448D01*
X0023030Y0035449D02*
X0134005Y0035449D01*
X0135004Y0034451D02*
X0021461Y0034451D01*
X0020855Y0032800D02*
X0022436Y0032145D01*
X0023645Y0030936D01*
X0024300Y0029355D01*
X0024300Y0027645D01*
X0023645Y0026064D01*
X0022436Y0024855D01*
X0020855Y0024200D01*
X0013145Y0024200D01*
X0011564Y0024855D01*
X0010355Y0026064D01*
X0009700Y0027645D01*
X0009700Y0029355D01*
X0010355Y0030936D01*
X0011564Y0032145D01*
X0013145Y0032800D01*
X0020855Y0032800D01*
X0021691Y0032454D02*
X0137001Y0032454D01*
X0137999Y0031455D02*
X0023126Y0031455D01*
X0023844Y0030457D02*
X0138998Y0030457D01*
X0139996Y0029458D02*
X0024257Y0029458D01*
X0024300Y0028460D02*
X0140995Y0028460D01*
X0141993Y0027461D02*
X0024224Y0027461D01*
X0023810Y0026463D02*
X0142622Y0026463D01*
X0142622Y0025464D02*
X0023045Y0025464D01*
X0021497Y0024466D02*
X0142979Y0024466D01*
X0143756Y0023467D02*
X0003500Y0023467D01*
X0003500Y0022469D02*
X0303201Y0022469D01*
X0303201Y0023467D02*
X0291501Y0023467D01*
X0290855Y0023200D02*
X0292436Y0023855D01*
X0293645Y0025064D01*
X0294300Y0026645D01*
X0294300Y0028355D01*
X0293645Y0029936D01*
X0292436Y0031145D01*
X0290855Y0031800D01*
X0283145Y0031800D01*
X0281564Y0031145D01*
X0280355Y0029936D01*
X0279700Y0028355D01*
X0279700Y0026645D01*
X0280355Y0025064D01*
X0281564Y0023855D01*
X0283145Y0023200D01*
X0290855Y0023200D01*
X0293047Y0024466D02*
X0303201Y0024466D01*
X0303201Y0025464D02*
X0293811Y0025464D01*
X0294225Y0026463D02*
X0303201Y0026463D01*
X0303201Y0027461D02*
X0294300Y0027461D01*
X0294257Y0028460D02*
X0303201Y0028460D01*
X0303201Y0029458D02*
X0293843Y0029458D01*
X0293124Y0030457D02*
X0303201Y0030457D01*
X0303201Y0031455D02*
X0291687Y0031455D01*
X0290855Y0033200D02*
X0292436Y0033855D01*
X0293645Y0035064D01*
X0294300Y0036645D01*
X0294300Y0038355D01*
X0293645Y0039936D01*
X0292436Y0041145D01*
X0290855Y0041800D01*
X0283145Y0041800D01*
X0281564Y0041145D01*
X0280355Y0039936D01*
X0279700Y0038355D01*
X0279700Y0036645D01*
X0280355Y0035064D01*
X0281564Y0033855D01*
X0283145Y0033200D01*
X0290855Y0033200D01*
X0291465Y0033452D02*
X0303201Y0033452D01*
X0303201Y0032454D02*
X0186586Y0032454D01*
X0187584Y0033452D02*
X0282535Y0033452D01*
X0280968Y0034451D02*
X0188583Y0034451D01*
X0189581Y0035449D02*
X0280195Y0035449D01*
X0279781Y0036448D02*
X0190580Y0036448D01*
X0191578Y0037446D02*
X0279700Y0037446D01*
X0279737Y0038445D02*
X0192577Y0038445D01*
X0193575Y0039443D02*
X0280151Y0039443D01*
X0280861Y0040442D02*
X0194574Y0040442D01*
X0195572Y0041440D02*
X0282277Y0041440D01*
X0283145Y0043200D02*
X0281564Y0043855D01*
X0280355Y0045064D01*
X0279700Y0046645D01*
X0279700Y0048355D01*
X0280355Y0049936D01*
X0281564Y0051145D01*
X0283145Y0051800D01*
X0290855Y0051800D01*
X0292436Y0051145D01*
X0293645Y0049936D01*
X0294300Y0048355D01*
X0294300Y0046645D01*
X0293645Y0045064D01*
X0292436Y0043855D01*
X0290855Y0043200D01*
X0283145Y0043200D01*
X0282571Y0043437D02*
X0197569Y0043437D01*
X0196571Y0042439D02*
X0303201Y0042439D01*
X0303201Y0043437D02*
X0291429Y0043437D01*
X0293017Y0044436D02*
X0303201Y0044436D01*
X0303201Y0045434D02*
X0293799Y0045434D01*
X0294212Y0046433D02*
X0303201Y0046433D01*
X0303201Y0047432D02*
X0294300Y0047432D01*
X0294269Y0048430D02*
X0303201Y0048430D01*
X0303201Y0049429D02*
X0293855Y0049429D01*
X0293154Y0050427D02*
X0303201Y0050427D01*
X0303201Y0051426D02*
X0291759Y0051426D01*
X0290855Y0053200D02*
X0292436Y0053855D01*
X0293645Y0055064D01*
X0294300Y0056645D01*
X0294300Y0058355D01*
X0293645Y0059936D01*
X0292436Y0061145D01*
X0290855Y0061800D01*
X0283145Y0061800D01*
X0281564Y0061145D01*
X0280355Y0059936D01*
X0279700Y0058355D01*
X0279700Y0056645D01*
X0280355Y0055064D01*
X0281564Y0053855D01*
X0283145Y0053200D01*
X0290855Y0053200D01*
X0291393Y0053423D02*
X0303201Y0053423D01*
X0303201Y0054421D02*
X0293002Y0054421D01*
X0293793Y0055420D02*
X0303201Y0055420D01*
X0303201Y0056418D02*
X0294206Y0056418D01*
X0294300Y0057417D02*
X0303201Y0057417D01*
X0303201Y0058415D02*
X0294275Y0058415D01*
X0293862Y0059414D02*
X0303201Y0059414D01*
X0303201Y0060412D02*
X0293169Y0060412D01*
X0291795Y0061411D02*
X0303201Y0061411D01*
X0303201Y0062409D02*
X0111712Y0062409D01*
X0111712Y0061411D02*
X0282205Y0061411D01*
X0280831Y0060412D02*
X0111712Y0060412D01*
X0111712Y0059414D02*
X0280138Y0059414D01*
X0279725Y0058415D02*
X0111712Y0058415D01*
X0111712Y0057417D02*
X0279700Y0057417D01*
X0279794Y0056418D02*
X0111712Y0056418D01*
X0111712Y0055420D02*
X0280207Y0055420D01*
X0280998Y0054421D02*
X0112245Y0054421D01*
X0110500Y0052564D02*
X0109912Y0051976D01*
X0107683Y0049429D02*
X0024270Y0049429D01*
X0024300Y0048430D02*
X0121024Y0048430D01*
X0120026Y0049429D02*
X0112142Y0049429D01*
X0106898Y0050427D02*
X0023856Y0050427D01*
X0023156Y0051426D02*
X0106535Y0051426D01*
X0106535Y0052424D02*
X0021763Y0052424D01*
X0024212Y0047432D02*
X0122023Y0047432D01*
X0123021Y0046433D02*
X0023798Y0046433D01*
X0023016Y0045434D02*
X0124020Y0045434D01*
X0125018Y0044436D02*
X0021425Y0044436D01*
X0012273Y0042439D02*
X0003500Y0042439D01*
X0003500Y0041440D02*
X0010859Y0041440D01*
X0010150Y0040442D02*
X0003500Y0040442D01*
X0003500Y0039443D02*
X0009737Y0039443D01*
X0009700Y0038445D02*
X0003500Y0038445D01*
X0003500Y0037446D02*
X0009782Y0037446D01*
X0010196Y0036448D02*
X0003500Y0036448D01*
X0003500Y0035449D02*
X0010969Y0035449D01*
X0012539Y0034451D02*
X0003500Y0034451D01*
X0003500Y0033452D02*
X0136002Y0033452D01*
X0138098Y0036448D02*
X0185489Y0036448D01*
X0186487Y0037446D02*
X0137099Y0037446D01*
X0136101Y0038445D02*
X0187486Y0038445D01*
X0188484Y0039443D02*
X0135102Y0039443D01*
X0134104Y0040442D02*
X0189483Y0040442D01*
X0190481Y0041440D02*
X0133105Y0041440D01*
X0132107Y0042439D02*
X0191480Y0042439D01*
X0192478Y0043437D02*
X0131108Y0043437D01*
X0130110Y0044436D02*
X0193477Y0044436D01*
X0194475Y0045434D02*
X0129111Y0045434D01*
X0128113Y0046433D02*
X0195423Y0046433D01*
X0195391Y0047432D02*
X0127114Y0047432D01*
X0126116Y0048430D02*
X0195629Y0048430D01*
X0196238Y0049429D02*
X0125117Y0049429D01*
X0124119Y0050427D02*
X0197775Y0050427D01*
X0199763Y0050427D02*
X0280846Y0050427D01*
X0280145Y0049429D02*
X0201300Y0049429D01*
X0201908Y0048430D02*
X0279731Y0048430D01*
X0279700Y0047432D02*
X0202147Y0047432D01*
X0202115Y0046433D02*
X0279788Y0046433D01*
X0280201Y0045434D02*
X0201701Y0045434D01*
X0200799Y0044436D02*
X0280983Y0044436D01*
X0282241Y0051426D02*
X0123120Y0051426D01*
X0122121Y0052424D02*
X0303201Y0052424D01*
X0303201Y0041440D02*
X0291723Y0041440D01*
X0293139Y0040442D02*
X0303201Y0040442D01*
X0303201Y0039443D02*
X0293849Y0039443D01*
X0294263Y0038445D02*
X0303201Y0038445D01*
X0303201Y0037446D02*
X0294300Y0037446D01*
X0294218Y0036448D02*
X0303201Y0036448D01*
X0303201Y0035449D02*
X0293805Y0035449D01*
X0293032Y0034451D02*
X0303201Y0034451D01*
X0303201Y0021470D02*
X0273651Y0021470D01*
X0274436Y0021145D02*
X0272855Y0021800D01*
X0271145Y0021800D01*
X0269564Y0021145D01*
X0268355Y0019936D01*
X0267700Y0018355D01*
X0267700Y0010645D01*
X0268355Y0009064D01*
X0269564Y0007855D01*
X0271145Y0007200D01*
X0272855Y0007200D01*
X0274436Y0007855D01*
X0275645Y0009064D01*
X0276300Y0010645D01*
X0276300Y0018355D01*
X0275645Y0019936D01*
X0274436Y0021145D01*
X0275109Y0020472D02*
X0303201Y0020472D01*
X0303201Y0019473D02*
X0275837Y0019473D01*
X0276251Y0018475D02*
X0303201Y0018475D01*
X0303201Y0017476D02*
X0276300Y0017476D01*
X0276300Y0016478D02*
X0303201Y0016478D01*
X0303201Y0015479D02*
X0276300Y0015479D01*
X0276300Y0014481D02*
X0303201Y0014481D01*
X0303201Y0013482D02*
X0276300Y0013482D01*
X0276300Y0012484D02*
X0303201Y0012484D01*
X0303201Y0011485D02*
X0276300Y0011485D01*
X0276235Y0010487D02*
X0303201Y0010487D01*
X0303201Y0009488D02*
X0275821Y0009488D01*
X0275071Y0008490D02*
X0303201Y0008490D01*
X0303201Y0007491D02*
X0273558Y0007491D01*
X0270442Y0007491D02*
X0263558Y0007491D01*
X0262855Y0007200D02*
X0264436Y0007855D01*
X0265645Y0009064D01*
X0266300Y0010645D01*
X0266300Y0018355D01*
X0265645Y0019936D01*
X0264436Y0021145D01*
X0262855Y0021800D01*
X0261145Y0021800D01*
X0259564Y0021145D01*
X0258355Y0019936D01*
X0257700Y0018355D01*
X0257700Y0010645D01*
X0258355Y0009064D01*
X0259564Y0007855D01*
X0261145Y0007200D01*
X0262855Y0007200D01*
X0260442Y0007491D02*
X0253558Y0007491D01*
X0252855Y0007200D02*
X0254436Y0007855D01*
X0255645Y0009064D01*
X0256300Y0010645D01*
X0256300Y0018355D01*
X0255645Y0019936D01*
X0254436Y0021145D01*
X0252855Y0021800D01*
X0251145Y0021800D01*
X0249564Y0021145D01*
X0248355Y0019936D01*
X0247700Y0018355D01*
X0247700Y0010645D01*
X0248355Y0009064D01*
X0249564Y0007855D01*
X0251145Y0007200D01*
X0252855Y0007200D01*
X0250442Y0007491D02*
X0243558Y0007491D01*
X0242855Y0007200D02*
X0244436Y0007855D01*
X0245645Y0009064D01*
X0246300Y0010645D01*
X0246300Y0018355D01*
X0245645Y0019936D01*
X0244436Y0021145D01*
X0242855Y0021800D01*
X0241145Y0021800D01*
X0239564Y0021145D01*
X0238355Y0019936D01*
X0237700Y0018355D01*
X0237700Y0010645D01*
X0238355Y0009064D01*
X0239564Y0007855D01*
X0241145Y0007200D01*
X0242855Y0007200D01*
X0240442Y0007491D02*
X0233558Y0007491D01*
X0232855Y0007200D02*
X0234436Y0007855D01*
X0235645Y0009064D01*
X0236300Y0010645D01*
X0236300Y0018355D01*
X0235645Y0019936D01*
X0234436Y0021145D01*
X0232855Y0021800D01*
X0231145Y0021800D01*
X0229564Y0021145D01*
X0228355Y0019936D01*
X0227700Y0018355D01*
X0227700Y0010645D01*
X0228355Y0009064D01*
X0229564Y0007855D01*
X0231145Y0007200D01*
X0232855Y0007200D01*
X0230442Y0007491D02*
X0224044Y0007491D01*
X0224359Y0007651D02*
X0223727Y0007330D01*
X0223054Y0007111D01*
X0222500Y0007023D01*
X0222500Y0014000D01*
X0222500Y0015000D01*
X0226500Y0015000D01*
X0226500Y0017854D01*
X0226389Y0018554D01*
X0226170Y0019227D01*
X0225849Y0019859D01*
X0225432Y0020432D01*
X0224932Y0020932D01*
X0224359Y0021349D01*
X0223727Y0021670D01*
X0223054Y0021889D01*
X0222500Y0021977D01*
X0222500Y0015000D01*
X0221500Y0015000D01*
X0221500Y0021977D01*
X0220946Y0021889D01*
X0220273Y0021670D01*
X0219641Y0021349D01*
X0219068Y0020932D01*
X0218568Y0020432D01*
X0218151Y0019859D01*
X0217830Y0019227D01*
X0217611Y0018554D01*
X0217500Y0017854D01*
X0217500Y0015000D01*
X0221500Y0015000D01*
X0221500Y0014000D01*
X0222500Y0014000D01*
X0226500Y0014000D01*
X0226500Y0011146D01*
X0226389Y0010446D01*
X0226170Y0009773D01*
X0225849Y0009141D01*
X0225432Y0008568D01*
X0224932Y0008068D01*
X0224359Y0007651D01*
X0225354Y0008490D02*
X0228929Y0008490D01*
X0228179Y0009488D02*
X0226025Y0009488D01*
X0226396Y0010487D02*
X0227765Y0010487D01*
X0227700Y0011485D02*
X0226500Y0011485D01*
X0226500Y0012484D02*
X0227700Y0012484D01*
X0227700Y0013482D02*
X0226500Y0013482D01*
X0227700Y0014481D02*
X0222500Y0014481D01*
X0222500Y0015479D02*
X0221500Y0015479D01*
X0221500Y0014481D02*
X0216300Y0014481D01*
X0216300Y0015479D02*
X0217500Y0015479D01*
X0217500Y0016478D02*
X0216300Y0016478D01*
X0216300Y0017476D02*
X0217500Y0017476D01*
X0217598Y0018475D02*
X0216251Y0018475D01*
X0216300Y0018355D02*
X0215645Y0019936D01*
X0214436Y0021145D01*
X0212855Y0021800D01*
X0211145Y0021800D01*
X0209564Y0021145D01*
X0208355Y0019936D01*
X0207700Y0018355D01*
X0207700Y0010645D01*
X0208355Y0009064D01*
X0209564Y0007855D01*
X0211145Y0007200D01*
X0212855Y0007200D01*
X0214436Y0007855D01*
X0215645Y0009064D01*
X0216300Y0010645D01*
X0216300Y0018355D01*
X0215837Y0019473D02*
X0217955Y0019473D01*
X0218608Y0020472D02*
X0215109Y0020472D01*
X0213651Y0021470D02*
X0219880Y0021470D01*
X0221500Y0021470D02*
X0222500Y0021470D01*
X0222500Y0020472D02*
X0221500Y0020472D01*
X0221500Y0019473D02*
X0222500Y0019473D01*
X0222500Y0018475D02*
X0221500Y0018475D01*
X0221500Y0017476D02*
X0222500Y0017476D01*
X0222500Y0016478D02*
X0221500Y0016478D01*
X0221500Y0014000D02*
X0217500Y0014000D01*
X0217500Y0011146D01*
X0217611Y0010446D01*
X0217830Y0009773D01*
X0218151Y0009141D01*
X0218568Y0008568D01*
X0219068Y0008068D01*
X0219641Y0007651D01*
X0220273Y0007330D01*
X0220946Y0007111D01*
X0221500Y0007023D01*
X0221500Y0014000D01*
X0221500Y0013482D02*
X0222500Y0013482D01*
X0222500Y0012484D02*
X0221500Y0012484D01*
X0221500Y0011485D02*
X0222500Y0011485D01*
X0222500Y0010487D02*
X0221500Y0010487D01*
X0221500Y0009488D02*
X0222500Y0009488D01*
X0222500Y0008490D02*
X0221500Y0008490D01*
X0221500Y0007491D02*
X0222500Y0007491D01*
X0219956Y0007491D02*
X0213558Y0007491D01*
X0215071Y0008490D02*
X0218646Y0008490D01*
X0217975Y0009488D02*
X0215821Y0009488D01*
X0216235Y0010487D02*
X0217604Y0010487D01*
X0217500Y0011485D02*
X0216300Y0011485D01*
X0216300Y0012484D02*
X0217500Y0012484D01*
X0217500Y0013482D02*
X0216300Y0013482D01*
X0210442Y0007491D02*
X0203558Y0007491D01*
X0202855Y0007200D02*
X0204436Y0007855D01*
X0205645Y0009064D01*
X0206300Y0010645D01*
X0206300Y0018355D01*
X0205645Y0019936D01*
X0204436Y0021145D01*
X0202855Y0021800D01*
X0201145Y0021800D01*
X0199564Y0021145D01*
X0198355Y0019936D01*
X0197700Y0018355D01*
X0197700Y0010645D01*
X0198355Y0009064D01*
X0199564Y0007855D01*
X0201145Y0007200D01*
X0202855Y0007200D01*
X0200442Y0007491D02*
X0193558Y0007491D01*
X0192855Y0007200D02*
X0194436Y0007855D01*
X0195645Y0009064D01*
X0196300Y0010645D01*
X0196300Y0018355D01*
X0195645Y0019936D01*
X0194436Y0021145D01*
X0192855Y0021800D01*
X0191145Y0021800D01*
X0189564Y0021145D01*
X0188355Y0019936D01*
X0187700Y0018355D01*
X0187700Y0010645D01*
X0188355Y0009064D01*
X0189564Y0007855D01*
X0191145Y0007200D01*
X0192855Y0007200D01*
X0190442Y0007491D02*
X0183558Y0007491D01*
X0182855Y0007200D02*
X0184436Y0007855D01*
X0185645Y0009064D01*
X0186300Y0010645D01*
X0186300Y0018355D01*
X0185645Y0019936D01*
X0184436Y0021145D01*
X0182855Y0021800D01*
X0181145Y0021800D01*
X0179564Y0021145D01*
X0178355Y0019936D01*
X0177700Y0018355D01*
X0177700Y0010645D01*
X0178355Y0009064D01*
X0179564Y0007855D01*
X0181145Y0007200D01*
X0182855Y0007200D01*
X0180442Y0007491D02*
X0173558Y0007491D01*
X0172855Y0007200D02*
X0174436Y0007855D01*
X0175645Y0009064D01*
X0176300Y0010645D01*
X0176300Y0018355D01*
X0175645Y0019936D01*
X0174436Y0021145D01*
X0172855Y0021800D01*
X0171145Y0021800D01*
X0169564Y0021145D01*
X0168355Y0019936D01*
X0167700Y0018355D01*
X0167700Y0010645D01*
X0168355Y0009064D01*
X0169564Y0007855D01*
X0171145Y0007200D01*
X0172855Y0007200D01*
X0170442Y0007491D02*
X0163558Y0007491D01*
X0162855Y0007200D02*
X0164436Y0007855D01*
X0165645Y0009064D01*
X0166300Y0010645D01*
X0166300Y0018355D01*
X0165645Y0019936D01*
X0164436Y0021145D01*
X0162855Y0021800D01*
X0161145Y0021800D01*
X0159564Y0021145D01*
X0158355Y0019936D01*
X0157700Y0018355D01*
X0157700Y0010645D01*
X0158355Y0009064D01*
X0159564Y0007855D01*
X0161145Y0007200D01*
X0162855Y0007200D01*
X0160442Y0007491D02*
X0153558Y0007491D01*
X0152855Y0007200D02*
X0154436Y0007855D01*
X0155645Y0009064D01*
X0156300Y0010645D01*
X0156300Y0018355D01*
X0155645Y0019936D01*
X0154436Y0021145D01*
X0152855Y0021800D01*
X0151145Y0021800D01*
X0149564Y0021145D01*
X0148355Y0019936D01*
X0147700Y0018355D01*
X0147700Y0010645D01*
X0148355Y0009064D01*
X0149564Y0007855D01*
X0151145Y0007200D01*
X0152855Y0007200D01*
X0150442Y0007491D02*
X0143558Y0007491D01*
X0142855Y0007200D02*
X0144436Y0007855D01*
X0145645Y0009064D01*
X0146300Y0010645D01*
X0146300Y0018355D01*
X0145645Y0019936D01*
X0144436Y0021145D01*
X0142855Y0021800D01*
X0141145Y0021800D01*
X0139564Y0021145D01*
X0138355Y0019936D01*
X0137700Y0018355D01*
X0137700Y0010645D01*
X0138355Y0009064D01*
X0139564Y0007855D01*
X0141145Y0007200D01*
X0142855Y0007200D01*
X0140442Y0007491D02*
X0134044Y0007491D01*
X0134359Y0007651D02*
X0134932Y0008068D01*
X0135432Y0008568D01*
X0135849Y0009141D01*
X0136170Y0009773D01*
X0136389Y0010446D01*
X0136500Y0011146D01*
X0136500Y0014000D01*
X0132500Y0014000D01*
X0132500Y0015000D01*
X0136500Y0015000D01*
X0136500Y0017854D01*
X0136389Y0018554D01*
X0136170Y0019227D01*
X0135849Y0019859D01*
X0135432Y0020432D01*
X0134932Y0020932D01*
X0134359Y0021349D01*
X0133727Y0021670D01*
X0133054Y0021889D01*
X0132500Y0021977D01*
X0132500Y0015000D01*
X0131500Y0015000D01*
X0131500Y0021977D01*
X0130946Y0021889D01*
X0130273Y0021670D01*
X0129641Y0021349D01*
X0129068Y0020932D01*
X0128568Y0020432D01*
X0128151Y0019859D01*
X0127830Y0019227D01*
X0127611Y0018554D01*
X0127500Y0017854D01*
X0127500Y0015000D01*
X0131500Y0015000D01*
X0131500Y0014000D01*
X0132500Y0014000D01*
X0132500Y0007023D01*
X0133054Y0007111D01*
X0133727Y0007330D01*
X0134359Y0007651D01*
X0135354Y0008490D02*
X0138929Y0008490D01*
X0138179Y0009488D02*
X0136025Y0009488D01*
X0136396Y0010487D02*
X0137765Y0010487D01*
X0137700Y0011485D02*
X0136500Y0011485D01*
X0136500Y0012484D02*
X0137700Y0012484D01*
X0137700Y0013482D02*
X0136500Y0013482D01*
X0137700Y0014481D02*
X0132500Y0014481D01*
X0132500Y0015479D02*
X0131500Y0015479D01*
X0131500Y0014481D02*
X0126300Y0014481D01*
X0126300Y0015479D02*
X0127500Y0015479D01*
X0127500Y0016478D02*
X0126300Y0016478D01*
X0126300Y0017476D02*
X0127500Y0017476D01*
X0127598Y0018475D02*
X0126251Y0018475D01*
X0126300Y0018355D02*
X0125645Y0019936D01*
X0124436Y0021145D01*
X0122855Y0021800D01*
X0121145Y0021800D01*
X0119564Y0021145D01*
X0118355Y0019936D01*
X0117700Y0018355D01*
X0117700Y0010645D01*
X0118355Y0009064D01*
X0119564Y0007855D01*
X0121145Y0007200D01*
X0122855Y0007200D01*
X0124436Y0007855D01*
X0125645Y0009064D01*
X0126300Y0010645D01*
X0126300Y0018355D01*
X0125837Y0019473D02*
X0127955Y0019473D01*
X0128608Y0020472D02*
X0125109Y0020472D01*
X0123651Y0021470D02*
X0129880Y0021470D01*
X0131500Y0021470D02*
X0132500Y0021470D01*
X0132500Y0020472D02*
X0131500Y0020472D01*
X0131500Y0019473D02*
X0132500Y0019473D01*
X0132500Y0018475D02*
X0131500Y0018475D01*
X0131500Y0017476D02*
X0132500Y0017476D01*
X0132500Y0016478D02*
X0131500Y0016478D01*
X0131500Y0014000D02*
X0127500Y0014000D01*
X0127500Y0011146D01*
X0127611Y0010446D01*
X0127830Y0009773D01*
X0128151Y0009141D01*
X0128568Y0008568D01*
X0129068Y0008068D01*
X0129641Y0007651D01*
X0130273Y0007330D01*
X0130946Y0007111D01*
X0131500Y0007023D01*
X0131500Y0014000D01*
X0131500Y0013482D02*
X0132500Y0013482D01*
X0132500Y0012484D02*
X0131500Y0012484D01*
X0131500Y0011485D02*
X0132500Y0011485D01*
X0132500Y0010487D02*
X0131500Y0010487D01*
X0131500Y0009488D02*
X0132500Y0009488D01*
X0132500Y0008490D02*
X0131500Y0008490D01*
X0131500Y0007491D02*
X0132500Y0007491D01*
X0129956Y0007491D02*
X0123558Y0007491D01*
X0125071Y0008490D02*
X0128646Y0008490D01*
X0127975Y0009488D02*
X0125821Y0009488D01*
X0126235Y0010487D02*
X0127604Y0010487D01*
X0127500Y0011485D02*
X0126300Y0011485D01*
X0126300Y0012484D02*
X0127500Y0012484D01*
X0127500Y0013482D02*
X0126300Y0013482D01*
X0120442Y0007491D02*
X0113558Y0007491D01*
X0112855Y0007200D02*
X0114436Y0007855D01*
X0115645Y0009064D01*
X0116300Y0010645D01*
X0116300Y0018355D01*
X0115645Y0019936D01*
X0114436Y0021145D01*
X0112855Y0021800D01*
X0111145Y0021800D01*
X0109564Y0021145D01*
X0108355Y0019936D01*
X0107700Y0018355D01*
X0107700Y0010645D01*
X0108355Y0009064D01*
X0109564Y0007855D01*
X0111145Y0007200D01*
X0112855Y0007200D01*
X0110442Y0007491D02*
X0103558Y0007491D01*
X0102855Y0007200D02*
X0104436Y0007855D01*
X0105645Y0009064D01*
X0106300Y0010645D01*
X0106300Y0018355D01*
X0105645Y0019936D01*
X0104436Y0021145D01*
X0102855Y0021800D01*
X0101145Y0021800D01*
X0099564Y0021145D01*
X0098355Y0019936D01*
X0097700Y0018355D01*
X0097700Y0010645D01*
X0098355Y0009064D01*
X0099564Y0007855D01*
X0101145Y0007200D01*
X0102855Y0007200D01*
X0100442Y0007491D02*
X0093558Y0007491D01*
X0092855Y0007200D02*
X0094436Y0007855D01*
X0095645Y0009064D01*
X0096300Y0010645D01*
X0096300Y0018355D01*
X0095645Y0019936D01*
X0094436Y0021145D01*
X0092855Y0021800D01*
X0091145Y0021800D01*
X0089564Y0021145D01*
X0088355Y0019936D01*
X0087700Y0018355D01*
X0087700Y0010645D01*
X0088355Y0009064D01*
X0089564Y0007855D01*
X0091145Y0007200D01*
X0092855Y0007200D01*
X0090442Y0007491D02*
X0084044Y0007491D01*
X0084359Y0007651D02*
X0084932Y0008068D01*
X0085432Y0008568D01*
X0085849Y0009141D01*
X0086170Y0009773D01*
X0086389Y0010446D01*
X0086500Y0011146D01*
X0086500Y0014000D01*
X0082500Y0014000D01*
X0082500Y0015000D01*
X0086500Y0015000D01*
X0086500Y0017854D01*
X0086389Y0018554D01*
X0086170Y0019227D01*
X0085849Y0019859D01*
X0085432Y0020432D01*
X0084932Y0020932D01*
X0084359Y0021349D01*
X0083727Y0021670D01*
X0083054Y0021889D01*
X0082500Y0021977D01*
X0082500Y0015000D01*
X0081500Y0015000D01*
X0081500Y0021977D01*
X0080946Y0021889D01*
X0080273Y0021670D01*
X0079641Y0021349D01*
X0079068Y0020932D01*
X0078568Y0020432D01*
X0078151Y0019859D01*
X0077830Y0019227D01*
X0077611Y0018554D01*
X0077500Y0017854D01*
X0077500Y0015000D01*
X0081500Y0015000D01*
X0081500Y0014000D01*
X0082500Y0014000D01*
X0082500Y0007023D01*
X0083054Y0007111D01*
X0083727Y0007330D01*
X0084359Y0007651D01*
X0085354Y0008490D02*
X0088929Y0008490D01*
X0088179Y0009488D02*
X0086025Y0009488D01*
X0086396Y0010487D02*
X0087765Y0010487D01*
X0087700Y0011485D02*
X0086500Y0011485D01*
X0086500Y0012484D02*
X0087700Y0012484D01*
X0087700Y0013482D02*
X0086500Y0013482D01*
X0087700Y0014481D02*
X0082500Y0014481D01*
X0082500Y0015479D02*
X0081500Y0015479D01*
X0081500Y0014481D02*
X0076300Y0014481D01*
X0076300Y0015479D02*
X0077500Y0015479D01*
X0077500Y0016478D02*
X0076300Y0016478D01*
X0076300Y0017476D02*
X0077500Y0017476D01*
X0077598Y0018475D02*
X0076251Y0018475D01*
X0076300Y0018355D02*
X0075645Y0019936D01*
X0074436Y0021145D01*
X0072855Y0021800D01*
X0071145Y0021800D01*
X0069564Y0021145D01*
X0068355Y0019936D01*
X0067700Y0018355D01*
X0067700Y0010645D01*
X0068355Y0009064D01*
X0069564Y0007855D01*
X0071145Y0007200D01*
X0072855Y0007200D01*
X0074436Y0007855D01*
X0075645Y0009064D01*
X0076300Y0010645D01*
X0076300Y0018355D01*
X0075837Y0019473D02*
X0077955Y0019473D01*
X0078608Y0020472D02*
X0075109Y0020472D01*
X0073651Y0021470D02*
X0079880Y0021470D01*
X0081500Y0021470D02*
X0082500Y0021470D01*
X0082500Y0020472D02*
X0081500Y0020472D01*
X0081500Y0019473D02*
X0082500Y0019473D01*
X0082500Y0018475D02*
X0081500Y0018475D01*
X0081500Y0017476D02*
X0082500Y0017476D01*
X0082500Y0016478D02*
X0081500Y0016478D01*
X0081500Y0014000D02*
X0077500Y0014000D01*
X0077500Y0011146D01*
X0077611Y0010446D01*
X0077830Y0009773D01*
X0078151Y0009141D01*
X0078568Y0008568D01*
X0079068Y0008068D01*
X0079641Y0007651D01*
X0080273Y0007330D01*
X0080946Y0007111D01*
X0081500Y0007023D01*
X0081500Y0014000D01*
X0081500Y0013482D02*
X0082500Y0013482D01*
X0082500Y0012484D02*
X0081500Y0012484D01*
X0081500Y0011485D02*
X0082500Y0011485D01*
X0082500Y0010487D02*
X0081500Y0010487D01*
X0081500Y0009488D02*
X0082500Y0009488D01*
X0082500Y0008490D02*
X0081500Y0008490D01*
X0081500Y0007491D02*
X0082500Y0007491D01*
X0079956Y0007491D02*
X0073558Y0007491D01*
X0075071Y0008490D02*
X0078646Y0008490D01*
X0077975Y0009488D02*
X0075821Y0009488D01*
X0076235Y0010487D02*
X0077604Y0010487D01*
X0077500Y0011485D02*
X0076300Y0011485D01*
X0076300Y0012484D02*
X0077500Y0012484D01*
X0077500Y0013482D02*
X0076300Y0013482D01*
X0070442Y0007491D02*
X0063558Y0007491D01*
X0062855Y0007200D02*
X0064436Y0007855D01*
X0065645Y0009064D01*
X0066300Y0010645D01*
X0066300Y0018355D01*
X0065645Y0019936D01*
X0064436Y0021145D01*
X0062855Y0021800D01*
X0061145Y0021800D01*
X0059564Y0021145D01*
X0058355Y0019936D01*
X0057700Y0018355D01*
X0057700Y0010645D01*
X0058355Y0009064D01*
X0059564Y0007855D01*
X0061145Y0007200D01*
X0062855Y0007200D01*
X0060442Y0007491D02*
X0053558Y0007491D01*
X0052855Y0007200D02*
X0054436Y0007855D01*
X0055645Y0009064D01*
X0056300Y0010645D01*
X0056300Y0018355D01*
X0055645Y0019936D01*
X0054436Y0021145D01*
X0052855Y0021800D01*
X0051145Y0021800D01*
X0049564Y0021145D01*
X0048355Y0019936D01*
X0047700Y0018355D01*
X0047700Y0010645D01*
X0048355Y0009064D01*
X0049564Y0007855D01*
X0051145Y0007200D01*
X0052855Y0007200D01*
X0050442Y0007491D02*
X0043558Y0007491D01*
X0042855Y0007200D02*
X0044436Y0007855D01*
X0045645Y0009064D01*
X0046300Y0010645D01*
X0046300Y0018355D01*
X0045645Y0019936D01*
X0044436Y0021145D01*
X0042855Y0021800D01*
X0041145Y0021800D01*
X0039564Y0021145D01*
X0038355Y0019936D01*
X0037700Y0018355D01*
X0037700Y0010645D01*
X0038355Y0009064D01*
X0039564Y0007855D01*
X0041145Y0007200D01*
X0042855Y0007200D01*
X0040442Y0007491D02*
X0033558Y0007491D01*
X0032855Y0007200D02*
X0034436Y0007855D01*
X0035645Y0009064D01*
X0036300Y0010645D01*
X0036300Y0018355D01*
X0035645Y0019936D01*
X0034436Y0021145D01*
X0032855Y0021800D01*
X0031145Y0021800D01*
X0029564Y0021145D01*
X0028355Y0019936D01*
X0027700Y0018355D01*
X0027700Y0010645D01*
X0028355Y0009064D01*
X0029564Y0007855D01*
X0031145Y0007200D01*
X0032855Y0007200D01*
X0030442Y0007491D02*
X0003500Y0007491D01*
X0003500Y0006493D02*
X0303201Y0006493D01*
X0303201Y0005494D02*
X0003500Y0005494D01*
X0003500Y0004496D02*
X0303201Y0004496D01*
X0303201Y0003500D02*
X0303201Y0294461D01*
X0003500Y0294461D01*
X0003500Y0003500D01*
X0303201Y0003500D01*
X0282499Y0023467D02*
X0148244Y0023467D01*
X0150349Y0021470D02*
X0143651Y0021470D01*
X0145109Y0020472D02*
X0148891Y0020472D01*
X0148163Y0019473D02*
X0145837Y0019473D01*
X0146251Y0018475D02*
X0147749Y0018475D01*
X0147700Y0017476D02*
X0146300Y0017476D01*
X0146300Y0016478D02*
X0147700Y0016478D01*
X0147700Y0015479D02*
X0146300Y0015479D01*
X0146300Y0014481D02*
X0147700Y0014481D01*
X0147700Y0013482D02*
X0146300Y0013482D01*
X0146300Y0012484D02*
X0147700Y0012484D01*
X0147700Y0011485D02*
X0146300Y0011485D01*
X0146235Y0010487D02*
X0147765Y0010487D01*
X0148179Y0009488D02*
X0145821Y0009488D01*
X0145071Y0008490D02*
X0148929Y0008490D01*
X0155071Y0008490D02*
X0158929Y0008490D01*
X0158179Y0009488D02*
X0155821Y0009488D01*
X0156235Y0010487D02*
X0157765Y0010487D01*
X0157700Y0011485D02*
X0156300Y0011485D01*
X0156300Y0012484D02*
X0157700Y0012484D01*
X0157700Y0013482D02*
X0156300Y0013482D01*
X0156300Y0014481D02*
X0157700Y0014481D01*
X0157700Y0015479D02*
X0156300Y0015479D01*
X0156300Y0016478D02*
X0157700Y0016478D01*
X0157700Y0017476D02*
X0156300Y0017476D01*
X0156251Y0018475D02*
X0157749Y0018475D01*
X0158163Y0019473D02*
X0155837Y0019473D01*
X0155109Y0020472D02*
X0158891Y0020472D01*
X0160349Y0021470D02*
X0153651Y0021470D01*
X0148317Y0028460D02*
X0177500Y0028460D01*
X0178499Y0029458D02*
X0145087Y0029458D01*
X0144089Y0030457D02*
X0179498Y0030457D01*
X0180496Y0031455D02*
X0143090Y0031455D01*
X0142092Y0032454D02*
X0181495Y0032454D01*
X0182493Y0033452D02*
X0141093Y0033452D01*
X0140095Y0034451D02*
X0183492Y0034451D01*
X0184490Y0035449D02*
X0139096Y0035449D01*
X0140349Y0021470D02*
X0134120Y0021470D01*
X0135392Y0020472D02*
X0138891Y0020472D01*
X0138163Y0019473D02*
X0136045Y0019473D01*
X0136402Y0018475D02*
X0137749Y0018475D01*
X0137700Y0017476D02*
X0136500Y0017476D01*
X0136500Y0016478D02*
X0137700Y0016478D01*
X0137700Y0015479D02*
X0136500Y0015479D01*
X0120349Y0021470D02*
X0113651Y0021470D01*
X0115109Y0020472D02*
X0118891Y0020472D01*
X0118163Y0019473D02*
X0115837Y0019473D01*
X0116251Y0018475D02*
X0117749Y0018475D01*
X0117700Y0017476D02*
X0116300Y0017476D01*
X0116300Y0016478D02*
X0117700Y0016478D01*
X0117700Y0015479D02*
X0116300Y0015479D01*
X0116300Y0014481D02*
X0117700Y0014481D01*
X0117700Y0013482D02*
X0116300Y0013482D01*
X0116300Y0012484D02*
X0117700Y0012484D01*
X0117700Y0011485D02*
X0116300Y0011485D01*
X0116235Y0010487D02*
X0117765Y0010487D01*
X0118179Y0009488D02*
X0115821Y0009488D01*
X0115071Y0008490D02*
X0118929Y0008490D01*
X0108929Y0008490D02*
X0105071Y0008490D01*
X0105821Y0009488D02*
X0108179Y0009488D01*
X0107765Y0010487D02*
X0106235Y0010487D01*
X0106300Y0011485D02*
X0107700Y0011485D01*
X0107700Y0012484D02*
X0106300Y0012484D01*
X0106300Y0013482D02*
X0107700Y0013482D01*
X0107700Y0014481D02*
X0106300Y0014481D01*
X0106300Y0015479D02*
X0107700Y0015479D01*
X0107700Y0016478D02*
X0106300Y0016478D01*
X0106300Y0017476D02*
X0107700Y0017476D01*
X0107749Y0018475D02*
X0106251Y0018475D01*
X0105837Y0019473D02*
X0108163Y0019473D01*
X0108891Y0020472D02*
X0105109Y0020472D01*
X0103651Y0021470D02*
X0110349Y0021470D01*
X0100349Y0021470D02*
X0093651Y0021470D01*
X0095109Y0020472D02*
X0098891Y0020472D01*
X0098163Y0019473D02*
X0095837Y0019473D01*
X0096251Y0018475D02*
X0097749Y0018475D01*
X0097700Y0017476D02*
X0096300Y0017476D01*
X0096300Y0016478D02*
X0097700Y0016478D01*
X0097700Y0015479D02*
X0096300Y0015479D01*
X0096300Y0014481D02*
X0097700Y0014481D01*
X0097700Y0013482D02*
X0096300Y0013482D01*
X0096300Y0012484D02*
X0097700Y0012484D01*
X0097700Y0011485D02*
X0096300Y0011485D01*
X0096235Y0010487D02*
X0097765Y0010487D01*
X0098179Y0009488D02*
X0095821Y0009488D01*
X0095071Y0008490D02*
X0098929Y0008490D01*
X0087700Y0015479D02*
X0086500Y0015479D01*
X0086500Y0016478D02*
X0087700Y0016478D01*
X0087700Y0017476D02*
X0086500Y0017476D01*
X0086402Y0018475D02*
X0087749Y0018475D01*
X0088163Y0019473D02*
X0086045Y0019473D01*
X0085392Y0020472D02*
X0088891Y0020472D01*
X0090349Y0021470D02*
X0084120Y0021470D01*
X0070349Y0021470D02*
X0063651Y0021470D01*
X0065109Y0020472D02*
X0068891Y0020472D01*
X0068163Y0019473D02*
X0065837Y0019473D01*
X0066251Y0018475D02*
X0067749Y0018475D01*
X0067700Y0017476D02*
X0066300Y0017476D01*
X0066300Y0016478D02*
X0067700Y0016478D01*
X0067700Y0015479D02*
X0066300Y0015479D01*
X0066300Y0014481D02*
X0067700Y0014481D01*
X0067700Y0013482D02*
X0066300Y0013482D01*
X0066300Y0012484D02*
X0067700Y0012484D01*
X0067700Y0011485D02*
X0066300Y0011485D01*
X0066235Y0010487D02*
X0067765Y0010487D01*
X0068179Y0009488D02*
X0065821Y0009488D01*
X0065071Y0008490D02*
X0068929Y0008490D01*
X0058929Y0008490D02*
X0055071Y0008490D01*
X0055821Y0009488D02*
X0058179Y0009488D01*
X0057765Y0010487D02*
X0056235Y0010487D01*
X0056300Y0011485D02*
X0057700Y0011485D01*
X0057700Y0012484D02*
X0056300Y0012484D01*
X0056300Y0013482D02*
X0057700Y0013482D01*
X0057700Y0014481D02*
X0056300Y0014481D01*
X0056300Y0015479D02*
X0057700Y0015479D01*
X0057700Y0016478D02*
X0056300Y0016478D01*
X0056300Y0017476D02*
X0057700Y0017476D01*
X0057749Y0018475D02*
X0056251Y0018475D01*
X0055837Y0019473D02*
X0058163Y0019473D01*
X0058891Y0020472D02*
X0055109Y0020472D01*
X0053651Y0021470D02*
X0060349Y0021470D01*
X0050349Y0021470D02*
X0043651Y0021470D01*
X0045109Y0020472D02*
X0048891Y0020472D01*
X0048163Y0019473D02*
X0045837Y0019473D01*
X0046251Y0018475D02*
X0047749Y0018475D01*
X0047700Y0017476D02*
X0046300Y0017476D01*
X0046300Y0016478D02*
X0047700Y0016478D01*
X0047700Y0015479D02*
X0046300Y0015479D01*
X0046300Y0014481D02*
X0047700Y0014481D01*
X0047700Y0013482D02*
X0046300Y0013482D01*
X0046300Y0012484D02*
X0047700Y0012484D01*
X0047700Y0011485D02*
X0046300Y0011485D01*
X0046235Y0010487D02*
X0047765Y0010487D01*
X0048179Y0009488D02*
X0045821Y0009488D01*
X0045071Y0008490D02*
X0048929Y0008490D01*
X0038929Y0008490D02*
X0035071Y0008490D01*
X0035821Y0009488D02*
X0038179Y0009488D01*
X0037765Y0010487D02*
X0036235Y0010487D01*
X0036300Y0011485D02*
X0037700Y0011485D01*
X0037700Y0012484D02*
X0036300Y0012484D01*
X0036300Y0013482D02*
X0037700Y0013482D01*
X0037700Y0014481D02*
X0036300Y0014481D01*
X0036300Y0015479D02*
X0037700Y0015479D01*
X0037700Y0016478D02*
X0036300Y0016478D01*
X0036300Y0017476D02*
X0037700Y0017476D01*
X0037749Y0018475D02*
X0036251Y0018475D01*
X0035837Y0019473D02*
X0038163Y0019473D01*
X0038891Y0020472D02*
X0035109Y0020472D01*
X0033651Y0021470D02*
X0040349Y0021470D01*
X0030349Y0021470D02*
X0003500Y0021470D01*
X0003500Y0020472D02*
X0028891Y0020472D01*
X0028163Y0019473D02*
X0003500Y0019473D01*
X0003500Y0018475D02*
X0027749Y0018475D01*
X0027700Y0017476D02*
X0003500Y0017476D01*
X0003500Y0016478D02*
X0027700Y0016478D01*
X0027700Y0015479D02*
X0003500Y0015479D01*
X0003500Y0014481D02*
X0027700Y0014481D01*
X0027700Y0013482D02*
X0003500Y0013482D01*
X0003500Y0012484D02*
X0027700Y0012484D01*
X0027700Y0011485D02*
X0003500Y0011485D01*
X0003500Y0010487D02*
X0027765Y0010487D01*
X0028179Y0009488D02*
X0003500Y0009488D01*
X0003500Y0008490D02*
X0028929Y0008490D01*
X0012503Y0024466D02*
X0003500Y0024466D01*
X0003500Y0025464D02*
X0010955Y0025464D01*
X0010190Y0026463D02*
X0003500Y0026463D01*
X0003500Y0027461D02*
X0009776Y0027461D01*
X0009700Y0028460D02*
X0003500Y0028460D01*
X0003500Y0029458D02*
X0009743Y0029458D01*
X0010156Y0030457D02*
X0003500Y0030457D01*
X0003500Y0031455D02*
X0010874Y0031455D01*
X0012309Y0032454D02*
X0003500Y0032454D01*
X0003500Y0055420D02*
X0010999Y0055420D01*
X0010208Y0056418D02*
X0003500Y0056418D01*
X0003500Y0057417D02*
X0009794Y0057417D01*
X0009700Y0058415D02*
X0003500Y0058415D01*
X0003500Y0059414D02*
X0009724Y0059414D01*
X0010138Y0060412D02*
X0003500Y0060412D01*
X0003500Y0061411D02*
X0010830Y0061411D01*
X0012201Y0062409D02*
X0003500Y0062409D01*
X0003500Y0075390D02*
X0011029Y0075390D01*
X0010220Y0076388D02*
X0003500Y0076388D01*
X0003500Y0077387D02*
X0009807Y0077387D01*
X0009700Y0078385D02*
X0003500Y0078385D01*
X0003500Y0079384D02*
X0009712Y0079384D01*
X0010125Y0080382D02*
X0003500Y0080382D01*
X0003500Y0081381D02*
X0010800Y0081381D01*
X0012129Y0082379D02*
X0003500Y0082379D01*
X0003500Y0083378D02*
X0108112Y0083378D01*
X0111712Y0083378D02*
X0282715Y0083378D01*
X0283145Y0083200D02*
X0281564Y0083855D01*
X0280355Y0085064D01*
X0279700Y0086645D01*
X0279700Y0088355D01*
X0280355Y0089936D01*
X0281564Y0091145D01*
X0283145Y0091800D01*
X0290855Y0091800D01*
X0292436Y0091145D01*
X0293645Y0089936D01*
X0294300Y0088355D01*
X0294300Y0086645D01*
X0293645Y0085064D01*
X0292436Y0083855D01*
X0290855Y0083200D01*
X0283145Y0083200D01*
X0283145Y0081800D02*
X0281564Y0081145D01*
X0280355Y0079936D01*
X0279700Y0078355D01*
X0279700Y0076645D01*
X0280355Y0075064D01*
X0281564Y0073855D01*
X0283145Y0073200D01*
X0290855Y0073200D01*
X0292436Y0073855D01*
X0293645Y0075064D01*
X0294300Y0076645D01*
X0294300Y0078355D01*
X0293645Y0079936D01*
X0292436Y0081145D01*
X0290855Y0081800D01*
X0283145Y0081800D01*
X0282133Y0081381D02*
X0111712Y0081381D01*
X0111712Y0082379D02*
X0303201Y0082379D01*
X0303201Y0081381D02*
X0291867Y0081381D01*
X0293199Y0080382D02*
X0303201Y0080382D01*
X0303201Y0079384D02*
X0293874Y0079384D01*
X0294288Y0078385D02*
X0303201Y0078385D01*
X0303201Y0077387D02*
X0294300Y0077387D01*
X0294194Y0076388D02*
X0303201Y0076388D01*
X0303201Y0075390D02*
X0293780Y0075390D01*
X0292972Y0074391D02*
X0303201Y0074391D01*
X0303201Y0073393D02*
X0291321Y0073393D01*
X0290855Y0071800D02*
X0283145Y0071800D01*
X0281564Y0071145D01*
X0280355Y0069936D01*
X0279700Y0068355D01*
X0279700Y0066645D01*
X0280355Y0065064D01*
X0281564Y0063855D01*
X0283145Y0063200D01*
X0290855Y0063200D01*
X0292436Y0063855D01*
X0293645Y0065064D01*
X0294300Y0066645D01*
X0294300Y0068355D01*
X0293645Y0069936D01*
X0292436Y0071145D01*
X0290855Y0071800D01*
X0291831Y0071396D02*
X0303201Y0071396D01*
X0303201Y0072394D02*
X0111712Y0072394D01*
X0111712Y0071396D02*
X0282169Y0071396D01*
X0280816Y0070397D02*
X0111712Y0070397D01*
X0111712Y0069399D02*
X0280132Y0069399D01*
X0279719Y0068400D02*
X0111712Y0068400D01*
X0111712Y0067402D02*
X0279700Y0067402D01*
X0279800Y0066403D02*
X0111712Y0066403D01*
X0111712Y0065405D02*
X0280214Y0065405D01*
X0281013Y0064406D02*
X0111712Y0064406D01*
X0111712Y0063408D02*
X0282643Y0063408D01*
X0291357Y0063408D02*
X0303201Y0063408D01*
X0303201Y0064406D02*
X0292987Y0064406D01*
X0293786Y0065405D02*
X0303201Y0065405D01*
X0303201Y0066403D02*
X0294200Y0066403D01*
X0294300Y0067402D02*
X0303201Y0067402D01*
X0303201Y0068400D02*
X0294281Y0068400D01*
X0293868Y0069399D02*
X0303201Y0069399D01*
X0303201Y0070397D02*
X0293184Y0070397D01*
X0282679Y0073393D02*
X0111712Y0073393D01*
X0111712Y0074391D02*
X0281028Y0074391D01*
X0280220Y0075390D02*
X0111712Y0075390D01*
X0111712Y0076388D02*
X0279806Y0076388D01*
X0279700Y0077387D02*
X0111712Y0077387D01*
X0111712Y0078385D02*
X0279712Y0078385D01*
X0280126Y0079384D02*
X0111712Y0079384D01*
X0111712Y0080382D02*
X0280801Y0080382D01*
X0281042Y0084376D02*
X0111712Y0084376D01*
X0111921Y0085375D02*
X0280226Y0085375D01*
X0279812Y0086373D02*
X0112919Y0086373D01*
X0113918Y0087372D02*
X0279700Y0087372D01*
X0279706Y0088370D02*
X0114916Y0088370D01*
X0115915Y0089369D02*
X0280120Y0089369D01*
X0280786Y0090368D02*
X0116913Y0090368D01*
X0117912Y0091366D02*
X0129297Y0091366D01*
X0129047Y0092365D02*
X0118910Y0092365D01*
X0119909Y0093363D02*
X0129047Y0093363D01*
X0133500Y0094760D02*
X0144500Y0094760D01*
X0155500Y0094760D01*
X0166500Y0094760D01*
X0177500Y0094760D01*
X0185760Y0094760D01*
X0193500Y0102500D01*
X0193500Y0117500D01*
X0187500Y0123500D01*
X0177760Y0123500D01*
X0177500Y0123240D01*
X0178000Y0123318D02*
X0282859Y0123318D01*
X0283145Y0123200D02*
X0281564Y0123855D01*
X0280355Y0125064D01*
X0279700Y0126645D01*
X0279700Y0128355D01*
X0280355Y0129936D01*
X0281564Y0131145D01*
X0283145Y0131800D01*
X0290855Y0131800D01*
X0292436Y0131145D01*
X0293645Y0129936D01*
X0294300Y0128355D01*
X0294300Y0126645D01*
X0293645Y0125064D01*
X0292436Y0123855D01*
X0290855Y0123200D01*
X0283145Y0123200D01*
X0283145Y0121800D02*
X0281564Y0121145D01*
X0280355Y0119936D01*
X0279700Y0118355D01*
X0279700Y0116645D01*
X0280355Y0115064D01*
X0281564Y0113855D01*
X0283145Y0113200D01*
X0290855Y0113200D01*
X0292436Y0113855D01*
X0293645Y0115064D01*
X0294300Y0116645D01*
X0294300Y0118355D01*
X0293645Y0119936D01*
X0292436Y0121145D01*
X0290855Y0121800D01*
X0283145Y0121800D01*
X0281989Y0121321D02*
X0181953Y0121321D01*
X0181953Y0122320D02*
X0303201Y0122320D01*
X0303201Y0123318D02*
X0291141Y0123318D01*
X0292898Y0124317D02*
X0303201Y0124317D01*
X0303201Y0125315D02*
X0293749Y0125315D01*
X0294163Y0126314D02*
X0303201Y0126314D01*
X0303201Y0127312D02*
X0294300Y0127312D01*
X0294300Y0128311D02*
X0303201Y0128311D01*
X0303201Y0129309D02*
X0293905Y0129309D01*
X0293273Y0130308D02*
X0303201Y0130308D01*
X0303201Y0131306D02*
X0292047Y0131306D01*
X0291105Y0133303D02*
X0303201Y0133303D01*
X0303201Y0132305D02*
X0274351Y0132305D01*
X0275349Y0133303D02*
X0282895Y0133303D01*
X0281117Y0134302D02*
X0276348Y0134302D01*
X0277346Y0135301D02*
X0280257Y0135301D01*
X0279843Y0136299D02*
X0278345Y0136299D01*
X0279343Y0137298D02*
X0279700Y0137298D01*
X0284336Y0142290D02*
X0303201Y0142290D01*
X0303201Y0141292D02*
X0292083Y0141292D01*
X0293288Y0140293D02*
X0303201Y0140293D01*
X0303201Y0139295D02*
X0293911Y0139295D01*
X0294300Y0138296D02*
X0303201Y0138296D01*
X0303201Y0137298D02*
X0294300Y0137298D01*
X0294157Y0136299D02*
X0303201Y0136299D01*
X0303201Y0135301D02*
X0293743Y0135301D01*
X0292883Y0134302D02*
X0303201Y0134302D01*
X0303201Y0143289D02*
X0291069Y0143289D01*
X0292868Y0144287D02*
X0303201Y0144287D01*
X0303201Y0145286D02*
X0293737Y0145286D01*
X0294151Y0146284D02*
X0303201Y0146284D01*
X0303201Y0147283D02*
X0294300Y0147283D01*
X0294300Y0148281D02*
X0303201Y0148281D01*
X0303201Y0149280D02*
X0293917Y0149280D01*
X0293303Y0150278D02*
X0303201Y0150278D01*
X0303201Y0151277D02*
X0292119Y0151277D01*
X0291033Y0153274D02*
X0303201Y0153274D01*
X0303201Y0154272D02*
X0292853Y0154272D01*
X0293731Y0155271D02*
X0303201Y0155271D01*
X0303201Y0156269D02*
X0294144Y0156269D01*
X0294300Y0157268D02*
X0303201Y0157268D01*
X0303201Y0158266D02*
X0294300Y0158266D01*
X0293923Y0159265D02*
X0303201Y0159265D01*
X0303201Y0160263D02*
X0293318Y0160263D01*
X0292155Y0161262D02*
X0303201Y0161262D01*
X0303201Y0162260D02*
X0284785Y0162260D01*
X0286500Y0163259D02*
X0287500Y0163259D01*
X0287500Y0163000D02*
X0290354Y0163000D01*
X0291054Y0163111D01*
X0291727Y0163330D01*
X0292359Y0163651D01*
X0292932Y0164068D01*
X0293432Y0164568D01*
X0293849Y0165141D01*
X0294170Y0165773D01*
X0294389Y0166446D01*
X0294477Y0167000D01*
X0287500Y0167000D01*
X0287500Y0168000D01*
X0286500Y0168000D01*
X0286500Y0172000D01*
X0283646Y0172000D01*
X0282946Y0171889D01*
X0282273Y0171670D01*
X0281641Y0171349D01*
X0281068Y0170932D01*
X0280568Y0170432D01*
X0280151Y0169859D01*
X0279830Y0169227D01*
X0279611Y0168554D01*
X0279523Y0168000D01*
X0286500Y0168000D01*
X0286500Y0167000D01*
X0287500Y0167000D01*
X0287500Y0163000D01*
X0287500Y0164257D02*
X0286500Y0164257D01*
X0286500Y0165256D02*
X0287500Y0165256D01*
X0287500Y0166254D02*
X0286500Y0166254D01*
X0286500Y0167253D02*
X0279793Y0167253D01*
X0279563Y0168251D02*
X0278794Y0168251D01*
X0277796Y0169250D02*
X0279841Y0169250D01*
X0280435Y0170248D02*
X0276797Y0170248D01*
X0275799Y0171247D02*
X0281501Y0171247D01*
X0283039Y0173244D02*
X0273802Y0173244D01*
X0274800Y0172245D02*
X0303201Y0172245D01*
X0303201Y0171247D02*
X0292499Y0171247D01*
X0292359Y0171349D02*
X0291727Y0171670D01*
X0291054Y0171889D01*
X0290354Y0172000D01*
X0287500Y0172000D01*
X0287500Y0168000D01*
X0294477Y0168000D01*
X0294389Y0168554D01*
X0294170Y0169227D01*
X0293849Y0169859D01*
X0293432Y0170432D01*
X0292932Y0170932D01*
X0292359Y0171349D01*
X0293565Y0170248D02*
X0303201Y0170248D01*
X0303201Y0169250D02*
X0294159Y0169250D01*
X0294437Y0168251D02*
X0303201Y0168251D01*
X0303201Y0167253D02*
X0287500Y0167253D01*
X0287500Y0168251D02*
X0286500Y0168251D01*
X0286500Y0169250D02*
X0287500Y0169250D01*
X0287500Y0170248D02*
X0286500Y0170248D01*
X0286500Y0171247D02*
X0287500Y0171247D01*
X0290855Y0173200D02*
X0283145Y0173200D01*
X0281564Y0173855D01*
X0280355Y0175064D01*
X0279700Y0176645D01*
X0279700Y0178355D01*
X0280355Y0179936D01*
X0281564Y0181145D01*
X0283145Y0181800D01*
X0290855Y0181800D01*
X0292436Y0181145D01*
X0293645Y0179936D01*
X0294300Y0178355D01*
X0294300Y0176645D01*
X0293645Y0175064D01*
X0292436Y0173855D01*
X0290855Y0173200D01*
X0290961Y0173244D02*
X0303201Y0173244D01*
X0303201Y0174242D02*
X0292824Y0174242D01*
X0293719Y0175241D02*
X0303201Y0175241D01*
X0303201Y0176239D02*
X0294132Y0176239D01*
X0294300Y0177238D02*
X0303201Y0177238D01*
X0303201Y0178237D02*
X0294300Y0178237D01*
X0293936Y0179235D02*
X0303201Y0179235D01*
X0303201Y0180234D02*
X0293348Y0180234D01*
X0292226Y0181232D02*
X0303201Y0181232D01*
X0303201Y0182231D02*
X0264815Y0182231D01*
X0263817Y0183229D02*
X0283075Y0183229D01*
X0283145Y0183200D02*
X0281564Y0183855D01*
X0280355Y0185064D01*
X0279700Y0186645D01*
X0279700Y0188355D01*
X0280355Y0189936D01*
X0281564Y0191145D01*
X0283145Y0191800D01*
X0290855Y0191800D01*
X0292436Y0191145D01*
X0293645Y0189936D01*
X0294300Y0188355D01*
X0294300Y0186645D01*
X0293645Y0185064D01*
X0292436Y0183855D01*
X0290855Y0183200D01*
X0283145Y0183200D01*
X0281191Y0184228D02*
X0262818Y0184228D01*
X0261721Y0180234D02*
X0218599Y0180234D01*
X0218325Y0179235D02*
X0262719Y0179235D01*
X0265814Y0181232D02*
X0281774Y0181232D01*
X0280652Y0180234D02*
X0266812Y0180234D01*
X0267811Y0179235D02*
X0280064Y0179235D01*
X0279700Y0178237D02*
X0268809Y0178237D01*
X0269808Y0177238D02*
X0279700Y0177238D01*
X0279868Y0176239D02*
X0270806Y0176239D01*
X0271805Y0175241D02*
X0280281Y0175241D01*
X0281176Y0174242D02*
X0272803Y0174242D01*
X0280288Y0185226D02*
X0218599Y0185226D01*
X0218599Y0186225D02*
X0279874Y0186225D01*
X0279700Y0187223D02*
X0217867Y0187223D01*
X0211613Y0187223D02*
X0210387Y0187223D01*
X0207260Y0183000D02*
X0207260Y0171520D01*
X0203631Y0175241D02*
X0203596Y0175241D01*
X0205460Y0176239D02*
X0152878Y0176239D01*
X0152851Y0177238D02*
X0205460Y0177238D01*
X0205460Y0178237D02*
X0152437Y0178237D01*
X0151542Y0179235D02*
X0203675Y0179235D01*
X0203401Y0180234D02*
X0103878Y0180234D01*
X0103853Y0181232D02*
X0203401Y0181232D01*
X0203401Y0182231D02*
X0103439Y0182231D01*
X0102548Y0183229D02*
X0203401Y0183229D01*
X0203401Y0184228D02*
X0020922Y0184228D01*
X0020855Y0184200D02*
X0022436Y0184855D01*
X0023645Y0186064D01*
X0024300Y0187645D01*
X0024300Y0189355D01*
X0023645Y0190936D01*
X0022436Y0192145D01*
X0020855Y0192800D01*
X0013145Y0192800D01*
X0011564Y0192145D01*
X0010355Y0190936D01*
X0009700Y0189355D01*
X0009700Y0187645D01*
X0010355Y0186064D01*
X0011564Y0184855D01*
X0013145Y0184200D01*
X0020855Y0184200D01*
X0020855Y0182800D02*
X0022436Y0182145D01*
X0023645Y0180936D01*
X0024300Y0179355D01*
X0024300Y0177645D01*
X0023645Y0176064D01*
X0022436Y0174855D01*
X0020855Y0174200D01*
X0013145Y0174200D01*
X0011564Y0174855D01*
X0010355Y0176064D01*
X0009700Y0177645D01*
X0009700Y0179355D01*
X0010355Y0180936D01*
X0011564Y0182145D01*
X0013145Y0182800D01*
X0020855Y0182800D01*
X0022230Y0182231D02*
X0078985Y0182231D01*
X0078589Y0181232D02*
X0023349Y0181232D01*
X0023936Y0180234D02*
X0078089Y0180234D01*
X0077090Y0179235D02*
X0024300Y0179235D01*
X0024300Y0178237D02*
X0076092Y0178237D01*
X0075093Y0177238D02*
X0024132Y0177238D01*
X0023718Y0176239D02*
X0074095Y0176239D01*
X0073096Y0175241D02*
X0022822Y0175241D01*
X0020958Y0174242D02*
X0072098Y0174242D01*
X0071099Y0173244D02*
X0003500Y0173244D01*
X0003500Y0174242D02*
X0013042Y0174242D01*
X0013145Y0172800D02*
X0011564Y0172145D01*
X0010355Y0170936D01*
X0009700Y0169355D01*
X0009700Y0167645D01*
X0010355Y0166064D01*
X0011564Y0164855D01*
X0013145Y0164200D01*
X0020855Y0164200D01*
X0022436Y0164855D01*
X0023645Y0166064D01*
X0024300Y0167645D01*
X0024300Y0169355D01*
X0023645Y0170936D01*
X0022436Y0172145D01*
X0020855Y0172800D01*
X0013145Y0172800D01*
X0011806Y0172245D02*
X0003500Y0172245D01*
X0003500Y0171247D02*
X0010666Y0171247D01*
X0010070Y0170248D02*
X0003500Y0170248D01*
X0003500Y0169250D02*
X0009700Y0169250D01*
X0009700Y0168251D02*
X0003500Y0168251D01*
X0003500Y0167253D02*
X0009862Y0167253D01*
X0010276Y0166254D02*
X0003500Y0166254D01*
X0003500Y0165256D02*
X0011163Y0165256D01*
X0013006Y0164257D02*
X0003500Y0164257D01*
X0003500Y0163259D02*
X0065200Y0163259D01*
X0065200Y0164257D02*
X0020994Y0164257D01*
X0020855Y0162800D02*
X0022436Y0162145D01*
X0023645Y0160936D01*
X0024300Y0159355D01*
X0024300Y0157645D01*
X0023645Y0156064D01*
X0022436Y0154855D01*
X0020855Y0154200D01*
X0013145Y0154200D01*
X0011564Y0154855D01*
X0010355Y0156064D01*
X0009700Y0157645D01*
X0009700Y0159355D01*
X0010355Y0160936D01*
X0011564Y0162145D01*
X0013145Y0162800D01*
X0020855Y0162800D01*
X0022158Y0162260D02*
X0065200Y0162260D01*
X0065200Y0161262D02*
X0023319Y0161262D01*
X0023924Y0160263D02*
X0066191Y0160263D01*
X0067190Y0159265D02*
X0024300Y0159265D01*
X0024300Y0158266D02*
X0068188Y0158266D01*
X0069187Y0157268D02*
X0024144Y0157268D01*
X0023730Y0156269D02*
X0070185Y0156269D01*
X0071184Y0155271D02*
X0022852Y0155271D01*
X0021030Y0154272D02*
X0088901Y0154272D01*
X0088901Y0153274D02*
X0003500Y0153274D01*
X0003500Y0154272D02*
X0012970Y0154272D01*
X0011148Y0155271D02*
X0003500Y0155271D01*
X0003500Y0156269D02*
X0010270Y0156269D01*
X0009856Y0157268D02*
X0003500Y0157268D01*
X0003500Y0158266D02*
X0009700Y0158266D01*
X0009700Y0159265D02*
X0003500Y0159265D01*
X0003500Y0160263D02*
X0010076Y0160263D01*
X0010681Y0161262D02*
X0003500Y0161262D01*
X0003500Y0162260D02*
X0011842Y0162260D01*
X0011878Y0152275D02*
X0003500Y0152275D01*
X0003500Y0151277D02*
X0010696Y0151277D01*
X0010082Y0150278D02*
X0003500Y0150278D01*
X0003500Y0149280D02*
X0009700Y0149280D01*
X0009700Y0148281D02*
X0003500Y0148281D01*
X0003500Y0147283D02*
X0009850Y0147283D01*
X0010264Y0146284D02*
X0003500Y0146284D01*
X0003500Y0145286D02*
X0011133Y0145286D01*
X0012934Y0144287D02*
X0003500Y0144287D01*
X0003500Y0143289D02*
X0019666Y0143289D01*
X0022867Y0145286D02*
X0032169Y0145286D01*
X0033167Y0144287D02*
X0023758Y0144287D01*
X0024757Y0143289D02*
X0034166Y0143289D01*
X0035164Y0142290D02*
X0025755Y0142290D01*
X0026754Y0141292D02*
X0088901Y0141292D01*
X0088901Y0140293D02*
X0027752Y0140293D01*
X0028751Y0139295D02*
X0089418Y0139295D01*
X0092760Y0143500D02*
X0036500Y0143500D01*
X0032000Y0148000D01*
X0017500Y0148000D01*
X0017000Y0148500D01*
X0041000Y0124500D01*
X0118500Y0124500D01*
X0121878Y0124317D02*
X0129047Y0124317D01*
X0129047Y0125315D02*
X0121819Y0125315D01*
X0121405Y0126314D02*
X0129132Y0126314D01*
X0133854Y0130308D02*
X0137672Y0130308D01*
X0137357Y0131306D02*
X0134852Y0131306D01*
X0135851Y0132305D02*
X0137357Y0132305D01*
X0135500Y0134500D02*
X0140831Y0134500D01*
X0141217Y0134114D01*
X0137357Y0137298D02*
X0110875Y0137298D01*
X0112123Y0136299D02*
X0134753Y0136299D01*
X0133755Y0135301D02*
X0113371Y0135301D01*
X0114619Y0134302D02*
X0132756Y0134302D01*
X0131758Y0133303D02*
X0115867Y0133303D01*
X0115240Y0131500D02*
X0132500Y0131500D01*
X0135500Y0134500D01*
X0138048Y0138296D02*
X0109626Y0138296D01*
X0107608Y0135301D02*
X0032745Y0135301D01*
X0031747Y0136299D02*
X0106360Y0136299D01*
X0105112Y0137298D02*
X0030748Y0137298D01*
X0029750Y0138296D02*
X0103864Y0138296D01*
X0100240Y0143500D02*
X0115240Y0131500D01*
X0113849Y0130308D02*
X0037738Y0130308D01*
X0038736Y0129309D02*
X0209145Y0129309D01*
X0208960Y0130308D02*
X0175512Y0130308D01*
X0175523Y0130319D02*
X0175721Y0130661D01*
X0175823Y0131043D01*
X0175823Y0133693D01*
X0172264Y0133693D01*
X0172264Y0129740D01*
X0174520Y0129740D01*
X0174902Y0129842D01*
X0175244Y0130040D01*
X0175523Y0130319D01*
X0175823Y0131306D02*
X0208960Y0131306D01*
X0208960Y0132305D02*
X0175823Y0132305D01*
X0175823Y0133303D02*
X0208960Y0133303D01*
X0208960Y0134302D02*
X0172264Y0134302D01*
X0172264Y0133303D02*
X0171264Y0133303D01*
X0171264Y0132305D02*
X0172264Y0132305D01*
X0172264Y0131306D02*
X0171264Y0131306D01*
X0171264Y0130308D02*
X0172264Y0130308D01*
X0173968Y0127197D02*
X0173626Y0126999D01*
X0173347Y0126720D01*
X0173149Y0126378D01*
X0173047Y0125997D01*
X0173047Y0123740D01*
X0177000Y0123740D01*
X0177000Y0127299D01*
X0174350Y0127299D01*
X0173968Y0127197D01*
X0173132Y0126314D02*
X0170868Y0126314D01*
X0170953Y0125315D02*
X0173047Y0125315D01*
X0173047Y0124317D02*
X0170953Y0124317D01*
X0170953Y0122320D02*
X0173047Y0122320D01*
X0173047Y0121321D02*
X0170953Y0121321D01*
X0170910Y0120323D02*
X0173090Y0120323D01*
X0173714Y0119324D02*
X0170286Y0119324D01*
X0170753Y0118326D02*
X0173247Y0118326D01*
X0173247Y0113333D02*
X0170753Y0113333D01*
X0170425Y0112335D02*
X0173575Y0112335D01*
X0173255Y0105345D02*
X0170745Y0105345D01*
X0170753Y0104347D02*
X0173247Y0104347D01*
X0173247Y0100353D02*
X0170753Y0100353D01*
X0170753Y0099354D02*
X0173247Y0099354D01*
X0173463Y0098356D02*
X0170537Y0098356D01*
X0170953Y0097357D02*
X0173047Y0097357D01*
X0173047Y0096359D02*
X0170953Y0096359D01*
X0170953Y0095360D02*
X0173047Y0095360D01*
X0173047Y0093363D02*
X0170953Y0093363D01*
X0170953Y0094260D02*
X0167000Y0094260D01*
X0167000Y0090701D01*
X0169650Y0090701D01*
X0170032Y0090803D01*
X0170374Y0091000D01*
X0170653Y0091280D01*
X0170851Y0091622D01*
X0170953Y0092003D01*
X0170953Y0094260D01*
X0170953Y0092365D02*
X0173047Y0092365D01*
X0173297Y0091366D02*
X0170703Y0091366D01*
X0167000Y0091366D02*
X0166000Y0091366D01*
X0166000Y0092365D02*
X0167000Y0092365D01*
X0167000Y0093363D02*
X0166000Y0093363D01*
X0166000Y0094362D02*
X0156000Y0094362D01*
X0156000Y0094260D02*
X0159953Y0094260D01*
X0159953Y0092003D01*
X0159851Y0091622D01*
X0159653Y0091280D01*
X0159374Y0091000D01*
X0159032Y0090803D01*
X0158650Y0090701D01*
X0156000Y0090701D01*
X0156000Y0094260D01*
X0156000Y0093363D02*
X0155000Y0093363D01*
X0155000Y0092365D02*
X0156000Y0092365D01*
X0156000Y0091366D02*
X0155000Y0091366D01*
X0155000Y0094362D02*
X0145000Y0094362D01*
X0145000Y0094260D02*
X0148953Y0094260D01*
X0148953Y0092003D01*
X0148851Y0091622D01*
X0148653Y0091280D01*
X0148374Y0091000D01*
X0148032Y0090803D01*
X0147650Y0090701D01*
X0145000Y0090701D01*
X0145000Y0094260D01*
X0145000Y0093363D02*
X0144000Y0093363D01*
X0144000Y0092365D02*
X0145000Y0092365D01*
X0145000Y0091366D02*
X0144000Y0091366D01*
X0144000Y0094362D02*
X0134000Y0094362D01*
X0123804Y0102350D02*
X0121431Y0102350D01*
X0120432Y0101351D02*
X0122806Y0101351D01*
X0121807Y0100353D02*
X0023887Y0100353D01*
X0024300Y0099354D02*
X0120809Y0099354D01*
X0119810Y0098356D02*
X0024300Y0098356D01*
X0024181Y0097357D02*
X0118812Y0097357D01*
X0117813Y0096359D02*
X0023767Y0096359D01*
X0022941Y0095360D02*
X0116814Y0095360D01*
X0115816Y0094362D02*
X0021245Y0094362D01*
X0023230Y0101351D02*
X0096568Y0101351D01*
X0095569Y0102350D02*
X0021943Y0102350D01*
X0012791Y0104347D02*
X0003500Y0104347D01*
X0003500Y0105345D02*
X0011074Y0105345D01*
X0010239Y0106344D02*
X0003500Y0106344D01*
X0003500Y0107342D02*
X0009825Y0107342D01*
X0009700Y0108341D02*
X0003500Y0108341D01*
X0003500Y0109339D02*
X0009700Y0109339D01*
X0010107Y0110338D02*
X0003500Y0110338D01*
X0003500Y0111336D02*
X0010755Y0111336D01*
X0012022Y0112335D02*
X0003500Y0112335D01*
X0003500Y0113333D02*
X0079694Y0113333D01*
X0078792Y0114332D02*
X0021173Y0114332D01*
X0022911Y0115330D02*
X0078378Y0115330D01*
X0078346Y0116329D02*
X0023755Y0116329D01*
X0024169Y0117327D02*
X0078585Y0117327D01*
X0079193Y0118326D02*
X0024300Y0118326D01*
X0024300Y0119324D02*
X0080731Y0119324D01*
X0082718Y0119324D02*
X0096243Y0119324D01*
X0095245Y0118326D02*
X0084255Y0118326D01*
X0084864Y0117327D02*
X0094246Y0117327D01*
X0094586Y0113333D02*
X0083755Y0113333D01*
X0082304Y0115500D02*
X0081724Y0116080D01*
X0082304Y0115500D02*
X0098500Y0115500D01*
X0102800Y0115330D02*
X0104200Y0115330D01*
X0104200Y0114332D02*
X0102800Y0114332D01*
X0102414Y0113333D02*
X0104586Y0113333D01*
X0104200Y0113719D02*
X0104200Y0117281D01*
X0106719Y0119800D01*
X0110281Y0119800D01*
X0112800Y0117281D01*
X0112800Y0113719D01*
X0110281Y0111200D01*
X0106719Y0111200D01*
X0104200Y0113719D01*
X0105584Y0112335D02*
X0101416Y0112335D01*
X0100417Y0111336D02*
X0106583Y0111336D01*
X0106719Y0109800D02*
X0104200Y0107281D01*
X0104200Y0103719D01*
X0106719Y0101200D01*
X0110281Y0101200D01*
X0112800Y0103719D01*
X0112800Y0107281D01*
X0110281Y0109800D01*
X0106719Y0109800D01*
X0106258Y0109339D02*
X0100742Y0109339D01*
X0101740Y0108341D02*
X0105260Y0108341D01*
X0104261Y0107342D02*
X0102739Y0107342D01*
X0102800Y0106344D02*
X0104200Y0106344D01*
X0104200Y0105345D02*
X0102800Y0105345D01*
X0102800Y0104347D02*
X0104200Y0104347D01*
X0104571Y0103348D02*
X0102429Y0103348D01*
X0101431Y0102350D02*
X0105569Y0102350D01*
X0106568Y0101351D02*
X0100432Y0101351D01*
X0110432Y0101351D02*
X0116568Y0101351D01*
X0115569Y0102350D02*
X0111431Y0102350D01*
X0112429Y0103348D02*
X0114571Y0103348D01*
X0114200Y0104347D02*
X0112800Y0104347D01*
X0112800Y0105345D02*
X0114200Y0105345D01*
X0114200Y0106344D02*
X0112800Y0106344D01*
X0112739Y0107342D02*
X0114261Y0107342D01*
X0115260Y0108341D02*
X0111740Y0108341D01*
X0110742Y0109339D02*
X0116258Y0109339D01*
X0116583Y0111336D02*
X0110417Y0111336D01*
X0111416Y0112335D02*
X0115584Y0112335D01*
X0114586Y0113333D02*
X0112414Y0113333D01*
X0112800Y0114332D02*
X0114200Y0114332D01*
X0114200Y0115330D02*
X0112800Y0115330D01*
X0112800Y0116329D02*
X0114200Y0116329D01*
X0114246Y0117327D02*
X0112754Y0117327D01*
X0111755Y0118326D02*
X0115245Y0118326D01*
X0116243Y0119324D02*
X0110757Y0119324D01*
X0115903Y0122320D02*
X0022014Y0122320D01*
X0021688Y0124317D02*
X0038638Y0124317D01*
X0039636Y0123318D02*
X0003500Y0123318D01*
X0003500Y0122320D02*
X0011986Y0122320D01*
X0010740Y0121321D02*
X0003500Y0121321D01*
X0003500Y0120323D02*
X0010101Y0120323D01*
X0009700Y0119324D02*
X0003500Y0119324D01*
X0003500Y0118326D02*
X0009700Y0118326D01*
X0009831Y0117327D02*
X0003500Y0117327D01*
X0003500Y0116329D02*
X0010245Y0116329D01*
X0011089Y0115330D02*
X0003500Y0115330D01*
X0003500Y0114332D02*
X0012827Y0114332D01*
X0021978Y0112335D02*
X0095584Y0112335D01*
X0102800Y0116329D02*
X0104200Y0116329D01*
X0104246Y0117327D02*
X0102754Y0117327D01*
X0101755Y0118326D02*
X0105245Y0118326D01*
X0106243Y0119324D02*
X0100757Y0119324D01*
X0111353Y0132305D02*
X0035741Y0132305D01*
X0036739Y0131306D02*
X0112601Y0131306D01*
X0110104Y0133303D02*
X0034742Y0133303D01*
X0033744Y0134302D02*
X0108856Y0134302D01*
X0116535Y0127312D02*
X0040733Y0127312D01*
X0041732Y0126314D02*
X0115595Y0126314D01*
X0120465Y0127312D02*
X0211142Y0127312D01*
X0212140Y0126314D02*
X0181868Y0126314D01*
X0181953Y0125315D02*
X0213139Y0125315D01*
X0214138Y0124317D02*
X0181953Y0124317D01*
X0181910Y0120323D02*
X0280742Y0120323D01*
X0280101Y0119324D02*
X0181286Y0119324D01*
X0181753Y0118326D02*
X0279700Y0118326D01*
X0279700Y0117327D02*
X0183218Y0117327D01*
X0184217Y0116329D02*
X0279831Y0116329D01*
X0280244Y0115330D02*
X0185215Y0115330D01*
X0186214Y0114332D02*
X0281087Y0114332D01*
X0282823Y0113333D02*
X0186300Y0113333D01*
X0186300Y0112335D02*
X0303201Y0112335D01*
X0303201Y0113333D02*
X0291177Y0113333D01*
X0290855Y0111800D02*
X0283145Y0111800D01*
X0281564Y0111145D01*
X0280355Y0109936D01*
X0279700Y0108355D01*
X0279700Y0106645D01*
X0280355Y0105064D01*
X0281564Y0103855D01*
X0283145Y0103200D01*
X0290855Y0103200D01*
X0292436Y0103855D01*
X0293645Y0105064D01*
X0294300Y0106645D01*
X0294300Y0108355D01*
X0293645Y0109936D01*
X0292436Y0111145D01*
X0290855Y0111800D01*
X0291975Y0111336D02*
X0303201Y0111336D01*
X0303201Y0110338D02*
X0293243Y0110338D01*
X0293892Y0109339D02*
X0303201Y0109339D01*
X0303201Y0108341D02*
X0294300Y0108341D01*
X0294300Y0107342D02*
X0303201Y0107342D01*
X0303201Y0106344D02*
X0294175Y0106344D01*
X0293762Y0105345D02*
X0303201Y0105345D01*
X0303201Y0104347D02*
X0292928Y0104347D01*
X0291213Y0103348D02*
X0303201Y0103348D01*
X0303201Y0102350D02*
X0185895Y0102350D01*
X0186300Y0103348D02*
X0282787Y0103348D01*
X0283145Y0101800D02*
X0281564Y0101145D01*
X0280355Y0099936D01*
X0279700Y0098355D01*
X0279700Y0096645D01*
X0280355Y0095064D01*
X0281564Y0093855D01*
X0283145Y0093200D01*
X0290855Y0093200D01*
X0292436Y0093855D01*
X0293645Y0095064D01*
X0294300Y0096645D01*
X0294300Y0098355D01*
X0293645Y0099936D01*
X0292436Y0101145D01*
X0290855Y0101800D01*
X0283145Y0101800D01*
X0282061Y0101351D02*
X0184897Y0101351D01*
X0181753Y0100353D02*
X0280772Y0100353D01*
X0280114Y0099354D02*
X0181753Y0099354D01*
X0181537Y0098356D02*
X0279700Y0098356D01*
X0279700Y0097357D02*
X0181953Y0097357D01*
X0181953Y0096359D02*
X0279819Y0096359D01*
X0280232Y0095360D02*
X0181953Y0095360D01*
X0181953Y0094260D02*
X0178000Y0094260D01*
X0178000Y0090701D01*
X0180650Y0090701D01*
X0181032Y0090803D01*
X0181374Y0091000D01*
X0181653Y0091280D01*
X0181851Y0091622D01*
X0181953Y0092003D01*
X0181953Y0094260D01*
X0181953Y0093363D02*
X0282751Y0093363D01*
X0281057Y0094362D02*
X0178000Y0094362D01*
X0178000Y0093363D02*
X0177000Y0093363D01*
X0177000Y0092365D02*
X0178000Y0092365D01*
X0178000Y0091366D02*
X0177000Y0091366D01*
X0177000Y0094362D02*
X0167000Y0094362D01*
X0162047Y0095360D02*
X0159953Y0095360D01*
X0159953Y0096359D02*
X0162047Y0096359D01*
X0162047Y0097357D02*
X0159953Y0097357D01*
X0159537Y0098356D02*
X0162463Y0098356D01*
X0162247Y0099354D02*
X0159753Y0099354D01*
X0159753Y0100353D02*
X0162247Y0100353D01*
X0162247Y0104347D02*
X0159753Y0104347D01*
X0159745Y0105345D02*
X0162255Y0105345D01*
X0162575Y0112335D02*
X0159425Y0112335D01*
X0159753Y0113333D02*
X0162247Y0113333D01*
X0162247Y0118326D02*
X0159753Y0118326D01*
X0159286Y0119324D02*
X0162714Y0119324D01*
X0162090Y0120323D02*
X0159910Y0120323D01*
X0159953Y0121321D02*
X0162047Y0121321D01*
X0162047Y0122320D02*
X0159953Y0122320D01*
X0159953Y0124317D02*
X0162047Y0124317D01*
X0162047Y0123740D02*
X0166000Y0123740D01*
X0166000Y0127299D01*
X0163350Y0127299D01*
X0162968Y0127197D01*
X0162626Y0126999D01*
X0162347Y0126720D01*
X0162149Y0126378D01*
X0162047Y0125997D01*
X0162047Y0123740D01*
X0162047Y0125315D02*
X0159953Y0125315D01*
X0159868Y0126314D02*
X0162132Y0126314D01*
X0160818Y0130308D02*
X0152495Y0130308D01*
X0152456Y0130240D02*
X0152654Y0130582D01*
X0152756Y0130964D01*
X0152756Y0133614D01*
X0149197Y0133614D01*
X0149197Y0129661D01*
X0151453Y0129661D01*
X0151835Y0129764D01*
X0152177Y0129961D01*
X0152456Y0130240D01*
X0152756Y0131306D02*
X0160424Y0131306D01*
X0160424Y0132305D02*
X0152756Y0132305D01*
X0152756Y0133303D02*
X0160424Y0133303D01*
X0164283Y0134193D02*
X0164283Y0138283D01*
X0165500Y0139500D01*
X0168500Y0139500D01*
X0170500Y0143500D01*
X0173655Y0142290D02*
X0185901Y0142290D01*
X0185901Y0141292D02*
X0173069Y0141292D01*
X0171585Y0140293D02*
X0185901Y0140293D01*
X0185901Y0138296D02*
X0175294Y0138296D01*
X0175823Y0137298D02*
X0185901Y0137298D01*
X0185901Y0136299D02*
X0175823Y0136299D01*
X0175823Y0135301D02*
X0186109Y0135301D01*
X0193411Y0135301D02*
X0193589Y0135301D01*
X0197240Y0139000D02*
X0197240Y0141240D01*
X0200500Y0144500D01*
X0210760Y0144500D01*
X0210760Y0130240D01*
X0215000Y0126000D01*
X0265500Y0126000D01*
X0287000Y0147500D01*
X0284321Y0152275D02*
X0303201Y0152275D01*
X0303201Y0163259D02*
X0291509Y0163259D01*
X0293121Y0164257D02*
X0303201Y0164257D01*
X0303201Y0165256D02*
X0293907Y0165256D01*
X0294327Y0166254D02*
X0303201Y0166254D01*
X0303201Y0183229D02*
X0290925Y0183229D01*
X0292809Y0184228D02*
X0303201Y0184228D01*
X0303201Y0185226D02*
X0293712Y0185226D01*
X0294126Y0186225D02*
X0303201Y0186225D01*
X0303201Y0187223D02*
X0294300Y0187223D01*
X0294300Y0188222D02*
X0303201Y0188222D01*
X0303201Y0189220D02*
X0293942Y0189220D01*
X0293362Y0190219D02*
X0303201Y0190219D01*
X0303201Y0191217D02*
X0292262Y0191217D01*
X0290890Y0193214D02*
X0303201Y0193214D01*
X0303201Y0192216D02*
X0022266Y0192216D01*
X0023364Y0191217D02*
X0281738Y0191217D01*
X0280638Y0190219D02*
X0023942Y0190219D01*
X0024300Y0189220D02*
X0280058Y0189220D01*
X0279700Y0188222D02*
X0024300Y0188222D01*
X0024125Y0187223D02*
X0204133Y0187223D01*
X0203401Y0186225D02*
X0023712Y0186225D01*
X0022807Y0185226D02*
X0203401Y0185226D01*
X0200260Y0175241D02*
X0199260Y0175241D01*
X0199260Y0174242D02*
X0200260Y0174242D01*
X0200260Y0173244D02*
X0199260Y0173244D01*
X0199260Y0172245D02*
X0200260Y0172245D01*
X0199260Y0171247D02*
X0173299Y0171247D01*
X0174297Y0170248D02*
X0195701Y0170248D01*
X0195701Y0169250D02*
X0175296Y0169250D01*
X0176294Y0168251D02*
X0195727Y0168251D01*
X0196443Y0167253D02*
X0176300Y0167253D01*
X0174500Y0167500D02*
X0174500Y0155240D01*
X0174740Y0155000D01*
X0172700Y0159265D02*
X0170546Y0159265D01*
X0172700Y0160263D02*
X0161137Y0160263D01*
X0161153Y0160280D02*
X0161351Y0160622D01*
X0161453Y0161003D01*
X0161453Y0163260D01*
X0157500Y0163260D01*
X0157500Y0159701D01*
X0160150Y0159701D01*
X0160532Y0159803D01*
X0160874Y0160000D01*
X0161153Y0160280D01*
X0161453Y0161262D02*
X0172700Y0161262D01*
X0172700Y0162260D02*
X0161453Y0162260D01*
X0161453Y0163259D02*
X0172700Y0163259D01*
X0172700Y0164257D02*
X0157500Y0164257D01*
X0157000Y0163760D02*
X0161240Y0163760D01*
X0162500Y0162500D01*
X0165500Y0162500D01*
X0166760Y0159265D02*
X0167760Y0159265D01*
X0167760Y0158266D02*
X0166760Y0158266D01*
X0166760Y0157268D02*
X0167760Y0157268D01*
X0167760Y0156269D02*
X0166760Y0156269D01*
X0166760Y0155271D02*
X0160256Y0155271D01*
X0161379Y0154272D02*
X0163201Y0154272D01*
X0163201Y0154500D02*
X0163201Y0151850D01*
X0163303Y0151468D01*
X0163500Y0151126D01*
X0163780Y0150847D01*
X0164122Y0150649D01*
X0164503Y0150547D01*
X0166760Y0150547D01*
X0166760Y0154500D01*
X0163201Y0154500D01*
X0163201Y0153274D02*
X0161453Y0153274D01*
X0161453Y0152275D02*
X0163201Y0152275D01*
X0163414Y0151277D02*
X0157500Y0151277D01*
X0157000Y0151240D02*
X0155740Y0152500D01*
X0149500Y0152500D01*
X0143260Y0152500D01*
X0142000Y0151240D01*
X0141740Y0151500D01*
X0133500Y0151500D01*
X0137547Y0151740D02*
X0137547Y0153997D01*
X0137649Y0154378D01*
X0137847Y0154720D01*
X0138126Y0154999D01*
X0138468Y0155197D01*
X0138850Y0155299D01*
X0141500Y0155299D01*
X0141500Y0151740D01*
X0137547Y0151740D01*
X0137547Y0152275D02*
X0103562Y0152275D01*
X0104099Y0153274D02*
X0137547Y0153274D01*
X0137621Y0154272D02*
X0104099Y0154272D01*
X0104099Y0155271D02*
X0138744Y0155271D01*
X0141500Y0155271D02*
X0142500Y0155271D01*
X0142500Y0154272D02*
X0141500Y0154272D01*
X0141500Y0153274D02*
X0142500Y0153274D01*
X0142500Y0152275D02*
X0141500Y0152275D01*
X0141500Y0151277D02*
X0102040Y0151277D01*
X0102040Y0150278D02*
X0137547Y0150278D01*
X0137547Y0149280D02*
X0102040Y0149280D01*
X0102040Y0148281D02*
X0137601Y0148281D01*
X0138173Y0147283D02*
X0104005Y0147283D01*
X0100240Y0143500D02*
X0100240Y0156500D01*
X0100240Y0180240D01*
X0100500Y0180500D01*
X0103632Y0179235D02*
X0147458Y0179235D01*
X0146563Y0178237D02*
X0103014Y0178237D01*
X0102040Y0177238D02*
X0146149Y0177238D01*
X0146122Y0176239D02*
X0102040Y0176239D01*
X0102040Y0175241D02*
X0146365Y0175241D01*
X0146253Y0174242D02*
X0146980Y0174242D01*
X0147700Y0173244D02*
X0146253Y0173244D01*
X0149500Y0171240D02*
X0142000Y0171240D01*
X0141740Y0171500D01*
X0133500Y0171500D01*
X0130362Y0170248D02*
X0102040Y0170248D01*
X0102040Y0169250D02*
X0130973Y0169250D01*
X0132516Y0168251D02*
X0102040Y0168251D01*
X0102040Y0167253D02*
X0137860Y0167253D01*
X0137747Y0168251D02*
X0134484Y0168251D01*
X0136027Y0169250D02*
X0137747Y0169250D01*
X0137547Y0166254D02*
X0102040Y0166254D01*
X0102040Y0165256D02*
X0137547Y0165256D01*
X0137547Y0163259D02*
X0102040Y0163259D01*
X0102040Y0164257D02*
X0141500Y0164257D01*
X0142000Y0163760D02*
X0157000Y0163760D01*
X0157000Y0151240D01*
X0164500Y0151240D01*
X0167260Y0155000D01*
X0166760Y0154272D02*
X0167760Y0154272D01*
X0167760Y0153274D02*
X0166760Y0153274D01*
X0166760Y0152275D02*
X0167760Y0152275D01*
X0167760Y0151277D02*
X0166760Y0151277D01*
X0168100Y0150278D02*
X0161453Y0150278D01*
X0161453Y0149280D02*
X0167207Y0149280D01*
X0166313Y0148281D02*
X0161398Y0148281D01*
X0161737Y0147283D02*
X0160827Y0147283D01*
X0158240Y0145000D02*
X0157000Y0143760D01*
X0161253Y0141292D02*
X0164746Y0141292D01*
X0163747Y0140293D02*
X0160884Y0140293D01*
X0161836Y0142290D02*
X0167345Y0142290D01*
X0167122Y0143289D02*
X0162834Y0143289D01*
X0170250Y0147283D02*
X0172348Y0147283D01*
X0172493Y0146284D02*
X0172939Y0146284D01*
X0173417Y0145286D02*
X0174433Y0145286D01*
X0173830Y0144287D02*
X0188200Y0144287D01*
X0188200Y0143289D02*
X0173878Y0143289D01*
X0176567Y0145286D02*
X0188200Y0145286D01*
X0188200Y0146284D02*
X0178061Y0146284D01*
X0172122Y0148281D02*
X0171144Y0148281D01*
X0172037Y0149280D02*
X0172167Y0149280D01*
X0163201Y0156269D02*
X0104099Y0156269D01*
X0104099Y0157268D02*
X0163201Y0157268D01*
X0163232Y0158266D02*
X0104099Y0158266D01*
X0104099Y0159265D02*
X0163973Y0159265D01*
X0161453Y0165256D02*
X0172700Y0165256D01*
X0172700Y0166254D02*
X0161453Y0166254D01*
X0161140Y0167253D02*
X0172202Y0167253D01*
X0171203Y0168251D02*
X0161253Y0168251D01*
X0161253Y0169250D02*
X0170205Y0169250D01*
X0170760Y0171240D02*
X0174500Y0167500D01*
X0176300Y0164257D02*
X0195117Y0164257D01*
X0195047Y0163259D02*
X0176300Y0163259D01*
X0176300Y0162260D02*
X0195047Y0162260D01*
X0194760Y0153760D02*
X0199500Y0153760D01*
X0199760Y0153500D01*
X0204500Y0153500D01*
X0208500Y0157500D01*
X0210217Y0157500D01*
X0214863Y0157268D02*
X0220137Y0157268D01*
X0220137Y0158266D02*
X0214863Y0158266D01*
X0214863Y0159265D02*
X0220137Y0159265D01*
X0220137Y0160263D02*
X0214863Y0160263D01*
X0214863Y0161262D02*
X0220137Y0161262D01*
X0220137Y0162260D02*
X0214863Y0162260D01*
X0214367Y0163259D02*
X0220633Y0163259D01*
X0220137Y0156269D02*
X0214863Y0156269D01*
X0214863Y0155271D02*
X0220137Y0155271D01*
X0220137Y0154272D02*
X0214863Y0154272D01*
X0214863Y0153274D02*
X0220137Y0153274D01*
X0220137Y0152275D02*
X0214863Y0152275D01*
X0206994Y0148281D02*
X0191827Y0148281D01*
X0191800Y0147283D02*
X0206901Y0147283D01*
X0210217Y0145043D02*
X0210760Y0144500D01*
X0206901Y0142290D02*
X0201099Y0142290D01*
X0201099Y0141292D02*
X0206901Y0141292D01*
X0207420Y0140293D02*
X0201099Y0140293D01*
X0201099Y0139295D02*
X0208960Y0139295D01*
X0208960Y0138296D02*
X0201099Y0138296D01*
X0201099Y0137298D02*
X0208960Y0137298D01*
X0208960Y0136299D02*
X0201099Y0136299D01*
X0200891Y0135301D02*
X0208960Y0135301D01*
X0210143Y0128311D02*
X0039735Y0128311D01*
X0037639Y0125315D02*
X0023179Y0125315D01*
X0022932Y0125068D02*
X0023432Y0125568D01*
X0023849Y0126141D01*
X0024170Y0126773D01*
X0024389Y0127446D01*
X0024477Y0128000D01*
X0017500Y0128000D01*
X0017500Y0129000D01*
X0016500Y0129000D01*
X0016500Y0133000D01*
X0013646Y0133000D01*
X0012946Y0132889D01*
X0012273Y0132670D01*
X0011641Y0132349D01*
X0011068Y0131932D01*
X0010568Y0131432D01*
X0010151Y0130859D01*
X0009830Y0130227D01*
X0009611Y0129554D01*
X0009523Y0129000D01*
X0016500Y0129000D01*
X0016500Y0128000D01*
X0017500Y0128000D01*
X0017500Y0124000D01*
X0020354Y0124000D01*
X0021054Y0124111D01*
X0021727Y0124330D01*
X0022359Y0124651D01*
X0022932Y0125068D01*
X0023937Y0126314D02*
X0036640Y0126314D01*
X0035642Y0127312D02*
X0024346Y0127312D01*
X0024477Y0129000D02*
X0024389Y0129554D01*
X0024170Y0130227D01*
X0023849Y0130859D01*
X0023432Y0131432D01*
X0022932Y0131932D01*
X0022359Y0132349D01*
X0021727Y0132670D01*
X0021054Y0132889D01*
X0020354Y0133000D01*
X0017500Y0133000D01*
X0017500Y0129000D01*
X0024477Y0129000D01*
X0024428Y0129309D02*
X0033645Y0129309D01*
X0034643Y0128311D02*
X0017500Y0128311D01*
X0017500Y0129309D02*
X0016500Y0129309D01*
X0016500Y0128311D02*
X0003500Y0128311D01*
X0003500Y0129309D02*
X0009572Y0129309D01*
X0009871Y0130308D02*
X0003500Y0130308D01*
X0003500Y0131306D02*
X0010477Y0131306D01*
X0011581Y0132305D02*
X0003500Y0132305D01*
X0003500Y0133303D02*
X0029651Y0133303D01*
X0030649Y0132305D02*
X0022419Y0132305D01*
X0023523Y0131306D02*
X0031648Y0131306D01*
X0032646Y0130308D02*
X0024129Y0130308D01*
X0021102Y0134302D02*
X0028652Y0134302D01*
X0027654Y0135301D02*
X0022882Y0135301D01*
X0023743Y0136299D02*
X0026655Y0136299D01*
X0025657Y0137298D02*
X0024156Y0137298D01*
X0024300Y0138296D02*
X0024658Y0138296D01*
X0017500Y0132305D02*
X0016500Y0132305D01*
X0016500Y0131306D02*
X0017500Y0131306D01*
X0017500Y0130308D02*
X0016500Y0130308D01*
X0016500Y0128000D02*
X0009523Y0128000D01*
X0009611Y0127446D01*
X0009830Y0126773D01*
X0010151Y0126141D01*
X0010568Y0125568D01*
X0011068Y0125068D01*
X0011641Y0124651D01*
X0012273Y0124330D01*
X0012946Y0124111D01*
X0013646Y0124000D01*
X0016500Y0124000D01*
X0016500Y0128000D01*
X0016500Y0127312D02*
X0017500Y0127312D01*
X0017500Y0126314D02*
X0016500Y0126314D01*
X0016500Y0125315D02*
X0017500Y0125315D01*
X0017500Y0124317D02*
X0016500Y0124317D01*
X0012312Y0124317D02*
X0003500Y0124317D01*
X0003500Y0125315D02*
X0010821Y0125315D01*
X0010063Y0126314D02*
X0003500Y0126314D01*
X0003500Y0127312D02*
X0009654Y0127312D01*
X0012898Y0134302D02*
X0003500Y0134302D01*
X0003500Y0135301D02*
X0011118Y0135301D01*
X0010257Y0136299D02*
X0003500Y0136299D01*
X0003500Y0137298D02*
X0009844Y0137298D01*
X0009700Y0138296D02*
X0003500Y0138296D01*
X0003500Y0139295D02*
X0009700Y0139295D01*
X0010088Y0140293D02*
X0003500Y0140293D01*
X0003500Y0141292D02*
X0010710Y0141292D01*
X0011914Y0142290D02*
X0003500Y0142290D01*
X0022122Y0152275D02*
X0089437Y0152275D01*
X0092760Y0156500D02*
X0072500Y0156500D01*
X0067000Y0162000D01*
X0067000Y0166599D01*
X0081557Y0181156D01*
X0081557Y0181014D01*
X0081967Y0180604D01*
X0084376Y0178237D02*
X0097986Y0178237D01*
X0098440Y0177238D02*
X0082667Y0177238D01*
X0081268Y0177238D02*
X0080185Y0177238D01*
X0079186Y0176239D02*
X0098440Y0176239D01*
X0098440Y0175241D02*
X0078188Y0175241D01*
X0077189Y0174242D02*
X0098440Y0174242D01*
X0098440Y0173244D02*
X0076191Y0173244D01*
X0075192Y0172245D02*
X0098440Y0172245D01*
X0098440Y0171247D02*
X0074194Y0171247D01*
X0073195Y0170248D02*
X0098440Y0170248D01*
X0098440Y0169250D02*
X0072196Y0169250D01*
X0071198Y0168251D02*
X0098440Y0168251D01*
X0098440Y0167253D02*
X0070199Y0167253D01*
X0069201Y0166254D02*
X0098440Y0166254D01*
X0098440Y0165256D02*
X0068800Y0165256D01*
X0068800Y0164257D02*
X0098440Y0164257D01*
X0098440Y0163259D02*
X0068800Y0163259D01*
X0069285Y0162260D02*
X0098440Y0162260D01*
X0098440Y0161262D02*
X0070284Y0161262D01*
X0071282Y0160263D02*
X0088976Y0160263D01*
X0088901Y0159265D02*
X0072281Y0159265D01*
X0065200Y0165256D02*
X0022837Y0165256D01*
X0023724Y0166254D02*
X0065200Y0166254D01*
X0065200Y0167253D02*
X0024138Y0167253D01*
X0024300Y0168251D02*
X0066107Y0168251D01*
X0067105Y0169250D02*
X0024300Y0169250D01*
X0023930Y0170248D02*
X0068104Y0170248D01*
X0069102Y0171247D02*
X0023334Y0171247D01*
X0022194Y0172245D02*
X0070101Y0172245D01*
X0079815Y0183229D02*
X0003500Y0183229D01*
X0003500Y0182231D02*
X0011770Y0182231D01*
X0010651Y0181232D02*
X0003500Y0181232D01*
X0003500Y0180234D02*
X0010064Y0180234D01*
X0009700Y0179235D02*
X0003500Y0179235D01*
X0003500Y0178237D02*
X0009700Y0178237D01*
X0009868Y0177238D02*
X0003500Y0177238D01*
X0003500Y0176239D02*
X0010282Y0176239D01*
X0011178Y0175241D02*
X0003500Y0175241D01*
X0003500Y0184228D02*
X0013078Y0184228D01*
X0011193Y0185226D02*
X0003500Y0185226D01*
X0003500Y0186225D02*
X0010288Y0186225D01*
X0009875Y0187223D02*
X0003500Y0187223D01*
X0003500Y0188222D02*
X0009700Y0188222D01*
X0009700Y0189220D02*
X0003500Y0189220D01*
X0003500Y0190219D02*
X0010058Y0190219D01*
X0010636Y0191217D02*
X0003500Y0191217D01*
X0003500Y0192216D02*
X0011734Y0192216D01*
X0013114Y0194213D02*
X0003500Y0194213D01*
X0003500Y0195211D02*
X0011208Y0195211D01*
X0011564Y0194855D02*
X0013145Y0194200D01*
X0020855Y0194200D01*
X0022436Y0194855D01*
X0023645Y0196064D01*
X0024300Y0197645D01*
X0024300Y0199355D01*
X0023645Y0200936D01*
X0022436Y0202145D01*
X0020855Y0202800D01*
X0013145Y0202800D01*
X0011564Y0202145D01*
X0010355Y0200936D01*
X0009700Y0199355D01*
X0009700Y0197645D01*
X0010355Y0196064D01*
X0011564Y0194855D01*
X0010294Y0196210D02*
X0003500Y0196210D01*
X0003500Y0197208D02*
X0009881Y0197208D01*
X0009700Y0198207D02*
X0003500Y0198207D01*
X0003500Y0199205D02*
X0009700Y0199205D01*
X0010051Y0200204D02*
X0003500Y0200204D01*
X0003500Y0201202D02*
X0010621Y0201202D01*
X0011698Y0202201D02*
X0003500Y0202201D01*
X0003500Y0203199D02*
X0303201Y0203199D01*
X0303201Y0202201D02*
X0022302Y0202201D01*
X0023379Y0201202D02*
X0281702Y0201202D01*
X0281564Y0201145D02*
X0280355Y0199936D01*
X0279700Y0198355D01*
X0279700Y0196645D01*
X0280355Y0195064D01*
X0281564Y0193855D01*
X0283145Y0193200D01*
X0290855Y0193200D01*
X0292436Y0193855D01*
X0293645Y0195064D01*
X0294300Y0196645D01*
X0294300Y0198355D01*
X0293645Y0199936D01*
X0292436Y0201145D01*
X0290855Y0201800D01*
X0283145Y0201800D01*
X0281564Y0201145D01*
X0280623Y0200204D02*
X0023949Y0200204D01*
X0024300Y0199205D02*
X0280052Y0199205D01*
X0279700Y0198207D02*
X0024300Y0198207D01*
X0024119Y0197208D02*
X0279700Y0197208D01*
X0279880Y0196210D02*
X0023706Y0196210D01*
X0022792Y0195211D02*
X0280294Y0195211D01*
X0281206Y0194213D02*
X0020886Y0194213D01*
X0020855Y0204200D02*
X0013145Y0204200D01*
X0011564Y0204855D01*
X0010355Y0206064D01*
X0009700Y0207645D01*
X0009700Y0209355D01*
X0010355Y0210936D01*
X0011564Y0212145D01*
X0013145Y0212800D01*
X0020855Y0212800D01*
X0022436Y0212145D01*
X0023645Y0210936D01*
X0024300Y0209355D01*
X0024300Y0207645D01*
X0023645Y0206064D01*
X0022436Y0204855D01*
X0020855Y0204200D01*
X0022777Y0205196D02*
X0280300Y0205196D01*
X0280355Y0205064D02*
X0281564Y0203855D01*
X0283145Y0203200D01*
X0290855Y0203200D01*
X0292436Y0203855D01*
X0293645Y0205064D01*
X0294300Y0206645D01*
X0294300Y0208355D01*
X0293645Y0209936D01*
X0292436Y0211145D01*
X0290855Y0211800D01*
X0283145Y0211800D01*
X0281564Y0211145D01*
X0280355Y0209936D01*
X0279700Y0208355D01*
X0279700Y0206645D01*
X0280355Y0205064D01*
X0279886Y0206195D02*
X0023699Y0206195D01*
X0024113Y0207193D02*
X0279700Y0207193D01*
X0279700Y0208192D02*
X0024300Y0208192D01*
X0024300Y0209190D02*
X0280046Y0209190D01*
X0280608Y0210189D02*
X0023955Y0210189D01*
X0023394Y0211187D02*
X0281666Y0211187D01*
X0283145Y0213200D02*
X0281564Y0213855D01*
X0280355Y0215064D01*
X0279700Y0216645D01*
X0279700Y0218355D01*
X0280355Y0219936D01*
X0281564Y0221145D01*
X0283145Y0221800D01*
X0290855Y0221800D01*
X0292436Y0221145D01*
X0293645Y0219936D01*
X0294300Y0218355D01*
X0294300Y0216645D01*
X0293645Y0215064D01*
X0292436Y0213855D01*
X0290855Y0213200D01*
X0283145Y0213200D01*
X0281236Y0214183D02*
X0003500Y0214183D01*
X0003500Y0215181D02*
X0011237Y0215181D01*
X0011564Y0214855D02*
X0013145Y0214200D01*
X0020855Y0214200D01*
X0022436Y0214855D01*
X0023645Y0216064D01*
X0024300Y0217645D01*
X0024300Y0219355D01*
X0023645Y0220936D01*
X0022436Y0222145D01*
X0020855Y0222800D01*
X0013145Y0222800D01*
X0011564Y0222145D01*
X0010355Y0220936D01*
X0009700Y0219355D01*
X0009700Y0217645D01*
X0010355Y0216064D01*
X0011564Y0214855D01*
X0010307Y0216180D02*
X0003500Y0216180D01*
X0003500Y0217178D02*
X0009893Y0217178D01*
X0009700Y0218177D02*
X0003500Y0218177D01*
X0003500Y0219175D02*
X0009700Y0219175D01*
X0010039Y0220174D02*
X0003500Y0220174D01*
X0003500Y0221172D02*
X0010591Y0221172D01*
X0011626Y0222171D02*
X0003500Y0222171D01*
X0003500Y0223170D02*
X0303201Y0223170D01*
X0303201Y0224168D02*
X0292749Y0224168D01*
X0292436Y0223855D02*
X0293645Y0225064D01*
X0294300Y0226645D01*
X0294300Y0228355D01*
X0293645Y0229936D01*
X0292436Y0231145D01*
X0290855Y0231800D01*
X0283145Y0231800D01*
X0281564Y0231145D01*
X0280355Y0229936D01*
X0279700Y0228355D01*
X0279700Y0226645D01*
X0280355Y0225064D01*
X0281564Y0223855D01*
X0283145Y0223200D01*
X0290855Y0223200D01*
X0292436Y0223855D01*
X0293688Y0225167D02*
X0303201Y0225167D01*
X0303201Y0226165D02*
X0294101Y0226165D01*
X0294300Y0227164D02*
X0303201Y0227164D01*
X0303201Y0228162D02*
X0294300Y0228162D01*
X0293966Y0229161D02*
X0303201Y0229161D01*
X0303201Y0230159D02*
X0293422Y0230159D01*
X0292406Y0231158D02*
X0303201Y0231158D01*
X0303201Y0232156D02*
X0022410Y0232156D01*
X0022436Y0232145D02*
X0020855Y0232800D01*
X0013145Y0232800D01*
X0011564Y0232145D01*
X0010355Y0230936D01*
X0009700Y0229355D01*
X0009700Y0227645D01*
X0010355Y0226064D01*
X0011564Y0224855D01*
X0013145Y0224200D01*
X0020855Y0224200D01*
X0022436Y0224855D01*
X0023645Y0226064D01*
X0024300Y0227645D01*
X0024300Y0229355D01*
X0023645Y0230936D01*
X0022436Y0232145D01*
X0023423Y0231158D02*
X0281594Y0231158D01*
X0280578Y0230159D02*
X0023967Y0230159D01*
X0024300Y0229161D02*
X0280034Y0229161D01*
X0279700Y0228162D02*
X0024300Y0228162D01*
X0024101Y0227164D02*
X0279700Y0227164D01*
X0279899Y0226165D02*
X0023687Y0226165D01*
X0022748Y0225167D02*
X0280312Y0225167D01*
X0281251Y0224168D02*
X0003500Y0224168D01*
X0003500Y0225167D02*
X0011252Y0225167D01*
X0010313Y0226165D02*
X0003500Y0226165D01*
X0003500Y0227164D02*
X0009899Y0227164D01*
X0009700Y0228162D02*
X0003500Y0228162D01*
X0003500Y0229161D02*
X0009700Y0229161D01*
X0010033Y0230159D02*
X0003500Y0230159D01*
X0003500Y0231158D02*
X0010576Y0231158D01*
X0011590Y0232156D02*
X0003500Y0232156D01*
X0003500Y0233155D02*
X0303201Y0233155D01*
X0303201Y0234153D02*
X0292734Y0234153D01*
X0292436Y0233855D02*
X0293645Y0235064D01*
X0294300Y0236645D01*
X0294300Y0238355D01*
X0293645Y0239936D01*
X0292436Y0241145D01*
X0290855Y0241800D01*
X0283145Y0241800D01*
X0281564Y0241145D01*
X0280355Y0239936D01*
X0279700Y0238355D01*
X0279700Y0236645D01*
X0280355Y0235064D01*
X0281564Y0233855D01*
X0283145Y0233200D01*
X0290855Y0233200D01*
X0292436Y0233855D01*
X0293682Y0235152D02*
X0303201Y0235152D01*
X0303201Y0236150D02*
X0294095Y0236150D01*
X0294300Y0237149D02*
X0303201Y0237149D01*
X0303201Y0238147D02*
X0294300Y0238147D01*
X0293973Y0239146D02*
X0303201Y0239146D01*
X0303201Y0240144D02*
X0293437Y0240144D01*
X0292438Y0241143D02*
X0303201Y0241143D01*
X0303201Y0242141D02*
X0022440Y0242141D01*
X0022436Y0242145D02*
X0020855Y0242800D01*
X0013145Y0242800D01*
X0011564Y0242145D01*
X0010355Y0240936D01*
X0009700Y0239355D01*
X0009700Y0237645D01*
X0010355Y0236064D01*
X0011564Y0234855D01*
X0013145Y0234200D01*
X0020855Y0234200D01*
X0022436Y0234855D01*
X0023645Y0236064D01*
X0024300Y0237645D01*
X0024300Y0239355D01*
X0023645Y0240936D01*
X0022436Y0242145D01*
X0023438Y0241143D02*
X0281562Y0241143D01*
X0280563Y0240144D02*
X0023973Y0240144D01*
X0024300Y0239146D02*
X0280027Y0239146D01*
X0279700Y0238147D02*
X0024300Y0238147D01*
X0024095Y0237149D02*
X0279700Y0237149D01*
X0279905Y0236150D02*
X0023681Y0236150D01*
X0022733Y0235152D02*
X0280318Y0235152D01*
X0281266Y0234153D02*
X0003500Y0234153D01*
X0003500Y0235152D02*
X0011267Y0235152D01*
X0010319Y0236150D02*
X0003500Y0236150D01*
X0003500Y0237149D02*
X0009905Y0237149D01*
X0009700Y0238147D02*
X0003500Y0238147D01*
X0003500Y0239146D02*
X0009700Y0239146D01*
X0010027Y0240144D02*
X0003500Y0240144D01*
X0003500Y0241143D02*
X0010562Y0241143D01*
X0011560Y0242141D02*
X0003500Y0242141D01*
X0003500Y0243140D02*
X0303201Y0243140D01*
X0303201Y0244138D02*
X0292719Y0244138D01*
X0292436Y0243855D02*
X0293645Y0245064D01*
X0294300Y0246645D01*
X0294300Y0248355D01*
X0293645Y0249936D01*
X0292436Y0251145D01*
X0290855Y0251800D01*
X0283145Y0251800D01*
X0281564Y0251145D01*
X0280355Y0249936D01*
X0279700Y0248355D01*
X0279700Y0246645D01*
X0280355Y0245064D01*
X0281564Y0243855D01*
X0283145Y0243200D01*
X0290855Y0243200D01*
X0292436Y0243855D01*
X0293675Y0245137D02*
X0303201Y0245137D01*
X0303201Y0246135D02*
X0294089Y0246135D01*
X0294300Y0247134D02*
X0303201Y0247134D01*
X0303201Y0248132D02*
X0294300Y0248132D01*
X0293979Y0249131D02*
X0303201Y0249131D01*
X0303201Y0250129D02*
X0293452Y0250129D01*
X0292453Y0251128D02*
X0303201Y0251128D01*
X0303201Y0252126D02*
X0022455Y0252126D01*
X0022436Y0252145D02*
X0020855Y0252800D01*
X0013145Y0252800D01*
X0011564Y0252145D01*
X0010355Y0250936D01*
X0009700Y0249355D01*
X0009700Y0247645D01*
X0010355Y0246064D01*
X0011564Y0244855D01*
X0013145Y0244200D01*
X0020855Y0244200D01*
X0022436Y0244855D01*
X0023645Y0246064D01*
X0024300Y0247645D01*
X0024300Y0249355D01*
X0023645Y0250936D01*
X0022436Y0252145D01*
X0023453Y0251128D02*
X0281547Y0251128D01*
X0280548Y0250129D02*
X0023979Y0250129D01*
X0024300Y0249131D02*
X0280021Y0249131D01*
X0279700Y0248132D02*
X0024300Y0248132D01*
X0024088Y0247134D02*
X0279700Y0247134D01*
X0279911Y0246135D02*
X0023675Y0246135D01*
X0022718Y0245137D02*
X0280325Y0245137D01*
X0281281Y0244138D02*
X0003500Y0244138D01*
X0003500Y0245137D02*
X0011282Y0245137D01*
X0010325Y0246135D02*
X0003500Y0246135D01*
X0003500Y0247134D02*
X0009912Y0247134D01*
X0009700Y0248132D02*
X0003500Y0248132D01*
X0003500Y0249131D02*
X0009700Y0249131D01*
X0010021Y0250129D02*
X0003500Y0250129D01*
X0003500Y0251128D02*
X0010547Y0251128D01*
X0011545Y0252126D02*
X0003500Y0252126D01*
X0003500Y0253125D02*
X0303201Y0253125D01*
X0303201Y0254123D02*
X0292704Y0254123D01*
X0292436Y0253855D02*
X0293645Y0255064D01*
X0294300Y0256645D01*
X0294300Y0258355D01*
X0293645Y0259936D01*
X0292436Y0261145D01*
X0290855Y0261800D01*
X0283145Y0261800D01*
X0281564Y0261145D01*
X0280355Y0259936D01*
X0279700Y0258355D01*
X0279700Y0256645D01*
X0280355Y0255064D01*
X0281564Y0253855D01*
X0283145Y0253200D01*
X0290855Y0253200D01*
X0292436Y0253855D01*
X0293669Y0255122D02*
X0303201Y0255122D01*
X0303201Y0256120D02*
X0294083Y0256120D01*
X0294300Y0257119D02*
X0303201Y0257119D01*
X0303201Y0258117D02*
X0294300Y0258117D01*
X0293985Y0259116D02*
X0303201Y0259116D01*
X0303201Y0260114D02*
X0293467Y0260114D01*
X0292468Y0261113D02*
X0303201Y0261113D01*
X0303201Y0262111D02*
X0022470Y0262111D01*
X0022436Y0262145D02*
X0020855Y0262800D01*
X0013145Y0262800D01*
X0011564Y0262145D01*
X0010355Y0260936D01*
X0009700Y0259355D01*
X0009700Y0257645D01*
X0010355Y0256064D01*
X0011564Y0254855D01*
X0013145Y0254200D01*
X0020855Y0254200D01*
X0022436Y0254855D01*
X0023645Y0256064D01*
X0024300Y0257645D01*
X0024300Y0259355D01*
X0023645Y0260936D01*
X0022436Y0262145D01*
X0023468Y0261113D02*
X0281532Y0261113D01*
X0280533Y0260114D02*
X0023986Y0260114D01*
X0024300Y0259116D02*
X0280015Y0259116D01*
X0279700Y0258117D02*
X0024300Y0258117D01*
X0024082Y0257119D02*
X0279700Y0257119D01*
X0279917Y0256120D02*
X0023669Y0256120D01*
X0022703Y0255122D02*
X0280331Y0255122D01*
X0281296Y0254123D02*
X0003500Y0254123D01*
X0003500Y0255122D02*
X0011297Y0255122D01*
X0010331Y0256120D02*
X0003500Y0256120D01*
X0003500Y0257119D02*
X0009918Y0257119D01*
X0009700Y0258117D02*
X0003500Y0258117D01*
X0003500Y0259116D02*
X0009700Y0259116D01*
X0010014Y0260114D02*
X0003500Y0260114D01*
X0003500Y0261113D02*
X0010532Y0261113D01*
X0011530Y0262111D02*
X0003500Y0262111D01*
X0003500Y0263110D02*
X0282952Y0263110D01*
X0282946Y0263111D02*
X0283646Y0263000D01*
X0286500Y0263000D01*
X0286500Y0267000D01*
X0287500Y0267000D01*
X0287500Y0268000D01*
X0286500Y0268000D01*
X0286500Y0272000D01*
X0283646Y0272000D01*
X0282946Y0271889D01*
X0282273Y0271670D01*
X0281641Y0271349D01*
X0281068Y0270932D01*
X0280568Y0270432D01*
X0280151Y0269859D01*
X0279830Y0269227D01*
X0279611Y0268554D01*
X0279523Y0268000D01*
X0286500Y0268000D01*
X0286500Y0267000D01*
X0279523Y0267000D01*
X0279611Y0266446D01*
X0279830Y0265773D01*
X0280151Y0265141D01*
X0280568Y0264568D01*
X0281068Y0264068D01*
X0281641Y0263651D01*
X0282273Y0263330D01*
X0282946Y0263111D01*
X0281028Y0264108D02*
X0003500Y0264108D01*
X0003500Y0265107D02*
X0011312Y0265107D01*
X0011564Y0264855D02*
X0013145Y0264200D01*
X0020855Y0264200D01*
X0022436Y0264855D01*
X0023645Y0266064D01*
X0024300Y0267645D01*
X0024300Y0269355D01*
X0023645Y0270936D01*
X0022436Y0272145D01*
X0020855Y0272800D01*
X0013145Y0272800D01*
X0011564Y0272145D01*
X0010355Y0270936D01*
X0009700Y0269355D01*
X0009700Y0267645D01*
X0010355Y0266064D01*
X0011564Y0264855D01*
X0010338Y0266105D02*
X0003500Y0266105D01*
X0003500Y0267104D02*
X0009924Y0267104D01*
X0009700Y0268103D02*
X0003500Y0268103D01*
X0003500Y0269101D02*
X0009700Y0269101D01*
X0010008Y0270100D02*
X0003500Y0270100D01*
X0003500Y0271098D02*
X0010517Y0271098D01*
X0011515Y0272097D02*
X0003500Y0272097D01*
X0003500Y0273095D02*
X0028324Y0273095D01*
X0028564Y0272855D02*
X0030145Y0272200D01*
X0031855Y0272200D01*
X0033436Y0272855D01*
X0034645Y0274064D01*
X0035300Y0275645D01*
X0035300Y0283355D01*
X0034645Y0284936D01*
X0033436Y0286145D01*
X0031855Y0286800D01*
X0030145Y0286800D01*
X0028564Y0286145D01*
X0027355Y0284936D01*
X0026700Y0283355D01*
X0026700Y0275645D01*
X0027355Y0274064D01*
X0028564Y0272855D01*
X0027342Y0274094D02*
X0003500Y0274094D01*
X0003500Y0275092D02*
X0026929Y0275092D01*
X0026700Y0276091D02*
X0003500Y0276091D01*
X0003500Y0277089D02*
X0026700Y0277089D01*
X0026700Y0278088D02*
X0003500Y0278088D01*
X0003500Y0279086D02*
X0026700Y0279086D01*
X0026700Y0280085D02*
X0003500Y0280085D01*
X0003500Y0281083D02*
X0026700Y0281083D01*
X0026700Y0282082D02*
X0003500Y0282082D01*
X0003500Y0283080D02*
X0026700Y0283080D01*
X0027000Y0284079D02*
X0003500Y0284079D01*
X0003500Y0285077D02*
X0027496Y0285077D01*
X0028495Y0286076D02*
X0003500Y0286076D01*
X0003500Y0287074D02*
X0303201Y0287074D01*
X0303201Y0286076D02*
X0273505Y0286076D01*
X0273436Y0286145D02*
X0274645Y0284936D01*
X0275300Y0283355D01*
X0275300Y0275645D01*
X0274645Y0274064D01*
X0273436Y0272855D01*
X0271855Y0272200D01*
X0270145Y0272200D01*
X0268564Y0272855D01*
X0267355Y0274064D01*
X0266700Y0275645D01*
X0266700Y0283355D01*
X0267355Y0284936D01*
X0268564Y0286145D01*
X0270145Y0286800D01*
X0271855Y0286800D01*
X0273436Y0286145D01*
X0274504Y0285077D02*
X0303201Y0285077D01*
X0303201Y0284079D02*
X0275000Y0284079D01*
X0275300Y0283080D02*
X0303201Y0283080D01*
X0303201Y0282082D02*
X0275300Y0282082D01*
X0275300Y0281083D02*
X0303201Y0281083D01*
X0303201Y0280085D02*
X0275300Y0280085D01*
X0275300Y0279086D02*
X0303201Y0279086D01*
X0303201Y0278088D02*
X0275300Y0278088D01*
X0275300Y0277089D02*
X0303201Y0277089D01*
X0303201Y0276091D02*
X0275300Y0276091D01*
X0275071Y0275092D02*
X0303201Y0275092D01*
X0303201Y0274094D02*
X0274658Y0274094D01*
X0273676Y0273095D02*
X0303201Y0273095D01*
X0303201Y0272097D02*
X0022485Y0272097D01*
X0023483Y0271098D02*
X0281296Y0271098D01*
X0280326Y0270100D02*
X0023992Y0270100D01*
X0024300Y0269101D02*
X0279789Y0269101D01*
X0279539Y0268103D02*
X0024300Y0268103D01*
X0024076Y0267104D02*
X0286500Y0267104D01*
X0286500Y0266105D02*
X0287500Y0266105D01*
X0287500Y0267000D02*
X0287500Y0263000D01*
X0290354Y0263000D01*
X0291054Y0263111D01*
X0291727Y0263330D01*
X0292359Y0263651D01*
X0292932Y0264068D01*
X0293432Y0264568D01*
X0293849Y0265141D01*
X0294170Y0265773D01*
X0294389Y0266446D01*
X0294477Y0267000D01*
X0287500Y0267000D01*
X0287500Y0267104D02*
X0303201Y0267104D01*
X0303201Y0266105D02*
X0294278Y0266105D01*
X0293824Y0265107D02*
X0303201Y0265107D01*
X0303201Y0264108D02*
X0292972Y0264108D01*
X0291048Y0263110D02*
X0303201Y0263110D01*
X0303201Y0268103D02*
X0294461Y0268103D01*
X0294477Y0268000D02*
X0294389Y0268554D01*
X0294170Y0269227D01*
X0293849Y0269859D01*
X0293432Y0270432D01*
X0292932Y0270932D01*
X0292359Y0271349D01*
X0291727Y0271670D01*
X0291054Y0271889D01*
X0290354Y0272000D01*
X0287500Y0272000D01*
X0287500Y0268000D01*
X0294477Y0268000D01*
X0294211Y0269101D02*
X0303201Y0269101D01*
X0303201Y0270100D02*
X0293674Y0270100D01*
X0292704Y0271098D02*
X0303201Y0271098D01*
X0287500Y0271098D02*
X0286500Y0271098D01*
X0286500Y0270100D02*
X0287500Y0270100D01*
X0287500Y0269101D02*
X0286500Y0269101D01*
X0286500Y0268103D02*
X0287500Y0268103D01*
X0287500Y0265107D02*
X0286500Y0265107D01*
X0286500Y0264108D02*
X0287500Y0264108D01*
X0287500Y0263110D02*
X0286500Y0263110D01*
X0280176Y0265107D02*
X0022688Y0265107D01*
X0023662Y0266105D02*
X0279722Y0266105D01*
X0268324Y0273095D02*
X0263676Y0273095D01*
X0263436Y0272855D02*
X0264645Y0274064D01*
X0265300Y0275645D01*
X0265300Y0283355D01*
X0264645Y0284936D01*
X0263436Y0286145D01*
X0261855Y0286800D01*
X0260145Y0286800D01*
X0258564Y0286145D01*
X0257355Y0284936D01*
X0256700Y0283355D01*
X0256700Y0275645D01*
X0257355Y0274064D01*
X0258564Y0272855D01*
X0260145Y0272200D01*
X0261855Y0272200D01*
X0263436Y0272855D01*
X0264658Y0274094D02*
X0267342Y0274094D01*
X0266929Y0275092D02*
X0265071Y0275092D01*
X0265300Y0276091D02*
X0266700Y0276091D01*
X0266700Y0277089D02*
X0265300Y0277089D01*
X0265300Y0278088D02*
X0266700Y0278088D01*
X0266700Y0279086D02*
X0265300Y0279086D01*
X0265300Y0280085D02*
X0266700Y0280085D01*
X0266700Y0281083D02*
X0265300Y0281083D01*
X0265300Y0282082D02*
X0266700Y0282082D01*
X0266700Y0283080D02*
X0265300Y0283080D01*
X0265000Y0284079D02*
X0267000Y0284079D01*
X0267496Y0285077D02*
X0264504Y0285077D01*
X0263505Y0286076D02*
X0268495Y0286076D01*
X0258495Y0286076D02*
X0253505Y0286076D01*
X0253436Y0286145D02*
X0254645Y0284936D01*
X0255300Y0283355D01*
X0255300Y0275645D01*
X0254645Y0274064D01*
X0253436Y0272855D01*
X0251855Y0272200D01*
X0250145Y0272200D01*
X0248564Y0272855D01*
X0247355Y0274064D01*
X0246700Y0275645D01*
X0246700Y0283355D01*
X0247355Y0284936D01*
X0248564Y0286145D01*
X0250145Y0286800D01*
X0251855Y0286800D01*
X0253436Y0286145D01*
X0254504Y0285077D02*
X0257496Y0285077D01*
X0257000Y0284079D02*
X0255000Y0284079D01*
X0255300Y0283080D02*
X0256700Y0283080D01*
X0256700Y0282082D02*
X0255300Y0282082D01*
X0255300Y0281083D02*
X0256700Y0281083D01*
X0256700Y0280085D02*
X0255300Y0280085D01*
X0255300Y0279086D02*
X0256700Y0279086D01*
X0256700Y0278088D02*
X0255300Y0278088D01*
X0255300Y0277089D02*
X0256700Y0277089D01*
X0256700Y0276091D02*
X0255300Y0276091D01*
X0255071Y0275092D02*
X0256929Y0275092D01*
X0257342Y0274094D02*
X0254658Y0274094D01*
X0253676Y0273095D02*
X0258324Y0273095D01*
X0248324Y0273095D02*
X0243676Y0273095D01*
X0243436Y0272855D02*
X0244645Y0274064D01*
X0245300Y0275645D01*
X0245300Y0283355D01*
X0244645Y0284936D01*
X0243436Y0286145D01*
X0241855Y0286800D01*
X0240145Y0286800D01*
X0238564Y0286145D01*
X0237355Y0284936D01*
X0236700Y0283355D01*
X0236700Y0275645D01*
X0237355Y0274064D01*
X0238564Y0272855D01*
X0240145Y0272200D01*
X0241855Y0272200D01*
X0243436Y0272855D01*
X0244658Y0274094D02*
X0247342Y0274094D01*
X0246929Y0275092D02*
X0245071Y0275092D01*
X0245300Y0276091D02*
X0246700Y0276091D01*
X0246700Y0277089D02*
X0245300Y0277089D01*
X0245300Y0278088D02*
X0246700Y0278088D01*
X0246700Y0279086D02*
X0245300Y0279086D01*
X0245300Y0280085D02*
X0246700Y0280085D01*
X0246700Y0281083D02*
X0245300Y0281083D01*
X0245300Y0282082D02*
X0246700Y0282082D01*
X0246700Y0283080D02*
X0245300Y0283080D01*
X0245000Y0284079D02*
X0247000Y0284079D01*
X0247496Y0285077D02*
X0244504Y0285077D01*
X0243505Y0286076D02*
X0248495Y0286076D01*
X0238495Y0286076D02*
X0233505Y0286076D01*
X0233436Y0286145D02*
X0234645Y0284936D01*
X0235300Y0283355D01*
X0235300Y0275645D01*
X0234645Y0274064D01*
X0233436Y0272855D01*
X0231855Y0272200D01*
X0230145Y0272200D01*
X0228564Y0272855D01*
X0227355Y0274064D01*
X0226700Y0275645D01*
X0226700Y0283355D01*
X0227355Y0284936D01*
X0228564Y0286145D01*
X0230145Y0286800D01*
X0231855Y0286800D01*
X0233436Y0286145D01*
X0234504Y0285077D02*
X0237496Y0285077D01*
X0237000Y0284079D02*
X0235000Y0284079D01*
X0235300Y0283080D02*
X0236700Y0283080D01*
X0236700Y0282082D02*
X0235300Y0282082D01*
X0235300Y0281083D02*
X0236700Y0281083D01*
X0236700Y0280085D02*
X0235300Y0280085D01*
X0235300Y0279086D02*
X0236700Y0279086D01*
X0236700Y0278088D02*
X0235300Y0278088D01*
X0235300Y0277089D02*
X0236700Y0277089D01*
X0236700Y0276091D02*
X0235300Y0276091D01*
X0235071Y0275092D02*
X0236929Y0275092D01*
X0237342Y0274094D02*
X0234658Y0274094D01*
X0233676Y0273095D02*
X0238324Y0273095D01*
X0228324Y0273095D02*
X0223676Y0273095D01*
X0223436Y0272855D02*
X0224645Y0274064D01*
X0225300Y0275645D01*
X0225300Y0283355D01*
X0224645Y0284936D01*
X0223436Y0286145D01*
X0221855Y0286800D01*
X0220145Y0286800D01*
X0218564Y0286145D01*
X0217355Y0284936D01*
X0216700Y0283355D01*
X0216700Y0275645D01*
X0217355Y0274064D01*
X0218564Y0272855D01*
X0220145Y0272200D01*
X0221855Y0272200D01*
X0223436Y0272855D01*
X0224658Y0274094D02*
X0227342Y0274094D01*
X0226929Y0275092D02*
X0225071Y0275092D01*
X0225300Y0276091D02*
X0226700Y0276091D01*
X0226700Y0277089D02*
X0225300Y0277089D01*
X0225300Y0278088D02*
X0226700Y0278088D01*
X0226700Y0279086D02*
X0225300Y0279086D01*
X0225300Y0280085D02*
X0226700Y0280085D01*
X0226700Y0281083D02*
X0225300Y0281083D01*
X0225300Y0282082D02*
X0226700Y0282082D01*
X0226700Y0283080D02*
X0225300Y0283080D01*
X0225000Y0284079D02*
X0227000Y0284079D01*
X0227496Y0285077D02*
X0224504Y0285077D01*
X0223505Y0286076D02*
X0228495Y0286076D01*
X0218495Y0286076D02*
X0213505Y0286076D01*
X0213436Y0286145D02*
X0214645Y0284936D01*
X0215300Y0283355D01*
X0215300Y0275645D01*
X0214645Y0274064D01*
X0213436Y0272855D01*
X0211855Y0272200D01*
X0210145Y0272200D01*
X0208564Y0272855D01*
X0207355Y0274064D01*
X0206700Y0275645D01*
X0206700Y0283355D01*
X0207355Y0284936D01*
X0208564Y0286145D01*
X0210145Y0286800D01*
X0211855Y0286800D01*
X0213436Y0286145D01*
X0214504Y0285077D02*
X0217496Y0285077D01*
X0217000Y0284079D02*
X0215000Y0284079D01*
X0215300Y0283080D02*
X0216700Y0283080D01*
X0216700Y0282082D02*
X0215300Y0282082D01*
X0215300Y0281083D02*
X0216700Y0281083D01*
X0216700Y0280085D02*
X0215300Y0280085D01*
X0215300Y0279086D02*
X0216700Y0279086D01*
X0216700Y0278088D02*
X0215300Y0278088D01*
X0215300Y0277089D02*
X0216700Y0277089D01*
X0216700Y0276091D02*
X0215300Y0276091D01*
X0215071Y0275092D02*
X0216929Y0275092D01*
X0217342Y0274094D02*
X0214658Y0274094D01*
X0213676Y0273095D02*
X0218324Y0273095D01*
X0208324Y0273095D02*
X0203676Y0273095D01*
X0203436Y0272855D02*
X0204645Y0274064D01*
X0205300Y0275645D01*
X0205300Y0283355D01*
X0204645Y0284936D01*
X0203436Y0286145D01*
X0201855Y0286800D01*
X0200145Y0286800D01*
X0198564Y0286145D01*
X0197355Y0284936D01*
X0196700Y0283355D01*
X0196700Y0275645D01*
X0197355Y0274064D01*
X0198564Y0272855D01*
X0200145Y0272200D01*
X0201855Y0272200D01*
X0203436Y0272855D01*
X0204658Y0274094D02*
X0207342Y0274094D01*
X0206929Y0275092D02*
X0205071Y0275092D01*
X0205300Y0276091D02*
X0206700Y0276091D01*
X0206700Y0277089D02*
X0205300Y0277089D01*
X0205300Y0278088D02*
X0206700Y0278088D01*
X0206700Y0279086D02*
X0205300Y0279086D01*
X0205300Y0280085D02*
X0206700Y0280085D01*
X0206700Y0281083D02*
X0205300Y0281083D01*
X0205300Y0282082D02*
X0206700Y0282082D01*
X0206700Y0283080D02*
X0205300Y0283080D01*
X0205000Y0284079D02*
X0207000Y0284079D01*
X0207496Y0285077D02*
X0204504Y0285077D01*
X0203505Y0286076D02*
X0208495Y0286076D01*
X0198495Y0286076D02*
X0193505Y0286076D01*
X0193436Y0286145D02*
X0194645Y0284936D01*
X0195300Y0283355D01*
X0195300Y0275645D01*
X0194645Y0274064D01*
X0193436Y0272855D01*
X0191855Y0272200D01*
X0190145Y0272200D01*
X0188564Y0272855D01*
X0187355Y0274064D01*
X0186700Y0275645D01*
X0186700Y0283355D01*
X0187355Y0284936D01*
X0188564Y0286145D01*
X0190145Y0286800D01*
X0191855Y0286800D01*
X0193436Y0286145D01*
X0194504Y0285077D02*
X0197496Y0285077D01*
X0197000Y0284079D02*
X0195000Y0284079D01*
X0195300Y0283080D02*
X0196700Y0283080D01*
X0196700Y0282082D02*
X0195300Y0282082D01*
X0195300Y0281083D02*
X0196700Y0281083D01*
X0196700Y0280085D02*
X0195300Y0280085D01*
X0195300Y0279086D02*
X0196700Y0279086D01*
X0196700Y0278088D02*
X0195300Y0278088D01*
X0195300Y0277089D02*
X0196700Y0277089D01*
X0196700Y0276091D02*
X0195300Y0276091D01*
X0195071Y0275092D02*
X0196929Y0275092D01*
X0197342Y0274094D02*
X0194658Y0274094D01*
X0193676Y0273095D02*
X0198324Y0273095D01*
X0188324Y0273095D02*
X0183676Y0273095D01*
X0183436Y0272855D02*
X0184645Y0274064D01*
X0185300Y0275645D01*
X0185300Y0283355D01*
X0184645Y0284936D01*
X0183436Y0286145D01*
X0181855Y0286800D01*
X0180145Y0286800D01*
X0178564Y0286145D01*
X0177355Y0284936D01*
X0176700Y0283355D01*
X0176700Y0275645D01*
X0177355Y0274064D01*
X0178564Y0272855D01*
X0180145Y0272200D01*
X0181855Y0272200D01*
X0183436Y0272855D01*
X0184658Y0274094D02*
X0187342Y0274094D01*
X0186929Y0275092D02*
X0185071Y0275092D01*
X0185300Y0276091D02*
X0186700Y0276091D01*
X0186700Y0277089D02*
X0185300Y0277089D01*
X0185300Y0278088D02*
X0186700Y0278088D01*
X0186700Y0279086D02*
X0185300Y0279086D01*
X0185300Y0280085D02*
X0186700Y0280085D01*
X0186700Y0281083D02*
X0185300Y0281083D01*
X0185300Y0282082D02*
X0186700Y0282082D01*
X0186700Y0283080D02*
X0185300Y0283080D01*
X0185000Y0284079D02*
X0187000Y0284079D01*
X0187496Y0285077D02*
X0184504Y0285077D01*
X0183505Y0286076D02*
X0188495Y0286076D01*
X0178495Y0286076D02*
X0173505Y0286076D01*
X0173436Y0286145D02*
X0174645Y0284936D01*
X0175300Y0283355D01*
X0175300Y0275645D01*
X0174645Y0274064D01*
X0173436Y0272855D01*
X0171855Y0272200D01*
X0170145Y0272200D01*
X0168564Y0272855D01*
X0167355Y0274064D01*
X0166700Y0275645D01*
X0166700Y0283355D01*
X0167355Y0284936D01*
X0168564Y0286145D01*
X0170145Y0286800D01*
X0171855Y0286800D01*
X0173436Y0286145D01*
X0174504Y0285077D02*
X0177496Y0285077D01*
X0177000Y0284079D02*
X0175000Y0284079D01*
X0175300Y0283080D02*
X0176700Y0283080D01*
X0176700Y0282082D02*
X0175300Y0282082D01*
X0175300Y0281083D02*
X0176700Y0281083D01*
X0176700Y0280085D02*
X0175300Y0280085D01*
X0175300Y0279086D02*
X0176700Y0279086D01*
X0176700Y0278088D02*
X0175300Y0278088D01*
X0175300Y0277089D02*
X0176700Y0277089D01*
X0176700Y0276091D02*
X0175300Y0276091D01*
X0175071Y0275092D02*
X0176929Y0275092D01*
X0177342Y0274094D02*
X0174658Y0274094D01*
X0173676Y0273095D02*
X0178324Y0273095D01*
X0168324Y0273095D02*
X0163676Y0273095D01*
X0163436Y0272855D02*
X0164645Y0274064D01*
X0165300Y0275645D01*
X0165300Y0283355D01*
X0164645Y0284936D01*
X0163436Y0286145D01*
X0161855Y0286800D01*
X0160145Y0286800D01*
X0158564Y0286145D01*
X0157355Y0284936D01*
X0156700Y0283355D01*
X0156700Y0275645D01*
X0157355Y0274064D01*
X0158564Y0272855D01*
X0160145Y0272200D01*
X0161855Y0272200D01*
X0163436Y0272855D01*
X0164658Y0274094D02*
X0167342Y0274094D01*
X0166929Y0275092D02*
X0165071Y0275092D01*
X0165300Y0276091D02*
X0166700Y0276091D01*
X0166700Y0277089D02*
X0165300Y0277089D01*
X0165300Y0278088D02*
X0166700Y0278088D01*
X0166700Y0279086D02*
X0165300Y0279086D01*
X0165300Y0280085D02*
X0166700Y0280085D01*
X0166700Y0281083D02*
X0165300Y0281083D01*
X0165300Y0282082D02*
X0166700Y0282082D01*
X0166700Y0283080D02*
X0165300Y0283080D01*
X0165000Y0284079D02*
X0167000Y0284079D01*
X0167496Y0285077D02*
X0164504Y0285077D01*
X0163505Y0286076D02*
X0168495Y0286076D01*
X0158495Y0286076D02*
X0153505Y0286076D01*
X0153436Y0286145D02*
X0154645Y0284936D01*
X0155300Y0283355D01*
X0155300Y0275645D01*
X0154645Y0274064D01*
X0153436Y0272855D01*
X0151855Y0272200D01*
X0150145Y0272200D01*
X0148564Y0272855D01*
X0147355Y0274064D01*
X0146700Y0275645D01*
X0146700Y0283355D01*
X0147355Y0284936D01*
X0148564Y0286145D01*
X0150145Y0286800D01*
X0151855Y0286800D01*
X0153436Y0286145D01*
X0154504Y0285077D02*
X0157496Y0285077D01*
X0157000Y0284079D02*
X0155000Y0284079D01*
X0155300Y0283080D02*
X0156700Y0283080D01*
X0156700Y0282082D02*
X0155300Y0282082D01*
X0155300Y0281083D02*
X0156700Y0281083D01*
X0156700Y0280085D02*
X0155300Y0280085D01*
X0155300Y0279086D02*
X0156700Y0279086D01*
X0156700Y0278088D02*
X0155300Y0278088D01*
X0155300Y0277089D02*
X0156700Y0277089D01*
X0156700Y0276091D02*
X0155300Y0276091D01*
X0155071Y0275092D02*
X0156929Y0275092D01*
X0157342Y0274094D02*
X0154658Y0274094D01*
X0153676Y0273095D02*
X0158324Y0273095D01*
X0148324Y0273095D02*
X0143676Y0273095D01*
X0143436Y0272855D02*
X0144645Y0274064D01*
X0145300Y0275645D01*
X0145300Y0283355D01*
X0144645Y0284936D01*
X0143436Y0286145D01*
X0141855Y0286800D01*
X0140145Y0286800D01*
X0138564Y0286145D01*
X0137355Y0284936D01*
X0136700Y0283355D01*
X0136700Y0275645D01*
X0137355Y0274064D01*
X0138564Y0272855D01*
X0140145Y0272200D01*
X0141855Y0272200D01*
X0143436Y0272855D01*
X0144658Y0274094D02*
X0147342Y0274094D01*
X0146929Y0275092D02*
X0145071Y0275092D01*
X0145300Y0276091D02*
X0146700Y0276091D01*
X0146700Y0277089D02*
X0145300Y0277089D01*
X0145300Y0278088D02*
X0146700Y0278088D01*
X0146700Y0279086D02*
X0145300Y0279086D01*
X0145300Y0280085D02*
X0146700Y0280085D01*
X0146700Y0281083D02*
X0145300Y0281083D01*
X0145300Y0282082D02*
X0146700Y0282082D01*
X0146700Y0283080D02*
X0145300Y0283080D01*
X0145000Y0284079D02*
X0147000Y0284079D01*
X0147496Y0285077D02*
X0144504Y0285077D01*
X0143505Y0286076D02*
X0148495Y0286076D01*
X0138495Y0286076D02*
X0133505Y0286076D01*
X0133436Y0286145D02*
X0134645Y0284936D01*
X0135300Y0283355D01*
X0135300Y0275645D01*
X0134645Y0274064D01*
X0133436Y0272855D01*
X0131855Y0272200D01*
X0130145Y0272200D01*
X0128564Y0272855D01*
X0127355Y0274064D01*
X0126700Y0275645D01*
X0126700Y0283355D01*
X0127355Y0284936D01*
X0128564Y0286145D01*
X0130145Y0286800D01*
X0131855Y0286800D01*
X0133436Y0286145D01*
X0134504Y0285077D02*
X0137496Y0285077D01*
X0137000Y0284079D02*
X0135000Y0284079D01*
X0135300Y0283080D02*
X0136700Y0283080D01*
X0136700Y0282082D02*
X0135300Y0282082D01*
X0135300Y0281083D02*
X0136700Y0281083D01*
X0136700Y0280085D02*
X0135300Y0280085D01*
X0135300Y0279086D02*
X0136700Y0279086D01*
X0136700Y0278088D02*
X0135300Y0278088D01*
X0135300Y0277089D02*
X0136700Y0277089D01*
X0136700Y0276091D02*
X0135300Y0276091D01*
X0135071Y0275092D02*
X0136929Y0275092D01*
X0137342Y0274094D02*
X0134658Y0274094D01*
X0133676Y0273095D02*
X0138324Y0273095D01*
X0128324Y0273095D02*
X0123676Y0273095D01*
X0123436Y0272855D02*
X0124645Y0274064D01*
X0125300Y0275645D01*
X0125300Y0283355D01*
X0124645Y0284936D01*
X0123436Y0286145D01*
X0121855Y0286800D01*
X0120145Y0286800D01*
X0118564Y0286145D01*
X0117355Y0284936D01*
X0116700Y0283355D01*
X0116700Y0275645D01*
X0117355Y0274064D01*
X0118564Y0272855D01*
X0120145Y0272200D01*
X0121855Y0272200D01*
X0123436Y0272855D01*
X0124658Y0274094D02*
X0127342Y0274094D01*
X0126929Y0275092D02*
X0125071Y0275092D01*
X0125300Y0276091D02*
X0126700Y0276091D01*
X0126700Y0277089D02*
X0125300Y0277089D01*
X0125300Y0278088D02*
X0126700Y0278088D01*
X0126700Y0279086D02*
X0125300Y0279086D01*
X0125300Y0280085D02*
X0126700Y0280085D01*
X0126700Y0281083D02*
X0125300Y0281083D01*
X0125300Y0282082D02*
X0126700Y0282082D01*
X0126700Y0283080D02*
X0125300Y0283080D01*
X0125000Y0284079D02*
X0127000Y0284079D01*
X0127496Y0285077D02*
X0124504Y0285077D01*
X0123505Y0286076D02*
X0128495Y0286076D01*
X0118495Y0286076D02*
X0113505Y0286076D01*
X0113436Y0286145D02*
X0111855Y0286800D01*
X0110145Y0286800D01*
X0108564Y0286145D01*
X0107355Y0284936D01*
X0106700Y0283355D01*
X0106700Y0275645D01*
X0107355Y0274064D01*
X0108564Y0272855D01*
X0110145Y0272200D01*
X0111855Y0272200D01*
X0113436Y0272855D01*
X0114645Y0274064D01*
X0115300Y0275645D01*
X0115300Y0283355D01*
X0114645Y0284936D01*
X0113436Y0286145D01*
X0114504Y0285077D02*
X0117496Y0285077D01*
X0117000Y0284079D02*
X0115000Y0284079D01*
X0115300Y0283080D02*
X0116700Y0283080D01*
X0116700Y0282082D02*
X0115300Y0282082D01*
X0115300Y0281083D02*
X0116700Y0281083D01*
X0116700Y0280085D02*
X0115300Y0280085D01*
X0115300Y0279086D02*
X0116700Y0279086D01*
X0116700Y0278088D02*
X0115300Y0278088D01*
X0115300Y0277089D02*
X0116700Y0277089D01*
X0116700Y0276091D02*
X0115300Y0276091D01*
X0115071Y0275092D02*
X0116929Y0275092D01*
X0117342Y0274094D02*
X0114658Y0274094D01*
X0113676Y0273095D02*
X0118324Y0273095D01*
X0108324Y0273095D02*
X0103676Y0273095D01*
X0103436Y0272855D02*
X0104645Y0274064D01*
X0105300Y0275645D01*
X0105300Y0283355D01*
X0104645Y0284936D01*
X0103436Y0286145D01*
X0101855Y0286800D01*
X0100145Y0286800D01*
X0098564Y0286145D01*
X0097355Y0284936D01*
X0096700Y0283355D01*
X0096700Y0275645D01*
X0097355Y0274064D01*
X0098564Y0272855D01*
X0100145Y0272200D01*
X0101855Y0272200D01*
X0103436Y0272855D01*
X0104658Y0274094D02*
X0107342Y0274094D01*
X0106929Y0275092D02*
X0105071Y0275092D01*
X0105300Y0276091D02*
X0106700Y0276091D01*
X0106700Y0277089D02*
X0105300Y0277089D01*
X0105300Y0278088D02*
X0106700Y0278088D01*
X0106700Y0279086D02*
X0105300Y0279086D01*
X0105300Y0280085D02*
X0106700Y0280085D01*
X0106700Y0281083D02*
X0105300Y0281083D01*
X0105300Y0282082D02*
X0106700Y0282082D01*
X0106700Y0283080D02*
X0105300Y0283080D01*
X0105000Y0284079D02*
X0107000Y0284079D01*
X0107496Y0285077D02*
X0104504Y0285077D01*
X0103505Y0286076D02*
X0108495Y0286076D01*
X0098495Y0286076D02*
X0093505Y0286076D01*
X0093436Y0286145D02*
X0094645Y0284936D01*
X0095300Y0283355D01*
X0095300Y0275645D01*
X0094645Y0274064D01*
X0093436Y0272855D01*
X0091855Y0272200D01*
X0090145Y0272200D01*
X0088564Y0272855D01*
X0087355Y0274064D01*
X0086700Y0275645D01*
X0086700Y0283355D01*
X0087355Y0284936D01*
X0088564Y0286145D01*
X0090145Y0286800D01*
X0091855Y0286800D01*
X0093436Y0286145D01*
X0094504Y0285077D02*
X0097496Y0285077D01*
X0097000Y0284079D02*
X0095000Y0284079D01*
X0095300Y0283080D02*
X0096700Y0283080D01*
X0096700Y0282082D02*
X0095300Y0282082D01*
X0095300Y0281083D02*
X0096700Y0281083D01*
X0096700Y0280085D02*
X0095300Y0280085D01*
X0095300Y0279086D02*
X0096700Y0279086D01*
X0096700Y0278088D02*
X0095300Y0278088D01*
X0095300Y0277089D02*
X0096700Y0277089D01*
X0096700Y0276091D02*
X0095300Y0276091D01*
X0095071Y0275092D02*
X0096929Y0275092D01*
X0097342Y0274094D02*
X0094658Y0274094D01*
X0093676Y0273095D02*
X0098324Y0273095D01*
X0088324Y0273095D02*
X0083676Y0273095D01*
X0083436Y0272855D02*
X0084645Y0274064D01*
X0085300Y0275645D01*
X0085300Y0283355D01*
X0084645Y0284936D01*
X0083436Y0286145D01*
X0081855Y0286800D01*
X0080145Y0286800D01*
X0078564Y0286145D01*
X0077355Y0284936D01*
X0076700Y0283355D01*
X0076700Y0275645D01*
X0077355Y0274064D01*
X0078564Y0272855D01*
X0080145Y0272200D01*
X0081855Y0272200D01*
X0083436Y0272855D01*
X0084658Y0274094D02*
X0087342Y0274094D01*
X0086929Y0275092D02*
X0085071Y0275092D01*
X0085300Y0276091D02*
X0086700Y0276091D01*
X0086700Y0277089D02*
X0085300Y0277089D01*
X0085300Y0278088D02*
X0086700Y0278088D01*
X0086700Y0279086D02*
X0085300Y0279086D01*
X0085300Y0280085D02*
X0086700Y0280085D01*
X0086700Y0281083D02*
X0085300Y0281083D01*
X0085300Y0282082D02*
X0086700Y0282082D01*
X0086700Y0283080D02*
X0085300Y0283080D01*
X0085000Y0284079D02*
X0087000Y0284079D01*
X0087496Y0285077D02*
X0084504Y0285077D01*
X0083505Y0286076D02*
X0088495Y0286076D01*
X0078495Y0286076D02*
X0073505Y0286076D01*
X0073436Y0286145D02*
X0071855Y0286800D01*
X0070145Y0286800D01*
X0068564Y0286145D01*
X0067355Y0284936D01*
X0066700Y0283355D01*
X0066700Y0275645D01*
X0067355Y0274064D01*
X0068564Y0272855D01*
X0070145Y0272200D01*
X0071855Y0272200D01*
X0073436Y0272855D01*
X0074645Y0274064D01*
X0075300Y0275645D01*
X0075300Y0283355D01*
X0074645Y0284936D01*
X0073436Y0286145D01*
X0074504Y0285077D02*
X0077496Y0285077D01*
X0077000Y0284079D02*
X0075000Y0284079D01*
X0075300Y0283080D02*
X0076700Y0283080D01*
X0076700Y0282082D02*
X0075300Y0282082D01*
X0075300Y0281083D02*
X0076700Y0281083D01*
X0076700Y0280085D02*
X0075300Y0280085D01*
X0075300Y0279086D02*
X0076700Y0279086D01*
X0076700Y0278088D02*
X0075300Y0278088D01*
X0075300Y0277089D02*
X0076700Y0277089D01*
X0076700Y0276091D02*
X0075300Y0276091D01*
X0075071Y0275092D02*
X0076929Y0275092D01*
X0077342Y0274094D02*
X0074658Y0274094D01*
X0073676Y0273095D02*
X0078324Y0273095D01*
X0068324Y0273095D02*
X0063676Y0273095D01*
X0063436Y0272855D02*
X0064645Y0274064D01*
X0065300Y0275645D01*
X0065300Y0283355D01*
X0064645Y0284936D01*
X0063436Y0286145D01*
X0061855Y0286800D01*
X0060145Y0286800D01*
X0058564Y0286145D01*
X0057355Y0284936D01*
X0056700Y0283355D01*
X0056700Y0275645D01*
X0057355Y0274064D01*
X0058564Y0272855D01*
X0060145Y0272200D01*
X0061855Y0272200D01*
X0063436Y0272855D01*
X0064658Y0274094D02*
X0067342Y0274094D01*
X0066929Y0275092D02*
X0065071Y0275092D01*
X0065300Y0276091D02*
X0066700Y0276091D01*
X0066700Y0277089D02*
X0065300Y0277089D01*
X0065300Y0278088D02*
X0066700Y0278088D01*
X0066700Y0279086D02*
X0065300Y0279086D01*
X0065300Y0280085D02*
X0066700Y0280085D01*
X0066700Y0281083D02*
X0065300Y0281083D01*
X0065300Y0282082D02*
X0066700Y0282082D01*
X0066700Y0283080D02*
X0065300Y0283080D01*
X0065000Y0284079D02*
X0067000Y0284079D01*
X0067496Y0285077D02*
X0064504Y0285077D01*
X0063505Y0286076D02*
X0068495Y0286076D01*
X0058495Y0286076D02*
X0053505Y0286076D01*
X0053436Y0286145D02*
X0054645Y0284936D01*
X0055300Y0283355D01*
X0055300Y0275645D01*
X0054645Y0274064D01*
X0053436Y0272855D01*
X0051855Y0272200D01*
X0050145Y0272200D01*
X0048564Y0272855D01*
X0047355Y0274064D01*
X0046700Y0275645D01*
X0046700Y0283355D01*
X0047355Y0284936D01*
X0048564Y0286145D01*
X0050145Y0286800D01*
X0051855Y0286800D01*
X0053436Y0286145D01*
X0054504Y0285077D02*
X0057496Y0285077D01*
X0057000Y0284079D02*
X0055000Y0284079D01*
X0055300Y0283080D02*
X0056700Y0283080D01*
X0056700Y0282082D02*
X0055300Y0282082D01*
X0055300Y0281083D02*
X0056700Y0281083D01*
X0056700Y0280085D02*
X0055300Y0280085D01*
X0055300Y0279086D02*
X0056700Y0279086D01*
X0056700Y0278088D02*
X0055300Y0278088D01*
X0055300Y0277089D02*
X0056700Y0277089D01*
X0056700Y0276091D02*
X0055300Y0276091D01*
X0055071Y0275092D02*
X0056929Y0275092D01*
X0057342Y0274094D02*
X0054658Y0274094D01*
X0053676Y0273095D02*
X0058324Y0273095D01*
X0048324Y0273095D02*
X0043676Y0273095D01*
X0043436Y0272855D02*
X0044645Y0274064D01*
X0045300Y0275645D01*
X0045300Y0283355D01*
X0044645Y0284936D01*
X0043436Y0286145D01*
X0041855Y0286800D01*
X0040145Y0286800D01*
X0038564Y0286145D01*
X0037355Y0284936D01*
X0036700Y0283355D01*
X0036700Y0275645D01*
X0037355Y0274064D01*
X0038564Y0272855D01*
X0040145Y0272200D01*
X0041855Y0272200D01*
X0043436Y0272855D01*
X0044658Y0274094D02*
X0047342Y0274094D01*
X0046929Y0275092D02*
X0045071Y0275092D01*
X0045300Y0276091D02*
X0046700Y0276091D01*
X0046700Y0277089D02*
X0045300Y0277089D01*
X0045300Y0278088D02*
X0046700Y0278088D01*
X0046700Y0279086D02*
X0045300Y0279086D01*
X0045300Y0280085D02*
X0046700Y0280085D01*
X0046700Y0281083D02*
X0045300Y0281083D01*
X0045300Y0282082D02*
X0046700Y0282082D01*
X0046700Y0283080D02*
X0045300Y0283080D01*
X0045000Y0284079D02*
X0047000Y0284079D01*
X0047496Y0285077D02*
X0044504Y0285077D01*
X0043505Y0286076D02*
X0048495Y0286076D01*
X0038495Y0286076D02*
X0033505Y0286076D01*
X0034504Y0285077D02*
X0037496Y0285077D01*
X0037000Y0284079D02*
X0035000Y0284079D01*
X0035300Y0283080D02*
X0036700Y0283080D01*
X0036700Y0282082D02*
X0035300Y0282082D01*
X0035300Y0281083D02*
X0036700Y0281083D01*
X0036700Y0280085D02*
X0035300Y0280085D01*
X0035300Y0279086D02*
X0036700Y0279086D01*
X0036700Y0278088D02*
X0035300Y0278088D01*
X0035300Y0277089D02*
X0036700Y0277089D01*
X0036700Y0276091D02*
X0035300Y0276091D01*
X0035071Y0275092D02*
X0036929Y0275092D01*
X0037342Y0274094D02*
X0034658Y0274094D01*
X0033676Y0273095D02*
X0038324Y0273095D01*
X0003500Y0288073D02*
X0303201Y0288073D01*
X0303201Y0289071D02*
X0003500Y0289071D01*
X0003500Y0290070D02*
X0303201Y0290070D01*
X0303201Y0291068D02*
X0003500Y0291068D01*
X0003500Y0292067D02*
X0303201Y0292067D01*
X0303201Y0293065D02*
X0003500Y0293065D01*
X0003500Y0294064D02*
X0303201Y0294064D01*
X0303201Y0222171D02*
X0022374Y0222171D01*
X0023409Y0221172D02*
X0281630Y0221172D01*
X0280593Y0220174D02*
X0023961Y0220174D01*
X0024300Y0219175D02*
X0280040Y0219175D01*
X0279700Y0218177D02*
X0024300Y0218177D01*
X0024107Y0217178D02*
X0279700Y0217178D01*
X0279892Y0216180D02*
X0023693Y0216180D01*
X0022763Y0215181D02*
X0280306Y0215181D01*
X0281221Y0204198D02*
X0003500Y0204198D01*
X0003500Y0205196D02*
X0011223Y0205196D01*
X0010301Y0206195D02*
X0003500Y0206195D01*
X0003500Y0207193D02*
X0009887Y0207193D01*
X0009700Y0208192D02*
X0003500Y0208192D01*
X0003500Y0209190D02*
X0009700Y0209190D01*
X0010045Y0210189D02*
X0003500Y0210189D01*
X0003500Y0211187D02*
X0010606Y0211187D01*
X0011662Y0212186D02*
X0003500Y0212186D01*
X0003500Y0213184D02*
X0303201Y0213184D01*
X0303201Y0212186D02*
X0022338Y0212186D01*
X0003500Y0193214D02*
X0283110Y0193214D01*
X0292794Y0194213D02*
X0303201Y0194213D01*
X0303201Y0195211D02*
X0293706Y0195211D01*
X0294120Y0196210D02*
X0303201Y0196210D01*
X0303201Y0197208D02*
X0294300Y0197208D01*
X0294300Y0198207D02*
X0303201Y0198207D01*
X0303201Y0199205D02*
X0293948Y0199205D01*
X0293377Y0200204D02*
X0303201Y0200204D01*
X0303201Y0201202D02*
X0292298Y0201202D01*
X0292779Y0204198D02*
X0303201Y0204198D01*
X0303201Y0205196D02*
X0293700Y0205196D01*
X0294114Y0206195D02*
X0303201Y0206195D01*
X0303201Y0207193D02*
X0294300Y0207193D01*
X0294300Y0208192D02*
X0303201Y0208192D01*
X0303201Y0209190D02*
X0293954Y0209190D01*
X0293392Y0210189D02*
X0303201Y0210189D01*
X0303201Y0211187D02*
X0292334Y0211187D01*
X0292764Y0214183D02*
X0303201Y0214183D01*
X0303201Y0215181D02*
X0293694Y0215181D01*
X0294107Y0216180D02*
X0303201Y0216180D01*
X0303201Y0217178D02*
X0294300Y0217178D01*
X0294300Y0218177D02*
X0303201Y0218177D01*
X0303201Y0219175D02*
X0293960Y0219175D01*
X0293407Y0220174D02*
X0303201Y0220174D01*
X0303201Y0221172D02*
X0292370Y0221172D01*
X0279855Y0156269D02*
X0229430Y0156269D01*
X0229430Y0155271D02*
X0280269Y0155271D01*
X0281147Y0154272D02*
X0229430Y0154272D01*
X0229430Y0153274D02*
X0280228Y0153274D01*
X0279230Y0152275D02*
X0229430Y0152275D01*
X0222099Y0143289D02*
X0270243Y0143289D01*
X0269245Y0142290D02*
X0222099Y0142290D01*
X0222099Y0141292D02*
X0268246Y0141292D01*
X0267247Y0140293D02*
X0221580Y0140293D01*
X0220040Y0139295D02*
X0266249Y0139295D01*
X0265250Y0138296D02*
X0220040Y0138296D01*
X0220040Y0137298D02*
X0264252Y0137298D01*
X0263253Y0136299D02*
X0220040Y0136299D01*
X0220040Y0135301D02*
X0262255Y0135301D01*
X0261256Y0134302D02*
X0220244Y0134302D01*
X0221242Y0133303D02*
X0260258Y0133303D01*
X0259259Y0132305D02*
X0222241Y0132305D01*
X0203369Y0150278D02*
X0277233Y0150278D01*
X0278231Y0151277D02*
X0203753Y0151277D01*
X0199739Y0146284D02*
X0191800Y0146284D01*
X0191800Y0145286D02*
X0198740Y0145286D01*
X0197742Y0144287D02*
X0191800Y0144287D01*
X0191800Y0143289D02*
X0196743Y0143289D01*
X0203753Y0156269D02*
X0204724Y0156269D01*
X0205570Y0157268D02*
X0203342Y0157268D01*
X0203895Y0158266D02*
X0205570Y0158266D01*
X0205570Y0159265D02*
X0203953Y0159265D01*
X0203953Y0160263D02*
X0205570Y0160263D01*
X0195701Y0172245D02*
X0172300Y0172245D01*
X0170760Y0171240D02*
X0157000Y0171240D01*
X0149500Y0171240D01*
X0149500Y0176500D01*
X0152635Y0175241D02*
X0195924Y0175241D01*
X0195701Y0174242D02*
X0161253Y0174242D01*
X0161253Y0173244D02*
X0195701Y0173244D01*
X0157500Y0163259D02*
X0156500Y0163259D01*
X0156500Y0164257D02*
X0142500Y0164257D01*
X0142000Y0163760D02*
X0142000Y0151240D01*
X0142500Y0151277D02*
X0156500Y0151277D01*
X0156500Y0151740D02*
X0152547Y0151740D01*
X0152547Y0153997D01*
X0152649Y0154378D01*
X0152847Y0154720D01*
X0153126Y0154999D01*
X0153468Y0155197D01*
X0153850Y0155299D01*
X0156500Y0155299D01*
X0156500Y0151740D01*
X0156500Y0152275D02*
X0157500Y0152275D01*
X0157500Y0153274D02*
X0156500Y0153274D01*
X0156500Y0154272D02*
X0157500Y0154272D01*
X0157500Y0155271D02*
X0156500Y0155271D01*
X0153744Y0155271D02*
X0145256Y0155271D01*
X0146379Y0154272D02*
X0152621Y0154272D01*
X0152547Y0153274D02*
X0146453Y0153274D01*
X0146453Y0152275D02*
X0152547Y0152275D01*
X0152547Y0150278D02*
X0146453Y0150278D01*
X0146453Y0149280D02*
X0152547Y0149280D01*
X0152601Y0148281D02*
X0146398Y0148281D01*
X0145827Y0147283D02*
X0153173Y0147283D01*
X0152747Y0146284D02*
X0146253Y0146284D01*
X0146253Y0141292D02*
X0152747Y0141292D01*
X0153116Y0140293D02*
X0145884Y0140293D01*
X0145267Y0138296D02*
X0144385Y0138296D01*
X0148197Y0138296D02*
X0149197Y0138296D01*
X0149197Y0137298D02*
X0148197Y0137298D01*
X0148197Y0136299D02*
X0149197Y0136299D01*
X0149197Y0135301D02*
X0148197Y0135301D01*
X0148197Y0133303D02*
X0149197Y0133303D01*
X0149197Y0132305D02*
X0148197Y0132305D01*
X0148197Y0131306D02*
X0149197Y0131306D01*
X0149197Y0130308D02*
X0148197Y0130308D01*
X0144898Y0130308D02*
X0144761Y0130308D01*
X0148868Y0126314D02*
X0151132Y0126314D01*
X0151047Y0125315D02*
X0148953Y0125315D01*
X0148953Y0124317D02*
X0151047Y0124317D01*
X0151047Y0122320D02*
X0148953Y0122320D01*
X0148953Y0121321D02*
X0151047Y0121321D01*
X0151090Y0120323D02*
X0148910Y0120323D01*
X0148286Y0119324D02*
X0151714Y0119324D01*
X0151247Y0118326D02*
X0148753Y0118326D01*
X0148753Y0113333D02*
X0151247Y0113333D01*
X0151575Y0112335D02*
X0148425Y0112335D01*
X0148745Y0105345D02*
X0151255Y0105345D01*
X0151247Y0104347D02*
X0148753Y0104347D01*
X0148753Y0100353D02*
X0151247Y0100353D01*
X0151247Y0099354D02*
X0148753Y0099354D01*
X0148537Y0098356D02*
X0151463Y0098356D01*
X0151047Y0097357D02*
X0148953Y0097357D01*
X0148953Y0096359D02*
X0151047Y0096359D01*
X0151047Y0095360D02*
X0148953Y0095360D01*
X0148953Y0093363D02*
X0151047Y0093363D01*
X0151047Y0092365D02*
X0148953Y0092365D01*
X0148703Y0091366D02*
X0151297Y0091366D01*
X0159703Y0091366D02*
X0162297Y0091366D01*
X0162047Y0092365D02*
X0159953Y0092365D01*
X0159953Y0093363D02*
X0162047Y0093363D01*
X0181703Y0091366D02*
X0282097Y0091366D01*
X0291249Y0093363D02*
X0303201Y0093363D01*
X0303201Y0092365D02*
X0181953Y0092365D01*
X0181753Y0104347D02*
X0182700Y0104347D01*
X0182700Y0105345D02*
X0181745Y0105345D01*
X0186300Y0105345D02*
X0280238Y0105345D01*
X0279825Y0106344D02*
X0186300Y0106344D01*
X0186300Y0107342D02*
X0279700Y0107342D01*
X0279700Y0108341D02*
X0186300Y0108341D01*
X0186300Y0109339D02*
X0280108Y0109339D01*
X0280757Y0110338D02*
X0186300Y0110338D01*
X0186300Y0111336D02*
X0282025Y0111336D01*
X0281072Y0104347D02*
X0186300Y0104347D01*
X0182700Y0112335D02*
X0181425Y0112335D01*
X0181753Y0113333D02*
X0182121Y0113333D01*
X0177000Y0123318D02*
X0167000Y0123318D01*
X0167000Y0124317D02*
X0166000Y0124317D01*
X0166000Y0125315D02*
X0167000Y0125315D01*
X0167000Y0126314D02*
X0166000Y0126314D01*
X0166000Y0123318D02*
X0156000Y0123318D01*
X0156000Y0124317D02*
X0155000Y0124317D01*
X0155000Y0125315D02*
X0156000Y0125315D01*
X0156000Y0126314D02*
X0155000Y0126314D01*
X0167749Y0130308D02*
X0168016Y0130308D01*
X0177000Y0126314D02*
X0178000Y0126314D01*
X0178000Y0125315D02*
X0177000Y0125315D01*
X0177000Y0124317D02*
X0178000Y0124317D01*
X0140132Y0126314D02*
X0137868Y0126314D01*
X0137953Y0125315D02*
X0140047Y0125315D01*
X0140047Y0124317D02*
X0137953Y0124317D01*
X0138116Y0140293D02*
X0134585Y0140293D01*
X0136069Y0141292D02*
X0137747Y0141292D01*
X0133760Y0143760D02*
X0133500Y0143500D01*
X0135493Y0146284D02*
X0137747Y0146284D01*
X0137863Y0160263D02*
X0104024Y0160263D01*
X0102040Y0161262D02*
X0137547Y0161262D01*
X0137547Y0162260D02*
X0102040Y0162260D01*
X0102040Y0171247D02*
X0130122Y0171247D01*
X0130153Y0172245D02*
X0102040Y0172245D01*
X0102040Y0173244D02*
X0130566Y0173244D01*
X0131465Y0174242D02*
X0102040Y0174242D01*
X0097368Y0179235D02*
X0085056Y0179235D01*
X0085345Y0180234D02*
X0097122Y0180234D01*
X0097147Y0181232D02*
X0085345Y0181232D01*
X0084950Y0182231D02*
X0097561Y0182231D01*
X0098452Y0183229D02*
X0084120Y0183229D01*
X0096082Y0152275D02*
X0096918Y0152275D01*
X0098440Y0151277D02*
X0023304Y0151277D01*
X0023918Y0150278D02*
X0098440Y0150278D01*
X0098440Y0149280D02*
X0033266Y0149280D01*
X0034264Y0148281D02*
X0098440Y0148281D01*
X0096898Y0139295D02*
X0096102Y0139295D01*
X0088901Y0146284D02*
X0036261Y0146284D01*
X0035263Y0147283D02*
X0088995Y0147283D01*
X0135535Y0174242D02*
X0137747Y0174242D01*
X0146253Y0169250D02*
X0152747Y0169250D01*
X0152747Y0168251D02*
X0146253Y0168251D01*
X0146140Y0167253D02*
X0152860Y0167253D01*
X0152547Y0166254D02*
X0146453Y0166254D01*
X0146453Y0165256D02*
X0152547Y0165256D01*
X0152547Y0163259D02*
X0146453Y0163259D01*
X0146453Y0163260D02*
X0142500Y0163260D01*
X0142500Y0159701D01*
X0145150Y0159701D01*
X0145532Y0159803D01*
X0145874Y0160000D01*
X0146153Y0160280D01*
X0146351Y0160622D01*
X0146453Y0161003D01*
X0146453Y0163260D01*
X0146453Y0162260D02*
X0152547Y0162260D01*
X0152547Y0161262D02*
X0146453Y0161262D01*
X0146137Y0160263D02*
X0152863Y0160263D01*
X0156500Y0160263D02*
X0157500Y0160263D01*
X0157500Y0161262D02*
X0156500Y0161262D01*
X0156500Y0162260D02*
X0157500Y0162260D01*
X0152747Y0173244D02*
X0151300Y0173244D01*
X0152020Y0174242D02*
X0152747Y0174242D01*
X0142500Y0163259D02*
X0141500Y0163259D01*
X0141500Y0162260D02*
X0142500Y0162260D01*
X0142500Y0161262D02*
X0141500Y0161262D01*
X0141500Y0160263D02*
X0142500Y0160263D01*
X0108112Y0072394D02*
X0021835Y0072394D01*
X0023185Y0071396D02*
X0108112Y0071396D01*
X0108112Y0070397D02*
X0023868Y0070397D01*
X0024282Y0069399D02*
X0108112Y0069399D01*
X0108112Y0068400D02*
X0024300Y0068400D01*
X0024199Y0067402D02*
X0108112Y0067402D01*
X0108112Y0066403D02*
X0023786Y0066403D01*
X0022986Y0065405D02*
X0108112Y0065405D01*
X0121123Y0053423D02*
X0282607Y0053423D01*
X0282313Y0031455D02*
X0185587Y0031455D01*
X0184589Y0030457D02*
X0280876Y0030457D01*
X0280157Y0029458D02*
X0183590Y0029458D01*
X0182592Y0028460D02*
X0279743Y0028460D01*
X0279700Y0027461D02*
X0181593Y0027461D01*
X0180595Y0026463D02*
X0279775Y0026463D01*
X0280189Y0025464D02*
X0179596Y0025464D01*
X0178598Y0024466D02*
X0280953Y0024466D01*
X0270349Y0021470D02*
X0263651Y0021470D01*
X0265109Y0020472D02*
X0268891Y0020472D01*
X0268163Y0019473D02*
X0265837Y0019473D01*
X0266251Y0018475D02*
X0267749Y0018475D01*
X0267700Y0017476D02*
X0266300Y0017476D01*
X0266300Y0016478D02*
X0267700Y0016478D01*
X0267700Y0015479D02*
X0266300Y0015479D01*
X0266300Y0014481D02*
X0267700Y0014481D01*
X0267700Y0013482D02*
X0266300Y0013482D01*
X0266300Y0012484D02*
X0267700Y0012484D01*
X0267700Y0011485D02*
X0266300Y0011485D01*
X0266235Y0010487D02*
X0267765Y0010487D01*
X0268179Y0009488D02*
X0265821Y0009488D01*
X0265071Y0008490D02*
X0268929Y0008490D01*
X0258929Y0008490D02*
X0255071Y0008490D01*
X0255821Y0009488D02*
X0258179Y0009488D01*
X0257765Y0010487D02*
X0256235Y0010487D01*
X0256300Y0011485D02*
X0257700Y0011485D01*
X0257700Y0012484D02*
X0256300Y0012484D01*
X0256300Y0013482D02*
X0257700Y0013482D01*
X0257700Y0014481D02*
X0256300Y0014481D01*
X0256300Y0015479D02*
X0257700Y0015479D01*
X0257700Y0016478D02*
X0256300Y0016478D01*
X0256300Y0017476D02*
X0257700Y0017476D01*
X0257749Y0018475D02*
X0256251Y0018475D01*
X0255837Y0019473D02*
X0258163Y0019473D01*
X0258891Y0020472D02*
X0255109Y0020472D01*
X0253651Y0021470D02*
X0260349Y0021470D01*
X0250349Y0021470D02*
X0243651Y0021470D01*
X0245109Y0020472D02*
X0248891Y0020472D01*
X0248163Y0019473D02*
X0245837Y0019473D01*
X0246251Y0018475D02*
X0247749Y0018475D01*
X0247700Y0017476D02*
X0246300Y0017476D01*
X0246300Y0016478D02*
X0247700Y0016478D01*
X0247700Y0015479D02*
X0246300Y0015479D01*
X0246300Y0014481D02*
X0247700Y0014481D01*
X0247700Y0013482D02*
X0246300Y0013482D01*
X0246300Y0012484D02*
X0247700Y0012484D01*
X0247700Y0011485D02*
X0246300Y0011485D01*
X0246235Y0010487D02*
X0247765Y0010487D01*
X0248179Y0009488D02*
X0245821Y0009488D01*
X0245071Y0008490D02*
X0248929Y0008490D01*
X0238929Y0008490D02*
X0235071Y0008490D01*
X0235821Y0009488D02*
X0238179Y0009488D01*
X0237765Y0010487D02*
X0236235Y0010487D01*
X0236300Y0011485D02*
X0237700Y0011485D01*
X0237700Y0012484D02*
X0236300Y0012484D01*
X0236300Y0013482D02*
X0237700Y0013482D01*
X0237700Y0014481D02*
X0236300Y0014481D01*
X0236300Y0015479D02*
X0237700Y0015479D01*
X0237700Y0016478D02*
X0236300Y0016478D01*
X0236300Y0017476D02*
X0237700Y0017476D01*
X0237749Y0018475D02*
X0236251Y0018475D01*
X0235837Y0019473D02*
X0238163Y0019473D01*
X0238891Y0020472D02*
X0235109Y0020472D01*
X0233651Y0021470D02*
X0240349Y0021470D01*
X0230349Y0021470D02*
X0224120Y0021470D01*
X0225392Y0020472D02*
X0228891Y0020472D01*
X0228163Y0019473D02*
X0226045Y0019473D01*
X0226402Y0018475D02*
X0227749Y0018475D01*
X0227700Y0017476D02*
X0226500Y0017476D01*
X0226500Y0016478D02*
X0227700Y0016478D01*
X0227700Y0015479D02*
X0226500Y0015479D01*
X0210349Y0021470D02*
X0203651Y0021470D01*
X0205109Y0020472D02*
X0208891Y0020472D01*
X0208163Y0019473D02*
X0205837Y0019473D01*
X0206251Y0018475D02*
X0207749Y0018475D01*
X0207700Y0017476D02*
X0206300Y0017476D01*
X0206300Y0016478D02*
X0207700Y0016478D01*
X0207700Y0015479D02*
X0206300Y0015479D01*
X0206300Y0014481D02*
X0207700Y0014481D01*
X0207700Y0013482D02*
X0206300Y0013482D01*
X0206300Y0012484D02*
X0207700Y0012484D01*
X0207700Y0011485D02*
X0206300Y0011485D01*
X0206235Y0010487D02*
X0207765Y0010487D01*
X0208179Y0009488D02*
X0205821Y0009488D01*
X0205071Y0008490D02*
X0208929Y0008490D01*
X0198929Y0008490D02*
X0195071Y0008490D01*
X0195821Y0009488D02*
X0198179Y0009488D01*
X0197765Y0010487D02*
X0196235Y0010487D01*
X0196300Y0011485D02*
X0197700Y0011485D01*
X0197700Y0012484D02*
X0196300Y0012484D01*
X0196300Y0013482D02*
X0197700Y0013482D01*
X0197700Y0014481D02*
X0196300Y0014481D01*
X0196300Y0015479D02*
X0197700Y0015479D01*
X0197700Y0016478D02*
X0196300Y0016478D01*
X0196300Y0017476D02*
X0197700Y0017476D01*
X0197749Y0018475D02*
X0196251Y0018475D01*
X0195837Y0019473D02*
X0198163Y0019473D01*
X0198891Y0020472D02*
X0195109Y0020472D01*
X0193651Y0021470D02*
X0200349Y0021470D01*
X0190349Y0021470D02*
X0183651Y0021470D01*
X0185109Y0020472D02*
X0188891Y0020472D01*
X0188163Y0019473D02*
X0185837Y0019473D01*
X0186251Y0018475D02*
X0187749Y0018475D01*
X0187700Y0017476D02*
X0186300Y0017476D01*
X0186300Y0016478D02*
X0187700Y0016478D01*
X0187700Y0015479D02*
X0186300Y0015479D01*
X0186300Y0014481D02*
X0187700Y0014481D01*
X0187700Y0013482D02*
X0186300Y0013482D01*
X0186300Y0012484D02*
X0187700Y0012484D01*
X0187700Y0011485D02*
X0186300Y0011485D01*
X0186235Y0010487D02*
X0187765Y0010487D01*
X0188179Y0009488D02*
X0185821Y0009488D01*
X0185071Y0008490D02*
X0188929Y0008490D01*
X0178929Y0008490D02*
X0175071Y0008490D01*
X0175821Y0009488D02*
X0178179Y0009488D01*
X0177765Y0010487D02*
X0176235Y0010487D01*
X0176300Y0011485D02*
X0177700Y0011485D01*
X0177700Y0012484D02*
X0176300Y0012484D01*
X0176300Y0013482D02*
X0177700Y0013482D01*
X0177700Y0014481D02*
X0176300Y0014481D01*
X0176300Y0015479D02*
X0177700Y0015479D01*
X0177700Y0016478D02*
X0176300Y0016478D01*
X0176300Y0017476D02*
X0177700Y0017476D01*
X0177749Y0018475D02*
X0176251Y0018475D01*
X0175837Y0019473D02*
X0178163Y0019473D01*
X0178891Y0020472D02*
X0175109Y0020472D01*
X0173651Y0021470D02*
X0180349Y0021470D01*
X0170349Y0021470D02*
X0163651Y0021470D01*
X0165109Y0020472D02*
X0168891Y0020472D01*
X0168163Y0019473D02*
X0165837Y0019473D01*
X0166251Y0018475D02*
X0167749Y0018475D01*
X0167700Y0017476D02*
X0166300Y0017476D01*
X0166300Y0016478D02*
X0167700Y0016478D01*
X0167700Y0015479D02*
X0166300Y0015479D01*
X0166300Y0014481D02*
X0167700Y0014481D01*
X0167700Y0013482D02*
X0166300Y0013482D01*
X0166300Y0012484D02*
X0167700Y0012484D01*
X0167700Y0011485D02*
X0166300Y0011485D01*
X0166235Y0010487D02*
X0167765Y0010487D01*
X0168179Y0009488D02*
X0165821Y0009488D01*
X0165071Y0008490D02*
X0168929Y0008490D01*
X0291285Y0083378D02*
X0303201Y0083378D01*
X0303201Y0084376D02*
X0292958Y0084376D01*
X0293774Y0085375D02*
X0303201Y0085375D01*
X0303201Y0086373D02*
X0294188Y0086373D01*
X0294300Y0087372D02*
X0303201Y0087372D01*
X0303201Y0088370D02*
X0294294Y0088370D01*
X0293880Y0089369D02*
X0303201Y0089369D01*
X0303201Y0090368D02*
X0293214Y0090368D01*
X0291903Y0091366D02*
X0303201Y0091366D01*
X0303201Y0094362D02*
X0292943Y0094362D01*
X0293768Y0095360D02*
X0303201Y0095360D01*
X0303201Y0096359D02*
X0294181Y0096359D01*
X0294300Y0097357D02*
X0303201Y0097357D01*
X0303201Y0098356D02*
X0294300Y0098356D01*
X0293886Y0099354D02*
X0303201Y0099354D01*
X0303201Y0100353D02*
X0293228Y0100353D01*
X0291939Y0101351D02*
X0303201Y0101351D01*
X0303201Y0114332D02*
X0292913Y0114332D01*
X0293756Y0115330D02*
X0303201Y0115330D01*
X0303201Y0116329D02*
X0294169Y0116329D01*
X0294300Y0117327D02*
X0303201Y0117327D01*
X0303201Y0118326D02*
X0294300Y0118326D01*
X0293899Y0119324D02*
X0303201Y0119324D01*
X0303201Y0120323D02*
X0293258Y0120323D01*
X0292011Y0121321D02*
X0303201Y0121321D01*
X0281102Y0124317D02*
X0266362Y0124317D01*
X0267361Y0125315D02*
X0280251Y0125315D01*
X0279837Y0126314D02*
X0268359Y0126314D01*
X0269358Y0127312D02*
X0279700Y0127312D01*
X0279700Y0128311D02*
X0270357Y0128311D01*
X0271355Y0129309D02*
X0280095Y0129309D01*
X0280727Y0130308D02*
X0272354Y0130308D01*
X0273352Y0131306D02*
X0281953Y0131306D01*
X0012719Y0084376D02*
X0003500Y0084376D01*
X0003500Y0085375D02*
X0011044Y0085375D01*
X0010227Y0086373D02*
X0003500Y0086373D01*
X0003500Y0087372D02*
X0009813Y0087372D01*
X0009700Y0088370D02*
X0003500Y0088370D01*
X0003500Y0089369D02*
X0009706Y0089369D01*
X0010119Y0090368D02*
X0003500Y0090368D01*
X0003500Y0091366D02*
X0010785Y0091366D01*
D19*
X0157000Y0151240D02*
X0157000Y0153740D01*
M02*
