%
M48
M72
T01C0.0276
T02C0.0400
%
T01
X10991Y5198
X14600Y2600
X19877Y4718
X11850Y12450
X13350Y14350
X13350Y15150
X14950Y15250
X16550Y16250
X17550Y14850
X17050Y14350
X15550Y13450
X13350Y17150
X14950Y17650
X12100Y18900
X10050Y18050
X8197Y18060
X8172Y11608
T02
X1700Y2850
X1700Y3850
X1700Y4850
X1700Y5850
X1700Y6850
X1700Y7850
X1700Y8850
X1700Y9850
X1700Y10850
X1700Y11850
X1700Y12850
X1700Y13850
X1700Y14850
X1700Y15850
X1700Y16850
X1700Y17850
X1700Y18850
X1700Y19850
X1700Y20850
X1700Y21850
X1700Y22850
X1700Y23850
X1700Y24850
X1700Y25850
X1700Y26850
X3100Y27950
X4100Y27950
X5100Y27950
X6100Y27950
X7100Y27950
X8100Y27950
X9100Y27950
X10100Y27950
X11100Y27950
X12100Y27950
X13100Y27950
X14100Y27950
X15100Y27950
X16100Y27950
X17100Y27950
X18100Y27950
X19100Y27950
X20100Y27950
X21100Y27950
X22100Y27950
X23100Y27950
X24100Y27950
X25100Y27950
X26100Y27950
X27100Y27950
X28700Y26750
X28700Y25750
X28700Y24750
X28700Y23750
X28700Y22750
X28700Y21750
X28700Y20750
X28700Y19750
X28700Y18750
X28700Y17750
X28700Y16750
X28700Y15750
X28700Y14750
X28700Y13750
X28700Y12750
X28700Y11750
X28700Y10750
X28700Y9750
X28700Y8750
X28700Y7750
X28700Y6750
X28700Y5750
X28700Y4750
X28700Y3750
X28700Y2750
X27200Y1450
X26200Y1450
X25200Y1450
X24200Y1450
X23200Y1450
X22200Y1450
X21200Y1450
X20200Y1450
X19200Y1450
X18200Y1450
X17200Y1450
X16200Y1450
X15200Y1450
X14200Y1450
X13200Y1450
X12200Y1450
X11200Y1450
X10200Y1450
X9200Y1450
X8200Y1450
X7200Y1450
X6200Y1450
X5200Y1450
X4200Y1450
X3200Y1450
X9850Y10550
X9850Y11550
X10850Y11550
X10850Y10550
X11850Y10550
X11850Y11550
M30
