G75*
%MOIN*%
%OFA0B0*%
%FSLAX25Y25*%
%IPPOS*%
%LPD*%
%AMOC8*
5,1,8,0,0,1.08239X$1,22.5*
%
%ADD10C,0.00000*%
%ADD11R,0.07098X0.06299*%
%ADD12OC8,0.10000*%
%ADD13R,0.04600X0.06300*%
%ADD14R,0.01181X0.05709*%
%ADD15R,0.01575X0.01969*%
%ADD16R,0.01181X0.01969*%
%ADD17R,0.05118X0.06299*%
%ADD18C,0.03962*%
%ADD19C,0.01000*%
%ADD20C,0.01600*%
D10*
X0001000Y0021728D02*
X0001400Y0222489D01*
X0395101Y0222489D01*
X0394701Y0021728D01*
X0001000Y0021728D01*
X0043288Y0055828D02*
X0043290Y0055976D01*
X0043296Y0056124D01*
X0043306Y0056272D01*
X0043320Y0056419D01*
X0043338Y0056566D01*
X0043359Y0056712D01*
X0043385Y0056858D01*
X0043415Y0057003D01*
X0043448Y0057147D01*
X0043486Y0057290D01*
X0043527Y0057432D01*
X0043572Y0057573D01*
X0043620Y0057713D01*
X0043673Y0057852D01*
X0043729Y0057989D01*
X0043789Y0058124D01*
X0043852Y0058258D01*
X0043919Y0058390D01*
X0043990Y0058520D01*
X0044064Y0058648D01*
X0044141Y0058774D01*
X0044222Y0058898D01*
X0044306Y0059020D01*
X0044393Y0059139D01*
X0044484Y0059256D01*
X0044578Y0059371D01*
X0044674Y0059483D01*
X0044774Y0059593D01*
X0044876Y0059699D01*
X0044982Y0059803D01*
X0045090Y0059904D01*
X0045201Y0060002D01*
X0045314Y0060098D01*
X0045430Y0060190D01*
X0045548Y0060279D01*
X0045669Y0060364D01*
X0045792Y0060447D01*
X0045917Y0060526D01*
X0046044Y0060602D01*
X0046173Y0060674D01*
X0046304Y0060743D01*
X0046437Y0060808D01*
X0046572Y0060869D01*
X0046708Y0060927D01*
X0046845Y0060982D01*
X0046984Y0061032D01*
X0047125Y0061079D01*
X0047266Y0061122D01*
X0047409Y0061162D01*
X0047553Y0061197D01*
X0047697Y0061229D01*
X0047843Y0061256D01*
X0047989Y0061280D01*
X0048136Y0061300D01*
X0048283Y0061316D01*
X0048430Y0061328D01*
X0048578Y0061336D01*
X0048726Y0061340D01*
X0048874Y0061340D01*
X0049022Y0061336D01*
X0049170Y0061328D01*
X0049317Y0061316D01*
X0049464Y0061300D01*
X0049611Y0061280D01*
X0049757Y0061256D01*
X0049903Y0061229D01*
X0050047Y0061197D01*
X0050191Y0061162D01*
X0050334Y0061122D01*
X0050475Y0061079D01*
X0050616Y0061032D01*
X0050755Y0060982D01*
X0050892Y0060927D01*
X0051028Y0060869D01*
X0051163Y0060808D01*
X0051296Y0060743D01*
X0051427Y0060674D01*
X0051556Y0060602D01*
X0051683Y0060526D01*
X0051808Y0060447D01*
X0051931Y0060364D01*
X0052052Y0060279D01*
X0052170Y0060190D01*
X0052286Y0060098D01*
X0052399Y0060002D01*
X0052510Y0059904D01*
X0052618Y0059803D01*
X0052724Y0059699D01*
X0052826Y0059593D01*
X0052926Y0059483D01*
X0053022Y0059371D01*
X0053116Y0059256D01*
X0053207Y0059139D01*
X0053294Y0059020D01*
X0053378Y0058898D01*
X0053459Y0058774D01*
X0053536Y0058648D01*
X0053610Y0058520D01*
X0053681Y0058390D01*
X0053748Y0058258D01*
X0053811Y0058124D01*
X0053871Y0057989D01*
X0053927Y0057852D01*
X0053980Y0057713D01*
X0054028Y0057573D01*
X0054073Y0057432D01*
X0054114Y0057290D01*
X0054152Y0057147D01*
X0054185Y0057003D01*
X0054215Y0056858D01*
X0054241Y0056712D01*
X0054262Y0056566D01*
X0054280Y0056419D01*
X0054294Y0056272D01*
X0054304Y0056124D01*
X0054310Y0055976D01*
X0054312Y0055828D01*
X0054310Y0055680D01*
X0054304Y0055532D01*
X0054294Y0055384D01*
X0054280Y0055237D01*
X0054262Y0055090D01*
X0054241Y0054944D01*
X0054215Y0054798D01*
X0054185Y0054653D01*
X0054152Y0054509D01*
X0054114Y0054366D01*
X0054073Y0054224D01*
X0054028Y0054083D01*
X0053980Y0053943D01*
X0053927Y0053804D01*
X0053871Y0053667D01*
X0053811Y0053532D01*
X0053748Y0053398D01*
X0053681Y0053266D01*
X0053610Y0053136D01*
X0053536Y0053008D01*
X0053459Y0052882D01*
X0053378Y0052758D01*
X0053294Y0052636D01*
X0053207Y0052517D01*
X0053116Y0052400D01*
X0053022Y0052285D01*
X0052926Y0052173D01*
X0052826Y0052063D01*
X0052724Y0051957D01*
X0052618Y0051853D01*
X0052510Y0051752D01*
X0052399Y0051654D01*
X0052286Y0051558D01*
X0052170Y0051466D01*
X0052052Y0051377D01*
X0051931Y0051292D01*
X0051808Y0051209D01*
X0051683Y0051130D01*
X0051556Y0051054D01*
X0051427Y0050982D01*
X0051296Y0050913D01*
X0051163Y0050848D01*
X0051028Y0050787D01*
X0050892Y0050729D01*
X0050755Y0050674D01*
X0050616Y0050624D01*
X0050475Y0050577D01*
X0050334Y0050534D01*
X0050191Y0050494D01*
X0050047Y0050459D01*
X0049903Y0050427D01*
X0049757Y0050400D01*
X0049611Y0050376D01*
X0049464Y0050356D01*
X0049317Y0050340D01*
X0049170Y0050328D01*
X0049022Y0050320D01*
X0048874Y0050316D01*
X0048726Y0050316D01*
X0048578Y0050320D01*
X0048430Y0050328D01*
X0048283Y0050340D01*
X0048136Y0050356D01*
X0047989Y0050376D01*
X0047843Y0050400D01*
X0047697Y0050427D01*
X0047553Y0050459D01*
X0047409Y0050494D01*
X0047266Y0050534D01*
X0047125Y0050577D01*
X0046984Y0050624D01*
X0046845Y0050674D01*
X0046708Y0050729D01*
X0046572Y0050787D01*
X0046437Y0050848D01*
X0046304Y0050913D01*
X0046173Y0050982D01*
X0046044Y0051054D01*
X0045917Y0051130D01*
X0045792Y0051209D01*
X0045669Y0051292D01*
X0045548Y0051377D01*
X0045430Y0051466D01*
X0045314Y0051558D01*
X0045201Y0051654D01*
X0045090Y0051752D01*
X0044982Y0051853D01*
X0044876Y0051957D01*
X0044774Y0052063D01*
X0044674Y0052173D01*
X0044578Y0052285D01*
X0044484Y0052400D01*
X0044393Y0052517D01*
X0044306Y0052636D01*
X0044222Y0052758D01*
X0044141Y0052882D01*
X0044064Y0053008D01*
X0043990Y0053136D01*
X0043919Y0053266D01*
X0043852Y0053398D01*
X0043789Y0053532D01*
X0043729Y0053667D01*
X0043673Y0053804D01*
X0043620Y0053943D01*
X0043572Y0054083D01*
X0043527Y0054224D01*
X0043486Y0054366D01*
X0043448Y0054509D01*
X0043415Y0054653D01*
X0043385Y0054798D01*
X0043359Y0054944D01*
X0043338Y0055090D01*
X0043320Y0055237D01*
X0043306Y0055384D01*
X0043296Y0055532D01*
X0043290Y0055680D01*
X0043288Y0055828D01*
X0269488Y0098728D02*
X0269490Y0098876D01*
X0269496Y0099024D01*
X0269506Y0099172D01*
X0269520Y0099319D01*
X0269538Y0099466D01*
X0269559Y0099612D01*
X0269585Y0099758D01*
X0269615Y0099903D01*
X0269648Y0100047D01*
X0269686Y0100190D01*
X0269727Y0100332D01*
X0269772Y0100473D01*
X0269820Y0100613D01*
X0269873Y0100752D01*
X0269929Y0100889D01*
X0269989Y0101024D01*
X0270052Y0101158D01*
X0270119Y0101290D01*
X0270190Y0101420D01*
X0270264Y0101548D01*
X0270341Y0101674D01*
X0270422Y0101798D01*
X0270506Y0101920D01*
X0270593Y0102039D01*
X0270684Y0102156D01*
X0270778Y0102271D01*
X0270874Y0102383D01*
X0270974Y0102493D01*
X0271076Y0102599D01*
X0271182Y0102703D01*
X0271290Y0102804D01*
X0271401Y0102902D01*
X0271514Y0102998D01*
X0271630Y0103090D01*
X0271748Y0103179D01*
X0271869Y0103264D01*
X0271992Y0103347D01*
X0272117Y0103426D01*
X0272244Y0103502D01*
X0272373Y0103574D01*
X0272504Y0103643D01*
X0272637Y0103708D01*
X0272772Y0103769D01*
X0272908Y0103827D01*
X0273045Y0103882D01*
X0273184Y0103932D01*
X0273325Y0103979D01*
X0273466Y0104022D01*
X0273609Y0104062D01*
X0273753Y0104097D01*
X0273897Y0104129D01*
X0274043Y0104156D01*
X0274189Y0104180D01*
X0274336Y0104200D01*
X0274483Y0104216D01*
X0274630Y0104228D01*
X0274778Y0104236D01*
X0274926Y0104240D01*
X0275074Y0104240D01*
X0275222Y0104236D01*
X0275370Y0104228D01*
X0275517Y0104216D01*
X0275664Y0104200D01*
X0275811Y0104180D01*
X0275957Y0104156D01*
X0276103Y0104129D01*
X0276247Y0104097D01*
X0276391Y0104062D01*
X0276534Y0104022D01*
X0276675Y0103979D01*
X0276816Y0103932D01*
X0276955Y0103882D01*
X0277092Y0103827D01*
X0277228Y0103769D01*
X0277363Y0103708D01*
X0277496Y0103643D01*
X0277627Y0103574D01*
X0277756Y0103502D01*
X0277883Y0103426D01*
X0278008Y0103347D01*
X0278131Y0103264D01*
X0278252Y0103179D01*
X0278370Y0103090D01*
X0278486Y0102998D01*
X0278599Y0102902D01*
X0278710Y0102804D01*
X0278818Y0102703D01*
X0278924Y0102599D01*
X0279026Y0102493D01*
X0279126Y0102383D01*
X0279222Y0102271D01*
X0279316Y0102156D01*
X0279407Y0102039D01*
X0279494Y0101920D01*
X0279578Y0101798D01*
X0279659Y0101674D01*
X0279736Y0101548D01*
X0279810Y0101420D01*
X0279881Y0101290D01*
X0279948Y0101158D01*
X0280011Y0101024D01*
X0280071Y0100889D01*
X0280127Y0100752D01*
X0280180Y0100613D01*
X0280228Y0100473D01*
X0280273Y0100332D01*
X0280314Y0100190D01*
X0280352Y0100047D01*
X0280385Y0099903D01*
X0280415Y0099758D01*
X0280441Y0099612D01*
X0280462Y0099466D01*
X0280480Y0099319D01*
X0280494Y0099172D01*
X0280504Y0099024D01*
X0280510Y0098876D01*
X0280512Y0098728D01*
X0280510Y0098580D01*
X0280504Y0098432D01*
X0280494Y0098284D01*
X0280480Y0098137D01*
X0280462Y0097990D01*
X0280441Y0097844D01*
X0280415Y0097698D01*
X0280385Y0097553D01*
X0280352Y0097409D01*
X0280314Y0097266D01*
X0280273Y0097124D01*
X0280228Y0096983D01*
X0280180Y0096843D01*
X0280127Y0096704D01*
X0280071Y0096567D01*
X0280011Y0096432D01*
X0279948Y0096298D01*
X0279881Y0096166D01*
X0279810Y0096036D01*
X0279736Y0095908D01*
X0279659Y0095782D01*
X0279578Y0095658D01*
X0279494Y0095536D01*
X0279407Y0095417D01*
X0279316Y0095300D01*
X0279222Y0095185D01*
X0279126Y0095073D01*
X0279026Y0094963D01*
X0278924Y0094857D01*
X0278818Y0094753D01*
X0278710Y0094652D01*
X0278599Y0094554D01*
X0278486Y0094458D01*
X0278370Y0094366D01*
X0278252Y0094277D01*
X0278131Y0094192D01*
X0278008Y0094109D01*
X0277883Y0094030D01*
X0277756Y0093954D01*
X0277627Y0093882D01*
X0277496Y0093813D01*
X0277363Y0093748D01*
X0277228Y0093687D01*
X0277092Y0093629D01*
X0276955Y0093574D01*
X0276816Y0093524D01*
X0276675Y0093477D01*
X0276534Y0093434D01*
X0276391Y0093394D01*
X0276247Y0093359D01*
X0276103Y0093327D01*
X0275957Y0093300D01*
X0275811Y0093276D01*
X0275664Y0093256D01*
X0275517Y0093240D01*
X0275370Y0093228D01*
X0275222Y0093220D01*
X0275074Y0093216D01*
X0274926Y0093216D01*
X0274778Y0093220D01*
X0274630Y0093228D01*
X0274483Y0093240D01*
X0274336Y0093256D01*
X0274189Y0093276D01*
X0274043Y0093300D01*
X0273897Y0093327D01*
X0273753Y0093359D01*
X0273609Y0093394D01*
X0273466Y0093434D01*
X0273325Y0093477D01*
X0273184Y0093524D01*
X0273045Y0093574D01*
X0272908Y0093629D01*
X0272772Y0093687D01*
X0272637Y0093748D01*
X0272504Y0093813D01*
X0272373Y0093882D01*
X0272244Y0093954D01*
X0272117Y0094030D01*
X0271992Y0094109D01*
X0271869Y0094192D01*
X0271748Y0094277D01*
X0271630Y0094366D01*
X0271514Y0094458D01*
X0271401Y0094554D01*
X0271290Y0094652D01*
X0271182Y0094753D01*
X0271076Y0094857D01*
X0270974Y0094963D01*
X0270874Y0095073D01*
X0270778Y0095185D01*
X0270684Y0095300D01*
X0270593Y0095417D01*
X0270506Y0095536D01*
X0270422Y0095658D01*
X0270341Y0095782D01*
X0270264Y0095908D01*
X0270190Y0096036D01*
X0270119Y0096166D01*
X0270052Y0096298D01*
X0269989Y0096432D01*
X0269929Y0096567D01*
X0269873Y0096704D01*
X0269820Y0096843D01*
X0269772Y0096983D01*
X0269727Y0097124D01*
X0269686Y0097266D01*
X0269648Y0097409D01*
X0269615Y0097553D01*
X0269585Y0097698D01*
X0269559Y0097844D01*
X0269538Y0097990D01*
X0269520Y0098137D01*
X0269506Y0098284D01*
X0269496Y0098432D01*
X0269490Y0098580D01*
X0269488Y0098728D01*
D11*
X0235331Y0101917D03*
X0235331Y0113114D03*
X0235331Y0131917D03*
X0235331Y0143114D03*
X0235331Y0164417D03*
X0235331Y0175614D03*
X0235331Y0191917D03*
X0235331Y0203114D03*
X0345331Y0205614D03*
X0345331Y0194417D03*
X0345331Y0175614D03*
X0345331Y0164417D03*
X0345331Y0143114D03*
X0345331Y0131917D03*
X0345331Y0110614D03*
X0345331Y0099417D03*
X0345331Y0080614D03*
X0345331Y0069417D03*
X0345431Y0054614D03*
X0345431Y0043417D03*
X0235231Y0045367D03*
X0235231Y0056564D03*
X0235331Y0071917D03*
X0235331Y0083114D03*
X0125331Y0083114D03*
X0125331Y0071917D03*
X0125131Y0056514D03*
X0125131Y0045317D03*
X0125331Y0101917D03*
X0125331Y0113114D03*
X0125331Y0131917D03*
X0125331Y0143114D03*
X0125331Y0161917D03*
X0125331Y0173114D03*
X0125331Y0189417D03*
X0125331Y0200614D03*
D12*
X0150331Y0202516D03*
X0262831Y0205016D03*
X0030331Y0203516D03*
D13*
X0028000Y0101228D03*
X0022000Y0101228D03*
X0363050Y0082728D03*
X0369050Y0082728D03*
D14*
X0319287Y0081630D03*
X0316728Y0081630D03*
X0314169Y0081630D03*
X0311610Y0081630D03*
X0309051Y0081630D03*
X0306492Y0081630D03*
X0303933Y0081630D03*
X0301374Y0081630D03*
X0301374Y0058402D03*
X0303933Y0058402D03*
X0306492Y0058402D03*
X0309051Y0058402D03*
X0311610Y0058402D03*
X0314169Y0058402D03*
X0316728Y0058402D03*
X0319287Y0058402D03*
X0211787Y0055902D03*
X0209228Y0055902D03*
X0206669Y0055902D03*
X0204110Y0055902D03*
X0201551Y0055902D03*
X0198992Y0055902D03*
X0196433Y0055902D03*
X0193874Y0055902D03*
X0193874Y0079130D03*
X0196433Y0079130D03*
X0198992Y0079130D03*
X0201551Y0079130D03*
X0204110Y0079130D03*
X0206669Y0079130D03*
X0209228Y0079130D03*
X0211787Y0079130D03*
X0099287Y0079130D03*
X0096728Y0079130D03*
X0094169Y0079130D03*
X0091610Y0079130D03*
X0089051Y0079130D03*
X0086492Y0079130D03*
X0083933Y0079130D03*
X0081374Y0079130D03*
X0081374Y0055902D03*
X0083933Y0055902D03*
X0086492Y0055902D03*
X0089051Y0055902D03*
X0091610Y0055902D03*
X0094169Y0055902D03*
X0096728Y0055902D03*
X0099287Y0055902D03*
D15*
X0099906Y0087634D03*
X0099906Y0091571D03*
X0094000Y0091571D03*
X0090906Y0091634D03*
X0090906Y0087697D03*
X0094000Y0087634D03*
X0085000Y0087697D03*
X0085000Y0091634D03*
X0198000Y0091508D03*
X0198000Y0095445D03*
X0203906Y0095445D03*
X0207000Y0095508D03*
X0212906Y0095508D03*
X0212906Y0091571D03*
X0207000Y0091571D03*
X0203906Y0091508D03*
X0301644Y0091760D03*
X0307550Y0091760D03*
X0311944Y0091760D03*
X0311944Y0095697D03*
X0307550Y0095697D03*
X0301644Y0095697D03*
X0317850Y0095697D03*
X0317850Y0091760D03*
D16*
X0315881Y0091760D03*
X0313913Y0091760D03*
X0313913Y0095697D03*
X0315881Y0095697D03*
X0305581Y0095697D03*
X0303613Y0095697D03*
X0303613Y0091760D03*
X0305581Y0091760D03*
X0210937Y0091571D03*
X0208969Y0091571D03*
X0208969Y0095508D03*
X0210937Y0095508D03*
X0201937Y0095445D03*
X0199969Y0095445D03*
X0199969Y0091508D03*
X0201937Y0091508D03*
X0097937Y0091571D03*
X0095969Y0091571D03*
X0095969Y0087634D03*
X0097937Y0087634D03*
X0088937Y0087697D03*
X0086969Y0087697D03*
X0086969Y0091634D03*
X0088937Y0091634D03*
D17*
X0062740Y0200728D03*
X0055260Y0200728D03*
X0168260Y0200728D03*
X0175740Y0200728D03*
X0297260Y0201728D03*
X0304740Y0201728D03*
D18*
X0320000Y0203728D03*
X0204050Y0144928D03*
X0234831Y0091016D03*
X0217831Y0072516D03*
X0197831Y0064235D03*
X0187831Y0064235D03*
X0204131Y0048216D03*
X0196081Y0045866D03*
X0217000Y0053009D03*
X0190331Y0087516D03*
X0122831Y0090016D03*
X0105331Y0072516D03*
X0090331Y0067516D03*
X0090331Y0062516D03*
X0102831Y0052516D03*
X0104831Y0047516D03*
X0100631Y0043766D03*
X0063000Y0081728D03*
X0068000Y0084728D03*
X0060337Y0089916D03*
X0055000Y0081728D03*
X0080831Y0089016D03*
X0072150Y0110478D03*
X0047200Y0115878D03*
X0093000Y0149728D03*
X0289831Y0070016D03*
X0301531Y0069785D03*
X0316681Y0074716D03*
X0318400Y0067528D03*
X0305850Y0052178D03*
X0300100Y0052028D03*
X0292850Y0042328D03*
X0316950Y0045328D03*
X0330400Y0045878D03*
X0345650Y0062128D03*
X0328531Y0097316D03*
X0297131Y0098216D03*
D19*
X0301374Y0083972D01*
X0301374Y0081630D01*
X0305500Y0087161D02*
X0305550Y0091760D01*
X0305581Y0091760D01*
X0307550Y0091760D02*
X0307600Y0089270D01*
X0311410Y0085010D01*
X0311610Y0081630D01*
X0309051Y0081630D02*
X0309051Y0084710D01*
X0305500Y0087161D01*
X0311794Y0087785D02*
X0314069Y0085110D01*
X0314169Y0081630D01*
X0316728Y0081630D02*
X0317000Y0081902D01*
X0317000Y0082728D01*
X0316613Y0085316D01*
X0314013Y0088716D01*
X0313913Y0091760D01*
X0315881Y0091760D02*
X0315931Y0089997D01*
X0318981Y0086497D01*
X0319000Y0082728D01*
X0319000Y0081917D01*
X0319287Y0081630D01*
X0321800Y0081328D02*
X0326600Y0076528D01*
X0326600Y0071628D01*
X0324950Y0069978D01*
X0324950Y0057428D01*
X0319450Y0051928D01*
X0317000Y0051928D01*
X0317000Y0058673D01*
X0316728Y0058402D01*
X0316728Y0056118D01*
X0314169Y0058402D02*
X0314000Y0058232D01*
X0314100Y0062028D01*
X0314250Y0063628D01*
X0318400Y0067528D01*
X0322700Y0067535D02*
X0322817Y0067652D01*
X0316681Y0074716D01*
X0321800Y0081328D02*
X0321500Y0086528D01*
X0320969Y0090310D01*
X0317850Y0091760D01*
X0321131Y0095547D02*
X0323850Y0092228D01*
X0323800Y0082346D01*
X0335331Y0075016D01*
X0335331Y0049417D01*
X0345431Y0043417D01*
X0345331Y0051059D02*
X0345431Y0054614D01*
X0345331Y0051059D02*
X0351000Y0056728D01*
X0351000Y0059478D01*
X0351000Y0087728D01*
X0350500Y0088228D01*
X0346000Y0083728D01*
X0345081Y0080578D01*
X0345331Y0080614D01*
X0345081Y0080578D02*
X0328681Y0084966D01*
X0328531Y0097316D01*
X0326350Y0094578D02*
X0322650Y0098578D01*
X0318400Y0098728D01*
X0315931Y0097859D01*
X0315881Y0095697D01*
X0313913Y0095697D02*
X0313863Y0099141D01*
X0317000Y0100728D01*
X0344020Y0100728D01*
X0345331Y0099417D01*
X0339000Y0106728D02*
X0339000Y0113728D01*
X0343000Y0117728D01*
X0343000Y0120728D01*
X0345000Y0122728D01*
X0345000Y0131587D01*
X0345331Y0131917D01*
X0345331Y0143114D02*
X0346386Y0143114D01*
X0351000Y0147728D01*
X0351000Y0117728D01*
X0350500Y0117228D01*
X0351000Y0116728D01*
X0351000Y0088728D01*
X0350500Y0088228D01*
X0339000Y0075728D02*
X0339000Y0071728D01*
X0341000Y0069728D01*
X0345020Y0069728D01*
X0345331Y0069417D01*
X0339000Y0075728D02*
X0326350Y0083478D01*
X0326350Y0094578D01*
X0321131Y0095547D02*
X0317850Y0095697D01*
X0311944Y0095697D02*
X0312044Y0100572D01*
X0316000Y0102728D01*
X0335000Y0102728D01*
X0339000Y0106728D01*
X0336000Y0107728D02*
X0334000Y0105728D01*
X0316000Y0105728D01*
X0309700Y0103478D01*
X0307550Y0100897D01*
X0307550Y0095697D01*
X0305581Y0095697D02*
X0305631Y0103209D01*
X0316000Y0109728D01*
X0332000Y0109728D01*
X0333000Y0110728D01*
X0333000Y0116728D01*
X0337000Y0120728D01*
X0337000Y0149728D01*
X0339000Y0151728D01*
X0339000Y0180728D01*
X0345331Y0187059D01*
X0345331Y0194417D01*
X0351000Y0203728D02*
X0351000Y0178728D01*
X0351000Y0147728D01*
X0345331Y0153059D02*
X0340000Y0147728D01*
X0340000Y0118728D01*
X0336000Y0114728D01*
X0336000Y0107728D01*
X0345331Y0110614D02*
X0345331Y0112059D01*
X0350500Y0117228D01*
X0311944Y0091760D02*
X0311794Y0087785D01*
X0306492Y0068073D02*
X0301531Y0069785D01*
X0306492Y0068073D02*
X0306492Y0058402D01*
X0306500Y0058394D01*
X0306450Y0056328D01*
X0306500Y0055978D01*
X0306400Y0054128D01*
X0306050Y0052628D01*
X0305850Y0052178D01*
X0304233Y0055161D02*
X0300100Y0052028D01*
X0304233Y0055161D02*
X0303933Y0058402D01*
X0303933Y0062351D01*
X0302831Y0063454D01*
X0298393Y0063454D01*
X0289831Y0070016D01*
X0309051Y0058402D02*
X0309151Y0055080D01*
X0309500Y0052128D01*
X0311300Y0049228D01*
X0292850Y0042328D01*
X0311610Y0054589D02*
X0311610Y0058402D01*
X0311610Y0054589D02*
X0316950Y0045328D01*
X0317500Y0045878D01*
X0330400Y0045878D01*
X0320773Y0058402D02*
X0322100Y0059728D01*
X0322100Y0059778D01*
X0322700Y0060378D01*
X0322700Y0067535D01*
X0320773Y0058402D02*
X0319287Y0058402D01*
X0242000Y0059728D02*
X0235636Y0056964D01*
X0235231Y0056564D01*
X0242000Y0059728D02*
X0242000Y0091728D01*
X0241500Y0092228D01*
X0235331Y0086059D01*
X0235331Y0083114D01*
X0235331Y0087516D01*
X0234831Y0091016D01*
X0241500Y0092228D02*
X0242000Y0092728D01*
X0242000Y0119728D01*
X0235386Y0113114D01*
X0235331Y0113114D01*
X0229000Y0108728D02*
X0229000Y0117728D01*
X0235331Y0124059D01*
X0235331Y0131917D01*
X0224000Y0125728D02*
X0221000Y0122728D01*
X0221000Y0116728D01*
X0218000Y0113728D01*
X0206000Y0113728D01*
X0201937Y0109665D01*
X0201937Y0095445D01*
X0203906Y0095445D02*
X0203906Y0104634D01*
X0208000Y0108728D01*
X0224000Y0108728D01*
X0226000Y0110728D01*
X0226000Y0120728D01*
X0229000Y0123728D01*
X0229000Y0147728D01*
X0236000Y0154728D01*
X0236000Y0163748D01*
X0235331Y0164417D01*
X0229000Y0156728D02*
X0224000Y0151728D01*
X0224000Y0125728D01*
X0242000Y0119728D02*
X0242000Y0148728D01*
X0236386Y0143114D01*
X0235331Y0143114D01*
X0242000Y0148728D02*
X0242000Y0180728D01*
X0236886Y0175614D01*
X0235331Y0175614D01*
X0229000Y0178728D02*
X0229000Y0156728D01*
X0229000Y0178728D02*
X0235000Y0184728D01*
X0235000Y0191587D01*
X0235331Y0191917D01*
X0242000Y0201728D02*
X0242000Y0180728D01*
X0242000Y0201728D02*
X0241000Y0202728D01*
X0235717Y0202728D01*
X0235331Y0203114D01*
X0132000Y0198728D02*
X0132000Y0177728D01*
X0132000Y0150728D01*
X0132000Y0120728D01*
X0132000Y0090728D01*
X0131000Y0089728D01*
X0131000Y0062728D01*
X0125331Y0057059D01*
X0125131Y0056514D01*
X0119000Y0049728D02*
X0119000Y0045728D01*
X0121311Y0044417D01*
X0125131Y0045317D01*
X0119000Y0049728D02*
X0109000Y0058728D01*
X0109000Y0082476D01*
X0099906Y0091571D01*
X0097937Y0091571D02*
X0097937Y0093665D01*
X0097937Y0093212D01*
X0097937Y0093665D02*
X0099000Y0094728D01*
X0103000Y0094728D01*
X0104000Y0093728D01*
X0104000Y0090728D01*
X0112000Y0082728D01*
X0112000Y0077728D01*
X0118000Y0071728D01*
X0125142Y0071728D01*
X0125331Y0071917D01*
X0125331Y0083114D02*
X0125331Y0084059D01*
X0131000Y0089728D01*
X0132000Y0090728D02*
X0133787Y0092516D01*
X0185331Y0092516D01*
X0190331Y0087516D01*
X0193717Y0081630D01*
X0193874Y0079130D01*
X0201537Y0079516D02*
X0201551Y0079130D01*
X0201537Y0079516D02*
X0201937Y0091508D01*
X0203906Y0091508D02*
X0204110Y0091303D01*
X0204110Y0079130D01*
X0206669Y0079130D02*
X0206650Y0079461D01*
X0207000Y0091571D01*
X0208969Y0091571D02*
X0209219Y0079390D01*
X0209228Y0079130D01*
X0211719Y0079698D02*
X0211719Y0082423D01*
X0211150Y0088242D01*
X0210850Y0091428D01*
X0210887Y0091341D01*
X0210937Y0091571D01*
X0212906Y0091571D02*
X0214206Y0090073D01*
X0215000Y0083728D01*
X0215000Y0075728D01*
X0209000Y0069728D01*
X0209000Y0056130D01*
X0209228Y0055902D01*
X0206669Y0055902D02*
X0206750Y0052171D01*
X0208250Y0050928D01*
X0211719Y0051009D01*
X0217000Y0053009D01*
X0221000Y0051728D02*
X0229361Y0044817D01*
X0235231Y0045367D01*
X0221000Y0051728D02*
X0221000Y0068728D01*
X0222000Y0069728D01*
X0222000Y0074728D01*
X0218000Y0078728D01*
X0218000Y0090413D01*
X0212906Y0095508D01*
X0210937Y0095508D02*
X0210937Y0098665D01*
X0212000Y0099728D01*
X0215000Y0099728D01*
X0221000Y0093728D01*
X0221000Y0079728D01*
X0228811Y0071917D01*
X0235331Y0071917D01*
X0217831Y0072516D02*
X0213717Y0058402D01*
X0211787Y0055902D01*
X0204110Y0055902D02*
X0204110Y0048795D01*
X0204131Y0048216D01*
X0201551Y0051236D02*
X0197831Y0047516D01*
X0196081Y0045866D01*
X0201551Y0051236D02*
X0201551Y0055902D01*
X0198992Y0055902D02*
X0198992Y0060573D01*
X0197831Y0064235D01*
X0193324Y0064235D02*
X0195765Y0059294D01*
X0195765Y0059070D01*
X0196433Y0055902D01*
X0193324Y0064235D02*
X0187831Y0064235D01*
X0211787Y0079130D02*
X0211719Y0079698D01*
X0208969Y0095508D02*
X0208969Y0100697D01*
X0210000Y0101728D01*
X0235142Y0101728D01*
X0235331Y0101917D01*
X0229000Y0108728D02*
X0226000Y0105728D01*
X0210000Y0105728D01*
X0207000Y0102728D01*
X0207000Y0095508D01*
X0132000Y0120728D02*
X0125331Y0114059D01*
X0125331Y0113114D01*
X0120000Y0107728D02*
X0120000Y0119728D01*
X0125331Y0125059D01*
X0125331Y0131917D01*
X0116000Y0128728D02*
X0116000Y0159728D01*
X0118000Y0161728D01*
X0118000Y0178728D01*
X0125331Y0186059D01*
X0125331Y0189417D01*
X0132000Y0198728D02*
X0131000Y0199728D01*
X0126217Y0199728D01*
X0125331Y0200614D01*
X0132000Y0177728D02*
X0127386Y0173114D01*
X0125331Y0173114D01*
X0125331Y0161917D02*
X0125331Y0154059D01*
X0120000Y0148728D01*
X0120000Y0124728D01*
X0117000Y0121728D01*
X0117000Y0110728D01*
X0111000Y0104728D01*
X0096000Y0104728D01*
X0091000Y0099728D01*
X0091000Y0091728D01*
X0090906Y0091634D01*
X0089000Y0091697D02*
X0089000Y0101728D01*
X0096000Y0108728D01*
X0110000Y0108728D01*
X0114000Y0112728D01*
X0114000Y0126728D01*
X0116000Y0128728D01*
X0125331Y0143114D02*
X0125331Y0144059D01*
X0132000Y0150728D01*
X0072150Y0110478D02*
X0054150Y0110478D01*
X0047200Y0115878D01*
X0060337Y0089916D02*
X0080831Y0089016D01*
X0080831Y0084673D01*
X0081374Y0079130D01*
X0089051Y0079130D02*
X0089051Y0087583D01*
X0088937Y0087697D01*
X0090906Y0087697D02*
X0091610Y0082992D01*
X0091610Y0079130D01*
X0094169Y0079130D02*
X0094169Y0084020D01*
X0094078Y0086111D01*
X0094078Y0087556D01*
X0094000Y0087634D01*
X0095969Y0087634D02*
X0096000Y0087602D01*
X0096050Y0085028D01*
X0096678Y0082000D01*
X0096728Y0079130D01*
X0099287Y0079130D02*
X0099237Y0081891D01*
X0098800Y0083078D01*
X0098050Y0085871D01*
X0097937Y0087634D01*
X0099906Y0087634D02*
X0100906Y0085823D01*
X0102000Y0083728D01*
X0102000Y0073728D01*
X0097000Y0068728D01*
X0097000Y0056173D01*
X0096728Y0055902D01*
X0094169Y0055902D02*
X0094169Y0051177D01*
X0095331Y0050016D01*
X0100331Y0050016D01*
X0102831Y0052516D01*
X0099287Y0055902D02*
X0099287Y0066472D01*
X0105331Y0072516D01*
X0094000Y0070728D02*
X0092000Y0072728D01*
X0078000Y0072728D01*
X0068000Y0084728D01*
X0063000Y0081728D02*
X0080110Y0063618D01*
X0083933Y0063618D01*
X0087831Y0067516D01*
X0090331Y0067516D01*
X0083933Y0063618D02*
X0083933Y0055902D01*
X0086492Y0055902D02*
X0086492Y0061177D01*
X0090331Y0062516D01*
X0094000Y0062516D01*
X0094000Y0070728D01*
X0075000Y0061728D02*
X0055000Y0081728D01*
X0075000Y0061728D02*
X0075000Y0054728D01*
X0080000Y0049728D01*
X0089051Y0049728D01*
X0089051Y0047295D01*
X0090331Y0046016D01*
X0092331Y0045016D01*
X0100631Y0043766D01*
X0104831Y0047516D02*
X0092831Y0047516D01*
X0091610Y0048736D01*
X0091610Y0055902D01*
X0089051Y0055902D02*
X0089051Y0049728D01*
X0125331Y0083114D02*
X0125331Y0087516D01*
X0122831Y0090016D01*
X0124000Y0096728D02*
X0125331Y0098059D01*
X0125331Y0101917D01*
X0124000Y0096728D02*
X0097000Y0096728D01*
X0096000Y0095728D01*
X0096000Y0091602D01*
X0095969Y0091571D01*
X0094000Y0091571D02*
X0094000Y0097728D01*
X0097000Y0100728D01*
X0113000Y0100728D01*
X0120000Y0107728D01*
X0089000Y0091697D02*
X0088937Y0091634D01*
X0345331Y0153059D02*
X0345331Y0164417D01*
X0345331Y0175614D02*
X0347886Y0175614D01*
X0351000Y0178728D01*
X0351000Y0203728D02*
X0350000Y0204728D01*
X0346217Y0204728D01*
X0345331Y0205614D01*
D20*
X0350480Y0206828D02*
X0350480Y0207516D01*
X0365331Y0207516D01*
X0364948Y0087478D01*
X0360087Y0087478D01*
X0359150Y0086541D01*
X0359150Y0084428D01*
X0357482Y0084428D01*
X0357291Y0084474D01*
X0357009Y0084428D01*
X0356723Y0084428D01*
X0356542Y0084353D01*
X0356349Y0084323D01*
X0356105Y0084172D01*
X0355841Y0084063D01*
X0355702Y0083925D01*
X0355536Y0083822D01*
X0355368Y0083590D01*
X0355165Y0083388D01*
X0355091Y0083207D01*
X0353100Y0080457D01*
X0353100Y0088598D01*
X0353100Y0204598D01*
X0351870Y0205828D01*
X0350870Y0206828D01*
X0350480Y0206828D01*
X0350480Y0207156D02*
X0365330Y0207156D01*
X0365324Y0205557D02*
X0352141Y0205557D01*
X0353100Y0203959D02*
X0365319Y0203959D01*
X0365314Y0202360D02*
X0353100Y0202360D01*
X0353100Y0200762D02*
X0365309Y0200762D01*
X0365304Y0199163D02*
X0353100Y0199163D01*
X0353100Y0197565D02*
X0365299Y0197565D01*
X0365294Y0195966D02*
X0353100Y0195966D01*
X0353100Y0194368D02*
X0365289Y0194368D01*
X0365284Y0192769D02*
X0353100Y0192769D01*
X0353100Y0191171D02*
X0365279Y0191171D01*
X0365274Y0189572D02*
X0353100Y0189572D01*
X0353100Y0187974D02*
X0365268Y0187974D01*
X0365263Y0186375D02*
X0353100Y0186375D01*
X0353100Y0184777D02*
X0365258Y0184777D01*
X0365253Y0183178D02*
X0353100Y0183178D01*
X0353100Y0181579D02*
X0365248Y0181579D01*
X0365243Y0179981D02*
X0353100Y0179981D01*
X0353100Y0178382D02*
X0365238Y0178382D01*
X0365233Y0176784D02*
X0353100Y0176784D01*
X0353100Y0175185D02*
X0365228Y0175185D01*
X0365223Y0173587D02*
X0353100Y0173587D01*
X0353100Y0171988D02*
X0365218Y0171988D01*
X0365212Y0170390D02*
X0353100Y0170390D01*
X0353100Y0168791D02*
X0365207Y0168791D01*
X0365202Y0167193D02*
X0353100Y0167193D01*
X0353100Y0165594D02*
X0365197Y0165594D01*
X0365192Y0163996D02*
X0353100Y0163996D01*
X0353100Y0162397D02*
X0365187Y0162397D01*
X0365182Y0160799D02*
X0353100Y0160799D01*
X0353100Y0159200D02*
X0365177Y0159200D01*
X0365172Y0157602D02*
X0353100Y0157602D01*
X0353100Y0156003D02*
X0365167Y0156003D01*
X0365162Y0154405D02*
X0353100Y0154405D01*
X0353100Y0152806D02*
X0365156Y0152806D01*
X0365151Y0151208D02*
X0353100Y0151208D01*
X0353100Y0149609D02*
X0365146Y0149609D01*
X0365141Y0148011D02*
X0353100Y0148011D01*
X0353100Y0146412D02*
X0365136Y0146412D01*
X0365131Y0144814D02*
X0353100Y0144814D01*
X0353100Y0143215D02*
X0365126Y0143215D01*
X0365121Y0141617D02*
X0353100Y0141617D01*
X0353100Y0140018D02*
X0365116Y0140018D01*
X0365111Y0138420D02*
X0353100Y0138420D01*
X0353100Y0136821D02*
X0365105Y0136821D01*
X0365100Y0135223D02*
X0353100Y0135223D01*
X0353100Y0133624D02*
X0365095Y0133624D01*
X0365090Y0132026D02*
X0353100Y0132026D01*
X0353100Y0130427D02*
X0365085Y0130427D01*
X0365080Y0128829D02*
X0353100Y0128829D01*
X0353100Y0127230D02*
X0365075Y0127230D01*
X0365070Y0125632D02*
X0353100Y0125632D01*
X0353100Y0124033D02*
X0365065Y0124033D01*
X0365060Y0122435D02*
X0353100Y0122435D01*
X0353100Y0120836D02*
X0365055Y0120836D01*
X0365049Y0119238D02*
X0353100Y0119238D01*
X0353100Y0117639D02*
X0365044Y0117639D01*
X0365039Y0116041D02*
X0353100Y0116041D01*
X0353100Y0114442D02*
X0365034Y0114442D01*
X0365029Y0112843D02*
X0353100Y0112843D01*
X0353100Y0111245D02*
X0365024Y0111245D01*
X0365019Y0109646D02*
X0353100Y0109646D01*
X0353100Y0108048D02*
X0365014Y0108048D01*
X0365009Y0106449D02*
X0353100Y0106449D01*
X0353100Y0104851D02*
X0365004Y0104851D01*
X0364999Y0103252D02*
X0353100Y0103252D01*
X0353100Y0101654D02*
X0364993Y0101654D01*
X0364988Y0100055D02*
X0353100Y0100055D01*
X0353100Y0098457D02*
X0364983Y0098457D01*
X0364978Y0096858D02*
X0353100Y0096858D01*
X0353100Y0095260D02*
X0364973Y0095260D01*
X0364968Y0093661D02*
X0353100Y0093661D01*
X0353100Y0092063D02*
X0364963Y0092063D01*
X0364958Y0090464D02*
X0353100Y0090464D01*
X0353100Y0088866D02*
X0364953Y0088866D01*
X0359876Y0087267D02*
X0353100Y0087267D01*
X0353100Y0085669D02*
X0359150Y0085669D01*
X0355858Y0084070D02*
X0353100Y0084070D01*
X0353100Y0082472D02*
X0354558Y0082472D01*
X0353402Y0080873D02*
X0353100Y0080873D01*
X0354450Y0078228D02*
X0354350Y0042425D01*
X0349193Y0037818D01*
X0099814Y0039768D01*
X0093154Y0040778D01*
X0092300Y0041778D01*
X0090850Y0042428D01*
X0086900Y0042428D01*
X0081700Y0047628D01*
X0078680Y0047178D01*
X0072450Y0053408D01*
X0072100Y0058078D01*
X0053481Y0075797D01*
X0052717Y0077947D01*
X0029636Y0101028D01*
X0028000Y0101228D01*
X0031900Y0102158D02*
X0031900Y0105041D01*
X0030963Y0105978D01*
X0029007Y0105978D01*
X0029297Y0196916D01*
X0033065Y0196916D01*
X0036931Y0200782D01*
X0036931Y0201116D01*
X0051101Y0201116D01*
X0051101Y0196916D01*
X0052038Y0195979D01*
X0058482Y0195979D01*
X0059000Y0196497D01*
X0059518Y0195979D01*
X0060340Y0195979D01*
X0060340Y0174330D01*
X0060302Y0174200D01*
X0060340Y0173857D01*
X0060340Y0173511D01*
X0060392Y0173386D01*
X0060407Y0173251D01*
X0060573Y0172948D01*
X0060706Y0172629D01*
X0060801Y0172533D01*
X0060866Y0172414D01*
X0061136Y0172198D01*
X0061381Y0171954D01*
X0061506Y0171902D01*
X0089419Y0149523D01*
X0089419Y0149016D01*
X0089964Y0147700D01*
X0090971Y0146692D01*
X0092288Y0146147D01*
X0093712Y0146147D01*
X0095029Y0146692D01*
X0096036Y0147700D01*
X0096581Y0149016D01*
X0096581Y0150441D01*
X0096036Y0151757D01*
X0095029Y0152764D01*
X0093712Y0153309D01*
X0092370Y0153309D01*
X0065140Y0175140D01*
X0065140Y0195979D01*
X0065962Y0195979D01*
X0066899Y0196916D01*
X0066899Y0204541D01*
X0065962Y0205478D01*
X0059518Y0205478D01*
X0059000Y0204960D01*
X0058482Y0205478D01*
X0053904Y0205478D01*
X0053832Y0205550D01*
X0052950Y0205916D01*
X0036931Y0205916D01*
X0036931Y0206250D01*
X0035664Y0207516D01*
X0145997Y0207516D01*
X0143731Y0205250D01*
X0143731Y0199782D01*
X0147597Y0195916D01*
X0153065Y0195916D01*
X0156931Y0199782D01*
X0156931Y0200116D01*
X0164101Y0200116D01*
X0164101Y0196916D01*
X0165038Y0195979D01*
X0171482Y0195979D01*
X0172000Y0196497D01*
X0172518Y0195979D01*
X0173340Y0195979D01*
X0173340Y0174004D01*
X0173334Y0173542D01*
X0173340Y0173527D01*
X0173340Y0173511D01*
X0173517Y0173085D01*
X0173688Y0172655D01*
X0173699Y0172644D01*
X0173706Y0172629D01*
X0174032Y0172303D01*
X0200469Y0145165D01*
X0200469Y0144216D01*
X0201014Y0142900D01*
X0202021Y0141892D01*
X0203338Y0141347D01*
X0204762Y0141347D01*
X0206079Y0141892D01*
X0207086Y0142900D01*
X0207631Y0144216D01*
X0207631Y0145641D01*
X0207086Y0146957D01*
X0206079Y0147964D01*
X0204762Y0148509D01*
X0203912Y0148509D01*
X0178140Y0174964D01*
X0178140Y0195979D01*
X0178962Y0195979D01*
X0179899Y0196916D01*
X0179899Y0204541D01*
X0178962Y0205478D01*
X0172518Y0205478D01*
X0172000Y0204960D01*
X0171482Y0205478D01*
X0165038Y0205478D01*
X0164476Y0204916D01*
X0156931Y0204916D01*
X0156931Y0205250D01*
X0154664Y0207516D01*
X0230771Y0207516D01*
X0230181Y0206927D01*
X0230181Y0199302D01*
X0231119Y0198365D01*
X0239543Y0198365D01*
X0239900Y0198722D01*
X0239900Y0196310D01*
X0239543Y0196667D01*
X0231119Y0196667D01*
X0230181Y0195730D01*
X0230181Y0188105D01*
X0231119Y0187168D01*
X0232900Y0187168D01*
X0232900Y0185598D01*
X0228130Y0180828D01*
X0226900Y0179598D01*
X0226900Y0157598D01*
X0223130Y0153828D01*
X0221900Y0152598D01*
X0221900Y0126598D01*
X0220130Y0124828D01*
X0218900Y0123598D01*
X0218900Y0117598D01*
X0217130Y0115828D01*
X0205130Y0115828D01*
X0201067Y0111765D01*
X0199837Y0110535D01*
X0199837Y0098029D01*
X0196550Y0098029D01*
X0195613Y0097092D01*
X0195613Y0093798D01*
X0195934Y0093476D01*
X0195613Y0093155D01*
X0195613Y0089861D01*
X0196550Y0088924D01*
X0199750Y0088924D01*
X0199572Y0083584D01*
X0197739Y0083584D01*
X0197713Y0083558D01*
X0197686Y0083584D01*
X0195180Y0083584D01*
X0195154Y0083558D01*
X0195127Y0083584D01*
X0195015Y0083584D01*
X0193598Y0086047D01*
X0193912Y0086803D01*
X0193912Y0088228D01*
X0193367Y0089544D01*
X0192359Y0090552D01*
X0191043Y0091097D01*
X0189719Y0091097D01*
X0187431Y0093386D01*
X0186201Y0094616D01*
X0134100Y0094616D01*
X0134100Y0199598D01*
X0132870Y0200828D01*
X0131870Y0201828D01*
X0130480Y0201828D01*
X0130480Y0204427D01*
X0129543Y0205364D01*
X0121119Y0205364D01*
X0120181Y0204427D01*
X0120181Y0196802D01*
X0121119Y0195865D01*
X0129543Y0195865D01*
X0129900Y0196222D01*
X0129900Y0193810D01*
X0129543Y0194167D01*
X0121119Y0194167D01*
X0120181Y0193230D01*
X0120181Y0185605D01*
X0121044Y0184742D01*
X0115900Y0179598D01*
X0115900Y0162598D01*
X0113900Y0160598D01*
X0113900Y0129598D01*
X0111900Y0127598D01*
X0111900Y0113598D01*
X0109130Y0110828D01*
X0095130Y0110828D01*
X0093900Y0109598D01*
X0086900Y0102598D01*
X0086900Y0094218D01*
X0083550Y0094218D01*
X0082613Y0093281D01*
X0082613Y0092154D01*
X0081543Y0092597D01*
X0080118Y0092597D01*
X0078802Y0092052D01*
X0077993Y0091242D01*
X0063399Y0091883D01*
X0063373Y0091944D01*
X0062366Y0092952D01*
X0061050Y0093497D01*
X0059625Y0093497D01*
X0058309Y0092952D01*
X0057301Y0091944D01*
X0056756Y0090628D01*
X0056756Y0089203D01*
X0057301Y0087887D01*
X0058309Y0086880D01*
X0059625Y0086335D01*
X0061050Y0086335D01*
X0062366Y0086880D01*
X0063175Y0087689D01*
X0065782Y0087575D01*
X0064964Y0086757D01*
X0064419Y0085441D01*
X0064419Y0085017D01*
X0063712Y0085309D01*
X0062288Y0085309D01*
X0060971Y0084764D01*
X0059964Y0083757D01*
X0059419Y0082441D01*
X0059419Y0081016D01*
X0059940Y0079758D01*
X0058581Y0081117D01*
X0058581Y0082441D01*
X0058036Y0083757D01*
X0057029Y0084764D01*
X0055712Y0085309D01*
X0054288Y0085309D01*
X0052971Y0084764D01*
X0051964Y0083757D01*
X0051477Y0082581D01*
X0031900Y0102158D01*
X0032404Y0101654D02*
X0086900Y0101654D01*
X0086900Y0100055D02*
X0034003Y0100055D01*
X0035601Y0098457D02*
X0086900Y0098457D01*
X0086900Y0096858D02*
X0037200Y0096858D01*
X0038798Y0095260D02*
X0086900Y0095260D01*
X0082993Y0093661D02*
X0040397Y0093661D01*
X0041995Y0092063D02*
X0057420Y0092063D01*
X0056756Y0090464D02*
X0043594Y0090464D01*
X0045192Y0088866D02*
X0056896Y0088866D01*
X0057921Y0087267D02*
X0046791Y0087267D01*
X0048389Y0085669D02*
X0064513Y0085669D01*
X0065475Y0087267D02*
X0062753Y0087267D01*
X0060278Y0084070D02*
X0057722Y0084070D01*
X0058568Y0082472D02*
X0059432Y0082472D01*
X0059478Y0080873D02*
X0058825Y0080873D01*
X0061030Y0078668D02*
X0062288Y0078147D01*
X0063494Y0078147D01*
X0078010Y0062783D01*
X0078010Y0062748D01*
X0078604Y0062154D01*
X0079181Y0061544D01*
X0079216Y0061543D01*
X0079240Y0061518D01*
X0080080Y0061518D01*
X0080920Y0061494D01*
X0080945Y0061518D01*
X0081833Y0061518D01*
X0081833Y0060356D01*
X0080121Y0060356D01*
X0079183Y0059419D01*
X0079183Y0053515D01*
X0077100Y0055598D01*
X0077100Y0062598D01*
X0061030Y0078668D01*
X0062022Y0077676D02*
X0063939Y0077676D01*
X0063620Y0076078D02*
X0065450Y0076078D01*
X0065219Y0074479D02*
X0066960Y0074479D01*
X0066817Y0072881D02*
X0068470Y0072881D01*
X0068416Y0071282D02*
X0069980Y0071282D01*
X0070014Y0069684D02*
X0071491Y0069684D01*
X0071613Y0068085D02*
X0073001Y0068085D01*
X0073212Y0066487D02*
X0074511Y0066487D01*
X0074810Y0064888D02*
X0076021Y0064888D01*
X0076409Y0063290D02*
X0077532Y0063290D01*
X0077100Y0061691D02*
X0079042Y0061691D01*
X0079857Y0060093D02*
X0077100Y0060093D01*
X0077100Y0058494D02*
X0079183Y0058494D01*
X0079183Y0056896D02*
X0077100Y0056896D01*
X0077401Y0055297D02*
X0079183Y0055297D01*
X0079183Y0053699D02*
X0079000Y0053699D01*
X0073561Y0048903D02*
X0061677Y0048903D01*
X0060863Y0047305D02*
X0075160Y0047305D01*
X0076758Y0045706D02*
X0059350Y0045706D01*
X0060773Y0047129D02*
X0057499Y0043855D01*
X0057499Y0043855D01*
X0053373Y0041753D01*
X0053373Y0041753D01*
X0048800Y0041028D01*
X0048800Y0041028D01*
X0044227Y0041753D01*
X0044227Y0041753D01*
X0040101Y0043855D01*
X0040101Y0043855D01*
X0036827Y0047129D01*
X0036827Y0047129D01*
X0034724Y0051255D01*
X0034724Y0051255D01*
X0034000Y0055828D01*
X0034000Y0055828D01*
X0034724Y0060402D01*
X0034724Y0060402D01*
X0036827Y0064528D01*
X0036827Y0064528D01*
X0040101Y0067802D01*
X0040101Y0067802D01*
X0044227Y0069904D01*
X0044227Y0069904D01*
X0048800Y0070628D01*
X0048800Y0070628D01*
X0053373Y0069904D01*
X0053373Y0069904D01*
X0057499Y0067802D01*
X0057499Y0067802D01*
X0060773Y0064528D01*
X0060773Y0064528D01*
X0062876Y0060402D01*
X0062876Y0060402D01*
X0063600Y0055828D01*
X0062876Y0051255D01*
X0060773Y0047129D01*
X0060773Y0047129D01*
X0062492Y0050502D02*
X0071963Y0050502D01*
X0070816Y0051648D02*
X0076774Y0045690D01*
X0076868Y0045534D01*
X0077109Y0045356D01*
X0077321Y0045144D01*
X0077489Y0045074D01*
X0077635Y0044966D01*
X0077926Y0044893D01*
X0078203Y0044778D01*
X0078385Y0044778D01*
X0078562Y0044734D01*
X0078858Y0044778D01*
X0079158Y0044778D01*
X0079326Y0044848D01*
X0080858Y0045076D01*
X0084865Y0041069D01*
X0084865Y0041069D01*
X0085541Y0040394D01*
X0086423Y0040028D01*
X0090337Y0040028D01*
X0090825Y0039809D01*
X0091272Y0039286D01*
X0091504Y0038971D01*
X0091580Y0038925D01*
X0091638Y0038857D01*
X0091987Y0038679D01*
X0092322Y0038477D01*
X0092410Y0038464D01*
X0092489Y0038423D01*
X0092879Y0038393D01*
X0099156Y0037440D01*
X0099318Y0037372D01*
X0099624Y0037369D01*
X0099926Y0037323D01*
X0100097Y0037365D01*
X0349116Y0035418D01*
X0349534Y0035395D01*
X0349591Y0035415D01*
X0349651Y0035414D01*
X0350040Y0035571D01*
X0350436Y0035710D01*
X0350480Y0035750D01*
X0350536Y0035773D01*
X0350835Y0036067D01*
X0355642Y0040361D01*
X0355704Y0040387D01*
X0355997Y0040678D01*
X0356305Y0040953D01*
X0356334Y0041013D01*
X0356381Y0041060D01*
X0356540Y0041441D01*
X0356719Y0041813D01*
X0356723Y0041880D01*
X0356749Y0041941D01*
X0356750Y0042354D01*
X0356773Y0042767D01*
X0356751Y0042829D01*
X0356848Y0077448D01*
X0358426Y0079628D01*
X0359150Y0079628D01*
X0359150Y0078916D01*
X0360087Y0077978D01*
X0364918Y0077978D01*
X0364781Y0034866D01*
X0028781Y0034866D01*
X0028977Y0096478D01*
X0030791Y0096478D01*
X0050637Y0076633D01*
X0051091Y0075354D01*
X0051094Y0075261D01*
X0051250Y0074907D01*
X0051380Y0074543D01*
X0051443Y0074474D01*
X0051481Y0074388D01*
X0051761Y0074121D01*
X0052019Y0073835D01*
X0052104Y0073794D01*
X0069776Y0056977D01*
X0070050Y0053319D01*
X0070050Y0052931D01*
X0070085Y0052845D01*
X0070092Y0052753D01*
X0070267Y0052407D01*
X0070415Y0052049D01*
X0070481Y0051983D01*
X0070523Y0051901D01*
X0070816Y0051648D01*
X0070394Y0052100D02*
X0063009Y0052100D01*
X0062876Y0051255D02*
X0062876Y0051255D01*
X0063263Y0053699D02*
X0070022Y0053699D01*
X0069902Y0055297D02*
X0063516Y0055297D01*
X0063431Y0056896D02*
X0069782Y0056896D01*
X0068182Y0058494D02*
X0063178Y0058494D01*
X0062925Y0060093D02*
X0066502Y0060093D01*
X0064822Y0061691D02*
X0062219Y0061691D01*
X0061404Y0063290D02*
X0063143Y0063290D01*
X0061463Y0064888D02*
X0060413Y0064888D01*
X0059783Y0066487D02*
X0058814Y0066487D01*
X0058103Y0068085D02*
X0056943Y0068085D01*
X0056424Y0069684D02*
X0053806Y0069684D01*
X0054744Y0071282D02*
X0028897Y0071282D01*
X0028892Y0069684D02*
X0043794Y0069684D01*
X0040657Y0068085D02*
X0028887Y0068085D01*
X0028881Y0066487D02*
X0038786Y0066487D01*
X0037187Y0064888D02*
X0028876Y0064888D01*
X0028871Y0063290D02*
X0036196Y0063290D01*
X0035381Y0061691D02*
X0028866Y0061691D01*
X0028861Y0060093D02*
X0034675Y0060093D01*
X0034422Y0058494D02*
X0028856Y0058494D01*
X0028851Y0056896D02*
X0034169Y0056896D01*
X0034084Y0055297D02*
X0028846Y0055297D01*
X0028841Y0053699D02*
X0034337Y0053699D01*
X0034590Y0052100D02*
X0028836Y0052100D01*
X0028831Y0050502D02*
X0035108Y0050502D01*
X0035923Y0048903D02*
X0028825Y0048903D01*
X0028820Y0047305D02*
X0036737Y0047305D01*
X0038250Y0045706D02*
X0028815Y0045706D01*
X0028810Y0044108D02*
X0039848Y0044108D01*
X0042742Y0042509D02*
X0028805Y0042509D01*
X0028800Y0040910D02*
X0085024Y0040910D01*
X0083425Y0042509D02*
X0054858Y0042509D01*
X0057499Y0043855D02*
X0057499Y0043855D01*
X0057752Y0044108D02*
X0081827Y0044108D01*
X0085094Y0047628D02*
X0087894Y0044828D01*
X0088513Y0044828D01*
X0088495Y0044881D01*
X0086951Y0046425D01*
X0086951Y0047628D01*
X0085094Y0047628D01*
X0085418Y0047305D02*
X0086951Y0047305D01*
X0087016Y0045706D02*
X0087671Y0045706D01*
X0091250Y0039312D02*
X0028795Y0039312D01*
X0028790Y0037713D02*
X0097355Y0037713D01*
X0103832Y0042136D02*
X0104212Y0043053D01*
X0104212Y0043935D01*
X0105543Y0043935D01*
X0106859Y0044480D01*
X0107867Y0045487D01*
X0108412Y0046803D01*
X0108412Y0048228D01*
X0107867Y0049544D01*
X0106859Y0050552D01*
X0106035Y0050893D01*
X0106412Y0051803D01*
X0106412Y0053228D01*
X0105867Y0054544D01*
X0104859Y0055552D01*
X0103543Y0056097D01*
X0102118Y0056097D01*
X0101478Y0055832D01*
X0101478Y0059419D01*
X0101387Y0059509D01*
X0101387Y0065603D01*
X0104719Y0068935D01*
X0106043Y0068935D01*
X0106900Y0069290D01*
X0106900Y0059534D01*
X0106857Y0059487D01*
X0106900Y0058673D01*
X0106900Y0057858D01*
X0106945Y0057813D01*
X0106949Y0057749D01*
X0107554Y0057204D01*
X0108130Y0056628D01*
X0108194Y0056628D01*
X0116900Y0048793D01*
X0116900Y0046283D01*
X0116744Y0046008D01*
X0116900Y0045444D01*
X0116900Y0044858D01*
X0117123Y0044635D01*
X0117207Y0044331D01*
X0117716Y0044042D01*
X0118130Y0043628D01*
X0118446Y0043628D01*
X0119981Y0042757D01*
X0119981Y0042010D01*
X0103832Y0042136D01*
X0103986Y0042509D02*
X0119981Y0042509D01*
X0117601Y0044108D02*
X0105960Y0044108D01*
X0107957Y0045706D02*
X0116828Y0045706D01*
X0116900Y0047305D02*
X0108412Y0047305D01*
X0108132Y0048903D02*
X0116778Y0048903D01*
X0115002Y0050502D02*
X0106909Y0050502D01*
X0106412Y0052100D02*
X0113226Y0052100D01*
X0111449Y0053699D02*
X0106217Y0053699D01*
X0105114Y0055297D02*
X0109673Y0055297D01*
X0107863Y0056896D02*
X0101478Y0056896D01*
X0101478Y0058494D02*
X0106900Y0058494D01*
X0106900Y0060093D02*
X0101387Y0060093D01*
X0101387Y0061691D02*
X0106900Y0061691D01*
X0106900Y0063290D02*
X0101387Y0063290D01*
X0101387Y0064888D02*
X0106900Y0064888D01*
X0106900Y0066487D02*
X0102271Y0066487D01*
X0103870Y0068085D02*
X0106900Y0068085D01*
X0111100Y0068085D02*
X0120201Y0068085D01*
X0120181Y0068105D02*
X0121119Y0067168D01*
X0128900Y0067168D01*
X0128900Y0063598D01*
X0126566Y0061264D01*
X0120919Y0061264D01*
X0119981Y0060327D01*
X0119981Y0052702D01*
X0120919Y0051765D01*
X0129343Y0051765D01*
X0130280Y0052702D01*
X0130280Y0059038D01*
X0133100Y0061858D01*
X0133100Y0088858D01*
X0134100Y0089858D01*
X0134657Y0090416D01*
X0184461Y0090416D01*
X0186750Y0088127D01*
X0186750Y0086803D01*
X0187295Y0085487D01*
X0188302Y0084480D01*
X0189618Y0083935D01*
X0189968Y0083935D01*
X0191652Y0081008D01*
X0191683Y0080501D01*
X0191683Y0075613D01*
X0192621Y0074676D01*
X0195127Y0074676D01*
X0195154Y0074702D01*
X0195180Y0074676D01*
X0197686Y0074676D01*
X0197713Y0074702D01*
X0197739Y0074676D01*
X0200245Y0074676D01*
X0200272Y0074702D01*
X0200298Y0074676D01*
X0202804Y0074676D01*
X0202831Y0074702D01*
X0202857Y0074676D01*
X0205364Y0074676D01*
X0205390Y0074702D01*
X0205416Y0074676D01*
X0207923Y0074676D01*
X0207949Y0074702D01*
X0207975Y0074676D01*
X0210482Y0074676D01*
X0210508Y0074702D01*
X0210534Y0074676D01*
X0210977Y0074676D01*
X0208130Y0071828D01*
X0206900Y0070598D01*
X0206900Y0060356D01*
X0205416Y0060356D01*
X0205390Y0060330D01*
X0205364Y0060356D01*
X0202857Y0060356D01*
X0202831Y0060330D01*
X0202804Y0060356D01*
X0201245Y0060356D01*
X0201257Y0060379D01*
X0201092Y0060898D01*
X0201092Y0061443D01*
X0200839Y0061696D01*
X0200723Y0062062D01*
X0200867Y0062206D01*
X0201412Y0063522D01*
X0201412Y0064947D01*
X0200867Y0066263D01*
X0199859Y0067271D01*
X0198543Y0067816D01*
X0197118Y0067816D01*
X0195802Y0067271D01*
X0194795Y0066263D01*
X0194682Y0065992D01*
X0194462Y0066066D01*
X0194194Y0066335D01*
X0193670Y0066335D01*
X0193174Y0066503D01*
X0192834Y0066335D01*
X0190795Y0066335D01*
X0189859Y0067271D01*
X0188543Y0067816D01*
X0187118Y0067816D01*
X0185802Y0067271D01*
X0184795Y0066263D01*
X0184250Y0064947D01*
X0184250Y0063522D01*
X0184795Y0062206D01*
X0185802Y0061199D01*
X0187118Y0060654D01*
X0188543Y0060654D01*
X0189859Y0061199D01*
X0190795Y0062135D01*
X0192019Y0062135D01*
X0192898Y0060356D01*
X0192621Y0060356D01*
X0191683Y0059419D01*
X0191683Y0052384D01*
X0192621Y0051447D01*
X0195127Y0051447D01*
X0195154Y0051473D01*
X0195180Y0051447D01*
X0197686Y0051447D01*
X0197713Y0051473D01*
X0197739Y0051447D01*
X0198792Y0051447D01*
X0196792Y0049447D01*
X0195368Y0049447D01*
X0194052Y0048902D01*
X0193045Y0047894D01*
X0192500Y0046578D01*
X0192500Y0045153D01*
X0193045Y0043837D01*
X0194052Y0042830D01*
X0195368Y0042285D01*
X0196793Y0042285D01*
X0198109Y0042830D01*
X0199117Y0043837D01*
X0199662Y0045153D01*
X0199662Y0046356D01*
X0199904Y0046585D01*
X0199905Y0046620D01*
X0200620Y0047335D01*
X0201095Y0046187D01*
X0202102Y0045180D01*
X0203418Y0044635D01*
X0204843Y0044635D01*
X0206159Y0045180D01*
X0207167Y0046187D01*
X0207712Y0047503D01*
X0207712Y0048769D01*
X0208373Y0048831D01*
X0211291Y0048899D01*
X0211649Y0048737D01*
X0212127Y0048918D01*
X0212638Y0048930D01*
X0212909Y0049215D01*
X0214955Y0049990D01*
X0214971Y0049974D01*
X0216288Y0049428D01*
X0217712Y0049428D01*
X0219029Y0049974D01*
X0219390Y0050335D01*
X0219585Y0050173D01*
X0220130Y0049628D01*
X0220244Y0049628D01*
X0228021Y0043201D01*
X0228691Y0042645D01*
X0228692Y0042645D01*
X0228694Y0042645D01*
X0229560Y0042727D01*
X0230081Y0042776D01*
X0230081Y0041555D01*
X0230491Y0041146D01*
X0130280Y0041930D01*
X0130280Y0049130D01*
X0129343Y0050067D01*
X0121100Y0050067D01*
X0121100Y0050598D01*
X0121055Y0050643D01*
X0121051Y0050707D01*
X0120446Y0051252D01*
X0119870Y0051828D01*
X0119806Y0051828D01*
X0111100Y0059664D01*
X0111100Y0075659D01*
X0111130Y0075628D01*
X0117130Y0069628D01*
X0120181Y0069628D01*
X0120181Y0068105D01*
X0117075Y0069684D02*
X0111100Y0069684D01*
X0111100Y0071282D02*
X0115476Y0071282D01*
X0113878Y0072881D02*
X0111100Y0072881D01*
X0111100Y0074479D02*
X0112279Y0074479D01*
X0111130Y0075628D02*
X0111130Y0075628D01*
X0114100Y0078598D02*
X0114100Y0083598D01*
X0112870Y0084828D01*
X0112870Y0084828D01*
X0106100Y0091598D01*
X0106100Y0094598D01*
X0106070Y0094628D01*
X0124870Y0094628D01*
X0126201Y0095959D01*
X0127409Y0097168D01*
X0129543Y0097168D01*
X0129900Y0097525D01*
X0129900Y0091598D01*
X0128900Y0090598D01*
X0127059Y0088757D01*
X0126412Y0089404D01*
X0126412Y0090728D01*
X0125867Y0092044D01*
X0124859Y0093052D01*
X0123543Y0093597D01*
X0122118Y0093597D01*
X0120802Y0093052D01*
X0119795Y0092044D01*
X0119250Y0090728D01*
X0119250Y0089303D01*
X0119795Y0087987D01*
X0120519Y0087264D01*
X0120181Y0086927D01*
X0120181Y0079302D01*
X0121119Y0078365D01*
X0128900Y0078365D01*
X0128900Y0076667D01*
X0121119Y0076667D01*
X0120181Y0075730D01*
X0120181Y0073828D01*
X0118870Y0073828D01*
X0114100Y0078598D01*
X0114100Y0079275D02*
X0120209Y0079275D01*
X0120181Y0080873D02*
X0114100Y0080873D01*
X0114100Y0082472D02*
X0120181Y0082472D01*
X0120181Y0084070D02*
X0113628Y0084070D01*
X0112029Y0085669D02*
X0120181Y0085669D01*
X0120515Y0087267D02*
X0110431Y0087267D01*
X0108832Y0088866D02*
X0119431Y0088866D01*
X0119250Y0090464D02*
X0107234Y0090464D01*
X0106100Y0092063D02*
X0119813Y0092063D01*
X0125848Y0092063D02*
X0129900Y0092063D01*
X0129900Y0093661D02*
X0106100Y0093661D01*
X0114070Y0098828D02*
X0120181Y0104940D01*
X0120181Y0098828D01*
X0114070Y0098828D01*
X0115297Y0100055D02*
X0120181Y0100055D01*
X0120181Y0101654D02*
X0116895Y0101654D01*
X0118494Y0103252D02*
X0120181Y0103252D01*
X0120181Y0104851D02*
X0120092Y0104851D01*
X0121908Y0106667D02*
X0122100Y0106858D01*
X0122100Y0108365D01*
X0129543Y0108365D01*
X0129900Y0108722D01*
X0129900Y0106310D01*
X0129543Y0106667D01*
X0121908Y0106667D01*
X0122100Y0108048D02*
X0129900Y0108048D01*
X0129900Y0106449D02*
X0129760Y0106449D01*
X0134100Y0106449D02*
X0199837Y0106449D01*
X0199837Y0104851D02*
X0134100Y0104851D01*
X0134100Y0103252D02*
X0199837Y0103252D01*
X0199837Y0101654D02*
X0134100Y0101654D01*
X0134100Y0100055D02*
X0199837Y0100055D01*
X0199837Y0098457D02*
X0134100Y0098457D01*
X0134100Y0096858D02*
X0195613Y0096858D01*
X0195613Y0095260D02*
X0134100Y0095260D01*
X0129900Y0095260D02*
X0125501Y0095260D01*
X0127100Y0096858D02*
X0129900Y0096858D01*
X0128766Y0090464D02*
X0126412Y0090464D01*
X0126950Y0088866D02*
X0127168Y0088866D01*
X0133107Y0088866D02*
X0186011Y0088866D01*
X0186750Y0087267D02*
X0133100Y0087267D01*
X0133100Y0085669D02*
X0187220Y0085669D01*
X0189291Y0084070D02*
X0133100Y0084070D01*
X0133100Y0082472D02*
X0190810Y0082472D01*
X0191660Y0080873D02*
X0133100Y0080873D01*
X0133100Y0079275D02*
X0191683Y0079275D01*
X0191683Y0077676D02*
X0133100Y0077676D01*
X0133100Y0076078D02*
X0191683Y0076078D01*
X0194735Y0084070D02*
X0199588Y0084070D01*
X0199641Y0085669D02*
X0193816Y0085669D01*
X0193912Y0087267D02*
X0199694Y0087267D01*
X0199748Y0088866D02*
X0193648Y0088866D01*
X0192447Y0090464D02*
X0195613Y0090464D01*
X0195613Y0092063D02*
X0188753Y0092063D01*
X0187431Y0093386D02*
X0187431Y0093386D01*
X0187155Y0093661D02*
X0195749Y0093661D01*
X0215293Y0096090D02*
X0215293Y0096466D01*
X0218900Y0092858D01*
X0218900Y0092483D01*
X0215293Y0096090D01*
X0216123Y0095260D02*
X0216499Y0095260D01*
X0217722Y0093661D02*
X0218097Y0093661D01*
X0220840Y0096858D02*
X0239900Y0096858D01*
X0239543Y0097168D02*
X0239900Y0097525D01*
X0239900Y0093598D01*
X0239400Y0093098D01*
X0238300Y0091998D01*
X0237867Y0093044D01*
X0236859Y0094052D01*
X0235543Y0094597D01*
X0234118Y0094597D01*
X0232802Y0094052D01*
X0231795Y0093044D01*
X0231250Y0091728D01*
X0231250Y0090303D01*
X0231795Y0088987D01*
X0232802Y0087980D01*
X0233082Y0087864D01*
X0231119Y0087864D01*
X0230181Y0086927D01*
X0230181Y0079302D01*
X0231119Y0078365D01*
X0239543Y0078365D01*
X0239900Y0078722D01*
X0239900Y0076310D01*
X0239543Y0076667D01*
X0231119Y0076667D01*
X0230181Y0075730D01*
X0230181Y0074017D01*
X0229681Y0074017D01*
X0223100Y0080598D01*
X0223100Y0094598D01*
X0218070Y0099628D01*
X0230181Y0099628D01*
X0230181Y0098105D01*
X0231119Y0097168D01*
X0239543Y0097168D01*
X0239900Y0095260D02*
X0222438Y0095260D01*
X0223100Y0093661D02*
X0232412Y0093661D01*
X0231388Y0092063D02*
X0223100Y0092063D01*
X0223100Y0090464D02*
X0231250Y0090464D01*
X0231916Y0088866D02*
X0223100Y0088866D01*
X0223100Y0087267D02*
X0230522Y0087267D01*
X0230181Y0085669D02*
X0223100Y0085669D01*
X0223100Y0084070D02*
X0230181Y0084070D01*
X0230181Y0082472D02*
X0223100Y0082472D01*
X0223100Y0080873D02*
X0230181Y0080873D01*
X0230209Y0079275D02*
X0224423Y0079275D01*
X0226022Y0077676D02*
X0239900Y0077676D01*
X0244100Y0077676D02*
X0299620Y0077676D01*
X0299183Y0078113D02*
X0300121Y0077176D01*
X0302627Y0077176D01*
X0302654Y0077202D01*
X0302680Y0077176D01*
X0305186Y0077176D01*
X0305213Y0077202D01*
X0305239Y0077176D01*
X0307745Y0077176D01*
X0307772Y0077202D01*
X0307798Y0077176D01*
X0310304Y0077176D01*
X0310331Y0077202D01*
X0310357Y0077176D01*
X0312864Y0077176D01*
X0312890Y0077202D01*
X0312916Y0077176D01*
X0314076Y0077176D01*
X0313645Y0076744D01*
X0313100Y0075428D01*
X0313100Y0074003D01*
X0313645Y0072687D01*
X0314652Y0071680D01*
X0315968Y0071135D01*
X0317010Y0071135D01*
X0317205Y0070910D01*
X0316371Y0070564D01*
X0315364Y0069557D01*
X0314819Y0068241D01*
X0314819Y0067045D01*
X0312860Y0065204D01*
X0312240Y0064690D01*
X0312233Y0064615D01*
X0312178Y0064563D01*
X0312153Y0063759D01*
X0312083Y0063009D01*
X0312024Y0062953D01*
X0312021Y0062856D01*
X0310357Y0062856D01*
X0310331Y0062830D01*
X0310304Y0062856D01*
X0308592Y0062856D01*
X0308592Y0067721D01*
X0308761Y0068211D01*
X0308592Y0068557D01*
X0308592Y0068943D01*
X0308226Y0069309D01*
X0307999Y0069775D01*
X0307635Y0069901D01*
X0307362Y0070173D01*
X0306844Y0070173D01*
X0304979Y0070816D01*
X0304567Y0071813D01*
X0303559Y0072821D01*
X0302243Y0073366D01*
X0300818Y0073366D01*
X0299502Y0072821D01*
X0298495Y0071813D01*
X0297950Y0070497D01*
X0297950Y0069072D01*
X0298495Y0067756D01*
X0299502Y0066749D01*
X0300818Y0066204D01*
X0302243Y0066204D01*
X0303559Y0066749D01*
X0303645Y0066834D01*
X0304392Y0066576D01*
X0304392Y0064862D01*
X0303701Y0065554D01*
X0299105Y0065554D01*
X0293412Y0069917D01*
X0293412Y0070728D01*
X0292867Y0072044D01*
X0291859Y0073052D01*
X0290543Y0073597D01*
X0289118Y0073597D01*
X0287802Y0073052D01*
X0286795Y0072044D01*
X0286250Y0070728D01*
X0286250Y0069303D01*
X0286795Y0067987D01*
X0287802Y0066980D01*
X0289118Y0066435D01*
X0290543Y0066435D01*
X0290873Y0066571D01*
X0297006Y0061871D01*
X0297523Y0061354D01*
X0297681Y0061354D01*
X0297806Y0061258D01*
X0298531Y0061354D01*
X0299183Y0061354D01*
X0299183Y0055525D01*
X0298071Y0055064D01*
X0297064Y0054057D01*
X0296519Y0052741D01*
X0296519Y0051316D01*
X0297064Y0050000D01*
X0298071Y0048992D01*
X0299388Y0048447D01*
X0300812Y0048447D01*
X0302129Y0048992D01*
X0303050Y0049914D01*
X0303821Y0049142D01*
X0304416Y0048896D01*
X0294904Y0045339D01*
X0294879Y0045364D01*
X0293562Y0045909D01*
X0292138Y0045909D01*
X0290821Y0045364D01*
X0289814Y0044357D01*
X0289269Y0043041D01*
X0289269Y0041616D01*
X0289655Y0040683D01*
X0239897Y0041072D01*
X0240380Y0041555D01*
X0240380Y0049180D01*
X0239443Y0050117D01*
X0231019Y0050117D01*
X0230081Y0049180D01*
X0230081Y0046994D01*
X0230030Y0046989D01*
X0223100Y0052717D01*
X0223100Y0067858D01*
X0224100Y0068858D01*
X0224100Y0073659D01*
X0227941Y0069817D01*
X0230181Y0069817D01*
X0230181Y0068105D01*
X0231119Y0067168D01*
X0239543Y0067168D01*
X0239900Y0067525D01*
X0239900Y0061106D01*
X0239726Y0061030D01*
X0239443Y0061314D01*
X0231019Y0061314D01*
X0230081Y0060377D01*
X0230081Y0052752D01*
X0231019Y0051815D01*
X0239443Y0051815D01*
X0240380Y0052752D01*
X0240380Y0056735D01*
X0242436Y0057628D01*
X0242870Y0057628D01*
X0243203Y0057961D01*
X0243634Y0058149D01*
X0243793Y0058552D01*
X0244100Y0058858D01*
X0244100Y0059329D01*
X0244273Y0059767D01*
X0244100Y0060165D01*
X0244100Y0202598D01*
X0242870Y0203828D01*
X0241870Y0204828D01*
X0240480Y0204828D01*
X0240480Y0206927D01*
X0239891Y0207516D01*
X0256231Y0207516D01*
X0256231Y0202282D01*
X0260097Y0198416D01*
X0265565Y0198416D01*
X0266477Y0199328D01*
X0293101Y0199328D01*
X0293101Y0197916D01*
X0294038Y0196979D01*
X0300482Y0196979D01*
X0301000Y0197497D01*
X0301518Y0196979D01*
X0307962Y0196979D01*
X0308899Y0197916D01*
X0308899Y0199328D01*
X0318477Y0199328D01*
X0319359Y0199694D01*
X0319813Y0200147D01*
X0320712Y0200147D01*
X0322029Y0200692D01*
X0323036Y0201700D01*
X0323581Y0203016D01*
X0323581Y0204441D01*
X0323036Y0205757D01*
X0322029Y0206764D01*
X0320712Y0207309D01*
X0319288Y0207309D01*
X0317971Y0206764D01*
X0316964Y0205757D01*
X0316419Y0204441D01*
X0316419Y0204128D01*
X0308899Y0204128D01*
X0308899Y0205541D01*
X0307962Y0206478D01*
X0301518Y0206478D01*
X0301000Y0205960D01*
X0300482Y0206478D01*
X0294038Y0206478D01*
X0293101Y0205541D01*
X0293101Y0204128D01*
X0269431Y0204128D01*
X0269431Y0207516D01*
X0340181Y0207516D01*
X0340181Y0201802D01*
X0341119Y0200865D01*
X0348900Y0200865D01*
X0348900Y0199167D01*
X0341119Y0199167D01*
X0340181Y0198230D01*
X0340181Y0190605D01*
X0341119Y0189668D01*
X0343231Y0189668D01*
X0343231Y0187929D01*
X0338130Y0182828D01*
X0336900Y0181598D01*
X0336900Y0152598D01*
X0336130Y0151828D01*
X0334900Y0150598D01*
X0334900Y0121598D01*
X0332130Y0118828D01*
X0330900Y0117598D01*
X0330900Y0111828D01*
X0316236Y0111828D01*
X0315619Y0111969D01*
X0315395Y0111828D01*
X0315130Y0111828D01*
X0314682Y0111380D01*
X0305032Y0105313D01*
X0304775Y0105315D01*
X0304319Y0104865D01*
X0303777Y0104524D01*
X0303720Y0104274D01*
X0303537Y0104093D01*
X0303533Y0103453D01*
X0303390Y0102828D01*
X0303527Y0102611D01*
X0303498Y0098281D01*
X0300712Y0098281D01*
X0300712Y0098928D01*
X0300167Y0100244D01*
X0299159Y0101252D01*
X0297843Y0101797D01*
X0296418Y0101797D01*
X0295102Y0101252D01*
X0294095Y0100244D01*
X0293550Y0098928D01*
X0293550Y0097503D01*
X0294095Y0096187D01*
X0295102Y0095180D01*
X0295948Y0094829D01*
X0299183Y0083970D01*
X0299183Y0078113D01*
X0299183Y0079275D02*
X0244100Y0079275D01*
X0244100Y0080873D02*
X0299183Y0080873D01*
X0299183Y0082472D02*
X0244100Y0082472D01*
X0244100Y0084070D02*
X0274104Y0084070D01*
X0275000Y0083928D02*
X0275000Y0083928D01*
X0279573Y0084653D01*
X0279573Y0084653D01*
X0283699Y0086755D01*
X0283699Y0086755D01*
X0286973Y0090029D01*
X0289076Y0094155D01*
X0289800Y0098728D01*
X0289076Y0103302D01*
X0286973Y0107428D01*
X0283699Y0110702D01*
X0279573Y0112804D01*
X0275000Y0113528D01*
X0270427Y0112804D01*
X0266301Y0110702D01*
X0266301Y0110702D01*
X0263027Y0107428D01*
X0263027Y0107428D01*
X0260924Y0103302D01*
X0260924Y0103302D01*
X0260200Y0098728D01*
X0260924Y0094155D01*
X0263027Y0090029D01*
X0266301Y0086755D01*
X0270427Y0084653D01*
X0275000Y0083928D01*
X0275896Y0084070D02*
X0299154Y0084070D01*
X0298677Y0085669D02*
X0281568Y0085669D01*
X0284212Y0087267D02*
X0298201Y0087267D01*
X0297725Y0088866D02*
X0285810Y0088866D01*
X0286973Y0090029D02*
X0286973Y0090029D01*
X0287195Y0090464D02*
X0297249Y0090464D01*
X0296773Y0092063D02*
X0288010Y0092063D01*
X0288824Y0093661D02*
X0296296Y0093661D01*
X0295022Y0095260D02*
X0289251Y0095260D01*
X0289076Y0094155D02*
X0289076Y0094155D01*
X0289504Y0096858D02*
X0293817Y0096858D01*
X0293550Y0098457D02*
X0289757Y0098457D01*
X0289590Y0100055D02*
X0294017Y0100055D01*
X0296073Y0101654D02*
X0289337Y0101654D01*
X0289083Y0103252D02*
X0303487Y0103252D01*
X0303521Y0101654D02*
X0298188Y0101654D01*
X0300245Y0100055D02*
X0303510Y0100055D01*
X0303499Y0098457D02*
X0300712Y0098457D01*
X0304297Y0104851D02*
X0288286Y0104851D01*
X0289076Y0103302D02*
X0289076Y0103302D01*
X0287472Y0106449D02*
X0306839Y0106449D01*
X0309382Y0108048D02*
X0286353Y0108048D01*
X0286973Y0107428D02*
X0286973Y0107428D01*
X0286973Y0107428D01*
X0284755Y0109646D02*
X0311924Y0109646D01*
X0314467Y0111245D02*
X0282633Y0111245D01*
X0283699Y0110702D02*
X0283699Y0110702D01*
X0279573Y0112804D02*
X0279573Y0112804D01*
X0279324Y0112843D02*
X0330900Y0112843D01*
X0330900Y0114442D02*
X0244100Y0114442D01*
X0244100Y0116041D02*
X0330900Y0116041D01*
X0330941Y0117639D02*
X0244100Y0117639D01*
X0244100Y0119238D02*
X0332539Y0119238D01*
X0334138Y0120836D02*
X0244100Y0120836D01*
X0244100Y0122435D02*
X0334900Y0122435D01*
X0334900Y0124033D02*
X0244100Y0124033D01*
X0244100Y0125632D02*
X0334900Y0125632D01*
X0334900Y0127230D02*
X0244100Y0127230D01*
X0244100Y0128829D02*
X0334900Y0128829D01*
X0334900Y0130427D02*
X0244100Y0130427D01*
X0244100Y0132026D02*
X0334900Y0132026D01*
X0334900Y0133624D02*
X0244100Y0133624D01*
X0244100Y0135223D02*
X0334900Y0135223D01*
X0334900Y0136821D02*
X0244100Y0136821D01*
X0244100Y0138420D02*
X0334900Y0138420D01*
X0334900Y0140018D02*
X0244100Y0140018D01*
X0244100Y0141617D02*
X0334900Y0141617D01*
X0334900Y0143215D02*
X0244100Y0143215D01*
X0244100Y0144814D02*
X0334900Y0144814D01*
X0334900Y0146412D02*
X0244100Y0146412D01*
X0244100Y0148011D02*
X0334900Y0148011D01*
X0334900Y0149609D02*
X0244100Y0149609D01*
X0244100Y0151208D02*
X0335510Y0151208D01*
X0336900Y0152806D02*
X0244100Y0152806D01*
X0244100Y0154405D02*
X0336900Y0154405D01*
X0336900Y0156003D02*
X0244100Y0156003D01*
X0244100Y0157602D02*
X0336900Y0157602D01*
X0336900Y0159200D02*
X0244100Y0159200D01*
X0244100Y0160799D02*
X0336900Y0160799D01*
X0336900Y0162397D02*
X0244100Y0162397D01*
X0244100Y0163996D02*
X0336900Y0163996D01*
X0336900Y0165594D02*
X0244100Y0165594D01*
X0244100Y0167193D02*
X0336900Y0167193D01*
X0336900Y0168791D02*
X0244100Y0168791D01*
X0244100Y0170390D02*
X0336900Y0170390D01*
X0336900Y0171988D02*
X0244100Y0171988D01*
X0244100Y0173587D02*
X0336900Y0173587D01*
X0336900Y0175185D02*
X0244100Y0175185D01*
X0244100Y0176784D02*
X0336900Y0176784D01*
X0336900Y0178382D02*
X0244100Y0178382D01*
X0244100Y0179981D02*
X0336900Y0179981D01*
X0336900Y0181579D02*
X0244100Y0181579D01*
X0244100Y0183178D02*
X0338480Y0183178D01*
X0340078Y0184777D02*
X0244100Y0184777D01*
X0244100Y0186375D02*
X0341677Y0186375D01*
X0343231Y0187974D02*
X0244100Y0187974D01*
X0244100Y0189572D02*
X0343231Y0189572D01*
X0340181Y0191171D02*
X0244100Y0191171D01*
X0244100Y0192769D02*
X0340181Y0192769D01*
X0340181Y0194368D02*
X0244100Y0194368D01*
X0244100Y0195966D02*
X0340181Y0195966D01*
X0340181Y0197565D02*
X0308548Y0197565D01*
X0308899Y0199163D02*
X0341115Y0199163D01*
X0340181Y0202360D02*
X0323309Y0202360D01*
X0323581Y0203959D02*
X0340181Y0203959D01*
X0340181Y0205557D02*
X0323119Y0205557D01*
X0321084Y0207156D02*
X0340181Y0207156D01*
X0348900Y0200762D02*
X0322098Y0200762D01*
X0320000Y0203728D02*
X0318000Y0201728D01*
X0304740Y0201728D01*
X0297260Y0201728D02*
X0266118Y0201728D01*
X0262831Y0205016D01*
X0269431Y0205557D02*
X0293117Y0205557D01*
X0293101Y0199163D02*
X0266312Y0199163D01*
X0259350Y0199163D02*
X0244100Y0199163D01*
X0244100Y0197565D02*
X0293452Y0197565D01*
X0308883Y0205557D02*
X0316881Y0205557D01*
X0318916Y0207156D02*
X0269431Y0207156D01*
X0257751Y0200762D02*
X0244100Y0200762D01*
X0244100Y0202360D02*
X0256231Y0202360D01*
X0256231Y0203959D02*
X0242740Y0203959D01*
X0240480Y0205557D02*
X0256231Y0205557D01*
X0256231Y0207156D02*
X0240251Y0207156D01*
X0230411Y0207156D02*
X0155025Y0207156D01*
X0156623Y0205557D02*
X0230181Y0205557D01*
X0230181Y0203959D02*
X0179899Y0203959D01*
X0179899Y0202360D02*
X0230181Y0202360D01*
X0230181Y0200762D02*
X0179899Y0200762D01*
X0179899Y0199163D02*
X0230320Y0199163D01*
X0230418Y0195966D02*
X0178140Y0195966D01*
X0178140Y0194368D02*
X0230181Y0194368D01*
X0230181Y0192769D02*
X0178140Y0192769D01*
X0178140Y0191171D02*
X0230181Y0191171D01*
X0230181Y0189572D02*
X0178140Y0189572D01*
X0178140Y0187974D02*
X0230313Y0187974D01*
X0232900Y0186375D02*
X0178140Y0186375D01*
X0178140Y0184777D02*
X0232078Y0184777D01*
X0230480Y0183178D02*
X0178140Y0183178D01*
X0178140Y0181579D02*
X0228881Y0181579D01*
X0227283Y0179981D02*
X0178140Y0179981D01*
X0178140Y0178382D02*
X0226900Y0178382D01*
X0226900Y0176784D02*
X0178140Y0176784D01*
X0178140Y0175185D02*
X0226900Y0175185D01*
X0226900Y0173587D02*
X0179482Y0173587D01*
X0181039Y0171988D02*
X0226900Y0171988D01*
X0226900Y0170390D02*
X0182596Y0170390D01*
X0184153Y0168791D02*
X0226900Y0168791D01*
X0226900Y0167193D02*
X0185711Y0167193D01*
X0187268Y0165594D02*
X0226900Y0165594D01*
X0226900Y0163996D02*
X0188825Y0163996D01*
X0190382Y0162397D02*
X0226900Y0162397D01*
X0226900Y0160799D02*
X0191940Y0160799D01*
X0193497Y0159200D02*
X0226900Y0159200D01*
X0226900Y0157602D02*
X0195054Y0157602D01*
X0196611Y0156003D02*
X0225305Y0156003D01*
X0223707Y0154405D02*
X0198169Y0154405D01*
X0199726Y0152806D02*
X0222108Y0152806D01*
X0221900Y0151208D02*
X0201283Y0151208D01*
X0202841Y0149609D02*
X0221900Y0149609D01*
X0221900Y0148011D02*
X0205966Y0148011D01*
X0207312Y0146412D02*
X0221900Y0146412D01*
X0221900Y0144814D02*
X0207631Y0144814D01*
X0207217Y0143215D02*
X0221900Y0143215D01*
X0221900Y0141617D02*
X0205413Y0141617D01*
X0202687Y0141617D02*
X0134100Y0141617D01*
X0134100Y0143215D02*
X0200883Y0143215D01*
X0200469Y0144814D02*
X0134100Y0144814D01*
X0134100Y0146412D02*
X0199254Y0146412D01*
X0197697Y0148011D02*
X0134100Y0148011D01*
X0134100Y0149609D02*
X0196139Y0149609D01*
X0194582Y0151208D02*
X0134100Y0151208D01*
X0134100Y0152806D02*
X0193025Y0152806D01*
X0191468Y0154405D02*
X0134100Y0154405D01*
X0134100Y0156003D02*
X0189910Y0156003D01*
X0188353Y0157602D02*
X0134100Y0157602D01*
X0134100Y0159200D02*
X0186796Y0159200D01*
X0185238Y0160799D02*
X0134100Y0160799D01*
X0134100Y0162397D02*
X0183681Y0162397D01*
X0182124Y0163996D02*
X0134100Y0163996D01*
X0134100Y0165594D02*
X0180567Y0165594D01*
X0179009Y0167193D02*
X0134100Y0167193D01*
X0134100Y0168791D02*
X0177452Y0168791D01*
X0175895Y0170390D02*
X0134100Y0170390D01*
X0134100Y0171988D02*
X0174338Y0171988D01*
X0173335Y0173587D02*
X0134100Y0173587D01*
X0134100Y0175185D02*
X0173340Y0175185D01*
X0173340Y0176784D02*
X0134100Y0176784D01*
X0134100Y0178382D02*
X0173340Y0178382D01*
X0173340Y0179981D02*
X0134100Y0179981D01*
X0134100Y0181579D02*
X0173340Y0181579D01*
X0173340Y0183178D02*
X0134100Y0183178D01*
X0134100Y0184777D02*
X0173340Y0184777D01*
X0173340Y0186375D02*
X0134100Y0186375D01*
X0134100Y0187974D02*
X0173340Y0187974D01*
X0173340Y0189572D02*
X0134100Y0189572D01*
X0134100Y0191171D02*
X0173340Y0191171D01*
X0173340Y0192769D02*
X0134100Y0192769D01*
X0134100Y0194368D02*
X0173340Y0194368D01*
X0173340Y0195966D02*
X0153115Y0195966D01*
X0154713Y0197565D02*
X0164101Y0197565D01*
X0164101Y0199163D02*
X0156312Y0199163D01*
X0150331Y0202516D02*
X0166472Y0202516D01*
X0168260Y0200728D01*
X0175740Y0200728D02*
X0175740Y0173988D01*
X0204050Y0144928D01*
X0221900Y0140018D02*
X0134100Y0140018D01*
X0134100Y0138420D02*
X0221900Y0138420D01*
X0221900Y0136821D02*
X0134100Y0136821D01*
X0134100Y0135223D02*
X0221900Y0135223D01*
X0221900Y0133624D02*
X0134100Y0133624D01*
X0134100Y0132026D02*
X0221900Y0132026D01*
X0221900Y0130427D02*
X0134100Y0130427D01*
X0134100Y0128829D02*
X0221900Y0128829D01*
X0221900Y0127230D02*
X0134100Y0127230D01*
X0134100Y0125632D02*
X0220933Y0125632D01*
X0219335Y0124033D02*
X0134100Y0124033D01*
X0134100Y0122435D02*
X0218900Y0122435D01*
X0218900Y0120836D02*
X0134100Y0120836D01*
X0134100Y0119238D02*
X0218900Y0119238D01*
X0218900Y0117639D02*
X0134100Y0117639D01*
X0134100Y0116041D02*
X0217342Y0116041D01*
X0220100Y0112858D02*
X0223100Y0115858D01*
X0223100Y0121858D01*
X0226100Y0124858D01*
X0226100Y0150858D01*
X0231100Y0155858D01*
X0231100Y0159686D01*
X0231119Y0159668D01*
X0233900Y0159668D01*
X0233900Y0155598D01*
X0228130Y0149828D01*
X0226900Y0148598D01*
X0226900Y0124598D01*
X0225130Y0122828D01*
X0223900Y0121598D01*
X0223900Y0111598D01*
X0223130Y0110828D01*
X0207130Y0110828D01*
X0204037Y0107735D01*
X0204037Y0108795D01*
X0206870Y0111628D01*
X0218870Y0111628D01*
X0220100Y0112858D01*
X0220085Y0112843D02*
X0223900Y0112843D01*
X0223900Y0114442D02*
X0221684Y0114442D01*
X0223100Y0116041D02*
X0223900Y0116041D01*
X0223900Y0117639D02*
X0223100Y0117639D01*
X0223100Y0119238D02*
X0223900Y0119238D01*
X0223900Y0120836D02*
X0223100Y0120836D01*
X0223676Y0122435D02*
X0224736Y0122435D01*
X0225275Y0124033D02*
X0226335Y0124033D01*
X0226100Y0125632D02*
X0226900Y0125632D01*
X0226900Y0127230D02*
X0226100Y0127230D01*
X0226100Y0128829D02*
X0226900Y0128829D01*
X0226900Y0130427D02*
X0226100Y0130427D01*
X0226100Y0132026D02*
X0226900Y0132026D01*
X0226900Y0133624D02*
X0226100Y0133624D01*
X0226100Y0135223D02*
X0226900Y0135223D01*
X0226900Y0136821D02*
X0226100Y0136821D01*
X0226100Y0138420D02*
X0226900Y0138420D01*
X0226900Y0140018D02*
X0226100Y0140018D01*
X0226100Y0141617D02*
X0226900Y0141617D01*
X0226900Y0143215D02*
X0226100Y0143215D01*
X0226100Y0144814D02*
X0226900Y0144814D01*
X0226900Y0146412D02*
X0226100Y0146412D01*
X0226100Y0148011D02*
X0226900Y0148011D01*
X0226100Y0149609D02*
X0227911Y0149609D01*
X0226449Y0151208D02*
X0229510Y0151208D01*
X0228048Y0152806D02*
X0231108Y0152806D01*
X0229646Y0154405D02*
X0232707Y0154405D01*
X0233900Y0156003D02*
X0231100Y0156003D01*
X0231100Y0157602D02*
X0233900Y0157602D01*
X0233900Y0159200D02*
X0231100Y0159200D01*
X0238100Y0159200D02*
X0239900Y0159200D01*
X0239543Y0159668D02*
X0239900Y0160025D01*
X0239900Y0149598D01*
X0238166Y0147864D01*
X0232105Y0147864D01*
X0238100Y0153858D01*
X0238100Y0155598D01*
X0238100Y0159668D01*
X0239543Y0159668D01*
X0239900Y0157602D02*
X0238100Y0157602D01*
X0238100Y0156003D02*
X0239900Y0156003D01*
X0239900Y0154405D02*
X0238100Y0154405D01*
X0237048Y0152806D02*
X0239900Y0152806D01*
X0239900Y0151208D02*
X0235449Y0151208D01*
X0233851Y0149609D02*
X0239900Y0149609D01*
X0238313Y0148011D02*
X0232252Y0148011D01*
X0239900Y0138722D02*
X0239900Y0136310D01*
X0239543Y0136667D01*
X0231119Y0136667D01*
X0231100Y0136648D01*
X0231100Y0138383D01*
X0231119Y0138365D01*
X0239543Y0138365D01*
X0239900Y0138722D01*
X0239900Y0138420D02*
X0239598Y0138420D01*
X0239900Y0136821D02*
X0231100Y0136821D01*
X0231100Y0127186D02*
X0231119Y0127168D01*
X0233231Y0127168D01*
X0233231Y0124929D01*
X0228130Y0119828D01*
X0228100Y0119798D01*
X0228100Y0119858D01*
X0231100Y0122858D01*
X0231100Y0127186D01*
X0231100Y0125632D02*
X0233231Y0125632D01*
X0232335Y0124033D02*
X0231100Y0124033D01*
X0230736Y0122435D02*
X0230676Y0122435D01*
X0229138Y0120836D02*
X0229078Y0120836D01*
X0228130Y0119828D02*
X0228130Y0119828D01*
X0232105Y0117864D02*
X0237431Y0123189D01*
X0237431Y0124929D01*
X0237431Y0127168D01*
X0239543Y0127168D01*
X0239900Y0127525D01*
X0239900Y0120598D01*
X0237166Y0117864D01*
X0232105Y0117864D01*
X0233479Y0119238D02*
X0238539Y0119238D01*
X0239900Y0120836D02*
X0235078Y0120836D01*
X0236676Y0122435D02*
X0239900Y0122435D01*
X0239900Y0124033D02*
X0237431Y0124033D01*
X0237431Y0125632D02*
X0239900Y0125632D01*
X0239900Y0127230D02*
X0239605Y0127230D01*
X0244100Y0112843D02*
X0270676Y0112843D01*
X0267367Y0111245D02*
X0244100Y0111245D01*
X0244100Y0109646D02*
X0265245Y0109646D01*
X0263647Y0108048D02*
X0244100Y0108048D01*
X0244100Y0106449D02*
X0262528Y0106449D01*
X0261714Y0104851D02*
X0244100Y0104851D01*
X0244100Y0103252D02*
X0260917Y0103252D01*
X0260663Y0101654D02*
X0244100Y0101654D01*
X0244100Y0100055D02*
X0260410Y0100055D01*
X0260200Y0098728D02*
X0260200Y0098728D01*
X0260243Y0098457D02*
X0244100Y0098457D01*
X0244100Y0096858D02*
X0260496Y0096858D01*
X0260749Y0095260D02*
X0244100Y0095260D01*
X0244100Y0093661D02*
X0261176Y0093661D01*
X0260924Y0094155D02*
X0260924Y0094155D01*
X0261990Y0092063D02*
X0244100Y0092063D01*
X0244100Y0090464D02*
X0262805Y0090464D01*
X0263027Y0090029D02*
X0263027Y0090029D01*
X0264190Y0088866D02*
X0244100Y0088866D01*
X0244100Y0087267D02*
X0265788Y0087267D01*
X0266301Y0086755D02*
X0266301Y0086755D01*
X0268432Y0085669D02*
X0244100Y0085669D01*
X0239900Y0087506D02*
X0239824Y0087582D01*
X0239900Y0087659D01*
X0239900Y0087506D01*
X0238365Y0092063D02*
X0238273Y0092063D01*
X0239400Y0093098D02*
X0239400Y0093098D01*
X0239900Y0093661D02*
X0237250Y0093661D01*
X0230181Y0098457D02*
X0219241Y0098457D01*
X0227070Y0103828D02*
X0229870Y0106628D01*
X0231100Y0107858D01*
X0231100Y0108383D01*
X0231119Y0108365D01*
X0239543Y0108365D01*
X0239900Y0108722D01*
X0239900Y0106310D01*
X0239543Y0106667D01*
X0231119Y0106667D01*
X0230181Y0105730D01*
X0230181Y0103828D01*
X0227070Y0103828D01*
X0228092Y0104851D02*
X0230181Y0104851D01*
X0229691Y0106449D02*
X0230901Y0106449D01*
X0231100Y0108048D02*
X0239900Y0108048D01*
X0239900Y0106449D02*
X0239760Y0106449D01*
X0223547Y0111245D02*
X0206486Y0111245D01*
X0205948Y0109646D02*
X0204888Y0109646D01*
X0204350Y0108048D02*
X0204037Y0108048D01*
X0199837Y0108048D02*
X0134100Y0108048D01*
X0134100Y0109646D02*
X0199837Y0109646D01*
X0200547Y0111245D02*
X0134100Y0111245D01*
X0134100Y0112843D02*
X0202145Y0112843D01*
X0203744Y0114442D02*
X0134100Y0114442D01*
X0129138Y0120836D02*
X0124078Y0120836D01*
X0125676Y0122435D02*
X0129900Y0122435D01*
X0129900Y0121598D02*
X0126166Y0117864D01*
X0122100Y0117864D01*
X0122100Y0118858D01*
X0126201Y0122959D01*
X0127431Y0124189D01*
X0127431Y0127168D01*
X0129543Y0127168D01*
X0129900Y0127525D01*
X0129900Y0121598D01*
X0129900Y0124033D02*
X0127275Y0124033D01*
X0126201Y0122959D02*
X0126201Y0122959D01*
X0127431Y0125632D02*
X0129900Y0125632D01*
X0129900Y0127230D02*
X0129605Y0127230D01*
X0123231Y0127168D02*
X0123231Y0125929D01*
X0122100Y0124798D01*
X0122100Y0127168D01*
X0123231Y0127168D01*
X0122933Y0125632D02*
X0122100Y0125632D01*
X0117900Y0125632D02*
X0116100Y0125632D01*
X0116100Y0125858D02*
X0116870Y0126628D01*
X0117900Y0127659D01*
X0117900Y0125598D01*
X0116100Y0123798D01*
X0116100Y0125858D01*
X0116100Y0124033D02*
X0116335Y0124033D01*
X0117472Y0127230D02*
X0117900Y0127230D01*
X0113130Y0128829D02*
X0029080Y0128829D01*
X0029085Y0130427D02*
X0113900Y0130427D01*
X0113900Y0132026D02*
X0029090Y0132026D01*
X0029095Y0133624D02*
X0113900Y0133624D01*
X0113900Y0135223D02*
X0029100Y0135223D01*
X0029105Y0136821D02*
X0113900Y0136821D01*
X0113900Y0138420D02*
X0029111Y0138420D01*
X0029116Y0140018D02*
X0113900Y0140018D01*
X0113900Y0141617D02*
X0029121Y0141617D01*
X0029126Y0143215D02*
X0113900Y0143215D01*
X0113900Y0144814D02*
X0029131Y0144814D01*
X0029136Y0146412D02*
X0091648Y0146412D01*
X0089835Y0148011D02*
X0029141Y0148011D01*
X0029146Y0149609D02*
X0089312Y0149609D01*
X0087318Y0151208D02*
X0029151Y0151208D01*
X0029156Y0152806D02*
X0085324Y0152806D01*
X0083330Y0154405D02*
X0029162Y0154405D01*
X0029167Y0156003D02*
X0081336Y0156003D01*
X0079342Y0157602D02*
X0029172Y0157602D01*
X0029177Y0159200D02*
X0077349Y0159200D01*
X0075355Y0160799D02*
X0029182Y0160799D01*
X0029187Y0162397D02*
X0073361Y0162397D01*
X0071367Y0163996D02*
X0029192Y0163996D01*
X0029197Y0165594D02*
X0069373Y0165594D01*
X0067379Y0167193D02*
X0029202Y0167193D01*
X0029207Y0168791D02*
X0065385Y0168791D01*
X0063392Y0170390D02*
X0029212Y0170390D01*
X0029218Y0171988D02*
X0061346Y0171988D01*
X0060340Y0173587D02*
X0029223Y0173587D01*
X0029228Y0175185D02*
X0060340Y0175185D01*
X0060340Y0176784D02*
X0029233Y0176784D01*
X0029238Y0178382D02*
X0060340Y0178382D01*
X0060340Y0179981D02*
X0029243Y0179981D01*
X0029248Y0181579D02*
X0060340Y0181579D01*
X0060340Y0183178D02*
X0029253Y0183178D01*
X0029258Y0184777D02*
X0060340Y0184777D01*
X0060340Y0186375D02*
X0029263Y0186375D01*
X0029268Y0187974D02*
X0060340Y0187974D01*
X0060340Y0189572D02*
X0029274Y0189572D01*
X0029279Y0191171D02*
X0060340Y0191171D01*
X0060340Y0192769D02*
X0029284Y0192769D01*
X0029289Y0194368D02*
X0060340Y0194368D01*
X0060340Y0195966D02*
X0029294Y0195966D01*
X0033713Y0197565D02*
X0051101Y0197565D01*
X0051101Y0199163D02*
X0035312Y0199163D01*
X0036910Y0200762D02*
X0051101Y0200762D01*
X0052472Y0203516D02*
X0055260Y0200728D01*
X0052472Y0203516D02*
X0030331Y0203516D01*
X0036025Y0207156D02*
X0145637Y0207156D01*
X0144038Y0205557D02*
X0053816Y0205557D01*
X0062740Y0200728D02*
X0062740Y0173988D01*
X0093000Y0149728D01*
X0094352Y0146412D02*
X0113900Y0146412D01*
X0113900Y0148011D02*
X0096165Y0148011D01*
X0096581Y0149609D02*
X0113900Y0149609D01*
X0113900Y0151208D02*
X0096263Y0151208D01*
X0094927Y0152806D02*
X0113900Y0152806D01*
X0113900Y0154405D02*
X0091004Y0154405D01*
X0089010Y0156003D02*
X0113900Y0156003D01*
X0113900Y0157602D02*
X0087016Y0157602D01*
X0085022Y0159200D02*
X0113900Y0159200D01*
X0114101Y0160799D02*
X0083028Y0160799D01*
X0081035Y0162397D02*
X0115699Y0162397D01*
X0115900Y0163996D02*
X0079041Y0163996D01*
X0077047Y0165594D02*
X0115900Y0165594D01*
X0115900Y0167193D02*
X0075053Y0167193D01*
X0073059Y0168791D02*
X0115900Y0168791D01*
X0115900Y0170390D02*
X0071065Y0170390D01*
X0069071Y0171988D02*
X0115900Y0171988D01*
X0115900Y0173587D02*
X0067077Y0173587D01*
X0065140Y0175185D02*
X0115900Y0175185D01*
X0115900Y0176784D02*
X0065140Y0176784D01*
X0065140Y0178382D02*
X0115900Y0178382D01*
X0116283Y0179981D02*
X0065140Y0179981D01*
X0065140Y0181579D02*
X0117881Y0181579D01*
X0119480Y0183178D02*
X0065140Y0183178D01*
X0065140Y0184777D02*
X0121010Y0184777D01*
X0120181Y0186375D02*
X0065140Y0186375D01*
X0065140Y0187974D02*
X0120181Y0187974D01*
X0120181Y0189572D02*
X0065140Y0189572D01*
X0065140Y0191171D02*
X0120181Y0191171D01*
X0120181Y0192769D02*
X0065140Y0192769D01*
X0065140Y0194368D02*
X0129900Y0194368D01*
X0129900Y0195966D02*
X0129644Y0195966D01*
X0134100Y0195966D02*
X0147547Y0195966D01*
X0145948Y0197565D02*
X0134100Y0197565D01*
X0134100Y0199163D02*
X0144350Y0199163D01*
X0143731Y0200762D02*
X0132937Y0200762D01*
X0130480Y0202360D02*
X0143731Y0202360D01*
X0143731Y0203959D02*
X0130480Y0203959D01*
X0120181Y0203959D02*
X0066899Y0203959D01*
X0066899Y0202360D02*
X0120181Y0202360D01*
X0120181Y0200762D02*
X0066899Y0200762D01*
X0066899Y0199163D02*
X0120181Y0199163D01*
X0120181Y0197565D02*
X0066899Y0197565D01*
X0065140Y0195966D02*
X0121017Y0195966D01*
X0129900Y0185025D02*
X0129900Y0178598D01*
X0129166Y0177864D01*
X0121119Y0177864D01*
X0120181Y0176927D01*
X0120181Y0169302D01*
X0121119Y0168365D01*
X0129543Y0168365D01*
X0129900Y0168722D01*
X0129900Y0166310D01*
X0129543Y0166667D01*
X0121119Y0166667D01*
X0120181Y0165730D01*
X0120181Y0158105D01*
X0121119Y0157168D01*
X0123231Y0157168D01*
X0123231Y0154929D01*
X0118100Y0149798D01*
X0118100Y0158858D01*
X0118870Y0159628D01*
X0120100Y0160858D01*
X0120100Y0177858D01*
X0126201Y0183959D01*
X0126909Y0184668D01*
X0129543Y0184668D01*
X0129900Y0185025D01*
X0129900Y0184777D02*
X0129651Y0184777D01*
X0129900Y0183178D02*
X0125419Y0183178D01*
X0123821Y0181579D02*
X0129900Y0181579D01*
X0129900Y0179981D02*
X0122222Y0179981D01*
X0120624Y0178382D02*
X0129684Y0178382D01*
X0120181Y0176784D02*
X0120100Y0176784D01*
X0120100Y0175185D02*
X0120181Y0175185D01*
X0120181Y0173587D02*
X0120100Y0173587D01*
X0120100Y0171988D02*
X0120181Y0171988D01*
X0120181Y0170390D02*
X0120100Y0170390D01*
X0120100Y0168791D02*
X0120692Y0168791D01*
X0120100Y0167193D02*
X0129900Y0167193D01*
X0120181Y0165594D02*
X0120100Y0165594D01*
X0120100Y0163996D02*
X0120181Y0163996D01*
X0120181Y0162397D02*
X0120100Y0162397D01*
X0120040Y0160799D02*
X0120181Y0160799D01*
X0120181Y0159200D02*
X0118442Y0159200D01*
X0118100Y0157602D02*
X0120685Y0157602D01*
X0123231Y0156003D02*
X0118100Y0156003D01*
X0118100Y0154405D02*
X0122707Y0154405D01*
X0121108Y0152806D02*
X0118100Y0152806D01*
X0118100Y0151208D02*
X0119510Y0151208D01*
X0122105Y0147864D02*
X0126201Y0151959D01*
X0127431Y0153189D01*
X0127431Y0157168D01*
X0129543Y0157168D01*
X0129900Y0157525D01*
X0129900Y0151598D01*
X0126166Y0147864D01*
X0122105Y0147864D01*
X0122252Y0148011D02*
X0126313Y0148011D01*
X0127911Y0149609D02*
X0123851Y0149609D01*
X0125449Y0151208D02*
X0129510Y0151208D01*
X0129900Y0152806D02*
X0127048Y0152806D01*
X0127431Y0154405D02*
X0129900Y0154405D01*
X0129900Y0156003D02*
X0127431Y0156003D01*
X0129900Y0138722D02*
X0129900Y0136310D01*
X0129543Y0136667D01*
X0122100Y0136667D01*
X0122100Y0138365D01*
X0129543Y0138365D01*
X0129900Y0138722D01*
X0129900Y0138420D02*
X0129598Y0138420D01*
X0129900Y0136821D02*
X0122100Y0136821D01*
X0111900Y0127230D02*
X0029075Y0127230D01*
X0029070Y0125632D02*
X0111900Y0125632D01*
X0111900Y0124033D02*
X0029065Y0124033D01*
X0029060Y0122435D02*
X0111900Y0122435D01*
X0111900Y0120836D02*
X0029055Y0120836D01*
X0029049Y0119238D02*
X0045952Y0119238D01*
X0046488Y0119459D02*
X0045171Y0118914D01*
X0044164Y0117907D01*
X0043619Y0116591D01*
X0043619Y0115166D01*
X0044164Y0113850D01*
X0045171Y0112842D01*
X0046488Y0112297D01*
X0047912Y0112297D01*
X0048221Y0112425D01*
X0052758Y0108901D01*
X0053280Y0108378D01*
X0053430Y0108378D01*
X0053548Y0108286D01*
X0054281Y0108378D01*
X0069186Y0108378D01*
X0070121Y0107442D01*
X0071438Y0106897D01*
X0072862Y0106897D01*
X0074179Y0107442D01*
X0075186Y0108450D01*
X0075731Y0109766D01*
X0075731Y0111191D01*
X0075186Y0112507D01*
X0074179Y0113514D01*
X0072862Y0114059D01*
X0071438Y0114059D01*
X0070121Y0113514D01*
X0069186Y0112578D01*
X0054870Y0112578D01*
X0050781Y0115755D01*
X0050781Y0116591D01*
X0050236Y0117907D01*
X0049229Y0118914D01*
X0047912Y0119459D01*
X0046488Y0119459D01*
X0048448Y0119238D02*
X0111900Y0119238D01*
X0111900Y0117639D02*
X0050347Y0117639D01*
X0050781Y0116041D02*
X0111900Y0116041D01*
X0111900Y0114442D02*
X0052471Y0114442D01*
X0054529Y0112843D02*
X0069451Y0112843D01*
X0074849Y0112843D02*
X0111145Y0112843D01*
X0109547Y0111245D02*
X0075709Y0111245D01*
X0075682Y0109646D02*
X0093948Y0109646D01*
X0092350Y0108048D02*
X0074784Y0108048D01*
X0069516Y0108048D02*
X0029014Y0108048D01*
X0029019Y0109646D02*
X0051798Y0109646D01*
X0049741Y0111245D02*
X0029024Y0111245D01*
X0029029Y0112843D02*
X0045170Y0112843D01*
X0043919Y0114442D02*
X0029034Y0114442D01*
X0029039Y0116041D02*
X0043619Y0116041D01*
X0044053Y0117639D02*
X0029044Y0117639D01*
X0029009Y0106449D02*
X0090751Y0106449D01*
X0089153Y0104851D02*
X0031900Y0104851D01*
X0031900Y0103252D02*
X0087554Y0103252D01*
X0078829Y0092063D02*
X0063255Y0092063D01*
X0070422Y0087371D02*
X0077770Y0087048D01*
X0077795Y0086987D01*
X0078731Y0086051D01*
X0078731Y0085425D01*
X0078656Y0085334D01*
X0078731Y0084571D01*
X0078731Y0083803D01*
X0078814Y0083720D01*
X0079183Y0079951D01*
X0079183Y0075613D01*
X0079968Y0074828D01*
X0078984Y0074828D01*
X0071497Y0083812D01*
X0071581Y0084016D01*
X0071581Y0085441D01*
X0071036Y0086757D01*
X0070422Y0087371D01*
X0070525Y0087267D02*
X0072779Y0087267D01*
X0071487Y0085669D02*
X0078731Y0085669D01*
X0078731Y0084070D02*
X0071581Y0084070D01*
X0072614Y0082472D02*
X0078936Y0082472D01*
X0079093Y0080873D02*
X0073946Y0080873D01*
X0075278Y0079275D02*
X0079183Y0079275D01*
X0079183Y0077676D02*
X0076610Y0077676D01*
X0077942Y0076078D02*
X0079183Y0076078D01*
X0073807Y0074479D02*
X0072738Y0074479D01*
X0072475Y0076078D02*
X0071228Y0076078D01*
X0071143Y0077676D02*
X0069717Y0077676D01*
X0069811Y0079275D02*
X0068207Y0079275D01*
X0068479Y0080873D02*
X0066697Y0080873D01*
X0066575Y0081002D02*
X0066581Y0081016D01*
X0066581Y0081440D01*
X0067288Y0081147D01*
X0068251Y0081147D01*
X0075900Y0071968D01*
X0075900Y0071858D01*
X0076448Y0071311D01*
X0076944Y0070716D01*
X0077053Y0070706D01*
X0077130Y0070628D01*
X0077905Y0070628D01*
X0078676Y0070558D01*
X0078760Y0070628D01*
X0088487Y0070628D01*
X0088302Y0070552D01*
X0087366Y0069616D01*
X0086961Y0069616D01*
X0083063Y0065718D01*
X0081015Y0065718D01*
X0066575Y0081002D01*
X0057681Y0076078D02*
X0056668Y0076078D01*
X0055551Y0077141D02*
X0055193Y0078147D01*
X0055611Y0078147D01*
X0072900Y0060858D01*
X0072900Y0060630D01*
X0055551Y0077141D01*
X0055360Y0077676D02*
X0056082Y0077676D01*
X0058347Y0074479D02*
X0059279Y0074479D01*
X0060027Y0072881D02*
X0060878Y0072881D01*
X0061707Y0071282D02*
X0062476Y0071282D01*
X0063387Y0069684D02*
X0064075Y0069684D01*
X0065066Y0068085D02*
X0065673Y0068085D01*
X0066746Y0066487D02*
X0067272Y0066487D01*
X0068426Y0064888D02*
X0068870Y0064888D01*
X0070105Y0063290D02*
X0070469Y0063290D01*
X0071785Y0061691D02*
X0072067Y0061691D01*
X0078779Y0068085D02*
X0085430Y0068085D01*
X0083832Y0066487D02*
X0080289Y0066487D01*
X0077269Y0069684D02*
X0087434Y0069684D01*
X0094817Y0072881D02*
X0098183Y0072881D01*
X0098034Y0074676D02*
X0099900Y0074676D01*
X0099900Y0074598D01*
X0096100Y0070798D01*
X0096100Y0071598D01*
X0094100Y0073598D01*
X0093023Y0074676D01*
X0095423Y0074676D01*
X0095449Y0074702D01*
X0095475Y0074676D01*
X0097982Y0074676D01*
X0098008Y0074702D01*
X0098034Y0074676D01*
X0099781Y0074479D02*
X0093219Y0074479D01*
X0096100Y0071282D02*
X0096584Y0071282D01*
X0104100Y0075882D02*
X0104100Y0083407D01*
X0104264Y0083930D01*
X0104100Y0084244D01*
X0104100Y0084407D01*
X0106900Y0081607D01*
X0106900Y0075742D01*
X0106043Y0076097D01*
X0104618Y0076097D01*
X0104100Y0075882D01*
X0104100Y0076078D02*
X0104572Y0076078D01*
X0106089Y0076078D02*
X0106900Y0076078D01*
X0106900Y0077676D02*
X0104100Y0077676D01*
X0104100Y0079275D02*
X0106900Y0079275D01*
X0106900Y0080873D02*
X0104100Y0080873D01*
X0104100Y0082472D02*
X0106035Y0082472D01*
X0104436Y0084070D02*
X0104191Y0084070D01*
X0115022Y0077676D02*
X0128900Y0077676D01*
X0133100Y0074479D02*
X0210781Y0074479D01*
X0209183Y0072881D02*
X0133100Y0072881D01*
X0133100Y0071282D02*
X0207584Y0071282D01*
X0208130Y0071828D02*
X0208130Y0071828D01*
X0206900Y0069684D02*
X0133100Y0069684D01*
X0133100Y0068085D02*
X0206900Y0068085D01*
X0206900Y0066487D02*
X0200643Y0066487D01*
X0201412Y0064888D02*
X0206900Y0064888D01*
X0206900Y0063290D02*
X0201315Y0063290D01*
X0200844Y0061691D02*
X0206900Y0061691D01*
X0211100Y0061691D02*
X0212488Y0061691D01*
X0212099Y0060356D02*
X0211100Y0060356D01*
X0211100Y0068859D01*
X0214250Y0072008D01*
X0214250Y0071803D01*
X0214795Y0070487D01*
X0214994Y0070288D01*
X0212099Y0060356D01*
X0215931Y0058494D02*
X0218900Y0058494D01*
X0218900Y0056896D02*
X0215338Y0056896D01*
X0215489Y0056979D02*
X0215622Y0057433D01*
X0215910Y0057807D01*
X0215855Y0058235D01*
X0218900Y0068680D01*
X0218900Y0056099D01*
X0217712Y0056591D01*
X0216288Y0056591D01*
X0214971Y0056045D01*
X0213978Y0055052D01*
X0213978Y0055303D01*
X0215111Y0056771D01*
X0215489Y0056979D01*
X0214223Y0055297D02*
X0213978Y0055297D01*
X0216397Y0060093D02*
X0218900Y0060093D01*
X0218900Y0061691D02*
X0216863Y0061691D01*
X0217329Y0063290D02*
X0218900Y0063290D01*
X0218900Y0064888D02*
X0217795Y0064888D01*
X0218261Y0066487D02*
X0218900Y0066487D01*
X0218900Y0068085D02*
X0218727Y0068085D01*
X0214818Y0069684D02*
X0211925Y0069684D01*
X0211100Y0068085D02*
X0214352Y0068085D01*
X0213886Y0066487D02*
X0211100Y0066487D01*
X0211100Y0064888D02*
X0213420Y0064888D01*
X0212954Y0063290D02*
X0211100Y0063290D01*
X0213524Y0071282D02*
X0214465Y0071282D01*
X0217100Y0076089D02*
X0217100Y0076659D01*
X0217662Y0076097D01*
X0217118Y0076097D01*
X0217100Y0076089D01*
X0224100Y0072881D02*
X0224878Y0072881D01*
X0224100Y0071282D02*
X0226476Y0071282D01*
X0224100Y0069684D02*
X0230181Y0069684D01*
X0230201Y0068085D02*
X0223327Y0068085D01*
X0223100Y0066487D02*
X0239900Y0066487D01*
X0239900Y0064888D02*
X0223100Y0064888D01*
X0223100Y0063290D02*
X0239900Y0063290D01*
X0239900Y0061691D02*
X0223100Y0061691D01*
X0223100Y0060093D02*
X0230081Y0060093D01*
X0230081Y0058494D02*
X0223100Y0058494D01*
X0223100Y0056896D02*
X0230081Y0056896D01*
X0230081Y0055297D02*
X0223100Y0055297D01*
X0223100Y0053699D02*
X0230081Y0053699D01*
X0230733Y0052100D02*
X0223846Y0052100D01*
X0225780Y0050502D02*
X0296856Y0050502D01*
X0296519Y0052100D02*
X0239728Y0052100D01*
X0240380Y0053699D02*
X0296916Y0053699D01*
X0298634Y0055297D02*
X0240380Y0055297D01*
X0240749Y0056896D02*
X0299183Y0056896D01*
X0299183Y0058494D02*
X0243771Y0058494D01*
X0244131Y0060093D02*
X0299183Y0060093D01*
X0297185Y0061691D02*
X0244100Y0061691D01*
X0244100Y0063290D02*
X0295155Y0063290D01*
X0293069Y0064888D02*
X0244100Y0064888D01*
X0244100Y0066487D02*
X0288993Y0066487D01*
X0290669Y0066487D02*
X0290983Y0066487D01*
X0293716Y0069684D02*
X0297950Y0069684D01*
X0298275Y0071282D02*
X0293182Y0071282D01*
X0292030Y0072881D02*
X0299647Y0072881D01*
X0303414Y0072881D02*
X0313565Y0072881D01*
X0313100Y0074479D02*
X0244100Y0074479D01*
X0244100Y0072881D02*
X0287631Y0072881D01*
X0286479Y0071282D02*
X0244100Y0071282D01*
X0244100Y0069684D02*
X0286250Y0069684D01*
X0286754Y0068085D02*
X0244100Y0068085D01*
X0230181Y0074479D02*
X0229219Y0074479D01*
X0230530Y0076078D02*
X0227620Y0076078D01*
X0244100Y0076078D02*
X0313369Y0076078D01*
X0319285Y0077176D02*
X0320541Y0077176D01*
X0321478Y0078113D01*
X0321478Y0078681D01*
X0324500Y0075658D01*
X0324500Y0072498D01*
X0322850Y0070848D01*
X0322850Y0070815D01*
X0320203Y0073862D01*
X0320262Y0074003D01*
X0320262Y0075428D01*
X0319717Y0076744D01*
X0319285Y0077176D01*
X0319993Y0076078D02*
X0324081Y0076078D01*
X0324500Y0074479D02*
X0320262Y0074479D01*
X0321056Y0072881D02*
X0324500Y0072881D01*
X0323284Y0071282D02*
X0322445Y0071282D01*
X0327050Y0069108D02*
X0327470Y0069528D01*
X0328700Y0070758D01*
X0328700Y0076743D01*
X0333231Y0073862D01*
X0333231Y0049994D01*
X0333081Y0049742D01*
X0333231Y0049154D01*
X0333231Y0048547D01*
X0333438Y0048340D01*
X0333510Y0048056D01*
X0334032Y0047746D01*
X0334461Y0047317D01*
X0334754Y0047317D01*
X0340281Y0044034D01*
X0340281Y0040287D01*
X0296024Y0040634D01*
X0296338Y0041391D01*
X0311440Y0047039D01*
X0311668Y0046985D01*
X0312231Y0047334D01*
X0312850Y0047566D01*
X0312947Y0047779D01*
X0313069Y0047855D01*
X0313681Y0046794D01*
X0313369Y0046041D01*
X0313369Y0044616D01*
X0313914Y0043300D01*
X0314921Y0042292D01*
X0316238Y0041747D01*
X0317662Y0041747D01*
X0318979Y0042292D01*
X0319986Y0043300D01*
X0320184Y0043778D01*
X0327436Y0043778D01*
X0328371Y0042842D01*
X0329688Y0042297D01*
X0331112Y0042297D01*
X0332429Y0042842D01*
X0333436Y0043850D01*
X0333981Y0045166D01*
X0333981Y0046591D01*
X0333436Y0047907D01*
X0332429Y0048914D01*
X0331112Y0049459D01*
X0329688Y0049459D01*
X0328371Y0048914D01*
X0327436Y0047978D01*
X0319364Y0047978D01*
X0318979Y0048364D01*
X0317662Y0048909D01*
X0317309Y0048909D01*
X0316779Y0049828D01*
X0320320Y0049828D01*
X0327050Y0056558D01*
X0327050Y0069108D01*
X0327625Y0069684D02*
X0333231Y0069684D01*
X0333231Y0071282D02*
X0328700Y0071282D01*
X0328700Y0072881D02*
X0333231Y0072881D01*
X0332260Y0074479D02*
X0328700Y0074479D01*
X0328700Y0076078D02*
X0329746Y0076078D01*
X0333668Y0081458D02*
X0340181Y0079715D01*
X0340181Y0077517D01*
X0339870Y0077828D01*
X0339592Y0077828D01*
X0333668Y0081458D01*
X0334622Y0080873D02*
X0335853Y0080873D01*
X0337231Y0079275D02*
X0340181Y0079275D01*
X0340181Y0077676D02*
X0340022Y0077676D01*
X0341127Y0075865D02*
X0341245Y0075373D01*
X0341100Y0075136D01*
X0341100Y0074148D01*
X0341119Y0074167D01*
X0348900Y0074167D01*
X0348900Y0075865D01*
X0341127Y0075865D01*
X0341100Y0074479D02*
X0348900Y0074479D01*
X0354450Y0078228D02*
X0357200Y0082028D01*
X0362350Y0082028D01*
X0363050Y0082728D01*
X0359150Y0079275D02*
X0358170Y0079275D01*
X0357013Y0077676D02*
X0364917Y0077676D01*
X0364912Y0076078D02*
X0356844Y0076078D01*
X0356840Y0074479D02*
X0364907Y0074479D01*
X0364902Y0072881D02*
X0356835Y0072881D01*
X0356831Y0071282D02*
X0364897Y0071282D01*
X0364892Y0069684D02*
X0356826Y0069684D01*
X0356822Y0068085D02*
X0364887Y0068085D01*
X0364881Y0066487D02*
X0356817Y0066487D01*
X0356813Y0064888D02*
X0364876Y0064888D01*
X0364871Y0063290D02*
X0356808Y0063290D01*
X0356804Y0061691D02*
X0364866Y0061691D01*
X0364861Y0060093D02*
X0356799Y0060093D01*
X0356795Y0058494D02*
X0364856Y0058494D01*
X0364851Y0056896D02*
X0356790Y0056896D01*
X0356786Y0055297D02*
X0364846Y0055297D01*
X0364841Y0053699D02*
X0356781Y0053699D01*
X0356777Y0052100D02*
X0364836Y0052100D01*
X0364831Y0050502D02*
X0356773Y0050502D01*
X0356768Y0048903D02*
X0364825Y0048903D01*
X0364820Y0047305D02*
X0356764Y0047305D01*
X0356759Y0045706D02*
X0364815Y0045706D01*
X0364810Y0044108D02*
X0356755Y0044108D01*
X0356759Y0042509D02*
X0364805Y0042509D01*
X0364800Y0040910D02*
X0356257Y0040910D01*
X0354468Y0039312D02*
X0364795Y0039312D01*
X0364790Y0037713D02*
X0352678Y0037713D01*
X0350889Y0036115D02*
X0364785Y0036115D01*
X0351953Y0043502D02*
X0350580Y0042275D01*
X0350580Y0047230D01*
X0349643Y0048167D01*
X0341547Y0048167D01*
X0337431Y0050612D01*
X0337431Y0070328D01*
X0338900Y0068858D01*
X0340130Y0067628D01*
X0340181Y0067628D01*
X0340181Y0065605D01*
X0341119Y0064668D01*
X0343125Y0064668D01*
X0342614Y0064157D01*
X0342069Y0062841D01*
X0342069Y0061416D01*
X0342614Y0060100D01*
X0343350Y0059364D01*
X0341219Y0059364D01*
X0340281Y0058427D01*
X0340281Y0050802D01*
X0341219Y0049865D01*
X0343555Y0049865D01*
X0343825Y0049595D01*
X0344402Y0048984D01*
X0344437Y0048983D01*
X0344461Y0048959D01*
X0345301Y0048959D01*
X0346141Y0048935D01*
X0346166Y0048959D01*
X0346201Y0048959D01*
X0346795Y0049553D01*
X0347124Y0049865D01*
X0349643Y0049865D01*
X0350580Y0050802D01*
X0350580Y0053338D01*
X0351984Y0054743D01*
X0351953Y0043502D01*
X0351955Y0044108D02*
X0350580Y0044108D01*
X0350580Y0045706D02*
X0351959Y0045706D01*
X0351964Y0047305D02*
X0350505Y0047305D01*
X0351968Y0048903D02*
X0340308Y0048903D01*
X0340582Y0050502D02*
X0337617Y0050502D01*
X0337431Y0052100D02*
X0340281Y0052100D01*
X0340281Y0053699D02*
X0337431Y0053699D01*
X0337431Y0055297D02*
X0340281Y0055297D01*
X0340281Y0056896D02*
X0337431Y0056896D01*
X0337431Y0058494D02*
X0340349Y0058494D01*
X0342621Y0060093D02*
X0337431Y0060093D01*
X0337431Y0061691D02*
X0342069Y0061691D01*
X0342255Y0063290D02*
X0337431Y0063290D01*
X0337431Y0064888D02*
X0340898Y0064888D01*
X0340181Y0066487D02*
X0337431Y0066487D01*
X0337431Y0068085D02*
X0339673Y0068085D01*
X0338075Y0069684D02*
X0337431Y0069684D01*
X0333231Y0068085D02*
X0327050Y0068085D01*
X0327050Y0066487D02*
X0333231Y0066487D01*
X0333231Y0064888D02*
X0327050Y0064888D01*
X0327050Y0063290D02*
X0333231Y0063290D01*
X0333231Y0061691D02*
X0327050Y0061691D01*
X0327050Y0060093D02*
X0333231Y0060093D01*
X0333231Y0058494D02*
X0327050Y0058494D01*
X0327050Y0056896D02*
X0333231Y0056896D01*
X0333231Y0055297D02*
X0325789Y0055297D01*
X0324190Y0053699D02*
X0333231Y0053699D01*
X0333231Y0052100D02*
X0322592Y0052100D01*
X0320993Y0050502D02*
X0333231Y0050502D01*
X0333231Y0048903D02*
X0332440Y0048903D01*
X0333685Y0047305D02*
X0334776Y0047305D01*
X0333981Y0045706D02*
X0337466Y0045706D01*
X0340157Y0044108D02*
X0333543Y0044108D01*
X0331624Y0042509D02*
X0340281Y0042509D01*
X0340281Y0040910D02*
X0296139Y0040910D01*
X0299328Y0042509D02*
X0314705Y0042509D01*
X0313580Y0044108D02*
X0303602Y0044108D01*
X0307877Y0045706D02*
X0313369Y0045706D01*
X0313386Y0047305D02*
X0312183Y0047305D01*
X0317678Y0048903D02*
X0328360Y0048903D01*
X0329176Y0042509D02*
X0319195Y0042509D01*
X0314900Y0053087D02*
X0314404Y0053947D01*
X0314900Y0053947D01*
X0314900Y0053087D01*
X0314900Y0053699D02*
X0314548Y0053699D01*
X0316495Y0062856D02*
X0317666Y0063956D01*
X0317688Y0063947D01*
X0319112Y0063947D01*
X0320429Y0064492D01*
X0320600Y0064664D01*
X0320600Y0062797D01*
X0320541Y0062856D01*
X0318034Y0062856D01*
X0318008Y0062830D01*
X0317982Y0062856D01*
X0316495Y0062856D01*
X0316956Y0063290D02*
X0320600Y0063290D01*
X0314225Y0066487D02*
X0308592Y0066487D01*
X0308592Y0064888D02*
X0312479Y0064888D01*
X0312109Y0063290D02*
X0308592Y0063290D01*
X0304392Y0064888D02*
X0304366Y0064888D01*
X0304392Y0066487D02*
X0302927Y0066487D01*
X0300135Y0066487D02*
X0297888Y0066487D01*
X0298358Y0068085D02*
X0295802Y0068085D01*
X0304787Y0071282D02*
X0315612Y0071282D01*
X0315491Y0069684D02*
X0308044Y0069684D01*
X0308718Y0068085D02*
X0314819Y0068085D01*
X0321041Y0077676D02*
X0322482Y0077676D01*
X0330761Y0086583D02*
X0330666Y0094387D01*
X0331567Y0095287D01*
X0332112Y0096603D01*
X0332112Y0098028D01*
X0331863Y0098628D01*
X0340181Y0098628D01*
X0340181Y0095605D01*
X0341119Y0094668D01*
X0348900Y0094668D01*
X0348900Y0089598D01*
X0348400Y0089098D01*
X0344727Y0085426D01*
X0344615Y0085364D01*
X0341119Y0085364D01*
X0340181Y0084427D01*
X0340181Y0084063D01*
X0330761Y0086583D01*
X0330753Y0087267D02*
X0346569Y0087267D01*
X0344971Y0085669D02*
X0334178Y0085669D01*
X0330733Y0088866D02*
X0348168Y0088866D01*
X0348900Y0090464D02*
X0330714Y0090464D01*
X0330695Y0092063D02*
X0348900Y0092063D01*
X0348900Y0093661D02*
X0330675Y0093661D01*
X0331539Y0095260D02*
X0340527Y0095260D01*
X0340181Y0096858D02*
X0332112Y0096858D01*
X0331934Y0098457D02*
X0340181Y0098457D01*
X0340181Y0102828D02*
X0338070Y0102828D01*
X0339870Y0104628D01*
X0341100Y0105858D01*
X0341100Y0105883D01*
X0341119Y0105865D01*
X0348900Y0105865D01*
X0348900Y0104167D01*
X0341119Y0104167D01*
X0340181Y0103230D01*
X0340181Y0102828D01*
X0340204Y0103252D02*
X0338494Y0103252D01*
X0340092Y0104851D02*
X0348900Y0104851D01*
X0345666Y0115364D02*
X0343605Y0115364D01*
X0343870Y0115628D01*
X0345100Y0116858D01*
X0345100Y0119858D01*
X0345870Y0120628D01*
X0347100Y0121858D01*
X0347100Y0127168D01*
X0348900Y0127168D01*
X0348900Y0118598D01*
X0348400Y0118098D01*
X0345666Y0115364D01*
X0346342Y0116041D02*
X0344282Y0116041D01*
X0345100Y0117639D02*
X0347941Y0117639D01*
X0348900Y0119238D02*
X0345100Y0119238D01*
X0346078Y0120836D02*
X0348900Y0120836D01*
X0348900Y0122435D02*
X0347100Y0122435D01*
X0347100Y0124033D02*
X0348900Y0124033D01*
X0348900Y0125632D02*
X0347100Y0125632D01*
X0342900Y0125632D02*
X0342100Y0125632D01*
X0342100Y0127168D02*
X0342100Y0122798D01*
X0342900Y0123598D01*
X0342900Y0127168D01*
X0342100Y0127168D01*
X0342100Y0124033D02*
X0342900Y0124033D01*
X0342100Y0136667D02*
X0342100Y0138365D01*
X0348900Y0138365D01*
X0348900Y0136667D01*
X0342100Y0136667D01*
X0342100Y0136821D02*
X0348900Y0136821D01*
X0348166Y0147864D02*
X0343105Y0147864D01*
X0347431Y0152189D01*
X0347431Y0153929D01*
X0347431Y0159668D01*
X0348900Y0159668D01*
X0348900Y0148598D01*
X0348166Y0147864D01*
X0348313Y0148011D02*
X0343252Y0148011D01*
X0344851Y0149609D02*
X0348900Y0149609D01*
X0348900Y0151208D02*
X0346449Y0151208D01*
X0347431Y0152806D02*
X0348900Y0152806D01*
X0348900Y0154405D02*
X0347431Y0154405D01*
X0347431Y0156003D02*
X0348900Y0156003D01*
X0348900Y0157602D02*
X0347431Y0157602D01*
X0347431Y0159200D02*
X0348900Y0159200D01*
X0343231Y0159200D02*
X0341100Y0159200D01*
X0341119Y0159668D02*
X0341100Y0159686D01*
X0341100Y0151798D01*
X0343231Y0153929D01*
X0343231Y0159668D01*
X0341119Y0159668D01*
X0341100Y0157602D02*
X0343231Y0157602D01*
X0343231Y0156003D02*
X0341100Y0156003D01*
X0341100Y0154405D02*
X0343231Y0154405D01*
X0342108Y0152806D02*
X0341100Y0152806D01*
X0341100Y0169148D02*
X0341100Y0170883D01*
X0341119Y0170865D01*
X0348900Y0170865D01*
X0348900Y0169167D01*
X0341119Y0169167D01*
X0341100Y0169148D01*
X0341100Y0170390D02*
X0348900Y0170390D01*
X0348900Y0180364D02*
X0341605Y0180364D01*
X0347431Y0186189D01*
X0347431Y0187929D01*
X0347431Y0189668D01*
X0348900Y0189668D01*
X0348900Y0180364D01*
X0348900Y0181579D02*
X0342821Y0181579D01*
X0344419Y0183178D02*
X0348900Y0183178D01*
X0348900Y0184777D02*
X0346018Y0184777D01*
X0347431Y0186375D02*
X0348900Y0186375D01*
X0348900Y0187974D02*
X0347431Y0187974D01*
X0347431Y0189572D02*
X0348900Y0189572D01*
X0239900Y0187525D02*
X0239900Y0181598D01*
X0238666Y0180364D01*
X0233605Y0180364D01*
X0237100Y0183858D01*
X0237100Y0185598D01*
X0237100Y0187168D01*
X0239543Y0187168D01*
X0239900Y0187525D01*
X0239900Y0186375D02*
X0237100Y0186375D01*
X0237100Y0184777D02*
X0239900Y0184777D01*
X0239900Y0183178D02*
X0236419Y0183178D01*
X0234821Y0181579D02*
X0239881Y0181579D01*
X0239900Y0171222D02*
X0239900Y0168810D01*
X0239543Y0169167D01*
X0231119Y0169167D01*
X0231100Y0169148D01*
X0231100Y0170883D01*
X0231119Y0170865D01*
X0239543Y0170865D01*
X0239900Y0171222D01*
X0239900Y0170390D02*
X0231100Y0170390D01*
X0239900Y0197565D02*
X0179899Y0197565D01*
X0127539Y0119238D02*
X0122479Y0119238D01*
X0117900Y0108659D02*
X0117900Y0108598D01*
X0112130Y0102828D01*
X0112070Y0102828D01*
X0117870Y0108628D01*
X0117900Y0108659D01*
X0117350Y0108048D02*
X0117289Y0108048D01*
X0115751Y0106449D02*
X0115691Y0106449D01*
X0114153Y0104851D02*
X0114092Y0104851D01*
X0112554Y0103252D02*
X0112494Y0103252D01*
X0086951Y0085113D02*
X0086951Y0083584D01*
X0085239Y0083584D01*
X0085213Y0083558D01*
X0085186Y0083584D01*
X0083047Y0083584D01*
X0082931Y0084776D01*
X0082931Y0085732D01*
X0083550Y0085113D01*
X0086951Y0085113D01*
X0086951Y0084070D02*
X0083000Y0084070D01*
X0082994Y0085669D02*
X0082931Y0085669D01*
X0075139Y0072881D02*
X0074248Y0072881D01*
X0075758Y0071282D02*
X0076472Y0071282D01*
X0086790Y0063505D02*
X0086917Y0063632D01*
X0086877Y0063535D01*
X0086790Y0063505D01*
X0093235Y0060356D02*
X0094900Y0060356D01*
X0094900Y0060446D01*
X0094870Y0060416D01*
X0093295Y0060416D01*
X0093235Y0060356D01*
X0111100Y0060093D02*
X0119981Y0060093D01*
X0119981Y0058494D02*
X0112399Y0058494D01*
X0114176Y0056896D02*
X0119981Y0056896D01*
X0119981Y0055297D02*
X0115952Y0055297D01*
X0117728Y0053699D02*
X0119981Y0053699D01*
X0119504Y0052100D02*
X0120583Y0052100D01*
X0121100Y0050502D02*
X0197847Y0050502D01*
X0194056Y0048903D02*
X0130280Y0048903D01*
X0130280Y0047305D02*
X0192801Y0047305D01*
X0192500Y0045706D02*
X0130280Y0045706D01*
X0130280Y0044108D02*
X0192933Y0044108D01*
X0194827Y0042509D02*
X0130280Y0042509D01*
X0129678Y0052100D02*
X0191968Y0052100D01*
X0191683Y0053699D02*
X0130280Y0053699D01*
X0130280Y0055297D02*
X0191683Y0055297D01*
X0191683Y0056896D02*
X0130280Y0056896D01*
X0130280Y0058494D02*
X0191683Y0058494D01*
X0192357Y0060093D02*
X0131334Y0060093D01*
X0132933Y0061691D02*
X0185310Y0061691D01*
X0184346Y0063290D02*
X0133100Y0063290D01*
X0133100Y0064888D02*
X0184250Y0064888D01*
X0185018Y0066487D02*
X0133100Y0066487D01*
X0128900Y0066487D02*
X0111100Y0066487D01*
X0111100Y0064888D02*
X0128900Y0064888D01*
X0128591Y0063290D02*
X0111100Y0063290D01*
X0111100Y0061691D02*
X0126993Y0061691D01*
X0120181Y0074479D02*
X0118219Y0074479D01*
X0116620Y0076078D02*
X0120530Y0076078D01*
X0053064Y0072881D02*
X0028902Y0072881D01*
X0028907Y0074479D02*
X0051438Y0074479D01*
X0050834Y0076078D02*
X0028912Y0076078D01*
X0028917Y0077676D02*
X0049594Y0077676D01*
X0047995Y0079275D02*
X0028922Y0079275D01*
X0028927Y0080873D02*
X0046397Y0080873D01*
X0044798Y0082472D02*
X0028932Y0082472D01*
X0028937Y0084070D02*
X0043199Y0084070D01*
X0041601Y0085669D02*
X0028943Y0085669D01*
X0028948Y0087267D02*
X0040002Y0087267D01*
X0038404Y0088866D02*
X0028953Y0088866D01*
X0028958Y0090464D02*
X0036805Y0090464D01*
X0035207Y0092063D02*
X0028963Y0092063D01*
X0028968Y0093661D02*
X0033608Y0093661D01*
X0032010Y0095260D02*
X0028973Y0095260D01*
X0049988Y0084070D02*
X0052278Y0084070D01*
X0028785Y0036115D02*
X0260018Y0036115D01*
X0260605Y0040910D02*
X0289561Y0040910D01*
X0289269Y0042509D02*
X0240380Y0042509D01*
X0240380Y0044108D02*
X0289711Y0044108D01*
X0291647Y0045706D02*
X0240380Y0045706D01*
X0240380Y0047305D02*
X0300161Y0047305D01*
X0301913Y0048903D02*
X0304399Y0048903D01*
X0298287Y0048903D02*
X0240380Y0048903D01*
X0230081Y0048903D02*
X0227714Y0048903D01*
X0229648Y0047305D02*
X0230081Y0047305D01*
X0226924Y0044108D02*
X0199229Y0044108D01*
X0199662Y0045706D02*
X0201576Y0045706D01*
X0200632Y0047305D02*
X0200589Y0047305D01*
X0197335Y0042509D02*
X0230081Y0042509D01*
X0224990Y0045706D02*
X0206685Y0045706D01*
X0207629Y0047305D02*
X0223056Y0047305D01*
X0221122Y0048903D02*
X0212086Y0048903D01*
X0192238Y0061691D02*
X0190352Y0061691D01*
X0190643Y0066487D02*
X0193142Y0066487D01*
X0193221Y0066487D02*
X0195018Y0066487D01*
X0270427Y0084653D02*
X0270427Y0084653D01*
X0302015Y0089176D02*
X0302936Y0086084D01*
X0303562Y0086084D01*
X0303550Y0086151D01*
X0303391Y0086314D01*
X0303398Y0086982D01*
X0303278Y0087638D01*
X0303407Y0087826D01*
X0303422Y0089176D01*
X0302015Y0089176D01*
X0302107Y0088866D02*
X0303418Y0088866D01*
X0303346Y0087267D02*
X0302584Y0087267D01*
X0309615Y0093728D02*
X0309747Y0093860D01*
X0309878Y0093728D01*
X0309747Y0093597D01*
X0309615Y0093728D01*
X0309682Y0093661D02*
X0309811Y0093661D01*
X0309747Y0097534D02*
X0309884Y0097671D01*
X0309933Y0100058D01*
X0309795Y0100311D01*
X0309650Y0100137D01*
X0309650Y0097631D01*
X0309747Y0097534D01*
X0309650Y0098457D02*
X0309900Y0098457D01*
X0309933Y0100055D02*
X0309650Y0100055D01*
X0320237Y0093325D02*
X0320712Y0092745D01*
X0320237Y0092966D01*
X0320237Y0093325D01*
X0340154Y0084070D02*
X0340181Y0084070D01*
X0348175Y0064668D02*
X0348900Y0064668D01*
X0348900Y0063640D01*
X0348686Y0064157D01*
X0348175Y0064668D01*
X0345650Y0062128D02*
X0350750Y0059728D01*
X0351000Y0059478D01*
X0350940Y0053699D02*
X0351981Y0053699D01*
X0351977Y0052100D02*
X0350580Y0052100D01*
X0350280Y0050502D02*
X0351973Y0050502D01*
X0350842Y0042509D02*
X0350580Y0042509D01*
X0295887Y0045706D02*
X0294053Y0045706D01*
X0333070Y0107828D02*
X0333900Y0108659D01*
X0333900Y0108598D01*
X0333130Y0107828D01*
X0333070Y0107828D01*
X0333289Y0108048D02*
X0333350Y0108048D01*
M02*
