G75*
%MOIN*%
%OFA0B0*%
%FSLAX25Y25*%
%IPPOS*%
%LPD*%
%AMOC8*
5,1,8,0,0,1.08239X$1,22.5*
%
%ADD10C,0.00000*%
%ADD11OC8,0.10000*%
%ADD12R,0.04600X0.06300*%
%ADD13R,0.01500X0.01500*%
%ADD14C,0.03962*%
%ADD15C,0.01000*%
%ADD16C,0.01600*%
D10*
X0001000Y0021728D02*
X0001400Y0222489D01*
X0395101Y0222489D01*
X0394701Y0021728D01*
X0001000Y0021728D01*
X0043288Y0055828D02*
X0043290Y0055976D01*
X0043296Y0056124D01*
X0043306Y0056272D01*
X0043320Y0056419D01*
X0043338Y0056566D01*
X0043359Y0056712D01*
X0043385Y0056858D01*
X0043415Y0057003D01*
X0043448Y0057147D01*
X0043486Y0057290D01*
X0043527Y0057432D01*
X0043572Y0057573D01*
X0043620Y0057713D01*
X0043673Y0057852D01*
X0043729Y0057989D01*
X0043789Y0058124D01*
X0043852Y0058258D01*
X0043919Y0058390D01*
X0043990Y0058520D01*
X0044064Y0058648D01*
X0044141Y0058774D01*
X0044222Y0058898D01*
X0044306Y0059020D01*
X0044393Y0059139D01*
X0044484Y0059256D01*
X0044578Y0059371D01*
X0044674Y0059483D01*
X0044774Y0059593D01*
X0044876Y0059699D01*
X0044982Y0059803D01*
X0045090Y0059904D01*
X0045201Y0060002D01*
X0045314Y0060098D01*
X0045430Y0060190D01*
X0045548Y0060279D01*
X0045669Y0060364D01*
X0045792Y0060447D01*
X0045917Y0060526D01*
X0046044Y0060602D01*
X0046173Y0060674D01*
X0046304Y0060743D01*
X0046437Y0060808D01*
X0046572Y0060869D01*
X0046708Y0060927D01*
X0046845Y0060982D01*
X0046984Y0061032D01*
X0047125Y0061079D01*
X0047266Y0061122D01*
X0047409Y0061162D01*
X0047553Y0061197D01*
X0047697Y0061229D01*
X0047843Y0061256D01*
X0047989Y0061280D01*
X0048136Y0061300D01*
X0048283Y0061316D01*
X0048430Y0061328D01*
X0048578Y0061336D01*
X0048726Y0061340D01*
X0048874Y0061340D01*
X0049022Y0061336D01*
X0049170Y0061328D01*
X0049317Y0061316D01*
X0049464Y0061300D01*
X0049611Y0061280D01*
X0049757Y0061256D01*
X0049903Y0061229D01*
X0050047Y0061197D01*
X0050191Y0061162D01*
X0050334Y0061122D01*
X0050475Y0061079D01*
X0050616Y0061032D01*
X0050755Y0060982D01*
X0050892Y0060927D01*
X0051028Y0060869D01*
X0051163Y0060808D01*
X0051296Y0060743D01*
X0051427Y0060674D01*
X0051556Y0060602D01*
X0051683Y0060526D01*
X0051808Y0060447D01*
X0051931Y0060364D01*
X0052052Y0060279D01*
X0052170Y0060190D01*
X0052286Y0060098D01*
X0052399Y0060002D01*
X0052510Y0059904D01*
X0052618Y0059803D01*
X0052724Y0059699D01*
X0052826Y0059593D01*
X0052926Y0059483D01*
X0053022Y0059371D01*
X0053116Y0059256D01*
X0053207Y0059139D01*
X0053294Y0059020D01*
X0053378Y0058898D01*
X0053459Y0058774D01*
X0053536Y0058648D01*
X0053610Y0058520D01*
X0053681Y0058390D01*
X0053748Y0058258D01*
X0053811Y0058124D01*
X0053871Y0057989D01*
X0053927Y0057852D01*
X0053980Y0057713D01*
X0054028Y0057573D01*
X0054073Y0057432D01*
X0054114Y0057290D01*
X0054152Y0057147D01*
X0054185Y0057003D01*
X0054215Y0056858D01*
X0054241Y0056712D01*
X0054262Y0056566D01*
X0054280Y0056419D01*
X0054294Y0056272D01*
X0054304Y0056124D01*
X0054310Y0055976D01*
X0054312Y0055828D01*
X0054310Y0055680D01*
X0054304Y0055532D01*
X0054294Y0055384D01*
X0054280Y0055237D01*
X0054262Y0055090D01*
X0054241Y0054944D01*
X0054215Y0054798D01*
X0054185Y0054653D01*
X0054152Y0054509D01*
X0054114Y0054366D01*
X0054073Y0054224D01*
X0054028Y0054083D01*
X0053980Y0053943D01*
X0053927Y0053804D01*
X0053871Y0053667D01*
X0053811Y0053532D01*
X0053748Y0053398D01*
X0053681Y0053266D01*
X0053610Y0053136D01*
X0053536Y0053008D01*
X0053459Y0052882D01*
X0053378Y0052758D01*
X0053294Y0052636D01*
X0053207Y0052517D01*
X0053116Y0052400D01*
X0053022Y0052285D01*
X0052926Y0052173D01*
X0052826Y0052063D01*
X0052724Y0051957D01*
X0052618Y0051853D01*
X0052510Y0051752D01*
X0052399Y0051654D01*
X0052286Y0051558D01*
X0052170Y0051466D01*
X0052052Y0051377D01*
X0051931Y0051292D01*
X0051808Y0051209D01*
X0051683Y0051130D01*
X0051556Y0051054D01*
X0051427Y0050982D01*
X0051296Y0050913D01*
X0051163Y0050848D01*
X0051028Y0050787D01*
X0050892Y0050729D01*
X0050755Y0050674D01*
X0050616Y0050624D01*
X0050475Y0050577D01*
X0050334Y0050534D01*
X0050191Y0050494D01*
X0050047Y0050459D01*
X0049903Y0050427D01*
X0049757Y0050400D01*
X0049611Y0050376D01*
X0049464Y0050356D01*
X0049317Y0050340D01*
X0049170Y0050328D01*
X0049022Y0050320D01*
X0048874Y0050316D01*
X0048726Y0050316D01*
X0048578Y0050320D01*
X0048430Y0050328D01*
X0048283Y0050340D01*
X0048136Y0050356D01*
X0047989Y0050376D01*
X0047843Y0050400D01*
X0047697Y0050427D01*
X0047553Y0050459D01*
X0047409Y0050494D01*
X0047266Y0050534D01*
X0047125Y0050577D01*
X0046984Y0050624D01*
X0046845Y0050674D01*
X0046708Y0050729D01*
X0046572Y0050787D01*
X0046437Y0050848D01*
X0046304Y0050913D01*
X0046173Y0050982D01*
X0046044Y0051054D01*
X0045917Y0051130D01*
X0045792Y0051209D01*
X0045669Y0051292D01*
X0045548Y0051377D01*
X0045430Y0051466D01*
X0045314Y0051558D01*
X0045201Y0051654D01*
X0045090Y0051752D01*
X0044982Y0051853D01*
X0044876Y0051957D01*
X0044774Y0052063D01*
X0044674Y0052173D01*
X0044578Y0052285D01*
X0044484Y0052400D01*
X0044393Y0052517D01*
X0044306Y0052636D01*
X0044222Y0052758D01*
X0044141Y0052882D01*
X0044064Y0053008D01*
X0043990Y0053136D01*
X0043919Y0053266D01*
X0043852Y0053398D01*
X0043789Y0053532D01*
X0043729Y0053667D01*
X0043673Y0053804D01*
X0043620Y0053943D01*
X0043572Y0054083D01*
X0043527Y0054224D01*
X0043486Y0054366D01*
X0043448Y0054509D01*
X0043415Y0054653D01*
X0043385Y0054798D01*
X0043359Y0054944D01*
X0043338Y0055090D01*
X0043320Y0055237D01*
X0043306Y0055384D01*
X0043296Y0055532D01*
X0043290Y0055680D01*
X0043288Y0055828D01*
X0269488Y0098728D02*
X0269490Y0098876D01*
X0269496Y0099024D01*
X0269506Y0099172D01*
X0269520Y0099319D01*
X0269538Y0099466D01*
X0269559Y0099612D01*
X0269585Y0099758D01*
X0269615Y0099903D01*
X0269648Y0100047D01*
X0269686Y0100190D01*
X0269727Y0100332D01*
X0269772Y0100473D01*
X0269820Y0100613D01*
X0269873Y0100752D01*
X0269929Y0100889D01*
X0269989Y0101024D01*
X0270052Y0101158D01*
X0270119Y0101290D01*
X0270190Y0101420D01*
X0270264Y0101548D01*
X0270341Y0101674D01*
X0270422Y0101798D01*
X0270506Y0101920D01*
X0270593Y0102039D01*
X0270684Y0102156D01*
X0270778Y0102271D01*
X0270874Y0102383D01*
X0270974Y0102493D01*
X0271076Y0102599D01*
X0271182Y0102703D01*
X0271290Y0102804D01*
X0271401Y0102902D01*
X0271514Y0102998D01*
X0271630Y0103090D01*
X0271748Y0103179D01*
X0271869Y0103264D01*
X0271992Y0103347D01*
X0272117Y0103426D01*
X0272244Y0103502D01*
X0272373Y0103574D01*
X0272504Y0103643D01*
X0272637Y0103708D01*
X0272772Y0103769D01*
X0272908Y0103827D01*
X0273045Y0103882D01*
X0273184Y0103932D01*
X0273325Y0103979D01*
X0273466Y0104022D01*
X0273609Y0104062D01*
X0273753Y0104097D01*
X0273897Y0104129D01*
X0274043Y0104156D01*
X0274189Y0104180D01*
X0274336Y0104200D01*
X0274483Y0104216D01*
X0274630Y0104228D01*
X0274778Y0104236D01*
X0274926Y0104240D01*
X0275074Y0104240D01*
X0275222Y0104236D01*
X0275370Y0104228D01*
X0275517Y0104216D01*
X0275664Y0104200D01*
X0275811Y0104180D01*
X0275957Y0104156D01*
X0276103Y0104129D01*
X0276247Y0104097D01*
X0276391Y0104062D01*
X0276534Y0104022D01*
X0276675Y0103979D01*
X0276816Y0103932D01*
X0276955Y0103882D01*
X0277092Y0103827D01*
X0277228Y0103769D01*
X0277363Y0103708D01*
X0277496Y0103643D01*
X0277627Y0103574D01*
X0277756Y0103502D01*
X0277883Y0103426D01*
X0278008Y0103347D01*
X0278131Y0103264D01*
X0278252Y0103179D01*
X0278370Y0103090D01*
X0278486Y0102998D01*
X0278599Y0102902D01*
X0278710Y0102804D01*
X0278818Y0102703D01*
X0278924Y0102599D01*
X0279026Y0102493D01*
X0279126Y0102383D01*
X0279222Y0102271D01*
X0279316Y0102156D01*
X0279407Y0102039D01*
X0279494Y0101920D01*
X0279578Y0101798D01*
X0279659Y0101674D01*
X0279736Y0101548D01*
X0279810Y0101420D01*
X0279881Y0101290D01*
X0279948Y0101158D01*
X0280011Y0101024D01*
X0280071Y0100889D01*
X0280127Y0100752D01*
X0280180Y0100613D01*
X0280228Y0100473D01*
X0280273Y0100332D01*
X0280314Y0100190D01*
X0280352Y0100047D01*
X0280385Y0099903D01*
X0280415Y0099758D01*
X0280441Y0099612D01*
X0280462Y0099466D01*
X0280480Y0099319D01*
X0280494Y0099172D01*
X0280504Y0099024D01*
X0280510Y0098876D01*
X0280512Y0098728D01*
X0280510Y0098580D01*
X0280504Y0098432D01*
X0280494Y0098284D01*
X0280480Y0098137D01*
X0280462Y0097990D01*
X0280441Y0097844D01*
X0280415Y0097698D01*
X0280385Y0097553D01*
X0280352Y0097409D01*
X0280314Y0097266D01*
X0280273Y0097124D01*
X0280228Y0096983D01*
X0280180Y0096843D01*
X0280127Y0096704D01*
X0280071Y0096567D01*
X0280011Y0096432D01*
X0279948Y0096298D01*
X0279881Y0096166D01*
X0279810Y0096036D01*
X0279736Y0095908D01*
X0279659Y0095782D01*
X0279578Y0095658D01*
X0279494Y0095536D01*
X0279407Y0095417D01*
X0279316Y0095300D01*
X0279222Y0095185D01*
X0279126Y0095073D01*
X0279026Y0094963D01*
X0278924Y0094857D01*
X0278818Y0094753D01*
X0278710Y0094652D01*
X0278599Y0094554D01*
X0278486Y0094458D01*
X0278370Y0094366D01*
X0278252Y0094277D01*
X0278131Y0094192D01*
X0278008Y0094109D01*
X0277883Y0094030D01*
X0277756Y0093954D01*
X0277627Y0093882D01*
X0277496Y0093813D01*
X0277363Y0093748D01*
X0277228Y0093687D01*
X0277092Y0093629D01*
X0276955Y0093574D01*
X0276816Y0093524D01*
X0276675Y0093477D01*
X0276534Y0093434D01*
X0276391Y0093394D01*
X0276247Y0093359D01*
X0276103Y0093327D01*
X0275957Y0093300D01*
X0275811Y0093276D01*
X0275664Y0093256D01*
X0275517Y0093240D01*
X0275370Y0093228D01*
X0275222Y0093220D01*
X0275074Y0093216D01*
X0274926Y0093216D01*
X0274778Y0093220D01*
X0274630Y0093228D01*
X0274483Y0093240D01*
X0274336Y0093256D01*
X0274189Y0093276D01*
X0274043Y0093300D01*
X0273897Y0093327D01*
X0273753Y0093359D01*
X0273609Y0093394D01*
X0273466Y0093434D01*
X0273325Y0093477D01*
X0273184Y0093524D01*
X0273045Y0093574D01*
X0272908Y0093629D01*
X0272772Y0093687D01*
X0272637Y0093748D01*
X0272504Y0093813D01*
X0272373Y0093882D01*
X0272244Y0093954D01*
X0272117Y0094030D01*
X0271992Y0094109D01*
X0271869Y0094192D01*
X0271748Y0094277D01*
X0271630Y0094366D01*
X0271514Y0094458D01*
X0271401Y0094554D01*
X0271290Y0094652D01*
X0271182Y0094753D01*
X0271076Y0094857D01*
X0270974Y0094963D01*
X0270874Y0095073D01*
X0270778Y0095185D01*
X0270684Y0095300D01*
X0270593Y0095417D01*
X0270506Y0095536D01*
X0270422Y0095658D01*
X0270341Y0095782D01*
X0270264Y0095908D01*
X0270190Y0096036D01*
X0270119Y0096166D01*
X0270052Y0096298D01*
X0269989Y0096432D01*
X0269929Y0096567D01*
X0269873Y0096704D01*
X0269820Y0096843D01*
X0269772Y0096983D01*
X0269727Y0097124D01*
X0269686Y0097266D01*
X0269648Y0097409D01*
X0269615Y0097553D01*
X0269585Y0097698D01*
X0269559Y0097844D01*
X0269538Y0097990D01*
X0269520Y0098137D01*
X0269506Y0098284D01*
X0269496Y0098432D01*
X0269490Y0098580D01*
X0269488Y0098728D01*
D11*
X0150331Y0202516D03*
X0262831Y0205016D03*
X0030331Y0203516D03*
D12*
X0028000Y0082728D03*
X0022000Y0082728D03*
X0363050Y0071278D03*
X0369050Y0071278D03*
D13*
X0364617Y0097015D03*
X0364618Y0099515D03*
X0364618Y0102015D03*
X0364618Y0104515D03*
X0361044Y0104515D03*
X0361044Y0102015D03*
X0361044Y0099515D03*
X0361043Y0097015D03*
X0361043Y0107016D03*
X0361043Y0109516D03*
X0361043Y0112016D03*
X0361043Y0114516D03*
X0361043Y0117016D03*
X0361043Y0119516D03*
X0361043Y0122016D03*
X0361043Y0124516D03*
X0361043Y0127016D03*
X0361043Y0129516D03*
X0361043Y0132016D03*
X0361043Y0134516D03*
X0361043Y0137016D03*
X0361043Y0139516D03*
X0361043Y0142016D03*
X0361043Y0144516D03*
X0361043Y0147016D03*
X0361043Y0149516D03*
X0361043Y0152016D03*
X0361043Y0154516D03*
X0361043Y0157016D03*
X0361043Y0159516D03*
X0361043Y0162016D03*
X0361043Y0164516D03*
X0361043Y0167016D03*
X0361043Y0169516D03*
X0361043Y0172016D03*
X0361043Y0174516D03*
X0361043Y0177016D03*
X0361043Y0179516D03*
X0361043Y0182016D03*
X0361043Y0184516D03*
X0361043Y0187016D03*
X0361043Y0189516D03*
X0361043Y0192016D03*
X0361043Y0194516D03*
X0364618Y0194516D03*
X0364618Y0192016D03*
X0364618Y0189516D03*
X0364618Y0187016D03*
X0364618Y0184516D03*
X0364618Y0182016D03*
X0364618Y0179516D03*
X0364618Y0177016D03*
X0364618Y0174516D03*
X0364618Y0172016D03*
X0364618Y0169516D03*
X0364618Y0167016D03*
X0364618Y0164516D03*
X0364618Y0162016D03*
X0364618Y0159516D03*
X0364618Y0157016D03*
X0364618Y0154516D03*
X0364618Y0152016D03*
X0364618Y0149516D03*
X0364618Y0147016D03*
X0364618Y0144516D03*
X0364618Y0142016D03*
X0364618Y0139516D03*
X0364618Y0137016D03*
X0364618Y0134516D03*
X0364618Y0132016D03*
X0364618Y0129516D03*
X0364618Y0127016D03*
X0364618Y0124516D03*
X0364618Y0122016D03*
X0364618Y0119516D03*
X0364618Y0117016D03*
X0364618Y0114516D03*
X0364618Y0112016D03*
X0364618Y0109516D03*
X0364618Y0107016D03*
X0364618Y0197016D03*
X0364618Y0199516D03*
X0364618Y0202016D03*
X0361043Y0202016D03*
X0361043Y0199516D03*
X0361043Y0197016D03*
X0030287Y0196228D03*
X0030287Y0193728D03*
X0030287Y0191228D03*
X0030287Y0188728D03*
X0030287Y0186228D03*
X0030287Y0183728D03*
X0030287Y0181228D03*
X0030287Y0178728D03*
X0030287Y0176278D03*
X0030287Y0173778D03*
X0030287Y0171178D03*
X0030287Y0168778D03*
X0030287Y0166278D03*
X0030287Y0163778D03*
X0030287Y0161278D03*
X0030287Y0158778D03*
X0030287Y0156278D03*
X0030318Y0153778D03*
X0030287Y0151278D03*
X0030287Y0148778D03*
X0030287Y0146278D03*
X0030287Y0143778D03*
X0030287Y0141278D03*
X0030287Y0138778D03*
X0030287Y0136278D03*
X0030287Y0133778D03*
X0026713Y0133778D03*
X0026713Y0136278D03*
X0026713Y0138778D03*
X0026713Y0141278D03*
X0026713Y0143778D03*
X0026713Y0146278D03*
X0026713Y0148778D03*
X0026713Y0151278D03*
X0026743Y0153778D03*
X0026713Y0156278D03*
X0026713Y0158778D03*
X0026713Y0161278D03*
X0026713Y0163778D03*
X0026713Y0166278D03*
X0026713Y0168778D03*
X0026713Y0171178D03*
X0026713Y0173778D03*
X0026713Y0176278D03*
X0026713Y0178728D03*
X0026713Y0181228D03*
X0026713Y0183728D03*
X0026713Y0186228D03*
X0026713Y0188728D03*
X0026713Y0191228D03*
X0026713Y0193728D03*
X0026713Y0196228D03*
X0026713Y0131278D03*
X0026713Y0128778D03*
X0026713Y0126278D03*
X0026713Y0123778D03*
X0026713Y0121278D03*
X0030287Y0121278D03*
X0030287Y0123778D03*
X0030287Y0126278D03*
X0030287Y0128778D03*
X0030287Y0131278D03*
D14*
X0047200Y0115878D03*
X0072150Y0110478D03*
X0080831Y0089016D03*
X0068000Y0084728D03*
X0063000Y0081728D03*
X0055000Y0081728D03*
X0060337Y0089916D03*
X0090331Y0067516D03*
X0090331Y0062516D03*
X0102831Y0052516D03*
X0104831Y0047516D03*
X0100631Y0043766D03*
X0105331Y0072516D03*
X0122831Y0090016D03*
X0187831Y0064235D03*
X0197831Y0064235D03*
X0217831Y0072516D03*
X0190331Y0087516D03*
X0234831Y0091016D03*
X0289831Y0070016D03*
X0301531Y0069785D03*
X0316681Y0074716D03*
X0318400Y0067528D03*
X0305850Y0052178D03*
X0300100Y0052028D03*
X0292850Y0042328D03*
X0316950Y0045328D03*
X0330400Y0045878D03*
X0345650Y0062128D03*
X0328531Y0097316D03*
X0297131Y0098216D03*
X0217000Y0053009D03*
X0204131Y0048216D03*
X0196081Y0045866D03*
X0204050Y0144928D03*
X0093000Y0149728D03*
X0320000Y0203728D03*
D15*
X0284000Y0182178D02*
X0281050Y0178778D01*
X0027287Y0178778D01*
X0027337Y0176328D02*
X0281950Y0176678D01*
X0285000Y0179728D01*
X0360831Y0179728D01*
X0361043Y0179516D01*
X0361043Y0182016D02*
X0360756Y0182178D01*
X0284000Y0182178D01*
X0281950Y0184528D02*
X0278500Y0181228D01*
X0030287Y0181228D01*
X0030287Y0183728D02*
X0277000Y0183728D01*
X0280000Y0187178D01*
X0360756Y0187178D01*
X0361043Y0187016D01*
X0361043Y0189516D02*
X0360731Y0189628D01*
X0277900Y0189628D01*
X0274500Y0186228D01*
X0030287Y0186228D01*
X0030287Y0188728D02*
X0273000Y0188728D01*
X0276000Y0191928D01*
X0360756Y0191928D01*
X0361043Y0192016D01*
X0361043Y0194516D02*
X0360831Y0194528D01*
X0274000Y0194528D01*
X0271000Y0191728D01*
X0260000Y0191728D01*
X0259000Y0190728D01*
X0141000Y0190728D01*
X0140600Y0191128D01*
X0140509Y0191128D01*
X0140409Y0191228D01*
X0030287Y0191228D01*
X0030287Y0193728D02*
X0140454Y0193728D01*
X0141254Y0192928D01*
X0141800Y0192928D01*
X0142000Y0192728D01*
X0256000Y0192728D01*
X0258000Y0194728D01*
X0270000Y0194728D01*
X0272000Y0197228D01*
X0360756Y0197228D01*
X0361043Y0197016D01*
X0361043Y0199516D02*
X0360831Y0199728D01*
X0270000Y0199728D01*
X0268000Y0197728D01*
X0257000Y0197728D01*
X0254000Y0194728D01*
X0143000Y0194728D01*
X0141500Y0196228D01*
X0030287Y0196228D01*
X0027237Y0173878D02*
X0284550Y0174278D01*
X0286900Y0176928D01*
X0360656Y0176928D01*
X0361043Y0177016D01*
X0360781Y0174678D02*
X0287950Y0174678D01*
X0285450Y0172178D01*
X0027237Y0171128D01*
X0030287Y0168778D02*
X0287000Y0169728D01*
X0289000Y0171978D01*
X0360756Y0171978D01*
X0361043Y0172016D01*
X0361043Y0174516D02*
X0360781Y0174678D01*
X0361043Y0169516D02*
X0360731Y0169378D01*
X0291900Y0169378D01*
X0289500Y0167228D01*
X0030287Y0166278D01*
X0030287Y0163778D02*
X0292000Y0164728D01*
X0293950Y0167278D01*
X0360706Y0167278D01*
X0361043Y0167016D01*
X0360781Y0164628D02*
X0295950Y0164628D01*
X0293500Y0162228D01*
X0030287Y0161278D01*
X0030287Y0158778D02*
X0295000Y0159728D01*
X0296900Y0162178D01*
X0360656Y0162178D01*
X0361043Y0162016D01*
X0361043Y0164516D02*
X0360781Y0164628D01*
X0353050Y0152128D02*
X0347000Y0156728D01*
X0030287Y0156278D01*
X0030318Y0153778D02*
X0346000Y0153728D01*
X0350900Y0149428D01*
X0360731Y0149428D01*
X0361043Y0149516D01*
X0361043Y0152016D02*
X0360806Y0152128D01*
X0353050Y0152128D01*
X0348567Y0146766D02*
X0345604Y0148478D01*
X0093000Y0149728D01*
X0089641Y0141447D02*
X0080860Y0151228D01*
X0030287Y0151278D01*
X0030287Y0148778D02*
X0078000Y0148728D01*
X0087000Y0138728D01*
X0348000Y0138728D01*
X0356000Y0131728D01*
X0360756Y0131728D01*
X0361043Y0132016D01*
X0361043Y0134516D02*
X0360831Y0134728D01*
X0356000Y0134728D01*
X0348281Y0141447D01*
X0089641Y0141447D01*
X0084000Y0136728D02*
X0346000Y0136728D01*
X0354213Y0129516D01*
X0361043Y0129516D01*
X0361043Y0127016D02*
X0360756Y0126728D01*
X0353000Y0126728D01*
X0345000Y0133728D01*
X0082000Y0133728D01*
X0073000Y0143728D01*
X0030287Y0143778D01*
X0030287Y0141278D02*
X0034576Y0141278D01*
X0035626Y0141178D01*
X0071000Y0141178D01*
X0080000Y0130728D01*
X0342000Y0130728D01*
X0349213Y0124516D01*
X0361043Y0124516D01*
X0361043Y0122016D02*
X0360756Y0121728D01*
X0349000Y0121728D01*
X0342000Y0127728D01*
X0078000Y0127728D01*
X0068000Y0138728D01*
X0030287Y0138778D01*
X0030287Y0136278D02*
X0066000Y0136278D01*
X0076000Y0124728D01*
X0341000Y0124728D01*
X0347000Y0119728D01*
X0360831Y0119728D01*
X0361043Y0119516D01*
X0361043Y0117016D02*
X0344713Y0117016D01*
X0338000Y0121728D01*
X0075000Y0121728D01*
X0064600Y0133778D01*
X0030287Y0133778D01*
X0030287Y0131278D02*
X0036837Y0131228D01*
X0063050Y0131228D01*
X0073000Y0118728D01*
X0333000Y0118728D01*
X0337213Y0114516D01*
X0361043Y0114516D01*
X0361043Y0112016D02*
X0334756Y0111728D01*
X0334000Y0111728D01*
X0330000Y0115728D01*
X0089000Y0115728D01*
X0077000Y0105728D01*
X0077000Y0053728D01*
X0079022Y0050707D01*
X0101022Y0050707D01*
X0102831Y0052516D01*
X0104831Y0047516D02*
X0079213Y0047516D01*
X0074000Y0053728D01*
X0074000Y0102016D01*
X0072913Y0104316D01*
X0072150Y0110478D01*
X0068000Y0118728D02*
X0061150Y0128578D01*
X0034937Y0128578D01*
X0030287Y0128778D01*
X0030287Y0126278D02*
X0060000Y0126278D01*
X0064000Y0118728D01*
X0064000Y0082728D01*
X0063000Y0081728D01*
X0068000Y0084728D02*
X0068000Y0118728D01*
X0055000Y0115728D02*
X0051450Y0123828D01*
X0037087Y0123828D01*
X0030287Y0123778D01*
X0030287Y0121278D02*
X0041250Y0121228D01*
X0047200Y0115878D01*
X0055000Y0115728D02*
X0055000Y0081728D01*
X0080831Y0089016D02*
X0082831Y0090016D01*
X0122831Y0090016D01*
X0125331Y0072516D02*
X0105331Y0072516D01*
X0109971Y0070016D02*
X0122831Y0070016D01*
X0132831Y0067516D01*
X0184550Y0067516D01*
X0187831Y0064235D01*
X0191112Y0067516D01*
X0215331Y0067516D01*
X0217050Y0064235D01*
X0226808Y0064235D01*
X0230463Y0067119D01*
X0237567Y0070016D01*
X0289831Y0070016D01*
X0290981Y0066585D02*
X0301531Y0069785D01*
X0303700Y0065628D02*
X0306650Y0071078D01*
X0325850Y0070878D01*
X0332800Y0097278D01*
X0332750Y0104828D01*
X0336837Y0109366D01*
X0361043Y0109516D01*
X0361043Y0107016D02*
X0339437Y0107016D01*
X0335400Y0102828D01*
X0335500Y0097328D01*
X0328100Y0067578D01*
X0327100Y0067328D01*
X0318400Y0067528D01*
X0316681Y0074716D02*
X0310431Y0075266D01*
X0235331Y0075016D01*
X0227831Y0072516D01*
X0217831Y0072516D01*
X0207831Y0070016D01*
X0132831Y0070016D01*
X0125331Y0072516D01*
X0120331Y0067516D02*
X0130331Y0065016D01*
X0180331Y0065016D01*
X0182831Y0060016D01*
X0189550Y0060016D01*
X0197831Y0064235D01*
X0201112Y0065016D01*
X0212831Y0065016D01*
X0215331Y0060016D01*
X0227831Y0060016D01*
X0237050Y0066735D01*
X0290981Y0066585D01*
X0303700Y0065628D02*
X0217719Y0052728D01*
X0217000Y0053009D01*
X0214093Y0048528D02*
X0316950Y0045328D01*
X0311100Y0041828D02*
X0322800Y0041678D01*
X0335350Y0062478D01*
X0336750Y0065328D01*
X0341250Y0084828D01*
X0344100Y0097978D01*
X0345637Y0099515D01*
X0361044Y0099515D01*
X0361043Y0097015D02*
X0348187Y0097015D01*
X0346300Y0095128D01*
X0339650Y0063978D01*
X0334750Y0054178D01*
X0333150Y0051278D01*
X0330400Y0045878D01*
X0324550Y0051128D02*
X0322400Y0048878D01*
X0302000Y0048878D01*
X0300500Y0049428D01*
X0300100Y0052028D01*
X0305850Y0052178D02*
X0310400Y0053828D01*
X0322700Y0053828D01*
X0330450Y0066728D01*
X0339200Y0101778D01*
X0342437Y0104415D01*
X0361044Y0104515D01*
X0361044Y0102015D02*
X0343887Y0102015D01*
X0341700Y0100028D01*
X0333600Y0065828D01*
X0324550Y0051178D01*
X0324550Y0051128D01*
X0311100Y0041828D02*
X0292850Y0042328D01*
X0202168Y0043928D01*
X0196081Y0045866D01*
X0182531Y0040016D01*
X0100331Y0040016D01*
X0100631Y0043766D01*
X0104831Y0047516D02*
X0109331Y0042516D01*
X0178191Y0042516D01*
X0178522Y0042597D01*
X0194350Y0050397D01*
X0204131Y0048216D01*
X0214093Y0048528D01*
X0253000Y0090728D02*
X0265000Y0078728D01*
X0284000Y0078728D01*
X0296837Y0090716D01*
X0297131Y0098216D01*
X0328381Y0098266D01*
X0328531Y0097316D01*
X0353959Y0144378D02*
X0354571Y0144466D01*
X0358493Y0144466D01*
X0361043Y0144516D01*
X0360443Y0146766D02*
X0348567Y0146766D01*
X0353959Y0144378D02*
X0204050Y0144928D01*
X0281950Y0184528D02*
X0360781Y0184528D01*
X0361043Y0184516D01*
X0361043Y0147016D02*
X0360443Y0146766D01*
X0253000Y0090728D02*
X0235118Y0090728D01*
X0234831Y0091016D01*
X0225331Y0087516D01*
X0190331Y0087516D01*
X0120331Y0067516D02*
X0112831Y0067516D01*
X0105331Y0062516D01*
X0090331Y0062516D01*
X0090331Y0067516D02*
X0095331Y0067516D01*
X0097831Y0065016D01*
X0102471Y0065016D01*
X0104190Y0066735D01*
X0109971Y0070016D01*
X0084000Y0136728D02*
X0075000Y0146728D01*
X0035626Y0146728D01*
X0036576Y0146678D01*
X0035737Y0146678D01*
X0030287Y0146278D01*
D16*
X0053589Y0124178D02*
X0058736Y0124178D01*
X0061900Y0118206D01*
X0061900Y0085149D01*
X0060971Y0084764D01*
X0059964Y0083757D01*
X0059419Y0082441D01*
X0059419Y0081016D01*
X0059964Y0079700D01*
X0060971Y0078692D01*
X0062288Y0078147D01*
X0063712Y0078147D01*
X0065029Y0078692D01*
X0066036Y0079700D01*
X0066581Y0081016D01*
X0066581Y0081440D01*
X0067288Y0081147D01*
X0068712Y0081147D01*
X0070029Y0081692D01*
X0071036Y0082700D01*
X0071581Y0084016D01*
X0071581Y0085441D01*
X0071036Y0086757D01*
X0070100Y0087693D01*
X0070100Y0107464D01*
X0070121Y0107442D01*
X0070425Y0107317D01*
X0070767Y0104553D01*
X0070642Y0104205D01*
X0070870Y0103723D01*
X0070935Y0103195D01*
X0071228Y0102967D01*
X0071900Y0101544D01*
X0071900Y0053820D01*
X0071832Y0053045D01*
X0071900Y0052964D01*
X0071900Y0052858D01*
X0072450Y0052308D01*
X0077113Y0046751D01*
X0077113Y0046646D01*
X0077663Y0046096D01*
X0078163Y0045500D01*
X0078268Y0045490D01*
X0078343Y0045416D01*
X0079121Y0045416D01*
X0079896Y0045348D01*
X0079977Y0045416D01*
X0097438Y0045416D01*
X0097050Y0044478D01*
X0097050Y0043053D01*
X0097595Y0041737D01*
X0098305Y0041027D01*
X0098299Y0040954D01*
X0098231Y0040886D01*
X0098231Y0040100D01*
X0098168Y0039316D01*
X0098231Y0039243D01*
X0098231Y0039146D01*
X0098787Y0038590D01*
X0099296Y0037992D01*
X0099393Y0037984D01*
X0099461Y0037916D01*
X0100247Y0037916D01*
X0101030Y0037853D01*
X0101104Y0037916D01*
X0182129Y0037916D01*
X0182564Y0037743D01*
X0182965Y0037916D01*
X0183401Y0037916D01*
X0183732Y0038247D01*
X0194203Y0042768D01*
X0195368Y0042285D01*
X0196793Y0042285D01*
X0198109Y0042830D01*
X0198251Y0042971D01*
X0201026Y0042088D01*
X0201261Y0041844D01*
X0201824Y0041834D01*
X0202360Y0041663D01*
X0202662Y0041819D01*
X0289833Y0040281D01*
X0290821Y0039292D01*
X0292138Y0038747D01*
X0293562Y0038747D01*
X0294879Y0039292D01*
X0295735Y0040149D01*
X0310191Y0039752D01*
X0310203Y0039740D01*
X0311058Y0039729D01*
X0311912Y0039705D01*
X0311925Y0039718D01*
X0322203Y0039586D01*
X0322460Y0039431D01*
X0323043Y0039575D01*
X0323643Y0039567D01*
X0323858Y0039777D01*
X0324149Y0039849D01*
X0324459Y0040363D01*
X0324889Y0040782D01*
X0324893Y0041081D01*
X0327038Y0044637D01*
X0327364Y0043850D01*
X0328371Y0042842D01*
X0329688Y0042297D01*
X0331112Y0042297D01*
X0332429Y0042842D01*
X0333436Y0043850D01*
X0333981Y0045166D01*
X0333981Y0046591D01*
X0333595Y0047524D01*
X0335005Y0050294D01*
X0336192Y0052446D01*
X0336239Y0052461D01*
X0336609Y0053201D01*
X0337009Y0053925D01*
X0336995Y0053973D01*
X0341272Y0062527D01*
X0341522Y0062689D01*
X0341648Y0063278D01*
X0341917Y0063817D01*
X0341823Y0064100D01*
X0348224Y0094083D01*
X0349057Y0094915D01*
X0359380Y0094915D01*
X0359630Y0094665D01*
X0362455Y0094665D01*
X0362830Y0095040D01*
X0363205Y0094665D01*
X0365331Y0094665D01*
X0365331Y0076228D01*
X0363400Y0076228D01*
X0363400Y0071628D01*
X0362700Y0071628D01*
X0362700Y0070928D01*
X0363400Y0070928D01*
X0363400Y0066328D01*
X0365331Y0066328D01*
X0365331Y0032516D01*
X0027331Y0032516D01*
X0027331Y0077778D01*
X0027650Y0077778D01*
X0027650Y0082378D01*
X0028350Y0082378D01*
X0028350Y0077778D01*
X0030537Y0077778D01*
X0030995Y0077901D01*
X0031405Y0078138D01*
X0031740Y0078473D01*
X0031977Y0078884D01*
X0032100Y0079341D01*
X0032100Y0082378D01*
X0028350Y0082378D01*
X0028350Y0083078D01*
X0032100Y0083078D01*
X0032100Y0086115D01*
X0031977Y0086573D01*
X0031740Y0086984D01*
X0031405Y0087319D01*
X0030995Y0087556D01*
X0030537Y0087678D01*
X0028350Y0087678D01*
X0028350Y0083078D01*
X0027650Y0083078D01*
X0027650Y0087678D01*
X0027331Y0087678D01*
X0027331Y0118928D01*
X0028125Y0118928D01*
X0028500Y0119303D01*
X0028875Y0118928D01*
X0031700Y0118928D01*
X0031943Y0119171D01*
X0040441Y0119132D01*
X0043619Y0116274D01*
X0043619Y0115166D01*
X0044164Y0113850D01*
X0045171Y0112842D01*
X0046488Y0112297D01*
X0047912Y0112297D01*
X0049229Y0112842D01*
X0050236Y0113850D01*
X0050781Y0115166D01*
X0050781Y0116591D01*
X0050236Y0117907D01*
X0049229Y0118914D01*
X0047912Y0119459D01*
X0046488Y0119459D01*
X0046399Y0119423D01*
X0043835Y0121728D01*
X0050078Y0121728D01*
X0052900Y0115288D01*
X0052900Y0084693D01*
X0051964Y0083757D01*
X0051419Y0082441D01*
X0051419Y0081016D01*
X0051964Y0079700D01*
X0052971Y0078692D01*
X0054288Y0078147D01*
X0055712Y0078147D01*
X0057029Y0078692D01*
X0058036Y0079700D01*
X0058581Y0081016D01*
X0058581Y0082441D01*
X0058036Y0083757D01*
X0057100Y0084693D01*
X0057100Y0115333D01*
X0057273Y0115775D01*
X0057100Y0116168D01*
X0057100Y0116598D01*
X0056765Y0116934D01*
X0053589Y0124178D01*
X0053653Y0124033D02*
X0058813Y0124033D01*
X0059660Y0122435D02*
X0054354Y0122435D01*
X0055054Y0120836D02*
X0060507Y0120836D01*
X0061354Y0119238D02*
X0055755Y0119238D01*
X0056455Y0117639D02*
X0061900Y0117639D01*
X0061900Y0116041D02*
X0057156Y0116041D01*
X0057100Y0114442D02*
X0061900Y0114442D01*
X0061900Y0112843D02*
X0057100Y0112843D01*
X0057100Y0111245D02*
X0061900Y0111245D01*
X0061900Y0109646D02*
X0057100Y0109646D01*
X0057100Y0108048D02*
X0061900Y0108048D01*
X0061900Y0106449D02*
X0057100Y0106449D01*
X0057100Y0104851D02*
X0061900Y0104851D01*
X0061900Y0103252D02*
X0057100Y0103252D01*
X0057100Y0101654D02*
X0061900Y0101654D01*
X0061900Y0100055D02*
X0057100Y0100055D01*
X0057100Y0098457D02*
X0061900Y0098457D01*
X0061900Y0096858D02*
X0057100Y0096858D01*
X0057100Y0095260D02*
X0061900Y0095260D01*
X0061900Y0093661D02*
X0057100Y0093661D01*
X0057100Y0092063D02*
X0061900Y0092063D01*
X0061900Y0090464D02*
X0057100Y0090464D01*
X0057100Y0088866D02*
X0061900Y0088866D01*
X0061900Y0087267D02*
X0057100Y0087267D01*
X0057100Y0085669D02*
X0061900Y0085669D01*
X0060278Y0084070D02*
X0057722Y0084070D01*
X0058568Y0082472D02*
X0059432Y0082472D01*
X0059478Y0080873D02*
X0058522Y0080873D01*
X0058581Y0080245D02*
X0058581Y0088309D01*
X0060337Y0089916D01*
X0052900Y0090464D02*
X0027331Y0090464D01*
X0027331Y0088866D02*
X0052900Y0088866D01*
X0052900Y0087267D02*
X0031457Y0087267D01*
X0032100Y0085669D02*
X0052900Y0085669D01*
X0052278Y0084070D02*
X0032100Y0084070D01*
X0032100Y0080873D02*
X0051478Y0080873D01*
X0051432Y0082472D02*
X0028350Y0082472D01*
X0028000Y0082728D02*
X0048936Y0082728D01*
X0053517Y0078147D01*
X0056483Y0078147D01*
X0058581Y0080245D01*
X0057611Y0079275D02*
X0060389Y0079275D01*
X0065611Y0079275D02*
X0071900Y0079275D01*
X0071900Y0080873D02*
X0066522Y0080873D01*
X0070808Y0082472D02*
X0071900Y0082472D01*
X0071900Y0084070D02*
X0071581Y0084070D01*
X0071487Y0085669D02*
X0071900Y0085669D01*
X0071900Y0087267D02*
X0070525Y0087267D01*
X0070100Y0088866D02*
X0071900Y0088866D01*
X0071900Y0090464D02*
X0070100Y0090464D01*
X0070100Y0092063D02*
X0071900Y0092063D01*
X0071900Y0093661D02*
X0070100Y0093661D01*
X0070100Y0095260D02*
X0071900Y0095260D01*
X0071900Y0096858D02*
X0070100Y0096858D01*
X0070100Y0098457D02*
X0071900Y0098457D01*
X0071900Y0100055D02*
X0070100Y0100055D01*
X0070100Y0101654D02*
X0071848Y0101654D01*
X0070928Y0103252D02*
X0070100Y0103252D01*
X0070100Y0104851D02*
X0070730Y0104851D01*
X0070533Y0106449D02*
X0070100Y0106449D01*
X0079100Y0104745D02*
X0089760Y0113628D01*
X0329130Y0113628D01*
X0331900Y0110858D01*
X0333130Y0109628D01*
X0333899Y0109628D01*
X0333909Y0109619D01*
X0334242Y0109623D01*
X0331222Y0106269D01*
X0330644Y0105684D01*
X0330645Y0105629D01*
X0330608Y0105588D01*
X0330650Y0104767D01*
X0330698Y0097543D01*
X0324236Y0072995D01*
X0319863Y0073041D01*
X0320262Y0074003D01*
X0320262Y0075428D01*
X0319717Y0076744D01*
X0318709Y0077752D01*
X0317393Y0078297D01*
X0315968Y0078297D01*
X0314652Y0077752D01*
X0313963Y0077063D01*
X0311372Y0077291D01*
X0311294Y0077369D01*
X0310520Y0077366D01*
X0309748Y0077434D01*
X0309664Y0077363D01*
X0235823Y0077117D01*
X0235492Y0077283D01*
X0234987Y0077115D01*
X0234454Y0077113D01*
X0234193Y0076850D01*
X0227490Y0074616D01*
X0220795Y0074616D01*
X0219859Y0075552D01*
X0218543Y0076097D01*
X0217118Y0076097D01*
X0215802Y0075552D01*
X0214795Y0074544D01*
X0214507Y0073849D01*
X0207572Y0072116D01*
X0133171Y0072116D01*
X0126465Y0074351D01*
X0126201Y0074616D01*
X0125671Y0074616D01*
X0125170Y0074783D01*
X0124835Y0074616D01*
X0108295Y0074616D01*
X0107359Y0075552D01*
X0106043Y0076097D01*
X0104618Y0076097D01*
X0103302Y0075552D01*
X0102295Y0074544D01*
X0101750Y0073228D01*
X0101750Y0071803D01*
X0102295Y0070487D01*
X0103302Y0069480D01*
X0104152Y0069128D01*
X0103635Y0068835D01*
X0103320Y0068835D01*
X0102906Y0068421D01*
X0102397Y0068132D01*
X0102313Y0067828D01*
X0101601Y0067116D01*
X0098701Y0067116D01*
X0096201Y0069616D01*
X0093295Y0069616D01*
X0092359Y0070552D01*
X0091043Y0071097D01*
X0089618Y0071097D01*
X0088302Y0070552D01*
X0087295Y0069544D01*
X0086750Y0068228D01*
X0086750Y0066803D01*
X0087295Y0065487D01*
X0087766Y0065016D01*
X0087295Y0064544D01*
X0086750Y0063228D01*
X0086750Y0061803D01*
X0087295Y0060487D01*
X0088302Y0059480D01*
X0089618Y0058935D01*
X0091043Y0058935D01*
X0092359Y0059480D01*
X0093295Y0060416D01*
X0105123Y0060416D01*
X0105772Y0060286D01*
X0105967Y0060416D01*
X0106201Y0060416D01*
X0106669Y0060884D01*
X0113467Y0065416D01*
X0120072Y0065416D01*
X0129257Y0063120D01*
X0129461Y0062916D01*
X0130072Y0062916D01*
X0130665Y0062767D01*
X0130912Y0062916D01*
X0179033Y0062916D01*
X0180731Y0059520D01*
X0180731Y0059146D01*
X0181105Y0058772D01*
X0181341Y0058299D01*
X0181696Y0058180D01*
X0181961Y0057916D01*
X0182490Y0057916D01*
X0182992Y0057748D01*
X0183326Y0057916D01*
X0189217Y0057916D01*
X0189728Y0057750D01*
X0190054Y0057916D01*
X0190419Y0057916D01*
X0190799Y0058296D01*
X0196186Y0061040D01*
X0197118Y0060654D01*
X0198543Y0060654D01*
X0199859Y0061199D01*
X0200867Y0062206D01*
X0201139Y0062864D01*
X0201358Y0062916D01*
X0211533Y0062916D01*
X0213231Y0059520D01*
X0213231Y0059146D01*
X0213605Y0058772D01*
X0213841Y0058299D01*
X0214196Y0058180D01*
X0214461Y0057916D01*
X0214990Y0057916D01*
X0215492Y0057748D01*
X0215826Y0057916D01*
X0227667Y0057916D01*
X0228365Y0057806D01*
X0228515Y0057916D01*
X0228701Y0057916D01*
X0229200Y0058415D01*
X0237731Y0064633D01*
X0282088Y0064509D01*
X0219895Y0055178D01*
X0219029Y0056045D01*
X0217712Y0056591D01*
X0216288Y0056591D01*
X0214971Y0056045D01*
X0213964Y0055038D01*
X0213419Y0053722D01*
X0213419Y0052297D01*
X0213964Y0050981D01*
X0214309Y0050636D01*
X0214093Y0050629D01*
X0213289Y0050654D01*
X0213234Y0050602D01*
X0207004Y0050407D01*
X0206159Y0051252D01*
X0204843Y0051797D01*
X0203418Y0051797D01*
X0202102Y0051252D01*
X0201749Y0050898D01*
X0194918Y0052422D01*
X0194202Y0052665D01*
X0194085Y0052607D01*
X0193958Y0052636D01*
X0193319Y0052230D01*
X0177868Y0044616D01*
X0110266Y0044616D01*
X0108376Y0046716D01*
X0108412Y0046803D01*
X0108412Y0048228D01*
X0107867Y0049544D01*
X0106859Y0050552D01*
X0106035Y0050893D01*
X0106412Y0051803D01*
X0106412Y0053228D01*
X0105867Y0054544D01*
X0104859Y0055552D01*
X0103543Y0056097D01*
X0102118Y0056097D01*
X0100802Y0055552D01*
X0099795Y0054544D01*
X0099250Y0053228D01*
X0099250Y0052807D01*
X0080143Y0052807D01*
X0079100Y0054366D01*
X0079100Y0104745D01*
X0079227Y0104851D02*
X0261714Y0104851D01*
X0260924Y0103302D02*
X0260924Y0103302D01*
X0263027Y0107428D01*
X0263027Y0107428D01*
X0266301Y0110702D01*
X0266301Y0110702D01*
X0270427Y0112804D01*
X0275000Y0113528D01*
X0279573Y0112804D01*
X0279573Y0112804D01*
X0283699Y0110702D01*
X0283699Y0110702D01*
X0286973Y0107428D01*
X0286973Y0107428D01*
X0286973Y0107428D01*
X0289076Y0103302D01*
X0289076Y0103302D01*
X0289800Y0098728D01*
X0289076Y0094155D01*
X0286973Y0090029D01*
X0286973Y0090029D01*
X0283699Y0086755D01*
X0283699Y0086755D01*
X0279573Y0084653D01*
X0279573Y0084653D01*
X0275000Y0083928D01*
X0275000Y0083928D01*
X0270427Y0084653D01*
X0270427Y0084653D01*
X0266301Y0086755D01*
X0266301Y0086755D01*
X0263027Y0090029D01*
X0263027Y0090029D01*
X0260924Y0094155D01*
X0260924Y0094155D01*
X0260200Y0098728D01*
X0260200Y0098728D01*
X0260924Y0103302D01*
X0260917Y0103252D02*
X0079100Y0103252D01*
X0079100Y0101654D02*
X0260663Y0101654D01*
X0260410Y0100055D02*
X0079100Y0100055D01*
X0079100Y0098457D02*
X0260243Y0098457D01*
X0260496Y0096858D02*
X0079100Y0096858D01*
X0079100Y0095260D02*
X0260749Y0095260D01*
X0261176Y0093661D02*
X0079100Y0093661D01*
X0079100Y0092063D02*
X0261990Y0092063D01*
X0262805Y0090464D02*
X0079100Y0090464D01*
X0079100Y0088866D02*
X0264190Y0088866D01*
X0265788Y0087267D02*
X0079100Y0087267D01*
X0079100Y0085669D02*
X0268432Y0085669D01*
X0274104Y0084070D02*
X0079100Y0084070D01*
X0079100Y0082472D02*
X0326731Y0082472D01*
X0327151Y0084070D02*
X0275896Y0084070D01*
X0281568Y0085669D02*
X0327572Y0085669D01*
X0327993Y0087267D02*
X0284212Y0087267D01*
X0285810Y0088866D02*
X0328414Y0088866D01*
X0328835Y0090464D02*
X0287195Y0090464D01*
X0288010Y0092063D02*
X0329255Y0092063D01*
X0329676Y0093661D02*
X0288824Y0093661D01*
X0289076Y0094155D02*
X0289076Y0094155D01*
X0289251Y0095260D02*
X0330097Y0095260D01*
X0330518Y0096858D02*
X0289504Y0096858D01*
X0289757Y0098457D02*
X0330692Y0098457D01*
X0330682Y0100055D02*
X0289590Y0100055D01*
X0289337Y0101654D02*
X0330671Y0101654D01*
X0330660Y0103252D02*
X0289083Y0103252D01*
X0288286Y0104851D02*
X0330646Y0104851D01*
X0331384Y0106449D02*
X0287472Y0106449D01*
X0286353Y0108048D02*
X0332824Y0108048D01*
X0333112Y0109646D02*
X0284755Y0109646D01*
X0282633Y0111245D02*
X0331514Y0111245D01*
X0329915Y0112843D02*
X0279324Y0112843D01*
X0270676Y0112843D02*
X0088818Y0112843D01*
X0086900Y0111245D02*
X0267367Y0111245D01*
X0265245Y0109646D02*
X0084982Y0109646D01*
X0083064Y0108048D02*
X0263647Y0108048D01*
X0262528Y0106449D02*
X0081146Y0106449D01*
X0052900Y0106449D02*
X0027331Y0106449D01*
X0027331Y0104851D02*
X0052900Y0104851D01*
X0052900Y0103252D02*
X0027331Y0103252D01*
X0027331Y0101654D02*
X0052900Y0101654D01*
X0052900Y0100055D02*
X0027331Y0100055D01*
X0027331Y0098457D02*
X0052900Y0098457D01*
X0052900Y0096858D02*
X0027331Y0096858D01*
X0027331Y0095260D02*
X0052900Y0095260D01*
X0052900Y0093661D02*
X0027331Y0093661D01*
X0027331Y0092063D02*
X0052900Y0092063D01*
X0052389Y0079275D02*
X0032082Y0079275D01*
X0028350Y0079275D02*
X0027650Y0079275D01*
X0027650Y0080873D02*
X0028350Y0080873D01*
X0028350Y0084070D02*
X0027650Y0084070D01*
X0027650Y0085669D02*
X0028350Y0085669D01*
X0028350Y0087267D02*
X0027650Y0087267D01*
X0027331Y0077676D02*
X0071900Y0077676D01*
X0071900Y0076078D02*
X0027331Y0076078D01*
X0027331Y0074479D02*
X0071900Y0074479D01*
X0071900Y0072881D02*
X0027331Y0072881D01*
X0027331Y0071282D02*
X0071900Y0071282D01*
X0071900Y0069684D02*
X0053806Y0069684D01*
X0053373Y0069904D02*
X0053373Y0069904D01*
X0048800Y0070628D01*
X0044227Y0069904D01*
X0044227Y0069904D01*
X0040101Y0067802D01*
X0040101Y0067802D01*
X0036827Y0064528D01*
X0036827Y0064528D01*
X0034724Y0060402D01*
X0034724Y0060402D01*
X0034000Y0055828D01*
X0034724Y0051255D01*
X0036827Y0047129D01*
X0040101Y0043855D01*
X0044227Y0041753D01*
X0048800Y0041028D01*
X0053373Y0041753D01*
X0053373Y0041753D01*
X0057499Y0043855D01*
X0057499Y0043855D01*
X0060773Y0047129D01*
X0062876Y0051255D01*
X0063600Y0055828D01*
X0062876Y0060402D01*
X0060773Y0064528D01*
X0057499Y0067802D01*
X0053373Y0069904D01*
X0056943Y0068085D02*
X0071900Y0068085D01*
X0071900Y0066487D02*
X0058814Y0066487D01*
X0057499Y0067802D02*
X0057499Y0067802D01*
X0060413Y0064888D02*
X0071900Y0064888D01*
X0071900Y0063290D02*
X0061404Y0063290D01*
X0060773Y0064528D02*
X0060773Y0064528D01*
X0062219Y0061691D02*
X0071900Y0061691D01*
X0071900Y0060093D02*
X0062925Y0060093D01*
X0062876Y0060402D02*
X0062876Y0060402D01*
X0063178Y0058494D02*
X0071900Y0058494D01*
X0071900Y0056896D02*
X0063431Y0056896D01*
X0063516Y0055297D02*
X0071900Y0055297D01*
X0071889Y0053699D02*
X0063263Y0053699D01*
X0063009Y0052100D02*
X0072625Y0052100D01*
X0073966Y0050502D02*
X0062492Y0050502D01*
X0062876Y0051255D02*
X0062876Y0051255D01*
X0061677Y0048903D02*
X0075307Y0048903D01*
X0076649Y0047305D02*
X0060863Y0047305D01*
X0060773Y0047129D02*
X0060773Y0047129D01*
X0059350Y0045706D02*
X0077990Y0045706D01*
X0079547Y0053699D02*
X0099445Y0053699D01*
X0100548Y0055297D02*
X0079100Y0055297D01*
X0079100Y0056896D02*
X0231341Y0056896D01*
X0229308Y0058494D02*
X0241995Y0058494D01*
X0235888Y0063290D02*
X0273959Y0063290D01*
X0263304Y0061691D02*
X0233695Y0061691D01*
X0231502Y0060093D02*
X0252650Y0060093D01*
X0231876Y0076078D02*
X0218589Y0076078D01*
X0217072Y0076078D02*
X0106089Y0076078D01*
X0104572Y0076078D02*
X0079100Y0076078D01*
X0079100Y0077676D02*
X0314577Y0077676D01*
X0318785Y0077676D02*
X0325468Y0077676D01*
X0325047Y0076078D02*
X0319993Y0076078D01*
X0320262Y0074479D02*
X0324626Y0074479D01*
X0325889Y0079275D02*
X0079100Y0079275D01*
X0079100Y0080873D02*
X0326310Y0080873D01*
X0344380Y0076078D02*
X0360007Y0076078D01*
X0360055Y0076106D02*
X0359645Y0075869D01*
X0359310Y0075534D01*
X0359073Y0075123D01*
X0358950Y0074665D01*
X0358950Y0071628D01*
X0362700Y0071628D01*
X0362700Y0076228D01*
X0360513Y0076228D01*
X0360055Y0076106D01*
X0358950Y0074479D02*
X0344039Y0074479D01*
X0343698Y0072881D02*
X0358950Y0072881D01*
X0358950Y0070928D02*
X0358950Y0067891D01*
X0359073Y0067434D01*
X0359310Y0067023D01*
X0359645Y0066688D01*
X0360055Y0066451D01*
X0360513Y0066328D01*
X0362700Y0066328D01*
X0362700Y0070928D01*
X0358950Y0070928D01*
X0358950Y0069684D02*
X0343015Y0069684D01*
X0343357Y0071282D02*
X0362700Y0071282D01*
X0363050Y0071278D02*
X0360650Y0068878D01*
X0355850Y0068878D01*
X0347250Y0061828D01*
X0345650Y0062128D01*
X0341653Y0063290D02*
X0365331Y0063290D01*
X0365331Y0064888D02*
X0341992Y0064888D01*
X0342333Y0066487D02*
X0359993Y0066487D01*
X0358950Y0068085D02*
X0342674Y0068085D01*
X0340854Y0061691D02*
X0365331Y0061691D01*
X0365331Y0060093D02*
X0340055Y0060093D01*
X0339256Y0058494D02*
X0365331Y0058494D01*
X0365331Y0056896D02*
X0338456Y0056896D01*
X0337657Y0055297D02*
X0365331Y0055297D01*
X0365331Y0053699D02*
X0336884Y0053699D01*
X0336002Y0052100D02*
X0365331Y0052100D01*
X0365331Y0050502D02*
X0335120Y0050502D01*
X0334297Y0048903D02*
X0365331Y0048903D01*
X0365331Y0047305D02*
X0333685Y0047305D01*
X0333981Y0045706D02*
X0365331Y0045706D01*
X0365331Y0044108D02*
X0333543Y0044108D01*
X0331624Y0042509D02*
X0365331Y0042509D01*
X0365331Y0040910D02*
X0324890Y0040910D01*
X0325754Y0042509D02*
X0329176Y0042509D01*
X0327257Y0044108D02*
X0326718Y0044108D01*
X0294898Y0039312D02*
X0365331Y0039312D01*
X0365331Y0037713D02*
X0027331Y0037713D01*
X0027331Y0036115D02*
X0365331Y0036115D01*
X0365331Y0034516D02*
X0027331Y0034516D01*
X0027331Y0032918D02*
X0365331Y0032918D01*
X0363400Y0066487D02*
X0362700Y0066487D01*
X0362700Y0068085D02*
X0363400Y0068085D01*
X0363400Y0069684D02*
X0362700Y0069684D01*
X0362700Y0072881D02*
X0363400Y0072881D01*
X0363400Y0074479D02*
X0362700Y0074479D01*
X0362700Y0076078D02*
X0363400Y0076078D01*
X0365331Y0077676D02*
X0344722Y0077676D01*
X0345063Y0079275D02*
X0365331Y0079275D01*
X0365331Y0080873D02*
X0345404Y0080873D01*
X0345745Y0082472D02*
X0365331Y0082472D01*
X0365331Y0084070D02*
X0346087Y0084070D01*
X0346428Y0085669D02*
X0365331Y0085669D01*
X0365331Y0087267D02*
X0346769Y0087267D01*
X0347110Y0088866D02*
X0365331Y0088866D01*
X0365331Y0090464D02*
X0347452Y0090464D01*
X0347793Y0092063D02*
X0365331Y0092063D01*
X0365331Y0093661D02*
X0348134Y0093661D01*
X0290802Y0039312D02*
X0186199Y0039312D01*
X0189901Y0040910D02*
X0254171Y0040910D01*
X0220687Y0055297D02*
X0219777Y0055297D01*
X0214223Y0055297D02*
X0105114Y0055297D01*
X0106217Y0053699D02*
X0213419Y0053699D01*
X0213501Y0052100D02*
X0196360Y0052100D01*
X0193055Y0052100D02*
X0106412Y0052100D01*
X0106909Y0050502D02*
X0189811Y0050502D01*
X0186568Y0048903D02*
X0108132Y0048903D01*
X0108412Y0047305D02*
X0183324Y0047305D01*
X0180080Y0045706D02*
X0109285Y0045706D01*
X0098256Y0040910D02*
X0027331Y0040910D01*
X0027331Y0039312D02*
X0098172Y0039312D01*
X0097275Y0042509D02*
X0054858Y0042509D01*
X0057499Y0043855D02*
X0057499Y0043855D01*
X0057752Y0044108D02*
X0097050Y0044108D01*
X0092972Y0060093D02*
X0180444Y0060093D01*
X0179645Y0061691D02*
X0107880Y0061691D01*
X0110277Y0063290D02*
X0128577Y0063290D01*
X0122183Y0064888D02*
X0112675Y0064888D01*
X0103098Y0069684D02*
X0093227Y0069684D01*
X0097731Y0068085D02*
X0102384Y0068085D01*
X0101965Y0071282D02*
X0079100Y0071282D01*
X0079100Y0069684D02*
X0087434Y0069684D01*
X0086750Y0068085D02*
X0079100Y0068085D01*
X0079100Y0066487D02*
X0086881Y0066487D01*
X0087639Y0064888D02*
X0079100Y0064888D01*
X0079100Y0063290D02*
X0086775Y0063290D01*
X0086796Y0061691D02*
X0079100Y0061691D01*
X0079100Y0060093D02*
X0087689Y0060093D01*
X0079100Y0058494D02*
X0181244Y0058494D01*
X0191189Y0058494D02*
X0213744Y0058494D01*
X0212944Y0060093D02*
X0194327Y0060093D01*
X0200352Y0061691D02*
X0212145Y0061691D01*
X0210632Y0072881D02*
X0130877Y0072881D01*
X0126337Y0074479D02*
X0214768Y0074479D01*
X0210020Y0050502D02*
X0206909Y0050502D01*
X0199703Y0042509D02*
X0197335Y0042509D01*
X0194827Y0042509D02*
X0193604Y0042509D01*
X0101750Y0072881D02*
X0079100Y0072881D01*
X0079100Y0074479D02*
X0102268Y0074479D01*
X0048800Y0070628D02*
X0048800Y0070628D01*
X0043794Y0069684D02*
X0027331Y0069684D01*
X0027331Y0068085D02*
X0040657Y0068085D01*
X0038786Y0066487D02*
X0027331Y0066487D01*
X0027331Y0064888D02*
X0037187Y0064888D01*
X0036196Y0063290D02*
X0027331Y0063290D01*
X0027331Y0061691D02*
X0035381Y0061691D01*
X0034675Y0060093D02*
X0027331Y0060093D01*
X0027331Y0058494D02*
X0034422Y0058494D01*
X0034169Y0056896D02*
X0027331Y0056896D01*
X0027331Y0055297D02*
X0034084Y0055297D01*
X0034000Y0055828D02*
X0034000Y0055828D01*
X0034337Y0053699D02*
X0027331Y0053699D01*
X0027331Y0052100D02*
X0034590Y0052100D01*
X0034724Y0051255D02*
X0034724Y0051255D01*
X0035108Y0050502D02*
X0027331Y0050502D01*
X0027331Y0048903D02*
X0035923Y0048903D01*
X0036737Y0047305D02*
X0027331Y0047305D01*
X0027331Y0045706D02*
X0038250Y0045706D01*
X0036827Y0047129D02*
X0036827Y0047129D01*
X0039848Y0044108D02*
X0027331Y0044108D01*
X0027331Y0042509D02*
X0042742Y0042509D01*
X0044227Y0041753D02*
X0044227Y0041753D01*
X0048800Y0041028D02*
X0048800Y0041028D01*
X0040101Y0043855D02*
X0040101Y0043855D01*
X0027331Y0108048D02*
X0052900Y0108048D01*
X0052900Y0109646D02*
X0027331Y0109646D01*
X0027331Y0111245D02*
X0052900Y0111245D01*
X0052900Y0112843D02*
X0049230Y0112843D01*
X0050481Y0114442D02*
X0052900Y0114442D01*
X0052570Y0116041D02*
X0050781Y0116041D01*
X0050347Y0117639D02*
X0051870Y0117639D01*
X0051169Y0119238D02*
X0048448Y0119238D01*
X0050469Y0120836D02*
X0044827Y0120836D01*
X0042101Y0117639D02*
X0027331Y0117639D01*
X0027331Y0116041D02*
X0043619Y0116041D01*
X0043919Y0114442D02*
X0027331Y0114442D01*
X0027331Y0112843D02*
X0045170Y0112843D01*
X0028565Y0119238D02*
X0028435Y0119238D01*
X0027237Y0171128D02*
X0027237Y0171178D01*
X0026713Y0171178D01*
X0026713Y0173778D02*
X0027237Y0173778D01*
X0027237Y0173878D01*
X0027337Y0176278D02*
X0027337Y0176328D01*
X0027337Y0176278D02*
X0026713Y0176278D01*
X0026713Y0178728D02*
X0027287Y0178728D01*
X0027287Y0178778D01*
X0320000Y0203728D02*
X0359331Y0203728D01*
X0361043Y0202016D01*
M02*
