G75*
%MOIN*%
%OFA0B0*%
%FSLAX25Y25*%
%IPPOS*%
%LPD*%
%AMOC8*
5,1,8,0,0,1.08239X$1,22.5*
%
%ADD10C,0.00000*%
%ADD11C,0.11824*%
%ADD12OC8,0.10800*%
%ADD13R,0.05400X0.07100*%
%ADD14R,0.00600X0.07200*%
%ADD15R,0.02300X0.02300*%
%ADD16C,0.04762*%
D10*
X0001000Y0021728D02*
X0001400Y0222489D01*
X0395101Y0222489D01*
X0394701Y0021728D01*
X0001000Y0021728D01*
X0043288Y0055828D02*
X0043290Y0055976D01*
X0043296Y0056124D01*
X0043306Y0056272D01*
X0043320Y0056419D01*
X0043338Y0056566D01*
X0043359Y0056712D01*
X0043385Y0056858D01*
X0043415Y0057003D01*
X0043448Y0057147D01*
X0043486Y0057290D01*
X0043527Y0057432D01*
X0043572Y0057573D01*
X0043620Y0057713D01*
X0043673Y0057852D01*
X0043729Y0057989D01*
X0043789Y0058124D01*
X0043852Y0058258D01*
X0043919Y0058390D01*
X0043990Y0058520D01*
X0044064Y0058648D01*
X0044141Y0058774D01*
X0044222Y0058898D01*
X0044306Y0059020D01*
X0044393Y0059139D01*
X0044484Y0059256D01*
X0044578Y0059371D01*
X0044674Y0059483D01*
X0044774Y0059593D01*
X0044876Y0059699D01*
X0044982Y0059803D01*
X0045090Y0059904D01*
X0045201Y0060002D01*
X0045314Y0060098D01*
X0045430Y0060190D01*
X0045548Y0060279D01*
X0045669Y0060364D01*
X0045792Y0060447D01*
X0045917Y0060526D01*
X0046044Y0060602D01*
X0046173Y0060674D01*
X0046304Y0060743D01*
X0046437Y0060808D01*
X0046572Y0060869D01*
X0046708Y0060927D01*
X0046845Y0060982D01*
X0046984Y0061032D01*
X0047125Y0061079D01*
X0047266Y0061122D01*
X0047409Y0061162D01*
X0047553Y0061197D01*
X0047697Y0061229D01*
X0047843Y0061256D01*
X0047989Y0061280D01*
X0048136Y0061300D01*
X0048283Y0061316D01*
X0048430Y0061328D01*
X0048578Y0061336D01*
X0048726Y0061340D01*
X0048874Y0061340D01*
X0049022Y0061336D01*
X0049170Y0061328D01*
X0049317Y0061316D01*
X0049464Y0061300D01*
X0049611Y0061280D01*
X0049757Y0061256D01*
X0049903Y0061229D01*
X0050047Y0061197D01*
X0050191Y0061162D01*
X0050334Y0061122D01*
X0050475Y0061079D01*
X0050616Y0061032D01*
X0050755Y0060982D01*
X0050892Y0060927D01*
X0051028Y0060869D01*
X0051163Y0060808D01*
X0051296Y0060743D01*
X0051427Y0060674D01*
X0051556Y0060602D01*
X0051683Y0060526D01*
X0051808Y0060447D01*
X0051931Y0060364D01*
X0052052Y0060279D01*
X0052170Y0060190D01*
X0052286Y0060098D01*
X0052399Y0060002D01*
X0052510Y0059904D01*
X0052618Y0059803D01*
X0052724Y0059699D01*
X0052826Y0059593D01*
X0052926Y0059483D01*
X0053022Y0059371D01*
X0053116Y0059256D01*
X0053207Y0059139D01*
X0053294Y0059020D01*
X0053378Y0058898D01*
X0053459Y0058774D01*
X0053536Y0058648D01*
X0053610Y0058520D01*
X0053681Y0058390D01*
X0053748Y0058258D01*
X0053811Y0058124D01*
X0053871Y0057989D01*
X0053927Y0057852D01*
X0053980Y0057713D01*
X0054028Y0057573D01*
X0054073Y0057432D01*
X0054114Y0057290D01*
X0054152Y0057147D01*
X0054185Y0057003D01*
X0054215Y0056858D01*
X0054241Y0056712D01*
X0054262Y0056566D01*
X0054280Y0056419D01*
X0054294Y0056272D01*
X0054304Y0056124D01*
X0054310Y0055976D01*
X0054312Y0055828D01*
X0054310Y0055680D01*
X0054304Y0055532D01*
X0054294Y0055384D01*
X0054280Y0055237D01*
X0054262Y0055090D01*
X0054241Y0054944D01*
X0054215Y0054798D01*
X0054185Y0054653D01*
X0054152Y0054509D01*
X0054114Y0054366D01*
X0054073Y0054224D01*
X0054028Y0054083D01*
X0053980Y0053943D01*
X0053927Y0053804D01*
X0053871Y0053667D01*
X0053811Y0053532D01*
X0053748Y0053398D01*
X0053681Y0053266D01*
X0053610Y0053136D01*
X0053536Y0053008D01*
X0053459Y0052882D01*
X0053378Y0052758D01*
X0053294Y0052636D01*
X0053207Y0052517D01*
X0053116Y0052400D01*
X0053022Y0052285D01*
X0052926Y0052173D01*
X0052826Y0052063D01*
X0052724Y0051957D01*
X0052618Y0051853D01*
X0052510Y0051752D01*
X0052399Y0051654D01*
X0052286Y0051558D01*
X0052170Y0051466D01*
X0052052Y0051377D01*
X0051931Y0051292D01*
X0051808Y0051209D01*
X0051683Y0051130D01*
X0051556Y0051054D01*
X0051427Y0050982D01*
X0051296Y0050913D01*
X0051163Y0050848D01*
X0051028Y0050787D01*
X0050892Y0050729D01*
X0050755Y0050674D01*
X0050616Y0050624D01*
X0050475Y0050577D01*
X0050334Y0050534D01*
X0050191Y0050494D01*
X0050047Y0050459D01*
X0049903Y0050427D01*
X0049757Y0050400D01*
X0049611Y0050376D01*
X0049464Y0050356D01*
X0049317Y0050340D01*
X0049170Y0050328D01*
X0049022Y0050320D01*
X0048874Y0050316D01*
X0048726Y0050316D01*
X0048578Y0050320D01*
X0048430Y0050328D01*
X0048283Y0050340D01*
X0048136Y0050356D01*
X0047989Y0050376D01*
X0047843Y0050400D01*
X0047697Y0050427D01*
X0047553Y0050459D01*
X0047409Y0050494D01*
X0047266Y0050534D01*
X0047125Y0050577D01*
X0046984Y0050624D01*
X0046845Y0050674D01*
X0046708Y0050729D01*
X0046572Y0050787D01*
X0046437Y0050848D01*
X0046304Y0050913D01*
X0046173Y0050982D01*
X0046044Y0051054D01*
X0045917Y0051130D01*
X0045792Y0051209D01*
X0045669Y0051292D01*
X0045548Y0051377D01*
X0045430Y0051466D01*
X0045314Y0051558D01*
X0045201Y0051654D01*
X0045090Y0051752D01*
X0044982Y0051853D01*
X0044876Y0051957D01*
X0044774Y0052063D01*
X0044674Y0052173D01*
X0044578Y0052285D01*
X0044484Y0052400D01*
X0044393Y0052517D01*
X0044306Y0052636D01*
X0044222Y0052758D01*
X0044141Y0052882D01*
X0044064Y0053008D01*
X0043990Y0053136D01*
X0043919Y0053266D01*
X0043852Y0053398D01*
X0043789Y0053532D01*
X0043729Y0053667D01*
X0043673Y0053804D01*
X0043620Y0053943D01*
X0043572Y0054083D01*
X0043527Y0054224D01*
X0043486Y0054366D01*
X0043448Y0054509D01*
X0043415Y0054653D01*
X0043385Y0054798D01*
X0043359Y0054944D01*
X0043338Y0055090D01*
X0043320Y0055237D01*
X0043306Y0055384D01*
X0043296Y0055532D01*
X0043290Y0055680D01*
X0043288Y0055828D01*
X0269488Y0098728D02*
X0269490Y0098876D01*
X0269496Y0099024D01*
X0269506Y0099172D01*
X0269520Y0099319D01*
X0269538Y0099466D01*
X0269559Y0099612D01*
X0269585Y0099758D01*
X0269615Y0099903D01*
X0269648Y0100047D01*
X0269686Y0100190D01*
X0269727Y0100332D01*
X0269772Y0100473D01*
X0269820Y0100613D01*
X0269873Y0100752D01*
X0269929Y0100889D01*
X0269989Y0101024D01*
X0270052Y0101158D01*
X0270119Y0101290D01*
X0270190Y0101420D01*
X0270264Y0101548D01*
X0270341Y0101674D01*
X0270422Y0101798D01*
X0270506Y0101920D01*
X0270593Y0102039D01*
X0270684Y0102156D01*
X0270778Y0102271D01*
X0270874Y0102383D01*
X0270974Y0102493D01*
X0271076Y0102599D01*
X0271182Y0102703D01*
X0271290Y0102804D01*
X0271401Y0102902D01*
X0271514Y0102998D01*
X0271630Y0103090D01*
X0271748Y0103179D01*
X0271869Y0103264D01*
X0271992Y0103347D01*
X0272117Y0103426D01*
X0272244Y0103502D01*
X0272373Y0103574D01*
X0272504Y0103643D01*
X0272637Y0103708D01*
X0272772Y0103769D01*
X0272908Y0103827D01*
X0273045Y0103882D01*
X0273184Y0103932D01*
X0273325Y0103979D01*
X0273466Y0104022D01*
X0273609Y0104062D01*
X0273753Y0104097D01*
X0273897Y0104129D01*
X0274043Y0104156D01*
X0274189Y0104180D01*
X0274336Y0104200D01*
X0274483Y0104216D01*
X0274630Y0104228D01*
X0274778Y0104236D01*
X0274926Y0104240D01*
X0275074Y0104240D01*
X0275222Y0104236D01*
X0275370Y0104228D01*
X0275517Y0104216D01*
X0275664Y0104200D01*
X0275811Y0104180D01*
X0275957Y0104156D01*
X0276103Y0104129D01*
X0276247Y0104097D01*
X0276391Y0104062D01*
X0276534Y0104022D01*
X0276675Y0103979D01*
X0276816Y0103932D01*
X0276955Y0103882D01*
X0277092Y0103827D01*
X0277228Y0103769D01*
X0277363Y0103708D01*
X0277496Y0103643D01*
X0277627Y0103574D01*
X0277756Y0103502D01*
X0277883Y0103426D01*
X0278008Y0103347D01*
X0278131Y0103264D01*
X0278252Y0103179D01*
X0278370Y0103090D01*
X0278486Y0102998D01*
X0278599Y0102902D01*
X0278710Y0102804D01*
X0278818Y0102703D01*
X0278924Y0102599D01*
X0279026Y0102493D01*
X0279126Y0102383D01*
X0279222Y0102271D01*
X0279316Y0102156D01*
X0279407Y0102039D01*
X0279494Y0101920D01*
X0279578Y0101798D01*
X0279659Y0101674D01*
X0279736Y0101548D01*
X0279810Y0101420D01*
X0279881Y0101290D01*
X0279948Y0101158D01*
X0280011Y0101024D01*
X0280071Y0100889D01*
X0280127Y0100752D01*
X0280180Y0100613D01*
X0280228Y0100473D01*
X0280273Y0100332D01*
X0280314Y0100190D01*
X0280352Y0100047D01*
X0280385Y0099903D01*
X0280415Y0099758D01*
X0280441Y0099612D01*
X0280462Y0099466D01*
X0280480Y0099319D01*
X0280494Y0099172D01*
X0280504Y0099024D01*
X0280510Y0098876D01*
X0280512Y0098728D01*
X0280510Y0098580D01*
X0280504Y0098432D01*
X0280494Y0098284D01*
X0280480Y0098137D01*
X0280462Y0097990D01*
X0280441Y0097844D01*
X0280415Y0097698D01*
X0280385Y0097553D01*
X0280352Y0097409D01*
X0280314Y0097266D01*
X0280273Y0097124D01*
X0280228Y0096983D01*
X0280180Y0096843D01*
X0280127Y0096704D01*
X0280071Y0096567D01*
X0280011Y0096432D01*
X0279948Y0096298D01*
X0279881Y0096166D01*
X0279810Y0096036D01*
X0279736Y0095908D01*
X0279659Y0095782D01*
X0279578Y0095658D01*
X0279494Y0095536D01*
X0279407Y0095417D01*
X0279316Y0095300D01*
X0279222Y0095185D01*
X0279126Y0095073D01*
X0279026Y0094963D01*
X0278924Y0094857D01*
X0278818Y0094753D01*
X0278710Y0094652D01*
X0278599Y0094554D01*
X0278486Y0094458D01*
X0278370Y0094366D01*
X0278252Y0094277D01*
X0278131Y0094192D01*
X0278008Y0094109D01*
X0277883Y0094030D01*
X0277756Y0093954D01*
X0277627Y0093882D01*
X0277496Y0093813D01*
X0277363Y0093748D01*
X0277228Y0093687D01*
X0277092Y0093629D01*
X0276955Y0093574D01*
X0276816Y0093524D01*
X0276675Y0093477D01*
X0276534Y0093434D01*
X0276391Y0093394D01*
X0276247Y0093359D01*
X0276103Y0093327D01*
X0275957Y0093300D01*
X0275811Y0093276D01*
X0275664Y0093256D01*
X0275517Y0093240D01*
X0275370Y0093228D01*
X0275222Y0093220D01*
X0275074Y0093216D01*
X0274926Y0093216D01*
X0274778Y0093220D01*
X0274630Y0093228D01*
X0274483Y0093240D01*
X0274336Y0093256D01*
X0274189Y0093276D01*
X0274043Y0093300D01*
X0273897Y0093327D01*
X0273753Y0093359D01*
X0273609Y0093394D01*
X0273466Y0093434D01*
X0273325Y0093477D01*
X0273184Y0093524D01*
X0273045Y0093574D01*
X0272908Y0093629D01*
X0272772Y0093687D01*
X0272637Y0093748D01*
X0272504Y0093813D01*
X0272373Y0093882D01*
X0272244Y0093954D01*
X0272117Y0094030D01*
X0271992Y0094109D01*
X0271869Y0094192D01*
X0271748Y0094277D01*
X0271630Y0094366D01*
X0271514Y0094458D01*
X0271401Y0094554D01*
X0271290Y0094652D01*
X0271182Y0094753D01*
X0271076Y0094857D01*
X0270974Y0094963D01*
X0270874Y0095073D01*
X0270778Y0095185D01*
X0270684Y0095300D01*
X0270593Y0095417D01*
X0270506Y0095536D01*
X0270422Y0095658D01*
X0270341Y0095782D01*
X0270264Y0095908D01*
X0270190Y0096036D01*
X0270119Y0096166D01*
X0270052Y0096298D01*
X0269989Y0096432D01*
X0269929Y0096567D01*
X0269873Y0096704D01*
X0269820Y0096843D01*
X0269772Y0096983D01*
X0269727Y0097124D01*
X0269686Y0097266D01*
X0269648Y0097409D01*
X0269615Y0097553D01*
X0269585Y0097698D01*
X0269559Y0097844D01*
X0269538Y0097990D01*
X0269520Y0098137D01*
X0269506Y0098284D01*
X0269496Y0098432D01*
X0269490Y0098580D01*
X0269488Y0098728D01*
D11*
X0275000Y0098728D03*
X0048800Y0055828D03*
D12*
X0030331Y0203516D03*
X0150331Y0202516D03*
X0262831Y0205016D03*
D13*
X0363050Y0071278D03*
X0369050Y0071278D03*
X0028000Y0082728D03*
X0022000Y0082728D03*
D14*
X0025000Y0082728D03*
X0366050Y0071278D03*
D15*
X0364617Y0097015D03*
X0364618Y0099515D03*
X0364618Y0102015D03*
X0364618Y0104515D03*
X0361044Y0104515D03*
X0361044Y0102015D03*
X0361044Y0099515D03*
X0361043Y0097015D03*
X0361043Y0107016D03*
X0361043Y0109516D03*
X0361043Y0112016D03*
X0361043Y0114516D03*
X0361043Y0117016D03*
X0361043Y0119516D03*
X0361043Y0122016D03*
X0361043Y0124516D03*
X0361043Y0127016D03*
X0361043Y0129516D03*
X0361043Y0132016D03*
X0361043Y0134516D03*
X0361043Y0137016D03*
X0361043Y0139516D03*
X0361043Y0142016D03*
X0361043Y0144516D03*
X0361043Y0147016D03*
X0361043Y0149516D03*
X0361043Y0152016D03*
X0361043Y0154516D03*
X0361043Y0157016D03*
X0361043Y0159516D03*
X0361043Y0162016D03*
X0361043Y0164516D03*
X0361043Y0167016D03*
X0361043Y0169516D03*
X0361043Y0172016D03*
X0361043Y0174516D03*
X0361043Y0177016D03*
X0361043Y0179516D03*
X0361043Y0182016D03*
X0361043Y0184516D03*
X0361043Y0187016D03*
X0361043Y0189516D03*
X0361043Y0192016D03*
X0361043Y0194516D03*
X0364618Y0194516D03*
X0364618Y0192016D03*
X0364618Y0189516D03*
X0364618Y0187016D03*
X0364618Y0184516D03*
X0364618Y0182016D03*
X0364618Y0179516D03*
X0364618Y0177016D03*
X0364618Y0174516D03*
X0364618Y0172016D03*
X0364618Y0169516D03*
X0364618Y0167016D03*
X0364618Y0164516D03*
X0364618Y0162016D03*
X0364618Y0159516D03*
X0364618Y0157016D03*
X0364618Y0154516D03*
X0364618Y0152016D03*
X0364618Y0149516D03*
X0364618Y0147016D03*
X0364618Y0144516D03*
X0364618Y0142016D03*
X0364618Y0139516D03*
X0364618Y0137016D03*
X0364618Y0134516D03*
X0364618Y0132016D03*
X0364618Y0129516D03*
X0364618Y0127016D03*
X0364618Y0124516D03*
X0364618Y0122016D03*
X0364618Y0119516D03*
X0364618Y0117016D03*
X0364618Y0114516D03*
X0364618Y0112016D03*
X0364618Y0109516D03*
X0364618Y0107016D03*
X0364618Y0197016D03*
X0364618Y0199516D03*
X0364618Y0202016D03*
X0361043Y0202016D03*
X0361043Y0199516D03*
X0361043Y0197016D03*
X0030287Y0196228D03*
X0030287Y0193728D03*
X0030287Y0191228D03*
X0030287Y0188728D03*
X0030287Y0186228D03*
X0030287Y0183728D03*
X0030287Y0181228D03*
X0030287Y0178728D03*
X0030287Y0176278D03*
X0030287Y0173778D03*
X0030287Y0171178D03*
X0030287Y0168778D03*
X0030287Y0166278D03*
X0030287Y0163778D03*
X0030287Y0161278D03*
X0030287Y0158778D03*
X0030287Y0156278D03*
X0030318Y0153778D03*
X0030287Y0151278D03*
X0030287Y0148778D03*
X0030287Y0146278D03*
X0030287Y0143778D03*
X0030287Y0141278D03*
X0030287Y0138778D03*
X0030287Y0136278D03*
X0030287Y0133778D03*
X0026713Y0133778D03*
X0026713Y0136278D03*
X0026713Y0138778D03*
X0026713Y0141278D03*
X0026713Y0143778D03*
X0026713Y0146278D03*
X0026713Y0148778D03*
X0026713Y0151278D03*
X0026743Y0153778D03*
X0026713Y0156278D03*
X0026713Y0158778D03*
X0026713Y0161278D03*
X0026713Y0163778D03*
X0026713Y0166278D03*
X0026713Y0168778D03*
X0026713Y0171178D03*
X0026713Y0173778D03*
X0026713Y0176278D03*
X0026713Y0178728D03*
X0026713Y0181228D03*
X0026713Y0183728D03*
X0026713Y0186228D03*
X0026713Y0188728D03*
X0026713Y0191228D03*
X0026713Y0193728D03*
X0026713Y0196228D03*
X0026713Y0131278D03*
X0026713Y0128778D03*
X0026713Y0126278D03*
X0026713Y0123778D03*
X0026713Y0121278D03*
X0030287Y0121278D03*
X0030287Y0123778D03*
X0030287Y0126278D03*
X0030287Y0128778D03*
X0030287Y0131278D03*
D16*
X0047200Y0115878D03*
X0072150Y0110478D03*
X0080831Y0089016D03*
X0068000Y0084728D03*
X0063000Y0081728D03*
X0055000Y0081728D03*
X0060337Y0089916D03*
X0090331Y0067516D03*
X0090331Y0062516D03*
X0102831Y0052516D03*
X0104831Y0047516D03*
X0100631Y0043766D03*
X0105331Y0072516D03*
X0122831Y0090016D03*
X0187831Y0064235D03*
X0197831Y0064235D03*
X0217831Y0072516D03*
X0190331Y0087516D03*
X0234831Y0091016D03*
X0289831Y0070016D03*
X0301531Y0069785D03*
X0316681Y0074716D03*
X0318400Y0067528D03*
X0305850Y0052178D03*
X0300100Y0052028D03*
X0292850Y0042328D03*
X0316950Y0045328D03*
X0330400Y0045878D03*
X0345650Y0062128D03*
X0328531Y0097316D03*
X0297131Y0098216D03*
X0217000Y0053009D03*
X0204131Y0048216D03*
X0196081Y0045866D03*
X0204050Y0144928D03*
X0093000Y0149728D03*
X0320000Y0203728D03*
M02*
