%
M48
M72
T01C0.0236
T02C0.0360
T03C0.1102
%
T01
X10063Y4377
X10483Y4752
X10283Y5252
X9033Y6252
X9033Y6752
X10533Y7252
X8083Y8902
X6800Y8473
X6300Y8173
X5500Y8173
X6034Y8992
X7215Y11048
X4720Y11588
X9300Y14973
X12283Y9002
X18783Y6423
X19783Y6423
X21783Y7252
X19033Y8752
X23483Y9102
X28983Y7002
X30153Y6978
X31668Y7472
X31840Y6753
X30585Y5218
X30010Y5203
X29285Y4233
X31695Y4533
X33040Y4588
X34565Y6213
X32853Y9732
X29713Y9822
X21700Y5301
X20413Y4822
X19608Y4587
X20405Y14493
X32000Y20373
T02
X26283Y20502
X15033Y20252
X3033Y20352
T03
X4880Y5583
X27500Y9873
M30
