G75*
%MOIN*%
%OFA0B0*%
%FSLAX25Y25*%
%IPPOS*%
%LPD*%
%AMOC8*
5,1,8,0,0,1.08239X$1,22.5*
%
%ADD10C,0.00000*%
D10*
X0014000Y0001800D02*
X0014000Y0206761D01*
X0386701Y0206261D01*
X0386701Y0001300D01*
X0014000Y0001800D01*
X0240488Y0067300D02*
X0240490Y0067448D01*
X0240496Y0067596D01*
X0240506Y0067744D01*
X0240520Y0067891D01*
X0240538Y0068038D01*
X0240559Y0068184D01*
X0240585Y0068330D01*
X0240615Y0068475D01*
X0240648Y0068619D01*
X0240686Y0068762D01*
X0240727Y0068904D01*
X0240772Y0069045D01*
X0240820Y0069185D01*
X0240873Y0069324D01*
X0240929Y0069461D01*
X0240989Y0069596D01*
X0241052Y0069730D01*
X0241119Y0069862D01*
X0241190Y0069992D01*
X0241264Y0070120D01*
X0241341Y0070246D01*
X0241422Y0070370D01*
X0241506Y0070492D01*
X0241593Y0070611D01*
X0241684Y0070728D01*
X0241778Y0070843D01*
X0241874Y0070955D01*
X0241974Y0071065D01*
X0242076Y0071171D01*
X0242182Y0071275D01*
X0242290Y0071376D01*
X0242401Y0071474D01*
X0242514Y0071570D01*
X0242630Y0071662D01*
X0242748Y0071751D01*
X0242869Y0071836D01*
X0242992Y0071919D01*
X0243117Y0071998D01*
X0243244Y0072074D01*
X0243373Y0072146D01*
X0243504Y0072215D01*
X0243637Y0072280D01*
X0243772Y0072341D01*
X0243908Y0072399D01*
X0244045Y0072454D01*
X0244184Y0072504D01*
X0244325Y0072551D01*
X0244466Y0072594D01*
X0244609Y0072634D01*
X0244753Y0072669D01*
X0244897Y0072701D01*
X0245043Y0072728D01*
X0245189Y0072752D01*
X0245336Y0072772D01*
X0245483Y0072788D01*
X0245630Y0072800D01*
X0245778Y0072808D01*
X0245926Y0072812D01*
X0246074Y0072812D01*
X0246222Y0072808D01*
X0246370Y0072800D01*
X0246517Y0072788D01*
X0246664Y0072772D01*
X0246811Y0072752D01*
X0246957Y0072728D01*
X0247103Y0072701D01*
X0247247Y0072669D01*
X0247391Y0072634D01*
X0247534Y0072594D01*
X0247675Y0072551D01*
X0247816Y0072504D01*
X0247955Y0072454D01*
X0248092Y0072399D01*
X0248228Y0072341D01*
X0248363Y0072280D01*
X0248496Y0072215D01*
X0248627Y0072146D01*
X0248756Y0072074D01*
X0248883Y0071998D01*
X0249008Y0071919D01*
X0249131Y0071836D01*
X0249252Y0071751D01*
X0249370Y0071662D01*
X0249486Y0071570D01*
X0249599Y0071474D01*
X0249710Y0071376D01*
X0249818Y0071275D01*
X0249924Y0071171D01*
X0250026Y0071065D01*
X0250126Y0070955D01*
X0250222Y0070843D01*
X0250316Y0070728D01*
X0250407Y0070611D01*
X0250494Y0070492D01*
X0250578Y0070370D01*
X0250659Y0070246D01*
X0250736Y0070120D01*
X0250810Y0069992D01*
X0250881Y0069862D01*
X0250948Y0069730D01*
X0251011Y0069596D01*
X0251071Y0069461D01*
X0251127Y0069324D01*
X0251180Y0069185D01*
X0251228Y0069045D01*
X0251273Y0068904D01*
X0251314Y0068762D01*
X0251352Y0068619D01*
X0251385Y0068475D01*
X0251415Y0068330D01*
X0251441Y0068184D01*
X0251462Y0068038D01*
X0251480Y0067891D01*
X0251494Y0067744D01*
X0251504Y0067596D01*
X0251510Y0067448D01*
X0251512Y0067300D01*
X0251510Y0067152D01*
X0251504Y0067004D01*
X0251494Y0066856D01*
X0251480Y0066709D01*
X0251462Y0066562D01*
X0251441Y0066416D01*
X0251415Y0066270D01*
X0251385Y0066125D01*
X0251352Y0065981D01*
X0251314Y0065838D01*
X0251273Y0065696D01*
X0251228Y0065555D01*
X0251180Y0065415D01*
X0251127Y0065276D01*
X0251071Y0065139D01*
X0251011Y0065004D01*
X0250948Y0064870D01*
X0250881Y0064738D01*
X0250810Y0064608D01*
X0250736Y0064480D01*
X0250659Y0064354D01*
X0250578Y0064230D01*
X0250494Y0064108D01*
X0250407Y0063989D01*
X0250316Y0063872D01*
X0250222Y0063757D01*
X0250126Y0063645D01*
X0250026Y0063535D01*
X0249924Y0063429D01*
X0249818Y0063325D01*
X0249710Y0063224D01*
X0249599Y0063126D01*
X0249486Y0063030D01*
X0249370Y0062938D01*
X0249252Y0062849D01*
X0249131Y0062764D01*
X0249008Y0062681D01*
X0248883Y0062602D01*
X0248756Y0062526D01*
X0248627Y0062454D01*
X0248496Y0062385D01*
X0248363Y0062320D01*
X0248228Y0062259D01*
X0248092Y0062201D01*
X0247955Y0062146D01*
X0247816Y0062096D01*
X0247675Y0062049D01*
X0247534Y0062006D01*
X0247391Y0061966D01*
X0247247Y0061931D01*
X0247103Y0061899D01*
X0246957Y0061872D01*
X0246811Y0061848D01*
X0246664Y0061828D01*
X0246517Y0061812D01*
X0246370Y0061800D01*
X0246222Y0061792D01*
X0246074Y0061788D01*
X0245926Y0061788D01*
X0245778Y0061792D01*
X0245630Y0061800D01*
X0245483Y0061812D01*
X0245336Y0061828D01*
X0245189Y0061848D01*
X0245043Y0061872D01*
X0244897Y0061899D01*
X0244753Y0061931D01*
X0244609Y0061966D01*
X0244466Y0062006D01*
X0244325Y0062049D01*
X0244184Y0062096D01*
X0244045Y0062146D01*
X0243908Y0062201D01*
X0243772Y0062259D01*
X0243637Y0062320D01*
X0243504Y0062385D01*
X0243373Y0062454D01*
X0243244Y0062526D01*
X0243117Y0062602D01*
X0242992Y0062681D01*
X0242869Y0062764D01*
X0242748Y0062849D01*
X0242630Y0062938D01*
X0242514Y0063030D01*
X0242401Y0063126D01*
X0242290Y0063224D01*
X0242182Y0063325D01*
X0242076Y0063429D01*
X0241974Y0063535D01*
X0241874Y0063645D01*
X0241778Y0063757D01*
X0241684Y0063872D01*
X0241593Y0063989D01*
X0241506Y0064108D01*
X0241422Y0064230D01*
X0241341Y0064354D01*
X0241264Y0064480D01*
X0241190Y0064608D01*
X0241119Y0064738D01*
X0241052Y0064870D01*
X0240989Y0065004D01*
X0240929Y0065139D01*
X0240873Y0065276D01*
X0240820Y0065415D01*
X0240772Y0065555D01*
X0240727Y0065696D01*
X0240686Y0065838D01*
X0240648Y0065981D01*
X0240615Y0066125D01*
X0240585Y0066270D01*
X0240559Y0066416D01*
X0240538Y0066562D01*
X0240520Y0066709D01*
X0240506Y0066856D01*
X0240496Y0067004D01*
X0240490Y0067152D01*
X0240488Y0067300D01*
X0311488Y0167800D02*
X0311490Y0167948D01*
X0311496Y0168096D01*
X0311506Y0168244D01*
X0311520Y0168391D01*
X0311538Y0168538D01*
X0311559Y0168684D01*
X0311585Y0168830D01*
X0311615Y0168975D01*
X0311648Y0169119D01*
X0311686Y0169262D01*
X0311727Y0169404D01*
X0311772Y0169545D01*
X0311820Y0169685D01*
X0311873Y0169824D01*
X0311929Y0169961D01*
X0311989Y0170096D01*
X0312052Y0170230D01*
X0312119Y0170362D01*
X0312190Y0170492D01*
X0312264Y0170620D01*
X0312341Y0170746D01*
X0312422Y0170870D01*
X0312506Y0170992D01*
X0312593Y0171111D01*
X0312684Y0171228D01*
X0312778Y0171343D01*
X0312874Y0171455D01*
X0312974Y0171565D01*
X0313076Y0171671D01*
X0313182Y0171775D01*
X0313290Y0171876D01*
X0313401Y0171974D01*
X0313514Y0172070D01*
X0313630Y0172162D01*
X0313748Y0172251D01*
X0313869Y0172336D01*
X0313992Y0172419D01*
X0314117Y0172498D01*
X0314244Y0172574D01*
X0314373Y0172646D01*
X0314504Y0172715D01*
X0314637Y0172780D01*
X0314772Y0172841D01*
X0314908Y0172899D01*
X0315045Y0172954D01*
X0315184Y0173004D01*
X0315325Y0173051D01*
X0315466Y0173094D01*
X0315609Y0173134D01*
X0315753Y0173169D01*
X0315897Y0173201D01*
X0316043Y0173228D01*
X0316189Y0173252D01*
X0316336Y0173272D01*
X0316483Y0173288D01*
X0316630Y0173300D01*
X0316778Y0173308D01*
X0316926Y0173312D01*
X0317074Y0173312D01*
X0317222Y0173308D01*
X0317370Y0173300D01*
X0317517Y0173288D01*
X0317664Y0173272D01*
X0317811Y0173252D01*
X0317957Y0173228D01*
X0318103Y0173201D01*
X0318247Y0173169D01*
X0318391Y0173134D01*
X0318534Y0173094D01*
X0318675Y0173051D01*
X0318816Y0173004D01*
X0318955Y0172954D01*
X0319092Y0172899D01*
X0319228Y0172841D01*
X0319363Y0172780D01*
X0319496Y0172715D01*
X0319627Y0172646D01*
X0319756Y0172574D01*
X0319883Y0172498D01*
X0320008Y0172419D01*
X0320131Y0172336D01*
X0320252Y0172251D01*
X0320370Y0172162D01*
X0320486Y0172070D01*
X0320599Y0171974D01*
X0320710Y0171876D01*
X0320818Y0171775D01*
X0320924Y0171671D01*
X0321026Y0171565D01*
X0321126Y0171455D01*
X0321222Y0171343D01*
X0321316Y0171228D01*
X0321407Y0171111D01*
X0321494Y0170992D01*
X0321578Y0170870D01*
X0321659Y0170746D01*
X0321736Y0170620D01*
X0321810Y0170492D01*
X0321881Y0170362D01*
X0321948Y0170230D01*
X0322011Y0170096D01*
X0322071Y0169961D01*
X0322127Y0169824D01*
X0322180Y0169685D01*
X0322228Y0169545D01*
X0322273Y0169404D01*
X0322314Y0169262D01*
X0322352Y0169119D01*
X0322385Y0168975D01*
X0322415Y0168830D01*
X0322441Y0168684D01*
X0322462Y0168538D01*
X0322480Y0168391D01*
X0322494Y0168244D01*
X0322504Y0168096D01*
X0322510Y0167948D01*
X0322512Y0167800D01*
X0322510Y0167652D01*
X0322504Y0167504D01*
X0322494Y0167356D01*
X0322480Y0167209D01*
X0322462Y0167062D01*
X0322441Y0166916D01*
X0322415Y0166770D01*
X0322385Y0166625D01*
X0322352Y0166481D01*
X0322314Y0166338D01*
X0322273Y0166196D01*
X0322228Y0166055D01*
X0322180Y0165915D01*
X0322127Y0165776D01*
X0322071Y0165639D01*
X0322011Y0165504D01*
X0321948Y0165370D01*
X0321881Y0165238D01*
X0321810Y0165108D01*
X0321736Y0164980D01*
X0321659Y0164854D01*
X0321578Y0164730D01*
X0321494Y0164608D01*
X0321407Y0164489D01*
X0321316Y0164372D01*
X0321222Y0164257D01*
X0321126Y0164145D01*
X0321026Y0164035D01*
X0320924Y0163929D01*
X0320818Y0163825D01*
X0320710Y0163724D01*
X0320599Y0163626D01*
X0320486Y0163530D01*
X0320370Y0163438D01*
X0320252Y0163349D01*
X0320131Y0163264D01*
X0320008Y0163181D01*
X0319883Y0163102D01*
X0319756Y0163026D01*
X0319627Y0162954D01*
X0319496Y0162885D01*
X0319363Y0162820D01*
X0319228Y0162759D01*
X0319092Y0162701D01*
X0318955Y0162646D01*
X0318816Y0162596D01*
X0318675Y0162549D01*
X0318534Y0162506D01*
X0318391Y0162466D01*
X0318247Y0162431D01*
X0318103Y0162399D01*
X0317957Y0162372D01*
X0317811Y0162348D01*
X0317664Y0162328D01*
X0317517Y0162312D01*
X0317370Y0162300D01*
X0317222Y0162292D01*
X0317074Y0162288D01*
X0316926Y0162288D01*
X0316778Y0162292D01*
X0316630Y0162300D01*
X0316483Y0162312D01*
X0316336Y0162328D01*
X0316189Y0162348D01*
X0316043Y0162372D01*
X0315897Y0162399D01*
X0315753Y0162431D01*
X0315609Y0162466D01*
X0315466Y0162506D01*
X0315325Y0162549D01*
X0315184Y0162596D01*
X0315045Y0162646D01*
X0314908Y0162701D01*
X0314772Y0162759D01*
X0314637Y0162820D01*
X0314504Y0162885D01*
X0314373Y0162954D01*
X0314244Y0163026D01*
X0314117Y0163102D01*
X0313992Y0163181D01*
X0313869Y0163264D01*
X0313748Y0163349D01*
X0313630Y0163438D01*
X0313514Y0163530D01*
X0313401Y0163626D01*
X0313290Y0163724D01*
X0313182Y0163825D01*
X0313076Y0163929D01*
X0312974Y0164035D01*
X0312874Y0164145D01*
X0312778Y0164257D01*
X0312684Y0164372D01*
X0312593Y0164489D01*
X0312506Y0164608D01*
X0312422Y0164730D01*
X0312341Y0164854D01*
X0312264Y0164980D01*
X0312190Y0165108D01*
X0312119Y0165238D01*
X0312052Y0165370D01*
X0311989Y0165504D01*
X0311929Y0165639D01*
X0311873Y0165776D01*
X0311820Y0165915D01*
X0311772Y0166055D01*
X0311727Y0166196D01*
X0311686Y0166338D01*
X0311648Y0166481D01*
X0311615Y0166625D01*
X0311585Y0166770D01*
X0311559Y0166916D01*
X0311538Y0167062D01*
X0311520Y0167209D01*
X0311506Y0167356D01*
X0311496Y0167504D01*
X0311490Y0167652D01*
X0311488Y0167800D01*
M02*
