%
M48
M72
T01C0.0236
T02C0.0360
T03C0.0400
T04C0.1102
%
T01
X9150Y2790
X12300Y2830
X13324Y4630
X11950Y5880
X11650Y6380
X11128Y6480
X10700Y6880
X9950Y6680
X9850Y7230
X10000Y7980
X11100Y9080
X11350Y10780
X10100Y11380
X14200Y13080
X14550Y13580
X14950Y13080
X13750Y14280
X15700Y14380
X16500Y15280
X16450Y15830
X16950Y16030
X17700Y15830
X18400Y15940
X17400Y16780
X16750Y16930
X16950Y17430
X15600Y16530
X14200Y17730
X10200Y18330
X11450Y13680
X17350Y13380
X18400Y12740
X17350Y12180
X24700Y15780
X27750Y16140
X27750Y19090
X36250Y19390
X36250Y16340
X36250Y12890
X32750Y8130
X31000Y7680
X30400Y7680
X28800Y7880
X26000Y8080
X27750Y6140
X29600Y5630
X30250Y5680
X30350Y5030
X31750Y5030
X31800Y5780
X36250Y6140
X36250Y2390
X27750Y2580
X22950Y5180
X22050Y6280
X21600Y6580
X20800Y6180
X19550Y7230
X18500Y7380
X19250Y4980
X20000Y4830
X20350Y4230
X18400Y2640
X10300Y6180
X9150Y6240
X6500Y5580
X6100Y5980
X5600Y6180
X5350Y5680
X5250Y8280
X6400Y8330
X18400Y18790
X27750Y12790
T02
X20650Y19080
X29150Y19330
X11400Y18830
X1900Y18830
T03
X3250Y1880
X20600Y16280
X21600Y16280
X22600Y16280
X22600Y17280
X21600Y17280
X20600Y17280
X12800Y18830
T04
X31700Y16780
X24600Y6730
M30
