G75*
%MOIN*%
%OFA0B0*%
%FSLAX25Y25*%
%IPPOS*%
%LPD*%
%AMOC8*
5,1,8,0,0,1.08239X$1,22.5*
%
%ADD10C,0.00000*%
%ADD11OC8,0.06000*%
%ADD12R,0.06693X0.09449*%
%ADD13R,0.05118X0.05906*%
%ADD14R,0.06299X0.05118*%
%ADD15R,0.05118X0.06299*%
%ADD16R,0.01063X0.05906*%
%ADD17R,0.05906X0.01063*%
%ADD18OC8,0.10000*%
%ADD19R,0.01500X0.01500*%
%ADD20R,0.05000X0.10000*%
%ADD21C,0.01000*%
%ADD22C,0.01600*%
%ADD23C,0.03762*%
D10*
X0014000Y0001800D02*
X0014000Y0206761D01*
X0386701Y0206261D01*
X0386701Y0001300D01*
X0014000Y0001800D01*
X0240488Y0067300D02*
X0240490Y0067448D01*
X0240496Y0067596D01*
X0240506Y0067744D01*
X0240520Y0067891D01*
X0240538Y0068038D01*
X0240559Y0068184D01*
X0240585Y0068330D01*
X0240615Y0068475D01*
X0240648Y0068619D01*
X0240686Y0068762D01*
X0240727Y0068904D01*
X0240772Y0069045D01*
X0240820Y0069185D01*
X0240873Y0069324D01*
X0240929Y0069461D01*
X0240989Y0069596D01*
X0241052Y0069730D01*
X0241119Y0069862D01*
X0241190Y0069992D01*
X0241264Y0070120D01*
X0241341Y0070246D01*
X0241422Y0070370D01*
X0241506Y0070492D01*
X0241593Y0070611D01*
X0241684Y0070728D01*
X0241778Y0070843D01*
X0241874Y0070955D01*
X0241974Y0071065D01*
X0242076Y0071171D01*
X0242182Y0071275D01*
X0242290Y0071376D01*
X0242401Y0071474D01*
X0242514Y0071570D01*
X0242630Y0071662D01*
X0242748Y0071751D01*
X0242869Y0071836D01*
X0242992Y0071919D01*
X0243117Y0071998D01*
X0243244Y0072074D01*
X0243373Y0072146D01*
X0243504Y0072215D01*
X0243637Y0072280D01*
X0243772Y0072341D01*
X0243908Y0072399D01*
X0244045Y0072454D01*
X0244184Y0072504D01*
X0244325Y0072551D01*
X0244466Y0072594D01*
X0244609Y0072634D01*
X0244753Y0072669D01*
X0244897Y0072701D01*
X0245043Y0072728D01*
X0245189Y0072752D01*
X0245336Y0072772D01*
X0245483Y0072788D01*
X0245630Y0072800D01*
X0245778Y0072808D01*
X0245926Y0072812D01*
X0246074Y0072812D01*
X0246222Y0072808D01*
X0246370Y0072800D01*
X0246517Y0072788D01*
X0246664Y0072772D01*
X0246811Y0072752D01*
X0246957Y0072728D01*
X0247103Y0072701D01*
X0247247Y0072669D01*
X0247391Y0072634D01*
X0247534Y0072594D01*
X0247675Y0072551D01*
X0247816Y0072504D01*
X0247955Y0072454D01*
X0248092Y0072399D01*
X0248228Y0072341D01*
X0248363Y0072280D01*
X0248496Y0072215D01*
X0248627Y0072146D01*
X0248756Y0072074D01*
X0248883Y0071998D01*
X0249008Y0071919D01*
X0249131Y0071836D01*
X0249252Y0071751D01*
X0249370Y0071662D01*
X0249486Y0071570D01*
X0249599Y0071474D01*
X0249710Y0071376D01*
X0249818Y0071275D01*
X0249924Y0071171D01*
X0250026Y0071065D01*
X0250126Y0070955D01*
X0250222Y0070843D01*
X0250316Y0070728D01*
X0250407Y0070611D01*
X0250494Y0070492D01*
X0250578Y0070370D01*
X0250659Y0070246D01*
X0250736Y0070120D01*
X0250810Y0069992D01*
X0250881Y0069862D01*
X0250948Y0069730D01*
X0251011Y0069596D01*
X0251071Y0069461D01*
X0251127Y0069324D01*
X0251180Y0069185D01*
X0251228Y0069045D01*
X0251273Y0068904D01*
X0251314Y0068762D01*
X0251352Y0068619D01*
X0251385Y0068475D01*
X0251415Y0068330D01*
X0251441Y0068184D01*
X0251462Y0068038D01*
X0251480Y0067891D01*
X0251494Y0067744D01*
X0251504Y0067596D01*
X0251510Y0067448D01*
X0251512Y0067300D01*
X0251510Y0067152D01*
X0251504Y0067004D01*
X0251494Y0066856D01*
X0251480Y0066709D01*
X0251462Y0066562D01*
X0251441Y0066416D01*
X0251415Y0066270D01*
X0251385Y0066125D01*
X0251352Y0065981D01*
X0251314Y0065838D01*
X0251273Y0065696D01*
X0251228Y0065555D01*
X0251180Y0065415D01*
X0251127Y0065276D01*
X0251071Y0065139D01*
X0251011Y0065004D01*
X0250948Y0064870D01*
X0250881Y0064738D01*
X0250810Y0064608D01*
X0250736Y0064480D01*
X0250659Y0064354D01*
X0250578Y0064230D01*
X0250494Y0064108D01*
X0250407Y0063989D01*
X0250316Y0063872D01*
X0250222Y0063757D01*
X0250126Y0063645D01*
X0250026Y0063535D01*
X0249924Y0063429D01*
X0249818Y0063325D01*
X0249710Y0063224D01*
X0249599Y0063126D01*
X0249486Y0063030D01*
X0249370Y0062938D01*
X0249252Y0062849D01*
X0249131Y0062764D01*
X0249008Y0062681D01*
X0248883Y0062602D01*
X0248756Y0062526D01*
X0248627Y0062454D01*
X0248496Y0062385D01*
X0248363Y0062320D01*
X0248228Y0062259D01*
X0248092Y0062201D01*
X0247955Y0062146D01*
X0247816Y0062096D01*
X0247675Y0062049D01*
X0247534Y0062006D01*
X0247391Y0061966D01*
X0247247Y0061931D01*
X0247103Y0061899D01*
X0246957Y0061872D01*
X0246811Y0061848D01*
X0246664Y0061828D01*
X0246517Y0061812D01*
X0246370Y0061800D01*
X0246222Y0061792D01*
X0246074Y0061788D01*
X0245926Y0061788D01*
X0245778Y0061792D01*
X0245630Y0061800D01*
X0245483Y0061812D01*
X0245336Y0061828D01*
X0245189Y0061848D01*
X0245043Y0061872D01*
X0244897Y0061899D01*
X0244753Y0061931D01*
X0244609Y0061966D01*
X0244466Y0062006D01*
X0244325Y0062049D01*
X0244184Y0062096D01*
X0244045Y0062146D01*
X0243908Y0062201D01*
X0243772Y0062259D01*
X0243637Y0062320D01*
X0243504Y0062385D01*
X0243373Y0062454D01*
X0243244Y0062526D01*
X0243117Y0062602D01*
X0242992Y0062681D01*
X0242869Y0062764D01*
X0242748Y0062849D01*
X0242630Y0062938D01*
X0242514Y0063030D01*
X0242401Y0063126D01*
X0242290Y0063224D01*
X0242182Y0063325D01*
X0242076Y0063429D01*
X0241974Y0063535D01*
X0241874Y0063645D01*
X0241778Y0063757D01*
X0241684Y0063872D01*
X0241593Y0063989D01*
X0241506Y0064108D01*
X0241422Y0064230D01*
X0241341Y0064354D01*
X0241264Y0064480D01*
X0241190Y0064608D01*
X0241119Y0064738D01*
X0241052Y0064870D01*
X0240989Y0065004D01*
X0240929Y0065139D01*
X0240873Y0065276D01*
X0240820Y0065415D01*
X0240772Y0065555D01*
X0240727Y0065696D01*
X0240686Y0065838D01*
X0240648Y0065981D01*
X0240615Y0066125D01*
X0240585Y0066270D01*
X0240559Y0066416D01*
X0240538Y0066562D01*
X0240520Y0066709D01*
X0240506Y0066856D01*
X0240496Y0067004D01*
X0240490Y0067152D01*
X0240488Y0067300D01*
X0311488Y0167800D02*
X0311490Y0167948D01*
X0311496Y0168096D01*
X0311506Y0168244D01*
X0311520Y0168391D01*
X0311538Y0168538D01*
X0311559Y0168684D01*
X0311585Y0168830D01*
X0311615Y0168975D01*
X0311648Y0169119D01*
X0311686Y0169262D01*
X0311727Y0169404D01*
X0311772Y0169545D01*
X0311820Y0169685D01*
X0311873Y0169824D01*
X0311929Y0169961D01*
X0311989Y0170096D01*
X0312052Y0170230D01*
X0312119Y0170362D01*
X0312190Y0170492D01*
X0312264Y0170620D01*
X0312341Y0170746D01*
X0312422Y0170870D01*
X0312506Y0170992D01*
X0312593Y0171111D01*
X0312684Y0171228D01*
X0312778Y0171343D01*
X0312874Y0171455D01*
X0312974Y0171565D01*
X0313076Y0171671D01*
X0313182Y0171775D01*
X0313290Y0171876D01*
X0313401Y0171974D01*
X0313514Y0172070D01*
X0313630Y0172162D01*
X0313748Y0172251D01*
X0313869Y0172336D01*
X0313992Y0172419D01*
X0314117Y0172498D01*
X0314244Y0172574D01*
X0314373Y0172646D01*
X0314504Y0172715D01*
X0314637Y0172780D01*
X0314772Y0172841D01*
X0314908Y0172899D01*
X0315045Y0172954D01*
X0315184Y0173004D01*
X0315325Y0173051D01*
X0315466Y0173094D01*
X0315609Y0173134D01*
X0315753Y0173169D01*
X0315897Y0173201D01*
X0316043Y0173228D01*
X0316189Y0173252D01*
X0316336Y0173272D01*
X0316483Y0173288D01*
X0316630Y0173300D01*
X0316778Y0173308D01*
X0316926Y0173312D01*
X0317074Y0173312D01*
X0317222Y0173308D01*
X0317370Y0173300D01*
X0317517Y0173288D01*
X0317664Y0173272D01*
X0317811Y0173252D01*
X0317957Y0173228D01*
X0318103Y0173201D01*
X0318247Y0173169D01*
X0318391Y0173134D01*
X0318534Y0173094D01*
X0318675Y0173051D01*
X0318816Y0173004D01*
X0318955Y0172954D01*
X0319092Y0172899D01*
X0319228Y0172841D01*
X0319363Y0172780D01*
X0319496Y0172715D01*
X0319627Y0172646D01*
X0319756Y0172574D01*
X0319883Y0172498D01*
X0320008Y0172419D01*
X0320131Y0172336D01*
X0320252Y0172251D01*
X0320370Y0172162D01*
X0320486Y0172070D01*
X0320599Y0171974D01*
X0320710Y0171876D01*
X0320818Y0171775D01*
X0320924Y0171671D01*
X0321026Y0171565D01*
X0321126Y0171455D01*
X0321222Y0171343D01*
X0321316Y0171228D01*
X0321407Y0171111D01*
X0321494Y0170992D01*
X0321578Y0170870D01*
X0321659Y0170746D01*
X0321736Y0170620D01*
X0321810Y0170492D01*
X0321881Y0170362D01*
X0321948Y0170230D01*
X0322011Y0170096D01*
X0322071Y0169961D01*
X0322127Y0169824D01*
X0322180Y0169685D01*
X0322228Y0169545D01*
X0322273Y0169404D01*
X0322314Y0169262D01*
X0322352Y0169119D01*
X0322385Y0168975D01*
X0322415Y0168830D01*
X0322441Y0168684D01*
X0322462Y0168538D01*
X0322480Y0168391D01*
X0322494Y0168244D01*
X0322504Y0168096D01*
X0322510Y0167948D01*
X0322512Y0167800D01*
X0322510Y0167652D01*
X0322504Y0167504D01*
X0322494Y0167356D01*
X0322480Y0167209D01*
X0322462Y0167062D01*
X0322441Y0166916D01*
X0322415Y0166770D01*
X0322385Y0166625D01*
X0322352Y0166481D01*
X0322314Y0166338D01*
X0322273Y0166196D01*
X0322228Y0166055D01*
X0322180Y0165915D01*
X0322127Y0165776D01*
X0322071Y0165639D01*
X0322011Y0165504D01*
X0321948Y0165370D01*
X0321881Y0165238D01*
X0321810Y0165108D01*
X0321736Y0164980D01*
X0321659Y0164854D01*
X0321578Y0164730D01*
X0321494Y0164608D01*
X0321407Y0164489D01*
X0321316Y0164372D01*
X0321222Y0164257D01*
X0321126Y0164145D01*
X0321026Y0164035D01*
X0320924Y0163929D01*
X0320818Y0163825D01*
X0320710Y0163724D01*
X0320599Y0163626D01*
X0320486Y0163530D01*
X0320370Y0163438D01*
X0320252Y0163349D01*
X0320131Y0163264D01*
X0320008Y0163181D01*
X0319883Y0163102D01*
X0319756Y0163026D01*
X0319627Y0162954D01*
X0319496Y0162885D01*
X0319363Y0162820D01*
X0319228Y0162759D01*
X0319092Y0162701D01*
X0318955Y0162646D01*
X0318816Y0162596D01*
X0318675Y0162549D01*
X0318534Y0162506D01*
X0318391Y0162466D01*
X0318247Y0162431D01*
X0318103Y0162399D01*
X0317957Y0162372D01*
X0317811Y0162348D01*
X0317664Y0162328D01*
X0317517Y0162312D01*
X0317370Y0162300D01*
X0317222Y0162292D01*
X0317074Y0162288D01*
X0316926Y0162288D01*
X0316778Y0162292D01*
X0316630Y0162300D01*
X0316483Y0162312D01*
X0316336Y0162328D01*
X0316189Y0162348D01*
X0316043Y0162372D01*
X0315897Y0162399D01*
X0315753Y0162431D01*
X0315609Y0162466D01*
X0315466Y0162506D01*
X0315325Y0162549D01*
X0315184Y0162596D01*
X0315045Y0162646D01*
X0314908Y0162701D01*
X0314772Y0162759D01*
X0314637Y0162820D01*
X0314504Y0162885D01*
X0314373Y0162954D01*
X0314244Y0163026D01*
X0314117Y0163102D01*
X0313992Y0163181D01*
X0313869Y0163264D01*
X0313748Y0163349D01*
X0313630Y0163438D01*
X0313514Y0163530D01*
X0313401Y0163626D01*
X0313290Y0163724D01*
X0313182Y0163825D01*
X0313076Y0163929D01*
X0312974Y0164035D01*
X0312874Y0164145D01*
X0312778Y0164257D01*
X0312684Y0164372D01*
X0312593Y0164489D01*
X0312506Y0164608D01*
X0312422Y0164730D01*
X0312341Y0164854D01*
X0312264Y0164980D01*
X0312190Y0165108D01*
X0312119Y0165238D01*
X0312052Y0165370D01*
X0311989Y0165504D01*
X0311929Y0165639D01*
X0311873Y0165776D01*
X0311820Y0165915D01*
X0311772Y0166055D01*
X0311727Y0166196D01*
X0311686Y0166338D01*
X0311648Y0166481D01*
X0311615Y0166625D01*
X0311585Y0166770D01*
X0311559Y0166916D01*
X0311538Y0167062D01*
X0311520Y0167209D01*
X0311506Y0167356D01*
X0311496Y0167504D01*
X0311490Y0167652D01*
X0311488Y0167800D01*
D11*
X0226000Y0162800D03*
X0216000Y0162800D03*
X0206000Y0162800D03*
X0206000Y0172800D03*
X0216000Y0172800D03*
X0226000Y0172800D03*
X0128000Y0188300D03*
X0032500Y0018800D03*
D12*
X0139217Y0058800D03*
X0153783Y0058800D03*
D13*
X0153240Y0046300D03*
X0145760Y0046300D03*
X0133240Y0046300D03*
X0125760Y0046300D03*
D14*
X0128000Y0056560D03*
X0128000Y0064040D03*
D15*
X0136760Y0072300D03*
X0144240Y0072300D03*
X0038740Y0186800D03*
X0031260Y0186800D03*
X0136260Y0188300D03*
X0143740Y0188300D03*
X0189260Y0191800D03*
X0196740Y0191800D03*
X0241260Y0191300D03*
X0248740Y0191300D03*
D16*
X0161122Y0149312D03*
X0159154Y0149312D03*
X0157185Y0149312D03*
X0155217Y0149312D03*
X0153248Y0149312D03*
X0151280Y0149312D03*
X0149311Y0149312D03*
X0147343Y0149312D03*
X0145374Y0149312D03*
X0143406Y0149312D03*
X0141437Y0149312D03*
X0139469Y0149312D03*
X0137500Y0149312D03*
X0135531Y0149312D03*
X0133563Y0149312D03*
X0131594Y0149312D03*
X0129626Y0149312D03*
X0127657Y0149312D03*
X0125689Y0149312D03*
X0123720Y0149312D03*
X0121752Y0149312D03*
X0119783Y0149312D03*
X0117815Y0149312D03*
X0115846Y0149312D03*
X0113878Y0149312D03*
X0113878Y0088288D03*
X0115846Y0088288D03*
X0117815Y0088288D03*
X0119783Y0088288D03*
X0121752Y0088288D03*
X0123720Y0088288D03*
X0125689Y0088288D03*
X0127657Y0088288D03*
X0129626Y0088288D03*
X0131594Y0088288D03*
X0133563Y0088288D03*
X0135531Y0088288D03*
X0137500Y0088288D03*
X0139469Y0088288D03*
X0141437Y0088288D03*
X0143406Y0088288D03*
X0145374Y0088288D03*
X0147343Y0088288D03*
X0149311Y0088288D03*
X0151280Y0088288D03*
X0153248Y0088288D03*
X0155217Y0088288D03*
X0157185Y0088288D03*
X0159154Y0088288D03*
X0161122Y0088288D03*
D17*
X0168012Y0095178D03*
X0168012Y0097146D03*
X0168012Y0099115D03*
X0168012Y0101083D03*
X0168012Y0103052D03*
X0168012Y0105020D03*
X0168012Y0106989D03*
X0168012Y0108957D03*
X0168012Y0110926D03*
X0168012Y0112894D03*
X0168012Y0114863D03*
X0168012Y0116831D03*
X0168012Y0118800D03*
X0168012Y0120769D03*
X0168012Y0122737D03*
X0168012Y0124706D03*
X0168012Y0126674D03*
X0168012Y0128643D03*
X0168012Y0130611D03*
X0168012Y0132580D03*
X0168012Y0134548D03*
X0168012Y0136517D03*
X0168012Y0138485D03*
X0168012Y0140454D03*
X0168012Y0142422D03*
X0106988Y0142422D03*
X0106988Y0140454D03*
X0106988Y0138485D03*
X0106988Y0136517D03*
X0106988Y0134548D03*
X0106988Y0132580D03*
X0106988Y0130611D03*
X0106988Y0128643D03*
X0106988Y0126674D03*
X0106988Y0124706D03*
X0106988Y0122737D03*
X0106988Y0120769D03*
X0106988Y0118800D03*
X0106988Y0116831D03*
X0106988Y0114863D03*
X0106988Y0112894D03*
X0106988Y0110926D03*
X0106988Y0108957D03*
X0106988Y0106989D03*
X0106988Y0105020D03*
X0106988Y0103052D03*
X0106988Y0101083D03*
X0106988Y0099115D03*
X0106988Y0097146D03*
X0106988Y0095178D03*
D18*
X0114000Y0188300D03*
X0206500Y0190800D03*
X0291500Y0193300D03*
X0019000Y0188300D03*
D19*
X0014287Y0181800D03*
X0010713Y0181800D03*
X0010713Y0179300D03*
X0010713Y0176800D03*
X0010713Y0174300D03*
X0010713Y0171800D03*
X0010713Y0169300D03*
X0010713Y0166800D03*
X0014287Y0166800D03*
X0014287Y0169300D03*
X0014287Y0171800D03*
X0014287Y0174300D03*
X0014287Y0176800D03*
X0014287Y0179300D03*
X0014287Y0164300D03*
X0014287Y0161800D03*
X0014287Y0159300D03*
X0014287Y0156800D03*
X0014287Y0154300D03*
X0014287Y0151800D03*
X0010713Y0151800D03*
X0010713Y0154300D03*
X0010713Y0156800D03*
X0010713Y0159300D03*
X0010713Y0161800D03*
X0010713Y0164300D03*
X0010713Y0149300D03*
X0010713Y0146800D03*
X0010713Y0144300D03*
X0010713Y0141800D03*
X0010713Y0139300D03*
X0010713Y0136800D03*
X0014287Y0136800D03*
X0014287Y0139300D03*
X0014287Y0141800D03*
X0014287Y0144300D03*
X0014287Y0146800D03*
X0014287Y0149300D03*
X0014287Y0134300D03*
X0014287Y0131800D03*
X0014287Y0129300D03*
X0014287Y0126800D03*
X0014287Y0124300D03*
X0014287Y0121800D03*
X0010713Y0121800D03*
X0010713Y0124300D03*
X0010713Y0126800D03*
X0010713Y0129300D03*
X0010713Y0131800D03*
X0010713Y0134300D03*
X0010713Y0119300D03*
X0010713Y0116800D03*
X0010713Y0114300D03*
X0010713Y0111800D03*
X0010713Y0109300D03*
X0010713Y0106800D03*
X0014287Y0106800D03*
X0014287Y0109300D03*
X0014287Y0111800D03*
X0014287Y0114300D03*
X0014287Y0116800D03*
X0014287Y0119300D03*
X0014287Y0104300D03*
X0014287Y0101800D03*
X0014287Y0099300D03*
X0014287Y0096800D03*
X0014287Y0094300D03*
X0010713Y0094300D03*
X0010713Y0096800D03*
X0010713Y0099300D03*
X0010713Y0101800D03*
X0010713Y0104300D03*
X0010713Y0091800D03*
X0010713Y0089300D03*
X0010713Y0086800D03*
X0014287Y0086800D03*
X0014287Y0089300D03*
X0014287Y0091800D03*
X0384213Y0091800D03*
X0384213Y0089300D03*
X0384213Y0086800D03*
X0387787Y0086800D03*
X0387787Y0089300D03*
X0387787Y0091800D03*
X0387787Y0094300D03*
X0387787Y0096800D03*
X0387787Y0099300D03*
X0387787Y0101800D03*
X0387787Y0104300D03*
X0384213Y0104300D03*
X0384213Y0101800D03*
X0384213Y0099300D03*
X0384213Y0096800D03*
X0384213Y0094300D03*
X0384213Y0106800D03*
X0384213Y0108800D03*
X0384213Y0110800D03*
X0384213Y0112800D03*
X0384213Y0114800D03*
X0384213Y0116800D03*
X0384213Y0118800D03*
X0384213Y0121300D03*
X0384213Y0123800D03*
X0387787Y0123800D03*
X0387787Y0121300D03*
X0387787Y0118800D03*
X0387787Y0116800D03*
X0387787Y0114800D03*
X0387787Y0112800D03*
X0387787Y0110800D03*
X0387787Y0108800D03*
X0387787Y0106800D03*
X0387787Y0126300D03*
X0387787Y0128800D03*
X0387787Y0131300D03*
X0387787Y0133800D03*
X0387787Y0136300D03*
X0387787Y0138800D03*
X0384213Y0138800D03*
X0384213Y0136300D03*
X0384213Y0133800D03*
X0384213Y0131300D03*
X0384213Y0128800D03*
X0384213Y0126300D03*
X0384213Y0141300D03*
X0384213Y0143800D03*
X0387787Y0143800D03*
X0387787Y0141300D03*
D20*
X0391000Y0062300D03*
X0381000Y0062300D03*
X0016500Y0065300D03*
X0006500Y0065300D03*
D21*
X0014000Y0086800D02*
X0101500Y0086800D01*
X0105500Y0082800D01*
X0106500Y0082800D01*
X0110500Y0078800D01*
X0116000Y0078800D01*
X0119783Y0082583D01*
X0119783Y0088288D01*
X0117815Y0088288D02*
X0117815Y0083800D01*
X0115815Y0081800D01*
X0115500Y0081800D01*
X0115000Y0081300D01*
X0112500Y0081300D01*
X0109500Y0084300D01*
X0108500Y0084300D01*
X0107500Y0085300D01*
X0106500Y0085300D01*
X0104500Y0087300D01*
X0104500Y0088800D01*
X0104000Y0089300D01*
X0014000Y0089300D01*
X0014000Y0091800D02*
X0106500Y0091800D01*
X0106500Y0088300D01*
X0107500Y0087300D01*
X0109000Y0087300D01*
X0112654Y0083646D01*
X0114346Y0083646D01*
X0116000Y0085300D01*
X0116000Y0088135D01*
X0115846Y0088288D01*
X0113878Y0088288D02*
X0111366Y0090800D01*
X0111000Y0090800D01*
X0113878Y0088288D02*
X0113878Y0096300D01*
X0116878Y0099300D01*
X0129000Y0099300D01*
X0133563Y0097237D01*
X0133563Y0088288D01*
X0135531Y0088288D02*
X0135500Y0085757D01*
X0135500Y0081800D01*
X0134123Y0080423D01*
X0134123Y0071428D01*
X0131500Y0070560D01*
X0129500Y0069300D01*
X0128000Y0069300D01*
X0128000Y0064040D01*
X0122500Y0061800D02*
X0119500Y0058800D01*
X0119000Y0058300D01*
X0119000Y0041800D01*
X0121500Y0039300D01*
X0171500Y0039300D01*
X0176500Y0046800D01*
X0176500Y0056800D01*
X0182000Y0062300D01*
X0182000Y0063300D01*
X0190000Y0069300D01*
X0217500Y0069300D01*
X0220000Y0066800D01*
X0220500Y0062800D01*
X0220500Y0020800D01*
X0264000Y0020800D01*
X0265000Y0021800D01*
X0265000Y0038800D01*
X0271000Y0044800D01*
X0285000Y0044800D01*
X0285000Y0070300D01*
X0295500Y0080800D01*
X0305000Y0080800D01*
X0309000Y0076800D01*
X0310000Y0076800D01*
X0304000Y0076800D02*
X0303000Y0076800D01*
X0302000Y0077800D01*
X0296500Y0077800D01*
X0288000Y0069300D01*
X0288000Y0042800D01*
X0287000Y0041800D01*
X0272000Y0041800D01*
X0268000Y0037800D01*
X0268000Y0017800D01*
X0216000Y0017800D01*
X0216000Y0065800D01*
X0207000Y0066300D01*
X0192500Y0066300D01*
X0185000Y0062300D01*
X0184500Y0062300D01*
X0179000Y0056800D01*
X0179000Y0046800D01*
X0172000Y0036800D01*
X0121500Y0036800D01*
X0116500Y0041800D01*
X0116500Y0050818D01*
X0115635Y0051683D01*
X0116500Y0063800D01*
X0120000Y0067300D01*
X0120000Y0069300D01*
X0125000Y0074300D01*
X0129000Y0074300D01*
X0129626Y0074926D01*
X0129626Y0088288D01*
X0131500Y0088288D02*
X0131594Y0088288D01*
X0131594Y0073394D01*
X0130500Y0072300D01*
X0127000Y0072300D01*
X0122500Y0067800D01*
X0122500Y0061800D01*
X0128000Y0057040D02*
X0125760Y0046300D01*
X0133240Y0046300D02*
X0145760Y0046300D01*
X0153240Y0046300D02*
X0154500Y0047800D01*
X0153783Y0058800D01*
X0152500Y0070300D01*
X0150000Y0072300D01*
X0144240Y0072300D01*
X0144000Y0073040D01*
X0144000Y0074300D01*
X0141000Y0076800D01*
X0137500Y0080300D01*
X0137500Y0088288D01*
X0139469Y0088288D02*
X0139469Y0095300D01*
X0146500Y0097800D01*
X0145500Y0102800D01*
X0168012Y0102800D01*
X0168012Y0103052D01*
X0168012Y0105020D02*
X0163012Y0104800D01*
X0160500Y0107300D01*
X0160500Y0122800D01*
X0160563Y0122737D01*
X0168012Y0122737D01*
X0168012Y0120769D02*
X0172969Y0120769D01*
X0173500Y0121800D01*
X0168012Y0124706D02*
X0180594Y0124706D01*
X0182000Y0123300D01*
X0201500Y0123300D01*
X0203500Y0121300D01*
X0384000Y0121300D01*
X0384000Y0118800D02*
X0168012Y0118800D01*
X0168012Y0116831D02*
X0383969Y0116831D01*
X0384000Y0116800D01*
X0383937Y0114863D02*
X0384000Y0114800D01*
X0383937Y0114863D02*
X0168012Y0114863D01*
X0168012Y0112894D02*
X0383906Y0112894D01*
X0384000Y0112800D01*
X0383874Y0110926D02*
X0384000Y0110800D01*
X0383874Y0110926D02*
X0168012Y0110926D01*
X0168012Y0108957D02*
X0383843Y0108957D01*
X0384000Y0108800D01*
X0383811Y0106989D02*
X0384000Y0106800D01*
X0383811Y0106989D02*
X0168012Y0106989D01*
X0168012Y0101083D02*
X0175783Y0101083D01*
X0179000Y0104300D01*
X0384000Y0104300D01*
X0384000Y0101800D02*
X0184000Y0101800D01*
X0181315Y0099115D01*
X0168012Y0099115D01*
X0168012Y0097146D02*
X0183846Y0097146D01*
X0186000Y0099300D01*
X0384000Y0099300D01*
X0384000Y0096800D02*
X0196500Y0096800D01*
X0191500Y0091800D01*
X0172000Y0091800D01*
X0168488Y0088288D01*
X0161122Y0088288D01*
X0161207Y0088203D01*
X0159154Y0088288D02*
X0159154Y0083146D01*
X0162000Y0080300D01*
X0167500Y0080300D01*
X0177000Y0089800D01*
X0194500Y0089800D01*
X0199000Y0094300D01*
X0384000Y0094300D01*
X0384000Y0091800D02*
X0201500Y0091800D01*
X0197500Y0087800D01*
X0178500Y0087800D01*
X0167500Y0076800D01*
X0161914Y0076800D01*
X0157478Y0081236D01*
X0157185Y0081943D02*
X0157185Y0088288D01*
X0153248Y0088288D02*
X0153248Y0095300D01*
X0146500Y0097800D01*
X0145500Y0102800D02*
X0145500Y0135800D01*
X0156500Y0135800D01*
X0159500Y0135800D01*
X0160500Y0134800D01*
X0163000Y0134800D01*
X0163500Y0134300D01*
X0167764Y0134300D01*
X0168012Y0134548D01*
X0168260Y0134300D01*
X0172000Y0134300D01*
X0172500Y0133800D01*
X0173500Y0133800D01*
X0175311Y0130611D02*
X0168012Y0130611D01*
X0168012Y0128643D02*
X0176843Y0128643D01*
X0181500Y0133300D01*
X0214000Y0133300D01*
X0221000Y0126300D01*
X0270000Y0126300D01*
X0274500Y0130800D01*
X0280000Y0130800D01*
X0284500Y0126300D01*
X0354500Y0126300D01*
X0360500Y0132300D01*
X0364500Y0132300D01*
X0370500Y0126300D01*
X0384000Y0126300D01*
X0384000Y0128800D02*
X0371000Y0128800D01*
X0365500Y0134300D01*
X0359500Y0134300D01*
X0354000Y0128800D01*
X0285000Y0128800D01*
X0280500Y0133300D01*
X0274000Y0133300D01*
X0269500Y0128800D01*
X0223000Y0128800D01*
X0216000Y0135800D01*
X0180500Y0135800D01*
X0175311Y0130611D01*
X0178374Y0126674D02*
X0182500Y0130800D01*
X0211500Y0130800D01*
X0218500Y0123800D01*
X0384000Y0123800D01*
X0384000Y0131300D02*
X0371500Y0131300D01*
X0366500Y0136300D01*
X0358500Y0136300D01*
X0353500Y0131300D01*
X0286000Y0131300D01*
X0281500Y0135800D01*
X0273000Y0135800D01*
X0268500Y0131300D01*
X0224500Y0131300D01*
X0217500Y0138300D01*
X0180000Y0138300D01*
X0178217Y0136517D01*
X0168012Y0136517D01*
X0168012Y0138485D02*
X0176685Y0138485D01*
X0179000Y0140800D01*
X0218500Y0140800D01*
X0226000Y0133300D01*
X0267000Y0133300D01*
X0272000Y0138300D01*
X0282500Y0138300D01*
X0287000Y0133800D01*
X0352500Y0133800D01*
X0357500Y0138800D01*
X0367500Y0138800D01*
X0372500Y0133800D01*
X0384000Y0133800D01*
X0384000Y0136300D02*
X0373000Y0136300D01*
X0368500Y0140800D01*
X0356500Y0140800D01*
X0351500Y0135800D01*
X0287500Y0135800D01*
X0283000Y0140300D01*
X0271500Y0140300D01*
X0266500Y0135300D01*
X0228500Y0135300D01*
X0220500Y0143300D01*
X0175500Y0143300D01*
X0172654Y0140454D01*
X0168012Y0140454D01*
X0168012Y0142422D02*
X0169122Y0142422D01*
X0172500Y0145800D01*
X0222000Y0145800D01*
X0230500Y0137300D01*
X0265500Y0137300D01*
X0271000Y0142800D01*
X0284000Y0142800D01*
X0289000Y0137800D01*
X0351000Y0137800D01*
X0356000Y0142800D01*
X0369500Y0142800D01*
X0373500Y0138800D01*
X0384000Y0138800D01*
X0384000Y0141300D02*
X0374000Y0141300D01*
X0370000Y0145300D01*
X0355000Y0145300D01*
X0349500Y0139800D01*
X0290000Y0139800D01*
X0285000Y0144800D01*
X0270000Y0144800D01*
X0264500Y0139300D01*
X0233000Y0139300D01*
X0224250Y0148050D01*
X0168250Y0148050D01*
X0165000Y0151300D01*
X0165000Y0152800D01*
X0169500Y0155300D02*
X0169500Y0160300D01*
X0177000Y0158300D02*
X0174000Y0167800D01*
X0168500Y0177800D02*
X0161122Y0170422D01*
X0161122Y0149312D01*
X0159154Y0149312D02*
X0159154Y0170954D01*
X0167000Y0179800D01*
X0192000Y0179800D01*
X0206000Y0162800D01*
X0203000Y0156300D02*
X0199000Y0160300D01*
X0199000Y0168300D01*
X0189500Y0177800D01*
X0168500Y0177800D01*
X0166000Y0181800D02*
X0153248Y0168548D01*
X0153248Y0149312D01*
X0151280Y0149312D02*
X0151280Y0182080D01*
X0161000Y0191800D01*
X0189260Y0191800D01*
X0196740Y0191800D02*
X0205500Y0191800D01*
X0206500Y0190800D01*
X0214000Y0184300D02*
X0234260Y0184300D01*
X0241260Y0191300D01*
X0248740Y0191300D02*
X0269500Y0191300D01*
X0273500Y0195300D01*
X0289500Y0195300D01*
X0291500Y0193300D01*
X0216000Y0172800D02*
X0211500Y0168300D01*
X0211500Y0157800D01*
X0210000Y0156300D01*
X0203000Y0156300D01*
X0198500Y0153800D02*
X0202000Y0150300D01*
X0227000Y0150300D01*
X0236000Y0141300D01*
X0263000Y0141300D01*
X0268500Y0146800D01*
X0286000Y0146800D01*
X0291000Y0141800D01*
X0348500Y0141800D01*
X0354000Y0147300D01*
X0371000Y0147300D01*
X0374500Y0143800D01*
X0384000Y0143800D01*
X0384000Y0089300D02*
X0204414Y0089300D01*
X0203707Y0089007D02*
X0200000Y0085300D01*
X0179500Y0085300D01*
X0169000Y0074800D01*
X0168000Y0074800D01*
X0165500Y0072300D01*
X0162500Y0072300D01*
X0150500Y0084300D01*
X0148000Y0084300D01*
X0147343Y0084957D01*
X0147343Y0088288D01*
X0145374Y0088288D02*
X0145374Y0082926D01*
X0147000Y0081300D01*
X0150500Y0081300D01*
X0162500Y0069300D01*
X0168586Y0069300D01*
X0169293Y0069593D02*
X0171500Y0071800D01*
X0171500Y0074800D01*
X0179000Y0082300D01*
X0202000Y0082300D01*
X0206207Y0086507D01*
X0206914Y0086800D02*
X0384000Y0086800D01*
X0327500Y0081300D02*
X0325000Y0083800D01*
X0282000Y0083800D01*
X0279000Y0080800D01*
X0260000Y0080800D01*
X0283000Y0073800D02*
X0288000Y0078800D01*
X0283000Y0073800D02*
X0283000Y0046800D01*
X0269000Y0046800D01*
X0263000Y0040800D01*
X0263000Y0023800D01*
X0262000Y0022800D01*
X0225000Y0022800D01*
X0225000Y0056800D01*
X0227000Y0059800D01*
X0227000Y0067800D01*
X0218000Y0073800D01*
X0207000Y0073800D01*
X0201500Y0079300D01*
X0179000Y0079300D01*
X0174293Y0074593D01*
X0174000Y0073886D02*
X0174000Y0064300D01*
X0171793Y0062093D01*
X0171086Y0061800D02*
X0164000Y0061800D01*
X0161793Y0064007D01*
X0161500Y0064714D02*
X0161500Y0066800D01*
X0149293Y0079007D01*
X0148586Y0079300D02*
X0145000Y0079300D01*
X0143406Y0080894D01*
X0143406Y0088288D01*
X0141437Y0088288D02*
X0141437Y0079777D01*
X0141730Y0079070D02*
X0144000Y0076800D01*
X0148586Y0076800D01*
X0149293Y0076507D02*
X0159000Y0066800D01*
X0159000Y0062214D01*
X0159293Y0061507D02*
X0161500Y0059300D01*
X0173586Y0059300D01*
X0174293Y0059593D02*
X0176500Y0061800D01*
X0176500Y0071386D01*
X0176793Y0072093D02*
X0181500Y0076800D01*
X0188586Y0076800D01*
X0189000Y0076800D02*
X0189293Y0076507D01*
X0189000Y0076800D02*
X0189586Y0071800D01*
X0189793Y0072007D01*
X0190500Y0072300D02*
X0195500Y0072300D01*
X0195293Y0072093D01*
X0190500Y0072300D02*
X0190440Y0072298D01*
X0190379Y0072293D01*
X0190320Y0072284D01*
X0190261Y0072271D01*
X0190202Y0072255D01*
X0190145Y0072235D01*
X0190090Y0072212D01*
X0190035Y0072185D01*
X0189983Y0072156D01*
X0189932Y0072123D01*
X0189883Y0072087D01*
X0189837Y0072049D01*
X0189793Y0072007D01*
X0189293Y0076507D02*
X0189249Y0076549D01*
X0189203Y0076587D01*
X0189154Y0076623D01*
X0189103Y0076656D01*
X0189051Y0076685D01*
X0188996Y0076712D01*
X0188941Y0076735D01*
X0188884Y0076755D01*
X0188825Y0076771D01*
X0188766Y0076784D01*
X0188707Y0076793D01*
X0188646Y0076798D01*
X0188586Y0076800D01*
X0176793Y0072093D02*
X0176751Y0072049D01*
X0176713Y0072003D01*
X0176677Y0071954D01*
X0176644Y0071903D01*
X0176615Y0071851D01*
X0176588Y0071796D01*
X0176565Y0071741D01*
X0176545Y0071684D01*
X0176529Y0071625D01*
X0176516Y0071566D01*
X0176507Y0071507D01*
X0176502Y0071446D01*
X0176500Y0071386D01*
X0174000Y0073886D02*
X0174002Y0073946D01*
X0174007Y0074007D01*
X0174016Y0074066D01*
X0174029Y0074125D01*
X0174045Y0074184D01*
X0174065Y0074241D01*
X0174088Y0074296D01*
X0174115Y0074351D01*
X0174144Y0074403D01*
X0174177Y0074454D01*
X0174213Y0074503D01*
X0174251Y0074549D01*
X0174293Y0074593D01*
X0169293Y0069593D02*
X0169249Y0069551D01*
X0169203Y0069513D01*
X0169154Y0069477D01*
X0169103Y0069444D01*
X0169051Y0069415D01*
X0168996Y0069388D01*
X0168941Y0069365D01*
X0168884Y0069345D01*
X0168825Y0069329D01*
X0168766Y0069316D01*
X0168707Y0069307D01*
X0168646Y0069302D01*
X0168586Y0069300D01*
X0161500Y0064714D02*
X0161502Y0064654D01*
X0161507Y0064593D01*
X0161516Y0064534D01*
X0161529Y0064475D01*
X0161545Y0064416D01*
X0161565Y0064359D01*
X0161588Y0064304D01*
X0161615Y0064249D01*
X0161644Y0064197D01*
X0161677Y0064146D01*
X0161713Y0064097D01*
X0161751Y0064051D01*
X0161793Y0064007D01*
X0161751Y0064051D01*
X0161713Y0064097D01*
X0161677Y0064146D01*
X0161644Y0064197D01*
X0161615Y0064249D01*
X0161588Y0064304D01*
X0161565Y0064359D01*
X0161545Y0064416D01*
X0161529Y0064475D01*
X0161516Y0064534D01*
X0161507Y0064593D01*
X0161502Y0064654D01*
X0161500Y0064714D01*
X0159000Y0062214D02*
X0159002Y0062154D01*
X0159007Y0062093D01*
X0159016Y0062034D01*
X0159029Y0061975D01*
X0159045Y0061916D01*
X0159065Y0061859D01*
X0159088Y0061804D01*
X0159115Y0061749D01*
X0159144Y0061697D01*
X0159177Y0061646D01*
X0159213Y0061597D01*
X0159251Y0061551D01*
X0159293Y0061507D01*
X0171086Y0061800D02*
X0171146Y0061802D01*
X0171207Y0061807D01*
X0171266Y0061816D01*
X0171325Y0061829D01*
X0171384Y0061845D01*
X0171441Y0061865D01*
X0171496Y0061888D01*
X0171551Y0061915D01*
X0171603Y0061944D01*
X0171654Y0061977D01*
X0171703Y0062013D01*
X0171749Y0062051D01*
X0171793Y0062093D01*
X0173586Y0059300D02*
X0173646Y0059302D01*
X0173707Y0059307D01*
X0173766Y0059316D01*
X0173825Y0059329D01*
X0173884Y0059345D01*
X0173941Y0059365D01*
X0173996Y0059388D01*
X0174051Y0059415D01*
X0174103Y0059444D01*
X0174154Y0059477D01*
X0174203Y0059513D01*
X0174249Y0059551D01*
X0174293Y0059593D01*
X0174249Y0059551D01*
X0174203Y0059513D01*
X0174154Y0059477D01*
X0174103Y0059444D01*
X0174051Y0059415D01*
X0173996Y0059388D01*
X0173941Y0059365D01*
X0173884Y0059345D01*
X0173825Y0059329D01*
X0173766Y0059316D01*
X0173707Y0059307D01*
X0173646Y0059302D01*
X0173586Y0059300D01*
X0192500Y0049800D02*
X0194000Y0048300D01*
X0200000Y0048300D01*
X0203000Y0042800D02*
X0191500Y0042800D01*
X0183000Y0034300D01*
X0117500Y0034300D01*
X0111280Y0040520D01*
X0111280Y0064800D01*
X0112780Y0066300D01*
X0113500Y0066300D01*
X0127657Y0080457D01*
X0127657Y0088288D01*
X0125689Y0088288D02*
X0125689Y0080989D01*
X0116500Y0071800D01*
X0109000Y0071800D01*
X0107000Y0067300D01*
X0107000Y0068800D01*
X0106500Y0068300D01*
X0106500Y0036800D01*
X0111500Y0031800D01*
X0189000Y0031800D01*
X0191133Y0029667D01*
X0191841Y0029374D02*
X0208268Y0029374D01*
X0209000Y0011800D01*
X0274000Y0011800D01*
X0274000Y0033800D01*
X0276000Y0036800D01*
X0292000Y0036800D01*
X0296000Y0040800D01*
X0296000Y0056300D01*
X0302500Y0056800D02*
X0317000Y0056800D01*
X0318000Y0057800D01*
X0317500Y0050300D02*
X0303500Y0050300D01*
X0208000Y0061800D02*
X0207500Y0059800D01*
X0208268Y0029374D01*
X0191841Y0029374D02*
X0191781Y0029376D01*
X0191720Y0029381D01*
X0191661Y0029390D01*
X0191602Y0029403D01*
X0191543Y0029419D01*
X0191486Y0029439D01*
X0191431Y0029462D01*
X0191376Y0029489D01*
X0191324Y0029518D01*
X0191273Y0029551D01*
X0191224Y0029587D01*
X0191178Y0029625D01*
X0191134Y0029667D01*
X0203500Y0042300D02*
X0203000Y0042800D01*
X0149293Y0076507D02*
X0149249Y0076549D01*
X0149203Y0076587D01*
X0149154Y0076623D01*
X0149103Y0076656D01*
X0149051Y0076685D01*
X0148996Y0076712D01*
X0148941Y0076735D01*
X0148884Y0076755D01*
X0148825Y0076771D01*
X0148766Y0076784D01*
X0148707Y0076793D01*
X0148646Y0076798D01*
X0148586Y0076800D01*
X0149293Y0079007D02*
X0149249Y0079049D01*
X0149203Y0079087D01*
X0149154Y0079123D01*
X0149103Y0079156D01*
X0149051Y0079185D01*
X0148996Y0079212D01*
X0148941Y0079235D01*
X0148884Y0079255D01*
X0148825Y0079271D01*
X0148766Y0079284D01*
X0148707Y0079293D01*
X0148646Y0079298D01*
X0148586Y0079300D01*
X0141730Y0079070D02*
X0141688Y0079114D01*
X0141650Y0079160D01*
X0141614Y0079209D01*
X0141581Y0079260D01*
X0141552Y0079312D01*
X0141525Y0079367D01*
X0141502Y0079422D01*
X0141482Y0079479D01*
X0141466Y0079538D01*
X0141453Y0079597D01*
X0141444Y0079656D01*
X0141439Y0079717D01*
X0141437Y0079777D01*
X0136760Y0072300D02*
X0134123Y0071428D01*
X0123720Y0081020D02*
X0123720Y0088288D01*
X0121752Y0088288D02*
X0121752Y0081552D01*
X0117000Y0076800D01*
X0109500Y0076800D01*
X0108000Y0078300D01*
X0106000Y0078300D01*
X0105500Y0078800D01*
X0105500Y0079800D01*
X0103572Y0081728D01*
X0102572Y0081728D01*
X0101000Y0083300D01*
X0087000Y0083300D01*
X0086000Y0084300D01*
X0076500Y0084300D01*
X0076440Y0084240D01*
X0076440Y0084241D02*
X0076451Y0084253D01*
X0076459Y0084268D01*
X0076463Y0084284D01*
X0076465Y0084300D01*
X0076296Y0084300D02*
X0074000Y0084300D01*
X0068293Y0083593D01*
X0065086Y0083300D02*
X0064000Y0083300D01*
X0065086Y0083300D02*
X0065208Y0083264D01*
X0065331Y0083232D01*
X0065455Y0083203D01*
X0065579Y0083179D01*
X0065705Y0083158D01*
X0065831Y0083140D01*
X0065957Y0083127D01*
X0066084Y0083118D01*
X0066211Y0083112D01*
X0066338Y0083110D01*
X0066465Y0083112D01*
X0066592Y0083118D01*
X0066719Y0083127D01*
X0066845Y0083141D01*
X0066971Y0083158D01*
X0067096Y0083179D01*
X0067221Y0083204D01*
X0067345Y0083233D01*
X0067468Y0083265D01*
X0067590Y0083301D01*
X0067710Y0083341D01*
X0067830Y0083384D01*
X0067948Y0083431D01*
X0068065Y0083481D01*
X0068180Y0083535D01*
X0068293Y0083593D01*
X0076296Y0084300D02*
X0076323Y0084298D01*
X0076349Y0084293D01*
X0076374Y0084284D01*
X0076398Y0084273D01*
X0076420Y0084258D01*
X0076440Y0084240D01*
X0094000Y0094300D02*
X0094878Y0095178D01*
X0106988Y0095178D01*
X0106988Y0097146D02*
X0094346Y0097146D01*
X0094000Y0096800D01*
X0014000Y0096800D01*
X0014000Y0094300D02*
X0094000Y0094300D01*
X0089185Y0099115D02*
X0106988Y0099115D01*
X0106988Y0101083D02*
X0092217Y0101083D01*
X0091500Y0101800D01*
X0014000Y0101800D01*
X0014000Y0099300D02*
X0089000Y0099300D01*
X0089185Y0099115D01*
X0093748Y0103052D02*
X0106988Y0103052D01*
X0106988Y0105020D02*
X0094780Y0105020D01*
X0093000Y0106800D01*
X0014000Y0106800D01*
X0014000Y0109300D02*
X0093500Y0109300D01*
X0095811Y0106989D01*
X0106988Y0106989D01*
X0106988Y0108957D02*
X0096843Y0108957D01*
X0094000Y0111800D01*
X0014000Y0111800D01*
X0014000Y0114300D02*
X0094500Y0114300D01*
X0097874Y0110926D01*
X0106988Y0110926D01*
X0106988Y0112894D02*
X0111500Y0112894D01*
X0113500Y0107800D01*
X0112063Y0114863D02*
X0106988Y0114863D01*
X0101063Y0114863D01*
X0101000Y0113800D01*
X0106988Y0114800D02*
X0106988Y0114863D01*
X0106957Y0116800D02*
X0014000Y0116800D01*
X0014000Y0119300D02*
X0084000Y0119300D01*
X0084500Y0118800D01*
X0106988Y0118800D01*
X0106988Y0116831D02*
X0106957Y0116800D01*
X0106988Y0120769D02*
X0087531Y0120769D01*
X0086500Y0121800D01*
X0014000Y0121800D01*
X0014000Y0124300D02*
X0087500Y0124300D01*
X0089437Y0122737D01*
X0106988Y0122737D01*
X0106988Y0124706D02*
X0091906Y0124706D01*
X0090000Y0124800D01*
X0087500Y0126800D01*
X0014000Y0126800D01*
X0014000Y0129300D02*
X0088500Y0129300D01*
X0091000Y0126800D01*
X0106862Y0126800D01*
X0106988Y0126674D01*
X0106988Y0128643D02*
X0092157Y0128643D01*
X0089000Y0131800D01*
X0014000Y0131800D01*
X0014000Y0134300D02*
X0090000Y0134300D01*
X0093689Y0130611D01*
X0106988Y0130611D01*
X0106988Y0132580D02*
X0095720Y0132580D01*
X0091500Y0136800D01*
X0014000Y0136800D01*
X0014000Y0139300D02*
X0091500Y0139300D01*
X0096748Y0134548D01*
X0106988Y0134548D01*
X0106988Y0136517D02*
X0098283Y0136517D01*
X0093000Y0141800D01*
X0014000Y0141800D01*
X0014000Y0144300D02*
X0094000Y0144300D01*
X0099815Y0138485D01*
X0106988Y0138485D01*
X0106988Y0140454D02*
X0101988Y0140454D01*
X0095642Y0146800D01*
X0014000Y0146800D01*
X0014000Y0149300D02*
X0100110Y0149300D01*
X0106988Y0142422D01*
X0114500Y0140300D02*
X0114500Y0136800D01*
X0114000Y0136300D01*
X0114000Y0116800D01*
X0112063Y0114863D01*
X0093748Y0103052D02*
X0092500Y0104300D01*
X0014000Y0104300D01*
X0052500Y0082800D02*
X0053000Y0076800D01*
X0053000Y0066800D01*
X0054000Y0065800D01*
X0056000Y0065800D01*
X0057000Y0066800D01*
X0089086Y0066800D01*
X0091586Y0071386D01*
X0100000Y0079800D01*
X0105746Y0074300D02*
X0103934Y0072488D01*
X0103000Y0062214D01*
X0103000Y0061800D01*
X0099500Y0058300D02*
X0099500Y0066800D01*
X0095500Y0069300D02*
X0098500Y0072300D01*
X0095500Y0069300D02*
X0095500Y0060300D01*
X0093500Y0058300D01*
X0074500Y0058300D01*
X0072000Y0061800D01*
X0069000Y0063800D01*
X0059000Y0063800D01*
X0056000Y0061800D01*
X0061000Y0059800D02*
X0068000Y0059800D01*
X0069000Y0057800D01*
X0071500Y0055300D01*
X0096500Y0055300D01*
X0099500Y0058300D01*
X0106793Y0066507D02*
X0107000Y0068800D01*
X0105746Y0074300D02*
X0117000Y0074300D01*
X0123720Y0081020D01*
X0133563Y0097237D02*
X0133563Y0107800D01*
X0133500Y0108800D01*
X0133500Y0125800D01*
X0142000Y0130800D01*
X0141437Y0138800D01*
X0141437Y0149312D01*
X0139469Y0149312D02*
X0139469Y0173831D01*
X0134000Y0179300D01*
X0014000Y0179300D01*
X0014000Y0176800D02*
X0132500Y0176800D01*
X0135531Y0173769D01*
X0135531Y0149312D01*
X0133563Y0149312D02*
X0133563Y0172237D01*
X0131500Y0174300D01*
X0014000Y0174300D01*
X0014000Y0171800D02*
X0129000Y0171800D01*
X0131594Y0169206D01*
X0131594Y0149312D01*
X0129626Y0149312D02*
X0129626Y0166174D01*
X0126500Y0169300D01*
X0014000Y0169300D01*
X0014000Y0166800D02*
X0124000Y0166800D01*
X0127657Y0163143D01*
X0127657Y0149312D01*
X0125689Y0149312D02*
X0125689Y0160111D01*
X0121500Y0164300D01*
X0014000Y0164300D01*
X0014000Y0161800D02*
X0119000Y0161800D01*
X0123720Y0157080D01*
X0123720Y0149312D01*
X0121752Y0149312D02*
X0121752Y0155800D01*
X0121500Y0156052D01*
X0118000Y0159300D01*
X0014000Y0159300D01*
X0014000Y0156800D02*
X0117000Y0156800D01*
X0119783Y0154017D01*
X0119783Y0149312D01*
X0117815Y0149312D02*
X0117815Y0152985D01*
X0116500Y0154300D01*
X0014000Y0154300D01*
X0014000Y0151800D02*
X0111390Y0151800D01*
X0113878Y0149312D01*
X0115846Y0149312D02*
X0115846Y0141646D01*
X0114500Y0140300D01*
X0137500Y0142800D02*
X0137500Y0149312D01*
X0143406Y0149312D02*
X0143406Y0139800D01*
X0145500Y0135800D01*
X0149500Y0130800D02*
X0160500Y0128300D01*
X0160500Y0131300D01*
X0161780Y0132580D01*
X0168012Y0132580D01*
X0160500Y0128300D02*
X0160500Y0122800D01*
X0168012Y0126674D02*
X0178374Y0126674D01*
X0157012Y0135800D02*
X0156500Y0135800D01*
X0157000Y0143800D02*
X0157185Y0143985D01*
X0157185Y0149312D01*
X0155217Y0149312D02*
X0155217Y0164517D01*
X0156000Y0165300D01*
X0145374Y0173926D02*
X0142000Y0177300D01*
X0143000Y0180300D02*
X0136000Y0180300D01*
X0135000Y0181300D01*
X0109500Y0181300D01*
X0104000Y0186300D01*
X0102500Y0187800D01*
X0100000Y0187800D01*
X0096000Y0183800D01*
X0050000Y0183800D01*
X0047000Y0186800D01*
X0038740Y0186800D01*
X0031260Y0186800D02*
X0030260Y0185800D01*
X0023000Y0185800D01*
X0020500Y0188300D01*
X0019000Y0188300D01*
X0014000Y0181800D02*
X0100500Y0181800D01*
X0102000Y0183300D01*
X0114000Y0188300D02*
X0115500Y0188300D01*
X0120500Y0183300D01*
X0131260Y0183300D01*
X0136260Y0188300D01*
X0143740Y0188300D02*
X0143740Y0184060D01*
X0144500Y0183300D01*
X0149311Y0177989D01*
X0149311Y0149312D01*
X0147343Y0149312D02*
X0147343Y0175957D01*
X0143000Y0180300D01*
X0145374Y0173926D02*
X0145374Y0149312D01*
X0169500Y0155300D02*
X0171000Y0153800D01*
X0198500Y0153800D01*
X0211500Y0181800D02*
X0166000Y0181800D01*
X0211500Y0181800D02*
X0214000Y0184300D01*
X0204414Y0089300D02*
X0204354Y0089298D01*
X0204293Y0089293D01*
X0204234Y0089284D01*
X0204175Y0089271D01*
X0204116Y0089255D01*
X0204059Y0089235D01*
X0204004Y0089212D01*
X0203949Y0089185D01*
X0203897Y0089156D01*
X0203846Y0089123D01*
X0203797Y0089087D01*
X0203751Y0089049D01*
X0203707Y0089007D01*
X0206207Y0086507D02*
X0206251Y0086549D01*
X0206297Y0086587D01*
X0206346Y0086623D01*
X0206397Y0086656D01*
X0206449Y0086685D01*
X0206504Y0086712D01*
X0206559Y0086735D01*
X0206616Y0086755D01*
X0206675Y0086771D01*
X0206734Y0086784D01*
X0206793Y0086793D01*
X0206854Y0086798D01*
X0206914Y0086800D01*
X0157478Y0081236D02*
X0157436Y0081280D01*
X0157398Y0081326D01*
X0157362Y0081375D01*
X0157329Y0081426D01*
X0157300Y0081478D01*
X0157273Y0081533D01*
X0157250Y0081588D01*
X0157230Y0081645D01*
X0157214Y0081704D01*
X0157201Y0081763D01*
X0157192Y0081822D01*
X0157187Y0081883D01*
X0157185Y0081943D01*
X0139217Y0058800D02*
X0138000Y0058300D01*
X0128000Y0057040D01*
X0128000Y0056560D01*
X0106500Y0036800D02*
X0105500Y0035800D01*
X0104000Y0035800D01*
X0104207Y0035593D01*
X0104000Y0035800D02*
X0069500Y0035800D01*
X0065000Y0040300D01*
X0065000Y0055800D01*
X0091500Y0027898D02*
X0082402Y0018800D01*
X0032500Y0018800D01*
D22*
X0032700Y0019000D02*
X0037300Y0019000D01*
X0037300Y0020788D01*
X0034488Y0023600D01*
X0032700Y0023600D01*
X0032700Y0019000D01*
X0032700Y0018600D01*
X0037300Y0018600D01*
X0037300Y0016812D01*
X0034488Y0014000D01*
X0032700Y0014000D01*
X0032700Y0018600D01*
X0032300Y0018600D01*
X0032300Y0014000D01*
X0030512Y0014000D01*
X0027700Y0016812D01*
X0027700Y0018600D01*
X0032300Y0018600D01*
X0032300Y0019000D01*
X0032300Y0023600D01*
X0030512Y0023600D01*
X0027700Y0020788D01*
X0027700Y0019000D01*
X0032300Y0019000D01*
X0032700Y0019000D01*
X0032700Y0019384D02*
X0032300Y0019384D01*
X0032300Y0020982D02*
X0032700Y0020982D01*
X0032700Y0022581D02*
X0032300Y0022581D01*
X0029492Y0022581D02*
X0016300Y0022581D01*
X0016300Y0024179D02*
X0206382Y0024179D01*
X0206449Y0022581D02*
X0035508Y0022581D01*
X0037106Y0020982D02*
X0206516Y0020982D01*
X0206582Y0019384D02*
X0037300Y0019384D01*
X0037300Y0017785D02*
X0206649Y0017785D01*
X0206715Y0016187D02*
X0036675Y0016187D01*
X0035076Y0014588D02*
X0206782Y0014588D01*
X0206849Y0012990D02*
X0058817Y0012990D01*
X0032700Y0014588D02*
X0032300Y0014588D01*
X0032300Y0016187D02*
X0032700Y0016187D01*
X0032700Y0017785D02*
X0032300Y0017785D01*
X0028325Y0016187D02*
X0016300Y0016187D01*
X0016300Y0017785D02*
X0027700Y0017785D01*
X0027700Y0019384D02*
X0016300Y0019384D01*
X0016300Y0020982D02*
X0027894Y0020982D01*
X0029924Y0014588D02*
X0016300Y0014588D01*
X0016300Y0014139D02*
X0016300Y0064850D01*
X0016950Y0064850D01*
X0016950Y0065750D01*
X0016300Y0065750D01*
X0016300Y0084700D01*
X0049519Y0084700D01*
X0049019Y0083492D01*
X0049019Y0082108D01*
X0049549Y0080828D01*
X0050528Y0079849D01*
X0050643Y0079801D01*
X0050900Y0076713D01*
X0050900Y0065930D01*
X0051900Y0064930D01*
X0053054Y0063777D01*
X0053049Y0063772D01*
X0052519Y0062492D01*
X0052519Y0061108D01*
X0053049Y0059828D01*
X0054028Y0058849D01*
X0055308Y0058319D01*
X0056692Y0058319D01*
X0057677Y0058727D01*
X0058049Y0057828D01*
X0059028Y0056849D01*
X0060308Y0056319D01*
X0061519Y0056319D01*
X0061519Y0055108D01*
X0062049Y0053828D01*
X0062900Y0052977D01*
X0062900Y0039430D01*
X0068630Y0033700D01*
X0103130Y0033700D01*
X0103337Y0033493D01*
X0105077Y0033493D01*
X0105284Y0033700D01*
X0106370Y0033700D01*
X0106500Y0033830D01*
X0109400Y0030930D01*
X0110630Y0029700D01*
X0188130Y0029700D01*
X0190264Y0027567D01*
X0190517Y0027567D01*
X0190792Y0027453D01*
X0190971Y0027274D01*
X0206253Y0027274D01*
X0206900Y0011756D01*
X0206900Y0010930D01*
X0206936Y0010894D01*
X0206938Y0010843D01*
X0207546Y0010284D01*
X0208130Y0009700D01*
X0208181Y0009700D01*
X0208218Y0009666D01*
X0209044Y0009700D01*
X0274870Y0009700D01*
X0276100Y0010930D01*
X0276100Y0033164D01*
X0277124Y0034700D01*
X0292870Y0034700D01*
X0298100Y0039930D01*
X0298100Y0053477D01*
X0298951Y0054328D01*
X0299354Y0055300D01*
X0299549Y0054828D01*
X0300528Y0053849D01*
X0301750Y0053343D01*
X0301528Y0053251D01*
X0300549Y0052272D01*
X0300019Y0050992D01*
X0300019Y0049608D01*
X0300549Y0048328D01*
X0301528Y0047349D01*
X0302808Y0046819D01*
X0304192Y0046819D01*
X0305472Y0047349D01*
X0306323Y0048200D01*
X0314677Y0048200D01*
X0315528Y0047349D01*
X0316808Y0046819D01*
X0318192Y0046819D01*
X0319472Y0047349D01*
X0320451Y0048328D01*
X0320981Y0049608D01*
X0320981Y0050992D01*
X0320451Y0052272D01*
X0319472Y0053251D01*
X0318192Y0053781D01*
X0316808Y0053781D01*
X0315528Y0053251D01*
X0314677Y0052400D01*
X0306323Y0052400D01*
X0305472Y0053251D01*
X0304250Y0053757D01*
X0304472Y0053849D01*
X0305323Y0054700D01*
X0316388Y0054700D01*
X0317308Y0054319D01*
X0318692Y0054319D01*
X0319972Y0054849D01*
X0320951Y0055828D01*
X0321481Y0057108D01*
X0321481Y0058492D01*
X0320951Y0059772D01*
X0319972Y0060751D01*
X0318692Y0061281D01*
X0317308Y0061281D01*
X0316028Y0060751D01*
X0315049Y0059772D01*
X0314688Y0058900D01*
X0305323Y0058900D01*
X0304472Y0059751D01*
X0303192Y0060281D01*
X0301808Y0060281D01*
X0300528Y0059751D01*
X0299549Y0058772D01*
X0299146Y0057800D01*
X0298951Y0058272D01*
X0297972Y0059251D01*
X0296692Y0059781D01*
X0295308Y0059781D01*
X0294028Y0059251D01*
X0293049Y0058272D01*
X0292519Y0056992D01*
X0292519Y0055608D01*
X0293049Y0054328D01*
X0293900Y0053477D01*
X0293900Y0041670D01*
X0291130Y0038900D01*
X0276636Y0038900D01*
X0276441Y0039030D01*
X0275792Y0038900D01*
X0275130Y0038900D01*
X0274965Y0038735D01*
X0274735Y0038689D01*
X0274368Y0038138D01*
X0273900Y0037670D01*
X0273900Y0037436D01*
X0272368Y0035138D01*
X0271900Y0034670D01*
X0271900Y0034436D01*
X0271770Y0034241D01*
X0271900Y0033592D01*
X0271900Y0013900D01*
X0211014Y0013900D01*
X0210368Y0029417D01*
X0210368Y0030244D01*
X0210346Y0030265D01*
X0209628Y0058707D01*
X0209972Y0058849D01*
X0210951Y0059828D01*
X0211481Y0061108D01*
X0211481Y0062492D01*
X0210951Y0063772D01*
X0210734Y0063989D01*
X0213035Y0063861D01*
X0213049Y0063828D01*
X0213900Y0062977D01*
X0213900Y0016930D01*
X0215130Y0015700D01*
X0268870Y0015700D01*
X0270100Y0016930D01*
X0270100Y0036930D01*
X0272870Y0039700D01*
X0287870Y0039700D01*
X0288870Y0040700D01*
X0290100Y0041930D01*
X0290100Y0068430D01*
X0297370Y0075700D01*
X0300688Y0075700D01*
X0301049Y0074828D01*
X0302028Y0073849D01*
X0303308Y0073319D01*
X0304692Y0073319D01*
X0305972Y0073849D01*
X0306951Y0074828D01*
X0307000Y0074946D01*
X0307049Y0074828D01*
X0308028Y0073849D01*
X0309308Y0073319D01*
X0310692Y0073319D01*
X0311972Y0073849D01*
X0312951Y0074828D01*
X0313481Y0076108D01*
X0313481Y0077492D01*
X0312951Y0078772D01*
X0311972Y0079751D01*
X0310692Y0080281D01*
X0309308Y0080281D01*
X0308729Y0080041D01*
X0307070Y0081700D01*
X0324019Y0081700D01*
X0324019Y0080608D01*
X0324549Y0079328D01*
X0325528Y0078349D01*
X0326808Y0077819D01*
X0328192Y0077819D01*
X0329472Y0078349D01*
X0330451Y0079328D01*
X0330981Y0080608D01*
X0330981Y0081992D01*
X0330451Y0083272D01*
X0329472Y0084251D01*
X0328388Y0084700D01*
X0382550Y0084700D01*
X0382800Y0084450D01*
X0384000Y0084450D01*
X0384000Y0069030D01*
X0383737Y0069100D01*
X0381450Y0069100D01*
X0381450Y0062750D01*
X0380550Y0062750D01*
X0380550Y0069100D01*
X0378263Y0069100D01*
X0377805Y0068977D01*
X0377395Y0068740D01*
X0377060Y0068405D01*
X0376823Y0067995D01*
X0376700Y0067537D01*
X0376700Y0062750D01*
X0380550Y0062750D01*
X0380550Y0061850D01*
X0381450Y0061850D01*
X0381450Y0055500D01*
X0383737Y0055500D01*
X0384000Y0055570D01*
X0384000Y0004201D01*
X0016300Y0014139D01*
X0014000Y0011800D02*
X0384000Y0001800D01*
X0384000Y0004997D02*
X0354542Y0004997D01*
X0384000Y0006596D02*
X0295397Y0006596D01*
X0276100Y0011391D02*
X0384000Y0011391D01*
X0384000Y0009793D02*
X0274962Y0009793D01*
X0276100Y0012990D02*
X0384000Y0012990D01*
X0384000Y0014588D02*
X0276100Y0014588D01*
X0276100Y0016187D02*
X0384000Y0016187D01*
X0384000Y0017785D02*
X0276100Y0017785D01*
X0276100Y0019384D02*
X0384000Y0019384D01*
X0384000Y0020982D02*
X0276100Y0020982D01*
X0276100Y0022581D02*
X0384000Y0022581D01*
X0384000Y0024179D02*
X0276100Y0024179D01*
X0276100Y0025778D02*
X0384000Y0025778D01*
X0384000Y0027376D02*
X0276100Y0027376D01*
X0276100Y0028975D02*
X0384000Y0028975D01*
X0384000Y0030573D02*
X0276100Y0030573D01*
X0276100Y0032172D02*
X0384000Y0032172D01*
X0384000Y0033770D02*
X0276504Y0033770D01*
X0272522Y0035369D02*
X0270100Y0035369D01*
X0270137Y0036967D02*
X0273588Y0036967D01*
X0274653Y0038566D02*
X0271736Y0038566D01*
X0262591Y0043361D02*
X0227100Y0043361D01*
X0227100Y0041763D02*
X0260993Y0041763D01*
X0260900Y0041670D02*
X0260900Y0024900D01*
X0227100Y0024900D01*
X0227100Y0056164D01*
X0228632Y0058462D01*
X0229100Y0058930D01*
X0229100Y0059164D01*
X0229230Y0059359D01*
X0229100Y0060008D01*
X0229100Y0067164D01*
X0229230Y0067359D01*
X0229100Y0068008D01*
X0229100Y0068670D01*
X0228935Y0068835D01*
X0228889Y0069065D01*
X0228338Y0069432D01*
X0227870Y0069900D01*
X0227636Y0069900D01*
X0219338Y0075432D01*
X0218870Y0075900D01*
X0218636Y0075900D01*
X0218441Y0076030D01*
X0217792Y0075900D01*
X0207870Y0075900D01*
X0203220Y0080550D01*
X0207370Y0084700D01*
X0279930Y0084700D01*
X0279900Y0084670D01*
X0278130Y0082900D01*
X0262823Y0082900D01*
X0261972Y0083751D01*
X0260692Y0084281D01*
X0259308Y0084281D01*
X0258028Y0083751D01*
X0257049Y0082772D01*
X0256519Y0081492D01*
X0256519Y0080108D01*
X0257049Y0078828D01*
X0258028Y0077849D01*
X0259308Y0077319D01*
X0260692Y0077319D01*
X0261972Y0077849D01*
X0262823Y0078700D01*
X0279870Y0078700D01*
X0282870Y0081700D01*
X0285977Y0081700D01*
X0285049Y0080772D01*
X0284519Y0079492D01*
X0284519Y0078289D01*
X0282130Y0075900D01*
X0280900Y0074670D01*
X0280900Y0048900D01*
X0268130Y0048900D01*
X0262130Y0042900D01*
X0260900Y0041670D01*
X0260900Y0040164D02*
X0227100Y0040164D01*
X0227100Y0038566D02*
X0260900Y0038566D01*
X0260900Y0036967D02*
X0227100Y0036967D01*
X0227100Y0035369D02*
X0260900Y0035369D01*
X0260900Y0033770D02*
X0227100Y0033770D01*
X0227100Y0032172D02*
X0260900Y0032172D01*
X0260900Y0030573D02*
X0227100Y0030573D01*
X0227100Y0028975D02*
X0260900Y0028975D01*
X0260900Y0027376D02*
X0227100Y0027376D01*
X0227100Y0025778D02*
X0260900Y0025778D01*
X0270100Y0025778D02*
X0271900Y0025778D01*
X0271900Y0027376D02*
X0270100Y0027376D01*
X0270100Y0028975D02*
X0271900Y0028975D01*
X0271900Y0030573D02*
X0270100Y0030573D01*
X0270100Y0032172D02*
X0271900Y0032172D01*
X0271864Y0033770D02*
X0270100Y0033770D01*
X0270100Y0024179D02*
X0271900Y0024179D01*
X0271900Y0022581D02*
X0270100Y0022581D01*
X0270100Y0020982D02*
X0271900Y0020982D01*
X0271900Y0019384D02*
X0270100Y0019384D01*
X0270100Y0017785D02*
X0271900Y0017785D01*
X0271900Y0016187D02*
X0269356Y0016187D01*
X0271900Y0014588D02*
X0210986Y0014588D01*
X0210919Y0016187D02*
X0214644Y0016187D01*
X0213900Y0017785D02*
X0210852Y0017785D01*
X0210786Y0019384D02*
X0213900Y0019384D01*
X0213900Y0020982D02*
X0210719Y0020982D01*
X0210653Y0022581D02*
X0213900Y0022581D01*
X0213900Y0024179D02*
X0210586Y0024179D01*
X0210519Y0025778D02*
X0213900Y0025778D01*
X0213900Y0027376D02*
X0210453Y0027376D01*
X0210386Y0028975D02*
X0213900Y0028975D01*
X0213900Y0030573D02*
X0210338Y0030573D01*
X0210298Y0032172D02*
X0213900Y0032172D01*
X0213900Y0033770D02*
X0210257Y0033770D01*
X0210217Y0035369D02*
X0213900Y0035369D01*
X0213900Y0036967D02*
X0210177Y0036967D01*
X0210136Y0038566D02*
X0213900Y0038566D01*
X0213900Y0040164D02*
X0210096Y0040164D01*
X0210056Y0041763D02*
X0213900Y0041763D01*
X0213900Y0043361D02*
X0210015Y0043361D01*
X0209975Y0044960D02*
X0213900Y0044960D01*
X0213900Y0046558D02*
X0209935Y0046558D01*
X0209894Y0048157D02*
X0213900Y0048157D01*
X0213900Y0049755D02*
X0209854Y0049755D01*
X0209814Y0051354D02*
X0213900Y0051354D01*
X0213900Y0052952D02*
X0209773Y0052952D01*
X0209733Y0054551D02*
X0213900Y0054551D01*
X0213900Y0056149D02*
X0209693Y0056149D01*
X0209652Y0057748D02*
X0213900Y0057748D01*
X0213900Y0059346D02*
X0210469Y0059346D01*
X0211414Y0060945D02*
X0213900Y0060945D01*
X0213900Y0062543D02*
X0211460Y0062543D01*
X0224284Y0072134D02*
X0232057Y0072134D01*
X0231924Y0071873D02*
X0231200Y0067300D01*
X0231924Y0062727D01*
X0234027Y0058601D01*
X0237301Y0055327D01*
X0241427Y0053224D01*
X0246000Y0052500D01*
X0250573Y0053224D01*
X0250573Y0053224D01*
X0254699Y0055327D01*
X0257973Y0058601D01*
X0260076Y0062727D01*
X0260800Y0067300D01*
X0260076Y0071873D01*
X0260076Y0071873D01*
X0257973Y0075999D01*
X0254699Y0079273D01*
X0250573Y0081376D01*
X0246000Y0082100D01*
X0241427Y0081376D01*
X0241427Y0081376D01*
X0237301Y0079273D01*
X0234027Y0075999D01*
X0231924Y0071873D01*
X0231713Y0070536D02*
X0226682Y0070536D01*
X0228914Y0068937D02*
X0231459Y0068937D01*
X0231206Y0067339D02*
X0229217Y0067339D01*
X0229100Y0065740D02*
X0231447Y0065740D01*
X0231700Y0064142D02*
X0229100Y0064142D01*
X0229100Y0062543D02*
X0232018Y0062543D01*
X0232832Y0060945D02*
X0229100Y0060945D01*
X0229221Y0059346D02*
X0233647Y0059346D01*
X0234879Y0057748D02*
X0228156Y0057748D01*
X0227100Y0056149D02*
X0236478Y0056149D01*
X0237301Y0055327D02*
X0237301Y0055327D01*
X0238823Y0054551D02*
X0227100Y0054551D01*
X0227100Y0052952D02*
X0243144Y0052952D01*
X0241427Y0053224D02*
X0241427Y0053224D01*
X0246000Y0052500D02*
X0246000Y0052500D01*
X0248856Y0052952D02*
X0280900Y0052952D01*
X0280900Y0051354D02*
X0227100Y0051354D01*
X0227100Y0049755D02*
X0280900Y0049755D01*
X0280900Y0054551D02*
X0253177Y0054551D01*
X0254699Y0055327D02*
X0254699Y0055327D01*
X0255522Y0056149D02*
X0280900Y0056149D01*
X0280900Y0057748D02*
X0257121Y0057748D01*
X0257973Y0058601D02*
X0257973Y0058601D01*
X0258353Y0059346D02*
X0280900Y0059346D01*
X0280900Y0060945D02*
X0259168Y0060945D01*
X0259982Y0062543D02*
X0280900Y0062543D01*
X0280900Y0064142D02*
X0260300Y0064142D01*
X0260076Y0062727D02*
X0260076Y0062727D01*
X0260553Y0065740D02*
X0280900Y0065740D01*
X0280900Y0067339D02*
X0260794Y0067339D01*
X0260541Y0068937D02*
X0280900Y0068937D01*
X0280900Y0070536D02*
X0260287Y0070536D01*
X0259943Y0072134D02*
X0280900Y0072134D01*
X0280900Y0073733D02*
X0259128Y0073733D01*
X0258314Y0075332D02*
X0281562Y0075332D01*
X0282130Y0075900D02*
X0282130Y0075900D01*
X0283160Y0076930D02*
X0257043Y0076930D01*
X0257973Y0075999D02*
X0257973Y0075999D01*
X0257348Y0078529D02*
X0255444Y0078529D01*
X0254699Y0079273D02*
X0254699Y0079273D01*
X0253024Y0080127D02*
X0256519Y0080127D01*
X0256615Y0081726D02*
X0248364Y0081726D01*
X0250573Y0081376D02*
X0250573Y0081376D01*
X0257601Y0083324D02*
X0205994Y0083324D01*
X0204395Y0081726D02*
X0243636Y0081726D01*
X0246000Y0082100D02*
X0246000Y0082100D01*
X0238976Y0080127D02*
X0203643Y0080127D01*
X0205241Y0078529D02*
X0236556Y0078529D01*
X0237301Y0079273D02*
X0237301Y0079273D01*
X0237301Y0079273D01*
X0234957Y0076930D02*
X0206840Y0076930D01*
X0219489Y0075332D02*
X0233686Y0075332D01*
X0234027Y0075999D02*
X0234027Y0075999D01*
X0232872Y0073733D02*
X0221886Y0073733D01*
X0187969Y0070401D02*
X0181300Y0065400D01*
X0181130Y0065400D01*
X0180621Y0064890D01*
X0180044Y0064458D01*
X0180020Y0064290D01*
X0179900Y0064170D01*
X0179900Y0063449D01*
X0179853Y0063123D01*
X0178600Y0061870D01*
X0178600Y0070930D01*
X0178713Y0071043D01*
X0178893Y0071223D01*
X0182370Y0074700D01*
X0187132Y0074700D01*
X0187486Y0071677D01*
X0187486Y0070930D01*
X0187585Y0070831D01*
X0187601Y0070692D01*
X0187969Y0070401D01*
X0187798Y0070536D02*
X0178600Y0070536D01*
X0178600Y0068937D02*
X0186017Y0068937D01*
X0183885Y0067339D02*
X0178600Y0067339D01*
X0178600Y0065740D02*
X0181754Y0065740D01*
X0179900Y0064142D02*
X0178600Y0064142D01*
X0178600Y0062543D02*
X0179274Y0062543D01*
X0174400Y0057200D02*
X0174400Y0055930D01*
X0174400Y0047436D01*
X0170376Y0041400D01*
X0122370Y0041400D01*
X0121100Y0042670D01*
X0121100Y0055695D01*
X0121472Y0055849D01*
X0122451Y0056828D01*
X0122981Y0058108D01*
X0122981Y0059311D01*
X0123250Y0059581D01*
X0123250Y0053338D01*
X0124188Y0052401D01*
X0124887Y0052401D01*
X0124564Y0050853D01*
X0122538Y0050853D01*
X0121601Y0049915D01*
X0121601Y0042684D01*
X0122538Y0041747D01*
X0128982Y0041747D01*
X0129359Y0042124D01*
X0129576Y0041907D01*
X0129986Y0041670D01*
X0130444Y0041547D01*
X0132761Y0041547D01*
X0132761Y0045820D01*
X0133720Y0045820D01*
X0133720Y0041547D01*
X0136036Y0041547D01*
X0136494Y0041670D01*
X0136904Y0041907D01*
X0137240Y0042242D01*
X0137477Y0042652D01*
X0137599Y0043110D01*
X0137599Y0045820D01*
X0133720Y0045820D01*
X0133720Y0046780D01*
X0132761Y0046780D01*
X0132761Y0051053D01*
X0130444Y0051053D01*
X0129986Y0050930D01*
X0129576Y0050693D01*
X0129359Y0050476D01*
X0128982Y0050853D01*
X0128855Y0050853D01*
X0129178Y0052401D01*
X0131812Y0052401D01*
X0132750Y0053338D01*
X0132750Y0055522D01*
X0134270Y0055713D01*
X0134270Y0053413D01*
X0135207Y0052476D01*
X0143226Y0052476D01*
X0144163Y0053413D01*
X0144163Y0064187D01*
X0143226Y0065124D01*
X0135207Y0065124D01*
X0134270Y0064187D01*
X0134270Y0059947D01*
X0132750Y0059755D01*
X0132750Y0059782D01*
X0132231Y0060300D01*
X0132750Y0060818D01*
X0132750Y0067262D01*
X0131812Y0068199D01*
X0131692Y0068199D01*
X0132403Y0068647D01*
X0132601Y0068712D01*
X0132601Y0068488D01*
X0133538Y0067550D01*
X0139982Y0067550D01*
X0140500Y0068069D01*
X0141018Y0067550D01*
X0147462Y0067550D01*
X0148399Y0068488D01*
X0148399Y0070200D01*
X0149263Y0070200D01*
X0150509Y0069203D01*
X0150965Y0065124D01*
X0149774Y0065124D01*
X0148837Y0064187D01*
X0148837Y0053413D01*
X0149774Y0052476D01*
X0152091Y0052476D01*
X0152197Y0050853D01*
X0150018Y0050853D01*
X0149641Y0050476D01*
X0149424Y0050693D01*
X0149014Y0050930D01*
X0148556Y0051053D01*
X0146239Y0051053D01*
X0146239Y0046780D01*
X0145280Y0046780D01*
X0145280Y0051053D01*
X0142964Y0051053D01*
X0142506Y0050930D01*
X0142096Y0050693D01*
X0141760Y0050358D01*
X0141523Y0049948D01*
X0141401Y0049490D01*
X0141401Y0046780D01*
X0145280Y0046780D01*
X0145280Y0045820D01*
X0146239Y0045820D01*
X0146239Y0041547D01*
X0148556Y0041547D01*
X0149014Y0041670D01*
X0149424Y0041907D01*
X0149641Y0042124D01*
X0150018Y0041747D01*
X0156462Y0041747D01*
X0157399Y0042684D01*
X0157399Y0049915D01*
X0156462Y0050853D01*
X0156406Y0050853D01*
X0156300Y0052476D01*
X0157793Y0052476D01*
X0158730Y0053413D01*
X0158730Y0059100D01*
X0160630Y0057200D01*
X0174400Y0057200D01*
X0174400Y0056149D02*
X0158730Y0056149D01*
X0158730Y0054551D02*
X0174400Y0054551D01*
X0174400Y0052952D02*
X0158269Y0052952D01*
X0156373Y0051354D02*
X0174400Y0051354D01*
X0174400Y0049755D02*
X0157399Y0049755D01*
X0157399Y0048157D02*
X0174400Y0048157D01*
X0173815Y0046558D02*
X0157399Y0046558D01*
X0157399Y0044960D02*
X0172749Y0044960D01*
X0171684Y0043361D02*
X0157399Y0043361D01*
X0156477Y0041763D02*
X0170618Y0041763D01*
X0150003Y0041763D02*
X0149175Y0041763D01*
X0146239Y0041763D02*
X0145280Y0041763D01*
X0145280Y0041547D02*
X0145280Y0045820D01*
X0141401Y0045820D01*
X0141401Y0043110D01*
X0141523Y0042652D01*
X0141760Y0042242D01*
X0142096Y0041907D01*
X0142506Y0041670D01*
X0142964Y0041547D01*
X0145280Y0041547D01*
X0145280Y0043361D02*
X0146239Y0043361D01*
X0146239Y0044960D02*
X0145280Y0044960D01*
X0145280Y0046558D02*
X0133720Y0046558D01*
X0133720Y0046780D02*
X0137599Y0046780D01*
X0137599Y0049490D01*
X0137477Y0049948D01*
X0137240Y0050358D01*
X0136904Y0050693D01*
X0136494Y0050930D01*
X0136036Y0051053D01*
X0133720Y0051053D01*
X0133720Y0046780D01*
X0132761Y0046780D02*
X0129919Y0046780D01*
X0129919Y0045820D01*
X0132761Y0045820D01*
X0132761Y0046780D01*
X0132761Y0046558D02*
X0129919Y0046558D01*
X0132761Y0044960D02*
X0133720Y0044960D01*
X0133720Y0043361D02*
X0132761Y0043361D01*
X0132761Y0041763D02*
X0133720Y0041763D01*
X0136655Y0041763D02*
X0142345Y0041763D01*
X0141401Y0043361D02*
X0137599Y0043361D01*
X0137599Y0044960D02*
X0141401Y0044960D01*
X0141401Y0048157D02*
X0137599Y0048157D01*
X0137528Y0049755D02*
X0141472Y0049755D01*
X0145280Y0049755D02*
X0146239Y0049755D01*
X0146239Y0048157D02*
X0145280Y0048157D01*
X0143702Y0052952D02*
X0149297Y0052952D01*
X0148837Y0054551D02*
X0144163Y0054551D01*
X0144163Y0056149D02*
X0148837Y0056149D01*
X0148837Y0057748D02*
X0144163Y0057748D01*
X0144163Y0059346D02*
X0148837Y0059346D01*
X0148837Y0060945D02*
X0144163Y0060945D01*
X0144163Y0062543D02*
X0148837Y0062543D01*
X0148837Y0064142D02*
X0144163Y0064142D01*
X0150896Y0065740D02*
X0132750Y0065740D01*
X0132750Y0064142D02*
X0134270Y0064142D01*
X0134270Y0062543D02*
X0132750Y0062543D01*
X0132750Y0060945D02*
X0134270Y0060945D01*
X0123250Y0059346D02*
X0123016Y0059346D01*
X0122832Y0057748D02*
X0123250Y0057748D01*
X0123250Y0056149D02*
X0121772Y0056149D01*
X0121100Y0054551D02*
X0123250Y0054551D01*
X0123636Y0052952D02*
X0121100Y0052952D01*
X0121100Y0051354D02*
X0124669Y0051354D01*
X0121601Y0049755D02*
X0121100Y0049755D01*
X0121100Y0048157D02*
X0121601Y0048157D01*
X0121601Y0046558D02*
X0121100Y0046558D01*
X0121100Y0044960D02*
X0121601Y0044960D01*
X0121601Y0043361D02*
X0121100Y0043361D01*
X0122007Y0041763D02*
X0122523Y0041763D01*
X0128997Y0041763D02*
X0129825Y0041763D01*
X0132761Y0048157D02*
X0133720Y0048157D01*
X0133720Y0049755D02*
X0132761Y0049755D01*
X0132364Y0052952D02*
X0134731Y0052952D01*
X0134270Y0054551D02*
X0132750Y0054551D01*
X0128959Y0051354D02*
X0152164Y0051354D01*
X0158730Y0057748D02*
X0160082Y0057748D01*
X0150717Y0067339D02*
X0132673Y0067339D01*
X0148399Y0068937D02*
X0150539Y0068937D01*
X0179804Y0072134D02*
X0187432Y0072134D01*
X0187245Y0073733D02*
X0181403Y0073733D01*
X0227100Y0048157D02*
X0267387Y0048157D01*
X0265788Y0046558D02*
X0227100Y0046558D01*
X0227100Y0044960D02*
X0264190Y0044960D01*
X0288334Y0040164D02*
X0292394Y0040164D01*
X0293900Y0041763D02*
X0289933Y0041763D01*
X0290100Y0043361D02*
X0293900Y0043361D01*
X0293900Y0044960D02*
X0290100Y0044960D01*
X0290100Y0046558D02*
X0293900Y0046558D01*
X0293900Y0048157D02*
X0290100Y0048157D01*
X0290100Y0049755D02*
X0293900Y0049755D01*
X0293900Y0051354D02*
X0290100Y0051354D01*
X0290100Y0052952D02*
X0293900Y0052952D01*
X0292957Y0054551D02*
X0290100Y0054551D01*
X0290100Y0056149D02*
X0292519Y0056149D01*
X0292832Y0057748D02*
X0290100Y0057748D01*
X0290100Y0059346D02*
X0294258Y0059346D01*
X0297742Y0059346D02*
X0300123Y0059346D01*
X0304877Y0059346D02*
X0314873Y0059346D01*
X0316496Y0060945D02*
X0290100Y0060945D01*
X0290100Y0062543D02*
X0380550Y0062543D01*
X0380550Y0061850D02*
X0376700Y0061850D01*
X0376700Y0057063D01*
X0376823Y0056605D01*
X0377060Y0056195D01*
X0377395Y0055860D01*
X0377805Y0055623D01*
X0378263Y0055500D01*
X0380550Y0055500D01*
X0380550Y0061850D01*
X0380550Y0060945D02*
X0381450Y0060945D01*
X0381450Y0059346D02*
X0380550Y0059346D01*
X0380550Y0057748D02*
X0381450Y0057748D01*
X0381450Y0056149D02*
X0380550Y0056149D01*
X0377105Y0056149D02*
X0321084Y0056149D01*
X0321481Y0057748D02*
X0376700Y0057748D01*
X0376700Y0059346D02*
X0321127Y0059346D01*
X0319504Y0060945D02*
X0376700Y0060945D01*
X0376700Y0064142D02*
X0290100Y0064142D01*
X0290100Y0065740D02*
X0376700Y0065740D01*
X0376700Y0067339D02*
X0290100Y0067339D01*
X0290607Y0068937D02*
X0377736Y0068937D01*
X0380550Y0068937D02*
X0381450Y0068937D01*
X0381450Y0067339D02*
X0380550Y0067339D01*
X0380550Y0065740D02*
X0381450Y0065740D01*
X0381450Y0064142D02*
X0380550Y0064142D01*
X0384000Y0070536D02*
X0292206Y0070536D01*
X0293804Y0072134D02*
X0384000Y0072134D01*
X0384000Y0073733D02*
X0311692Y0073733D01*
X0313160Y0075332D02*
X0384000Y0075332D01*
X0384000Y0076930D02*
X0313481Y0076930D01*
X0313052Y0078529D02*
X0325348Y0078529D01*
X0324218Y0080127D02*
X0311064Y0080127D01*
X0308936Y0080127D02*
X0308643Y0080127D01*
X0300840Y0075332D02*
X0297001Y0075332D01*
X0295403Y0073733D02*
X0302308Y0073733D01*
X0305692Y0073733D02*
X0308308Y0073733D01*
X0329652Y0078529D02*
X0384000Y0078529D01*
X0384000Y0080127D02*
X0330782Y0080127D01*
X0330981Y0081726D02*
X0384000Y0081726D01*
X0384000Y0083324D02*
X0330399Y0083324D01*
X0284782Y0080127D02*
X0281297Y0080127D01*
X0284519Y0078529D02*
X0262652Y0078529D01*
X0262399Y0083324D02*
X0278554Y0083324D01*
X0299043Y0054551D02*
X0299826Y0054551D01*
X0301229Y0052952D02*
X0298100Y0052952D01*
X0298100Y0051354D02*
X0300169Y0051354D01*
X0300019Y0049755D02*
X0298100Y0049755D01*
X0298100Y0048157D02*
X0300720Y0048157D01*
X0298100Y0046558D02*
X0384000Y0046558D01*
X0384000Y0044960D02*
X0298100Y0044960D01*
X0298100Y0043361D02*
X0384000Y0043361D01*
X0384000Y0041763D02*
X0298100Y0041763D01*
X0298100Y0040164D02*
X0384000Y0040164D01*
X0384000Y0038566D02*
X0296736Y0038566D01*
X0295137Y0036967D02*
X0384000Y0036967D01*
X0384000Y0035369D02*
X0293539Y0035369D01*
X0306280Y0048157D02*
X0314720Y0048157D01*
X0320280Y0048157D02*
X0384000Y0048157D01*
X0384000Y0049755D02*
X0320981Y0049755D01*
X0320831Y0051354D02*
X0384000Y0051354D01*
X0384000Y0052952D02*
X0319771Y0052952D01*
X0319252Y0054551D02*
X0384000Y0054551D01*
X0316748Y0054551D02*
X0305174Y0054551D01*
X0305771Y0052952D02*
X0315229Y0052952D01*
X0384000Y0008194D02*
X0236252Y0008194D01*
X0208038Y0009793D02*
X0177107Y0009793D01*
X0190868Y0027376D02*
X0016300Y0027376D01*
X0016300Y0025778D02*
X0206316Y0025778D01*
X0188855Y0028975D02*
X0016300Y0028975D01*
X0016300Y0030573D02*
X0109757Y0030573D01*
X0108158Y0032172D02*
X0016300Y0032172D01*
X0016300Y0033770D02*
X0068560Y0033770D01*
X0066961Y0035369D02*
X0016300Y0035369D01*
X0016300Y0036967D02*
X0065363Y0036967D01*
X0063764Y0038566D02*
X0016300Y0038566D01*
X0016300Y0040164D02*
X0062900Y0040164D01*
X0062900Y0041763D02*
X0016300Y0041763D01*
X0016300Y0043361D02*
X0062900Y0043361D01*
X0062900Y0044960D02*
X0016300Y0044960D01*
X0016300Y0046558D02*
X0062900Y0046558D01*
X0062900Y0048157D02*
X0016300Y0048157D01*
X0016300Y0049755D02*
X0062900Y0049755D01*
X0062900Y0051354D02*
X0016300Y0051354D01*
X0016300Y0052952D02*
X0062900Y0052952D01*
X0061749Y0054551D02*
X0016300Y0054551D01*
X0016300Y0056149D02*
X0061519Y0056149D01*
X0058129Y0057748D02*
X0016300Y0057748D01*
X0016950Y0058500D02*
X0019237Y0058500D01*
X0019695Y0058623D01*
X0020105Y0058860D01*
X0020440Y0059195D01*
X0020677Y0059605D01*
X0020800Y0060063D01*
X0020800Y0064850D01*
X0016950Y0064850D01*
X0016950Y0058500D01*
X0016950Y0059346D02*
X0016300Y0059346D01*
X0016300Y0060945D02*
X0016950Y0060945D01*
X0016950Y0062543D02*
X0016300Y0062543D01*
X0016300Y0064142D02*
X0016950Y0064142D01*
X0016950Y0065740D02*
X0051090Y0065740D01*
X0050900Y0067339D02*
X0020800Y0067339D01*
X0020800Y0065750D02*
X0016950Y0065750D01*
X0016950Y0072100D01*
X0019237Y0072100D01*
X0019695Y0071977D01*
X0020105Y0071740D01*
X0020440Y0071405D01*
X0020677Y0070995D01*
X0020800Y0070537D01*
X0020800Y0065750D01*
X0020800Y0064142D02*
X0052688Y0064142D01*
X0052540Y0062543D02*
X0020800Y0062543D01*
X0020800Y0060945D02*
X0052586Y0060945D01*
X0053531Y0059346D02*
X0020528Y0059346D01*
X0016950Y0067339D02*
X0016300Y0067339D01*
X0016300Y0068937D02*
X0016950Y0068937D01*
X0016950Y0070536D02*
X0016300Y0070536D01*
X0016300Y0072134D02*
X0050900Y0072134D01*
X0050900Y0070536D02*
X0020800Y0070536D01*
X0020800Y0068937D02*
X0050900Y0068937D01*
X0050900Y0073733D02*
X0016300Y0073733D01*
X0016300Y0075332D02*
X0050900Y0075332D01*
X0050882Y0076930D02*
X0016300Y0076930D01*
X0016300Y0078529D02*
X0050749Y0078529D01*
X0050250Y0080127D02*
X0016300Y0080127D01*
X0016300Y0081726D02*
X0049177Y0081726D01*
X0049019Y0083324D02*
X0016300Y0083324D01*
X0071436Y0064700D02*
X0088551Y0064700D01*
X0088844Y0064540D01*
X0089388Y0064700D01*
X0089956Y0064700D01*
X0090192Y0064937D01*
X0090513Y0065031D01*
X0090785Y0065529D01*
X0091186Y0065930D01*
X0091186Y0066265D01*
X0093285Y0070115D01*
X0095019Y0071849D01*
X0095019Y0071789D01*
X0093400Y0070170D01*
X0093400Y0061170D01*
X0092630Y0060400D01*
X0075581Y0060400D01*
X0073971Y0062654D01*
X0073889Y0063065D01*
X0073485Y0063334D01*
X0073203Y0063728D01*
X0072790Y0063797D01*
X0071436Y0064700D01*
X0072273Y0064142D02*
X0093400Y0064142D01*
X0093400Y0065740D02*
X0090996Y0065740D01*
X0091771Y0067339D02*
X0093400Y0067339D01*
X0093400Y0068937D02*
X0092643Y0068937D01*
X0093706Y0070536D02*
X0093766Y0070536D01*
X0093400Y0062543D02*
X0074050Y0062543D01*
X0075191Y0060945D02*
X0093175Y0060945D01*
X0106440Y0033770D02*
X0106560Y0033770D01*
X0117962Y0011391D02*
X0206900Y0011391D01*
X0204370Y0123400D02*
X0203600Y0124170D01*
X0202370Y0125400D01*
X0182870Y0125400D01*
X0181470Y0126800D01*
X0183370Y0128700D01*
X0210630Y0128700D01*
X0215930Y0123400D01*
X0204370Y0123400D01*
X0203600Y0124170D02*
X0203600Y0124170D01*
X0202884Y0124885D02*
X0214445Y0124885D01*
X0212846Y0126484D02*
X0181786Y0126484D01*
X0182752Y0128082D02*
X0211248Y0128082D01*
X0227870Y0152400D02*
X0236870Y0143400D01*
X0262130Y0143400D01*
X0266400Y0147670D01*
X0267630Y0148900D01*
X0286870Y0148900D01*
X0291870Y0143900D01*
X0347630Y0143900D01*
X0351900Y0148170D01*
X0353130Y0149400D01*
X0371870Y0149400D01*
X0375370Y0145900D01*
X0382550Y0145900D01*
X0382800Y0146150D01*
X0384000Y0146150D01*
X0384000Y0199399D01*
X0297084Y0197050D01*
X0298100Y0196034D01*
X0298100Y0190566D01*
X0294234Y0186700D01*
X0288766Y0186700D01*
X0284900Y0190566D01*
X0284900Y0193200D01*
X0274370Y0193200D01*
X0270370Y0189200D01*
X0252899Y0189200D01*
X0252899Y0187488D01*
X0251962Y0186550D01*
X0245518Y0186550D01*
X0245000Y0187069D01*
X0244482Y0186550D01*
X0239480Y0186550D01*
X0235130Y0182200D01*
X0214870Y0182200D01*
X0213600Y0180930D01*
X0212370Y0179700D01*
X0194803Y0179700D01*
X0201400Y0171689D01*
X0201400Y0174705D01*
X0204095Y0177400D01*
X0207905Y0177400D01*
X0210600Y0174705D01*
X0210600Y0170895D01*
X0207905Y0168200D01*
X0204273Y0168200D01*
X0204932Y0167400D01*
X0207905Y0167400D01*
X0209400Y0165905D01*
X0209400Y0169170D01*
X0211400Y0171170D01*
X0211400Y0174705D01*
X0214095Y0177400D01*
X0217905Y0177400D01*
X0220600Y0174705D01*
X0220600Y0170895D01*
X0217905Y0168200D01*
X0214370Y0168200D01*
X0213600Y0167430D01*
X0213600Y0166905D01*
X0214095Y0167400D01*
X0217905Y0167400D01*
X0220600Y0164705D01*
X0220600Y0160895D01*
X0217905Y0158200D01*
X0214095Y0158200D01*
X0213600Y0158695D01*
X0213600Y0156930D01*
X0212370Y0155700D01*
X0210870Y0154200D01*
X0202130Y0154200D01*
X0200900Y0155430D01*
X0196900Y0159430D01*
X0196900Y0167430D01*
X0188630Y0175700D01*
X0169370Y0175700D01*
X0166199Y0172529D01*
X0166808Y0172781D01*
X0168192Y0172781D01*
X0169472Y0172251D01*
X0170451Y0171272D01*
X0170981Y0169992D01*
X0170981Y0169608D01*
X0171049Y0169772D01*
X0172028Y0170751D01*
X0173308Y0171281D01*
X0174692Y0171281D01*
X0175972Y0170751D01*
X0176951Y0169772D01*
X0177481Y0168492D01*
X0177481Y0167108D01*
X0176951Y0165828D01*
X0176855Y0165732D01*
X0178165Y0161585D01*
X0178972Y0161251D01*
X0179951Y0160272D01*
X0180481Y0158992D01*
X0180481Y0157608D01*
X0179951Y0156328D01*
X0179523Y0155900D01*
X0199370Y0155900D01*
X0202870Y0152400D01*
X0227870Y0152400D01*
X0228210Y0152060D02*
X0384000Y0152060D01*
X0384000Y0150462D02*
X0229808Y0150462D01*
X0231407Y0148863D02*
X0267593Y0148863D01*
X0265995Y0147265D02*
X0233005Y0147265D01*
X0234604Y0145666D02*
X0264396Y0145666D01*
X0262798Y0144068D02*
X0236202Y0144068D01*
X0213525Y0156856D02*
X0307272Y0156856D01*
X0308301Y0155827D02*
X0305027Y0159101D01*
X0305027Y0159101D01*
X0302924Y0163227D01*
X0302924Y0163227D01*
X0302200Y0167800D01*
X0302200Y0167800D01*
X0302924Y0172373D01*
X0302924Y0172373D01*
X0305027Y0176499D01*
X0305027Y0176499D01*
X0308301Y0179773D01*
X0308301Y0179773D01*
X0312427Y0181876D01*
X0312427Y0181876D01*
X0317000Y0182600D01*
X0317000Y0182600D01*
X0321573Y0181876D01*
X0321573Y0181876D01*
X0325699Y0179773D01*
X0325699Y0179773D01*
X0328973Y0176499D01*
X0328973Y0176499D01*
X0331076Y0172373D01*
X0331076Y0172373D01*
X0331800Y0167800D01*
X0331076Y0163227D01*
X0331076Y0163227D01*
X0328973Y0159101D01*
X0328973Y0159101D01*
X0325699Y0155827D01*
X0325699Y0155827D01*
X0321573Y0153724D01*
X0321573Y0153724D01*
X0317000Y0153000D01*
X0317000Y0153000D01*
X0312427Y0153724D01*
X0312427Y0153724D01*
X0308301Y0155827D01*
X0308301Y0155827D01*
X0309418Y0155257D02*
X0211927Y0155257D01*
X0213600Y0158454D02*
X0213841Y0158454D01*
X0218159Y0158454D02*
X0223841Y0158454D01*
X0224095Y0158200D02*
X0227905Y0158200D01*
X0230600Y0160895D01*
X0230600Y0164705D01*
X0227905Y0167400D01*
X0224095Y0167400D01*
X0221400Y0164705D01*
X0221400Y0160895D01*
X0224095Y0158200D01*
X0222242Y0160053D02*
X0219758Y0160053D01*
X0220600Y0161651D02*
X0221400Y0161651D01*
X0221400Y0163250D02*
X0220600Y0163250D01*
X0220457Y0164848D02*
X0221543Y0164848D01*
X0223141Y0166447D02*
X0218859Y0166447D01*
X0221400Y0170895D02*
X0224095Y0168200D01*
X0227905Y0168200D01*
X0230600Y0170895D01*
X0230600Y0174705D01*
X0227905Y0177400D01*
X0224095Y0177400D01*
X0221400Y0174705D01*
X0221400Y0170895D01*
X0221400Y0171242D02*
X0220600Y0171242D01*
X0220600Y0172841D02*
X0221400Y0172841D01*
X0221400Y0174439D02*
X0220600Y0174439D01*
X0219268Y0176038D02*
X0222732Y0176038D01*
X0229268Y0176038D02*
X0304791Y0176038D01*
X0303977Y0174439D02*
X0230600Y0174439D01*
X0230600Y0172841D02*
X0303162Y0172841D01*
X0302745Y0171242D02*
X0230600Y0171242D01*
X0229349Y0169644D02*
X0302492Y0169644D01*
X0302239Y0168045D02*
X0214215Y0168045D01*
X0209874Y0169644D02*
X0209349Y0169644D01*
X0209400Y0168045D02*
X0204401Y0168045D01*
X0208859Y0166447D02*
X0209400Y0166447D01*
X0210600Y0171242D02*
X0211400Y0171242D01*
X0211400Y0172841D02*
X0210600Y0172841D01*
X0210600Y0174439D02*
X0211400Y0174439D01*
X0212732Y0176038D02*
X0209268Y0176038D01*
X0202732Y0176038D02*
X0197819Y0176038D01*
X0196502Y0177636D02*
X0306164Y0177636D01*
X0307762Y0179235D02*
X0195186Y0179235D01*
X0199135Y0174439D02*
X0201400Y0174439D01*
X0201400Y0172841D02*
X0200452Y0172841D01*
X0196285Y0168045D02*
X0177481Y0168045D01*
X0177207Y0166447D02*
X0196900Y0166447D01*
X0196900Y0164848D02*
X0177134Y0164848D01*
X0177639Y0163250D02*
X0196900Y0163250D01*
X0196900Y0161651D02*
X0178144Y0161651D01*
X0180042Y0160053D02*
X0196900Y0160053D01*
X0197876Y0158454D02*
X0180481Y0158454D01*
X0180170Y0156856D02*
X0199475Y0156856D01*
X0200013Y0155257D02*
X0201073Y0155257D01*
X0201611Y0153659D02*
X0312842Y0153659D01*
X0321158Y0153659D02*
X0384000Y0153659D01*
X0384000Y0155257D02*
X0324582Y0155257D01*
X0326728Y0156856D02*
X0384000Y0156856D01*
X0384000Y0158454D02*
X0328327Y0158454D01*
X0329458Y0160053D02*
X0384000Y0160053D01*
X0384000Y0161651D02*
X0330273Y0161651D01*
X0331079Y0163250D02*
X0384000Y0163250D01*
X0384000Y0164848D02*
X0331332Y0164848D01*
X0331586Y0166447D02*
X0384000Y0166447D01*
X0384000Y0168045D02*
X0331761Y0168045D01*
X0331508Y0169644D02*
X0384000Y0169644D01*
X0384000Y0171242D02*
X0331255Y0171242D01*
X0330838Y0172841D02*
X0384000Y0172841D01*
X0384000Y0174439D02*
X0330023Y0174439D01*
X0329209Y0176038D02*
X0384000Y0176038D01*
X0384000Y0177636D02*
X0327836Y0177636D01*
X0326238Y0179235D02*
X0384000Y0179235D01*
X0384000Y0180833D02*
X0323619Y0180833D01*
X0318062Y0182432D02*
X0384000Y0182432D01*
X0384000Y0184030D02*
X0236960Y0184030D01*
X0235361Y0182432D02*
X0315938Y0182432D01*
X0310381Y0180833D02*
X0213503Y0180833D01*
X0210630Y0183900D02*
X0211900Y0185170D01*
X0213130Y0186400D01*
X0233390Y0186400D01*
X0237101Y0190111D01*
X0237101Y0195112D01*
X0237426Y0195438D01*
X0211886Y0194747D01*
X0213100Y0193534D01*
X0213100Y0188066D01*
X0209234Y0184200D01*
X0203766Y0184200D01*
X0200439Y0187527D01*
X0199962Y0187050D01*
X0193518Y0187050D01*
X0193000Y0187569D01*
X0192482Y0187050D01*
X0186038Y0187050D01*
X0185101Y0187988D01*
X0185101Y0189700D01*
X0161870Y0189700D01*
X0153380Y0181210D01*
X0153380Y0171713D01*
X0163900Y0182646D01*
X0163900Y0182670D01*
X0164501Y0183271D01*
X0165090Y0183883D01*
X0165113Y0183883D01*
X0165130Y0183900D01*
X0165980Y0183900D01*
X0166829Y0183916D01*
X0166846Y0183900D01*
X0210630Y0183900D01*
X0210760Y0184030D02*
X0156200Y0184030D01*
X0154602Y0182432D02*
X0163694Y0182432D01*
X0162155Y0180833D02*
X0153380Y0180833D01*
X0153380Y0179235D02*
X0160617Y0179235D01*
X0159079Y0177636D02*
X0153380Y0177636D01*
X0153380Y0176038D02*
X0157541Y0176038D01*
X0156003Y0174439D02*
X0153380Y0174439D01*
X0153380Y0172841D02*
X0154464Y0172841D01*
X0166511Y0172841D02*
X0191489Y0172841D01*
X0189891Y0174439D02*
X0168109Y0174439D01*
X0169500Y0174300D02*
X0174000Y0174300D01*
X0179500Y0168800D01*
X0183000Y0168800D01*
X0184000Y0167800D01*
X0184000Y0159398D01*
X0167500Y0164300D02*
X0165000Y0161800D01*
X0165000Y0158800D01*
X0164500Y0158300D01*
X0167500Y0164300D02*
X0167500Y0169300D01*
X0170981Y0169644D02*
X0170996Y0169644D01*
X0170463Y0171242D02*
X0173214Y0171242D01*
X0174786Y0171242D02*
X0193088Y0171242D01*
X0194686Y0169644D02*
X0177004Y0169644D01*
X0157799Y0185629D02*
X0202337Y0185629D01*
X0200739Y0187227D02*
X0200139Y0187227D01*
X0193341Y0187227D02*
X0192659Y0187227D01*
X0185861Y0187227D02*
X0159397Y0187227D01*
X0160996Y0188826D02*
X0185101Y0188826D01*
X0210663Y0185629D02*
X0212359Y0185629D01*
X0212261Y0187227D02*
X0234217Y0187227D01*
X0235816Y0188826D02*
X0213100Y0188826D01*
X0213100Y0190424D02*
X0237101Y0190424D01*
X0237101Y0192023D02*
X0213100Y0192023D01*
X0213012Y0193621D02*
X0237101Y0193621D01*
X0237208Y0195220D02*
X0229367Y0195220D01*
X0238558Y0185629D02*
X0384000Y0185629D01*
X0384000Y0187227D02*
X0294761Y0187227D01*
X0296360Y0188826D02*
X0384000Y0188826D01*
X0384000Y0190424D02*
X0297958Y0190424D01*
X0298100Y0192023D02*
X0384000Y0192023D01*
X0384000Y0193621D02*
X0298100Y0193621D01*
X0298100Y0195220D02*
X0384000Y0195220D01*
X0384000Y0196818D02*
X0297315Y0196818D01*
X0284900Y0192023D02*
X0273193Y0192023D01*
X0271594Y0190424D02*
X0285042Y0190424D01*
X0286640Y0188826D02*
X0252899Y0188826D01*
X0252639Y0187227D02*
X0288239Y0187227D01*
X0302414Y0166447D02*
X0228859Y0166447D01*
X0230457Y0164848D02*
X0302668Y0164848D01*
X0302921Y0163250D02*
X0230600Y0163250D01*
X0230600Y0161651D02*
X0303727Y0161651D01*
X0304542Y0160053D02*
X0229758Y0160053D01*
X0228159Y0158454D02*
X0305673Y0158454D01*
X0286907Y0148863D02*
X0352593Y0148863D01*
X0350995Y0147265D02*
X0288505Y0147265D01*
X0290104Y0145666D02*
X0349396Y0145666D01*
X0347798Y0144068D02*
X0291702Y0144068D01*
X0279130Y0128700D02*
X0275370Y0128700D01*
X0272570Y0125900D01*
X0281930Y0125900D01*
X0279130Y0128700D01*
X0279748Y0128082D02*
X0274752Y0128082D01*
X0273154Y0126484D02*
X0281346Y0126484D01*
X0357070Y0125900D02*
X0361370Y0130200D01*
X0363630Y0130200D01*
X0367930Y0125900D01*
X0357070Y0125900D01*
X0357654Y0126484D02*
X0367346Y0126484D01*
X0365748Y0128082D02*
X0359252Y0128082D01*
X0360851Y0129681D02*
X0364149Y0129681D01*
X0374005Y0147265D02*
X0384000Y0147265D01*
X0384000Y0148863D02*
X0372407Y0148863D01*
X0384000Y0198417D02*
X0347657Y0198417D01*
X0384000Y0201800D02*
X0014000Y0191800D01*
X0219349Y0169644D02*
X0222651Y0169644D01*
D23*
X0247000Y0157800D03*
X0277500Y0161398D03*
X0277500Y0190898D03*
X0362500Y0193898D03*
X0362500Y0163398D03*
X0362500Y0128898D03*
X0327500Y0081300D03*
X0310000Y0076800D03*
X0304000Y0076800D03*
X0288000Y0078800D03*
X0260000Y0080800D03*
X0277500Y0061398D03*
X0296000Y0056300D03*
X0302500Y0056800D03*
X0303500Y0050300D03*
X0317500Y0050300D03*
X0318000Y0057800D03*
X0362500Y0061398D03*
X0362500Y0023898D03*
X0277500Y0025800D03*
X0229500Y0051800D03*
X0220500Y0062800D03*
X0216000Y0065800D03*
X0208000Y0061800D03*
X0195500Y0072300D03*
X0185000Y0073800D03*
X0192500Y0049800D03*
X0200000Y0048300D03*
X0203500Y0042300D03*
X0184000Y0026398D03*
X0133240Y0046300D03*
X0119500Y0058800D03*
X0116500Y0063800D03*
X0111280Y0064800D03*
X0107000Y0068800D03*
X0099500Y0066800D03*
X0098500Y0072300D03*
X0100000Y0079800D03*
X0111000Y0090800D03*
X0113500Y0107800D03*
X0101000Y0113800D03*
X0142000Y0130800D03*
X0145500Y0135800D03*
X0149500Y0130800D03*
X0137500Y0142800D03*
X0157000Y0143800D03*
X0165000Y0152800D03*
X0164500Y0158300D03*
X0169500Y0160300D03*
X0177000Y0158300D03*
X0184000Y0159398D03*
X0174000Y0167800D03*
X0167500Y0169300D03*
X0169500Y0174300D03*
X0156000Y0165300D03*
X0142000Y0177300D03*
X0102000Y0183300D03*
X0114500Y0136800D03*
X0173500Y0133800D03*
X0184000Y0127398D03*
X0173500Y0121800D03*
X0277500Y0127898D03*
X0184000Y0187898D03*
X0064000Y0083300D03*
X0052500Y0082800D03*
X0056000Y0061800D03*
X0061000Y0059800D03*
X0065000Y0055800D03*
X0053500Y0056800D03*
X0091500Y0062398D03*
X0103000Y0061800D03*
X0091500Y0027898D03*
X0123000Y0028300D03*
M02*
