G75*
%MOIN*%
%OFA0B0*%
%FSLAX25Y25*%
%IPPOS*%
%LPD*%
%AMOC8*
5,1,8,0,0,1.08239X$1,22.5*
%
%ADD10C,0.00000*%
%ADD11R,0.05718X0.06506*%
%ADD12R,0.06506X0.05718*%
%ADD13OC8,0.06600*%
%ADD14C,0.06600*%
%ADD15R,0.05718X0.06899*%
%ADD16R,0.07293X0.10049*%
%ADD17C,0.04756*%
D10*
X0001500Y0001500D02*
X0001500Y0296461D01*
X0305201Y0296461D01*
X0305201Y0001500D01*
X0001500Y0001500D01*
D11*
X0141217Y0134114D03*
X0148697Y0134114D03*
X0164283Y0134193D03*
X0171764Y0134193D03*
X0189760Y0139000D03*
X0197240Y0139000D03*
X0174740Y0155000D03*
X0167260Y0155000D03*
X0199760Y0171500D03*
X0207240Y0171500D03*
X0207260Y0183000D03*
X0214740Y0183000D03*
D12*
X0199500Y0161240D03*
X0199500Y0153760D03*
X0177500Y0123240D03*
X0177500Y0115760D03*
X0166500Y0115760D03*
X0166500Y0123240D03*
X0155500Y0123240D03*
X0155500Y0115760D03*
X0144500Y0115760D03*
X0144500Y0123240D03*
X0133500Y0123240D03*
X0133500Y0115760D03*
X0133500Y0102240D03*
X0133500Y0094760D03*
X0144500Y0094760D03*
X0144500Y0102240D03*
X0155500Y0102240D03*
X0155500Y0094760D03*
X0166500Y0094760D03*
X0166500Y0102240D03*
X0177500Y0102240D03*
X0177500Y0094760D03*
X0157000Y0143760D03*
X0157000Y0151240D03*
X0157000Y0163760D03*
X0157000Y0171240D03*
X0142000Y0171240D03*
X0142000Y0163760D03*
X0142000Y0151240D03*
X0142000Y0143760D03*
D13*
X0118500Y0115500D03*
X0118500Y0105500D03*
X0108500Y0105500D03*
X0108500Y0115500D03*
X0098500Y0115500D03*
X0098500Y0105500D03*
D14*
X0020000Y0108500D02*
X0014000Y0108500D01*
X0014000Y0098500D02*
X0020000Y0098500D01*
X0020000Y0088500D02*
X0014000Y0088500D01*
X0014000Y0078500D02*
X0020000Y0078500D01*
X0020000Y0068500D02*
X0014000Y0068500D01*
X0014000Y0058500D02*
X0020000Y0058500D01*
X0020000Y0048500D02*
X0014000Y0048500D01*
X0014000Y0038500D02*
X0020000Y0038500D01*
X0020000Y0028500D02*
X0014000Y0028500D01*
X0032000Y0017500D02*
X0032000Y0011500D01*
X0042000Y0011500D02*
X0042000Y0017500D01*
X0052000Y0017500D02*
X0052000Y0011500D01*
X0062000Y0011500D02*
X0062000Y0017500D01*
X0072000Y0017500D02*
X0072000Y0011500D01*
X0082000Y0011500D02*
X0082000Y0017500D01*
X0092000Y0017500D02*
X0092000Y0011500D01*
X0102000Y0011500D02*
X0102000Y0017500D01*
X0112000Y0017500D02*
X0112000Y0011500D01*
X0122000Y0011500D02*
X0122000Y0017500D01*
X0132000Y0017500D02*
X0132000Y0011500D01*
X0142000Y0011500D02*
X0142000Y0017500D01*
X0152000Y0017500D02*
X0152000Y0011500D01*
X0162000Y0011500D02*
X0162000Y0017500D01*
X0172000Y0017500D02*
X0172000Y0011500D01*
X0182000Y0011500D02*
X0182000Y0017500D01*
X0192000Y0017500D02*
X0192000Y0011500D01*
X0202000Y0011500D02*
X0202000Y0017500D01*
X0212000Y0017500D02*
X0212000Y0011500D01*
X0222000Y0011500D02*
X0222000Y0017500D01*
X0232000Y0017500D02*
X0232000Y0011500D01*
X0242000Y0011500D02*
X0242000Y0017500D01*
X0252000Y0017500D02*
X0252000Y0011500D01*
X0262000Y0011500D02*
X0262000Y0017500D01*
X0272000Y0017500D02*
X0272000Y0011500D01*
X0284000Y0027500D02*
X0290000Y0027500D01*
X0290000Y0037500D02*
X0284000Y0037500D01*
X0284000Y0047500D02*
X0290000Y0047500D01*
X0290000Y0057500D02*
X0284000Y0057500D01*
X0284000Y0067500D02*
X0290000Y0067500D01*
X0290000Y0077500D02*
X0284000Y0077500D01*
X0284000Y0087500D02*
X0290000Y0087500D01*
X0290000Y0097500D02*
X0284000Y0097500D01*
X0284000Y0107500D02*
X0290000Y0107500D01*
X0290000Y0117500D02*
X0284000Y0117500D01*
X0284000Y0127500D02*
X0290000Y0127500D01*
X0290000Y0137500D02*
X0284000Y0137500D01*
X0284000Y0147500D02*
X0290000Y0147500D01*
X0290000Y0157500D02*
X0284000Y0157500D01*
X0284000Y0167500D02*
X0290000Y0167500D01*
X0290000Y0177500D02*
X0284000Y0177500D01*
X0284000Y0187500D02*
X0290000Y0187500D01*
X0290000Y0197500D02*
X0284000Y0197500D01*
X0284000Y0207500D02*
X0290000Y0207500D01*
X0290000Y0217500D02*
X0284000Y0217500D01*
X0284000Y0227500D02*
X0290000Y0227500D01*
X0290000Y0237500D02*
X0284000Y0237500D01*
X0284000Y0247500D02*
X0290000Y0247500D01*
X0290000Y0257500D02*
X0284000Y0257500D01*
X0284000Y0267500D02*
X0290000Y0267500D01*
X0271000Y0276500D02*
X0271000Y0282500D01*
X0261000Y0282500D02*
X0261000Y0276500D01*
X0251000Y0276500D02*
X0251000Y0282500D01*
X0241000Y0282500D02*
X0241000Y0276500D01*
X0231000Y0276500D02*
X0231000Y0282500D01*
X0221000Y0282500D02*
X0221000Y0276500D01*
X0211000Y0276500D02*
X0211000Y0282500D01*
X0201000Y0282500D02*
X0201000Y0276500D01*
X0191000Y0276500D02*
X0191000Y0282500D01*
X0181000Y0282500D02*
X0181000Y0276500D01*
X0171000Y0276500D02*
X0171000Y0282500D01*
X0161000Y0282500D02*
X0161000Y0276500D01*
X0151000Y0276500D02*
X0151000Y0282500D01*
X0141000Y0282500D02*
X0141000Y0276500D01*
X0131000Y0276500D02*
X0131000Y0282500D01*
X0121000Y0282500D02*
X0121000Y0276500D01*
X0111000Y0276500D02*
X0111000Y0282500D01*
X0101000Y0282500D02*
X0101000Y0276500D01*
X0091000Y0276500D02*
X0091000Y0282500D01*
X0081000Y0282500D02*
X0081000Y0276500D01*
X0071000Y0276500D02*
X0071000Y0282500D01*
X0061000Y0282500D02*
X0061000Y0276500D01*
X0051000Y0276500D02*
X0051000Y0282500D01*
X0041000Y0282500D02*
X0041000Y0276500D01*
X0031000Y0276500D02*
X0031000Y0282500D01*
X0020000Y0268500D02*
X0014000Y0268500D01*
X0014000Y0258500D02*
X0020000Y0258500D01*
X0020000Y0248500D02*
X0014000Y0248500D01*
X0014000Y0238500D02*
X0020000Y0238500D01*
X0020000Y0228500D02*
X0014000Y0228500D01*
X0014000Y0218500D02*
X0020000Y0218500D01*
X0020000Y0208500D02*
X0014000Y0208500D01*
X0014000Y0198500D02*
X0020000Y0198500D01*
X0020000Y0188500D02*
X0014000Y0188500D01*
X0014000Y0178500D02*
X0020000Y0178500D01*
X0020000Y0168500D02*
X0014000Y0168500D01*
X0014000Y0158500D02*
X0020000Y0158500D01*
X0020000Y0148500D02*
X0014000Y0148500D01*
X0014000Y0138500D02*
X0020000Y0138500D01*
X0020000Y0128500D02*
X0014000Y0128500D01*
X0014000Y0118500D02*
X0020000Y0118500D01*
D15*
X0092760Y0143500D03*
X0100240Y0143500D03*
X0100240Y0156500D03*
X0092760Y0156500D03*
X0210760Y0144500D03*
X0218240Y0144500D03*
D16*
X0224783Y0157500D03*
X0210217Y0157500D03*
D17*
X0175500Y0148500D03*
X0170500Y0143500D03*
X0155500Y0134500D03*
X0149500Y0152500D03*
X0133500Y0151500D03*
X0133500Y0143500D03*
X0118500Y0124500D03*
X0081724Y0116080D03*
X0133500Y0171500D03*
X0149500Y0176500D03*
X0165500Y0162500D03*
X0121000Y0189000D03*
X0100500Y0180500D03*
X0081967Y0180604D03*
X0109912Y0051976D03*
X0146000Y0026000D03*
X0198769Y0047183D03*
M02*
