G75*
%MOIN*%
%OFA0B0*%
%FSLAX25Y25*%
%IPPOS*%
%LPD*%
%AMOC8*
5,1,8,0,0,1.08239X$1,22.5*
%
%ADD10C,0.00000*%
%ADD11C,0.01600*%
%ADD12R,0.07098X0.06299*%
%ADD13R,0.04600X0.06300*%
%ADD14R,0.01181X0.05709*%
%ADD15R,0.01969X0.01575*%
%ADD16R,0.01969X0.01181*%
%ADD17OC8,0.10000*%
%ADD18C,0.01000*%
%ADD19C,0.03762*%
%ADD20C,0.02400*%
D10*
X0001000Y0001000D02*
X0001500Y0249501D01*
X0394621Y0249501D01*
X0394121Y0001000D01*
X0001000Y0001000D01*
X0112488Y0153500D02*
X0112490Y0153648D01*
X0112496Y0153796D01*
X0112506Y0153944D01*
X0112520Y0154091D01*
X0112538Y0154238D01*
X0112559Y0154384D01*
X0112585Y0154530D01*
X0112615Y0154675D01*
X0112648Y0154819D01*
X0112686Y0154962D01*
X0112727Y0155104D01*
X0112772Y0155245D01*
X0112820Y0155385D01*
X0112873Y0155524D01*
X0112929Y0155661D01*
X0112989Y0155796D01*
X0113052Y0155930D01*
X0113119Y0156062D01*
X0113190Y0156192D01*
X0113264Y0156320D01*
X0113341Y0156446D01*
X0113422Y0156570D01*
X0113506Y0156692D01*
X0113593Y0156811D01*
X0113684Y0156928D01*
X0113778Y0157043D01*
X0113874Y0157155D01*
X0113974Y0157265D01*
X0114076Y0157371D01*
X0114182Y0157475D01*
X0114290Y0157576D01*
X0114401Y0157674D01*
X0114514Y0157770D01*
X0114630Y0157862D01*
X0114748Y0157951D01*
X0114869Y0158036D01*
X0114992Y0158119D01*
X0115117Y0158198D01*
X0115244Y0158274D01*
X0115373Y0158346D01*
X0115504Y0158415D01*
X0115637Y0158480D01*
X0115772Y0158541D01*
X0115908Y0158599D01*
X0116045Y0158654D01*
X0116184Y0158704D01*
X0116325Y0158751D01*
X0116466Y0158794D01*
X0116609Y0158834D01*
X0116753Y0158869D01*
X0116897Y0158901D01*
X0117043Y0158928D01*
X0117189Y0158952D01*
X0117336Y0158972D01*
X0117483Y0158988D01*
X0117630Y0159000D01*
X0117778Y0159008D01*
X0117926Y0159012D01*
X0118074Y0159012D01*
X0118222Y0159008D01*
X0118370Y0159000D01*
X0118517Y0158988D01*
X0118664Y0158972D01*
X0118811Y0158952D01*
X0118957Y0158928D01*
X0119103Y0158901D01*
X0119247Y0158869D01*
X0119391Y0158834D01*
X0119534Y0158794D01*
X0119675Y0158751D01*
X0119816Y0158704D01*
X0119955Y0158654D01*
X0120092Y0158599D01*
X0120228Y0158541D01*
X0120363Y0158480D01*
X0120496Y0158415D01*
X0120627Y0158346D01*
X0120756Y0158274D01*
X0120883Y0158198D01*
X0121008Y0158119D01*
X0121131Y0158036D01*
X0121252Y0157951D01*
X0121370Y0157862D01*
X0121486Y0157770D01*
X0121599Y0157674D01*
X0121710Y0157576D01*
X0121818Y0157475D01*
X0121924Y0157371D01*
X0122026Y0157265D01*
X0122126Y0157155D01*
X0122222Y0157043D01*
X0122316Y0156928D01*
X0122407Y0156811D01*
X0122494Y0156692D01*
X0122578Y0156570D01*
X0122659Y0156446D01*
X0122736Y0156320D01*
X0122810Y0156192D01*
X0122881Y0156062D01*
X0122948Y0155930D01*
X0123011Y0155796D01*
X0123071Y0155661D01*
X0123127Y0155524D01*
X0123180Y0155385D01*
X0123228Y0155245D01*
X0123273Y0155104D01*
X0123314Y0154962D01*
X0123352Y0154819D01*
X0123385Y0154675D01*
X0123415Y0154530D01*
X0123441Y0154384D01*
X0123462Y0154238D01*
X0123480Y0154091D01*
X0123494Y0153944D01*
X0123504Y0153796D01*
X0123510Y0153648D01*
X0123512Y0153500D01*
X0123510Y0153352D01*
X0123504Y0153204D01*
X0123494Y0153056D01*
X0123480Y0152909D01*
X0123462Y0152762D01*
X0123441Y0152616D01*
X0123415Y0152470D01*
X0123385Y0152325D01*
X0123352Y0152181D01*
X0123314Y0152038D01*
X0123273Y0151896D01*
X0123228Y0151755D01*
X0123180Y0151615D01*
X0123127Y0151476D01*
X0123071Y0151339D01*
X0123011Y0151204D01*
X0122948Y0151070D01*
X0122881Y0150938D01*
X0122810Y0150808D01*
X0122736Y0150680D01*
X0122659Y0150554D01*
X0122578Y0150430D01*
X0122494Y0150308D01*
X0122407Y0150189D01*
X0122316Y0150072D01*
X0122222Y0149957D01*
X0122126Y0149845D01*
X0122026Y0149735D01*
X0121924Y0149629D01*
X0121818Y0149525D01*
X0121710Y0149424D01*
X0121599Y0149326D01*
X0121486Y0149230D01*
X0121370Y0149138D01*
X0121252Y0149049D01*
X0121131Y0148964D01*
X0121008Y0148881D01*
X0120883Y0148802D01*
X0120756Y0148726D01*
X0120627Y0148654D01*
X0120496Y0148585D01*
X0120363Y0148520D01*
X0120228Y0148459D01*
X0120092Y0148401D01*
X0119955Y0148346D01*
X0119816Y0148296D01*
X0119675Y0148249D01*
X0119534Y0148206D01*
X0119391Y0148166D01*
X0119247Y0148131D01*
X0119103Y0148099D01*
X0118957Y0148072D01*
X0118811Y0148048D01*
X0118664Y0148028D01*
X0118517Y0148012D01*
X0118370Y0148000D01*
X0118222Y0147992D01*
X0118074Y0147988D01*
X0117926Y0147988D01*
X0117778Y0147992D01*
X0117630Y0148000D01*
X0117483Y0148012D01*
X0117336Y0148028D01*
X0117189Y0148048D01*
X0117043Y0148072D01*
X0116897Y0148099D01*
X0116753Y0148131D01*
X0116609Y0148166D01*
X0116466Y0148206D01*
X0116325Y0148249D01*
X0116184Y0148296D01*
X0116045Y0148346D01*
X0115908Y0148401D01*
X0115772Y0148459D01*
X0115637Y0148520D01*
X0115504Y0148585D01*
X0115373Y0148654D01*
X0115244Y0148726D01*
X0115117Y0148802D01*
X0114992Y0148881D01*
X0114869Y0148964D01*
X0114748Y0149049D01*
X0114630Y0149138D01*
X0114514Y0149230D01*
X0114401Y0149326D01*
X0114290Y0149424D01*
X0114182Y0149525D01*
X0114076Y0149629D01*
X0113974Y0149735D01*
X0113874Y0149845D01*
X0113778Y0149957D01*
X0113684Y0150072D01*
X0113593Y0150189D01*
X0113506Y0150308D01*
X0113422Y0150430D01*
X0113341Y0150554D01*
X0113264Y0150680D01*
X0113190Y0150808D01*
X0113119Y0150938D01*
X0113052Y0151070D01*
X0112989Y0151204D01*
X0112929Y0151339D01*
X0112873Y0151476D01*
X0112820Y0151615D01*
X0112772Y0151755D01*
X0112727Y0151896D01*
X0112686Y0152038D01*
X0112648Y0152181D01*
X0112615Y0152325D01*
X0112585Y0152470D01*
X0112559Y0152616D01*
X0112538Y0152762D01*
X0112520Y0152909D01*
X0112506Y0153056D01*
X0112496Y0153204D01*
X0112490Y0153352D01*
X0112488Y0153500D01*
X0265988Y0150500D02*
X0265990Y0150648D01*
X0265996Y0150796D01*
X0266006Y0150944D01*
X0266020Y0151091D01*
X0266038Y0151238D01*
X0266059Y0151384D01*
X0266085Y0151530D01*
X0266115Y0151675D01*
X0266148Y0151819D01*
X0266186Y0151962D01*
X0266227Y0152104D01*
X0266272Y0152245D01*
X0266320Y0152385D01*
X0266373Y0152524D01*
X0266429Y0152661D01*
X0266489Y0152796D01*
X0266552Y0152930D01*
X0266619Y0153062D01*
X0266690Y0153192D01*
X0266764Y0153320D01*
X0266841Y0153446D01*
X0266922Y0153570D01*
X0267006Y0153692D01*
X0267093Y0153811D01*
X0267184Y0153928D01*
X0267278Y0154043D01*
X0267374Y0154155D01*
X0267474Y0154265D01*
X0267576Y0154371D01*
X0267682Y0154475D01*
X0267790Y0154576D01*
X0267901Y0154674D01*
X0268014Y0154770D01*
X0268130Y0154862D01*
X0268248Y0154951D01*
X0268369Y0155036D01*
X0268492Y0155119D01*
X0268617Y0155198D01*
X0268744Y0155274D01*
X0268873Y0155346D01*
X0269004Y0155415D01*
X0269137Y0155480D01*
X0269272Y0155541D01*
X0269408Y0155599D01*
X0269545Y0155654D01*
X0269684Y0155704D01*
X0269825Y0155751D01*
X0269966Y0155794D01*
X0270109Y0155834D01*
X0270253Y0155869D01*
X0270397Y0155901D01*
X0270543Y0155928D01*
X0270689Y0155952D01*
X0270836Y0155972D01*
X0270983Y0155988D01*
X0271130Y0156000D01*
X0271278Y0156008D01*
X0271426Y0156012D01*
X0271574Y0156012D01*
X0271722Y0156008D01*
X0271870Y0156000D01*
X0272017Y0155988D01*
X0272164Y0155972D01*
X0272311Y0155952D01*
X0272457Y0155928D01*
X0272603Y0155901D01*
X0272747Y0155869D01*
X0272891Y0155834D01*
X0273034Y0155794D01*
X0273175Y0155751D01*
X0273316Y0155704D01*
X0273455Y0155654D01*
X0273592Y0155599D01*
X0273728Y0155541D01*
X0273863Y0155480D01*
X0273996Y0155415D01*
X0274127Y0155346D01*
X0274256Y0155274D01*
X0274383Y0155198D01*
X0274508Y0155119D01*
X0274631Y0155036D01*
X0274752Y0154951D01*
X0274870Y0154862D01*
X0274986Y0154770D01*
X0275099Y0154674D01*
X0275210Y0154576D01*
X0275318Y0154475D01*
X0275424Y0154371D01*
X0275526Y0154265D01*
X0275626Y0154155D01*
X0275722Y0154043D01*
X0275816Y0153928D01*
X0275907Y0153811D01*
X0275994Y0153692D01*
X0276078Y0153570D01*
X0276159Y0153446D01*
X0276236Y0153320D01*
X0276310Y0153192D01*
X0276381Y0153062D01*
X0276448Y0152930D01*
X0276511Y0152796D01*
X0276571Y0152661D01*
X0276627Y0152524D01*
X0276680Y0152385D01*
X0276728Y0152245D01*
X0276773Y0152104D01*
X0276814Y0151962D01*
X0276852Y0151819D01*
X0276885Y0151675D01*
X0276915Y0151530D01*
X0276941Y0151384D01*
X0276962Y0151238D01*
X0276980Y0151091D01*
X0276994Y0150944D01*
X0277004Y0150796D01*
X0277010Y0150648D01*
X0277012Y0150500D01*
X0277010Y0150352D01*
X0277004Y0150204D01*
X0276994Y0150056D01*
X0276980Y0149909D01*
X0276962Y0149762D01*
X0276941Y0149616D01*
X0276915Y0149470D01*
X0276885Y0149325D01*
X0276852Y0149181D01*
X0276814Y0149038D01*
X0276773Y0148896D01*
X0276728Y0148755D01*
X0276680Y0148615D01*
X0276627Y0148476D01*
X0276571Y0148339D01*
X0276511Y0148204D01*
X0276448Y0148070D01*
X0276381Y0147938D01*
X0276310Y0147808D01*
X0276236Y0147680D01*
X0276159Y0147554D01*
X0276078Y0147430D01*
X0275994Y0147308D01*
X0275907Y0147189D01*
X0275816Y0147072D01*
X0275722Y0146957D01*
X0275626Y0146845D01*
X0275526Y0146735D01*
X0275424Y0146629D01*
X0275318Y0146525D01*
X0275210Y0146424D01*
X0275099Y0146326D01*
X0274986Y0146230D01*
X0274870Y0146138D01*
X0274752Y0146049D01*
X0274631Y0145964D01*
X0274508Y0145881D01*
X0274383Y0145802D01*
X0274256Y0145726D01*
X0274127Y0145654D01*
X0273996Y0145585D01*
X0273863Y0145520D01*
X0273728Y0145459D01*
X0273592Y0145401D01*
X0273455Y0145346D01*
X0273316Y0145296D01*
X0273175Y0145249D01*
X0273034Y0145206D01*
X0272891Y0145166D01*
X0272747Y0145131D01*
X0272603Y0145099D01*
X0272457Y0145072D01*
X0272311Y0145048D01*
X0272164Y0145028D01*
X0272017Y0145012D01*
X0271870Y0145000D01*
X0271722Y0144992D01*
X0271574Y0144988D01*
X0271426Y0144988D01*
X0271278Y0144992D01*
X0271130Y0145000D01*
X0270983Y0145012D01*
X0270836Y0145028D01*
X0270689Y0145048D01*
X0270543Y0145072D01*
X0270397Y0145099D01*
X0270253Y0145131D01*
X0270109Y0145166D01*
X0269966Y0145206D01*
X0269825Y0145249D01*
X0269684Y0145296D01*
X0269545Y0145346D01*
X0269408Y0145401D01*
X0269272Y0145459D01*
X0269137Y0145520D01*
X0269004Y0145585D01*
X0268873Y0145654D01*
X0268744Y0145726D01*
X0268617Y0145802D01*
X0268492Y0145881D01*
X0268369Y0145964D01*
X0268248Y0146049D01*
X0268130Y0146138D01*
X0268014Y0146230D01*
X0267901Y0146326D01*
X0267790Y0146424D01*
X0267682Y0146525D01*
X0267576Y0146629D01*
X0267474Y0146735D01*
X0267374Y0146845D01*
X0267278Y0146957D01*
X0267184Y0147072D01*
X0267093Y0147189D01*
X0267006Y0147308D01*
X0266922Y0147430D01*
X0266841Y0147554D01*
X0266764Y0147680D01*
X0266690Y0147808D01*
X0266619Y0147938D01*
X0266552Y0148070D01*
X0266489Y0148204D01*
X0266429Y0148339D01*
X0266373Y0148476D01*
X0266320Y0148615D01*
X0266272Y0148755D01*
X0266227Y0148896D01*
X0266186Y0149038D01*
X0266148Y0149181D01*
X0266115Y0149325D01*
X0266085Y0149470D01*
X0266059Y0149616D01*
X0266038Y0149762D01*
X0266020Y0149909D01*
X0266006Y0150056D01*
X0265996Y0150204D01*
X0265990Y0150352D01*
X0265988Y0150500D01*
D11*
X0372200Y0215800D02*
X0016000Y0211200D01*
X0016000Y0215800D01*
X0372200Y0215800D01*
X0372250Y0215800D01*
X0372250Y0012000D01*
X0016000Y0011800D01*
X0016000Y0016500D01*
X0372300Y0012000D01*
X0016000Y0016500D02*
X0016000Y0030500D01*
X0016000Y0062000D01*
X0016000Y0211200D01*
D12*
X0081000Y0193598D03*
X0081000Y0182402D03*
X0081000Y0164598D03*
X0081000Y0153402D03*
X0081000Y0135598D03*
X0081000Y0124402D03*
X0081000Y0100598D03*
X0081000Y0089402D03*
X0081000Y0068098D03*
X0081000Y0056902D03*
X0081000Y0036098D03*
X0081000Y0024902D03*
X0162000Y0024902D03*
X0162000Y0036098D03*
X0162000Y0055902D03*
X0162000Y0067098D03*
X0162000Y0089402D03*
X0162000Y0100598D03*
X0162000Y0123902D03*
X0162000Y0135098D03*
X0162000Y0153402D03*
X0162000Y0164598D03*
X0162000Y0182402D03*
X0162000Y0193598D03*
X0236000Y0193598D03*
X0236000Y0182402D03*
X0236000Y0165098D03*
X0236000Y0153902D03*
X0236000Y0135098D03*
X0236000Y0123902D03*
X0236000Y0100098D03*
X0236000Y0088902D03*
X0236000Y0067098D03*
X0236000Y0055902D03*
X0236000Y0036098D03*
X0236000Y0024902D03*
X0309500Y0024902D03*
X0309500Y0036098D03*
X0309500Y0055402D03*
X0309500Y0066598D03*
X0309500Y0088402D03*
X0309500Y0099598D03*
X0309500Y0124402D03*
X0309500Y0135598D03*
X0309500Y0153902D03*
X0309500Y0165098D03*
X0309500Y0182902D03*
X0309500Y0194098D03*
X0362500Y0194598D03*
X0362500Y0183402D03*
X0362500Y0165098D03*
X0362500Y0153902D03*
X0362500Y0134598D03*
X0362500Y0123402D03*
X0362500Y0099598D03*
X0362500Y0088402D03*
X0362500Y0066598D03*
X0362500Y0055402D03*
X0362500Y0036098D03*
X0362500Y0024902D03*
D13*
X0369000Y0078000D03*
X0375000Y0078000D03*
X0023500Y0078000D03*
X0017500Y0078000D03*
D14*
X0037543Y0070114D03*
X0040102Y0070114D03*
X0042661Y0070114D03*
X0045220Y0070114D03*
X0047780Y0070114D03*
X0050339Y0070114D03*
X0052898Y0070114D03*
X0055457Y0070114D03*
X0055457Y0046886D03*
X0052898Y0046886D03*
X0050339Y0046886D03*
X0047780Y0046886D03*
X0045220Y0046886D03*
X0042661Y0046886D03*
X0040102Y0046886D03*
X0037543Y0046886D03*
X0107043Y0046886D03*
X0109602Y0046886D03*
X0112161Y0046886D03*
X0114720Y0046886D03*
X0117280Y0046886D03*
X0119839Y0046886D03*
X0122398Y0046886D03*
X0124957Y0046886D03*
X0124957Y0070114D03*
X0122398Y0070114D03*
X0119839Y0070114D03*
X0117280Y0070114D03*
X0114720Y0070114D03*
X0112161Y0070114D03*
X0109602Y0070114D03*
X0107043Y0070114D03*
X0188043Y0070114D03*
X0190602Y0070114D03*
X0193161Y0070114D03*
X0195720Y0070114D03*
X0198280Y0070114D03*
X0200839Y0070114D03*
X0203398Y0070114D03*
X0205957Y0070114D03*
X0205957Y0046886D03*
X0203398Y0046886D03*
X0200839Y0046886D03*
X0198280Y0046886D03*
X0195720Y0046886D03*
X0193161Y0046886D03*
X0190602Y0046886D03*
X0188043Y0046886D03*
X0261543Y0046886D03*
X0264102Y0046886D03*
X0266661Y0046886D03*
X0269220Y0046886D03*
X0271780Y0046886D03*
X0274339Y0046886D03*
X0276898Y0046886D03*
X0279457Y0046886D03*
X0279457Y0070114D03*
X0276898Y0070114D03*
X0274339Y0070114D03*
X0271780Y0070114D03*
X0269220Y0070114D03*
X0266661Y0070114D03*
X0264102Y0070114D03*
X0261543Y0070114D03*
X0323543Y0070114D03*
X0326102Y0070114D03*
X0328661Y0070114D03*
X0331220Y0070114D03*
X0333780Y0070114D03*
X0336339Y0070114D03*
X0338898Y0070114D03*
X0341457Y0070114D03*
X0341457Y0046886D03*
X0338898Y0046886D03*
X0336339Y0046886D03*
X0333780Y0046886D03*
X0331220Y0046886D03*
X0328661Y0046886D03*
X0326102Y0046886D03*
X0323543Y0046886D03*
D15*
X0341031Y0040256D03*
X0344969Y0040256D03*
X0344969Y0034350D03*
X0344969Y0030756D03*
X0341031Y0030756D03*
X0341031Y0034350D03*
X0341031Y0024850D03*
X0344969Y0024850D03*
X0287969Y0024850D03*
X0284031Y0024850D03*
X0284031Y0030756D03*
X0284031Y0034350D03*
X0287969Y0034350D03*
X0287969Y0030756D03*
X0287969Y0040256D03*
X0284031Y0040256D03*
X0218469Y0040256D03*
X0214531Y0040256D03*
X0214531Y0034350D03*
X0214531Y0030756D03*
X0218469Y0030756D03*
X0218469Y0034350D03*
X0218469Y0024850D03*
X0214531Y0024850D03*
X0144469Y0024850D03*
X0140531Y0024850D03*
X0140531Y0030756D03*
X0140531Y0034350D03*
X0144469Y0034350D03*
X0144469Y0030756D03*
X0144469Y0040256D03*
X0140531Y0040256D03*
X0059969Y0040256D03*
X0056031Y0040256D03*
X0056031Y0034350D03*
X0056031Y0030756D03*
X0059969Y0030756D03*
X0059969Y0034350D03*
X0059969Y0024850D03*
X0056031Y0024850D03*
D16*
X0056031Y0026819D03*
X0056031Y0028787D03*
X0059969Y0028787D03*
X0059969Y0026819D03*
X0059969Y0036319D03*
X0059969Y0038287D03*
X0056031Y0038287D03*
X0056031Y0036319D03*
X0140531Y0036319D03*
X0140531Y0038287D03*
X0144469Y0038287D03*
X0144469Y0036319D03*
X0144469Y0028787D03*
X0144469Y0026819D03*
X0140531Y0026819D03*
X0140531Y0028787D03*
X0214531Y0028787D03*
X0214531Y0026819D03*
X0218469Y0026819D03*
X0218469Y0028787D03*
X0218469Y0036319D03*
X0218469Y0038287D03*
X0214531Y0038287D03*
X0214531Y0036319D03*
X0284031Y0036319D03*
X0284031Y0038287D03*
X0287969Y0038287D03*
X0287969Y0036319D03*
X0287969Y0028787D03*
X0287969Y0026819D03*
X0284031Y0026819D03*
X0284031Y0028787D03*
X0341031Y0028787D03*
X0341031Y0026819D03*
X0344969Y0026819D03*
X0344969Y0028787D03*
X0344969Y0036319D03*
X0344969Y0038287D03*
X0341031Y0038287D03*
X0341031Y0036319D03*
D17*
X0178550Y0207400D03*
X0252200Y0208400D03*
X0321700Y0209050D03*
X0101050Y0206500D03*
X0022350Y0205300D03*
D18*
X0029450Y0205695D02*
X0093950Y0205695D01*
X0093950Y0206693D02*
X0029450Y0206693D01*
X0029450Y0207692D02*
X0093950Y0207692D01*
X0093950Y0208690D02*
X0046246Y0208690D01*
X0029450Y0208241D02*
X0029450Y0202359D01*
X0025291Y0198200D01*
X0019409Y0198200D01*
X0018900Y0198709D01*
X0018900Y0082650D01*
X0019997Y0082650D01*
X0020379Y0082548D01*
X0020500Y0082478D01*
X0020621Y0082548D01*
X0021003Y0082650D01*
X0023000Y0082650D01*
X0023000Y0078500D01*
X0024000Y0078500D01*
X0024000Y0082650D01*
X0025997Y0082650D01*
X0026379Y0082548D01*
X0026721Y0082350D01*
X0027000Y0082071D01*
X0027198Y0081729D01*
X0027300Y0081347D01*
X0027300Y0078500D01*
X0024000Y0078500D01*
X0024000Y0077500D01*
X0027300Y0077500D01*
X0027300Y0074653D01*
X0027198Y0074271D01*
X0027000Y0073929D01*
X0026721Y0073650D01*
X0026379Y0073452D01*
X0025997Y0073350D01*
X0024000Y0073350D01*
X0024000Y0077500D01*
X0023000Y0077500D01*
X0019700Y0077500D01*
X0018900Y0077500D01*
X0018900Y0078500D01*
X0023000Y0078500D01*
X0023000Y0077500D01*
X0023000Y0073350D01*
X0021003Y0073350D01*
X0020621Y0073452D01*
X0020500Y0073522D01*
X0020379Y0073452D01*
X0019997Y0073350D01*
X0018900Y0073350D01*
X0018900Y0019364D01*
X0245633Y0016500D01*
X0369350Y0016500D01*
X0369350Y0038720D01*
X0368755Y0038125D01*
X0368149Y0037874D01*
X0368149Y0032079D01*
X0366919Y0030849D01*
X0359600Y0030849D01*
X0359600Y0030151D01*
X0366919Y0030151D01*
X0368149Y0028921D01*
X0368149Y0020882D01*
X0366919Y0019652D01*
X0358081Y0019652D01*
X0356851Y0020882D01*
X0356851Y0022250D01*
X0347110Y0022250D01*
X0346823Y0021963D01*
X0343114Y0021963D01*
X0343000Y0022077D01*
X0342886Y0021963D01*
X0341350Y0021963D01*
X0341198Y0021900D01*
X0326483Y0021900D01*
X0325527Y0022296D01*
X0320481Y0027342D01*
X0320481Y0026708D01*
X0319875Y0025245D01*
X0318755Y0024125D01*
X0317292Y0023519D01*
X0315708Y0023519D01*
X0315149Y0023750D01*
X0315149Y0020882D01*
X0313919Y0019652D01*
X0305081Y0019652D01*
X0303851Y0020882D01*
X0303851Y0022250D01*
X0290110Y0022250D01*
X0289823Y0021963D01*
X0286114Y0021963D01*
X0286000Y0022077D01*
X0285886Y0021963D01*
X0284350Y0021963D01*
X0284198Y0021900D01*
X0266483Y0021900D01*
X0265527Y0022296D01*
X0264796Y0023027D01*
X0253796Y0034027D01*
X0253400Y0034983D01*
X0253400Y0056517D01*
X0253796Y0057473D01*
X0254527Y0058204D01*
X0261502Y0065179D01*
X0261502Y0065760D01*
X0260755Y0065760D01*
X0260374Y0065862D01*
X0260032Y0066060D01*
X0259752Y0066339D01*
X0259555Y0066681D01*
X0259453Y0067062D01*
X0259453Y0070114D01*
X0261412Y0070114D01*
X0261412Y0070114D01*
X0259453Y0070114D01*
X0259453Y0073166D01*
X0259555Y0073547D01*
X0259752Y0073890D01*
X0260032Y0074169D01*
X0260374Y0074366D01*
X0260755Y0074468D01*
X0261543Y0074468D01*
X0261543Y0073970D01*
X0261543Y0073970D01*
X0261543Y0074468D01*
X0262042Y0074468D01*
X0262642Y0075068D01*
X0264061Y0075068D01*
X0264061Y0098808D01*
X0263125Y0099745D01*
X0262519Y0101208D01*
X0262519Y0102792D01*
X0263125Y0104255D01*
X0264245Y0105375D01*
X0265708Y0105981D01*
X0267292Y0105981D01*
X0268755Y0105375D01*
X0269875Y0104255D01*
X0270481Y0102792D01*
X0270481Y0101208D01*
X0269875Y0099745D01*
X0269261Y0099131D01*
X0269261Y0085981D01*
X0270792Y0085981D01*
X0271900Y0085522D01*
X0271900Y0085561D01*
X0271745Y0085625D01*
X0270625Y0086745D01*
X0270019Y0088208D01*
X0270019Y0089792D01*
X0270625Y0091255D01*
X0271745Y0092375D01*
X0273208Y0092981D01*
X0274792Y0092981D01*
X0275900Y0092522D01*
X0275900Y0093561D01*
X0275745Y0093625D01*
X0274625Y0094745D01*
X0274019Y0096208D01*
X0274019Y0097792D01*
X0274625Y0099255D01*
X0275745Y0100375D01*
X0277208Y0100981D01*
X0278792Y0100981D01*
X0280255Y0100375D01*
X0281375Y0099255D01*
X0281981Y0097792D01*
X0281981Y0096680D01*
X0282708Y0096981D01*
X0284292Y0096981D01*
X0285755Y0096375D01*
X0286875Y0095255D01*
X0287481Y0093792D01*
X0287481Y0092208D01*
X0286875Y0090745D01*
X0285755Y0089625D01*
X0285100Y0089354D01*
X0285100Y0078483D01*
X0284704Y0077527D01*
X0283973Y0076796D01*
X0281581Y0074404D01*
X0282147Y0073838D01*
X0282147Y0066390D01*
X0280917Y0065160D01*
X0266702Y0065160D01*
X0266702Y0063585D01*
X0266307Y0062630D01*
X0258600Y0054923D01*
X0258600Y0036577D01*
X0258943Y0036234D01*
X0258943Y0043071D01*
X0258853Y0043162D01*
X0258853Y0050610D01*
X0260083Y0051840D01*
X0280917Y0051840D01*
X0282147Y0050610D01*
X0282147Y0049486D01*
X0283356Y0049486D01*
X0283745Y0049875D01*
X0285208Y0050481D01*
X0286792Y0050481D01*
X0288255Y0049875D01*
X0289375Y0048755D01*
X0289981Y0047292D01*
X0289981Y0045708D01*
X0289375Y0044245D01*
X0288273Y0043143D01*
X0289823Y0043143D01*
X0291053Y0041913D01*
X0291053Y0041730D01*
X0291400Y0042077D01*
X0291400Y0161517D01*
X0291796Y0162473D01*
X0306900Y0177577D01*
X0306900Y0177652D01*
X0305081Y0177652D01*
X0303851Y0178882D01*
X0303851Y0186921D01*
X0305081Y0188151D01*
X0313400Y0188151D01*
X0313400Y0188849D01*
X0305081Y0188849D01*
X0303851Y0190079D01*
X0303851Y0198118D01*
X0305081Y0199348D01*
X0313919Y0199348D01*
X0315149Y0198118D01*
X0315149Y0196644D01*
X0315973Y0196303D01*
X0318204Y0194071D01*
X0318600Y0193116D01*
X0318600Y0127600D01*
X0321354Y0127600D01*
X0321625Y0128255D01*
X0322745Y0129375D01*
X0324208Y0129981D01*
X0325792Y0129981D01*
X0327255Y0129375D01*
X0328375Y0128255D01*
X0328981Y0126792D01*
X0328981Y0125208D01*
X0328375Y0123745D01*
X0327255Y0122625D01*
X0325792Y0122019D01*
X0324208Y0122019D01*
X0323288Y0122400D01*
X0318600Y0122400D01*
X0318600Y0061777D01*
X0319027Y0062204D01*
X0322619Y0065796D01*
X0322374Y0065862D01*
X0322032Y0066060D01*
X0321752Y0066339D01*
X0321555Y0066681D01*
X0321453Y0067062D01*
X0321453Y0070114D01*
X0323412Y0070114D01*
X0323412Y0070114D01*
X0321453Y0070114D01*
X0321453Y0073166D01*
X0321555Y0073547D01*
X0321752Y0073890D01*
X0322032Y0074169D01*
X0322374Y0074366D01*
X0322755Y0074468D01*
X0323543Y0074468D01*
X0323543Y0073970D01*
X0323543Y0073970D01*
X0323543Y0074468D01*
X0324042Y0074468D01*
X0324642Y0075068D01*
X0326061Y0075068D01*
X0326061Y0098308D01*
X0325125Y0099245D01*
X0324519Y0100708D01*
X0324519Y0102292D01*
X0325125Y0103755D01*
X0326245Y0104875D01*
X0327708Y0105481D01*
X0329292Y0105481D01*
X0330755Y0104875D01*
X0331875Y0103755D01*
X0332481Y0102292D01*
X0332481Y0100708D01*
X0331875Y0099245D01*
X0331261Y0098631D01*
X0331261Y0091892D01*
X0331745Y0092375D01*
X0333208Y0092981D01*
X0334792Y0092981D01*
X0336255Y0092375D01*
X0336900Y0091730D01*
X0336900Y0093019D01*
X0336208Y0093019D01*
X0334745Y0093625D01*
X0333625Y0094745D01*
X0333019Y0096208D01*
X0333019Y0097792D01*
X0333625Y0099255D01*
X0334745Y0100375D01*
X0336208Y0100981D01*
X0337792Y0100981D01*
X0339255Y0100375D01*
X0340375Y0099255D01*
X0340981Y0097792D01*
X0340981Y0096696D01*
X0341285Y0096392D01*
X0342708Y0096981D01*
X0344292Y0096981D01*
X0344900Y0096729D01*
X0344900Y0161017D01*
X0345296Y0161973D01*
X0359900Y0176577D01*
X0359900Y0178152D01*
X0358081Y0178152D01*
X0356851Y0179382D01*
X0356851Y0187421D01*
X0358081Y0188651D01*
X0366400Y0188651D01*
X0366400Y0189349D01*
X0358081Y0189349D01*
X0356851Y0190579D01*
X0356851Y0198618D01*
X0358081Y0199848D01*
X0366919Y0199848D01*
X0368149Y0198618D01*
X0368149Y0196896D01*
X0368374Y0196803D01*
X0369350Y0195827D01*
X0369350Y0211000D01*
X0328800Y0211000D01*
X0328800Y0206109D01*
X0324641Y0201950D01*
X0318759Y0201950D01*
X0314600Y0206109D01*
X0314600Y0211000D01*
X0259300Y0211000D01*
X0259300Y0205459D01*
X0255141Y0201300D01*
X0249259Y0201300D01*
X0245100Y0205459D01*
X0245100Y0211000D01*
X0225092Y0211000D01*
X0185502Y0210489D01*
X0185650Y0210341D01*
X0185650Y0204459D01*
X0181491Y0200300D01*
X0175609Y0200300D01*
X0171450Y0204459D01*
X0171450Y0210307D01*
X0108102Y0209489D01*
X0108150Y0209441D01*
X0108150Y0203559D01*
X0103991Y0199400D01*
X0098109Y0199400D01*
X0093950Y0203559D01*
X0093950Y0209306D01*
X0029220Y0208470D01*
X0029450Y0208241D01*
X0029450Y0204696D02*
X0093950Y0204696D01*
X0093950Y0203698D02*
X0029450Y0203698D01*
X0029450Y0202699D02*
X0094810Y0202699D01*
X0095808Y0201701D02*
X0028792Y0201701D01*
X0027793Y0200702D02*
X0096807Y0200702D01*
X0097805Y0199704D02*
X0026795Y0199704D01*
X0025796Y0198705D02*
X0076438Y0198705D01*
X0076581Y0198848D02*
X0075351Y0197618D01*
X0075351Y0189579D01*
X0076581Y0188349D01*
X0085419Y0188349D01*
X0085900Y0188830D01*
X0085900Y0187170D01*
X0085419Y0187651D01*
X0076581Y0187651D01*
X0075351Y0186421D01*
X0075351Y0178382D01*
X0076581Y0177152D01*
X0077475Y0177152D01*
X0061796Y0161473D01*
X0061400Y0160517D01*
X0061400Y0096522D01*
X0060292Y0096981D01*
X0058708Y0096981D01*
X0057245Y0096375D01*
X0056125Y0095255D01*
X0055919Y0094758D01*
X0053981Y0096696D01*
X0053981Y0097792D01*
X0053375Y0099255D01*
X0052255Y0100375D01*
X0050792Y0100981D01*
X0049208Y0100981D01*
X0047745Y0100375D01*
X0046625Y0099255D01*
X0046019Y0097792D01*
X0046019Y0096208D01*
X0046625Y0094745D01*
X0047745Y0093625D01*
X0049208Y0093019D01*
X0050304Y0093019D01*
X0052900Y0090423D01*
X0052900Y0088277D01*
X0052481Y0088696D01*
X0052481Y0089792D01*
X0051875Y0091255D01*
X0050755Y0092375D01*
X0049292Y0092981D01*
X0047708Y0092981D01*
X0046245Y0092375D01*
X0045261Y0091392D01*
X0045261Y0096356D01*
X0045100Y0096745D01*
X0045100Y0113970D01*
X0045875Y0114745D01*
X0046481Y0116208D01*
X0046481Y0117792D01*
X0045875Y0119255D01*
X0044755Y0120375D01*
X0043292Y0120981D01*
X0041708Y0120981D01*
X0040245Y0120375D01*
X0039125Y0119255D01*
X0038519Y0117792D01*
X0038519Y0116208D01*
X0039125Y0114745D01*
X0039900Y0113970D01*
X0039900Y0095483D01*
X0040061Y0095093D01*
X0040061Y0075068D01*
X0038642Y0075068D01*
X0038042Y0074468D01*
X0037543Y0074468D01*
X0036755Y0074468D01*
X0036374Y0074366D01*
X0036032Y0074169D01*
X0035752Y0073890D01*
X0035555Y0073547D01*
X0035453Y0073166D01*
X0035453Y0070114D01*
X0035453Y0067062D01*
X0035555Y0066681D01*
X0035752Y0066339D01*
X0036032Y0066060D01*
X0036374Y0065862D01*
X0036755Y0065760D01*
X0037083Y0065760D01*
X0029027Y0057704D01*
X0028296Y0056973D01*
X0027900Y0056017D01*
X0027900Y0035483D01*
X0028296Y0034527D01*
X0039796Y0023027D01*
X0040527Y0022296D01*
X0041483Y0021900D01*
X0056198Y0021900D01*
X0056350Y0021963D01*
X0057886Y0021963D01*
X0058000Y0022077D01*
X0058114Y0021963D01*
X0061823Y0021963D01*
X0062110Y0022250D01*
X0075351Y0022250D01*
X0075351Y0020882D01*
X0076581Y0019652D01*
X0085419Y0019652D01*
X0086649Y0020882D01*
X0086649Y0028921D01*
X0085419Y0030151D01*
X0076600Y0030151D01*
X0076600Y0030849D01*
X0085419Y0030849D01*
X0086649Y0032079D01*
X0086649Y0033498D01*
X0089616Y0033498D01*
X0089687Y0033528D01*
X0089708Y0033519D01*
X0091292Y0033519D01*
X0092755Y0034125D01*
X0093875Y0035245D01*
X0094481Y0036708D01*
X0094481Y0038292D01*
X0093875Y0039755D01*
X0092755Y0040875D01*
X0091292Y0041481D01*
X0090060Y0041481D01*
X0090704Y0042126D01*
X0091100Y0043081D01*
X0091100Y0118400D01*
X0093517Y0118400D01*
X0094473Y0118796D01*
X0095696Y0120019D01*
X0096792Y0120019D01*
X0098255Y0120625D01*
X0099375Y0121745D01*
X0099981Y0123208D01*
X0099981Y0124792D01*
X0099375Y0126255D01*
X0098255Y0127375D01*
X0096792Y0127981D01*
X0095208Y0127981D01*
X0093745Y0127375D01*
X0092625Y0126255D01*
X0092019Y0124792D01*
X0092019Y0123696D01*
X0091923Y0123600D01*
X0091100Y0123600D01*
X0091100Y0192017D01*
X0090704Y0192973D01*
X0089973Y0193704D01*
X0089973Y0193704D01*
X0088606Y0195071D01*
X0088606Y0195071D01*
X0087874Y0195803D01*
X0086919Y0196198D01*
X0086649Y0196198D01*
X0086649Y0197618D01*
X0085419Y0198848D01*
X0076581Y0198848D01*
X0075440Y0197707D02*
X0018900Y0197707D01*
X0018900Y0198705D02*
X0018904Y0198705D01*
X0018900Y0196708D02*
X0075351Y0196708D01*
X0075351Y0195710D02*
X0018900Y0195710D01*
X0018900Y0194711D02*
X0075351Y0194711D01*
X0075351Y0193713D02*
X0018900Y0193713D01*
X0018900Y0192714D02*
X0075351Y0192714D01*
X0075351Y0191716D02*
X0018900Y0191716D01*
X0018900Y0190717D02*
X0075351Y0190717D01*
X0075351Y0189719D02*
X0018900Y0189719D01*
X0018900Y0188720D02*
X0076210Y0188720D01*
X0075653Y0186723D02*
X0018900Y0186723D01*
X0018900Y0185725D02*
X0075351Y0185725D01*
X0075351Y0184726D02*
X0018900Y0184726D01*
X0018900Y0183728D02*
X0075351Y0183728D01*
X0075351Y0182729D02*
X0018900Y0182729D01*
X0018900Y0181731D02*
X0075351Y0181731D01*
X0075351Y0180732D02*
X0018900Y0180732D01*
X0018900Y0179734D02*
X0075351Y0179734D01*
X0075351Y0178735D02*
X0018900Y0178735D01*
X0018900Y0177737D02*
X0075996Y0177737D01*
X0077061Y0176738D02*
X0018900Y0176738D01*
X0018900Y0175739D02*
X0076063Y0175739D01*
X0075064Y0174741D02*
X0018900Y0174741D01*
X0018900Y0173742D02*
X0074066Y0173742D01*
X0073067Y0172744D02*
X0018900Y0172744D01*
X0018900Y0171745D02*
X0072069Y0171745D01*
X0071070Y0170747D02*
X0018900Y0170747D01*
X0018900Y0169748D02*
X0070071Y0169748D01*
X0069073Y0168750D02*
X0018900Y0168750D01*
X0018900Y0167751D02*
X0068074Y0167751D01*
X0067076Y0166753D02*
X0018900Y0166753D01*
X0018900Y0165754D02*
X0066077Y0165754D01*
X0065079Y0164756D02*
X0018900Y0164756D01*
X0018900Y0163757D02*
X0064080Y0163757D01*
X0063082Y0162759D02*
X0018900Y0162759D01*
X0018900Y0161760D02*
X0062083Y0161760D01*
X0061501Y0160762D02*
X0018900Y0160762D01*
X0018900Y0159763D02*
X0061400Y0159763D01*
X0061400Y0158765D02*
X0018900Y0158765D01*
X0018900Y0157766D02*
X0061400Y0157766D01*
X0061400Y0156768D02*
X0018900Y0156768D01*
X0018900Y0155769D02*
X0061400Y0155769D01*
X0061400Y0154771D02*
X0018900Y0154771D01*
X0018900Y0153772D02*
X0061400Y0153772D01*
X0061400Y0152774D02*
X0018900Y0152774D01*
X0018900Y0151775D02*
X0061400Y0151775D01*
X0061400Y0150777D02*
X0018900Y0150777D01*
X0018900Y0149778D02*
X0061400Y0149778D01*
X0061400Y0148780D02*
X0018900Y0148780D01*
X0018900Y0147781D02*
X0061400Y0147781D01*
X0061400Y0146783D02*
X0018900Y0146783D01*
X0018900Y0145784D02*
X0061400Y0145784D01*
X0061400Y0144786D02*
X0018900Y0144786D01*
X0018900Y0143787D02*
X0061400Y0143787D01*
X0061400Y0142789D02*
X0018900Y0142789D01*
X0018900Y0141790D02*
X0061400Y0141790D01*
X0061400Y0140792D02*
X0018900Y0140792D01*
X0018900Y0139793D02*
X0061400Y0139793D01*
X0061400Y0138795D02*
X0018900Y0138795D01*
X0018900Y0137796D02*
X0061400Y0137796D01*
X0061400Y0136798D02*
X0018900Y0136798D01*
X0018900Y0135799D02*
X0061400Y0135799D01*
X0061400Y0134801D02*
X0018900Y0134801D01*
X0018900Y0133802D02*
X0061400Y0133802D01*
X0061400Y0132803D02*
X0018900Y0132803D01*
X0018900Y0131805D02*
X0061400Y0131805D01*
X0061400Y0130806D02*
X0018900Y0130806D01*
X0018900Y0129808D02*
X0061400Y0129808D01*
X0061400Y0128809D02*
X0018900Y0128809D01*
X0018900Y0127811D02*
X0061400Y0127811D01*
X0061400Y0126812D02*
X0018900Y0126812D01*
X0018900Y0125814D02*
X0061400Y0125814D01*
X0061400Y0124815D02*
X0018900Y0124815D01*
X0018900Y0123817D02*
X0061400Y0123817D01*
X0061400Y0122818D02*
X0018900Y0122818D01*
X0018900Y0121820D02*
X0061400Y0121820D01*
X0061400Y0120821D02*
X0043678Y0120821D01*
X0045307Y0119823D02*
X0061400Y0119823D01*
X0061400Y0118824D02*
X0046053Y0118824D01*
X0046467Y0117826D02*
X0061400Y0117826D01*
X0061400Y0116827D02*
X0046481Y0116827D01*
X0046324Y0115829D02*
X0061400Y0115829D01*
X0061400Y0114830D02*
X0045910Y0114830D01*
X0045100Y0113832D02*
X0061400Y0113832D01*
X0061400Y0112833D02*
X0045100Y0112833D01*
X0045100Y0111835D02*
X0061400Y0111835D01*
X0061400Y0110836D02*
X0045100Y0110836D01*
X0045100Y0109838D02*
X0061400Y0109838D01*
X0061400Y0108839D02*
X0045100Y0108839D01*
X0045100Y0107841D02*
X0061400Y0107841D01*
X0061400Y0106842D02*
X0045100Y0106842D01*
X0045100Y0105844D02*
X0061400Y0105844D01*
X0061400Y0104845D02*
X0045100Y0104845D01*
X0045100Y0103847D02*
X0061400Y0103847D01*
X0061400Y0102848D02*
X0045100Y0102848D01*
X0045100Y0101850D02*
X0061400Y0101850D01*
X0061400Y0100851D02*
X0051106Y0100851D01*
X0052777Y0099853D02*
X0061400Y0099853D01*
X0061400Y0098854D02*
X0053541Y0098854D01*
X0053955Y0097856D02*
X0061400Y0097856D01*
X0061400Y0096857D02*
X0060591Y0096857D01*
X0058409Y0096857D02*
X0053981Y0096857D01*
X0054818Y0095859D02*
X0056728Y0095859D01*
X0055961Y0094860D02*
X0055817Y0094860D01*
X0055500Y0091500D02*
X0050000Y0097000D01*
X0047223Y0099853D02*
X0045100Y0099853D01*
X0045100Y0100851D02*
X0048894Y0100851D01*
X0046459Y0098854D02*
X0045100Y0098854D01*
X0045100Y0097856D02*
X0046045Y0097856D01*
X0046019Y0096857D02*
X0045100Y0096857D01*
X0045261Y0095859D02*
X0046164Y0095859D01*
X0046577Y0094860D02*
X0045261Y0094860D01*
X0045261Y0093862D02*
X0047508Y0093862D01*
X0047423Y0092863D02*
X0045261Y0092863D01*
X0045261Y0091865D02*
X0045734Y0091865D01*
X0049577Y0092863D02*
X0050460Y0092863D01*
X0051266Y0091865D02*
X0051459Y0091865D01*
X0052036Y0090866D02*
X0052457Y0090866D01*
X0052450Y0089868D02*
X0052900Y0089868D01*
X0052900Y0088869D02*
X0052481Y0088869D01*
X0051000Y0086500D02*
X0048500Y0089000D01*
X0051000Y0086500D02*
X0051000Y0080500D01*
X0047780Y0077280D01*
X0047780Y0070114D01*
X0050339Y0070114D02*
X0050339Y0075839D01*
X0055500Y0081000D01*
X0055500Y0091500D01*
X0059500Y0093000D02*
X0059500Y0080000D01*
X0052898Y0073398D01*
X0052898Y0070114D01*
X0045220Y0070114D02*
X0045220Y0080720D01*
X0046500Y0082000D01*
X0040061Y0081879D02*
X0027111Y0081879D01*
X0027300Y0080881D02*
X0040061Y0080881D01*
X0040061Y0079882D02*
X0027300Y0079882D01*
X0027300Y0078884D02*
X0040061Y0078884D01*
X0040061Y0077885D02*
X0024000Y0077885D01*
X0024000Y0076887D02*
X0023000Y0076887D01*
X0023000Y0077885D02*
X0018900Y0077885D01*
X0023000Y0078884D02*
X0024000Y0078884D01*
X0024000Y0079882D02*
X0023000Y0079882D01*
X0023000Y0080881D02*
X0024000Y0080881D01*
X0024000Y0081879D02*
X0023000Y0081879D01*
X0018900Y0082878D02*
X0040061Y0082878D01*
X0040061Y0083876D02*
X0018900Y0083876D01*
X0018900Y0084875D02*
X0040061Y0084875D01*
X0040061Y0085873D02*
X0018900Y0085873D01*
X0018900Y0086872D02*
X0040061Y0086872D01*
X0040061Y0087870D02*
X0018900Y0087870D01*
X0018900Y0088869D02*
X0040061Y0088869D01*
X0040061Y0089868D02*
X0018900Y0089868D01*
X0018900Y0090866D02*
X0040061Y0090866D01*
X0040061Y0091865D02*
X0018900Y0091865D01*
X0018900Y0092863D02*
X0040061Y0092863D01*
X0040061Y0093862D02*
X0018900Y0093862D01*
X0018900Y0094860D02*
X0040061Y0094860D01*
X0039900Y0095859D02*
X0018900Y0095859D01*
X0018900Y0096857D02*
X0039900Y0096857D01*
X0039900Y0097856D02*
X0018900Y0097856D01*
X0018900Y0098854D02*
X0039900Y0098854D01*
X0039900Y0099853D02*
X0018900Y0099853D01*
X0018900Y0100851D02*
X0039900Y0100851D01*
X0039900Y0101850D02*
X0018900Y0101850D01*
X0018900Y0102848D02*
X0039900Y0102848D01*
X0039900Y0103847D02*
X0018900Y0103847D01*
X0018900Y0104845D02*
X0039900Y0104845D01*
X0039900Y0105844D02*
X0018900Y0105844D01*
X0018900Y0106842D02*
X0039900Y0106842D01*
X0039900Y0107841D02*
X0018900Y0107841D01*
X0018900Y0108839D02*
X0039900Y0108839D01*
X0039900Y0109838D02*
X0018900Y0109838D01*
X0018900Y0110836D02*
X0039900Y0110836D01*
X0039900Y0111835D02*
X0018900Y0111835D01*
X0018900Y0112833D02*
X0039900Y0112833D01*
X0039900Y0113832D02*
X0018900Y0113832D01*
X0018900Y0114830D02*
X0039090Y0114830D01*
X0038676Y0115829D02*
X0018900Y0115829D01*
X0018900Y0116827D02*
X0038519Y0116827D01*
X0038533Y0117826D02*
X0018900Y0117826D01*
X0018900Y0118824D02*
X0038947Y0118824D01*
X0039693Y0119823D02*
X0018900Y0119823D01*
X0018900Y0120821D02*
X0041322Y0120821D01*
X0042500Y0117000D02*
X0042500Y0096000D01*
X0042661Y0095839D01*
X0042661Y0070114D01*
X0040102Y0070114D02*
X0040102Y0065102D01*
X0030500Y0055500D01*
X0030500Y0036000D01*
X0042000Y0024500D01*
X0055681Y0024500D01*
X0056031Y0024850D01*
X0056031Y0026819D02*
X0055850Y0027000D01*
X0043500Y0027000D01*
X0037543Y0032957D01*
X0037543Y0046886D01*
X0040102Y0046886D02*
X0040102Y0036398D01*
X0047500Y0029000D01*
X0055819Y0029000D01*
X0056031Y0028787D01*
X0059969Y0028787D02*
X0068787Y0028787D01*
X0071500Y0031500D01*
X0071500Y0071000D01*
X0081000Y0080500D01*
X0081000Y0089402D01*
X0091100Y0089868D02*
X0109561Y0089868D01*
X0109561Y0090866D02*
X0091100Y0090866D01*
X0091100Y0091865D02*
X0109561Y0091865D01*
X0109561Y0092863D02*
X0091100Y0092863D01*
X0091100Y0093862D02*
X0109561Y0093862D01*
X0109561Y0094860D02*
X0091100Y0094860D01*
X0091100Y0095859D02*
X0109561Y0095859D01*
X0109561Y0096857D02*
X0091100Y0096857D01*
X0091100Y0097856D02*
X0109561Y0097856D01*
X0109561Y0098854D02*
X0091100Y0098854D01*
X0091100Y0099853D02*
X0109561Y0099853D01*
X0109561Y0100851D02*
X0091100Y0100851D01*
X0091100Y0101850D02*
X0109520Y0101850D01*
X0109561Y0101808D02*
X0109561Y0075068D01*
X0108142Y0075068D01*
X0107542Y0074468D01*
X0107043Y0074468D01*
X0106255Y0074468D01*
X0105874Y0074366D01*
X0105532Y0074169D01*
X0105252Y0073890D01*
X0105055Y0073547D01*
X0104953Y0073166D01*
X0104953Y0070114D01*
X0104953Y0067062D01*
X0105055Y0066681D01*
X0105252Y0066339D01*
X0105532Y0066060D01*
X0105874Y0065862D01*
X0106255Y0065760D01*
X0106583Y0065760D01*
X0101527Y0060704D01*
X0100796Y0059973D01*
X0100400Y0059017D01*
X0100400Y0035483D01*
X0100796Y0034527D01*
X0112296Y0023027D01*
X0113027Y0022296D01*
X0113983Y0021900D01*
X0140698Y0021900D01*
X0140850Y0021963D01*
X0142386Y0021963D01*
X0142500Y0022077D01*
X0142614Y0021963D01*
X0146323Y0021963D01*
X0146610Y0022250D01*
X0156351Y0022250D01*
X0156351Y0020882D01*
X0157581Y0019652D01*
X0166419Y0019652D01*
X0167649Y0020882D01*
X0167649Y0028921D01*
X0166419Y0030151D01*
X0158600Y0030151D01*
X0158600Y0030849D01*
X0166419Y0030849D01*
X0167649Y0032079D01*
X0167649Y0033498D01*
X0169550Y0033498D01*
X0170708Y0033019D01*
X0172292Y0033019D01*
X0173755Y0033625D01*
X0174875Y0034745D01*
X0175481Y0036208D01*
X0175481Y0037792D01*
X0174875Y0039255D01*
X0173755Y0040375D01*
X0172292Y0040981D01*
X0170708Y0040981D01*
X0170455Y0040876D01*
X0172704Y0043126D01*
X0173100Y0044081D01*
X0173100Y0120400D01*
X0177017Y0120400D01*
X0177304Y0120519D01*
X0178792Y0120519D01*
X0180255Y0121125D01*
X0181375Y0122245D01*
X0181981Y0123708D01*
X0181981Y0125292D01*
X0181375Y0126755D01*
X0180255Y0127875D01*
X0178792Y0128481D01*
X0177208Y0128481D01*
X0175745Y0127875D01*
X0174625Y0126755D01*
X0174147Y0125600D01*
X0173100Y0125600D01*
X0173100Y0191517D01*
X0172704Y0192473D01*
X0171973Y0193204D01*
X0169374Y0195803D01*
X0168419Y0196198D01*
X0167649Y0196198D01*
X0167649Y0197618D01*
X0166419Y0198848D01*
X0157581Y0198848D01*
X0156351Y0197618D01*
X0156351Y0189579D01*
X0157581Y0188349D01*
X0166419Y0188349D01*
X0167649Y0189579D01*
X0167649Y0190174D01*
X0167900Y0189923D01*
X0167900Y0172077D01*
X0165671Y0169848D01*
X0161025Y0169848D01*
X0163473Y0172296D01*
X0164204Y0173027D01*
X0164600Y0173983D01*
X0164600Y0177152D01*
X0166419Y0177152D01*
X0167649Y0178382D01*
X0167649Y0186421D01*
X0166419Y0187651D01*
X0157581Y0187651D01*
X0156351Y0186421D01*
X0156351Y0178382D01*
X0157581Y0177152D01*
X0159400Y0177152D01*
X0159400Y0175577D01*
X0143796Y0159973D01*
X0143400Y0159017D01*
X0143400Y0043143D01*
X0142614Y0043143D01*
X0142500Y0043029D01*
X0142386Y0043143D01*
X0138677Y0043143D01*
X0137447Y0041913D01*
X0137447Y0041100D01*
X0123577Y0041100D01*
X0122745Y0041931D01*
X0126417Y0041931D01*
X0127647Y0043162D01*
X0127647Y0044286D01*
X0128194Y0044286D01*
X0128625Y0043245D01*
X0129745Y0042125D01*
X0131208Y0041519D01*
X0132792Y0041519D01*
X0134255Y0042125D01*
X0135375Y0043245D01*
X0135981Y0044708D01*
X0135981Y0046292D01*
X0135375Y0047755D01*
X0134255Y0048875D01*
X0132792Y0049481D01*
X0131208Y0049481D01*
X0131175Y0049468D01*
X0131131Y0049486D01*
X0127647Y0049486D01*
X0127647Y0050610D01*
X0126417Y0051840D01*
X0105600Y0051840D01*
X0105600Y0057423D01*
X0111807Y0063630D01*
X0112202Y0064585D01*
X0112202Y0065160D01*
X0126417Y0065160D01*
X0127647Y0066390D01*
X0127647Y0073838D01*
X0127081Y0074404D01*
X0127577Y0074900D01*
X0128017Y0074900D01*
X0128973Y0075296D01*
X0130473Y0076796D01*
X0131204Y0077527D01*
X0131600Y0078483D01*
X0131600Y0089561D01*
X0131755Y0089625D01*
X0132875Y0090745D01*
X0133481Y0092208D01*
X0133481Y0093792D01*
X0132875Y0095255D01*
X0131755Y0096375D01*
X0130292Y0096981D01*
X0128708Y0096981D01*
X0127245Y0096375D01*
X0126891Y0096021D01*
X0126704Y0096473D01*
X0126481Y0096696D01*
X0126481Y0097792D01*
X0125875Y0099255D01*
X0124755Y0100375D01*
X0123292Y0100981D01*
X0121708Y0100981D01*
X0120245Y0100375D01*
X0119125Y0099255D01*
X0118519Y0097792D01*
X0118519Y0096208D01*
X0119125Y0094745D01*
X0120245Y0093625D01*
X0121708Y0093019D01*
X0121900Y0093019D01*
X0121900Y0092522D01*
X0120792Y0092981D01*
X0119208Y0092981D01*
X0117745Y0092375D01*
X0116625Y0091255D01*
X0116019Y0089792D01*
X0116019Y0088208D01*
X0116625Y0086745D01*
X0117457Y0085913D01*
X0117292Y0085981D01*
X0115708Y0085981D01*
X0114761Y0085589D01*
X0114761Y0102131D01*
X0115375Y0102745D01*
X0115981Y0104208D01*
X0115981Y0105792D01*
X0115375Y0107255D01*
X0114255Y0108375D01*
X0112792Y0108981D01*
X0111208Y0108981D01*
X0109745Y0108375D01*
X0108625Y0107255D01*
X0108019Y0105792D01*
X0108019Y0104208D01*
X0108625Y0102745D01*
X0109561Y0101808D01*
X0108582Y0102848D02*
X0091100Y0102848D01*
X0091100Y0103847D02*
X0108169Y0103847D01*
X0108019Y0104845D02*
X0091100Y0104845D01*
X0091100Y0105844D02*
X0108040Y0105844D01*
X0108454Y0106842D02*
X0091100Y0106842D01*
X0091100Y0107841D02*
X0109211Y0107841D01*
X0110866Y0108839D02*
X0091100Y0108839D01*
X0091100Y0109838D02*
X0143400Y0109838D01*
X0143400Y0110836D02*
X0091100Y0110836D01*
X0091100Y0111835D02*
X0143400Y0111835D01*
X0143400Y0112833D02*
X0091100Y0112833D01*
X0091100Y0113832D02*
X0143400Y0113832D01*
X0143400Y0114830D02*
X0091100Y0114830D01*
X0091100Y0115829D02*
X0143400Y0115829D01*
X0143400Y0116827D02*
X0091100Y0116827D01*
X0091100Y0117826D02*
X0143400Y0117826D01*
X0143400Y0118824D02*
X0094501Y0118824D01*
X0095500Y0119823D02*
X0143400Y0119823D01*
X0143400Y0120821D02*
X0098451Y0120821D01*
X0099406Y0121820D02*
X0143400Y0121820D01*
X0143400Y0122818D02*
X0099820Y0122818D01*
X0099981Y0123817D02*
X0143400Y0123817D01*
X0143400Y0124815D02*
X0099971Y0124815D01*
X0099558Y0125814D02*
X0143400Y0125814D01*
X0143400Y0126812D02*
X0098818Y0126812D01*
X0097203Y0127811D02*
X0143400Y0127811D01*
X0143400Y0128809D02*
X0091100Y0128809D01*
X0091100Y0127811D02*
X0094797Y0127811D01*
X0093182Y0126812D02*
X0091100Y0126812D01*
X0091100Y0125814D02*
X0092442Y0125814D01*
X0092029Y0124815D02*
X0091100Y0124815D01*
X0091100Y0123817D02*
X0092019Y0123817D01*
X0093000Y0121000D02*
X0088500Y0121000D01*
X0093000Y0121000D02*
X0096000Y0124000D01*
X0091100Y0129808D02*
X0143400Y0129808D01*
X0143400Y0130806D02*
X0091100Y0130806D01*
X0091100Y0131805D02*
X0143400Y0131805D01*
X0143400Y0132803D02*
X0091100Y0132803D01*
X0091100Y0133802D02*
X0143400Y0133802D01*
X0143400Y0134801D02*
X0091100Y0134801D01*
X0091100Y0135799D02*
X0143400Y0135799D01*
X0143400Y0136798D02*
X0091100Y0136798D01*
X0091100Y0137796D02*
X0114519Y0137796D01*
X0114417Y0137804D02*
X0119203Y0137445D01*
X0119203Y0137445D01*
X0123882Y0138513D01*
X0128038Y0140913D01*
X0131302Y0144431D01*
X0133385Y0148754D01*
X0134100Y0153500D01*
X0133385Y0158246D01*
X0131302Y0162569D01*
X0128038Y0166087D01*
X0123882Y0168487D01*
X0119203Y0169555D01*
X0114417Y0169196D01*
X0109950Y0167443D01*
X0109950Y0167443D01*
X0106198Y0164451D01*
X0103494Y0160486D01*
X0102080Y0155900D01*
X0102080Y0151100D01*
X0103494Y0146514D01*
X0106198Y0142549D01*
X0109950Y0139557D01*
X0114417Y0137804D01*
X0114417Y0137804D01*
X0111893Y0138795D02*
X0091100Y0138795D01*
X0091100Y0139793D02*
X0109654Y0139793D01*
X0109950Y0139557D02*
X0109950Y0139557D01*
X0108402Y0140792D02*
X0091100Y0140792D01*
X0091100Y0141790D02*
X0107150Y0141790D01*
X0106198Y0142549D02*
X0106198Y0142549D01*
X0106198Y0142549D01*
X0106035Y0142789D02*
X0091100Y0142789D01*
X0091100Y0143787D02*
X0105354Y0143787D01*
X0104673Y0144786D02*
X0091100Y0144786D01*
X0091100Y0145784D02*
X0103992Y0145784D01*
X0103494Y0146514D02*
X0103494Y0146514D01*
X0103412Y0146783D02*
X0091100Y0146783D01*
X0091100Y0147781D02*
X0103104Y0147781D01*
X0102796Y0148780D02*
X0091100Y0148780D01*
X0091100Y0149778D02*
X0102488Y0149778D01*
X0102180Y0150777D02*
X0091100Y0150777D01*
X0091100Y0151775D02*
X0102080Y0151775D01*
X0102080Y0152774D02*
X0091100Y0152774D01*
X0091100Y0153772D02*
X0102080Y0153772D01*
X0102080Y0154771D02*
X0091100Y0154771D01*
X0091100Y0155769D02*
X0102080Y0155769D01*
X0102348Y0156768D02*
X0091100Y0156768D01*
X0091100Y0157766D02*
X0102656Y0157766D01*
X0102964Y0158765D02*
X0091100Y0158765D01*
X0091100Y0159763D02*
X0103272Y0159763D01*
X0103494Y0160486D02*
X0103494Y0160486D01*
X0103683Y0160762D02*
X0091100Y0160762D01*
X0091100Y0161760D02*
X0104364Y0161760D01*
X0105044Y0162759D02*
X0091100Y0162759D01*
X0091100Y0163757D02*
X0105725Y0163757D01*
X0106198Y0164451D02*
X0106198Y0164451D01*
X0106580Y0164756D02*
X0091100Y0164756D01*
X0091100Y0165754D02*
X0107833Y0165754D01*
X0109085Y0166753D02*
X0091100Y0166753D01*
X0091100Y0167751D02*
X0110736Y0167751D01*
X0113280Y0168750D02*
X0091100Y0168750D01*
X0091100Y0169748D02*
X0153571Y0169748D01*
X0152573Y0168750D02*
X0122730Y0168750D01*
X0123882Y0168487D02*
X0123882Y0168487D01*
X0125156Y0167751D02*
X0151574Y0167751D01*
X0150576Y0166753D02*
X0126886Y0166753D01*
X0128038Y0166087D02*
X0128038Y0166087D01*
X0128347Y0165754D02*
X0149577Y0165754D01*
X0148579Y0164756D02*
X0129274Y0164756D01*
X0130200Y0163757D02*
X0147580Y0163757D01*
X0146582Y0162759D02*
X0131127Y0162759D01*
X0131302Y0162569D02*
X0131302Y0162569D01*
X0131692Y0161760D02*
X0145583Y0161760D01*
X0144585Y0160762D02*
X0132173Y0160762D01*
X0132654Y0159763D02*
X0143709Y0159763D01*
X0143400Y0158765D02*
X0133135Y0158765D01*
X0133385Y0158246D02*
X0133385Y0158246D01*
X0133457Y0157766D02*
X0143400Y0157766D01*
X0143400Y0156768D02*
X0133607Y0156768D01*
X0133758Y0155769D02*
X0143400Y0155769D01*
X0143400Y0154771D02*
X0133908Y0154771D01*
X0134059Y0153772D02*
X0143400Y0153772D01*
X0143400Y0152774D02*
X0133991Y0152774D01*
X0134100Y0153500D02*
X0134100Y0153500D01*
X0133840Y0151775D02*
X0143400Y0151775D01*
X0143400Y0150777D02*
X0133690Y0150777D01*
X0133539Y0149778D02*
X0143400Y0149778D01*
X0143400Y0148780D02*
X0133389Y0148780D01*
X0132916Y0147781D02*
X0143400Y0147781D01*
X0143400Y0146783D02*
X0132435Y0146783D01*
X0131954Y0145784D02*
X0143400Y0145784D01*
X0143400Y0144786D02*
X0131473Y0144786D01*
X0130705Y0143787D02*
X0143400Y0143787D01*
X0143400Y0142789D02*
X0129779Y0142789D01*
X0128852Y0141790D02*
X0143400Y0141790D01*
X0143400Y0140792D02*
X0127829Y0140792D01*
X0128038Y0140913D02*
X0128038Y0140913D01*
X0126099Y0139793D02*
X0143400Y0139793D01*
X0143400Y0138795D02*
X0124370Y0138795D01*
X0123882Y0138513D02*
X0123882Y0138513D01*
X0120741Y0137796D02*
X0143400Y0137796D01*
X0148500Y0133500D02*
X0162000Y0147000D01*
X0162000Y0153402D01*
X0173100Y0153772D02*
X0217900Y0153772D01*
X0217900Y0152774D02*
X0173100Y0152774D01*
X0173100Y0151775D02*
X0217900Y0151775D01*
X0217900Y0150777D02*
X0173100Y0150777D01*
X0173100Y0149778D02*
X0217900Y0149778D01*
X0217900Y0148780D02*
X0173100Y0148780D01*
X0173100Y0147781D02*
X0217900Y0147781D01*
X0217900Y0146783D02*
X0173100Y0146783D01*
X0173100Y0145784D02*
X0217900Y0145784D01*
X0217900Y0144786D02*
X0173100Y0144786D01*
X0173100Y0143787D02*
X0217900Y0143787D01*
X0217900Y0142789D02*
X0173100Y0142789D01*
X0173100Y0141790D02*
X0217900Y0141790D01*
X0217900Y0140792D02*
X0173100Y0140792D01*
X0173100Y0139793D02*
X0217900Y0139793D01*
X0217900Y0138795D02*
X0173100Y0138795D01*
X0173100Y0137796D02*
X0217900Y0137796D01*
X0217900Y0136798D02*
X0173100Y0136798D01*
X0173100Y0135799D02*
X0217900Y0135799D01*
X0217900Y0134801D02*
X0173100Y0134801D01*
X0173100Y0133802D02*
X0217900Y0133802D01*
X0217900Y0132803D02*
X0173100Y0132803D01*
X0173100Y0131805D02*
X0217900Y0131805D01*
X0217900Y0130806D02*
X0173100Y0130806D01*
X0173100Y0129808D02*
X0217900Y0129808D01*
X0217900Y0128809D02*
X0173100Y0128809D01*
X0173100Y0127811D02*
X0175681Y0127811D01*
X0174682Y0126812D02*
X0173100Y0126812D01*
X0173100Y0125814D02*
X0174235Y0125814D01*
X0176500Y0123000D02*
X0170500Y0123000D01*
X0176500Y0123000D02*
X0178000Y0124500D01*
X0179522Y0120821D02*
X0217900Y0120821D01*
X0217900Y0119823D02*
X0173100Y0119823D01*
X0173100Y0118824D02*
X0217900Y0118824D01*
X0217900Y0117826D02*
X0173100Y0117826D01*
X0173100Y0116827D02*
X0217900Y0116827D01*
X0217900Y0115829D02*
X0173100Y0115829D01*
X0173100Y0114830D02*
X0217900Y0114830D01*
X0217900Y0113832D02*
X0173100Y0113832D01*
X0173100Y0112833D02*
X0217900Y0112833D01*
X0217900Y0111835D02*
X0173100Y0111835D01*
X0173100Y0110836D02*
X0217900Y0110836D01*
X0217900Y0109838D02*
X0173100Y0109838D01*
X0173100Y0108839D02*
X0217900Y0108839D01*
X0217900Y0107841D02*
X0173100Y0107841D01*
X0173100Y0106842D02*
X0217900Y0106842D01*
X0217900Y0105844D02*
X0173100Y0105844D01*
X0173100Y0104845D02*
X0190715Y0104845D01*
X0190745Y0104875D02*
X0189625Y0103755D01*
X0189019Y0102292D01*
X0189019Y0100708D01*
X0189625Y0099245D01*
X0190400Y0098470D01*
X0190400Y0075068D01*
X0189142Y0075068D01*
X0188542Y0074468D01*
X0188043Y0074468D01*
X0187255Y0074468D01*
X0186874Y0074366D01*
X0186532Y0074169D01*
X0186252Y0073890D01*
X0186055Y0073547D01*
X0185953Y0073166D01*
X0185953Y0070114D01*
X0185953Y0067062D01*
X0186055Y0066681D01*
X0186252Y0066339D01*
X0186532Y0066060D01*
X0186874Y0065862D01*
X0187255Y0065760D01*
X0188002Y0065760D01*
X0188002Y0064679D01*
X0180527Y0057204D01*
X0179796Y0056473D01*
X0179400Y0055517D01*
X0179400Y0036983D01*
X0179796Y0036027D01*
X0192796Y0023027D01*
X0193527Y0022296D01*
X0194483Y0021900D01*
X0214698Y0021900D01*
X0214850Y0021963D01*
X0216386Y0021963D01*
X0216500Y0022077D01*
X0216614Y0021963D01*
X0220323Y0021963D01*
X0220610Y0022250D01*
X0230351Y0022250D01*
X0230351Y0020882D01*
X0231581Y0019652D01*
X0240419Y0019652D01*
X0241649Y0020882D01*
X0241649Y0028921D01*
X0240419Y0030151D01*
X0233100Y0030151D01*
X0233100Y0030849D01*
X0240419Y0030849D01*
X0241649Y0032079D01*
X0241649Y0033498D01*
X0242371Y0033498D01*
X0242745Y0033125D01*
X0244208Y0032519D01*
X0245792Y0032519D01*
X0247255Y0033125D01*
X0248375Y0034245D01*
X0248981Y0035708D01*
X0248981Y0037292D01*
X0248375Y0038755D01*
X0247255Y0039875D01*
X0245792Y0040481D01*
X0244208Y0040481D01*
X0243955Y0040376D01*
X0247204Y0043626D01*
X0247600Y0044581D01*
X0247600Y0120400D01*
X0251517Y0120400D01*
X0251804Y0120519D01*
X0253292Y0120519D01*
X0254755Y0121125D01*
X0255875Y0122245D01*
X0256481Y0123708D01*
X0256481Y0125292D01*
X0255875Y0126755D01*
X0254755Y0127875D01*
X0253292Y0128481D01*
X0251708Y0128481D01*
X0250245Y0127875D01*
X0249125Y0126755D01*
X0248647Y0125600D01*
X0247600Y0125600D01*
X0247600Y0191517D01*
X0247204Y0192473D01*
X0246473Y0193204D01*
X0246473Y0193204D01*
X0243874Y0195803D01*
X0242919Y0196198D01*
X0241649Y0196198D01*
X0241649Y0197618D01*
X0240419Y0198848D01*
X0231581Y0198848D01*
X0230351Y0197618D01*
X0230351Y0189579D01*
X0231581Y0188349D01*
X0240419Y0188349D01*
X0241649Y0189579D01*
X0241649Y0190674D01*
X0242400Y0189923D01*
X0242400Y0175077D01*
X0237671Y0170348D01*
X0235025Y0170348D01*
X0237473Y0172796D01*
X0238204Y0173527D01*
X0238600Y0174483D01*
X0238600Y0177152D01*
X0240419Y0177152D01*
X0241649Y0178382D01*
X0241649Y0186421D01*
X0240419Y0187651D01*
X0231581Y0187651D01*
X0230351Y0186421D01*
X0230351Y0178382D01*
X0231581Y0177152D01*
X0233400Y0177152D01*
X0233400Y0176077D01*
X0218296Y0160973D01*
X0217900Y0160017D01*
X0217900Y0043143D01*
X0216614Y0043143D01*
X0216500Y0043029D01*
X0216386Y0043143D01*
X0215773Y0043143D01*
X0216875Y0044245D01*
X0217481Y0045708D01*
X0217481Y0047292D01*
X0216875Y0048755D01*
X0215755Y0049875D01*
X0214292Y0050481D01*
X0212708Y0050481D01*
X0211245Y0049875D01*
X0210856Y0049486D01*
X0208647Y0049486D01*
X0208647Y0050610D01*
X0207417Y0051840D01*
X0186583Y0051840D01*
X0185353Y0050610D01*
X0185353Y0043162D01*
X0185443Y0043071D01*
X0185443Y0037734D01*
X0184600Y0038577D01*
X0184600Y0053923D01*
X0192807Y0062130D01*
X0193202Y0063085D01*
X0193202Y0065160D01*
X0207417Y0065160D01*
X0208647Y0066390D01*
X0208647Y0073838D01*
X0208331Y0074154D01*
X0209473Y0075296D01*
X0210204Y0076027D01*
X0210600Y0076983D01*
X0210600Y0089019D01*
X0210792Y0089019D01*
X0212255Y0089625D01*
X0213375Y0090745D01*
X0213981Y0092208D01*
X0213981Y0093792D01*
X0213375Y0095255D01*
X0212255Y0096375D01*
X0210792Y0096981D01*
X0209208Y0096981D01*
X0207981Y0096473D01*
X0207981Y0097792D01*
X0207375Y0099255D01*
X0206255Y0100375D01*
X0204792Y0100981D01*
X0203208Y0100981D01*
X0201745Y0100375D01*
X0200625Y0099255D01*
X0200019Y0097792D01*
X0200019Y0096208D01*
X0200625Y0094745D01*
X0201400Y0093970D01*
X0201400Y0092729D01*
X0200792Y0092981D01*
X0199208Y0092981D01*
X0197745Y0092375D01*
X0196625Y0091255D01*
X0196019Y0089792D01*
X0196019Y0088208D01*
X0196625Y0086745D01*
X0197389Y0085981D01*
X0196208Y0085981D01*
X0195600Y0085729D01*
X0195600Y0098470D01*
X0196375Y0099245D01*
X0196981Y0100708D01*
X0196981Y0102292D01*
X0196375Y0103755D01*
X0195255Y0104875D01*
X0193792Y0105481D01*
X0192208Y0105481D01*
X0190745Y0104875D01*
X0189717Y0103847D02*
X0173100Y0103847D01*
X0173100Y0102848D02*
X0189249Y0102848D01*
X0189019Y0101850D02*
X0173100Y0101850D01*
X0173100Y0100851D02*
X0189019Y0100851D01*
X0189373Y0099853D02*
X0173100Y0099853D01*
X0173100Y0098854D02*
X0190016Y0098854D01*
X0190400Y0097856D02*
X0173100Y0097856D01*
X0173100Y0096857D02*
X0190400Y0096857D01*
X0190400Y0095859D02*
X0173100Y0095859D01*
X0173100Y0094860D02*
X0190400Y0094860D01*
X0190400Y0093862D02*
X0173100Y0093862D01*
X0173100Y0092863D02*
X0190400Y0092863D01*
X0190400Y0091865D02*
X0173100Y0091865D01*
X0173100Y0090866D02*
X0190400Y0090866D01*
X0190400Y0089868D02*
X0173100Y0089868D01*
X0173100Y0088869D02*
X0190400Y0088869D01*
X0190400Y0087870D02*
X0173100Y0087870D01*
X0173100Y0086872D02*
X0190400Y0086872D01*
X0190400Y0085873D02*
X0173100Y0085873D01*
X0173100Y0084875D02*
X0190400Y0084875D01*
X0190400Y0083876D02*
X0173100Y0083876D01*
X0173100Y0082878D02*
X0190400Y0082878D01*
X0190400Y0081879D02*
X0173100Y0081879D01*
X0173100Y0080881D02*
X0190400Y0080881D01*
X0190400Y0079882D02*
X0173100Y0079882D01*
X0173100Y0078884D02*
X0190400Y0078884D01*
X0190400Y0077885D02*
X0173100Y0077885D01*
X0173100Y0076887D02*
X0190400Y0076887D01*
X0190400Y0075888D02*
X0173100Y0075888D01*
X0173100Y0074890D02*
X0188963Y0074890D01*
X0188043Y0074468D02*
X0188043Y0073970D01*
X0188043Y0074468D01*
X0188043Y0073970D02*
X0188043Y0073970D01*
X0186254Y0073891D02*
X0173100Y0073891D01*
X0173100Y0072893D02*
X0185953Y0072893D01*
X0185953Y0071894D02*
X0173100Y0071894D01*
X0173100Y0070896D02*
X0185953Y0070896D01*
X0185953Y0070114D02*
X0187912Y0070114D01*
X0185953Y0070114D01*
X0185953Y0069897D02*
X0173100Y0069897D01*
X0173100Y0068899D02*
X0185953Y0068899D01*
X0185953Y0067900D02*
X0173100Y0067900D01*
X0173100Y0066902D02*
X0185996Y0066902D01*
X0186802Y0065903D02*
X0173100Y0065903D01*
X0173100Y0064905D02*
X0188002Y0064905D01*
X0187229Y0063906D02*
X0173100Y0063906D01*
X0173100Y0062908D02*
X0186231Y0062908D01*
X0185232Y0061909D02*
X0173100Y0061909D01*
X0173100Y0060911D02*
X0184234Y0060911D01*
X0183235Y0059912D02*
X0173100Y0059912D01*
X0173100Y0058914D02*
X0182237Y0058914D01*
X0181238Y0057915D02*
X0173100Y0057915D01*
X0173100Y0056917D02*
X0180240Y0056917D01*
X0179566Y0055918D02*
X0173100Y0055918D01*
X0173100Y0054920D02*
X0179400Y0054920D01*
X0179400Y0053921D02*
X0173100Y0053921D01*
X0173100Y0052923D02*
X0179400Y0052923D01*
X0179400Y0051924D02*
X0173100Y0051924D01*
X0173100Y0050926D02*
X0179400Y0050926D01*
X0179400Y0049927D02*
X0173100Y0049927D01*
X0173100Y0048929D02*
X0179400Y0048929D01*
X0179400Y0047930D02*
X0173100Y0047930D01*
X0173100Y0046932D02*
X0179400Y0046932D01*
X0179400Y0045933D02*
X0173100Y0045933D01*
X0173100Y0044934D02*
X0179400Y0044934D01*
X0179400Y0043936D02*
X0173040Y0043936D01*
X0172516Y0042937D02*
X0179400Y0042937D01*
X0179400Y0041939D02*
X0171517Y0041939D01*
X0172390Y0040940D02*
X0179400Y0040940D01*
X0179400Y0039942D02*
X0174188Y0039942D01*
X0175004Y0038943D02*
X0179400Y0038943D01*
X0179400Y0037945D02*
X0175418Y0037945D01*
X0175481Y0036946D02*
X0179415Y0036946D01*
X0179875Y0035948D02*
X0175373Y0035948D01*
X0174960Y0034949D02*
X0180874Y0034949D01*
X0181872Y0033951D02*
X0174081Y0033951D01*
X0171500Y0037000D02*
X0170598Y0036098D01*
X0162000Y0036098D01*
X0170500Y0044598D01*
X0170500Y0075500D01*
X0162098Y0067098D01*
X0162000Y0067098D01*
X0153500Y0071000D02*
X0162000Y0079500D01*
X0162000Y0089402D01*
X0143400Y0089868D02*
X0131998Y0089868D01*
X0131600Y0088869D02*
X0143400Y0088869D01*
X0143400Y0087870D02*
X0131600Y0087870D01*
X0131600Y0086872D02*
X0143400Y0086872D01*
X0143400Y0085873D02*
X0131600Y0085873D01*
X0131600Y0084875D02*
X0143400Y0084875D01*
X0143400Y0083876D02*
X0131600Y0083876D01*
X0131600Y0082878D02*
X0143400Y0082878D01*
X0143400Y0081879D02*
X0131600Y0081879D01*
X0131600Y0080881D02*
X0143400Y0080881D01*
X0143400Y0079882D02*
X0131600Y0079882D01*
X0131600Y0078884D02*
X0143400Y0078884D01*
X0143400Y0077885D02*
X0131353Y0077885D01*
X0130564Y0076887D02*
X0143400Y0076887D01*
X0143400Y0075888D02*
X0129565Y0075888D01*
X0127567Y0074890D02*
X0143400Y0074890D01*
X0143400Y0073891D02*
X0127594Y0073891D01*
X0127647Y0072893D02*
X0143400Y0072893D01*
X0143400Y0071894D02*
X0127647Y0071894D01*
X0127647Y0070896D02*
X0143400Y0070896D01*
X0143400Y0069897D02*
X0127647Y0069897D01*
X0127647Y0068899D02*
X0143400Y0068899D01*
X0143400Y0067900D02*
X0127647Y0067900D01*
X0127647Y0066902D02*
X0143400Y0066902D01*
X0143400Y0065903D02*
X0127160Y0065903D01*
X0122398Y0070114D02*
X0122398Y0073398D01*
X0126500Y0077500D01*
X0127500Y0077500D01*
X0129000Y0079000D01*
X0129000Y0092500D01*
X0129500Y0093000D01*
X0132272Y0095859D02*
X0143400Y0095859D01*
X0143400Y0096857D02*
X0130591Y0096857D01*
X0128409Y0096857D02*
X0126481Y0096857D01*
X0126455Y0097856D02*
X0143400Y0097856D01*
X0143400Y0098854D02*
X0126041Y0098854D01*
X0125277Y0099853D02*
X0143400Y0099853D01*
X0143400Y0100851D02*
X0123606Y0100851D01*
X0121394Y0100851D02*
X0114761Y0100851D01*
X0114761Y0099853D02*
X0119723Y0099853D01*
X0118959Y0098854D02*
X0114761Y0098854D01*
X0114761Y0097856D02*
X0118545Y0097856D01*
X0118519Y0096857D02*
X0114761Y0096857D01*
X0114761Y0095859D02*
X0118664Y0095859D01*
X0119077Y0094860D02*
X0114761Y0094860D01*
X0114761Y0093862D02*
X0120008Y0093862D01*
X0121077Y0092863D02*
X0121900Y0092863D01*
X0118923Y0092863D02*
X0114761Y0092863D01*
X0114761Y0091865D02*
X0117234Y0091865D01*
X0116464Y0090866D02*
X0114761Y0090866D01*
X0114761Y0089868D02*
X0116050Y0089868D01*
X0116019Y0088869D02*
X0114761Y0088869D01*
X0114761Y0087870D02*
X0116159Y0087870D01*
X0116572Y0086872D02*
X0114761Y0086872D01*
X0114761Y0085873D02*
X0115448Y0085873D01*
X0120000Y0089000D02*
X0121000Y0088000D01*
X0121000Y0079500D01*
X0117280Y0075780D01*
X0117280Y0070114D01*
X0119839Y0070114D02*
X0119839Y0074339D01*
X0124500Y0079000D01*
X0124500Y0095000D01*
X0122500Y0097000D01*
X0114761Y0101850D02*
X0143400Y0101850D01*
X0143400Y0102848D02*
X0115418Y0102848D01*
X0115831Y0103847D02*
X0143400Y0103847D01*
X0143400Y0104845D02*
X0115981Y0104845D01*
X0115960Y0105844D02*
X0143400Y0105844D01*
X0143400Y0106842D02*
X0115546Y0106842D01*
X0114789Y0107841D02*
X0143400Y0107841D01*
X0143400Y0108839D02*
X0113134Y0108839D01*
X0112000Y0105000D02*
X0112161Y0104839D01*
X0112161Y0070114D01*
X0109602Y0070114D02*
X0109602Y0065102D01*
X0103000Y0058500D01*
X0103000Y0036000D01*
X0114500Y0024500D01*
X0140181Y0024500D01*
X0140531Y0024850D01*
X0140531Y0026819D02*
X0140350Y0027000D01*
X0116500Y0027000D01*
X0107043Y0036457D01*
X0107043Y0046886D01*
X0109602Y0046886D02*
X0109602Y0038898D01*
X0119500Y0029000D01*
X0140319Y0029000D01*
X0140531Y0028787D01*
X0144469Y0028787D02*
X0150287Y0028787D01*
X0153500Y0032000D01*
X0153500Y0071000D01*
X0143400Y0064905D02*
X0112202Y0064905D01*
X0111921Y0063906D02*
X0143400Y0063906D01*
X0143400Y0062908D02*
X0111085Y0062908D01*
X0110086Y0061909D02*
X0143400Y0061909D01*
X0143400Y0060911D02*
X0109088Y0060911D01*
X0108089Y0059912D02*
X0143400Y0059912D01*
X0143400Y0058914D02*
X0107091Y0058914D01*
X0106092Y0057915D02*
X0143400Y0057915D01*
X0143400Y0056917D02*
X0105600Y0056917D01*
X0105600Y0055918D02*
X0143400Y0055918D01*
X0143400Y0054920D02*
X0105600Y0054920D01*
X0105600Y0053921D02*
X0143400Y0053921D01*
X0143400Y0052923D02*
X0105600Y0052923D01*
X0105600Y0051924D02*
X0143400Y0051924D01*
X0143400Y0050926D02*
X0127332Y0050926D01*
X0127647Y0049927D02*
X0143400Y0049927D01*
X0143400Y0048929D02*
X0134126Y0048929D01*
X0135200Y0047930D02*
X0143400Y0047930D01*
X0143400Y0046932D02*
X0135716Y0046932D01*
X0135981Y0045933D02*
X0143400Y0045933D01*
X0143400Y0044934D02*
X0135981Y0044934D01*
X0135661Y0043936D02*
X0143400Y0043936D01*
X0146000Y0042500D02*
X0146000Y0158500D01*
X0162000Y0174500D01*
X0162000Y0182402D01*
X0156351Y0182729D02*
X0091100Y0182729D01*
X0091100Y0181731D02*
X0156351Y0181731D01*
X0156351Y0180732D02*
X0091100Y0180732D01*
X0091100Y0179734D02*
X0156351Y0179734D01*
X0156351Y0178735D02*
X0091100Y0178735D01*
X0091100Y0177737D02*
X0156996Y0177737D01*
X0159400Y0176738D02*
X0091100Y0176738D01*
X0091100Y0175739D02*
X0159400Y0175739D01*
X0158564Y0174741D02*
X0091100Y0174741D01*
X0091100Y0173742D02*
X0157566Y0173742D01*
X0156567Y0172744D02*
X0091100Y0172744D01*
X0091100Y0171745D02*
X0155568Y0171745D01*
X0154570Y0170747D02*
X0091100Y0170747D01*
X0088500Y0170000D02*
X0083098Y0164598D01*
X0081000Y0164598D01*
X0088500Y0170000D02*
X0088500Y0191500D01*
X0086402Y0193598D01*
X0081000Y0193598D01*
X0086649Y0196708D02*
X0156351Y0196708D01*
X0156351Y0195710D02*
X0087967Y0195710D01*
X0088966Y0194711D02*
X0156351Y0194711D01*
X0156351Y0193713D02*
X0089964Y0193713D01*
X0090811Y0192714D02*
X0156351Y0192714D01*
X0156351Y0191716D02*
X0091100Y0191716D01*
X0091100Y0190717D02*
X0156351Y0190717D01*
X0156351Y0189719D02*
X0091100Y0189719D01*
X0091100Y0188720D02*
X0157210Y0188720D01*
X0156653Y0186723D02*
X0091100Y0186723D01*
X0091100Y0185725D02*
X0156351Y0185725D01*
X0156351Y0184726D02*
X0091100Y0184726D01*
X0091100Y0183728D02*
X0156351Y0183728D01*
X0164600Y0176738D02*
X0167900Y0176738D01*
X0167900Y0177737D02*
X0167004Y0177737D01*
X0167649Y0178735D02*
X0167900Y0178735D01*
X0167900Y0179734D02*
X0167649Y0179734D01*
X0167649Y0180732D02*
X0167900Y0180732D01*
X0167900Y0181731D02*
X0167649Y0181731D01*
X0167649Y0182729D02*
X0167900Y0182729D01*
X0167900Y0183728D02*
X0167649Y0183728D01*
X0167649Y0184726D02*
X0167900Y0184726D01*
X0167900Y0185725D02*
X0167649Y0185725D01*
X0167900Y0186723D02*
X0167347Y0186723D01*
X0167900Y0187722D02*
X0091100Y0187722D01*
X0085900Y0187722D02*
X0018900Y0187722D01*
X0064000Y0160000D02*
X0081000Y0177000D01*
X0081000Y0182402D01*
X0085790Y0188720D02*
X0085900Y0188720D01*
X0086560Y0197707D02*
X0156440Y0197707D01*
X0157438Y0198705D02*
X0085562Y0198705D01*
X0104295Y0199704D02*
X0357937Y0199704D01*
X0356938Y0198705D02*
X0314562Y0198705D01*
X0315149Y0197707D02*
X0356851Y0197707D01*
X0356851Y0196708D02*
X0315149Y0196708D01*
X0316566Y0195710D02*
X0356851Y0195710D01*
X0356851Y0194711D02*
X0317564Y0194711D01*
X0318353Y0193713D02*
X0356851Y0193713D01*
X0356851Y0192714D02*
X0318600Y0192714D01*
X0318600Y0191716D02*
X0356851Y0191716D01*
X0356851Y0190717D02*
X0318600Y0190717D01*
X0318600Y0189719D02*
X0357711Y0189719D01*
X0357151Y0187722D02*
X0318600Y0187722D01*
X0318600Y0188720D02*
X0366400Y0188720D01*
X0369000Y0192500D02*
X0369000Y0169000D01*
X0365098Y0165098D01*
X0362500Y0165098D01*
X0369000Y0169000D02*
X0369000Y0138500D01*
X0365098Y0134598D01*
X0362500Y0134598D01*
X0369000Y0138500D02*
X0369000Y0106098D01*
X0362500Y0099598D01*
X0356851Y0099853D02*
X0354600Y0099853D01*
X0354600Y0099923D02*
X0356851Y0102174D01*
X0356851Y0095579D01*
X0358081Y0094349D01*
X0366919Y0094349D01*
X0368149Y0095579D01*
X0368149Y0101571D01*
X0369350Y0102771D01*
X0369350Y0078500D01*
X0368500Y0078500D01*
X0368500Y0082650D01*
X0366503Y0082650D01*
X0366121Y0082548D01*
X0365779Y0082350D01*
X0365500Y0082071D01*
X0365302Y0081729D01*
X0365200Y0081347D01*
X0365200Y0078500D01*
X0368500Y0078500D01*
X0368500Y0077500D01*
X0365200Y0077500D01*
X0365200Y0074930D01*
X0364755Y0075375D01*
X0363292Y0075981D01*
X0361708Y0075981D01*
X0360245Y0075375D01*
X0359125Y0074255D01*
X0358519Y0072792D01*
X0358519Y0071848D01*
X0358081Y0071848D01*
X0357100Y0070867D01*
X0357100Y0074423D01*
X0363973Y0081296D01*
X0364704Y0082027D01*
X0365100Y0082983D01*
X0365100Y0083152D01*
X0366919Y0083152D01*
X0368149Y0084382D01*
X0368149Y0092421D01*
X0366919Y0093651D01*
X0358081Y0093651D01*
X0356851Y0092421D01*
X0356851Y0084382D01*
X0358081Y0083152D01*
X0358475Y0083152D01*
X0354600Y0079277D01*
X0354600Y0099923D01*
X0354600Y0098854D02*
X0356851Y0098854D01*
X0356851Y0097856D02*
X0354600Y0097856D01*
X0354600Y0096857D02*
X0356851Y0096857D01*
X0356851Y0095859D02*
X0354600Y0095859D01*
X0354600Y0094860D02*
X0357570Y0094860D01*
X0357293Y0092863D02*
X0354600Y0092863D01*
X0354600Y0091865D02*
X0356851Y0091865D01*
X0356851Y0090866D02*
X0354600Y0090866D01*
X0354600Y0089868D02*
X0356851Y0089868D01*
X0356851Y0088869D02*
X0354600Y0088869D01*
X0354600Y0087870D02*
X0356851Y0087870D01*
X0356851Y0086872D02*
X0354600Y0086872D01*
X0354600Y0085873D02*
X0356851Y0085873D01*
X0356851Y0084875D02*
X0354600Y0084875D01*
X0354600Y0083876D02*
X0357356Y0083876D01*
X0358201Y0082878D02*
X0354600Y0082878D01*
X0354600Y0081879D02*
X0357202Y0081879D01*
X0356204Y0080881D02*
X0354600Y0080881D01*
X0354600Y0079882D02*
X0355205Y0079882D01*
X0354500Y0075500D02*
X0354500Y0030500D01*
X0352787Y0028787D01*
X0344969Y0028787D01*
X0344969Y0026819D02*
X0354819Y0026819D01*
X0357000Y0029000D01*
X0357000Y0042000D01*
X0362500Y0047500D01*
X0362500Y0055402D01*
X0357342Y0059912D02*
X0357100Y0059912D01*
X0357100Y0059670D02*
X0357100Y0062330D01*
X0358081Y0061349D01*
X0366919Y0061349D01*
X0368149Y0062579D01*
X0368149Y0070618D01*
X0366919Y0071848D01*
X0366481Y0071848D01*
X0366481Y0072792D01*
X0366218Y0073426D01*
X0366503Y0073350D01*
X0368500Y0073350D01*
X0368500Y0077500D01*
X0369350Y0077500D01*
X0369350Y0044280D01*
X0368755Y0044875D01*
X0367292Y0045481D01*
X0365708Y0045481D01*
X0364245Y0044875D01*
X0363125Y0043755D01*
X0362519Y0042292D01*
X0362519Y0041348D01*
X0360025Y0041348D01*
X0363973Y0045296D01*
X0364704Y0046027D01*
X0365100Y0046983D01*
X0365100Y0050152D01*
X0366919Y0050152D01*
X0368149Y0051382D01*
X0368149Y0059421D01*
X0366919Y0060651D01*
X0358081Y0060651D01*
X0357100Y0059670D01*
X0357100Y0060911D02*
X0369350Y0060911D01*
X0369350Y0061909D02*
X0367479Y0061909D01*
X0368149Y0062908D02*
X0369350Y0062908D01*
X0369350Y0063906D02*
X0368149Y0063906D01*
X0368149Y0064905D02*
X0369350Y0064905D01*
X0369350Y0065903D02*
X0368149Y0065903D01*
X0368149Y0066902D02*
X0369350Y0066902D01*
X0369350Y0067900D02*
X0368149Y0067900D01*
X0368149Y0068899D02*
X0369350Y0068899D01*
X0369350Y0069897D02*
X0368149Y0069897D01*
X0367871Y0070896D02*
X0369350Y0070896D01*
X0369350Y0071894D02*
X0366481Y0071894D01*
X0366439Y0072893D02*
X0369350Y0072893D01*
X0369350Y0073891D02*
X0368500Y0073891D01*
X0368500Y0074890D02*
X0369350Y0074890D01*
X0369350Y0075888D02*
X0368500Y0075888D01*
X0368500Y0076887D02*
X0369350Y0076887D01*
X0368500Y0077885D02*
X0360562Y0077885D01*
X0359564Y0076887D02*
X0365200Y0076887D01*
X0365200Y0075888D02*
X0363516Y0075888D01*
X0361484Y0075888D02*
X0358565Y0075888D01*
X0357567Y0074890D02*
X0359760Y0074890D01*
X0358974Y0073891D02*
X0357100Y0073891D01*
X0357100Y0072893D02*
X0358561Y0072893D01*
X0358519Y0071894D02*
X0357100Y0071894D01*
X0357100Y0070896D02*
X0357129Y0070896D01*
X0362500Y0072000D02*
X0362500Y0066598D01*
X0357521Y0061909D02*
X0357100Y0061909D01*
X0367658Y0059912D02*
X0369350Y0059912D01*
X0369350Y0058914D02*
X0368149Y0058914D01*
X0368149Y0057915D02*
X0369350Y0057915D01*
X0369350Y0056917D02*
X0368149Y0056917D01*
X0368149Y0055918D02*
X0369350Y0055918D01*
X0369350Y0054920D02*
X0368149Y0054920D01*
X0368149Y0053921D02*
X0369350Y0053921D01*
X0369350Y0052923D02*
X0368149Y0052923D01*
X0368149Y0051924D02*
X0369350Y0051924D01*
X0369350Y0050926D02*
X0367693Y0050926D01*
X0369350Y0049927D02*
X0365100Y0049927D01*
X0365100Y0048929D02*
X0369350Y0048929D01*
X0369350Y0047930D02*
X0365100Y0047930D01*
X0365079Y0046932D02*
X0369350Y0046932D01*
X0369350Y0045933D02*
X0364610Y0045933D01*
X0364389Y0044934D02*
X0363611Y0044934D01*
X0363306Y0043936D02*
X0362613Y0043936D01*
X0362786Y0042937D02*
X0361614Y0042937D01*
X0362519Y0041939D02*
X0360616Y0041939D01*
X0362500Y0037500D02*
X0366500Y0041500D01*
X0368320Y0037945D02*
X0369350Y0037945D01*
X0369350Y0036946D02*
X0368149Y0036946D01*
X0368149Y0035948D02*
X0369350Y0035948D01*
X0369350Y0034949D02*
X0368149Y0034949D01*
X0368149Y0033951D02*
X0369350Y0033951D01*
X0369350Y0032952D02*
X0368149Y0032952D01*
X0368024Y0031954D02*
X0369350Y0031954D01*
X0369350Y0030955D02*
X0367026Y0030955D01*
X0367113Y0029957D02*
X0369350Y0029957D01*
X0369350Y0028958D02*
X0368112Y0028958D01*
X0368149Y0027960D02*
X0369350Y0027960D01*
X0369350Y0026961D02*
X0368149Y0026961D01*
X0368149Y0025963D02*
X0369350Y0025963D01*
X0369350Y0024964D02*
X0368149Y0024964D01*
X0368149Y0023966D02*
X0369350Y0023966D01*
X0369350Y0022967D02*
X0368149Y0022967D01*
X0368149Y0021969D02*
X0369350Y0021969D01*
X0369350Y0020970D02*
X0368149Y0020970D01*
X0367239Y0019972D02*
X0369350Y0019972D01*
X0369350Y0018973D02*
X0049809Y0018973D01*
X0057891Y0021969D02*
X0058109Y0021969D01*
X0059969Y0024850D02*
X0080949Y0024850D01*
X0081000Y0024902D01*
X0086649Y0024964D02*
X0110359Y0024964D01*
X0111357Y0023966D02*
X0086649Y0023966D01*
X0086649Y0022967D02*
X0112356Y0022967D01*
X0113817Y0021969D02*
X0086649Y0021969D01*
X0086649Y0020970D02*
X0156351Y0020970D01*
X0156351Y0021969D02*
X0146328Y0021969D01*
X0144469Y0024850D02*
X0161949Y0024850D01*
X0162000Y0024902D01*
X0156000Y0028000D02*
X0154819Y0026819D01*
X0144469Y0026819D01*
X0142609Y0021969D02*
X0142391Y0021969D01*
X0128870Y0017975D02*
X0369350Y0017975D01*
X0369350Y0016976D02*
X0207930Y0016976D01*
X0216391Y0021969D02*
X0216609Y0021969D01*
X0218469Y0024850D02*
X0235949Y0024850D01*
X0236000Y0024902D01*
X0230351Y0021969D02*
X0220328Y0021969D01*
X0214531Y0024850D02*
X0214181Y0024500D01*
X0195000Y0024500D01*
X0182000Y0037500D01*
X0182000Y0055000D01*
X0190602Y0063602D01*
X0190602Y0070114D01*
X0193000Y0070276D02*
X0193161Y0070114D01*
X0193000Y0070276D02*
X0193000Y0101500D01*
X0196627Y0099853D02*
X0201223Y0099853D01*
X0200459Y0098854D02*
X0195984Y0098854D01*
X0195600Y0097856D02*
X0200045Y0097856D01*
X0200019Y0096857D02*
X0195600Y0096857D01*
X0195600Y0095859D02*
X0200164Y0095859D01*
X0200577Y0094860D02*
X0195600Y0094860D01*
X0195600Y0093862D02*
X0201400Y0093862D01*
X0201400Y0092863D02*
X0201077Y0092863D01*
X0198923Y0092863D02*
X0195600Y0092863D01*
X0195600Y0091865D02*
X0197234Y0091865D01*
X0196464Y0090866D02*
X0195600Y0090866D01*
X0195600Y0089868D02*
X0196050Y0089868D01*
X0196019Y0088869D02*
X0195600Y0088869D01*
X0195600Y0087870D02*
X0196159Y0087870D01*
X0196572Y0086872D02*
X0195600Y0086872D01*
X0195600Y0085873D02*
X0195948Y0085873D01*
X0200000Y0089000D02*
X0201000Y0088000D01*
X0201000Y0079500D01*
X0198280Y0076780D01*
X0198280Y0070114D01*
X0200839Y0070114D02*
X0200839Y0074839D01*
X0204000Y0078000D01*
X0204000Y0097000D01*
X0206777Y0099853D02*
X0217900Y0099853D01*
X0217900Y0100851D02*
X0205106Y0100851D01*
X0202894Y0100851D02*
X0196981Y0100851D01*
X0196981Y0101850D02*
X0217900Y0101850D01*
X0217900Y0102848D02*
X0196751Y0102848D01*
X0196283Y0103847D02*
X0217900Y0103847D01*
X0217900Y0104845D02*
X0195285Y0104845D01*
X0207541Y0098854D02*
X0217900Y0098854D01*
X0217900Y0097856D02*
X0207955Y0097856D01*
X0207981Y0096857D02*
X0208909Y0096857D01*
X0211091Y0096857D02*
X0217900Y0096857D01*
X0217900Y0095859D02*
X0212772Y0095859D01*
X0213539Y0094860D02*
X0217900Y0094860D01*
X0217900Y0093862D02*
X0213952Y0093862D01*
X0213981Y0092863D02*
X0217900Y0092863D01*
X0217900Y0091865D02*
X0213839Y0091865D01*
X0213425Y0090866D02*
X0217900Y0090866D01*
X0217900Y0089868D02*
X0212498Y0089868D01*
X0210600Y0088869D02*
X0217900Y0088869D01*
X0217900Y0087870D02*
X0210600Y0087870D01*
X0210600Y0086872D02*
X0217900Y0086872D01*
X0217900Y0085873D02*
X0210600Y0085873D01*
X0210600Y0084875D02*
X0217900Y0084875D01*
X0217900Y0083876D02*
X0210600Y0083876D01*
X0210600Y0082878D02*
X0217900Y0082878D01*
X0217900Y0081879D02*
X0210600Y0081879D01*
X0210600Y0080881D02*
X0217900Y0080881D01*
X0217900Y0079882D02*
X0210600Y0079882D01*
X0210600Y0078884D02*
X0217900Y0078884D01*
X0217900Y0077885D02*
X0210600Y0077885D01*
X0210560Y0076887D02*
X0217900Y0076887D01*
X0217900Y0075888D02*
X0210065Y0075888D01*
X0209067Y0074890D02*
X0217900Y0074890D01*
X0217900Y0073891D02*
X0208594Y0073891D01*
X0208647Y0072893D02*
X0217900Y0072893D01*
X0217900Y0071894D02*
X0208647Y0071894D01*
X0208647Y0070896D02*
X0217900Y0070896D01*
X0217900Y0069897D02*
X0208647Y0069897D01*
X0208647Y0068899D02*
X0217900Y0068899D01*
X0217900Y0067900D02*
X0208647Y0067900D01*
X0208647Y0066902D02*
X0217900Y0066902D01*
X0217900Y0065903D02*
X0208160Y0065903D01*
X0203398Y0070114D02*
X0203398Y0072898D01*
X0208000Y0077500D01*
X0208000Y0091000D01*
X0210000Y0093000D01*
X0225500Y0102500D02*
X0236000Y0113000D01*
X0236000Y0123902D01*
X0245000Y0123000D02*
X0251000Y0123000D01*
X0252500Y0124500D01*
X0254022Y0120821D02*
X0291400Y0120821D01*
X0291400Y0119823D02*
X0247600Y0119823D01*
X0247600Y0118824D02*
X0291400Y0118824D01*
X0291400Y0117826D02*
X0247600Y0117826D01*
X0247600Y0116827D02*
X0291400Y0116827D01*
X0291400Y0115829D02*
X0247600Y0115829D01*
X0247600Y0114830D02*
X0291400Y0114830D01*
X0291400Y0113832D02*
X0247600Y0113832D01*
X0247600Y0112833D02*
X0291400Y0112833D01*
X0291400Y0111835D02*
X0247600Y0111835D01*
X0247600Y0110836D02*
X0291400Y0110836D01*
X0291400Y0109838D02*
X0247600Y0109838D01*
X0247600Y0108839D02*
X0291400Y0108839D01*
X0291400Y0107841D02*
X0247600Y0107841D01*
X0247600Y0106842D02*
X0291400Y0106842D01*
X0291400Y0105844D02*
X0267624Y0105844D01*
X0269285Y0104845D02*
X0291400Y0104845D01*
X0291400Y0103847D02*
X0270044Y0103847D01*
X0270458Y0102848D02*
X0291400Y0102848D01*
X0291400Y0101850D02*
X0270481Y0101850D01*
X0270333Y0100851D02*
X0276894Y0100851D01*
X0275223Y0099853D02*
X0269920Y0099853D01*
X0269261Y0098854D02*
X0274459Y0098854D01*
X0274045Y0097856D02*
X0269261Y0097856D01*
X0269261Y0096857D02*
X0274019Y0096857D01*
X0274164Y0095859D02*
X0269261Y0095859D01*
X0269261Y0094860D02*
X0274577Y0094860D01*
X0275508Y0093862D02*
X0269261Y0093862D01*
X0269261Y0092863D02*
X0272923Y0092863D01*
X0271234Y0091865D02*
X0269261Y0091865D01*
X0269261Y0090866D02*
X0270464Y0090866D01*
X0270050Y0089868D02*
X0269261Y0089868D01*
X0269261Y0088869D02*
X0270019Y0088869D01*
X0270159Y0087870D02*
X0269261Y0087870D01*
X0269261Y0086872D02*
X0270572Y0086872D01*
X0271052Y0085873D02*
X0271496Y0085873D01*
X0274500Y0088500D02*
X0274000Y0089000D01*
X0274500Y0088500D02*
X0274500Y0079500D01*
X0271780Y0076780D01*
X0271780Y0070114D01*
X0274339Y0070114D02*
X0274339Y0074839D01*
X0278500Y0079000D01*
X0278500Y0096500D01*
X0278000Y0097000D01*
X0280777Y0099853D02*
X0291400Y0099853D01*
X0291400Y0100851D02*
X0279106Y0100851D01*
X0281541Y0098854D02*
X0291400Y0098854D01*
X0291400Y0097856D02*
X0281955Y0097856D01*
X0281981Y0096857D02*
X0282409Y0096857D01*
X0284591Y0096857D02*
X0291400Y0096857D01*
X0291400Y0095859D02*
X0286272Y0095859D01*
X0287039Y0094860D02*
X0291400Y0094860D01*
X0291400Y0093862D02*
X0287452Y0093862D01*
X0287481Y0092863D02*
X0291400Y0092863D01*
X0291400Y0091865D02*
X0287339Y0091865D01*
X0286925Y0090866D02*
X0291400Y0090866D01*
X0291400Y0089868D02*
X0285998Y0089868D01*
X0285100Y0088869D02*
X0291400Y0088869D01*
X0291400Y0087870D02*
X0285100Y0087870D01*
X0285100Y0086872D02*
X0291400Y0086872D01*
X0291400Y0085873D02*
X0285100Y0085873D01*
X0285100Y0084875D02*
X0291400Y0084875D01*
X0291400Y0083876D02*
X0285100Y0083876D01*
X0285100Y0082878D02*
X0291400Y0082878D01*
X0291400Y0081879D02*
X0285100Y0081879D01*
X0285100Y0080881D02*
X0291400Y0080881D01*
X0291400Y0079882D02*
X0285100Y0079882D01*
X0285100Y0078884D02*
X0291400Y0078884D01*
X0291400Y0077885D02*
X0284853Y0077885D01*
X0284064Y0076887D02*
X0291400Y0076887D01*
X0291400Y0075888D02*
X0283065Y0075888D01*
X0282067Y0074890D02*
X0291400Y0074890D01*
X0291400Y0073891D02*
X0282094Y0073891D01*
X0282147Y0072893D02*
X0291400Y0072893D01*
X0291400Y0071894D02*
X0282147Y0071894D01*
X0282147Y0070896D02*
X0291400Y0070896D01*
X0291400Y0069897D02*
X0282147Y0069897D01*
X0282147Y0068899D02*
X0291400Y0068899D01*
X0291400Y0067900D02*
X0282147Y0067900D01*
X0282147Y0066902D02*
X0291400Y0066902D01*
X0291400Y0065903D02*
X0281660Y0065903D01*
X0276898Y0070114D02*
X0276898Y0073398D01*
X0282500Y0079000D01*
X0282500Y0092000D01*
X0283500Y0093000D01*
X0275900Y0092863D02*
X0275077Y0092863D01*
X0264061Y0092863D02*
X0247600Y0092863D01*
X0247600Y0091865D02*
X0264061Y0091865D01*
X0264061Y0090866D02*
X0247600Y0090866D01*
X0247600Y0089868D02*
X0264061Y0089868D01*
X0264061Y0088869D02*
X0247600Y0088869D01*
X0247600Y0087870D02*
X0264061Y0087870D01*
X0264061Y0086872D02*
X0247600Y0086872D01*
X0247600Y0085873D02*
X0264061Y0085873D01*
X0264061Y0084875D02*
X0247600Y0084875D01*
X0247600Y0083876D02*
X0264061Y0083876D01*
X0264061Y0082878D02*
X0247600Y0082878D01*
X0247600Y0081879D02*
X0264061Y0081879D01*
X0264061Y0080881D02*
X0247600Y0080881D01*
X0247600Y0079882D02*
X0264061Y0079882D01*
X0264061Y0078884D02*
X0247600Y0078884D01*
X0247600Y0077885D02*
X0264061Y0077885D01*
X0264061Y0076887D02*
X0247600Y0076887D01*
X0247600Y0075888D02*
X0264061Y0075888D01*
X0262463Y0074890D02*
X0247600Y0074890D01*
X0247600Y0073891D02*
X0259754Y0073891D01*
X0259453Y0072893D02*
X0247600Y0072893D01*
X0247600Y0071894D02*
X0259453Y0071894D01*
X0259453Y0070896D02*
X0247600Y0070896D01*
X0247600Y0069897D02*
X0259453Y0069897D01*
X0259453Y0068899D02*
X0247600Y0068899D01*
X0247600Y0067900D02*
X0259453Y0067900D01*
X0259496Y0066902D02*
X0247600Y0066902D01*
X0247600Y0065903D02*
X0260302Y0065903D01*
X0261228Y0064905D02*
X0247600Y0064905D01*
X0247600Y0063906D02*
X0260229Y0063906D01*
X0259231Y0062908D02*
X0247600Y0062908D01*
X0247600Y0061909D02*
X0258232Y0061909D01*
X0257234Y0060911D02*
X0247600Y0060911D01*
X0247600Y0059912D02*
X0256235Y0059912D01*
X0255237Y0058914D02*
X0247600Y0058914D01*
X0247600Y0057915D02*
X0254238Y0057915D01*
X0253565Y0056917D02*
X0247600Y0056917D01*
X0247600Y0055918D02*
X0253400Y0055918D01*
X0253400Y0054920D02*
X0247600Y0054920D01*
X0247600Y0053921D02*
X0253400Y0053921D01*
X0253400Y0052923D02*
X0247600Y0052923D01*
X0247600Y0051924D02*
X0253400Y0051924D01*
X0253400Y0050926D02*
X0247600Y0050926D01*
X0247600Y0049927D02*
X0253400Y0049927D01*
X0253400Y0048929D02*
X0247600Y0048929D01*
X0247600Y0047930D02*
X0253400Y0047930D01*
X0253400Y0046932D02*
X0247600Y0046932D01*
X0247600Y0045933D02*
X0253400Y0045933D01*
X0253400Y0044934D02*
X0247600Y0044934D01*
X0247333Y0043936D02*
X0253400Y0043936D01*
X0253400Y0042937D02*
X0246516Y0042937D01*
X0245517Y0041939D02*
X0253400Y0041939D01*
X0253400Y0040940D02*
X0244519Y0040940D01*
X0247094Y0039942D02*
X0253400Y0039942D01*
X0253400Y0038943D02*
X0248187Y0038943D01*
X0248711Y0037945D02*
X0253400Y0037945D01*
X0253400Y0036946D02*
X0248981Y0036946D01*
X0248981Y0035948D02*
X0253400Y0035948D01*
X0253414Y0034949D02*
X0248667Y0034949D01*
X0248081Y0033951D02*
X0253872Y0033951D01*
X0254871Y0032952D02*
X0246838Y0032952D01*
X0243162Y0032952D02*
X0241649Y0032952D01*
X0241524Y0031954D02*
X0255869Y0031954D01*
X0256868Y0030955D02*
X0240526Y0030955D01*
X0240613Y0029957D02*
X0257866Y0029957D01*
X0258865Y0028958D02*
X0241612Y0028958D01*
X0241649Y0027960D02*
X0259863Y0027960D01*
X0260862Y0026961D02*
X0241649Y0026961D01*
X0241649Y0025963D02*
X0261860Y0025963D01*
X0262859Y0024964D02*
X0241649Y0024964D01*
X0241649Y0023966D02*
X0263857Y0023966D01*
X0264856Y0022967D02*
X0241649Y0022967D01*
X0241649Y0021969D02*
X0266317Y0021969D01*
X0267000Y0024500D02*
X0283681Y0024500D01*
X0284031Y0024850D01*
X0284031Y0026819D02*
X0283850Y0027000D01*
X0270500Y0027000D01*
X0261543Y0035957D01*
X0261543Y0046886D01*
X0264102Y0046886D02*
X0264102Y0037398D01*
X0272500Y0029000D01*
X0283819Y0029000D01*
X0284031Y0028787D01*
X0287969Y0028787D02*
X0300287Y0028787D01*
X0301500Y0030000D01*
X0301500Y0070500D01*
X0309500Y0078500D01*
X0309500Y0088402D01*
X0318600Y0088869D02*
X0326061Y0088869D01*
X0326061Y0089868D02*
X0318600Y0089868D01*
X0318600Y0090866D02*
X0326061Y0090866D01*
X0326061Y0091865D02*
X0318600Y0091865D01*
X0318600Y0092863D02*
X0326061Y0092863D01*
X0326061Y0093862D02*
X0318600Y0093862D01*
X0318600Y0094860D02*
X0326061Y0094860D01*
X0326061Y0095859D02*
X0318600Y0095859D01*
X0318600Y0096857D02*
X0326061Y0096857D01*
X0326061Y0097856D02*
X0318600Y0097856D01*
X0318600Y0098854D02*
X0325516Y0098854D01*
X0324873Y0099853D02*
X0318600Y0099853D01*
X0318600Y0100851D02*
X0324519Y0100851D01*
X0324519Y0101850D02*
X0318600Y0101850D01*
X0318600Y0102848D02*
X0324749Y0102848D01*
X0325217Y0103847D02*
X0318600Y0103847D01*
X0318600Y0104845D02*
X0326215Y0104845D01*
X0328500Y0101500D02*
X0328661Y0101339D01*
X0328661Y0070114D01*
X0326102Y0070114D02*
X0326102Y0065102D01*
X0325602Y0065102D01*
X0320500Y0060000D01*
X0320500Y0031000D01*
X0327000Y0024500D01*
X0340681Y0024500D01*
X0341031Y0024850D01*
X0341031Y0026819D02*
X0340850Y0027000D01*
X0329000Y0027000D01*
X0323543Y0032457D01*
X0323543Y0046886D01*
X0326102Y0046886D02*
X0326102Y0033898D01*
X0331000Y0029000D01*
X0340819Y0029000D01*
X0341031Y0028787D01*
X0340681Y0034000D02*
X0341031Y0034350D01*
X0340681Y0034000D02*
X0331000Y0034000D01*
X0328661Y0036339D01*
X0328661Y0046886D01*
X0331220Y0046886D02*
X0331220Y0038780D01*
X0333500Y0036500D01*
X0340850Y0036500D01*
X0341031Y0036319D01*
X0341031Y0038287D02*
X0340819Y0038500D01*
X0336500Y0038500D01*
X0333780Y0041220D01*
X0333780Y0046886D01*
X0341457Y0046886D02*
X0341457Y0052043D01*
X0339000Y0054500D01*
X0321728Y0064905D02*
X0318600Y0064905D01*
X0318600Y0065903D02*
X0322302Y0065903D01*
X0321496Y0066902D02*
X0318600Y0066902D01*
X0318600Y0067900D02*
X0321453Y0067900D01*
X0321453Y0068899D02*
X0318600Y0068899D01*
X0318600Y0069897D02*
X0321453Y0069897D01*
X0321453Y0070896D02*
X0318600Y0070896D01*
X0318600Y0071894D02*
X0321453Y0071894D01*
X0321453Y0072893D02*
X0318600Y0072893D01*
X0318600Y0073891D02*
X0321754Y0073891D01*
X0324463Y0074890D02*
X0318600Y0074890D01*
X0318600Y0075888D02*
X0326061Y0075888D01*
X0326061Y0076887D02*
X0318600Y0076887D01*
X0318600Y0077885D02*
X0326061Y0077885D01*
X0326061Y0078884D02*
X0318600Y0078884D01*
X0318600Y0079882D02*
X0326061Y0079882D01*
X0326061Y0080881D02*
X0318600Y0080881D01*
X0318600Y0081879D02*
X0326061Y0081879D01*
X0326061Y0082878D02*
X0318600Y0082878D01*
X0318600Y0083876D02*
X0326061Y0083876D01*
X0326061Y0084875D02*
X0318600Y0084875D01*
X0318600Y0085873D02*
X0326061Y0085873D01*
X0326061Y0086872D02*
X0318600Y0086872D01*
X0318600Y0087870D02*
X0326061Y0087870D01*
X0331261Y0092863D02*
X0332923Y0092863D01*
X0334508Y0093862D02*
X0331261Y0093862D01*
X0331261Y0094860D02*
X0333577Y0094860D01*
X0333164Y0095859D02*
X0331261Y0095859D01*
X0331261Y0096857D02*
X0333019Y0096857D01*
X0333045Y0097856D02*
X0331261Y0097856D01*
X0331484Y0098854D02*
X0333459Y0098854D01*
X0334223Y0099853D02*
X0332127Y0099853D01*
X0332481Y0100851D02*
X0335894Y0100851D01*
X0338106Y0100851D02*
X0344900Y0100851D01*
X0344900Y0099853D02*
X0339777Y0099853D01*
X0340541Y0098854D02*
X0344900Y0098854D01*
X0344900Y0097856D02*
X0340955Y0097856D01*
X0340981Y0096857D02*
X0342409Y0096857D01*
X0344591Y0096857D02*
X0344900Y0096857D01*
X0343500Y0093000D02*
X0343000Y0092500D01*
X0343000Y0077500D01*
X0338898Y0073398D01*
X0338898Y0070114D01*
X0336339Y0070114D02*
X0336339Y0074839D01*
X0339500Y0078000D01*
X0339500Y0094500D01*
X0337000Y0097000D01*
X0336900Y0092863D02*
X0335077Y0092863D01*
X0336766Y0091865D02*
X0336900Y0091865D01*
X0334000Y0089000D02*
X0336500Y0086500D01*
X0336500Y0079500D01*
X0333780Y0076780D01*
X0333780Y0070114D01*
X0331220Y0070114D02*
X0331220Y0080720D01*
X0332500Y0082000D01*
X0316000Y0073500D02*
X0309500Y0067000D01*
X0309500Y0066598D01*
X0318600Y0063906D02*
X0320729Y0063906D01*
X0319731Y0062908D02*
X0318600Y0062908D01*
X0318600Y0061909D02*
X0318732Y0061909D01*
X0309500Y0055402D02*
X0309500Y0047000D01*
X0304000Y0041500D01*
X0304000Y0028000D01*
X0302819Y0026819D01*
X0287969Y0026819D01*
X0287969Y0024850D02*
X0309449Y0024850D01*
X0309500Y0024902D01*
X0315149Y0022967D02*
X0324856Y0022967D01*
X0323857Y0023966D02*
X0318371Y0023966D01*
X0319594Y0024964D02*
X0322859Y0024964D01*
X0321860Y0025963D02*
X0320172Y0025963D01*
X0320481Y0026961D02*
X0320862Y0026961D01*
X0316500Y0027500D02*
X0316500Y0029598D01*
X0309500Y0036098D01*
X0311598Y0036098D01*
X0316000Y0040500D01*
X0316000Y0073500D01*
X0316000Y0105500D01*
X0310098Y0099598D01*
X0309500Y0099598D01*
X0316000Y0105500D02*
X0316000Y0141500D01*
X0310098Y0135598D01*
X0309500Y0135598D01*
X0316000Y0141500D02*
X0316000Y0165500D01*
X0315598Y0165098D01*
X0309500Y0165098D01*
X0316000Y0165500D02*
X0316000Y0192598D01*
X0314500Y0194098D01*
X0309500Y0194098D01*
X0303851Y0193713D02*
X0245964Y0193713D01*
X0244966Y0194711D02*
X0303851Y0194711D01*
X0303851Y0195710D02*
X0243967Y0195710D01*
X0241649Y0196708D02*
X0303851Y0196708D01*
X0303851Y0197707D02*
X0241560Y0197707D01*
X0240562Y0198705D02*
X0304438Y0198705D01*
X0303851Y0192714D02*
X0246963Y0192714D01*
X0247518Y0191716D02*
X0303851Y0191716D01*
X0303851Y0190717D02*
X0247600Y0190717D01*
X0247600Y0189719D02*
X0304211Y0189719D01*
X0304651Y0187722D02*
X0247600Y0187722D01*
X0247600Y0188720D02*
X0313400Y0188720D01*
X0318600Y0186723D02*
X0356851Y0186723D01*
X0356851Y0185725D02*
X0318600Y0185725D01*
X0318600Y0184726D02*
X0356851Y0184726D01*
X0356851Y0183728D02*
X0318600Y0183728D01*
X0318600Y0182729D02*
X0356851Y0182729D01*
X0356851Y0181731D02*
X0318600Y0181731D01*
X0318600Y0180732D02*
X0356851Y0180732D01*
X0356851Y0179734D02*
X0318600Y0179734D01*
X0318600Y0178735D02*
X0357498Y0178735D01*
X0359900Y0177737D02*
X0318600Y0177737D01*
X0318600Y0176738D02*
X0359900Y0176738D01*
X0359063Y0175739D02*
X0318600Y0175739D01*
X0318600Y0174741D02*
X0358064Y0174741D01*
X0357066Y0173742D02*
X0318600Y0173742D01*
X0318600Y0172744D02*
X0356067Y0172744D01*
X0355068Y0171745D02*
X0318600Y0171745D01*
X0318600Y0170747D02*
X0354070Y0170747D01*
X0353071Y0169748D02*
X0318600Y0169748D01*
X0318600Y0168750D02*
X0352073Y0168750D01*
X0351074Y0167751D02*
X0318600Y0167751D01*
X0318600Y0166753D02*
X0350076Y0166753D01*
X0349077Y0165754D02*
X0318600Y0165754D01*
X0318600Y0164756D02*
X0348079Y0164756D01*
X0347080Y0163757D02*
X0318600Y0163757D01*
X0318600Y0162759D02*
X0346082Y0162759D01*
X0345208Y0161760D02*
X0318600Y0161760D01*
X0318600Y0160762D02*
X0344900Y0160762D01*
X0344900Y0159763D02*
X0318600Y0159763D01*
X0318600Y0158765D02*
X0344900Y0158765D01*
X0344900Y0157766D02*
X0318600Y0157766D01*
X0318600Y0156768D02*
X0344900Y0156768D01*
X0344900Y0155769D02*
X0318600Y0155769D01*
X0318600Y0154771D02*
X0344900Y0154771D01*
X0344900Y0153772D02*
X0318600Y0153772D01*
X0318600Y0152774D02*
X0344900Y0152774D01*
X0344900Y0151775D02*
X0318600Y0151775D01*
X0318600Y0150777D02*
X0344900Y0150777D01*
X0344900Y0149778D02*
X0318600Y0149778D01*
X0318600Y0148780D02*
X0344900Y0148780D01*
X0344900Y0147781D02*
X0318600Y0147781D01*
X0318600Y0146783D02*
X0344900Y0146783D01*
X0344900Y0145784D02*
X0318600Y0145784D01*
X0318600Y0144786D02*
X0344900Y0144786D01*
X0344900Y0143787D02*
X0318600Y0143787D01*
X0318600Y0142789D02*
X0344900Y0142789D01*
X0344900Y0141790D02*
X0318600Y0141790D01*
X0318600Y0140792D02*
X0344900Y0140792D01*
X0344900Y0139793D02*
X0318600Y0139793D01*
X0318600Y0138795D02*
X0344900Y0138795D01*
X0344900Y0137796D02*
X0318600Y0137796D01*
X0318600Y0136798D02*
X0344900Y0136798D01*
X0344900Y0135799D02*
X0318600Y0135799D01*
X0318600Y0134801D02*
X0344900Y0134801D01*
X0344900Y0133802D02*
X0318600Y0133802D01*
X0318600Y0132803D02*
X0344900Y0132803D01*
X0344900Y0131805D02*
X0318600Y0131805D01*
X0318600Y0130806D02*
X0344900Y0130806D01*
X0344900Y0129808D02*
X0326210Y0129808D01*
X0327821Y0128809D02*
X0344900Y0128809D01*
X0344900Y0127811D02*
X0328559Y0127811D01*
X0328973Y0126812D02*
X0344900Y0126812D01*
X0344900Y0125814D02*
X0328981Y0125814D01*
X0328818Y0124815D02*
X0344900Y0124815D01*
X0344900Y0123817D02*
X0328405Y0123817D01*
X0327448Y0122818D02*
X0344900Y0122818D01*
X0344900Y0121820D02*
X0318600Y0121820D01*
X0318600Y0120821D02*
X0344900Y0120821D01*
X0344900Y0119823D02*
X0318600Y0119823D01*
X0318600Y0118824D02*
X0344900Y0118824D01*
X0344900Y0117826D02*
X0318600Y0117826D01*
X0318600Y0116827D02*
X0344900Y0116827D01*
X0344900Y0115829D02*
X0318600Y0115829D01*
X0318600Y0114830D02*
X0344900Y0114830D01*
X0344900Y0113832D02*
X0318600Y0113832D01*
X0318600Y0112833D02*
X0344900Y0112833D01*
X0344900Y0111835D02*
X0318600Y0111835D01*
X0318600Y0110836D02*
X0344900Y0110836D01*
X0344900Y0109838D02*
X0318600Y0109838D01*
X0318600Y0108839D02*
X0344900Y0108839D01*
X0344900Y0107841D02*
X0318600Y0107841D01*
X0318600Y0106842D02*
X0344900Y0106842D01*
X0344900Y0105844D02*
X0318600Y0105844D01*
X0309500Y0113000D02*
X0309500Y0124402D01*
X0316000Y0125000D02*
X0324000Y0125000D01*
X0325000Y0126000D01*
X0322179Y0128809D02*
X0318600Y0128809D01*
X0318600Y0127811D02*
X0321441Y0127811D01*
X0323790Y0129808D02*
X0318600Y0129808D01*
X0309500Y0146500D02*
X0296500Y0133500D01*
X0296500Y0039000D01*
X0293819Y0036319D01*
X0287969Y0036319D01*
X0287969Y0038287D02*
X0291287Y0038287D01*
X0294000Y0041000D01*
X0294000Y0161000D01*
X0309500Y0176500D01*
X0309500Y0182902D01*
X0303851Y0182729D02*
X0247600Y0182729D01*
X0247600Y0181731D02*
X0303851Y0181731D01*
X0303851Y0180732D02*
X0247600Y0180732D01*
X0247600Y0179734D02*
X0303851Y0179734D01*
X0303998Y0178735D02*
X0247600Y0178735D01*
X0247600Y0177737D02*
X0304996Y0177737D01*
X0306061Y0176738D02*
X0247600Y0176738D01*
X0247600Y0175739D02*
X0305063Y0175739D01*
X0304064Y0174741D02*
X0247600Y0174741D01*
X0247600Y0173742D02*
X0303066Y0173742D01*
X0302067Y0172744D02*
X0247600Y0172744D01*
X0247600Y0171745D02*
X0301068Y0171745D01*
X0300070Y0170747D02*
X0247600Y0170747D01*
X0247600Y0169748D02*
X0299071Y0169748D01*
X0298073Y0168750D02*
X0247600Y0168750D01*
X0247600Y0167751D02*
X0297074Y0167751D01*
X0296076Y0166753D02*
X0247600Y0166753D01*
X0247600Y0165754D02*
X0266791Y0165754D01*
X0267917Y0166196D02*
X0263450Y0164443D01*
X0263450Y0164443D01*
X0259698Y0161451D01*
X0259698Y0161451D01*
X0256994Y0157486D01*
X0255580Y0152900D01*
X0255580Y0148100D01*
X0256994Y0143514D01*
X0259698Y0139549D01*
X0263450Y0136557D01*
X0267917Y0134804D01*
X0267917Y0134804D01*
X0272703Y0134445D01*
X0272703Y0134445D01*
X0277382Y0135513D01*
X0281538Y0137913D01*
X0284802Y0141431D01*
X0286885Y0145754D01*
X0286885Y0145754D01*
X0287600Y0150500D01*
X0286885Y0155246D01*
X0284802Y0159569D01*
X0281538Y0163087D01*
X0277382Y0165487D01*
X0272703Y0166555D01*
X0267917Y0166196D01*
X0267917Y0166196D01*
X0264247Y0164756D02*
X0247600Y0164756D01*
X0247600Y0163757D02*
X0262590Y0163757D01*
X0261338Y0162759D02*
X0247600Y0162759D01*
X0247600Y0161760D02*
X0260086Y0161760D01*
X0259698Y0161451D02*
X0259698Y0161451D01*
X0259228Y0160762D02*
X0247600Y0160762D01*
X0247600Y0159763D02*
X0258547Y0159763D01*
X0257867Y0158765D02*
X0247600Y0158765D01*
X0247600Y0157766D02*
X0257186Y0157766D01*
X0256994Y0157486D02*
X0256994Y0157486D01*
X0256773Y0156768D02*
X0247600Y0156768D01*
X0247600Y0155769D02*
X0256465Y0155769D01*
X0256157Y0154771D02*
X0247600Y0154771D01*
X0247600Y0153772D02*
X0255849Y0153772D01*
X0255580Y0152774D02*
X0247600Y0152774D01*
X0247600Y0151775D02*
X0255580Y0151775D01*
X0255580Y0150777D02*
X0247600Y0150777D01*
X0247600Y0149778D02*
X0255580Y0149778D01*
X0255580Y0148780D02*
X0247600Y0148780D01*
X0247600Y0147781D02*
X0255678Y0147781D01*
X0255986Y0146783D02*
X0247600Y0146783D01*
X0247600Y0145784D02*
X0256294Y0145784D01*
X0256602Y0144786D02*
X0247600Y0144786D01*
X0247600Y0143787D02*
X0256910Y0143787D01*
X0256994Y0143514D02*
X0256994Y0143514D01*
X0257489Y0142789D02*
X0247600Y0142789D01*
X0247600Y0141790D02*
X0258170Y0141790D01*
X0258851Y0140792D02*
X0247600Y0140792D01*
X0247600Y0139793D02*
X0259532Y0139793D01*
X0259698Y0139549D02*
X0259698Y0139549D01*
X0259698Y0139549D01*
X0260644Y0138795D02*
X0247600Y0138795D01*
X0247600Y0137796D02*
X0261896Y0137796D01*
X0263148Y0136798D02*
X0247600Y0136798D01*
X0247600Y0135799D02*
X0265381Y0135799D01*
X0263450Y0136557D02*
X0263450Y0136557D01*
X0267959Y0134801D02*
X0247600Y0134801D01*
X0247600Y0133802D02*
X0291400Y0133802D01*
X0291400Y0134801D02*
X0274261Y0134801D01*
X0277382Y0135513D02*
X0277382Y0135513D01*
X0277878Y0135799D02*
X0291400Y0135799D01*
X0291400Y0136798D02*
X0279607Y0136798D01*
X0281336Y0137796D02*
X0291400Y0137796D01*
X0291400Y0138795D02*
X0282357Y0138795D01*
X0281538Y0137913D02*
X0281538Y0137913D01*
X0283283Y0139793D02*
X0291400Y0139793D01*
X0291400Y0140792D02*
X0284210Y0140792D01*
X0284802Y0141431D02*
X0284802Y0141431D01*
X0284976Y0141790D02*
X0291400Y0141790D01*
X0291400Y0142789D02*
X0285456Y0142789D01*
X0285937Y0143787D02*
X0291400Y0143787D01*
X0291400Y0144786D02*
X0286418Y0144786D01*
X0286889Y0145784D02*
X0291400Y0145784D01*
X0291400Y0146783D02*
X0287040Y0146783D01*
X0287190Y0147781D02*
X0291400Y0147781D01*
X0291400Y0148780D02*
X0287341Y0148780D01*
X0287491Y0149778D02*
X0291400Y0149778D01*
X0291400Y0150777D02*
X0287558Y0150777D01*
X0287408Y0151775D02*
X0291400Y0151775D01*
X0291400Y0152774D02*
X0287257Y0152774D01*
X0287107Y0153772D02*
X0291400Y0153772D01*
X0291400Y0154771D02*
X0286956Y0154771D01*
X0286885Y0155246D02*
X0286885Y0155246D01*
X0286633Y0155769D02*
X0291400Y0155769D01*
X0291400Y0156768D02*
X0286152Y0156768D01*
X0285671Y0157766D02*
X0291400Y0157766D01*
X0291400Y0158765D02*
X0285190Y0158765D01*
X0284802Y0159569D02*
X0284802Y0159569D01*
X0284623Y0159763D02*
X0291400Y0159763D01*
X0291400Y0160762D02*
X0283696Y0160762D01*
X0282770Y0161760D02*
X0291501Y0161760D01*
X0292082Y0162759D02*
X0281843Y0162759D01*
X0281538Y0163087D02*
X0281538Y0163087D01*
X0280378Y0163757D02*
X0293080Y0163757D01*
X0294079Y0164756D02*
X0278648Y0164756D01*
X0277382Y0165487D02*
X0277382Y0165487D01*
X0276211Y0165754D02*
X0295077Y0165754D01*
X0309500Y0153902D02*
X0309500Y0146500D01*
X0291400Y0132803D02*
X0247600Y0132803D01*
X0247600Y0131805D02*
X0291400Y0131805D01*
X0291400Y0130806D02*
X0247600Y0130806D01*
X0247600Y0129808D02*
X0291400Y0129808D01*
X0291400Y0128809D02*
X0247600Y0128809D01*
X0247600Y0127811D02*
X0250181Y0127811D01*
X0249182Y0126812D02*
X0247600Y0126812D01*
X0247600Y0125814D02*
X0248735Y0125814D01*
X0254819Y0127811D02*
X0291400Y0127811D01*
X0291400Y0126812D02*
X0255818Y0126812D01*
X0256265Y0125814D02*
X0291400Y0125814D01*
X0291400Y0124815D02*
X0256481Y0124815D01*
X0256481Y0123817D02*
X0291400Y0123817D01*
X0291400Y0122818D02*
X0256113Y0122818D01*
X0255450Y0121820D02*
X0291400Y0121820D01*
X0309500Y0113000D02*
X0299000Y0102500D01*
X0299000Y0038000D01*
X0295350Y0034350D01*
X0287969Y0034350D01*
X0284031Y0034350D02*
X0283681Y0034000D01*
X0273500Y0034000D01*
X0266661Y0040839D01*
X0266661Y0046886D01*
X0269220Y0046886D02*
X0269220Y0042280D01*
X0275000Y0036500D01*
X0283850Y0036500D01*
X0284031Y0036319D01*
X0284031Y0038287D02*
X0283819Y0038500D01*
X0276500Y0038500D01*
X0271780Y0043220D01*
X0271780Y0046886D01*
X0279457Y0046886D02*
X0285614Y0046886D01*
X0286000Y0046500D01*
X0289661Y0044934D02*
X0291400Y0044934D01*
X0291400Y0043936D02*
X0289066Y0043936D01*
X0290028Y0042937D02*
X0291400Y0042937D01*
X0291262Y0041939D02*
X0291027Y0041939D01*
X0291400Y0045933D02*
X0289981Y0045933D01*
X0289981Y0046932D02*
X0291400Y0046932D01*
X0291400Y0047930D02*
X0289717Y0047930D01*
X0289202Y0048929D02*
X0291400Y0048929D01*
X0291400Y0049927D02*
X0288129Y0049927D01*
X0291400Y0050926D02*
X0281832Y0050926D01*
X0282147Y0049927D02*
X0283871Y0049927D01*
X0291400Y0051924D02*
X0258600Y0051924D01*
X0258600Y0050926D02*
X0259168Y0050926D01*
X0258853Y0049927D02*
X0258600Y0049927D01*
X0258600Y0048929D02*
X0258853Y0048929D01*
X0258853Y0047930D02*
X0258600Y0047930D01*
X0258600Y0046932D02*
X0258853Y0046932D01*
X0258853Y0045933D02*
X0258600Y0045933D01*
X0258600Y0044934D02*
X0258853Y0044934D01*
X0258853Y0043936D02*
X0258600Y0043936D01*
X0258600Y0042937D02*
X0258943Y0042937D01*
X0258943Y0041939D02*
X0258600Y0041939D01*
X0258600Y0040940D02*
X0258943Y0040940D01*
X0258943Y0039942D02*
X0258600Y0039942D01*
X0258600Y0038943D02*
X0258943Y0038943D01*
X0258943Y0037945D02*
X0258600Y0037945D01*
X0258600Y0036946D02*
X0258943Y0036946D01*
X0256000Y0035500D02*
X0267000Y0024500D01*
X0256000Y0035500D02*
X0256000Y0056000D01*
X0264102Y0064102D01*
X0264102Y0070114D01*
X0266661Y0070114D02*
X0266661Y0100339D01*
X0266500Y0102000D01*
X0263715Y0104845D02*
X0247600Y0104845D01*
X0247600Y0103847D02*
X0262956Y0103847D01*
X0262542Y0102848D02*
X0247600Y0102848D01*
X0247600Y0101850D02*
X0262519Y0101850D01*
X0262667Y0100851D02*
X0247600Y0100851D01*
X0247600Y0099853D02*
X0263080Y0099853D01*
X0264016Y0098854D02*
X0247600Y0098854D01*
X0247600Y0097856D02*
X0264061Y0097856D01*
X0264061Y0096857D02*
X0247600Y0096857D01*
X0247600Y0095859D02*
X0264061Y0095859D01*
X0264061Y0094860D02*
X0247600Y0094860D01*
X0247600Y0093862D02*
X0264061Y0093862D01*
X0265376Y0105844D02*
X0247600Y0105844D01*
X0245000Y0106500D02*
X0238598Y0100098D01*
X0236000Y0100098D01*
X0225500Y0102500D02*
X0225500Y0036500D01*
X0223350Y0034350D01*
X0218469Y0034350D01*
X0218469Y0036319D02*
X0221819Y0036319D01*
X0223000Y0037500D01*
X0223000Y0132500D01*
X0236000Y0145500D01*
X0236000Y0153902D01*
X0236000Y0165098D02*
X0236098Y0165098D01*
X0245000Y0174000D01*
X0245000Y0191000D01*
X0242402Y0193598D01*
X0236000Y0193598D01*
X0230351Y0193713D02*
X0171464Y0193713D01*
X0170466Y0194711D02*
X0230351Y0194711D01*
X0230351Y0195710D02*
X0169467Y0195710D01*
X0167649Y0196708D02*
X0230351Y0196708D01*
X0230440Y0197707D02*
X0167560Y0197707D01*
X0166562Y0198705D02*
X0231438Y0198705D01*
X0230351Y0192714D02*
X0172463Y0192714D01*
X0173018Y0191716D02*
X0230351Y0191716D01*
X0230351Y0190717D02*
X0173100Y0190717D01*
X0173100Y0189719D02*
X0230351Y0189719D01*
X0231210Y0188720D02*
X0173100Y0188720D01*
X0173100Y0187722D02*
X0242400Y0187722D01*
X0242400Y0188720D02*
X0240790Y0188720D01*
X0241649Y0189719D02*
X0242400Y0189719D01*
X0242400Y0186723D02*
X0241347Y0186723D01*
X0241649Y0185725D02*
X0242400Y0185725D01*
X0242400Y0184726D02*
X0241649Y0184726D01*
X0241649Y0183728D02*
X0242400Y0183728D01*
X0242400Y0182729D02*
X0241649Y0182729D01*
X0241649Y0181731D02*
X0242400Y0181731D01*
X0242400Y0180732D02*
X0241649Y0180732D01*
X0241649Y0179734D02*
X0242400Y0179734D01*
X0242400Y0178735D02*
X0241649Y0178735D01*
X0241004Y0177737D02*
X0242400Y0177737D01*
X0242400Y0176738D02*
X0238600Y0176738D01*
X0238600Y0175739D02*
X0242400Y0175739D01*
X0242064Y0174741D02*
X0238600Y0174741D01*
X0238293Y0173742D02*
X0241066Y0173742D01*
X0240067Y0172744D02*
X0237421Y0172744D01*
X0236422Y0171745D02*
X0239068Y0171745D01*
X0238070Y0170747D02*
X0235424Y0170747D01*
X0236000Y0175000D02*
X0236000Y0182402D01*
X0230351Y0182729D02*
X0173100Y0182729D01*
X0173100Y0181731D02*
X0230351Y0181731D01*
X0230351Y0180732D02*
X0173100Y0180732D01*
X0173100Y0179734D02*
X0230351Y0179734D01*
X0230351Y0178735D02*
X0173100Y0178735D01*
X0173100Y0177737D02*
X0230996Y0177737D01*
X0233400Y0176738D02*
X0173100Y0176738D01*
X0173100Y0175739D02*
X0233063Y0175739D01*
X0232064Y0174741D02*
X0173100Y0174741D01*
X0173100Y0173742D02*
X0231066Y0173742D01*
X0230067Y0172744D02*
X0173100Y0172744D01*
X0173100Y0171745D02*
X0229068Y0171745D01*
X0228070Y0170747D02*
X0173100Y0170747D01*
X0173100Y0169748D02*
X0227071Y0169748D01*
X0226073Y0168750D02*
X0173100Y0168750D01*
X0173100Y0167751D02*
X0225074Y0167751D01*
X0224076Y0166753D02*
X0173100Y0166753D01*
X0173100Y0165754D02*
X0223077Y0165754D01*
X0222079Y0164756D02*
X0173100Y0164756D01*
X0173100Y0163757D02*
X0221080Y0163757D01*
X0220082Y0162759D02*
X0173100Y0162759D01*
X0173100Y0161760D02*
X0219083Y0161760D01*
X0218208Y0160762D02*
X0173100Y0160762D01*
X0173100Y0159763D02*
X0217900Y0159763D01*
X0217900Y0158765D02*
X0173100Y0158765D01*
X0173100Y0157766D02*
X0217900Y0157766D01*
X0217900Y0156768D02*
X0173100Y0156768D01*
X0173100Y0155769D02*
X0217900Y0155769D01*
X0217900Y0154771D02*
X0173100Y0154771D01*
X0164098Y0164598D02*
X0162000Y0164598D01*
X0164098Y0164598D02*
X0170500Y0171000D01*
X0170500Y0191000D01*
X0167902Y0193598D01*
X0162000Y0193598D01*
X0166790Y0188720D02*
X0167900Y0188720D01*
X0167900Y0189719D02*
X0167649Y0189719D01*
X0173100Y0186723D02*
X0230653Y0186723D01*
X0230351Y0185725D02*
X0173100Y0185725D01*
X0173100Y0184726D02*
X0230351Y0184726D01*
X0230351Y0183728D02*
X0173100Y0183728D01*
X0167900Y0175739D02*
X0164600Y0175739D01*
X0164600Y0174741D02*
X0167900Y0174741D01*
X0167900Y0173742D02*
X0164500Y0173742D01*
X0163921Y0172744D02*
X0167900Y0172744D01*
X0167568Y0171745D02*
X0162922Y0171745D01*
X0161924Y0170747D02*
X0166570Y0170747D01*
X0170500Y0171000D02*
X0170500Y0142000D01*
X0163598Y0135098D01*
X0162000Y0135098D01*
X0170500Y0142000D02*
X0170500Y0107500D01*
X0163598Y0100598D01*
X0162000Y0100598D01*
X0151000Y0102500D02*
X0162000Y0113500D01*
X0162000Y0123902D01*
X0148500Y0133500D02*
X0148500Y0037500D01*
X0147319Y0036319D01*
X0144469Y0036319D01*
X0144469Y0038287D02*
X0145787Y0038287D01*
X0146500Y0039000D01*
X0146500Y0042000D01*
X0146000Y0042500D01*
X0140531Y0038287D02*
X0140319Y0038500D01*
X0122500Y0038500D01*
X0117280Y0043720D01*
X0117280Y0046886D01*
X0114720Y0046886D02*
X0114720Y0043280D01*
X0121500Y0036500D01*
X0140350Y0036500D01*
X0140531Y0036319D01*
X0140531Y0034350D02*
X0140181Y0034000D01*
X0120000Y0034000D01*
X0112161Y0041839D01*
X0112161Y0046886D01*
X0100400Y0046932D02*
X0091100Y0046932D01*
X0091100Y0047930D02*
X0100400Y0047930D01*
X0100400Y0048929D02*
X0091100Y0048929D01*
X0091100Y0049927D02*
X0100400Y0049927D01*
X0100400Y0050926D02*
X0091100Y0050926D01*
X0091100Y0051924D02*
X0100400Y0051924D01*
X0100400Y0052923D02*
X0091100Y0052923D01*
X0091100Y0053921D02*
X0100400Y0053921D01*
X0100400Y0054920D02*
X0091100Y0054920D01*
X0091100Y0055918D02*
X0100400Y0055918D01*
X0100400Y0056917D02*
X0091100Y0056917D01*
X0091100Y0057915D02*
X0100400Y0057915D01*
X0100400Y0058914D02*
X0091100Y0058914D01*
X0091100Y0059912D02*
X0100771Y0059912D01*
X0101734Y0060911D02*
X0091100Y0060911D01*
X0091100Y0061909D02*
X0102732Y0061909D01*
X0103731Y0062908D02*
X0091100Y0062908D01*
X0091100Y0063906D02*
X0104729Y0063906D01*
X0105728Y0064905D02*
X0091100Y0064905D01*
X0091100Y0065903D02*
X0105802Y0065903D01*
X0104996Y0066902D02*
X0091100Y0066902D01*
X0091100Y0067900D02*
X0104953Y0067900D01*
X0104953Y0068899D02*
X0091100Y0068899D01*
X0091100Y0069897D02*
X0104953Y0069897D01*
X0104953Y0070114D02*
X0106912Y0070114D01*
X0106912Y0070114D01*
X0104953Y0070114D01*
X0104953Y0070896D02*
X0091100Y0070896D01*
X0091100Y0071894D02*
X0104953Y0071894D01*
X0104953Y0072893D02*
X0091100Y0072893D01*
X0091100Y0073891D02*
X0105254Y0073891D01*
X0107043Y0073970D02*
X0107043Y0074468D01*
X0107043Y0073970D01*
X0107043Y0073970D01*
X0107963Y0074890D02*
X0091100Y0074890D01*
X0091100Y0075888D02*
X0109561Y0075888D01*
X0109561Y0076887D02*
X0091100Y0076887D01*
X0091100Y0077885D02*
X0109561Y0077885D01*
X0109561Y0078884D02*
X0091100Y0078884D01*
X0091100Y0079882D02*
X0109561Y0079882D01*
X0109561Y0080881D02*
X0091100Y0080881D01*
X0091100Y0081879D02*
X0109561Y0081879D01*
X0109561Y0082878D02*
X0091100Y0082878D01*
X0091100Y0083876D02*
X0109561Y0083876D01*
X0109561Y0084875D02*
X0091100Y0084875D01*
X0091100Y0085873D02*
X0109561Y0085873D01*
X0109561Y0086872D02*
X0091100Y0086872D01*
X0091100Y0087870D02*
X0109561Y0087870D01*
X0109561Y0088869D02*
X0091100Y0088869D01*
X0083098Y0100598D02*
X0081000Y0100598D01*
X0083098Y0100598D02*
X0088500Y0106000D01*
X0088500Y0140500D01*
X0083598Y0135598D01*
X0081000Y0135598D01*
X0088500Y0140500D02*
X0088500Y0170000D01*
X0081000Y0153402D02*
X0081000Y0145500D01*
X0079000Y0143500D01*
X0076000Y0143500D01*
X0066500Y0134000D01*
X0066500Y0038000D01*
X0064819Y0036319D01*
X0059969Y0036319D01*
X0059969Y0038287D02*
X0062787Y0038287D01*
X0064000Y0039500D01*
X0064000Y0160000D01*
X0114417Y0169196D02*
X0114417Y0169196D01*
X0119203Y0169555D02*
X0119203Y0169555D01*
X0105293Y0200702D02*
X0175207Y0200702D01*
X0174208Y0201701D02*
X0106292Y0201701D01*
X0107290Y0202699D02*
X0173210Y0202699D01*
X0172211Y0203698D02*
X0108150Y0203698D01*
X0108150Y0204696D02*
X0171450Y0204696D01*
X0171450Y0205695D02*
X0108150Y0205695D01*
X0108150Y0206693D02*
X0171450Y0206693D01*
X0171450Y0207692D02*
X0108150Y0207692D01*
X0108150Y0208690D02*
X0171450Y0208690D01*
X0171450Y0209689D02*
X0123565Y0209689D01*
X0181893Y0200702D02*
X0369350Y0200702D01*
X0369350Y0199704D02*
X0367063Y0199704D01*
X0368062Y0198705D02*
X0369350Y0198705D01*
X0369350Y0197707D02*
X0368149Y0197707D01*
X0368469Y0196708D02*
X0369350Y0196708D01*
X0366902Y0194598D02*
X0369000Y0192500D01*
X0366902Y0194598D02*
X0362500Y0194598D01*
X0369350Y0201701D02*
X0255542Y0201701D01*
X0256540Y0202699D02*
X0318010Y0202699D01*
X0317011Y0203698D02*
X0257539Y0203698D01*
X0258537Y0204696D02*
X0316013Y0204696D01*
X0315014Y0205695D02*
X0259300Y0205695D01*
X0259300Y0206693D02*
X0314600Y0206693D01*
X0314600Y0207692D02*
X0259300Y0207692D01*
X0259300Y0208690D02*
X0314600Y0208690D01*
X0314600Y0209689D02*
X0259300Y0209689D01*
X0259300Y0210687D02*
X0314600Y0210687D01*
X0326389Y0203698D02*
X0369350Y0203698D01*
X0369350Y0204696D02*
X0327387Y0204696D01*
X0328386Y0205695D02*
X0369350Y0205695D01*
X0369350Y0206693D02*
X0328800Y0206693D01*
X0328800Y0207692D02*
X0369350Y0207692D01*
X0369350Y0208690D02*
X0328800Y0208690D01*
X0328800Y0209689D02*
X0369350Y0209689D01*
X0369350Y0210687D02*
X0328800Y0210687D01*
X0325390Y0202699D02*
X0369350Y0202699D01*
X0362500Y0183402D02*
X0362500Y0175500D01*
X0347500Y0160500D01*
X0347500Y0039000D01*
X0346787Y0038287D01*
X0344969Y0038287D01*
X0344969Y0036319D02*
X0348319Y0036319D01*
X0350000Y0038000D01*
X0350000Y0132500D01*
X0362500Y0145000D01*
X0362500Y0153902D01*
X0362500Y0123402D02*
X0362500Y0111500D01*
X0352000Y0101000D01*
X0352000Y0035500D01*
X0350850Y0034350D01*
X0344969Y0034350D01*
X0344969Y0024850D02*
X0362449Y0024850D01*
X0362500Y0024902D01*
X0356851Y0021969D02*
X0346828Y0021969D01*
X0343109Y0021969D02*
X0342891Y0021969D01*
X0356851Y0020970D02*
X0315149Y0020970D01*
X0315149Y0021969D02*
X0326317Y0021969D01*
X0314239Y0019972D02*
X0357761Y0019972D01*
X0362500Y0036098D02*
X0362500Y0037500D01*
X0368611Y0044934D02*
X0369350Y0044934D01*
X0354500Y0075500D02*
X0362500Y0083500D01*
X0362500Y0088402D01*
X0368149Y0088869D02*
X0369350Y0088869D01*
X0369350Y0089868D02*
X0368149Y0089868D01*
X0368149Y0090866D02*
X0369350Y0090866D01*
X0369350Y0091865D02*
X0368149Y0091865D01*
X0367707Y0092863D02*
X0369350Y0092863D01*
X0369350Y0093862D02*
X0354600Y0093862D01*
X0355528Y0100851D02*
X0356851Y0100851D01*
X0356851Y0101850D02*
X0356527Y0101850D01*
X0365000Y0107500D02*
X0369000Y0107500D01*
X0369350Y0101850D02*
X0368428Y0101850D01*
X0368149Y0100851D02*
X0369350Y0100851D01*
X0369350Y0099853D02*
X0368149Y0099853D01*
X0368149Y0098854D02*
X0369350Y0098854D01*
X0369350Y0097856D02*
X0368149Y0097856D01*
X0368149Y0096857D02*
X0369350Y0096857D01*
X0369350Y0095859D02*
X0368149Y0095859D01*
X0367430Y0094860D02*
X0369350Y0094860D01*
X0369350Y0087870D02*
X0368149Y0087870D01*
X0368149Y0086872D02*
X0369350Y0086872D01*
X0369350Y0085873D02*
X0368149Y0085873D01*
X0368149Y0084875D02*
X0369350Y0084875D01*
X0369350Y0083876D02*
X0367644Y0083876D01*
X0369350Y0082878D02*
X0365057Y0082878D01*
X0365389Y0081879D02*
X0364556Y0081879D01*
X0365200Y0080881D02*
X0363558Y0080881D01*
X0362559Y0079882D02*
X0365200Y0079882D01*
X0365200Y0078884D02*
X0361561Y0078884D01*
X0368500Y0078884D02*
X0369350Y0078884D01*
X0369350Y0079882D02*
X0368500Y0079882D01*
X0368500Y0080881D02*
X0369350Y0080881D01*
X0369350Y0081879D02*
X0368500Y0081879D01*
X0344900Y0101850D02*
X0332481Y0101850D01*
X0332251Y0102848D02*
X0344900Y0102848D01*
X0344900Y0103847D02*
X0331783Y0103847D01*
X0330785Y0104845D02*
X0344900Y0104845D01*
X0291400Y0064905D02*
X0266702Y0064905D01*
X0266702Y0063906D02*
X0291400Y0063906D01*
X0291400Y0062908D02*
X0266422Y0062908D01*
X0265586Y0061909D02*
X0291400Y0061909D01*
X0291400Y0060911D02*
X0264588Y0060911D01*
X0263589Y0059912D02*
X0291400Y0059912D01*
X0291400Y0058914D02*
X0262591Y0058914D01*
X0261592Y0057915D02*
X0291400Y0057915D01*
X0291400Y0056917D02*
X0260594Y0056917D01*
X0259595Y0055918D02*
X0291400Y0055918D01*
X0291400Y0054920D02*
X0258600Y0054920D01*
X0258600Y0053921D02*
X0291400Y0053921D01*
X0291400Y0052923D02*
X0258600Y0052923D01*
X0245000Y0045098D02*
X0236000Y0036098D01*
X0244598Y0036098D01*
X0245000Y0036500D01*
X0236000Y0047500D02*
X0230500Y0042000D01*
X0230500Y0029000D01*
X0228319Y0026819D01*
X0218469Y0026819D01*
X0218469Y0028787D02*
X0225787Y0028787D01*
X0228000Y0031000D01*
X0228000Y0070500D01*
X0236000Y0078500D01*
X0236000Y0088902D01*
X0245000Y0073500D02*
X0238598Y0067098D01*
X0236000Y0067098D01*
X0245000Y0073500D02*
X0245000Y0045098D01*
X0236000Y0047500D02*
X0236000Y0055902D01*
X0217900Y0055918D02*
X0186595Y0055918D01*
X0185597Y0054920D02*
X0217900Y0054920D01*
X0217900Y0053921D02*
X0184600Y0053921D01*
X0184600Y0052923D02*
X0217900Y0052923D01*
X0217900Y0051924D02*
X0184600Y0051924D01*
X0184600Y0050926D02*
X0185668Y0050926D01*
X0185353Y0049927D02*
X0184600Y0049927D01*
X0184600Y0048929D02*
X0185353Y0048929D01*
X0185353Y0047930D02*
X0184600Y0047930D01*
X0184600Y0046932D02*
X0185353Y0046932D01*
X0185353Y0045933D02*
X0184600Y0045933D01*
X0184600Y0044934D02*
X0185353Y0044934D01*
X0185353Y0043936D02*
X0184600Y0043936D01*
X0184600Y0042937D02*
X0185443Y0042937D01*
X0185443Y0041939D02*
X0184600Y0041939D01*
X0184600Y0040940D02*
X0185443Y0040940D01*
X0185443Y0039942D02*
X0184600Y0039942D01*
X0184600Y0038943D02*
X0185443Y0038943D01*
X0185443Y0037945D02*
X0185232Y0037945D01*
X0188043Y0035457D02*
X0196500Y0027000D01*
X0214350Y0027000D01*
X0214531Y0026819D01*
X0214531Y0028787D02*
X0214319Y0029000D01*
X0198500Y0029000D01*
X0190602Y0036898D01*
X0190602Y0046886D01*
X0188043Y0046886D02*
X0188043Y0035457D01*
X0182871Y0032952D02*
X0167649Y0032952D01*
X0167524Y0031954D02*
X0183869Y0031954D01*
X0184868Y0030955D02*
X0166526Y0030955D01*
X0166613Y0029957D02*
X0185866Y0029957D01*
X0186865Y0028958D02*
X0167612Y0028958D01*
X0167649Y0027960D02*
X0187863Y0027960D01*
X0188862Y0026961D02*
X0167649Y0026961D01*
X0167649Y0025963D02*
X0189860Y0025963D01*
X0190859Y0024964D02*
X0167649Y0024964D01*
X0167649Y0023966D02*
X0191857Y0023966D01*
X0192856Y0022967D02*
X0167649Y0022967D01*
X0167649Y0021969D02*
X0194317Y0021969D01*
X0201000Y0034000D02*
X0214181Y0034000D01*
X0214531Y0034350D01*
X0214531Y0036319D02*
X0214350Y0036500D01*
X0202000Y0036500D01*
X0195720Y0042780D01*
X0195720Y0046886D01*
X0193161Y0046886D02*
X0193161Y0041839D01*
X0201000Y0034000D01*
X0204000Y0038500D02*
X0214319Y0038500D01*
X0214531Y0038287D01*
X0218469Y0038287D02*
X0220287Y0038287D01*
X0221000Y0039000D01*
X0221000Y0042000D01*
X0220500Y0042500D01*
X0220500Y0159500D01*
X0236000Y0175000D01*
X0245000Y0174000D02*
X0245000Y0143000D01*
X0237098Y0135098D01*
X0236000Y0135098D01*
X0245000Y0143000D02*
X0245000Y0106500D01*
X0245000Y0073500D01*
X0217900Y0064905D02*
X0193202Y0064905D01*
X0193202Y0063906D02*
X0217900Y0063906D01*
X0217900Y0062908D02*
X0193129Y0062908D01*
X0192586Y0061909D02*
X0217900Y0061909D01*
X0217900Y0060911D02*
X0191588Y0060911D01*
X0190589Y0059912D02*
X0217900Y0059912D01*
X0217900Y0058914D02*
X0189591Y0058914D01*
X0188592Y0057915D02*
X0217900Y0057915D01*
X0217900Y0056917D02*
X0187594Y0056917D01*
X0198280Y0046886D02*
X0198280Y0044220D01*
X0204000Y0038500D01*
X0205957Y0046886D02*
X0213114Y0046886D01*
X0213500Y0046500D01*
X0217161Y0044934D02*
X0217900Y0044934D01*
X0217900Y0043936D02*
X0216566Y0043936D01*
X0217481Y0045933D02*
X0217900Y0045933D01*
X0217900Y0046932D02*
X0217481Y0046932D01*
X0217217Y0047930D02*
X0217900Y0047930D01*
X0217900Y0048929D02*
X0216702Y0048929D01*
X0215629Y0049927D02*
X0217900Y0049927D01*
X0217900Y0050926D02*
X0208332Y0050926D01*
X0208647Y0049927D02*
X0211371Y0049927D01*
X0195720Y0070114D02*
X0195720Y0080720D01*
X0197000Y0082000D01*
X0187912Y0070114D02*
X0187912Y0070114D01*
X0170500Y0075500D02*
X0170500Y0107500D01*
X0151000Y0102500D02*
X0151000Y0036000D01*
X0149350Y0034350D01*
X0144469Y0034350D01*
X0137473Y0041939D02*
X0133806Y0041939D01*
X0135068Y0042937D02*
X0138472Y0042937D01*
X0132000Y0045500D02*
X0130614Y0046886D01*
X0124957Y0046886D01*
X0127647Y0043936D02*
X0128339Y0043936D01*
X0128932Y0042937D02*
X0127423Y0042937D01*
X0126425Y0041939D02*
X0130194Y0041939D01*
X0107363Y0027960D02*
X0086649Y0027960D01*
X0086649Y0026961D02*
X0108362Y0026961D01*
X0109360Y0025963D02*
X0086649Y0025963D01*
X0086612Y0028958D02*
X0106365Y0028958D01*
X0105366Y0029957D02*
X0085613Y0029957D01*
X0085526Y0030955D02*
X0104368Y0030955D01*
X0103369Y0031954D02*
X0086524Y0031954D01*
X0086649Y0032952D02*
X0102371Y0032952D01*
X0101372Y0033951D02*
X0092335Y0033951D01*
X0093580Y0034949D02*
X0100621Y0034949D01*
X0100400Y0035948D02*
X0094166Y0035948D01*
X0094481Y0036946D02*
X0100400Y0036946D01*
X0100400Y0037945D02*
X0094481Y0037945D01*
X0094211Y0038943D02*
X0100400Y0038943D01*
X0100400Y0039942D02*
X0093688Y0039942D01*
X0092597Y0040940D02*
X0100400Y0040940D01*
X0100400Y0041939D02*
X0090517Y0041939D01*
X0091040Y0042937D02*
X0100400Y0042937D01*
X0100400Y0043936D02*
X0091100Y0043936D01*
X0091100Y0044934D02*
X0100400Y0044934D01*
X0100400Y0045933D02*
X0091100Y0045933D01*
X0088500Y0043598D02*
X0081000Y0036098D01*
X0089098Y0036098D01*
X0090500Y0037500D01*
X0088500Y0043598D02*
X0088500Y0073000D01*
X0083598Y0068098D01*
X0081000Y0068098D01*
X0088500Y0073000D02*
X0088500Y0106000D01*
X0081000Y0114000D02*
X0081000Y0124402D01*
X0081000Y0114000D02*
X0069000Y0102000D01*
X0069000Y0036000D01*
X0067350Y0034350D01*
X0059969Y0034350D01*
X0056031Y0034350D02*
X0055681Y0034000D01*
X0048000Y0034000D01*
X0042661Y0039339D01*
X0042661Y0046886D01*
X0045220Y0046886D02*
X0045220Y0041280D01*
X0050000Y0036500D01*
X0055850Y0036500D01*
X0056031Y0036319D01*
X0056031Y0038287D02*
X0055819Y0038500D01*
X0052000Y0038500D01*
X0047780Y0042720D01*
X0047780Y0046886D01*
X0055457Y0046886D02*
X0058614Y0046886D01*
X0059500Y0046000D01*
X0074000Y0044000D02*
X0080500Y0050500D01*
X0080500Y0056402D01*
X0081000Y0056902D01*
X0074000Y0044000D02*
X0074000Y0029000D01*
X0071819Y0026819D01*
X0059969Y0026819D01*
X0061828Y0021969D02*
X0075351Y0021969D01*
X0075351Y0020970D02*
X0018900Y0020970D01*
X0018900Y0019972D02*
X0076261Y0019972D01*
X0085739Y0019972D02*
X0157261Y0019972D01*
X0166739Y0019972D02*
X0231261Y0019972D01*
X0230351Y0020970D02*
X0167649Y0020970D01*
X0156000Y0028000D02*
X0156000Y0042000D01*
X0162000Y0048000D01*
X0162000Y0055902D01*
X0170519Y0040940D02*
X0170610Y0040940D01*
X0114720Y0070114D02*
X0114720Y0080220D01*
X0116500Y0082000D01*
X0132925Y0090866D02*
X0143400Y0090866D01*
X0143400Y0091865D02*
X0133339Y0091865D01*
X0133481Y0092863D02*
X0143400Y0092863D01*
X0143400Y0093862D02*
X0133452Y0093862D01*
X0133039Y0094860D02*
X0143400Y0094860D01*
X0180950Y0121820D02*
X0217900Y0121820D01*
X0217900Y0122818D02*
X0181613Y0122818D01*
X0181981Y0123817D02*
X0217900Y0123817D01*
X0217900Y0124815D02*
X0181981Y0124815D01*
X0181765Y0125814D02*
X0217900Y0125814D01*
X0217900Y0126812D02*
X0181318Y0126812D01*
X0180319Y0127811D02*
X0217900Y0127811D01*
X0272703Y0166555D02*
X0272703Y0166555D01*
X0247600Y0183728D02*
X0303851Y0183728D01*
X0303851Y0184726D02*
X0247600Y0184726D01*
X0247600Y0185725D02*
X0303851Y0185725D01*
X0303851Y0186723D02*
X0247600Y0186723D01*
X0248858Y0201701D02*
X0182892Y0201701D01*
X0183890Y0202699D02*
X0247860Y0202699D01*
X0246861Y0203698D02*
X0184889Y0203698D01*
X0185650Y0204696D02*
X0245863Y0204696D01*
X0245100Y0205695D02*
X0185650Y0205695D01*
X0185650Y0206693D02*
X0245100Y0206693D01*
X0245100Y0207692D02*
X0185650Y0207692D01*
X0185650Y0208690D02*
X0245100Y0208690D01*
X0245100Y0209689D02*
X0185650Y0209689D01*
X0200884Y0210687D02*
X0245100Y0210687D01*
X0270000Y0082000D02*
X0269220Y0081220D01*
X0269220Y0070114D01*
X0285891Y0021969D02*
X0286109Y0021969D01*
X0289828Y0021969D02*
X0303851Y0021969D01*
X0303851Y0020970D02*
X0241649Y0020970D01*
X0240739Y0019972D02*
X0304761Y0019972D01*
X0041317Y0021969D02*
X0018900Y0021969D01*
X0018900Y0022967D02*
X0039856Y0022967D01*
X0038857Y0023966D02*
X0018900Y0023966D01*
X0018900Y0024964D02*
X0037859Y0024964D01*
X0036860Y0025963D02*
X0018900Y0025963D01*
X0018900Y0026961D02*
X0035862Y0026961D01*
X0034863Y0027960D02*
X0018900Y0027960D01*
X0018900Y0028958D02*
X0033865Y0028958D01*
X0032866Y0029957D02*
X0018900Y0029957D01*
X0018900Y0030955D02*
X0031868Y0030955D01*
X0030869Y0031954D02*
X0018900Y0031954D01*
X0018900Y0032952D02*
X0029871Y0032952D01*
X0028872Y0033951D02*
X0018900Y0033951D01*
X0018900Y0034949D02*
X0028121Y0034949D01*
X0027900Y0035948D02*
X0018900Y0035948D01*
X0018900Y0036946D02*
X0027900Y0036946D01*
X0027900Y0037945D02*
X0018900Y0037945D01*
X0018900Y0038943D02*
X0027900Y0038943D01*
X0027900Y0039942D02*
X0018900Y0039942D01*
X0018900Y0040940D02*
X0027900Y0040940D01*
X0027900Y0041939D02*
X0018900Y0041939D01*
X0018900Y0042937D02*
X0027900Y0042937D01*
X0027900Y0043936D02*
X0018900Y0043936D01*
X0018900Y0044934D02*
X0027900Y0044934D01*
X0027900Y0045933D02*
X0018900Y0045933D01*
X0018900Y0046932D02*
X0027900Y0046932D01*
X0027900Y0047930D02*
X0018900Y0047930D01*
X0018900Y0048929D02*
X0027900Y0048929D01*
X0027900Y0049927D02*
X0018900Y0049927D01*
X0018900Y0050926D02*
X0027900Y0050926D01*
X0027900Y0051924D02*
X0018900Y0051924D01*
X0018900Y0052923D02*
X0027900Y0052923D01*
X0027900Y0053921D02*
X0018900Y0053921D01*
X0018900Y0054920D02*
X0027900Y0054920D01*
X0027900Y0055918D02*
X0018900Y0055918D01*
X0018900Y0056917D02*
X0028273Y0056917D01*
X0029238Y0057915D02*
X0018900Y0057915D01*
X0018900Y0058914D02*
X0030237Y0058914D01*
X0031235Y0059912D02*
X0018900Y0059912D01*
X0018900Y0060911D02*
X0032234Y0060911D01*
X0033232Y0061909D02*
X0018900Y0061909D01*
X0018900Y0062908D02*
X0034231Y0062908D01*
X0035229Y0063906D02*
X0018900Y0063906D01*
X0018900Y0064905D02*
X0036228Y0064905D01*
X0036302Y0065903D02*
X0018900Y0065903D01*
X0018900Y0066902D02*
X0035496Y0066902D01*
X0035453Y0067900D02*
X0018900Y0067900D01*
X0018900Y0068899D02*
X0035453Y0068899D01*
X0035453Y0069897D02*
X0018900Y0069897D01*
X0018900Y0070896D02*
X0035453Y0070896D01*
X0035453Y0070114D02*
X0037412Y0070114D01*
X0035453Y0070114D01*
X0035453Y0071894D02*
X0018900Y0071894D01*
X0018900Y0072893D02*
X0035453Y0072893D01*
X0035754Y0073891D02*
X0026963Y0073891D01*
X0027300Y0074890D02*
X0038463Y0074890D01*
X0037543Y0074468D02*
X0037543Y0073970D01*
X0037543Y0074468D01*
X0037543Y0073970D02*
X0037543Y0073970D01*
X0040061Y0075888D02*
X0027300Y0075888D01*
X0027300Y0076887D02*
X0040061Y0076887D01*
X0037412Y0070114D02*
X0037412Y0070114D01*
X0024000Y0073891D02*
X0023000Y0073891D01*
X0023000Y0074890D02*
X0024000Y0074890D01*
X0024000Y0075888D02*
X0023000Y0075888D01*
D19*
X0046500Y0082000D03*
X0048500Y0089000D03*
X0050000Y0097000D03*
X0059500Y0093000D03*
X0042500Y0117000D03*
X0096000Y0124000D03*
X0112000Y0105000D03*
X0122500Y0097000D03*
X0129500Y0093000D03*
X0120000Y0089000D03*
X0116500Y0082000D03*
X0132000Y0045500D03*
X0171500Y0037000D03*
X0213500Y0046500D03*
X0245000Y0036500D03*
X0286000Y0046500D03*
X0316500Y0027500D03*
X0339000Y0054500D03*
X0362500Y0072000D03*
X0362000Y0077000D03*
X0343500Y0093000D03*
X0337000Y0097000D03*
X0328500Y0101500D03*
X0334000Y0089000D03*
X0332500Y0082000D03*
X0321000Y0076500D03*
X0283500Y0093000D03*
X0278000Y0097000D03*
X0274000Y0089000D03*
X0270000Y0082000D03*
X0266500Y0102000D03*
X0252500Y0124500D03*
X0210000Y0093000D03*
X0204000Y0097000D03*
X0200000Y0089000D03*
X0197000Y0082000D03*
X0193000Y0101500D03*
X0178000Y0124500D03*
X0059500Y0046000D03*
X0090500Y0037500D03*
X0325000Y0126000D03*
X0365000Y0107500D03*
X0366500Y0041500D03*
D20*
X0362000Y0077000D02*
X0363000Y0078000D01*
X0369000Y0078000D01*
M02*
