G75*
%MOIN*%
%OFA0B0*%
%FSLAX25Y25*%
%IPPOS*%
%LPD*%
%AMOC8*
5,1,8,0,0,1.08239X$1,22.5*
%
%ADD10C,0.00000*%
%ADD11C,0.01600*%
%ADD12R,0.04600X0.06300*%
%ADD13R,0.01500X0.01500*%
%ADD14OC8,0.10000*%
%ADD15R,0.05906X0.05118*%
%ADD16R,0.05118X0.05906*%
%ADD17C,0.03762*%
%ADD18C,0.01000*%
%ADD19C,0.02400*%
D10*
X0001000Y0001000D02*
X0001500Y0249501D01*
X0394621Y0249501D01*
X0394121Y0001000D01*
X0001000Y0001000D01*
X0112488Y0153500D02*
X0112490Y0153648D01*
X0112496Y0153796D01*
X0112506Y0153944D01*
X0112520Y0154091D01*
X0112538Y0154238D01*
X0112559Y0154384D01*
X0112585Y0154530D01*
X0112615Y0154675D01*
X0112648Y0154819D01*
X0112686Y0154962D01*
X0112727Y0155104D01*
X0112772Y0155245D01*
X0112820Y0155385D01*
X0112873Y0155524D01*
X0112929Y0155661D01*
X0112989Y0155796D01*
X0113052Y0155930D01*
X0113119Y0156062D01*
X0113190Y0156192D01*
X0113264Y0156320D01*
X0113341Y0156446D01*
X0113422Y0156570D01*
X0113506Y0156692D01*
X0113593Y0156811D01*
X0113684Y0156928D01*
X0113778Y0157043D01*
X0113874Y0157155D01*
X0113974Y0157265D01*
X0114076Y0157371D01*
X0114182Y0157475D01*
X0114290Y0157576D01*
X0114401Y0157674D01*
X0114514Y0157770D01*
X0114630Y0157862D01*
X0114748Y0157951D01*
X0114869Y0158036D01*
X0114992Y0158119D01*
X0115117Y0158198D01*
X0115244Y0158274D01*
X0115373Y0158346D01*
X0115504Y0158415D01*
X0115637Y0158480D01*
X0115772Y0158541D01*
X0115908Y0158599D01*
X0116045Y0158654D01*
X0116184Y0158704D01*
X0116325Y0158751D01*
X0116466Y0158794D01*
X0116609Y0158834D01*
X0116753Y0158869D01*
X0116897Y0158901D01*
X0117043Y0158928D01*
X0117189Y0158952D01*
X0117336Y0158972D01*
X0117483Y0158988D01*
X0117630Y0159000D01*
X0117778Y0159008D01*
X0117926Y0159012D01*
X0118074Y0159012D01*
X0118222Y0159008D01*
X0118370Y0159000D01*
X0118517Y0158988D01*
X0118664Y0158972D01*
X0118811Y0158952D01*
X0118957Y0158928D01*
X0119103Y0158901D01*
X0119247Y0158869D01*
X0119391Y0158834D01*
X0119534Y0158794D01*
X0119675Y0158751D01*
X0119816Y0158704D01*
X0119955Y0158654D01*
X0120092Y0158599D01*
X0120228Y0158541D01*
X0120363Y0158480D01*
X0120496Y0158415D01*
X0120627Y0158346D01*
X0120756Y0158274D01*
X0120883Y0158198D01*
X0121008Y0158119D01*
X0121131Y0158036D01*
X0121252Y0157951D01*
X0121370Y0157862D01*
X0121486Y0157770D01*
X0121599Y0157674D01*
X0121710Y0157576D01*
X0121818Y0157475D01*
X0121924Y0157371D01*
X0122026Y0157265D01*
X0122126Y0157155D01*
X0122222Y0157043D01*
X0122316Y0156928D01*
X0122407Y0156811D01*
X0122494Y0156692D01*
X0122578Y0156570D01*
X0122659Y0156446D01*
X0122736Y0156320D01*
X0122810Y0156192D01*
X0122881Y0156062D01*
X0122948Y0155930D01*
X0123011Y0155796D01*
X0123071Y0155661D01*
X0123127Y0155524D01*
X0123180Y0155385D01*
X0123228Y0155245D01*
X0123273Y0155104D01*
X0123314Y0154962D01*
X0123352Y0154819D01*
X0123385Y0154675D01*
X0123415Y0154530D01*
X0123441Y0154384D01*
X0123462Y0154238D01*
X0123480Y0154091D01*
X0123494Y0153944D01*
X0123504Y0153796D01*
X0123510Y0153648D01*
X0123512Y0153500D01*
X0123510Y0153352D01*
X0123504Y0153204D01*
X0123494Y0153056D01*
X0123480Y0152909D01*
X0123462Y0152762D01*
X0123441Y0152616D01*
X0123415Y0152470D01*
X0123385Y0152325D01*
X0123352Y0152181D01*
X0123314Y0152038D01*
X0123273Y0151896D01*
X0123228Y0151755D01*
X0123180Y0151615D01*
X0123127Y0151476D01*
X0123071Y0151339D01*
X0123011Y0151204D01*
X0122948Y0151070D01*
X0122881Y0150938D01*
X0122810Y0150808D01*
X0122736Y0150680D01*
X0122659Y0150554D01*
X0122578Y0150430D01*
X0122494Y0150308D01*
X0122407Y0150189D01*
X0122316Y0150072D01*
X0122222Y0149957D01*
X0122126Y0149845D01*
X0122026Y0149735D01*
X0121924Y0149629D01*
X0121818Y0149525D01*
X0121710Y0149424D01*
X0121599Y0149326D01*
X0121486Y0149230D01*
X0121370Y0149138D01*
X0121252Y0149049D01*
X0121131Y0148964D01*
X0121008Y0148881D01*
X0120883Y0148802D01*
X0120756Y0148726D01*
X0120627Y0148654D01*
X0120496Y0148585D01*
X0120363Y0148520D01*
X0120228Y0148459D01*
X0120092Y0148401D01*
X0119955Y0148346D01*
X0119816Y0148296D01*
X0119675Y0148249D01*
X0119534Y0148206D01*
X0119391Y0148166D01*
X0119247Y0148131D01*
X0119103Y0148099D01*
X0118957Y0148072D01*
X0118811Y0148048D01*
X0118664Y0148028D01*
X0118517Y0148012D01*
X0118370Y0148000D01*
X0118222Y0147992D01*
X0118074Y0147988D01*
X0117926Y0147988D01*
X0117778Y0147992D01*
X0117630Y0148000D01*
X0117483Y0148012D01*
X0117336Y0148028D01*
X0117189Y0148048D01*
X0117043Y0148072D01*
X0116897Y0148099D01*
X0116753Y0148131D01*
X0116609Y0148166D01*
X0116466Y0148206D01*
X0116325Y0148249D01*
X0116184Y0148296D01*
X0116045Y0148346D01*
X0115908Y0148401D01*
X0115772Y0148459D01*
X0115637Y0148520D01*
X0115504Y0148585D01*
X0115373Y0148654D01*
X0115244Y0148726D01*
X0115117Y0148802D01*
X0114992Y0148881D01*
X0114869Y0148964D01*
X0114748Y0149049D01*
X0114630Y0149138D01*
X0114514Y0149230D01*
X0114401Y0149326D01*
X0114290Y0149424D01*
X0114182Y0149525D01*
X0114076Y0149629D01*
X0113974Y0149735D01*
X0113874Y0149845D01*
X0113778Y0149957D01*
X0113684Y0150072D01*
X0113593Y0150189D01*
X0113506Y0150308D01*
X0113422Y0150430D01*
X0113341Y0150554D01*
X0113264Y0150680D01*
X0113190Y0150808D01*
X0113119Y0150938D01*
X0113052Y0151070D01*
X0112989Y0151204D01*
X0112929Y0151339D01*
X0112873Y0151476D01*
X0112820Y0151615D01*
X0112772Y0151755D01*
X0112727Y0151896D01*
X0112686Y0152038D01*
X0112648Y0152181D01*
X0112615Y0152325D01*
X0112585Y0152470D01*
X0112559Y0152616D01*
X0112538Y0152762D01*
X0112520Y0152909D01*
X0112506Y0153056D01*
X0112496Y0153204D01*
X0112490Y0153352D01*
X0112488Y0153500D01*
X0265988Y0150500D02*
X0265990Y0150648D01*
X0265996Y0150796D01*
X0266006Y0150944D01*
X0266020Y0151091D01*
X0266038Y0151238D01*
X0266059Y0151384D01*
X0266085Y0151530D01*
X0266115Y0151675D01*
X0266148Y0151819D01*
X0266186Y0151962D01*
X0266227Y0152104D01*
X0266272Y0152245D01*
X0266320Y0152385D01*
X0266373Y0152524D01*
X0266429Y0152661D01*
X0266489Y0152796D01*
X0266552Y0152930D01*
X0266619Y0153062D01*
X0266690Y0153192D01*
X0266764Y0153320D01*
X0266841Y0153446D01*
X0266922Y0153570D01*
X0267006Y0153692D01*
X0267093Y0153811D01*
X0267184Y0153928D01*
X0267278Y0154043D01*
X0267374Y0154155D01*
X0267474Y0154265D01*
X0267576Y0154371D01*
X0267682Y0154475D01*
X0267790Y0154576D01*
X0267901Y0154674D01*
X0268014Y0154770D01*
X0268130Y0154862D01*
X0268248Y0154951D01*
X0268369Y0155036D01*
X0268492Y0155119D01*
X0268617Y0155198D01*
X0268744Y0155274D01*
X0268873Y0155346D01*
X0269004Y0155415D01*
X0269137Y0155480D01*
X0269272Y0155541D01*
X0269408Y0155599D01*
X0269545Y0155654D01*
X0269684Y0155704D01*
X0269825Y0155751D01*
X0269966Y0155794D01*
X0270109Y0155834D01*
X0270253Y0155869D01*
X0270397Y0155901D01*
X0270543Y0155928D01*
X0270689Y0155952D01*
X0270836Y0155972D01*
X0270983Y0155988D01*
X0271130Y0156000D01*
X0271278Y0156008D01*
X0271426Y0156012D01*
X0271574Y0156012D01*
X0271722Y0156008D01*
X0271870Y0156000D01*
X0272017Y0155988D01*
X0272164Y0155972D01*
X0272311Y0155952D01*
X0272457Y0155928D01*
X0272603Y0155901D01*
X0272747Y0155869D01*
X0272891Y0155834D01*
X0273034Y0155794D01*
X0273175Y0155751D01*
X0273316Y0155704D01*
X0273455Y0155654D01*
X0273592Y0155599D01*
X0273728Y0155541D01*
X0273863Y0155480D01*
X0273996Y0155415D01*
X0274127Y0155346D01*
X0274256Y0155274D01*
X0274383Y0155198D01*
X0274508Y0155119D01*
X0274631Y0155036D01*
X0274752Y0154951D01*
X0274870Y0154862D01*
X0274986Y0154770D01*
X0275099Y0154674D01*
X0275210Y0154576D01*
X0275318Y0154475D01*
X0275424Y0154371D01*
X0275526Y0154265D01*
X0275626Y0154155D01*
X0275722Y0154043D01*
X0275816Y0153928D01*
X0275907Y0153811D01*
X0275994Y0153692D01*
X0276078Y0153570D01*
X0276159Y0153446D01*
X0276236Y0153320D01*
X0276310Y0153192D01*
X0276381Y0153062D01*
X0276448Y0152930D01*
X0276511Y0152796D01*
X0276571Y0152661D01*
X0276627Y0152524D01*
X0276680Y0152385D01*
X0276728Y0152245D01*
X0276773Y0152104D01*
X0276814Y0151962D01*
X0276852Y0151819D01*
X0276885Y0151675D01*
X0276915Y0151530D01*
X0276941Y0151384D01*
X0276962Y0151238D01*
X0276980Y0151091D01*
X0276994Y0150944D01*
X0277004Y0150796D01*
X0277010Y0150648D01*
X0277012Y0150500D01*
X0277010Y0150352D01*
X0277004Y0150204D01*
X0276994Y0150056D01*
X0276980Y0149909D01*
X0276962Y0149762D01*
X0276941Y0149616D01*
X0276915Y0149470D01*
X0276885Y0149325D01*
X0276852Y0149181D01*
X0276814Y0149038D01*
X0276773Y0148896D01*
X0276728Y0148755D01*
X0276680Y0148615D01*
X0276627Y0148476D01*
X0276571Y0148339D01*
X0276511Y0148204D01*
X0276448Y0148070D01*
X0276381Y0147938D01*
X0276310Y0147808D01*
X0276236Y0147680D01*
X0276159Y0147554D01*
X0276078Y0147430D01*
X0275994Y0147308D01*
X0275907Y0147189D01*
X0275816Y0147072D01*
X0275722Y0146957D01*
X0275626Y0146845D01*
X0275526Y0146735D01*
X0275424Y0146629D01*
X0275318Y0146525D01*
X0275210Y0146424D01*
X0275099Y0146326D01*
X0274986Y0146230D01*
X0274870Y0146138D01*
X0274752Y0146049D01*
X0274631Y0145964D01*
X0274508Y0145881D01*
X0274383Y0145802D01*
X0274256Y0145726D01*
X0274127Y0145654D01*
X0273996Y0145585D01*
X0273863Y0145520D01*
X0273728Y0145459D01*
X0273592Y0145401D01*
X0273455Y0145346D01*
X0273316Y0145296D01*
X0273175Y0145249D01*
X0273034Y0145206D01*
X0272891Y0145166D01*
X0272747Y0145131D01*
X0272603Y0145099D01*
X0272457Y0145072D01*
X0272311Y0145048D01*
X0272164Y0145028D01*
X0272017Y0145012D01*
X0271870Y0145000D01*
X0271722Y0144992D01*
X0271574Y0144988D01*
X0271426Y0144988D01*
X0271278Y0144992D01*
X0271130Y0145000D01*
X0270983Y0145012D01*
X0270836Y0145028D01*
X0270689Y0145048D01*
X0270543Y0145072D01*
X0270397Y0145099D01*
X0270253Y0145131D01*
X0270109Y0145166D01*
X0269966Y0145206D01*
X0269825Y0145249D01*
X0269684Y0145296D01*
X0269545Y0145346D01*
X0269408Y0145401D01*
X0269272Y0145459D01*
X0269137Y0145520D01*
X0269004Y0145585D01*
X0268873Y0145654D01*
X0268744Y0145726D01*
X0268617Y0145802D01*
X0268492Y0145881D01*
X0268369Y0145964D01*
X0268248Y0146049D01*
X0268130Y0146138D01*
X0268014Y0146230D01*
X0267901Y0146326D01*
X0267790Y0146424D01*
X0267682Y0146525D01*
X0267576Y0146629D01*
X0267474Y0146735D01*
X0267374Y0146845D01*
X0267278Y0146957D01*
X0267184Y0147072D01*
X0267093Y0147189D01*
X0267006Y0147308D01*
X0266922Y0147430D01*
X0266841Y0147554D01*
X0266764Y0147680D01*
X0266690Y0147808D01*
X0266619Y0147938D01*
X0266552Y0148070D01*
X0266489Y0148204D01*
X0266429Y0148339D01*
X0266373Y0148476D01*
X0266320Y0148615D01*
X0266272Y0148755D01*
X0266227Y0148896D01*
X0266186Y0149038D01*
X0266148Y0149181D01*
X0266115Y0149325D01*
X0266085Y0149470D01*
X0266059Y0149616D01*
X0266038Y0149762D01*
X0266020Y0149909D01*
X0266006Y0150056D01*
X0265996Y0150204D01*
X0265990Y0150352D01*
X0265988Y0150500D01*
D11*
X0372200Y0215800D02*
X0016000Y0211200D01*
X0016000Y0215800D01*
X0372200Y0215800D01*
X0372250Y0215800D01*
X0372250Y0012000D01*
X0016000Y0011800D01*
X0016000Y0016500D01*
X0372300Y0012000D01*
X0016000Y0016500D02*
X0016000Y0030500D01*
X0016000Y0062000D01*
X0016000Y0211200D01*
D12*
X0017500Y0064500D03*
X0023500Y0064500D03*
X0369000Y0064500D03*
X0375000Y0064500D03*
D13*
X0370787Y0086500D03*
X0370787Y0089000D03*
X0370787Y0091500D03*
X0370787Y0094000D03*
X0367213Y0094000D03*
X0367213Y0091500D03*
X0367213Y0089000D03*
X0367213Y0086500D03*
X0019787Y0086500D03*
X0019787Y0089000D03*
X0019787Y0091500D03*
X0019787Y0094000D03*
X0019787Y0096500D03*
X0019787Y0099000D03*
X0019787Y0101500D03*
X0019787Y0104000D03*
X0019787Y0106500D03*
X0019787Y0109000D03*
X0019787Y0111500D03*
X0019787Y0114000D03*
X0019787Y0116500D03*
X0019787Y0119000D03*
X0019787Y0121500D03*
X0019787Y0124000D03*
X0019787Y0126500D03*
X0019787Y0129000D03*
X0019787Y0131500D03*
X0019787Y0134000D03*
X0019787Y0136500D03*
X0019787Y0139000D03*
X0019787Y0141500D03*
X0019787Y0144000D03*
X0019787Y0146000D03*
X0019787Y0148500D03*
X0019787Y0151000D03*
X0019787Y0153500D03*
X0019787Y0156000D03*
X0016213Y0156000D03*
X0016213Y0153500D03*
X0016213Y0151000D03*
X0016213Y0148500D03*
X0016213Y0146000D03*
X0016213Y0144000D03*
X0016213Y0141500D03*
X0016213Y0139000D03*
X0016213Y0136500D03*
X0016213Y0134000D03*
X0016213Y0131500D03*
X0016213Y0129000D03*
X0016213Y0126500D03*
X0016213Y0124000D03*
X0016213Y0121500D03*
X0016213Y0119000D03*
X0016213Y0116500D03*
X0016213Y0114000D03*
X0016213Y0111500D03*
X0016213Y0109000D03*
X0016213Y0106500D03*
X0016213Y0104000D03*
X0016213Y0101500D03*
X0016213Y0099000D03*
X0016213Y0096500D03*
X0016213Y0094000D03*
X0016213Y0091500D03*
X0016213Y0089000D03*
X0016213Y0086500D03*
D14*
X0022350Y0205300D03*
X0101050Y0206500D03*
X0178550Y0207400D03*
X0252200Y0208400D03*
X0321700Y0209050D03*
D15*
X0058000Y0192740D03*
X0058000Y0185260D03*
X0039450Y0184760D03*
X0039450Y0192240D03*
X0022400Y0192240D03*
X0022400Y0184760D03*
D16*
X0226760Y0206950D03*
X0234240Y0206950D03*
X0299760Y0207400D03*
X0307240Y0207400D03*
D17*
X0325000Y0126000D03*
X0328500Y0101500D03*
X0337000Y0097000D03*
X0343500Y0093000D03*
X0334000Y0089000D03*
X0332500Y0082000D03*
X0321000Y0076500D03*
X0339000Y0054500D03*
X0362500Y0072000D03*
X0362000Y0077000D03*
X0365000Y0107500D03*
X0283500Y0093000D03*
X0278000Y0097000D03*
X0274000Y0089000D03*
X0270000Y0082000D03*
X0266500Y0102000D03*
X0252500Y0124500D03*
X0210000Y0093000D03*
X0204000Y0097000D03*
X0200000Y0089000D03*
X0197000Y0082000D03*
X0193000Y0101500D03*
X0178000Y0124500D03*
X0129500Y0093000D03*
X0122500Y0097000D03*
X0120000Y0089000D03*
X0116500Y0082000D03*
X0112000Y0105000D03*
X0096000Y0124000D03*
X0059500Y0093000D03*
X0050000Y0097000D03*
X0048500Y0089000D03*
X0046500Y0082000D03*
X0042500Y0117000D03*
X0059500Y0046000D03*
X0090500Y0037500D03*
X0132000Y0045500D03*
X0171500Y0037000D03*
X0213500Y0046500D03*
X0245000Y0036500D03*
X0286000Y0046500D03*
X0316500Y0027500D03*
X0366500Y0041500D03*
D18*
X0366500Y0059000D01*
X0362000Y0054500D01*
X0339000Y0054500D01*
X0323255Y0073125D02*
X0321792Y0072519D01*
X0320208Y0072519D01*
X0318745Y0073125D01*
X0317625Y0074245D01*
X0317019Y0075708D01*
X0317019Y0077292D01*
X0317625Y0078755D01*
X0318270Y0079400D01*
X0273030Y0079400D01*
X0272255Y0078625D01*
X0270792Y0078019D01*
X0269208Y0078019D01*
X0267745Y0078625D01*
X0266970Y0079400D01*
X0200030Y0079400D01*
X0199255Y0078625D01*
X0197792Y0078019D01*
X0196208Y0078019D01*
X0194745Y0078625D01*
X0193970Y0079400D01*
X0119530Y0079400D01*
X0118755Y0078625D01*
X0117292Y0078019D01*
X0115708Y0078019D01*
X0114245Y0078625D01*
X0113470Y0079400D01*
X0049530Y0079400D01*
X0048755Y0078625D01*
X0047292Y0078019D01*
X0045708Y0078019D01*
X0044245Y0078625D01*
X0043470Y0079400D01*
X0032983Y0079400D01*
X0032027Y0079796D01*
X0027923Y0083900D01*
X0021657Y0083900D01*
X0021407Y0083650D01*
X0018900Y0083650D01*
X0018900Y0069150D01*
X0019997Y0069150D01*
X0020379Y0069048D01*
X0020500Y0068978D01*
X0020621Y0069048D01*
X0021003Y0069150D01*
X0023000Y0069150D01*
X0023000Y0065000D01*
X0024000Y0065000D01*
X0024000Y0069150D01*
X0025997Y0069150D01*
X0026379Y0069048D01*
X0026721Y0068850D01*
X0027000Y0068571D01*
X0027198Y0068229D01*
X0027300Y0067847D01*
X0027300Y0065000D01*
X0024000Y0065000D01*
X0024000Y0064000D01*
X0027300Y0064000D01*
X0027300Y0061153D01*
X0027198Y0060771D01*
X0027000Y0060429D01*
X0026721Y0060150D01*
X0026379Y0059952D01*
X0025997Y0059850D01*
X0024000Y0059850D01*
X0024000Y0064000D01*
X0023000Y0064000D01*
X0018900Y0064000D01*
X0018900Y0065000D01*
X0023000Y0065000D01*
X0023000Y0064000D01*
X0023000Y0059850D01*
X0021003Y0059850D01*
X0020621Y0059952D01*
X0020500Y0060022D01*
X0020379Y0059952D01*
X0019997Y0059850D01*
X0018900Y0059850D01*
X0018900Y0019364D01*
X0324811Y0015500D01*
X0369350Y0015500D01*
X0369350Y0064000D01*
X0368500Y0064000D01*
X0368500Y0059850D01*
X0366503Y0059850D01*
X0366121Y0059952D01*
X0365779Y0060150D01*
X0365500Y0060429D01*
X0365302Y0060771D01*
X0365200Y0061153D01*
X0365200Y0064000D01*
X0368500Y0064000D01*
X0368500Y0065000D01*
X0368500Y0069150D01*
X0366503Y0069150D01*
X0366121Y0069048D01*
X0365779Y0068850D01*
X0365500Y0068571D01*
X0365302Y0068229D01*
X0365200Y0067847D01*
X0365200Y0065000D01*
X0368500Y0065000D01*
X0369350Y0065000D01*
X0369350Y0083650D01*
X0369168Y0083650D01*
X0369000Y0083818D01*
X0368832Y0083650D01*
X0368040Y0083650D01*
X0364510Y0080120D01*
X0365375Y0079255D01*
X0365981Y0077792D01*
X0365981Y0076208D01*
X0365375Y0074745D01*
X0364255Y0073625D01*
X0362792Y0073019D01*
X0361208Y0073019D01*
X0359745Y0073625D01*
X0359670Y0073700D01*
X0323830Y0073700D01*
X0323255Y0073125D01*
X0322695Y0072893D02*
X0369350Y0072893D01*
X0369350Y0073891D02*
X0364521Y0073891D01*
X0365435Y0074890D02*
X0369350Y0074890D01*
X0369350Y0075888D02*
X0365849Y0075888D01*
X0365981Y0076887D02*
X0369350Y0076887D01*
X0369350Y0077885D02*
X0365942Y0077885D01*
X0365529Y0078884D02*
X0369350Y0078884D01*
X0369350Y0079882D02*
X0364748Y0079882D01*
X0365270Y0080881D02*
X0369350Y0080881D01*
X0369350Y0081879D02*
X0366269Y0081879D01*
X0367267Y0082878D02*
X0369350Y0082878D01*
X0367213Y0086500D02*
X0362713Y0082000D01*
X0332500Y0082000D01*
X0270000Y0082000D01*
X0197000Y0082000D01*
X0116500Y0082000D01*
X0046500Y0082000D01*
X0033500Y0082000D01*
X0029000Y0086500D01*
X0019787Y0086500D01*
X0019787Y0089000D02*
X0048500Y0089000D01*
X0120000Y0089000D01*
X0200000Y0089000D01*
X0274000Y0089000D01*
X0334000Y0089000D01*
X0367213Y0089000D01*
X0367213Y0091500D02*
X0355500Y0091500D01*
X0354000Y0093000D01*
X0343500Y0093000D01*
X0283500Y0093000D01*
X0210000Y0093000D01*
X0129500Y0093000D01*
X0059500Y0093000D01*
X0036500Y0093000D01*
X0035000Y0091500D01*
X0019787Y0091500D01*
X0019787Y0094000D02*
X0033500Y0094000D01*
X0036500Y0097000D01*
X0050000Y0097000D01*
X0122500Y0097000D01*
X0204000Y0097000D01*
X0278000Y0097000D01*
X0337000Y0097000D01*
X0354500Y0097000D01*
X0357500Y0094000D01*
X0367213Y0094000D01*
X0365343Y0096600D02*
X0358577Y0096600D01*
X0355973Y0099204D01*
X0355017Y0099600D01*
X0340030Y0099600D01*
X0339255Y0100375D01*
X0337792Y0100981D01*
X0336208Y0100981D01*
X0334745Y0100375D01*
X0333970Y0099600D01*
X0332022Y0099600D01*
X0332481Y0100708D01*
X0332481Y0102292D01*
X0331875Y0103755D01*
X0331100Y0104530D01*
X0331100Y0109017D01*
X0330704Y0109973D01*
X0329973Y0110704D01*
X0325473Y0115204D01*
X0324517Y0115600D01*
X0046229Y0115600D01*
X0046481Y0116208D01*
X0046481Y0117792D01*
X0045875Y0119255D01*
X0044755Y0120375D01*
X0043292Y0120981D01*
X0041708Y0120981D01*
X0040245Y0120375D01*
X0039470Y0119600D01*
X0035983Y0119600D01*
X0035027Y0119204D01*
X0034296Y0118473D01*
X0024923Y0109100D01*
X0022637Y0109100D01*
X0022637Y0143400D01*
X0037017Y0143400D01*
X0037973Y0143796D01*
X0073311Y0179134D01*
X0073707Y0180090D01*
X0073707Y0191530D01*
X0075477Y0193300D01*
X0252627Y0193300D01*
X0253582Y0193696D01*
X0254314Y0194427D01*
X0264686Y0204800D01*
X0295101Y0204800D01*
X0295101Y0203577D01*
X0296331Y0202347D01*
X0303189Y0202347D01*
X0303500Y0202659D01*
X0303811Y0202347D01*
X0310669Y0202347D01*
X0311899Y0203577D01*
X0311899Y0204800D01*
X0315909Y0204800D01*
X0318759Y0201950D01*
X0324641Y0201950D01*
X0328800Y0206109D01*
X0328800Y0211500D01*
X0369350Y0211500D01*
X0369350Y0096850D01*
X0369168Y0096850D01*
X0369000Y0096682D01*
X0368832Y0096850D01*
X0365593Y0096850D01*
X0365343Y0096600D01*
X0369350Y0096857D02*
X0358320Y0096857D01*
X0357321Y0097856D02*
X0369350Y0097856D01*
X0369350Y0098854D02*
X0356323Y0098854D01*
X0369350Y0099853D02*
X0339777Y0099853D01*
X0338106Y0100851D02*
X0369350Y0100851D01*
X0369350Y0101850D02*
X0332481Y0101850D01*
X0332481Y0100851D02*
X0335894Y0100851D01*
X0334223Y0099853D02*
X0332127Y0099853D01*
X0328500Y0101500D02*
X0328500Y0108500D01*
X0324000Y0113000D01*
X0036500Y0113000D01*
X0027500Y0104000D01*
X0019787Y0104000D01*
X0019787Y0101500D02*
X0029000Y0101500D01*
X0036500Y0109000D01*
X0264000Y0109000D01*
X0266500Y0106500D01*
X0266500Y0102000D01*
X0267486Y0078884D02*
X0199514Y0078884D01*
X0194486Y0078884D02*
X0119014Y0078884D01*
X0113986Y0078884D02*
X0049014Y0078884D01*
X0043986Y0078884D02*
X0018900Y0078884D01*
X0018900Y0079882D02*
X0031941Y0079882D01*
X0030942Y0080881D02*
X0018900Y0080881D01*
X0018900Y0081879D02*
X0029944Y0081879D01*
X0028945Y0082878D02*
X0018900Y0082878D01*
X0021634Y0083876D02*
X0027947Y0083876D01*
X0018900Y0077885D02*
X0317265Y0077885D01*
X0317019Y0076887D02*
X0018900Y0076887D01*
X0018900Y0075888D02*
X0317019Y0075888D01*
X0317358Y0074890D02*
X0018900Y0074890D01*
X0018900Y0073891D02*
X0317979Y0073891D01*
X0319305Y0072893D02*
X0018900Y0072893D01*
X0018900Y0071894D02*
X0369350Y0071894D01*
X0369350Y0070896D02*
X0018900Y0070896D01*
X0018900Y0069897D02*
X0369350Y0069897D01*
X0369350Y0068899D02*
X0368500Y0068899D01*
X0368500Y0067900D02*
X0369350Y0067900D01*
X0369350Y0066902D02*
X0368500Y0066902D01*
X0368500Y0065903D02*
X0369350Y0065903D01*
X0368500Y0064905D02*
X0024000Y0064905D01*
X0023500Y0064500D02*
X0032000Y0064500D01*
X0041500Y0055000D01*
X0058500Y0055000D01*
X0059500Y0054000D01*
X0059500Y0046000D01*
X0082000Y0046000D01*
X0090500Y0037500D01*
X0128870Y0017975D02*
X0369350Y0017975D01*
X0369350Y0018973D02*
X0049809Y0018973D01*
X0018900Y0019972D02*
X0369350Y0019972D01*
X0369350Y0020970D02*
X0018900Y0020970D01*
X0018900Y0021969D02*
X0369350Y0021969D01*
X0369350Y0022967D02*
X0018900Y0022967D01*
X0018900Y0023966D02*
X0369350Y0023966D01*
X0369350Y0024964D02*
X0018900Y0024964D01*
X0018900Y0025963D02*
X0369350Y0025963D01*
X0369350Y0026961D02*
X0018900Y0026961D01*
X0018900Y0027960D02*
X0369350Y0027960D01*
X0369350Y0028958D02*
X0018900Y0028958D01*
X0018900Y0029957D02*
X0369350Y0029957D01*
X0369350Y0030955D02*
X0018900Y0030955D01*
X0018900Y0031954D02*
X0369350Y0031954D01*
X0369350Y0032952D02*
X0018900Y0032952D01*
X0018900Y0033951D02*
X0369350Y0033951D01*
X0369350Y0034949D02*
X0018900Y0034949D01*
X0018900Y0035948D02*
X0369350Y0035948D01*
X0369350Y0036946D02*
X0018900Y0036946D01*
X0018900Y0037945D02*
X0369350Y0037945D01*
X0369350Y0038943D02*
X0018900Y0038943D01*
X0018900Y0039942D02*
X0369350Y0039942D01*
X0369350Y0040940D02*
X0018900Y0040940D01*
X0018900Y0041939D02*
X0369350Y0041939D01*
X0369350Y0042937D02*
X0018900Y0042937D01*
X0018900Y0043936D02*
X0369350Y0043936D01*
X0369350Y0044934D02*
X0018900Y0044934D01*
X0018900Y0045933D02*
X0369350Y0045933D01*
X0369350Y0046932D02*
X0018900Y0046932D01*
X0018900Y0047930D02*
X0369350Y0047930D01*
X0369350Y0048929D02*
X0018900Y0048929D01*
X0018900Y0049927D02*
X0369350Y0049927D01*
X0369350Y0050926D02*
X0018900Y0050926D01*
X0018900Y0051924D02*
X0369350Y0051924D01*
X0369350Y0052923D02*
X0018900Y0052923D01*
X0018900Y0053921D02*
X0369350Y0053921D01*
X0369350Y0054920D02*
X0018900Y0054920D01*
X0018900Y0055918D02*
X0369350Y0055918D01*
X0369350Y0056917D02*
X0018900Y0056917D01*
X0018900Y0057915D02*
X0369350Y0057915D01*
X0369350Y0058914D02*
X0018900Y0058914D01*
X0020229Y0059912D02*
X0020770Y0059912D01*
X0023000Y0059912D02*
X0024000Y0059912D01*
X0024000Y0060911D02*
X0023000Y0060911D01*
X0023000Y0061909D02*
X0024000Y0061909D01*
X0024000Y0062908D02*
X0023000Y0062908D01*
X0023000Y0063906D02*
X0024000Y0063906D01*
X0023000Y0064905D02*
X0018900Y0064905D01*
X0023000Y0065903D02*
X0024000Y0065903D01*
X0024000Y0066902D02*
X0023000Y0066902D01*
X0023000Y0067900D02*
X0024000Y0067900D01*
X0024000Y0068899D02*
X0023000Y0068899D01*
X0026637Y0068899D02*
X0365863Y0068899D01*
X0365214Y0067900D02*
X0027286Y0067900D01*
X0027300Y0066902D02*
X0365200Y0066902D01*
X0365200Y0065903D02*
X0027300Y0065903D01*
X0027300Y0063906D02*
X0365200Y0063906D01*
X0365200Y0062908D02*
X0027300Y0062908D01*
X0027300Y0061909D02*
X0365200Y0061909D01*
X0365265Y0060911D02*
X0027235Y0060911D01*
X0026229Y0059912D02*
X0366270Y0059912D01*
X0366500Y0059000D02*
X0366500Y0062000D01*
X0369000Y0064500D01*
X0362500Y0071000D01*
X0362500Y0072000D01*
X0368500Y0063906D02*
X0369350Y0063906D01*
X0369350Y0062908D02*
X0368500Y0062908D01*
X0368500Y0061909D02*
X0369350Y0061909D01*
X0369350Y0060911D02*
X0368500Y0060911D01*
X0368500Y0059912D02*
X0369350Y0059912D01*
X0317754Y0078884D02*
X0272514Y0078884D01*
X0286000Y0046500D02*
X0306500Y0046500D01*
X0309500Y0043500D01*
X0309500Y0034000D01*
X0316500Y0027500D01*
X0286990Y0015978D02*
X0369350Y0015978D01*
X0369350Y0016976D02*
X0207930Y0016976D01*
X0235000Y0046500D02*
X0245000Y0036500D01*
X0235000Y0046500D02*
X0213500Y0046500D01*
X0171500Y0037000D02*
X0163000Y0045500D01*
X0132000Y0045500D01*
X0192500Y0101000D02*
X0193000Y0101500D01*
X0192500Y0101000D02*
X0036500Y0101000D01*
X0032000Y0096500D01*
X0019787Y0096500D01*
X0019787Y0099000D02*
X0030500Y0099000D01*
X0036500Y0105000D01*
X0112000Y0105000D01*
X0114417Y0137804D02*
X0119203Y0137445D01*
X0119203Y0137445D01*
X0123882Y0138513D01*
X0128038Y0140913D01*
X0131302Y0144431D01*
X0133385Y0148754D01*
X0134100Y0153500D01*
X0133385Y0158246D01*
X0131302Y0162569D01*
X0128038Y0166087D01*
X0123882Y0168487D01*
X0119203Y0169555D01*
X0114417Y0169196D01*
X0109950Y0167443D01*
X0109950Y0167443D01*
X0106198Y0164451D01*
X0103494Y0160486D01*
X0102080Y0155900D01*
X0102080Y0151100D01*
X0103494Y0146514D01*
X0106198Y0142549D01*
X0109950Y0139557D01*
X0114417Y0137804D01*
X0114417Y0137804D01*
X0114519Y0137796D02*
X0022637Y0137796D01*
X0022637Y0136798D02*
X0263148Y0136798D01*
X0263450Y0136557D02*
X0263450Y0136557D01*
X0267917Y0134804D01*
X0267917Y0134804D01*
X0272703Y0134445D01*
X0272703Y0134445D01*
X0277382Y0135513D01*
X0281538Y0137913D01*
X0284802Y0141431D01*
X0286885Y0145754D01*
X0286885Y0145754D01*
X0287600Y0150500D01*
X0286885Y0155246D01*
X0284802Y0159569D01*
X0281538Y0163087D01*
X0277382Y0165487D01*
X0272703Y0166555D01*
X0267917Y0166196D01*
X0263450Y0164443D01*
X0263450Y0164443D01*
X0259698Y0161451D01*
X0259698Y0161451D01*
X0256994Y0157486D01*
X0255580Y0152900D01*
X0255580Y0148100D01*
X0256994Y0143514D01*
X0259698Y0139549D01*
X0263450Y0136557D01*
X0261896Y0137796D02*
X0120741Y0137796D01*
X0123882Y0138513D02*
X0123882Y0138513D01*
X0124370Y0138795D02*
X0260644Y0138795D01*
X0259698Y0139549D02*
X0259698Y0139549D01*
X0259698Y0139549D01*
X0259532Y0139793D02*
X0126099Y0139793D01*
X0127829Y0140792D02*
X0258851Y0140792D01*
X0258170Y0141790D02*
X0128852Y0141790D01*
X0128038Y0140913D02*
X0128038Y0140913D01*
X0129779Y0142789D02*
X0257489Y0142789D01*
X0256994Y0143514D02*
X0256994Y0143514D01*
X0256910Y0143787D02*
X0130705Y0143787D01*
X0131473Y0144786D02*
X0256602Y0144786D01*
X0256294Y0145784D02*
X0131954Y0145784D01*
X0132435Y0146783D02*
X0255986Y0146783D01*
X0255678Y0147781D02*
X0132916Y0147781D01*
X0133389Y0148780D02*
X0255580Y0148780D01*
X0255580Y0149778D02*
X0133539Y0149778D01*
X0133690Y0150777D02*
X0255580Y0150777D01*
X0255580Y0151775D02*
X0133840Y0151775D01*
X0133991Y0152774D02*
X0255580Y0152774D01*
X0255849Y0153772D02*
X0134059Y0153772D01*
X0134100Y0153500D02*
X0134100Y0153500D01*
X0133908Y0154771D02*
X0256157Y0154771D01*
X0256465Y0155769D02*
X0133758Y0155769D01*
X0133607Y0156768D02*
X0256773Y0156768D01*
X0256994Y0157486D02*
X0256994Y0157486D01*
X0257186Y0157766D02*
X0133457Y0157766D01*
X0133385Y0158246D02*
X0133385Y0158246D01*
X0133135Y0158765D02*
X0257867Y0158765D01*
X0258547Y0159763D02*
X0132654Y0159763D01*
X0132173Y0160762D02*
X0259228Y0160762D01*
X0259698Y0161451D02*
X0259698Y0161451D01*
X0260086Y0161760D02*
X0131692Y0161760D01*
X0131302Y0162569D02*
X0131302Y0162569D01*
X0131127Y0162759D02*
X0261338Y0162759D01*
X0262590Y0163757D02*
X0130200Y0163757D01*
X0129274Y0164756D02*
X0264247Y0164756D01*
X0266791Y0165754D02*
X0128347Y0165754D01*
X0128038Y0166087D02*
X0128038Y0166087D01*
X0126886Y0166753D02*
X0369350Y0166753D01*
X0369350Y0167751D02*
X0125156Y0167751D01*
X0123882Y0168487D02*
X0123882Y0168487D01*
X0122730Y0168750D02*
X0369350Y0168750D01*
X0369350Y0169748D02*
X0063925Y0169748D01*
X0062927Y0168750D02*
X0113280Y0168750D01*
X0114417Y0169196D02*
X0114417Y0169196D01*
X0110736Y0167751D02*
X0061928Y0167751D01*
X0060930Y0166753D02*
X0109085Y0166753D01*
X0107833Y0165754D02*
X0059931Y0165754D01*
X0058933Y0164756D02*
X0106580Y0164756D01*
X0106198Y0164451D02*
X0106198Y0164451D01*
X0105725Y0163757D02*
X0057934Y0163757D01*
X0056936Y0162759D02*
X0105044Y0162759D01*
X0104364Y0161760D02*
X0055937Y0161760D01*
X0054939Y0160762D02*
X0103683Y0160762D01*
X0103494Y0160486D02*
X0103494Y0160486D01*
X0103272Y0159763D02*
X0053940Y0159763D01*
X0052942Y0158765D02*
X0102964Y0158765D01*
X0102656Y0157766D02*
X0051943Y0157766D01*
X0050945Y0156768D02*
X0102348Y0156768D01*
X0102080Y0155769D02*
X0049946Y0155769D01*
X0048948Y0154771D02*
X0102080Y0154771D01*
X0102080Y0153772D02*
X0047949Y0153772D01*
X0046951Y0152774D02*
X0102080Y0152774D01*
X0102080Y0151775D02*
X0045952Y0151775D01*
X0044954Y0150777D02*
X0102180Y0150777D01*
X0102488Y0149778D02*
X0043955Y0149778D01*
X0042957Y0148780D02*
X0102796Y0148780D01*
X0103104Y0147781D02*
X0041958Y0147781D01*
X0040960Y0146783D02*
X0103412Y0146783D01*
X0103494Y0146514D02*
X0103494Y0146514D01*
X0103992Y0145784D02*
X0039961Y0145784D01*
X0038963Y0144786D02*
X0104673Y0144786D01*
X0105354Y0143787D02*
X0037952Y0143787D01*
X0036500Y0146000D02*
X0071107Y0180607D01*
X0071107Y0192607D01*
X0074400Y0195900D01*
X0252110Y0195900D01*
X0263610Y0207400D01*
X0299760Y0207400D01*
X0295101Y0204696D02*
X0264583Y0204696D01*
X0263584Y0203698D02*
X0295101Y0203698D01*
X0295979Y0202699D02*
X0262586Y0202699D01*
X0261587Y0201701D02*
X0369350Y0201701D01*
X0369350Y0202699D02*
X0325390Y0202699D01*
X0326389Y0203698D02*
X0369350Y0203698D01*
X0369350Y0204696D02*
X0327387Y0204696D01*
X0328386Y0205695D02*
X0369350Y0205695D01*
X0369350Y0206693D02*
X0328800Y0206693D01*
X0328800Y0207692D02*
X0369350Y0207692D01*
X0369350Y0208690D02*
X0328800Y0208690D01*
X0328800Y0209689D02*
X0369350Y0209689D01*
X0369350Y0210687D02*
X0328800Y0210687D01*
X0321700Y0209050D02*
X0320050Y0207400D01*
X0307240Y0207400D01*
X0311899Y0204696D02*
X0316013Y0204696D01*
X0317011Y0203698D02*
X0311899Y0203698D01*
X0311021Y0202699D02*
X0318010Y0202699D01*
X0369350Y0200702D02*
X0260589Y0200702D01*
X0259590Y0199704D02*
X0369350Y0199704D01*
X0369350Y0198705D02*
X0258592Y0198705D01*
X0257593Y0197707D02*
X0369350Y0197707D01*
X0369350Y0196708D02*
X0256595Y0196708D01*
X0255596Y0195710D02*
X0369350Y0195710D01*
X0369350Y0194711D02*
X0254598Y0194711D01*
X0253599Y0193713D02*
X0369350Y0193713D01*
X0369350Y0192714D02*
X0074891Y0192714D01*
X0073893Y0191716D02*
X0369350Y0191716D01*
X0369350Y0190717D02*
X0073707Y0190717D01*
X0073707Y0189719D02*
X0369350Y0189719D01*
X0369350Y0188720D02*
X0073707Y0188720D01*
X0073707Y0187722D02*
X0369350Y0187722D01*
X0369350Y0186723D02*
X0073707Y0186723D01*
X0073707Y0185725D02*
X0369350Y0185725D01*
X0369350Y0184726D02*
X0073707Y0184726D01*
X0073707Y0183728D02*
X0369350Y0183728D01*
X0369350Y0182729D02*
X0073707Y0182729D01*
X0073707Y0181731D02*
X0369350Y0181731D01*
X0369350Y0180732D02*
X0073707Y0180732D01*
X0073559Y0179734D02*
X0369350Y0179734D01*
X0369350Y0178735D02*
X0072912Y0178735D01*
X0071913Y0177737D02*
X0369350Y0177737D01*
X0369350Y0176738D02*
X0070915Y0176738D01*
X0069916Y0175739D02*
X0369350Y0175739D01*
X0369350Y0174741D02*
X0068918Y0174741D01*
X0067919Y0173742D02*
X0369350Y0173742D01*
X0369350Y0172744D02*
X0066921Y0172744D01*
X0065922Y0171745D02*
X0369350Y0171745D01*
X0369350Y0170747D02*
X0064924Y0170747D01*
X0058000Y0178500D02*
X0030500Y0151000D01*
X0019787Y0151000D01*
X0019787Y0148500D02*
X0034000Y0148500D01*
X0066500Y0181000D01*
X0066500Y0195500D01*
X0068700Y0197700D01*
X0180760Y0197700D01*
X0190010Y0206950D01*
X0226760Y0206950D01*
X0234240Y0206950D02*
X0250750Y0206950D01*
X0252200Y0208400D01*
X0267917Y0166196D02*
X0267917Y0166196D01*
X0272703Y0166555D02*
X0272703Y0166555D01*
X0276211Y0165754D02*
X0369350Y0165754D01*
X0369350Y0164756D02*
X0278648Y0164756D01*
X0277382Y0165487D02*
X0277382Y0165487D01*
X0280378Y0163757D02*
X0369350Y0163757D01*
X0369350Y0162759D02*
X0281843Y0162759D01*
X0281538Y0163087D02*
X0281538Y0163087D01*
X0282770Y0161760D02*
X0369350Y0161760D01*
X0369350Y0160762D02*
X0283696Y0160762D01*
X0284623Y0159763D02*
X0369350Y0159763D01*
X0369350Y0158765D02*
X0285190Y0158765D01*
X0284802Y0159569D02*
X0284802Y0159569D01*
X0285671Y0157766D02*
X0369350Y0157766D01*
X0369350Y0156768D02*
X0286152Y0156768D01*
X0286633Y0155769D02*
X0369350Y0155769D01*
X0369350Y0154771D02*
X0286956Y0154771D01*
X0286885Y0155246D02*
X0286885Y0155246D01*
X0287107Y0153772D02*
X0369350Y0153772D01*
X0369350Y0152774D02*
X0287257Y0152774D01*
X0287408Y0151775D02*
X0369350Y0151775D01*
X0369350Y0150777D02*
X0287558Y0150777D01*
X0287491Y0149778D02*
X0369350Y0149778D01*
X0369350Y0148780D02*
X0287341Y0148780D01*
X0287190Y0147781D02*
X0369350Y0147781D01*
X0369350Y0146783D02*
X0287040Y0146783D01*
X0286889Y0145784D02*
X0369350Y0145784D01*
X0369350Y0144786D02*
X0286418Y0144786D01*
X0285937Y0143787D02*
X0369350Y0143787D01*
X0369350Y0142789D02*
X0285456Y0142789D01*
X0284976Y0141790D02*
X0369350Y0141790D01*
X0369350Y0140792D02*
X0284210Y0140792D01*
X0284802Y0141431D02*
X0284802Y0141431D01*
X0283283Y0139793D02*
X0369350Y0139793D01*
X0369350Y0138795D02*
X0282357Y0138795D01*
X0281538Y0137913D02*
X0281538Y0137913D01*
X0281336Y0137796D02*
X0369350Y0137796D01*
X0369350Y0136798D02*
X0279607Y0136798D01*
X0277878Y0135799D02*
X0369350Y0135799D01*
X0369350Y0134801D02*
X0274261Y0134801D01*
X0277382Y0135513D02*
X0277382Y0135513D01*
X0267959Y0134801D02*
X0022637Y0134801D01*
X0022637Y0135799D02*
X0265381Y0135799D01*
X0325847Y0114830D02*
X0369350Y0114830D01*
X0369350Y0113832D02*
X0326845Y0113832D01*
X0327844Y0112833D02*
X0369350Y0112833D01*
X0369350Y0111835D02*
X0328842Y0111835D01*
X0329841Y0110836D02*
X0369350Y0110836D01*
X0369350Y0109838D02*
X0330760Y0109838D01*
X0331100Y0108839D02*
X0369350Y0108839D01*
X0369350Y0107841D02*
X0331100Y0107841D01*
X0331100Y0106842D02*
X0369350Y0106842D01*
X0369350Y0105844D02*
X0331100Y0105844D01*
X0331100Y0104845D02*
X0369350Y0104845D01*
X0369350Y0103847D02*
X0331783Y0103847D01*
X0332251Y0102848D02*
X0369350Y0102848D01*
X0369350Y0115829D02*
X0046324Y0115829D01*
X0046481Y0116827D02*
X0369350Y0116827D01*
X0369350Y0117826D02*
X0046467Y0117826D01*
X0046053Y0118824D02*
X0369350Y0118824D01*
X0369350Y0119823D02*
X0045307Y0119823D01*
X0043678Y0120821D02*
X0369350Y0120821D01*
X0369350Y0121820D02*
X0022637Y0121820D01*
X0022637Y0122818D02*
X0369350Y0122818D01*
X0369350Y0123817D02*
X0022637Y0123817D01*
X0022637Y0124815D02*
X0369350Y0124815D01*
X0369350Y0125814D02*
X0022637Y0125814D01*
X0022637Y0126812D02*
X0369350Y0126812D01*
X0369350Y0127811D02*
X0022637Y0127811D01*
X0022637Y0128809D02*
X0369350Y0128809D01*
X0369350Y0129808D02*
X0022637Y0129808D01*
X0022637Y0130806D02*
X0369350Y0130806D01*
X0369350Y0131805D02*
X0022637Y0131805D01*
X0022637Y0132803D02*
X0369350Y0132803D01*
X0369350Y0133802D02*
X0022637Y0133802D01*
X0022637Y0138795D02*
X0111893Y0138795D01*
X0109950Y0139557D02*
X0109950Y0139557D01*
X0109654Y0139793D02*
X0022637Y0139793D01*
X0022637Y0140792D02*
X0108402Y0140792D01*
X0107150Y0141790D02*
X0022637Y0141790D01*
X0022637Y0142789D02*
X0106035Y0142789D01*
X0106198Y0142549D02*
X0106198Y0142549D01*
X0106198Y0142549D01*
X0119203Y0169555D02*
X0119203Y0169555D01*
X0106500Y0199500D02*
X0093500Y0199500D01*
X0091000Y0202000D01*
X0062000Y0202000D01*
X0058000Y0198000D01*
X0058000Y0192740D01*
X0058000Y0185260D02*
X0058000Y0178500D01*
X0039500Y0181829D02*
X0039500Y0171000D01*
X0022000Y0153500D01*
X0019787Y0153500D01*
X0019787Y0156000D02*
X0022400Y0158613D01*
X0022400Y0184760D01*
X0022350Y0192333D02*
X0022350Y0205300D01*
X0039500Y0204000D02*
X0039500Y0192429D01*
X0039450Y0184760D02*
X0039450Y0181879D01*
X0039500Y0181829D01*
X0039500Y0204000D02*
X0041732Y0206232D01*
X0062495Y0206500D01*
X0101050Y0206500D01*
X0106500Y0199500D02*
X0114167Y0207167D01*
X0178317Y0207167D01*
X0178550Y0207400D01*
X0041322Y0120821D02*
X0022637Y0120821D01*
X0022637Y0119823D02*
X0039693Y0119823D01*
X0042500Y0117000D02*
X0036500Y0117000D01*
X0026000Y0106500D01*
X0019787Y0106500D01*
X0022637Y0109838D02*
X0025661Y0109838D01*
X0026659Y0110836D02*
X0022637Y0110836D01*
X0022637Y0111835D02*
X0027658Y0111835D01*
X0028656Y0112833D02*
X0022637Y0112833D01*
X0022637Y0113832D02*
X0029655Y0113832D01*
X0030653Y0114830D02*
X0022637Y0114830D01*
X0022637Y0115829D02*
X0031652Y0115829D01*
X0032650Y0116827D02*
X0022637Y0116827D01*
X0022637Y0117826D02*
X0033649Y0117826D01*
X0034647Y0118824D02*
X0022637Y0118824D01*
X0019787Y0146000D02*
X0036500Y0146000D01*
D19*
X0321000Y0076500D02*
X0321500Y0077000D01*
X0362000Y0077000D01*
M02*
