%
M48
M72
T01C0.0236
T02C0.0360
T03C0.1102
%
T01
X5950Y4600
X9050Y3750
X13200Y4550
X17150Y3700
X21350Y4650
X24500Y3650
X28600Y4650
X31650Y2750
X33900Y5450
X36250Y7200
X36200Y7700
X34350Y9300
X33700Y9700
X32850Y10150
X33400Y8900
X33250Y8200
X32100Y7650
X28350Y9300
X27800Y9700
X27400Y8900
X27000Y8200
X26650Y10200
X25250Y12450
X21000Y9300
X20400Y9700
X20000Y8900
X19700Y8200
X19300Y10150
X17800Y12450
X12950Y9300
X12250Y9700
X12000Y8900
X11650Y8200
X11200Y10500
X9600Y12400
X5950Y9300
X5000Y9700
X4850Y8900
X4650Y8200
X4250Y11700
X32500Y12600
X36500Y10750
X36650Y4150
T02
X17855Y20740
X25220Y20840
X32170Y20905
X10105Y20650
X2235Y20530
T03
X11800Y15350
X27150Y15050
M30
